<?xml version="1.0" encoding="UTF-8" standalone="no"?>
<!-- Created with Inkscape (http://www.inkscape.org/) -->

<svg
   xmlns:dc="http://purl.org/dc/elements/1.1/"
   xmlns:cc="http://creativecommons.org/ns#"
   xmlns:rdf="http://www.w3.org/1999/02/22-rdf-syntax-ns#"
   xmlns:svg="http://www.w3.org/2000/svg"
   xmlns="http://www.w3.org/2000/svg"
   xmlns:sodipodi="http://sodipodi.sourceforge.net/DTD/sodipodi-0.dtd"
   xmlns:inkscape="http://www.inkscape.org/namespaces/inkscape"
   sodipodi:docname="BaymaxHeartFace.svg"
   inkscape:version="0.91 r13725"
   version="1.1"
   id="svg3353"
   viewBox="0 0 875.00001 750.00001"
   height="750"
   width="875">
  <defs
     id="defs3355" />
  <sodipodi:namedview
     inkscape:window-maximized="1"
     inkscape:window-y="31"
     inkscape:window-x="0"
     inkscape:window-height="747"
     inkscape:window-width="1280"
     inkscape:snap-global="false"
     inkscape:snap-page="true"
     inkscape:object-nodes="true"
     inkscape:snap-intersection-paths="false"
     inkscape:snap-smooth-nodes="true"
     inkscape:guide-bbox="true"
     showguides="false"
     fit-margin-bottom="50"
     fit-margin-right="50"
     fit-margin-left="50"
     fit-margin-top="50"
     units="px"
     showgrid="false"
     inkscape:current-layer="layer2"
     inkscape:document-units="px"
     inkscape:cy="384.31292"
     inkscape:cx="437.5"
     inkscape:zoom="0.81692308"
     inkscape:pageshadow="2"
     inkscape:pageopacity="0.0"
     borderopacity="1.0"
     bordercolor="#666666"
     pagecolor="#ffffff"
     id="base">
    <sodipodi:guide
       position="12.776303,753.82388"
       orientation="1,0"
       id="guide3369"
       inkscape:label=""
       inkscape:color="rgb(0,0,255)" />
    <sodipodi:guide
       position="732.77631,753.82388"
       orientation="1,0"
       id="guide3371"
       inkscape:label=""
       inkscape:color="rgb(0,0,255)" />
    <sodipodi:guide
       position="272.7763,753.82388"
       orientation="1,0"
       id="guide3373"
       inkscape:label=""
       inkscape:color="rgb(0,0,255)" />
    <sodipodi:guide
       position="472.77631,753.82388"
       orientation="1,0"
       id="guide3375"
       inkscape:label=""
       inkscape:color="rgb(0,0,255)" />
    <sodipodi:guide
       position="-77.223699,3.8238672"
       orientation="0,1"
       id="guide3379"
       inkscape:label=""
       inkscape:color="rgb(0,0,255)" />
    <sodipodi:guide
       position="-77.223699,603.82388"
       orientation="0,1"
       id="guide3381"
       inkscape:label=""
       inkscape:color="rgb(0,0,255)" />
  </sodipodi:namedview>
  <metadata
     id="metadata3358">
    <rdf:RDF>
      <cc:Work
         rdf:about="">
        <dc:format>image/svg+xml</dc:format>
        <dc:type
           rdf:resource="http://purl.org/dc/dcmitype/StillImage" />
        <dc:title></dc:title>
      </cc:Work>
    </rdf:RDF>
  </metadata>
  <g
     inkscape:groupmode="layer"
     id="layer5"
     inkscape:label="Base"
     style="display:inline">
    <path
       style="display:inline;fill:#0000ff;fill-rule:evenodd;stroke:none;stroke-width:1.43216705px;stroke-linecap:butt;stroke-linejoin:miter;stroke-opacity:1"
       d="m 634.16994,35.486329 c -56.21726,0.70625 -114.71146,11.85322 -161.07422,45.40039 -14.27275,10.25582 -26.18255,23.547731 -35.8164,38.189451 C 412.72408,79.366419 368.57998,56.123559 324.209,45.988279 264.04359,30.498469 197.49925,30.319679 140.71877,57.933599 92.306716,81.076579 55.588846,126.66806 42.914076,178.77539 c -17.80365,69.23984 -5.49263,144.69653 29.48633,206.63281 24.18557,42.35403 56.466904,79.47855 90.263674,114.38868 68.39617,68.76876 144.3956,129.71686 224.27344,184.5957 15.32683,9.89447 29.93119,21.21368 46.33789,29.26758 8.37747,3.15101 16.6723,-3.06675 23.3457,-7.4961 13.80105,-10.94206 29.22621,-19.50087 43.33008,-30.05273 103.03303,-72.28583 201.87382,-153.35987 278.91016,-253.71094 38.93439,-52.75163 62.98449,-117.70987 61.23239,-183.73828 -0.4834,-55.79851 -20.2165,-113.62744 -62.582,-151.484371 -38.70283,-35.04871 -91.61515,-51.98243 -143.3418,-51.69141 z"
       id="path10062"
       inkscape:connector-curvature="0" />
  </g>
  <g
     inkscape:groupmode="layer"
     id="layer4"
     inkscape:label="Outline"
     style="display:inline">
    <path
       style="display:inline;fill:#000000;fill-rule:evenodd;stroke:none;stroke-width:1.43216705px;stroke-linecap:butt;stroke-linejoin:miter;stroke-opacity:1"
       d="M 634.16992,35.486328 C 577.95266,36.192578 519.45846,47.339549 473.0957,80.886719 458.82295,91.142539 446.91315,104.43445 437.2793,119.07617 412.72406,79.366414 368.57996,56.123561 324.20898,45.988281 264.04357,30.498471 197.49923,30.319674 140.71875,57.933594 92.306699,81.076574 55.588827,126.66806 42.914062,178.77539 c -17.803649,69.23984 -5.49263,144.69653 29.486329,206.63281 24.18557,42.35403 56.466899,79.47855 90.263669,114.38868 68.39617,68.76876 144.3956,129.71686 224.27344,184.5957 15.32683,9.89447 29.93119,21.21368 46.33789,29.26758 8.37747,3.15101 16.6723,-3.06675 23.3457,-7.4961 C 470.42214,695.222 485.8473,686.66319 499.95117,676.11133 602.9842,603.8255 701.82499,522.75146 778.86133,422.40039 817.79569,369.64876 841.84585,304.69052 840.09375,238.66211 839.61031,182.8636 819.8772,125.03467 777.51172,87.177734 738.80889,52.129024 685.89657,35.195308 634.16992,35.486328 Z M 634.79883,45 c 37.11264,0.225012 74.58877,8.85585 106.7539,27.701172 39.50193,22.253801 67.75839,61.491318 80.04688,104.773438 11.62708,42.13786 10.45244,87.18358 0.87109,129.60351 -12.5245,57.45343 -47.31185,106.91352 -85.24023,150.59766 -82.04941,92.08531 -180.18885,168.27198 -282.30274,236.76563 -6.65145,3.09105 -11.95915,11.77365 -20.21875,9.72265 C 375.12026,665.17239 317.34688,623.06763 262.54102,577.48828 203.04817,526.6792 144.42372,473.27168 99.476562,408.73242 72.656494,371.92058 54.131575,328.82675 48.121094,283.55859 40.113463,230.84798 46.277139,174.01057 75.402344,128.33203 103.91029,82.366624 155.45464,54.453762 208.19727,47.232422 c 46.92195,-5.476811 95.2096,0.0056 139.73437,15.808594 38.16806,13.157056 74.50273,39.402714 89.54688,78.070314 9.80362,-25.64052 29.87187,-46.242941 52.87695,-60.609377 42.24873,-25.206624 92.18768,-34.492914 140.85351,-35.498047 1.19624,-0.01018 2.39267,-0.01116 3.58985,-0.0039 z"
       id="path3363-3"
       inkscape:connector-curvature="0" />
  </g>
  <g
     inkscape:label="Heart"
     inkscape:groupmode="layer"
     id="layer1"
     transform="translate(-24.270922,-55.033253)"
     style="display:inline">
    <path
       style="fill:#ff8080;fill-rule:evenodd;stroke:none;stroke-width:1.43216705px;stroke-linecap:butt;stroke-linejoin:miter;stroke-opacity:1"
       d="M 84.749798,373.5746 C 40.251264,200.55275 142.65108,91.725987 293.95791,106.34411 455.27144,121.929 461.77092,215.79567 461.77092,215.79567 c 0,0 6.49947,-93.86667 167.81301,-109.45156 151.30684,-14.618123 253.70664,94.20864 209.20812,267.23049 -43.96407,170.94369 -377.02113,381.45865 -377.02113,381.45865 0,0 -333.05705,-210.51496 -377.021122,-381.45865 z"
       id="path3363"
       inkscape:connector-curvature="0"
       sodipodi:nodetypes="sscsscs" />
  </g>
  <g
     inkscape:groupmode="layer"
     id="layer3"
     inkscape:label="Face"
     style="display:inline"
     transform="translate(30.394461,25.862771)">
    <path
       sodipodi:nodetypes="cssscc"
       inkscape:connector-curvature="0"
       id="path9847"
       d="m 309.305,466.3741 c -162.04127,0 -195.60108,-65.26507 -195.60111,-145.7736 0,-80.50853 131.36039,-158.64102 293.40165,-158.64102 162.04126,0 293.40164,78.13249 293.40164,158.64102 -2e-5,80.50853 -33.55983,145.7736 -195.6011,145.7736 z"
       style="display:inline;fill:#cccccc;fill-rule:evenodd;stroke:none;stroke-width:0.89769971px;stroke-linecap:butt;stroke-linejoin:miter;stroke-opacity:1" />
  </g>
  <g
     inkscape:groupmode="layer"
     id="layer2"
     inkscape:label="Eyes"
     style="display:inline"
     transform="translate(30.394461,25.862771)">
    <g
       id="g9873"
       transform="matrix(1.1989179,0,0,1.1989179,-56.813313,-65.759338)">
      <path
         inkscape:connector-curvature="0"
         id="path9828"
         d="m 248.21773,248.13887 a 61.089554,61.089554 0 0 0 -61.09025,61.08862 61.089554,61.089554 0 0 0 61.09025,61.09023 61.089554,61.089554 0 0 0 59.92219,-49.28597 l 157.65682,0 a 61.089554,61.089554 0 0 0 59.88147,49.28597 61.089554,61.089554 0 0 0 61.09025,-61.09023 61.089554,61.089554 0 0 0 -61.09025,-61.08862 61.089554,61.089554 0 0 0 -59.92219,49.28598 l -157.65682,0 a 61.089554,61.089554 0 0 0 -59.88147,-49.28598 z"
         style="fill:#000000;fill-rule:evenodd;stroke:none;stroke-width:1px;stroke-linecap:butt;stroke-linejoin:miter;stroke-opacity:1" />
    </g>
  </g>
</svg>
