<?xml version="1.0" encoding="UTF-8" standalone="no"?>
<!-- Created with Inkscape (http://www.inkscape.org/) -->

<svg
   xmlns:dc="http://purl.org/dc/elements/1.1/"
   xmlns:cc="http://creativecommons.org/ns#"
   xmlns:rdf="http://www.w3.org/1999/02/22-rdf-syntax-ns#"
   xmlns:svg="http://www.w3.org/2000/svg"
   xmlns="http://www.w3.org/2000/svg"
   xmlns:sodipodi="http://sodipodi.sourceforge.net/DTD/sodipodi-0.dtd"
   xmlns:inkscape="http://www.inkscape.org/namespaces/inkscape"
   sodipodi:docname="BaymaxHeartFace.svg"
   inkscape:version="0.91 r13725"
   version="1.1"
   id="svg3353"
   viewBox="0 0 875.00001 750.00001"
   height="750"
   width="875">
  <sodipodi:namedview
     inkscape:window-maximized="1"
     inkscape:window-y="31"
     inkscape:window-x="0"
     inkscape:window-height="747"
     inkscape:window-width="1280"
     inkscape:snap-global="false"
     inkscape:snap-page="true"
     inkscape:object-nodes="true"
     inkscape:snap-intersection-paths="false"
     inkscape:snap-smooth-nodes="true"
     inkscape:guide-bbox="true"
     showguides="false"
     fit-margin-bottom="50"
     fit-margin-right="50"
     fit-margin-left="50"
     fit-margin-top="50"
     units="px"
     showgrid="false"
     inkscape:current-layer="layer2"
     inkscape:document-units="px"
     inkscape:cy="375.08329"
     inkscape:cx="433.62965"
     inkscape:zoom="0.76842721"
     inkscape:pageshadow="2"
     inkscape:pageopacity="0.0"
     borderopacity="1.0"
     bordercolor="#666666"
     pagecolor="#ffffff"
     id="base">
    <sodipodi:guide
       inkscape:color="rgb(0,0,255)"
       inkscape:label=""
       id="guide3369"
       orientation="1,0"
       position="12.776303,753.82388" />
    <sodipodi:guide
       inkscape:color="rgb(0,0,255)"
       inkscape:label=""
       id="guide3371"
       orientation="1,0"
       position="732.77631,753.82388" />
    <sodipodi:guide
       inkscape:color="rgb(0,0,255)"
       inkscape:label=""
       id="guide3373"
       orientation="1,0"
       position="272.7763,753.82388" />
    <sodipodi:guide
       inkscape:color="rgb(0,0,255)"
       inkscape:label=""
       id="guide3375"
       orientation="1,0"
       position="472.77631,753.82388" />
    <sodipodi:guide
       inkscape:color="rgb(0,0,255)"
       inkscape:label=""
       id="guide3379"
       orientation="0,1"
       position="-77.223699,3.8238672" />
    <sodipodi:guide
       inkscape:color="rgb(0,0,255)"
       inkscape:label=""
       id="guide3381"
       orientation="0,1"
       position="-77.223699,603.82388" />
  </sodipodi:namedview>
  <defs
     id="defs3355" />
  <metadata
     id="metadata3358">
    <rdf:RDF>
      <cc:Work
         rdf:about="">
        <dc:format>image/svg+xml</dc:format>
        <dc:type
           rdf:resource="http://purl.org/dc/dcmitype/StillImage" />
        <dc:title></dc:title>
      </cc:Work>
    </rdf:RDF>
  </metadata>
  <g
     style="display:inline"
     inkscape:label="Base"
     id="layer5"
     inkscape:groupmode="layer">
    <path
       inkscape:connector-curvature="0"
       id="path10787-4"
       d="M630.94901 29.416037L620.350876909 29.7692340801L609.722878086 30.3865702031L599.085991704 31.2848545684L588.461195937 32.480896375L577.86946896 33.9915048223L567.331788945 35.8334891094L556.869134067 38.0236584355L546.5024825 40.578822L536.252812417 43.515789002L526.141101992 46.8513686406L516.188329399 50.6023701152L506.415472813 54.785602625L496.843510405 59.4178753691L487.493420352 64.5159975469L478.386180825 70.0967783574L469.54277 76.177027L464.950589023 79.5943940957L460.522560313 83.2147106406L456.258240195 87.0247357715L452.157185 91.011228625L448.218951055 95.1609483379L444.443094687 99.4606540469L440.829172227 103.897104889L437.37674 108.45706L431.874349929 101.283142255L425.972221152 94.5112300254L419.697005198 88.1340706306L413.075353594 82.1444113906L406.133917869 76.5349996252L398.899349551 71.2985826543L391.398300168 66.4279077976L383.65742125 61.915722375L375.703364324 57.7547737063L367.562780918 53.9378091113L359.262322561 50.4575759099L350.828640781 47.3068214219L342.288387107 44.478292967L333.668213066 41.9647378652L324.994770188 39.7589034363L316.29471 37.853537L304.754538357 35.3959609966L293.096866074 33.3423345977L281.346565247 31.7084983452L269.528507969 30.5102927813L257.667566335 29.7635584478L245.788612441 29.4841358867L233.916518381 29.6878656401L222.07615625 30.39058825L210.292398142 31.6081442583L198.590116152 33.356374207L186.994182375 35.6511186382L175.529468906 38.5082180937L169.854092317 40.1526011251L164.220847839 41.9435131157L158.632844486 43.8829341335L153.09319127 45.9728442461L147.604997201 48.2152235213L142.171371292 50.6120520269L136.795422554 53.1653098305L131.48026 55.876977L126.346756758 58.6562188882L121.32334537 61.6025038672L116.411960689 64.7110449712L111.614537568 67.9770552344L106.93301086 71.3957476909L102.369315416 74.962335375L97.9253860902 78.6720313208L93.6031577344 82.5200485625L89.4045652013 86.5016001343L85.3315433435 90.6118990703L81.3860270137 94.8461584048L77.5699510645 99.1995911719L73.8852503484 103.667410406L70.333859718 108.244829141L66.917714026 112.927060411L63.638748125 117.70931725L60.4988968675 122.586812693L57.5000951062 127.554759773L54.6442776936 132.608371526L51.9333794824 137.742860984L49.3693353252 142.953441183L46.9540800745 148.235325156L44.6895485829 153.583725938L42.5776757031 158.993856563L40.6203962877 164.460930064L38.8196451892 169.980159477L37.1773572603 175.546757834L35.6954673535 181.155938172L34.3759103215 186.802913523L33.2206210168 192.482896922L32.2315342921 198.191101403L31.410585 203.92274L30.1476224585 214.512629189L29.2922813867 225.134148984L28.8401747388 235.77435585L28.7869154688 246.42030625L29.1281165308 257.05905665L29.8593908789 267.677663516L30.9763514673 278.263183311L32.47461125 288.8026725L34.3497831812 299.283187549L36.5974802148 309.691784922L39.2133153052 320.015521084L42.1929014063 330.2414525L45.5318514722 340.356635635L49.225778457 350.348126953L53.2702953149 360.20298292L57.661015 369.90826L61.2572223145 377.472053704L65.0848248437 384.89859291L69.1287709668 392.195136638L73.3740090625 399.368943906L77.8054875098 406.427273733L82.4081546875 413.377385137L87.1669589746 420.226537136L92.06684875 426.98198875L102.229678281 440.240826895L112.776230313 453.211971719L123.586091875 465.953495371L134.53885 478.52347L145.272615955 490.202862705L156.206076074 501.682632891L167.328006243 512.972072412L178.627182344 524.080473125L190.092380261 535.017126885L201.712375879 545.791325547L213.475945081 556.412360967L225.37186375 566.889525L237.388907771 577.232109502L249.515853027 587.449406328L274.054550781 607.545304375L298.898164082 627.251553984L323.9569 646.64249L350.131280469 665.944822812L363.356122129 675.423768945L376.69943625 684.73313L390.181251465 693.831827305L403.821596406 702.678782188L417.640499707 711.232915977L431.65799 719.45315L434.073865933 720.063645081L436.45931668 720.374686738L438.81328729 720.410228347L441.134722813 720.194223281L443.422568296 719.750624915L445.675768789 719.103386621L447.893269341 718.276461775L450.074015 717.29380375L454.321021836 714.95710166L458.408349688 712.284907344L466.07021 706.70055L485.872735811 693.149505015L505.583023047 679.419262617L525.175916416 665.491322271L544.626260625 651.347183438L563.908900381 636.968345581L582.998680391 622.336308164L601.870445361 607.432570649L620.49904 592.2386325L638.859309014 576.735993179L656.926097109 560.906152148L674.674248994 544.730608872L692.078609375 528.190862812L709.114022959 511.268413433L725.755334453 493.944760195L733.920340887 485.126700712L741.977388564 476.201402563L749.923333073 467.166553182L757.75503 458.01984L766.755094648 447.155466367L775.574553438 436.116457813L784.127928633 424.866911602L792.3297425 413.370925L800.094517305 401.592595273L803.786303267 395.586332134L807.336775313 389.496019688L810.735248726 383.317170093L813.971038789 377.045295508L817.033460786 370.675908091L819.91183 364.20452L825.091816353 351.910890115L829.746444258 339.374245918L833.859710737 326.625371848L837.415612813 313.695052344L840.398147505 300.614071843L841.669401152 294.026703857L842.791311836 287.413214785L843.761879185 280.777452684L844.579102827 274.123265608L845.24098239 267.454501612L845.7455175 260.77500875L846.090707786 254.088635078L846.274552876 247.39922865L846.295052397 240.710637521L846.150205977 234.026709746L845.838013243 227.35129338L845.356473823 220.688236477L844.703587346 214.041387093L843.877353438 207.414593281L842.875771727 200.811703098L841.696841841 194.236564597L840.338563408 187.693025834L838.798936055 181.184934863L837.07595941 174.71613974L835.167633101 168.290488518L833.071956755 161.911829253L830.78693 155.58401L827.545651533 147.639551812L823.956178828 139.840684324L820.026780928 132.203610651L815.765726875 124.744533906L811.181285713 117.479657205L806.281726484 110.42518366L801.075318232 103.597316387L795.57033 97.0122585L789.77503083 90.6862131128L783.697689766 84.6353833398L777.34657585 78.8759722954L770.729958125 73.4241830938L763.856105635 68.2962188491L756.733287422 63.5082826758L749.369772529 59.076577688L741.77383 55.017307L735.358049771 51.7692053838L728.838799102 48.7518709453L722.223656772 45.9629399248L715.520201563 43.4000485625L708.736012251 41.0608330986L701.878667617 38.9429297734L694.95574644 37.0439748271L687.9748275 35.3616045L680.943489575 33.8934550322L673.869311445 32.6371626641L666.75987189 31.5903636357L659.622749688 30.7506941875L652.465523618 30.1157905596L645.295772461 29.6832889922L638.121074995 29.4508257256L630.94901 29.416037L630.94901 29.416037"
       style="display:inline;fill:#0000ff;fill-rule:evenodd;stroke:none;stroke-width:1.43216705px;stroke-linecap:butt;stroke-linejoin:miter;stroke-opacity:1" />
  </g>
  <g
     style="display:inline"
     inkscape:label="Outline"
     id="layer4"
     inkscape:groupmode="layer">
    <path
       id="path10787"
       d="M630.94922 29.416016L620.351086797 29.7692210691L609.723087656 30.3865801152L599.086200781 31.2849002092L588.461404375 32.4809884219L577.869676641 33.991651824L567.331995781 35.8336974863L556.86934 38.0239324797L546.5026875 40.579163875L536.253016484 43.5161987429L526.141305156 46.8518441543L516.188531719 50.6029071799L506.415674375 54.7861948906L496.843711328 59.4185143572L487.493620781 64.5166726504L478.386380938 70.0974768411L469.54297 76.177734L464.950789453 79.5950697148L460.522761875 83.2153029063L456.258443359 87.0252100195L452.15739 91.0115675L448.219157891 95.161151793L444.443303125 99.4607393437L440.829381797 103.897106598L437.37695 108.45703L431.874559929 101.283112917L425.972431152 94.5112011914L419.697215198 88.1340421753L413.075563594 82.1443832188L406.134127869 76.5349716724L398.899559551 71.2985548867L391.398510168 66.4278802124L383.65763125 61.915695L375.703574324 57.7547466001L367.562990918 53.9377823633L359.262532561 50.4575496401L350.828850781 47.3067957812L342.288597107 44.4782681372L333.668423066 41.9647140586L324.994980188 39.758880896L316.29492 37.853516L304.754748357 35.3959389851L293.097076074 33.3423117871L281.346775247 31.708474926L269.528717969 30.5102689219L257.667776335 29.7635342947L245.788822441 29.4841115645L233.916728381 29.6878412512L222.07636625 30.390563875L210.292608142 31.6081199558L198.590326152 33.3563500137L186.994392375 35.6510945686L175.529678906 38.5081941406L169.854302317 40.1525772206L164.221057839 41.9434892498L158.633054486 43.8829102932L153.09340127 45.972820416L147.605207201 48.2151996831L142.171581292 50.6120281594L136.795632554 53.1652859101L131.48047 55.876953L126.346964473 58.6561919337L121.323547326 61.6024693799L116.412153643 64.710998681L111.614718512 67.9769931797L106.933177018 71.3956662184L102.369464247 74.9622311396L97.925515285 78.671901286L93.6032652187 82.51989L89.404649134 86.5014106241L85.3316021167 90.611676501L81.386059253 94.845900973L77.5699556289 99.1992973828L73.8852263305 103.667079073L70.3338064438 108.244459386L66.917631055 112.926651664L63.63863525 117.70886925L60.4987541149 122.586325486L57.4999227358 127.554233716L54.6440761988 132.607807281L51.9331495898 137.742259523L49.3690779951 142.952803787L46.9537965005 148.234653413L44.6892401922 153.583021745L42.5773441562 158.993122125L40.6200434787 164.460167896L38.8192732456 169.979372399L37.176968543 175.545948979L35.695064457 181.155110977L34.3754960737 186.802071735L33.220198479 192.482044597L32.2311067591 198.190242904L31.410156 203.92188L30.1472103867 214.511778174L29.2919175 225.133323359L28.839885832 235.773569678L28.786723875 246.41957125L29.1280401211 257.058382197L29.8594430625 267.677056641L30.9765411914 278.262648701L32.474943 288.8022125L34.3502569805 299.282802158L36.598091625 309.691471797L39.2140554258 320.015275537L42.193756875 330.2412675L45.5328044648 340.356501807L49.2268066875 350.348032578L53.2713720352 360.202913936L57.662109 369.9082L61.2583063867 377.471994041L65.0858808594 384.898534199L69.1297833867 392.195079407L73.3749649375 399.368888594L77.8063764805 406.427220691L82.4089689844 413.377334629L87.167693418 420.226489338L92.06750075 426.98194375L102.230167984 440.240787402L112.776578438 453.211937031L123.586339859 465.953464082L134.53906 478.52344L145.272825056 490.202834053L156.206282637 501.682608047L167.32820886 512.972053486L178.627379844 524.080461875L190.092571707 535.017124717L201.712560566 545.791333516L213.476122542 556.412379775L225.37203375 566.889555L237.38907031 577.232150693L249.51600834 587.449458359L274.054693281 607.545375625L298.89829752 627.251638828L323.95703 646.64258L350.131422969 665.944895469L363.356277441 675.423823613L376.69960625 684.73316375L390.181436152 693.831839668L403.821793906 702.678775156L417.64070627 711.232894004L431.6582 719.45312L434.074074697 720.06362238L436.459521953 720.374684668L438.813487139 720.410258333L441.134915625 720.194294844L443.422752783 719.750745671L445.675943984 719.103562285L447.8934346 718.276696155L450.07417 717.29409875L454.321156641 714.957515996L458.408466875 712.285425781L466.07031 706.70117L485.872843569 693.15011457L505.583152773 679.419842656L525.176080356 665.491856445L544.626469063 651.347658125L563.909161636 636.968749883L582.99900082 622.336633906L601.87082936 607.432812383L620.49949 592.2387875L638.859825483 576.736061445L656.926678555 560.906136406L674.674891958 544.73051457L692.079308437 528.190698125L709.114770737 511.268189258L725.756121602 493.944490156L733.921143603 485.126413701L741.978203774 476.201103008L749.924157459 467.16624585L757.75586 458.01953L766.755890352 447.15519375L775.575283438 436.11628375L784.128572305 424.866876875L792.33029 413.37105L800.09496957 401.59288L803.786711636 395.586690352L807.337144062 389.49644375L810.735583481 383.317649805L813.971346523 377.045818125L817.033749819 370.67645832L819.91211 364.20508L825.092090945 351.911443489L829.746713809 339.374780566L833.85997551 326.6258774L837.415872969 313.695520156L840.398403103 300.614495002L841.669654461 294.027102636L842.791562832 287.413588105L843.762127832 280.77779968L844.579349075 274.123585632L845.241226176 267.454794232L845.74575875 260.77527375L846.090946412 254.088872458L846.274788777 247.399438625L846.295285459 240.710820525L846.150436074 234.026866426L845.838240237 227.3514246L845.356697561 220.688343318L844.703807663 214.041470851L843.877570156 207.414655469L842.875984657 200.811745443L841.697050779 194.236589045L840.338768138 187.693034546L838.799136348 181.184930215L837.076155024 174.716124324L835.167823782 168.290465144L833.072142235 161.911800946L830.78711 155.58398L827.545827659 147.639525192L823.956340488 139.840667258L820.026918894 132.203608429L815.765833281 124.744550938L811.181354055 117.479697017L806.281751621 110.425248898L801.075296384 103.597408815L795.57025875 97.012379L789.774909124 90.6863616846L783.69751791 84.6355591016L777.346355515 78.8761734834L770.729692344 73.4244070625L763.855798801 68.2964620713L756.732945293 63.5085407422L749.369402224 59.0768453076L741.77344 55.017578L735.35768134 51.7694727419L728.838460723 48.7521287012L722.223355564 45.9631829778L715.519943281 43.4002726719L708.735801292 41.0610348835L701.878507012 38.9431067129L694.955637859 37.04412526L687.97477125 35.361727625L680.943484602 33.893550908L673.869355332 32.637232209L666.759960857 31.5904086282L659.622878594 30.7507172656L652.465685959 30.1157952214L645.295960371 29.6832795957L638.121279246 29.4508074885L630.94922 29.416016L630.94922 29.416016M634.79883 45.0L641.760324275 45.1411370903L648.722025605 45.4819351289L655.67562175 46.0250435171L662.612800469 46.7731116562L669.525249519 47.7287889478L676.40465666 48.894724793L683.242709651 50.2735685933L690.03109625 51.86796975L696.761504216 53.6805776646L703.425621309 55.7140417383L710.015135286 57.9710113726L716.521733906 60.4541359687L722.937104929 63.1660649282L729.252936113 66.1094476523L735.460915217 69.2869335425L741.55273 72.701172L748.826406069 77.0696286462L755.829598711 81.8171873574L762.5553902 86.9248943547L768.996862813 92.3737958594L775.147098823 98.1449380925L780.999180508 104.219367275L786.546190142 110.578129629L791.78121 117.202271375L796.697322358 124.072838734L801.287609492 131.170877928L805.545153677 138.477435177L809.463037188 145.973556703L813.0343423 153.640288727L816.252151289 161.458677471L819.109546431 169.409769155L821.59961 177.47461L823.630740344 185.408184246L825.368268379 193.401805527L826.818632107 201.447367913L827.988269531 209.536765469L828.883618655 217.661892263L829.51111748 225.814642363L829.877204011 233.986909836L829.98831625 242.17058875L829.8508922 250.357573171L829.471369863 258.539757168L828.856187244 266.709034807L828.011782344 274.857300156L826.944593167 282.976447283L825.661057715 291.058370254L824.167613992 299.094963137L822.4707 307.07812L819.86613189 317.757510823L816.767788711 328.25280502L813.203680942 338.567250808L809.201819063 348.704096406L804.79021355 358.666590032L799.996874883 368.457979902L794.84981354 378.081514236L789.37704 387.54044125L783.606564741 396.838009163L777.566398242 405.977466191L771.284550981 414.962060554L764.789033438 423.795040469L758.107856089 432.479654153L751.269029414 441.019149824L744.300563892 449.416775701L737.23047 457.67578L721.660608491 474.757466763L705.731384336 491.478549102L689.460544966 507.851046968L672.865837812 523.886980312L655.965010308 539.598369087L638.775809883 554.997233242L621.31598397 570.095592729L603.60328 584.9054675L585.655445405 599.438877505L567.490227617 613.707842695L549.125374067 627.724383022L530.578632188 641.500518437L511.867749409 655.048268892L493.010473164 668.379654336L474.024550884 681.506694722L454.92773 694.44141L452.48803459 695.830772598L450.123976094 697.553032656L445.42141125 701.23100375L442.982225605 702.804094082L440.417318281 703.944840469L439.071987849 704.293300198L437.676349629 704.461932559L436.224111165 704.426823757L434.70898 704.16406L412.450554414 689.395551602L390.375819062 674.330954688L368.498276055 658.96603293L346.8314275 643.29655L325.388775508 627.31826957L304.183822187 611.026955313L283.230069648 594.418370898L262.54102 577.48828L240.296924867 558.296406523L218.284346438 538.760929688L207.41178355 528.833090132L196.653388914 518.781849883L186.027925556 508.594708989L175.5541565 498.2591675L165.250844772 487.762725464L155.136753398 477.09288293L145.230645403 466.237139946L135.551283813 455.182996562L126.117431651 443.917952827L116.947851945 432.429508789L108.06130772 420.705164497L99.476562 408.73242L94.5460381272 401.757585776L89.8161124082 394.641534492L85.2929654421 387.390283228L80.9827778281 380.009849062L76.8917301653 372.506249077L73.0260030527 364.885500352L69.3917770896 357.153619966L65.995232875 349.316625L62.8425510081 341.380532534L59.9399120879 333.351359648L57.2934967136 325.235123423L54.9094854844 317.037840937L52.7940589993 308.765529272L50.9533978574 300.424205508L49.393682658 292.019886724L48.121094 283.55859L46.7878792417 273.630721541L45.799680793 263.628522324L45.1693749556 253.574383469L44.9098380313 243.490696094L45.0339463218 233.399851316L45.5545761289 223.324240254L46.4846037544 213.286254026L47.8369055 203.30828375L49.6243576675 193.412720544L51.8598365586 183.621955527L54.5562184751 173.958379817L57.7263797187 164.444384531L61.3831965913 155.102360789L65.5395453945 145.954699707L70.2083024302 137.023792405L75.402344 128.33203L78.1417869557 124.075742211L81.0122101611 119.925714236L84.0096149364 115.882429288L87.1300026016 111.946370578L90.3693744767 108.11802132L93.7237318818 104.397864725L97.1890761371 100.786384006L100.761408563 97.284062375L108.211043204 90.6088292285L116.040646367 84.3760309844L124.218228612 78.5895333418L132.7118005 73.253202L141.489372591 68.3709026582L150.518955445 63.9465010156L159.768559624 59.9838627715L169.206195688 56.486853625L178.799874196 53.4593392754L188.517605711 50.9051854219L198.327400792 48.8282577637L208.19727 47.232422L217.009887827 46.3337924026L225.84700168 45.6910840645L234.701098989 45.3033614792L243.564667188 45.1696891406L252.430193706 45.2891315422L261.290165977 45.6607531777L270.137071431 46.2836185408L278.9633975 47.156792125L287.761631616 48.2793384241L296.524261211 49.6503219316L305.243773716 51.2688071414L313.912656563 53.1338585469L322.523397183 55.2445406418L331.068483008 57.5999179199L339.54040147 60.1990548748L347.93164 63.041016L355.061915935 65.6611832959L362.120720137 68.5871381484L369.07955095 71.8179040049L375.909906719 75.3525043125L382.583285789 79.1899625186L389.071186504 83.3293020703L395.345107209 87.769546415L401.37654625 92.509719L407.13700197 97.5488432725L412.597972715 102.88594268L417.730956829 108.520040669L422.507452656 114.450160688L426.898958542 120.675326183L430.876972832 127.194560602L434.41299387 134.006887392L437.47852 141.11133L439.435198369 136.363065175L441.621719922 131.734635512L444.027350576 127.227795725L446.64135625 122.844300531L449.453002861 118.585904646L452.451556328 114.454362785L455.626282568 110.451429665L458.9664475 106.57886L462.461317041 102.838408507L466.100157109 99.2318299023L469.872233623 95.7608789009L473.7668125 92.4273102187L477.773159658 89.2328785718L481.880541016 86.1793386758L486.07822249 83.2684452466L490.35547 80.501953L498.365038325 75.9604123806L506.541716289 71.7808143887L514.872373999 67.9519688235L523.343881562 64.4626854844L531.943109087 61.3017741707L540.65692668 58.4580446816L549.472204448 55.9203068167L558.3758125 53.677370375L567.354620942 51.718045156L576.395499883 50.031140959L585.485319429 48.6054675833L594.610949687 47.4298348281L603.759260767 46.4930524929L612.917122773 45.783930377L622.071405815 45.2912782795L631.20898 45.003906L634.79883 45.0L634.79883 45.0"
       style="display:inline;fill:#000000;fill-rule:evenodd;stroke:none;stroke-width:1.43216705px;stroke-linecap:butt;stroke-linejoin:miter;stroke-opacity:1" />
  </g>
  <g
     style="display:inline"
     transform="translate(-24.270922,-55.033253)"
     id="layer1"
     inkscape:groupmode="layer"
     inkscape:label="Heart">
    <path
       sodipodi:nodetypes="sscsscs"
       inkscape:connector-curvature="0"
       id="path3363"
       d="M84.749798 373.5746L82.7711469764 365.511444687L81.005436239 357.543681267L79.4504229441 349.672665859L78.103864248 341.899754584L76.9635173071 334.226303562L76.0271392776 326.653668913L75.2924873158 319.183206758L74.7573185781 311.816273217L74.4193902208 304.55422441L74.2764594001 297.398416457L74.3262832725 290.35020548L74.5666189941 283.410947597L74.9952237214 276.58199893L75.6098546106 269.864715598L76.408268818 263.260453722L77.3882235 256.770569422L78.5474758128 250.396418818L79.8837829128 244.139358032L81.3949019563 238.000743182L83.0785900996 231.981930389L84.932604499 226.084275774L86.9547023108 220.309135457L89.1426406913 214.657865558L91.4941767969 209.131822197L94.0070677838 203.732361495L96.6790708083 198.460839572L99.5079430269 193.318612548L102.491441596 188.307036543L105.627323671 183.427467678L108.913346409 178.681262074L112.347266967 174.069775849L115.9268425 169.594365125L119.649830165 165.256386022L123.513987118 161.05719466L127.517070515 156.998147159L131.656837514 153.08059964L135.931045269 149.305908223L140.337450938 145.675429029L144.873811676 142.190518177L149.537884641 138.852531787L154.327426987 135.662825981L159.240195873 132.622756878L164.273948453 129.733680598L169.426441885 126.996953263L174.695433324 124.413930992L180.078679927 121.985969905L185.57393885 119.714426123L191.17896725 117.600655766L196.891522283 115.646014954L202.709361104 113.851859808L208.630240871 112.219546447L214.65191874 110.750430993L220.772151867 109.445869565L226.988697408 108.307218284L233.29931252 107.33583327L239.701754359 106.533070643L246.193780082 105.900286523L252.773146844 105.438837031L259.437611801 105.150078288L266.184932111 105.035366412L273.01286493 105.096057526L279.919167413 105.333507748L286.901596718 105.749073199L293.95791 106.34411L308.632022852 108.029281036L322.426179338 110.141613054L335.367536668 112.649584732L347.483252051 115.521674746L358.800482694 118.726361775L369.346385808 122.232124495L379.148118601 126.007441584L388.232838281 130.020791719L396.627702058 134.240653578L404.359867141 138.635505837L411.456490738 143.173827176L417.944730059 147.82409627L423.851742311 152.554791797L429.204684705 157.334392434L434.030714448 162.131376859L438.35698875 166.91422375L442.21066482 171.651411783L445.618899866 176.311419636L448.608851097 180.862725987L451.207675723 185.273809512L453.442530951 189.513148889L455.340573992 193.549222795L456.928962053 197.350509909L458.234852344 200.885488906L460.10776845 207.030437263L461.17657998 211.731897285L461.658544607 214.737698391L461.77092 215.79567L461.883295283 214.737698391L462.365259609 211.731897285L463.434070693 207.030437263L465.30698625 200.885488906L466.612876241 197.350509909L468.201263994 193.549222795L470.099306722 189.513148889L472.334161641 185.273809512L474.932985963 180.862725987L477.922936904 176.311419636L481.331171678 171.651411783L485.1848475 166.91422375L489.511121583 162.131376859L494.337151143 157.334392434L499.690093392 152.554791797L505.597105547 147.82409627L512.085344821 143.173827176L519.181968428 138.635505837L526.914133583 134.240653578L535.3089975 130.020791719L544.393717394 126.007441584L554.195450479 122.232124495L564.741353969 118.726361775L576.058585078 115.521674746L588.174301022 112.649584732L601.115659014 110.141613054L614.909816268 108.029281036L629.58393 106.34411L636.640243732 105.749073199L643.62267345 105.333507748L650.528976311 105.096057526L657.356909473 105.035366412L664.104230093 105.150078288L670.76869533 105.438837031L677.34806234 105.900286523L683.840088281 106.533070643L690.242530312 107.33583327L696.553145588 108.307218284L702.769691269 109.445869565L708.889924512 110.750430993L714.911602473 112.219546447L720.832482312 113.851859808L726.650321185 115.646014954L732.36287625 117.600655766L737.967904665 119.714426123L743.463163586 121.985969905L748.846410173 124.413930992L754.115401582 126.996953263L759.267894971 129.733680598L764.301647498 132.622756878L769.214416319 135.662825981L774.003958594 138.852531787L778.668031479 142.190518177L783.204392131 145.675429029L787.61079771 149.305908223L791.885005371 153.08059964L796.024772273 156.998147159L800.027855574 161.05719466L803.89201243 165.256386022L807.615 169.594365125L811.194575441 174.069775849L814.628495911 178.681262074L817.914518567 183.427467678L821.050400566 188.307036543L824.033899068 193.318612548L826.862771228 198.460839572L829.534774205 203.732361495L832.047665156 209.131822197L834.399201239 214.657865558L836.587139612 220.309135457L838.609237431 226.084275774L840.463251855 231.981930389L842.146940042 238.000743182L843.658059148 244.139358032L844.994366331 250.396418818L846.15361875 256.770569422L847.133573561 263.260453722L847.931987922 269.864715598L848.546618991 276.58199893L848.975223926 283.410947597L849.215559883 290.35020548L849.265384021 297.398416457L849.122453497 304.55422441L848.784525469 311.816273217L848.249357094 319.183206758L847.51470553 326.653668913L846.578327934 334.226303562L845.437981465 341.899754584L844.091423279 349.672665859L842.536410535 357.543681267L840.770700389 365.511444687L838.79205 373.5746L836.521869503 381.615614329L833.842452831 389.708870367L830.768039869 397.848644092L827.3128705 406.029211487L823.491184611 414.244848531L819.317222085 422.489831205L814.805222806 430.758435489L809.96942666 439.044937363L804.824073531 447.343612809L799.383403304 455.648737807L793.661655862 463.954588336L787.673071091 472.255440378L781.431888876 480.545569914L774.9523491 488.819252922L768.248691649 497.070765384L761.335156406 505.294383281L754.225983257 513.484382593L746.935412086 521.6350393L731.867035217 537.795428821L716.243944875 553.729759688L700.180060137 569.392239746L683.789300078 584.737076837L667.185583777 599.718478806L650.482830309 614.290653496L633.79495875 628.40780875L617.235888178 642.024152412L600.919537668 655.093892327L584.959826299 667.571236336L569.470673145 679.410392285L554.565997283 690.565568017L540.359717791 700.990971375L514.498024219 719.469292344L492.796945042 734.479017942L476.167832871 745.653810918L461.77092 755.03325L447.374007555 745.653810918L430.744895868 734.479017942L409.043817312 719.469292344L383.182124468 700.990971375L368.975845368 690.565568017L354.071169914 679.410392285L338.582017178 667.571236336L322.622306231 655.093892327L306.305956148 642.024152412L289.746886 628.40780875L273.05901486 614.290653496L256.3562618 599.718478806L239.752545893 584.737076837L223.361786211 569.392239746L207.297901827 553.729759688L191.674811813 537.795428821L176.606435243 521.6350393L169.315864209 513.484382593L162.206691187 505.294383281L155.293156063 497.070765384L148.58949872 488.819252922L142.109959042 480.545569914L135.868776913 472.255440378L129.880192217 463.954588336L124.158444839 455.648737807L118.717774662 447.343612809L113.57242157 439.044937363L108.736625448 430.758435489L104.22462618 422.489831205L100.050663649 414.244848531L96.2289777393 406.029211487L92.7738083357 397.848644092L89.6993953219 389.708870367L87.019978582 381.615614329L84.749798 373.5746L84.749798 373.5746"
       style="fill:#ff8080;fill-rule:evenodd;stroke:none;stroke-width:1.43216705px;stroke-linecap:butt;stroke-linejoin:miter;stroke-opacity:1" />
  </g>
  <g
     transform="translate(30.394461,25.862771)"
     style="display:inline"
     inkscape:label="Face"
     id="layer3"
     inkscape:groupmode="layer">
    <path
       style="display:inline;fill:#cccccc;fill-rule:evenodd;stroke:none;stroke-width:0.89769971px;stroke-linecap:butt;stroke-linejoin:miter;stroke-opacity:1"
       d="M309.305 466.3741L294.487144685 466.184420279L280.404729746 465.621487268L267.040374504 464.694460199L254.376698281 463.412498301L242.396320398 461.784760805L231.081860176 459.820406941L220.415936936 457.52859594L210.38117 454.918487031L200.960178689 451.999239446L192.135582324 448.780012415L183.890000227 445.269965167L176.206051719 441.478256934L169.066356121 437.414046945L162.453532754 433.086494431L156.35020094 428.504758623L150.73898 423.67799875L145.602489255 418.615374043L140.923348027 413.326043733L136.684175637 407.819167049L132.867591406 402.103903223L129.456214656 396.189411483L126.432664707 390.084851062L123.779560881 383.799381189L121.4795225 377.342161094L119.515168884 370.722350008L117.869119355 363.949107161L116.523993235 357.031591783L115.462409844 349.978963105L114.666988503 342.800380358L114.120348535 335.505002771L113.80510926 328.101989575L113.70389 320.6005L113.799717161 316.828691908L114.085662397 313.062098271L114.559421337 309.302453016L115.218689609 305.551490071L116.061162842 301.810943363L117.084536665 298.082546821L118.286506706 294.368034371L119.664768594 290.669139941L121.217017957 286.987597459L122.940950425 283.325140852L124.834261625 279.683504048L126.894647187 276.064420974L129.11980274 272.469625558L131.507423911 268.900851727L136.760845625 261.848304531L142.636477358 254.920650807L149.115884141 248.131761975L156.180631001 241.495509455L163.812282969 235.025764668L171.992405073 228.736399034L180.702562344 222.641283972L189.92431981 216.754290904L199.6392425 211.08929125L209.828895444 205.66015643L220.474843672 200.480757864L231.558652212 195.564966972L243.061886094 190.926655176L254.966110347 186.579693894L267.25289 182.537954548L279.903790083 178.815308558L292.900375625 175.425627344L306.224211655 172.382782326L319.856863203 169.700644924L333.779895298 167.39308656L347.974872969 165.473978652L362.423361245 163.957192622L377.106925156 162.85659989L392.007129731 162.186071876L407.10554 161.95948L422.20395024 162.186071876L437.104154731 162.85659989L451.787718508 163.957192622L466.236206602 165.473978652L480.431184046 167.39308656L494.354215874 169.700644924L507.986867119 172.382782326L521.310702813 175.425627344L534.307287989 178.815308558L546.958187681 182.537954548L559.244966921 186.579693894L571.149190742 190.926655176L582.652424178 195.564966972L593.736232261 200.480757864L604.382180024 205.66015643L614.5718325 211.08929125L624.286754722 216.754290904L633.508511724 222.641283972L642.218668537 228.736399034L650.398790195 235.025764668L658.030441732 241.495509455L665.095188179 248.131761975L671.57459457 254.920650807L677.450225938 261.848304531L682.703647315 268.900851727L685.09126833 272.469625558L687.316423735 276.064420974L689.376809159 279.683504048L691.270120231 283.325140852L692.99405258 286.987597459L694.546301836 290.669139941L695.924563627 294.368034371L697.126533582 298.082546821L698.149907331 301.810943363L698.992380503 305.551490071L699.651648727 309.302453016L700.125407631 313.062098271L700.411352846 316.828691908L700.50718 320.6005L700.405961648 328.101989575L700.090723225 335.505002771L699.544084054 342.800380358L698.748663457 349.978963105L697.687080758 357.031591783L696.341955281 363.949107161L694.695906347 370.722350008L692.731553281 377.342161094L690.431515406 383.799381189L687.778412043 390.084851062L684.754862518 396.189411483L681.343486152 402.103903223L677.52690227 407.819167049L673.287730193 413.326043733L668.608589245 418.615374043L663.47209875 423.67799875L657.86087803 428.504758623L651.757546409 433.086494431L645.144723209 437.414046945L638.005027754 441.478256934L630.321079367 445.269965167L622.075497371 448.780012415L613.250901089 451.999239446L603.829909844 454.918487031L593.795142959 457.52859594L583.129219758 459.820406941L571.814759564 461.784760805L559.834381699 463.412498301L547.170705487 464.694460199L533.806350251 465.621487268L519.723935315 466.184420279L504.90608 466.3741L309.305 466.3741"
       id="path9847"
       inkscape:connector-curvature="0"
       sodipodi:nodetypes="cssscc" />
  </g>
  <g
     transform="translate(30.394461,25.862771)"
     style="display:inline"
     inkscape:label="Eyes"
     id="layer2"
     inkscape:groupmode="layer">
    <path
       inkscape:connector-curvature="0"
       id="path9828"
       d="M240.77937 231.73879L237.010388295 231.834047484L233.290881784 232.116839056L229.625452386 232.582562922L226.01870202 233.226617285L222.475232604 234.044400349L218.999646059 235.031310318L215.596544303 236.182745397L212.270529255 237.49410379L209.026202833 238.9607837L205.868166958 240.578183332L202.801023548 242.34170089L199.829374523 244.246734579L196.9578218 246.288682601L194.1909673 248.462943162L191.533412941 250.764914465L188.989760643 253.189994715L186.564612323 255.733582115L184.262569903 258.39107487L182.088235299 261.157871184L180.046210432 264.029369261L178.141097221 267.000967306L176.377497584 270.068063521L174.76001344 273.226056112L173.293246709 276.470343282L171.98179931 279.796323236L170.830273162 283.199394178L169.843270183 286.674954311L169.025392293 290.218401841L168.38124141 293.82513497L167.915419455 297.490551904L167.632528345 301.210050846L167.53717 304.97903L167.627145026 308.610913689L167.895493861 312.218148397L168.339729802 315.794730604L168.957366149 319.334656789L169.745916201 322.831923428L170.702893256 326.280527002L171.825810613 329.674463989L173.112181572 333.007730867L174.55951943 336.274324115L176.165337488 339.468240211L177.927149043 342.583475633L179.842467395 345.614026861L181.908805842 348.553890373L184.123677684 351.397062646L186.48459622 354.137540161L188.989074747 356.769319395L191.620854665 359.273797204L194.361332825 361.634714991L197.204505703 363.849586057L200.144369779 365.915923701L203.17492153 367.831241226L206.290157434 369.59305193L209.484073968 371.198869116L212.750667611 372.646206082L216.08393484 373.932576131L219.477872133 375.055492561L222.926475969 376.012468674L226.423742824 376.801017771L229.963669177 377.418653151L233.540251505 377.862888116L237.147486287 378.131235965L240.77937 378.22121L247.277573728 377.933208818L253.634105526 377.087496856L259.821949594 375.706294602L265.814090131 373.811822541L271.583511337 371.426301161L277.103197413 368.571950947L282.346132559 365.270992387L287.285300974 361.545645966L291.893686859 357.418132172L296.144274413 352.910671489L300.010047837 348.045484406L303.463991331 342.844791408L306.479089094 337.330812982L309.028325326 331.525769615L311.084684228 325.451881792L312.62115 319.13137L501.63874 319.13137L503.174272625 325.448658864L505.229198156 331.519644727L507.776547467 337.322130406L510.789351432 342.833918721L514.240640925 348.03281249L518.103446818 352.896614532L522.350799987 357.403127664L526.955731303 361.530154706L531.891271641 365.255498476L537.130451874 368.556961792L542.646302877 371.412347473L548.411855522 373.799458338L554.400140683 375.696097204L560.584189234 377.080066891L566.937032049 377.929170217L573.4317 378.22121L577.063583713 378.131235965L580.670818495 377.862888116L584.247400823 377.418653151L587.787327176 376.801017771L591.284594031 376.012468674L594.733197867 375.055492561L598.12713516 373.932576131L601.460402389 372.646206082L604.726996032 371.198869116L607.920912566 369.59305193L611.03614847 367.831241226L614.066700221 365.915923701L617.006564297 363.849586057L619.849737175 361.634714991L622.590215335 359.273797204L625.221995253 356.769319395L627.72647378 354.137540161L630.087392316 351.397062646L632.302264158 348.553890373L634.368602605 345.614026861L636.283920957 342.583475633L638.045732512 339.468240211L639.65155057 336.274324115L641.098888428 333.007730867L642.385259387 329.674463989L643.508176744 326.280527003L644.465153799 322.831923429L645.253703851 319.334656789L645.871340198 315.794730605L646.315576139 312.218148398L646.583924974 308.610913689L646.6739 304.979030001L646.578541655 301.210050846L646.295650545 297.490551904L645.82982859 293.825134971L645.185677707 290.218401841L644.367799817 286.674954312L643.380796838 283.199394178L642.22927069 279.796323237L640.917823291 276.470343283L639.45105656 273.226056112L637.833572417 270.068063521L636.06997278 267.000967306L634.164859568 264.029369262L632.122834701 261.157871185L629.948500098 258.39107487L627.646457677 255.733582115L625.221309358 253.189994715L622.677657059 250.764914465L620.0201027 248.462943162L617.2532482 246.288682601L614.381695477 244.246734579L611.410046452 242.34170089L608.342903042 240.578183332L605.184867167 238.9607837L601.940540746 237.49410379L598.614525697 236.182745397L595.211423941 235.031310318L591.735837396 234.044400349L588.19236798 233.226617285L584.585617614 232.582562922L580.920188216 232.116839056L577.200681705 231.834047484L573.4317 231.73879L566.933495716 232.026791406L560.576963414 232.872503681L554.3891189 234.25370633L548.396977977 236.148178859L542.627556451 238.533700775L537.107870126 241.388051582L531.864934807 244.689010787L526.925766299 248.414357896L522.317380407 252.541872414L518.066792935 257.049333848L514.201019688 261.914521703L510.747076471 267.115215485L507.731979089 272.629194699L505.182743347 278.434238853L503.126385049 284.508127451L501.58992 290.82864L312.57233 290.82864L311.036798098 284.511350379L308.98187317 278.440363741L306.434524349 272.637877276L303.421720765 267.126088172L299.970431549 261.927193619L296.107625833 257.063390806L291.860272747 252.556876922L287.255341423 248.429849157L282.319800993 244.704504699L277.080620586 241.403040739L271.564769335 238.547654464L265.79921637 236.160543064L259.810930823 234.263903728L253.626881825 232.879933647L247.274038507 232.030830007L240.77937 231.73879L240.77937 231.73879"
       style="fill:#000000;fill-rule:evenodd;stroke:none;stroke-width:1px;stroke-linecap:butt;stroke-linejoin:miter;stroke-opacity:1" />
  </g>
</svg>
