  0
SECTION
  2
HEADER
  9
$ACADVER
  1
AC1014
  9
$HANDSEED
  5
FFFF
  9
$MEASUREMENT
 70
     1
  0
ENDSEC
  0
SECTION
  2
TABLES
  0
TABLE
  2
VPORT
  5
8
330
0
100
AcDbSymbolTable
 70
     4
  0
VPORT
  5
2E
330
8
100
AcDbSymbolTableRecord
100
AcDbViewportTableRecord
  2
*ACTIVE
 70
     0
 10
0.0
 20
0.0
 11
1.0
 21
1.0
 12
210.0
 22
148.5
 13
0.0
 23
0.0
 14
10.0
 24
10.0
 15
10.0
 25
10.0
 16
0.0
 26
0.0
 36
1.0
 17
0.0
 27
0.0
 37
0.0
 40
341.0
 41
1.24
 42
50.0
 43
0.0
 44
0.0
 50
0.0
 51
0.0
 71
     0
 72
   100
 73
     1
 74
     3
 75
     0
 76
     0
 77
     0
 78
     0
  0
ENDTAB
  0
TABLE
  2
LTYPE
  5
5
330
0
100
AcDbSymbolTable
 70
     1
  0
LTYPE
  5
14
330
5
100
AcDbSymbolTableRecord
100
AcDbLinetypeTableRecord
  2
BYBLOCK
 70
     0
  3

 72
    65
 73
     0
 40
0.0
  0
LTYPE
  5
15
330
5
100
AcDbSymbolTableRecord
100
AcDbLinetypeTableRecord
  2
BYLAYER
 70
     0
  3

 72
    65
 73
     0
 40
0.0
  0
LTYPE
  5
16
330
5
100
AcDbSymbolTableRecord
100
AcDbLinetypeTableRecord
  2
CONTINUOUS
 70
     0
  3
Solid line
 72
    65
 73
     0
 40
0.0
  0
ENDTAB
  0
TABLE
  2
LAYER
  5
2
100
AcDbSymbolTable
 70
6
  0
LAYER
  5
50
100
AcDbSymbolTableRecord
100
AcDbLayerTableRecord
  2
0
 70
0
  6
CONTINUOUS
  0
LAYER
  5
51
100
AcDbSymbolTableRecord
100
AcDbLayerTableRecord
  2
Base
 70
0
  6
CONTINUOUS
  0
LAYER
  5
52
100
AcDbSymbolTableRecord
100
AcDbLayerTableRecord
  2
Outline
 70
0
  6
CONTINUOUS
  0
LAYER
  5
53
100
AcDbSymbolTableRecord
100
AcDbLayerTableRecord
  2
Heart
 70
0
  6
CONTINUOUS
  0
LAYER
  5
54
100
AcDbSymbolTableRecord
100
AcDbLayerTableRecord
  2
Face
 70
0
  6
CONTINUOUS
  0
LAYER
  5
55
100
AcDbSymbolTableRecord
100
AcDbLayerTableRecord
  2
Eyes
 70
0
  6
CONTINUOUS
  0
ENDTAB
  0
TABLE
  2
STYLE
  5
3
330
0
100
AcDbSymbolTable
 70
     1
  0
STYLE
  5
11
330
3
100
AcDbSymbolTableRecord
100
AcDbTextStyleTableRecord
  2
STANDARD
 70
     0
 40
0.0
 41
1.0
 50
0.0
 71
     0
 42
2.5
  3
txt
  4

  0
ENDTAB
  0
TABLE
  2
VIEW
  5
6
330
0
100
AcDbSymbolTable
 70
     0
  0
ENDTAB
  0
TABLE
  2
UCS
  5
7
330
0
100
AcDbSymbolTable
 70
     0
  0
ENDTAB
  0
TABLE
  2
APPID
  5
9
330
0
100
AcDbSymbolTable
 70
     2
  0
APPID
  5
12
330
9
100
AcDbSymbolTableRecord
100
AcDbRegAppTableRecord
  2
ACAD
 70
     0
  0
ENDTAB
  0
TABLE
  2
DIMSTYLE
  5
A
330
0
100
AcDbSymbolTable
 70
     1
  0
DIMSTYLE
105
27
330
A
100
AcDbSymbolTableRecord
100
AcDbDimStyleTableRecord
  2
ISO-25
 70
     0
  3

  4

  5

  6

  7

 40
1.0
 41
2.5
 42
0.625
 43
3.75
 44
1.25
 45
0.0
 46
0.0
 47
0.0
 48
0.0
140
2.5
141
2.5
142
0.0
143
0.03937007874016
144
1.0
145
0.0
146
1.0
147
0.625
 71
     0
 72
     0
 73
     0
 74
     0
 75
     0
 76
     0
 77
     1
 78
     8
170
     0
171
     3
172
     1
173
     0
174
     0
175
     0
176
     0
177
     0
178
     0
270
     2
271
     2
272
     2
273
     2
274
     3
340
11
275
     0
280
     0
281
     0
282
     0
283
     0
284
     8
285
     0
286
     0
287
     3
288
     0
  0
ENDTAB
  0
TABLE
  2
BLOCK_RECORD
  5
1
330
0
100
AcDbSymbolTable
 70
     1
  0
BLOCK_RECORD
  5
1F
330
1
100
AcDbSymbolTableRecord
100
AcDbBlockTableRecord
  2
*MODEL_SPACE
  0
BLOCK_RECORD
  5
1B
330
1
100
AcDbSymbolTableRecord
100
AcDbBlockTableRecord
  2
*PAPER_SPACE
  0
ENDTAB
  0
ENDSEC
  0
SECTION
  2
BLOCKS
  0
BLOCK
  5
20
330
1F
100
AcDbEntity
  8
0
100
AcDbBlockBegin
  2
*MODEL_SPACE
 70
     0
 10
0.0
 20
0.0
 30
0.0
  3
*MODEL_SPACE
  1

  0
ENDBLK
  5
21
330
1F
100
AcDbEntity
  8
0
100
AcDbBlockEnd
  0
BLOCK
  5
1C
330
1B
100
AcDbEntity
 67
     1
  8
0
100
AcDbBlockBegin
  2
*PAPER_SPACE
  1

  0
ENDBLK
  5
1D
330
1B
100
AcDbEntity
 67
     1
  8
0
100
AcDbBlockEnd
  0
ENDSEC
  0
SECTION
  2
ENTITIES
  0
LINE
  5
100
100
AcDbEntity
  8
Base
 62
7
100
AcDbLine
 10
634.169940
 20
714.513671
 30
0.0
 11
623.606039
 21
714.255977
 31
0.0
  0
LINE
  5
101
100
AcDbEntity
  8
Base
 62
7
100
AcDbLine
 10
623.606039
 20
714.255977
 30
0.0
 11
613.009877
 21
713.736060
 31
0.0
  0
LINE
  5
102
100
AcDbEntity
  8
Base
 62
7
100
AcDbLine
 10
613.009877
 20
713.736060
 30
0.0
 11
602.402562
 21
712.936401
 31
0.0
  0
LINE
  5
103
100
AcDbEntity
  8
Base
 62
7
100
AcDbLine
 10
602.402562
 20
712.936401
 30
0.0
 11
591.805200
 21
711.839482
 31
0.0
  0
LINE
  5
104
100
AcDbEntity
  8
Base
 62
7
100
AcDbLine
 10
591.805200
 20
711.839482
 30
0.0
 11
581.238895
 21
710.427783
 31
0.0
  0
LINE
  5
105
100
AcDbEntity
  8
Base
 62
7
100
AcDbLine
 10
581.238895
 20
710.427783
 30
0.0
 11
570.724755
 21
708.683785
 31
0.0
  0
LINE
  5
106
100
AcDbEntity
  8
Base
 62
7
100
AcDbLine
 10
570.724755
 20
708.683785
 30
0.0
 11
560.283886
 21
706.589971
 31
0.0
  0
LINE
  5
107
100
AcDbEntity
  8
Base
 62
7
100
AcDbLine
 10
560.283886
 20
706.589971
 30
0.0
 11
549.937392
 21
704.128821
 31
0.0
  0
LINE
  5
108
100
AcDbEntity
  8
Base
 62
7
100
AcDbLine
 10
549.937392
 20
704.128821
 30
0.0
 11
539.706382
 21
701.282816
 31
0.0
  0
LINE
  5
109
100
AcDbEntity
  8
Base
 62
7
100
AcDbLine
 10
539.706382
 20
701.282816
 30
0.0
 11
529.611959
 21
698.034439
 31
0.0
  0
LINE
  5
10a
100
AcDbEntity
  8
Base
 62
7
100
AcDbLine
 10
529.611959
 20
698.034439
 30
0.0
 11
519.675231
 21
694.366169
 31
0.0
  0
LINE
  5
10b
100
AcDbEntity
  8
Base
 62
7
100
AcDbLine
 10
519.675231
 20
694.366169
 30
0.0
 11
509.917304
 21
690.260488
 31
0.0
  0
LINE
  5
10c
100
AcDbEntity
  8
Base
 62
7
100
AcDbLine
 10
509.917304
 20
690.260488
 30
0.0
 11
500.359283
 21
685.699877
 31
0.0
  0
LINE
  5
10d
100
AcDbEntity
  8
Base
 62
7
100
AcDbLine
 10
500.359283
 20
685.699877
 30
0.0
 11
491.022275
 21
680.666819
 31
0.0
  0
LINE
  5
10e
100
AcDbEntity
  8
Base
 62
7
100
AcDbLine
 10
491.022275
 20
680.666819
 30
0.0
 11
481.927385
 21
675.143793
 31
0.0
  0
LINE
  5
10f
100
AcDbEntity
  8
Base
 62
7
100
AcDbLine
 10
481.927385
 20
675.143793
 30
0.0
 11
473.095720
 21
669.113281
 31
0.0
  0
LINE
  5
110
100
AcDbEntity
  8
Base
 62
7
100
AcDbLine
 10
473.095720
 20
669.113281
 30
0.0
 11
467.854032
 21
665.128325
 31
0.0
  0
LINE
  5
111
100
AcDbEntity
  8
Base
 62
7
100
AcDbLine
 10
467.854032
 20
665.128325
 30
0.0
 11
462.832851
 21
660.878497
 31
0.0
  0
LINE
  5
112
100
AcDbEntity
  8
Base
 62
7
100
AcDbLine
 10
462.832851
 20
660.878497
 30
0.0
 11
458.031158
 21
656.383558
 31
0.0
  0
LINE
  5
113
100
AcDbEntity
  8
Base
 62
7
100
AcDbLine
 10
458.031158
 20
656.383558
 30
0.0
 11
453.447932
 21
651.663268
 31
0.0
  0
LINE
  5
114
100
AcDbEntity
  8
Base
 62
7
100
AcDbLine
 10
453.447932
 20
651.663268
 30
0.0
 11
449.082156
 21
646.737389
 31
0.0
  0
LINE
  5
115
100
AcDbEntity
  8
Base
 62
7
100
AcDbLine
 10
449.082156
 20
646.737389
 30
0.0
 11
444.932808
 21
641.625683
 31
0.0
  0
LINE
  5
116
100
AcDbEntity
  8
Base
 62
7
100
AcDbLine
 10
444.932808
 20
641.625683
 30
0.0
 11
440.998869
 21
636.347909
 31
0.0
  0
LINE
  5
117
100
AcDbEntity
  8
Base
 62
7
100
AcDbLine
 10
440.998869
 20
636.347909
 30
0.0
 11
437.279320
 21
630.923830
 31
0.0
  0
LINE
  5
118
100
AcDbEntity
  8
Base
 62
7
100
AcDbLine
 10
437.279320
 20
630.923830
 30
0.0
 11
432.450383
 21
638.177257
 31
0.0
  0
LINE
  5
119
100
AcDbEntity
  8
Base
 62
7
100
AcDbLine
 10
432.450383
 20
638.177257
 30
0.0
 11
427.190694
 21
645.049662
 31
0.0
  0
LINE
  5
11a
100
AcDbEntity
  8
Base
 62
7
100
AcDbLine
 10
427.190694
 20
645.049662
 30
0.0
 11
421.528615
 21
651.545966
 31
0.0
  0
LINE
  5
11b
100
AcDbEntity
  8
Base
 62
7
100
AcDbLine
 10
421.528615
 20
651.545966
 30
0.0
 11
415.492510
 21
657.671090
 31
0.0
  0
LINE
  5
11c
100
AcDbEntity
  8
Base
 62
7
100
AcDbLine
 10
415.492510
 20
657.671090
 30
0.0
 11
409.110739
 21
663.429955
 31
0.0
  0
LINE
  5
11d
100
AcDbEntity
  8
Base
 62
7
100
AcDbLine
 10
409.110739
 20
663.429955
 30
0.0
 11
402.411667
 21
668.827481
 31
0.0
  0
LINE
  5
11e
100
AcDbEntity
  8
Base
 62
7
100
AcDbLine
 10
402.411667
 20
668.827481
 30
0.0
 11
395.423654
 21
673.868590
 31
0.0
  0
LINE
  5
11f
100
AcDbEntity
  8
Base
 62
7
100
AcDbLine
 10
395.423654
 20
673.868590
 30
0.0
 11
388.175063
 21
678.558202
 31
0.0
  0
LINE
  5
120
100
AcDbEntity
  8
Base
 62
7
100
AcDbLine
 10
388.175063
 20
678.558202
 30
0.0
 11
380.694256
 21
682.901238
 31
0.0
  0
LINE
  5
121
100
AcDbEntity
  8
Base
 62
7
100
AcDbLine
 10
380.694256
 20
682.901238
 30
0.0
 11
373.009596
 21
686.902620
 31
0.0
  0
LINE
  5
122
100
AcDbEntity
  8
Base
 62
7
100
AcDbLine
 10
373.009596
 20
686.902620
 30
0.0
 11
365.149444
 21
690.567267
 31
0.0
  0
LINE
  5
123
100
AcDbEntity
  8
Base
 62
7
100
AcDbLine
 10
365.149444
 20
690.567267
 30
0.0
 11
357.142164
 21
693.900101
 31
0.0
  0
LINE
  5
124
100
AcDbEntity
  8
Base
 62
7
100
AcDbLine
 10
357.142164
 20
693.900101
 30
0.0
 11
349.016117
 21
696.906042
 31
0.0
  0
LINE
  5
125
100
AcDbEntity
  8
Base
 62
7
100
AcDbLine
 10
349.016117
 20
696.906042
 30
0.0
 11
340.799666
 21
699.590012
 31
0.0
  0
LINE
  5
126
100
AcDbEntity
  8
Base
 62
7
100
AcDbLine
 10
340.799666
 20
699.590012
 30
0.0
 11
332.521173
 21
701.956931
 31
0.0
  0
LINE
  5
127
100
AcDbEntity
  8
Base
 62
7
100
AcDbLine
 10
332.521173
 20
701.956931
 30
0.0
 11
324.209000
 21
704.011721
 31
0.0
  0
LINE
  5
128
100
AcDbEntity
  8
Base
 62
7
100
AcDbLine
 10
324.209000
 20
704.011721
 30
0.0
 11
312.857174
 21
706.733587
 31
0.0
  0
LINE
  5
129
100
AcDbEntity
  8
Base
 62
7
100
AcDbLine
 10
312.857174
 20
706.733587
 30
0.0
 11
301.379488
 21
709.078317
 31
0.0
  0
LINE
  5
12a
100
AcDbEntity
  8
Base
 62
7
100
AcDbLine
 10
301.379488
 20
709.078317
 30
0.0
 11
289.799589
 21
711.027628
 31
0.0
  0
LINE
  5
12b
100
AcDbEntity
  8
Base
 62
7
100
AcDbLine
 10
289.799589
 20
711.027628
 30
0.0
 11
278.141124
 21
712.563236
 31
0.0
  0
LINE
  5
12c
100
AcDbEntity
  8
Base
 62
7
100
AcDbLine
 10
278.141124
 20
712.563236
 30
0.0
 11
266.427740
 21
713.666857
 31
0.0
  0
LINE
  5
12d
100
AcDbEntity
  8
Base
 62
7
100
AcDbLine
 10
266.427740
 20
713.666857
 30
0.0
 11
254.683083
 21
714.320207
 31
0.0
  0
LINE
  5
12e
100
AcDbEntity
  8
Base
 62
7
100
AcDbLine
 10
254.683083
 20
714.320207
 30
0.0
 11
242.930799
 21
714.505002
 31
0.0
  0
LINE
  5
12f
100
AcDbEntity
  8
Base
 62
7
100
AcDbLine
 10
242.930799
 20
714.505002
 30
0.0
 11
231.194536
 21
714.202960
 31
0.0
  0
LINE
  5
130
100
AcDbEntity
  8
Base
 62
7
100
AcDbLine
 10
231.194536
 20
714.202960
 30
0.0
 11
219.497940
 21
713.395795
 31
0.0
  0
LINE
  5
131
100
AcDbEntity
  8
Base
 62
7
100
AcDbLine
 10
219.497940
 20
713.395795
 30
0.0
 11
207.864658
 21
712.065226
 31
0.0
  0
LINE
  5
132
100
AcDbEntity
  8
Base
 62
7
100
AcDbLine
 10
207.864658
 20
712.065226
 30
0.0
 11
196.318337
 21
710.192966
 31
0.0
  0
LINE
  5
133
100
AcDbEntity
  8
Base
 62
7
100
AcDbLine
 10
196.318337
 20
710.192966
 30
0.0
 11
184.882623
 21
707.760734
 31
0.0
  0
LINE
  5
134
100
AcDbEntity
  8
Base
 62
7
100
AcDbLine
 10
184.882623
 20
707.760734
 30
0.0
 11
179.213633
 21
706.328915
 31
0.0
  0
LINE
  5
135
100
AcDbEntity
  8
Base
 62
7
100
AcDbLine
 10
179.213633
 20
706.328915
 30
0.0
 11
173.581162
 21
704.750245
 31
0.0
  0
LINE
  5
136
100
AcDbEntity
  8
Base
 62
7
100
AcDbLine
 10
173.581162
 20
704.750245
 30
0.0
 11
167.988167
 21
703.022441
 31
0.0
  0
LINE
  5
137
100
AcDbEntity
  8
Base
 62
7
100
AcDbLine
 10
167.988167
 20
703.022441
 30
0.0
 11
162.437602
 21
701.143216
 31
0.0
  0
LINE
  5
138
100
AcDbEntity
  8
Base
 62
7
100
AcDbLine
 10
162.437602
 20
701.143216
 30
0.0
 11
156.932424
 21
699.110285
 31
0.0
  0
LINE
  5
139
100
AcDbEntity
  8
Base
 62
7
100
AcDbLine
 10
156.932424
 20
699.110285
 30
0.0
 11
151.475589
 21
696.921362
 31
0.0
  0
LINE
  5
13a
100
AcDbEntity
  8
Base
 62
7
100
AcDbLine
 10
151.475589
 20
696.921362
 30
0.0
 11
146.070052
 21
694.574163
 31
0.0
  0
LINE
  5
13b
100
AcDbEntity
  8
Base
 62
7
100
AcDbLine
 10
146.070052
 20
694.574163
 30
0.0
 11
140.718770
 21
692.066401
 31
0.0
  0
LINE
  5
13c
100
AcDbEntity
  8
Base
 62
7
100
AcDbLine
 10
140.718770
 20
692.066401
 30
0.0
 11
131.781566
 21
687.467914
 31
0.0
  0
LINE
  5
13d
100
AcDbEntity
  8
Base
 62
7
100
AcDbLine
 10
131.781566
 20
687.467914
 30
0.0
 11
123.136534
 21
682.366628
 31
0.0
  0
LINE
  5
13e
100
AcDbEntity
  8
Base
 62
7
100
AcDbLine
 10
123.136534
 20
682.366628
 30
0.0
 11
114.801762
 21
676.785884
 31
0.0
  0
LINE
  5
13f
100
AcDbEntity
  8
Base
 62
7
100
AcDbLine
 10
114.801762
 20
676.785884
 30
0.0
 11
106.795341
 21
670.749020
 31
0.0
  0
LINE
  5
140
100
AcDbEntity
  8
Base
 62
7
100
AcDbLine
 10
106.795341
 20
670.749020
 30
0.0
 11
99.135359
 21
664.279374
 31
0.0
  0
LINE
  5
141
100
AcDbEntity
  8
Base
 62
7
100
AcDbLine
 10
99.135359
 20
664.279374
 30
0.0
 11
91.839905
 21
657.400286
 31
0.0
  0
LINE
  5
142
100
AcDbEntity
  8
Base
 62
7
100
AcDbLine
 10
91.839905
 20
657.400286
 30
0.0
 11
84.927070
 21
650.135094
 31
0.0
  0
LINE
  5
143
100
AcDbEntity
  8
Base
 62
7
100
AcDbLine
 10
84.927070
 20
650.135094
 30
0.0
 11
78.414941
 21
642.507137
 31
0.0
  0
LINE
  5
144
100
AcDbEntity
  8
Base
 62
7
100
AcDbLine
 10
78.414941
 20
642.507137
 30
0.0
 11
72.321609
 21
634.539754
 31
0.0
  0
LINE
  5
145
100
AcDbEntity
  8
Base
 62
7
100
AcDbLine
 10
72.321609
 20
634.539754
 30
0.0
 11
66.665163
 21
626.256284
 31
0.0
  0
LINE
  5
146
100
AcDbEntity
  8
Base
 62
7
100
AcDbLine
 10
66.665163
 20
626.256284
 30
0.0
 11
61.463691
 21
617.680066
 31
0.0
  0
LINE
  5
147
100
AcDbEntity
  8
Base
 62
7
100
AcDbLine
 10
61.463691
 20
617.680066
 30
0.0
 11
56.735283
 21
608.834438
 31
0.0
  0
LINE
  5
148
100
AcDbEntity
  8
Base
 62
7
100
AcDbLine
 10
56.735283
 20
608.834438
 30
0.0
 11
52.498028
 21
599.742740
 31
0.0
  0
LINE
  5
149
100
AcDbEntity
  8
Base
 62
7
100
AcDbLine
 10
52.498028
 20
599.742740
 30
0.0
 11
48.770016
 21
590.428310
 31
0.0
  0
LINE
  5
14a
100
AcDbEntity
  8
Base
 62
7
100
AcDbLine
 10
48.770016
 20
590.428310
 30
0.0
 11
45.569336
 21
580.914487
 31
0.0
  0
LINE
  5
14b
100
AcDbEntity
  8
Base
 62
7
100
AcDbLine
 10
45.569336
 20
580.914487
 30
0.0
 11
42.914076
 21
571.224610
 31
0.0
  0
LINE
  5
14c
100
AcDbEntity
  8
Base
 62
7
100
AcDbLine
 10
42.914076
 20
571.224610
 30
0.0
 11
41.332983
 21
564.715764
 31
0.0
  0
LINE
  5
14d
100
AcDbEntity
  8
Base
 62
7
100
AcDbLine
 10
41.332983
 20
564.715764
 30
0.0
 11
39.926980
 21
558.174105
 31
0.0
  0
LINE
  5
14e
100
AcDbEntity
  8
Base
 62
7
100
AcDbLine
 10
39.926980
 20
558.174105
 30
0.0
 11
38.694703
 21
551.603247
 31
0.0
  0
LINE
  5
14f
100
AcDbEntity
  8
Base
 62
7
100
AcDbLine
 10
38.694703
 20
551.603247
 30
0.0
 11
37.634788
 21
545.006804
 31
0.0
  0
LINE
  5
150
100
AcDbEntity
  8
Base
 62
7
100
AcDbLine
 10
37.634788
 20
545.006804
 30
0.0
 11
36.745872
 21
538.388391
 31
0.0
  0
LINE
  5
151
100
AcDbEntity
  8
Base
 62
7
100
AcDbLine
 10
36.745872
 20
538.388391
 30
0.0
 11
36.026592
 21
531.751621
 31
0.0
  0
LINE
  5
152
100
AcDbEntity
  8
Base
 62
7
100
AcDbLine
 10
36.026592
 20
531.751621
 30
0.0
 11
35.475584
 21
525.100107
 31
0.0
  0
LINE
  5
153
100
AcDbEntity
  8
Base
 62
7
100
AcDbLine
 10
35.475584
 20
525.100107
 30
0.0
 11
35.091484
 21
518.437465
 31
0.0
  0
LINE
  5
154
100
AcDbEntity
  8
Base
 62
7
100
AcDbLine
 10
35.091484
 20
518.437465
 30
0.0
 11
34.872929
 21
511.767308
 31
0.0
  0
LINE
  5
155
100
AcDbEntity
  8
Base
 62
7
100
AcDbLine
 10
34.872929
 20
511.767308
 30
0.0
 11
34.818555
 21
505.093251
 31
0.0
  0
LINE
  5
156
100
AcDbEntity
  8
Base
 62
7
100
AcDbLine
 10
34.818555
 20
505.093251
 30
0.0
 11
34.926999
 21
498.418906
 31
0.0
  0
LINE
  5
157
100
AcDbEntity
  8
Base
 62
7
100
AcDbLine
 10
34.926999
 20
498.418906
 30
0.0
 11
35.196898
 21
491.747888
 31
0.0
  0
LINE
  5
158
100
AcDbEntity
  8
Base
 62
7
100
AcDbLine
 10
35.196898
 20
491.747888
 30
0.0
 11
35.626886
 21
485.083812
 31
0.0
  0
LINE
  5
159
100
AcDbEntity
  8
Base
 62
7
100
AcDbLine
 10
35.626886
 20
485.083812
 30
0.0
 11
36.215603
 21
478.430291
 31
0.0
  0
LINE
  5
15a
100
AcDbEntity
  8
Base
 62
7
100
AcDbLine
 10
36.215603
 20
478.430291
 30
0.0
 11
36.961682
 21
471.790939
 31
0.0
  0
LINE
  5
15b
100
AcDbEntity
  8
Base
 62
7
100
AcDbLine
 10
36.961682
 20
471.790939
 30
0.0
 11
37.863762
 21
465.169370
 31
0.0
  0
LINE
  5
15c
100
AcDbEntity
  8
Base
 62
7
100
AcDbLine
 10
37.863762
 20
465.169370
 30
0.0
 11
38.920479
 21
458.569198
 31
0.0
  0
LINE
  5
15d
100
AcDbEntity
  8
Base
 62
7
100
AcDbLine
 10
38.920479
 20
458.569198
 30
0.0
 11
40.130468
 21
451.994038
 31
0.0
  0
LINE
  5
15e
100
AcDbEntity
  8
Base
 62
7
100
AcDbLine
 10
40.130468
 20
451.994038
 30
0.0
 11
41.492367
 21
445.447502
 31
0.0
  0
LINE
  5
15f
100
AcDbEntity
  8
Base
 62
7
100
AcDbLine
 10
41.492367
 20
445.447502
 30
0.0
 11
43.004812
 21
438.933206
 31
0.0
  0
LINE
  5
160
100
AcDbEntity
  8
Base
 62
7
100
AcDbLine
 10
43.004812
 20
438.933206
 30
0.0
 11
44.666439
 21
432.454763
 31
0.0
  0
LINE
  5
161
100
AcDbEntity
  8
Base
 62
7
100
AcDbLine
 10
44.666439
 20
432.454763
 30
0.0
 11
46.475885
 21
426.015787
 31
0.0
  0
LINE
  5
162
100
AcDbEntity
  8
Base
 62
7
100
AcDbLine
 10
46.475885
 20
426.015787
 30
0.0
 11
48.431787
 21
419.619892
 31
0.0
  0
LINE
  5
163
100
AcDbEntity
  8
Base
 62
7
100
AcDbLine
 10
48.431787
 20
419.619892
 30
0.0
 11
50.532780
 21
413.270692
 31
0.0
  0
LINE
  5
164
100
AcDbEntity
  8
Base
 62
7
100
AcDbLine
 10
50.532780
 20
413.270692
 30
0.0
 11
52.777501
 21
406.971802
 31
0.0
  0
LINE
  5
165
100
AcDbEntity
  8
Base
 62
7
100
AcDbLine
 10
52.777501
 20
406.971802
 30
0.0
 11
55.164588
 21
400.726834
 31
0.0
  0
LINE
  5
166
100
AcDbEntity
  8
Base
 62
7
100
AcDbLine
 10
55.164588
 20
400.726834
 30
0.0
 11
57.692675
 21
394.539404
 31
0.0
  0
LINE
  5
167
100
AcDbEntity
  8
Base
 62
7
100
AcDbLine
 10
57.692675
 20
394.539404
 30
0.0
 11
60.360400
 21
388.413125
 31
0.0
  0
LINE
  5
168
100
AcDbEntity
  8
Base
 62
7
100
AcDbLine
 10
60.360400
 20
388.413125
 30
0.0
 11
63.166399
 21
382.351611
 31
0.0
  0
LINE
  5
169
100
AcDbEntity
  8
Base
 62
7
100
AcDbLine
 10
63.166399
 20
382.351611
 30
0.0
 11
66.109309
 21
376.358476
 31
0.0
  0
LINE
  5
16a
100
AcDbEntity
  8
Base
 62
7
100
AcDbLine
 10
66.109309
 20
376.358476
 30
0.0
 11
69.187766
 21
370.437334
 31
0.0
  0
LINE
  5
16b
100
AcDbEntity
  8
Base
 62
7
100
AcDbLine
 10
69.187766
 20
370.437334
 30
0.0
 11
72.400406
 21
364.591800
 31
0.0
  0
LINE
  5
16c
100
AcDbEntity
  8
Base
 62
7
100
AcDbLine
 10
72.400406
 20
364.591800
 30
0.0
 11
77.028466
 21
356.710967
 31
0.0
  0
LINE
  5
16d
100
AcDbEntity
  8
Base
 62
7
100
AcDbLine
 10
77.028466
 20
356.710967
 30
0.0
 11
81.836631
 21
348.948283
 31
0.0
  0
LINE
  5
16e
100
AcDbEntity
  8
Base
 62
7
100
AcDbLine
 10
81.836631
 20
348.948283
 30
0.0
 11
86.815263
 21
341.299333
 31
0.0
  0
LINE
  5
16f
100
AcDbEntity
  8
Base
 62
7
100
AcDbLine
 10
86.815263
 20
341.299333
 30
0.0
 11
91.954722
 21
333.759699
 31
0.0
  0
LINE
  5
170
100
AcDbEntity
  8
Base
 62
7
100
AcDbLine
 10
91.954722
 20
333.759699
 30
0.0
 11
97.245368
 21
326.324966
 31
0.0
  0
LINE
  5
171
100
AcDbEntity
  8
Base
 62
7
100
AcDbLine
 10
97.245368
 20
326.324966
 30
0.0
 11
102.677563
 21
318.990715
 31
0.0
  0
LINE
  5
172
100
AcDbEntity
  8
Base
 62
7
100
AcDbLine
 10
102.677563
 20
318.990715
 30
0.0
 11
108.241668
 21
311.752531
 31
0.0
  0
LINE
  5
173
100
AcDbEntity
  8
Base
 62
7
100
AcDbLine
 10
108.241668
 20
311.752531
 30
0.0
 11
113.928043
 21
304.605998
 31
0.0
  0
LINE
  5
174
100
AcDbEntity
  8
Base
 62
7
100
AcDbLine
 10
113.928043
 20
304.605998
 30
0.0
 11
125.629048
 21
290.570213
 31
0.0
  0
LINE
  5
175
100
AcDbEntity
  8
Base
 62
7
100
AcDbLine
 10
125.629048
 20
290.570213
 30
0.0
 11
137.703464
 21
276.848027
 31
0.0
  0
LINE
  5
176
100
AcDbEntity
  8
Base
 62
7
100
AcDbLine
 10
137.703464
 20
276.848027
 30
0.0
 11
150.074180
 21
263.404107
 31
0.0
  0
LINE
  5
177
100
AcDbEntity
  8
Base
 62
7
100
AcDbLine
 10
150.074180
 20
263.404107
 30
0.0
 11
162.664080
 21
250.203120
 31
0.0
  0
LINE
  5
178
100
AcDbEntity
  8
Base
 62
7
100
AcDbLine
 10
162.664080
 20
250.203120
 30
0.0
 11
175.576553
 21
237.400198
 31
0.0
  0
LINE
  5
179
100
AcDbEntity
  8
Base
 62
7
100
AcDbLine
 10
175.576553
 20
237.400198
 30
0.0
 11
188.661771
 21
224.778008
 31
0.0
  0
LINE
  5
17a
100
AcDbEntity
  8
Base
 62
7
100
AcDbLine
 10
188.661771
 20
224.778008
 30
0.0
 11
201.914278
 21
212.333983
 31
0.0
  0
LINE
  5
17b
100
AcDbEntity
  8
Base
 62
7
100
AcDbLine
 10
201.914278
 20
212.333983
 30
0.0
 11
215.328618
 21
200.065558
 31
0.0
  0
LINE
  5
17c
100
AcDbEntity
  8
Base
 62
7
100
AcDbLine
 10
215.328618
 20
200.065558
 30
0.0
 11
228.899334
 21
187.970168
 31
0.0
  0
LINE
  5
17d
100
AcDbEntity
  8
Base
 62
7
100
AcDbLine
 10
228.899334
 20
187.970168
 30
0.0
 11
242.620969
 21
176.045247
 31
0.0
  0
LINE
  5
17e
100
AcDbEntity
  8
Base
 62
7
100
AcDbLine
 10
242.620969
 20
176.045247
 30
0.0
 11
256.488068
 21
164.288229
 31
0.0
  0
LINE
  5
17f
100
AcDbEntity
  8
Base
 62
7
100
AcDbLine
 10
256.488068
 20
164.288229
 30
0.0
 11
270.495174
 21
152.696550
 31
0.0
  0
LINE
  5
180
100
AcDbEntity
  8
Base
 62
7
100
AcDbLine
 10
270.495174
 20
152.696550
 30
0.0
 11
284.636831
 21
141.267643
 31
0.0
  0
LINE
  5
181
100
AcDbEntity
  8
Base
 62
7
100
AcDbLine
 10
284.636831
 20
141.267643
 30
0.0
 11
298.907582
 21
129.998943
 31
0.0
  0
LINE
  5
182
100
AcDbEntity
  8
Base
 62
7
100
AcDbLine
 10
298.907582
 20
129.998943
 30
0.0
 11
313.301971
 21
118.887885
 31
0.0
  0
LINE
  5
183
100
AcDbEntity
  8
Base
 62
7
100
AcDbLine
 10
313.301971
 20
118.887885
 30
0.0
 11
327.814543
 21
107.931902
 31
0.0
  0
LINE
  5
184
100
AcDbEntity
  8
Base
 62
7
100
AcDbLine
 10
327.814543
 20
107.931902
 30
0.0
 11
342.439840
 21
97.128430
 31
0.0
  0
LINE
  5
185
100
AcDbEntity
  8
Base
 62
7
100
AcDbLine
 10
342.439840
 20
97.128430
 30
0.0
 11
357.172406
 21
86.474902
 31
0.0
  0
LINE
  5
186
100
AcDbEntity
  8
Base
 62
7
100
AcDbLine
 10
357.172406
 20
86.474902
 30
0.0
 11
372.006785
 21
75.968754
 31
0.0
  0
LINE
  5
187
100
AcDbEntity
  8
Base
 62
7
100
AcDbLine
 10
372.006785
 20
75.968754
 30
0.0
 11
386.937520
 21
65.607420
 31
0.0
  0
LINE
  5
188
100
AcDbEntity
  8
Base
 62
7
100
AcDbLine
 10
386.937520
 20
65.607420
 30
0.0
 11
398.336630
 21
57.992711
 31
0.0
  0
LINE
  5
189
100
AcDbEntity
  8
Base
 62
7
100
AcDbLine
 10
398.336630
 20
57.992711
 30
0.0
 11
409.701514
 21
50.283416
 31
0.0
  0
LINE
  5
18a
100
AcDbEntity
  8
Base
 62
7
100
AcDbLine
 10
409.701514
 20
50.283416
 30
0.0
 11
415.445090
 21
46.530703
 31
0.0
  0
LINE
  5
18b
100
AcDbEntity
  8
Base
 62
7
100
AcDbLine
 10
415.445090
 20
46.530703
 30
0.0
 11
421.268874
 21
42.919229
 31
0.0
  0
LINE
  5
18c
100
AcDbEntity
  8
Base
 62
7
100
AcDbLine
 10
421.268874
 20
42.919229
 30
0.0
 11
427.202451
 21
39.503954
 31
0.0
  0
LINE
  5
18d
100
AcDbEntity
  8
Base
 62
7
100
AcDbLine
 10
427.202451
 20
39.503954
 30
0.0
 11
433.275410
 21
36.339840
 31
0.0
  0
LINE
  5
18e
100
AcDbEntity
  8
Base
 62
7
100
AcDbLine
 10
433.275410
 20
36.339840
 30
0.0
 11
434.844842
 21
35.856092
 31
0.0
  0
LINE
  5
18f
100
AcDbEntity
  8
Base
 62
7
100
AcDbLine
 10
434.844842
 20
35.856092
 30
0.0
 11
436.410082
 21
35.575581
 31
0.0
  0
LINE
  5
190
100
AcDbEntity
  8
Base
 62
7
100
AcDbLine
 10
436.410082
 20
35.575581
 30
0.0
 11
437.968878
 21
35.481963
 31
0.0
  0
LINE
  5
191
100
AcDbEntity
  8
Base
 62
7
100
AcDbLine
 10
437.968878
 20
35.481963
 30
0.0
 11
439.518974
 21
35.558896
 31
0.0
  0
LINE
  5
192
100
AcDbEntity
  8
Base
 62
7
100
AcDbLine
 10
439.518974
 20
35.558896
 30
0.0
 11
442.584053
 21
36.159037
 31
0.0
  0
LINE
  5
193
100
AcDbEntity
  8
Base
 62
7
100
AcDbLine
 10
442.584053
 20
36.159037
 30
0.0
 11
445.587286
 21
37.245255
 31
0.0
  0
LINE
  5
194
100
AcDbEntity
  8
Base
 62
7
100
AcDbLine
 10
445.587286
 20
37.245255
 30
0.0
 11
448.510641
 21
38.686803
 31
0.0
  0
LINE
  5
195
100
AcDbEntity
  8
Base
 62
7
100
AcDbLine
 10
448.510641
 20
38.686803
 30
0.0
 11
451.336085
 21
40.352932
 31
0.0
  0
LINE
  5
196
100
AcDbEntity
  8
Base
 62
7
100
AcDbLine
 10
451.336085
 20
40.352932
 30
0.0
 11
456.621110
 21
43.835940
 31
0.0
  0
LINE
  5
197
100
AcDbEntity
  8
Base
 62
7
100
AcDbLine
 10
456.621110
 20
43.835940
 30
0.0
 11
461.866881
 21
47.836045
 31
0.0
  0
LINE
  5
198
100
AcDbEntity
  8
Base
 62
7
100
AcDbLine
 10
461.866881
 20
47.836045
 30
0.0
 11
467.230396
 21
51.664005
 31
0.0
  0
LINE
  5
199
100
AcDbEntity
  8
Base
 62
7
100
AcDbLine
 10
467.230396
 20
51.664005
 30
0.0
 11
478.172593
 21
59.008630
 31
0.0
  0
LINE
  5
19a
100
AcDbEntity
  8
Base
 62
7
100
AcDbLine
 10
478.172593
 20
59.008630
 30
0.0
 11
489.171567
 21
66.280092
 31
0.0
  0
LINE
  5
19b
100
AcDbEntity
  8
Base
 62
7
100
AcDbLine
 10
489.171567
 20
66.280092
 30
0.0
 11
494.606056
 21
70.016599
 31
0.0
  0
LINE
  5
19c
100
AcDbEntity
  8
Base
 62
7
100
AcDbLine
 10
494.606056
 20
70.016599
 30
0.0
 11
499.951190
 21
73.888670
 31
0.0
  0
LINE
  5
19d
100
AcDbEntity
  8
Base
 62
7
100
AcDbLine
 10
499.951190
 20
73.888670
 30
0.0
 11
519.216455
 21
87.547811
 31
0.0
  0
LINE
  5
19e
100
AcDbEntity
  8
Base
 62
7
100
AcDbLine
 10
519.216455
 20
87.547811
 30
0.0
 11
538.357666
 21
101.428290
 31
0.0
  0
LINE
  5
19f
100
AcDbEntity
  8
Base
 62
7
100
AcDbLine
 10
538.357666
 20
101.428290
 30
0.0
 11
557.349023
 21
115.545471
 31
0.0
  0
LINE
  5
1a0
100
AcDbEntity
  8
Base
 62
7
100
AcDbLine
 10
557.349023
 20
115.545471
 30
0.0
 11
576.164727
 21
129.914720
 31
0.0
  0
LINE
  5
1a1
100
AcDbEntity
  8
Base
 62
7
100
AcDbLine
 10
576.164727
 20
129.914720
 30
0.0
 11
594.778978
 21
144.551400
 31
0.0
  0
LINE
  5
1a2
100
AcDbEntity
  8
Base
 62
7
100
AcDbLine
 10
594.778978
 20
144.551400
 30
0.0
 11
613.165979
 21
159.470876
 31
0.0
  0
LINE
  5
1a3
100
AcDbEntity
  8
Base
 62
7
100
AcDbLine
 10
613.165979
 20
159.470876
 30
0.0
 11
631.299928
 21
174.688513
 31
0.0
  0
LINE
  5
1a4
100
AcDbEntity
  8
Base
 62
7
100
AcDbLine
 10
631.299928
 20
174.688513
 30
0.0
 11
649.155029
 21
190.219675
 31
0.0
  0
LINE
  5
1a5
100
AcDbEntity
  8
Base
 62
7
100
AcDbLine
 10
649.155029
 20
190.219675
 30
0.0
 11
666.705480
 21
206.079726
 31
0.0
  0
LINE
  5
1a6
100
AcDbEntity
  8
Base
 62
7
100
AcDbLine
 10
666.705480
 20
206.079726
 30
0.0
 11
683.925484
 21
222.284032
 31
0.0
  0
LINE
  5
1a7
100
AcDbEntity
  8
Base
 62
7
100
AcDbLine
 10
683.925484
 20
222.284032
 30
0.0
 11
700.789241
 21
238.847956
 31
0.0
  0
LINE
  5
1a8
100
AcDbEntity
  8
Base
 62
7
100
AcDbLine
 10
700.789241
 20
238.847956
 30
0.0
 11
717.270951
 21
255.786863
 31
0.0
  0
LINE
  5
1a9
100
AcDbEntity
  8
Base
 62
7
100
AcDbLine
 10
717.270951
 20
255.786863
 30
0.0
 11
733.344817
 21
273.116117
 31
0.0
  0
LINE
  5
1aa
100
AcDbEntity
  8
Base
 62
7
100
AcDbLine
 10
733.344817
 20
273.116117
 30
0.0
 11
741.220745
 21
281.931926
 31
0.0
  0
LINE
  5
1ab
100
AcDbEntity
  8
Base
 62
7
100
AcDbLine
 10
741.220745
 20
281.931926
 30
0.0
 11
748.985038
 21
290.851084
 31
0.0
  0
LINE
  5
1ac
100
AcDbEntity
  8
Base
 62
7
100
AcDbLine
 10
748.985038
 20
290.851084
 30
0.0
 11
756.634469
 21
299.875510
 31
0.0
  0
LINE
  5
1ad
100
AcDbEntity
  8
Base
 62
7
100
AcDbLine
 10
756.634469
 20
299.875510
 30
0.0
 11
764.165815
 21
309.007126
 31
0.0
  0
LINE
  5
1ae
100
AcDbEntity
  8
Base
 62
7
100
AcDbLine
 10
764.165815
 20
309.007126
 30
0.0
 11
771.575850
 21
318.247853
 31
0.0
  0
LINE
  5
1af
100
AcDbEntity
  8
Base
 62
7
100
AcDbLine
 10
771.575850
 20
318.247853
 30
0.0
 11
778.861350
 21
327.599610
 31
0.0
  0
LINE
  5
1b0
100
AcDbEntity
  8
Base
 62
7
100
AcDbLine
 10
778.861350
 20
327.599610
 30
0.0
 11
785.984457
 21
337.630868
 31
0.0
  0
LINE
  5
1b1
100
AcDbEntity
  8
Base
 62
7
100
AcDbLine
 10
785.984457
 20
337.630868
 30
0.0
 11
792.742721
 21
347.931905
 31
0.0
  0
LINE
  5
1b2
100
AcDbEntity
  8
Base
 62
7
100
AcDbLine
 10
792.742721
 20
347.931905
 30
0.0
 11
799.120148
 21
358.486409
 31
0.0
  0
LINE
  5
1b3
100
AcDbEntity
  8
Base
 62
7
100
AcDbLine
 10
799.120148
 20
358.486409
 30
0.0
 11
805.100746
 21
369.278065
 31
0.0
  0
LINE
  5
1b4
100
AcDbEntity
  8
Base
 62
7
100
AcDbLine
 10
805.100746
 20
369.278065
 30
0.0
 11
810.668521
 21
380.290561
 31
0.0
  0
LINE
  5
1b5
100
AcDbEntity
  8
Base
 62
7
100
AcDbLine
 10
810.668521
 20
380.290561
 30
0.0
 11
815.807480
 21
391.507584
 31
0.0
  0
LINE
  5
1b6
100
AcDbEntity
  8
Base
 62
7
100
AcDbLine
 10
815.807480
 20
391.507584
 30
0.0
 11
820.501630
 21
402.912821
 31
0.0
  0
LINE
  5
1b7
100
AcDbEntity
  8
Base
 62
7
100
AcDbLine
 10
820.501630
 20
402.912821
 30
0.0
 11
824.734979
 21
414.489958
 31
0.0
  0
LINE
  5
1b8
100
AcDbEntity
  8
Base
 62
7
100
AcDbLine
 10
824.734979
 20
414.489958
 30
0.0
 11
828.491533
 21
426.222682
 31
0.0
  0
LINE
  5
1b9
100
AcDbEntity
  8
Base
 62
7
100
AcDbLine
 10
828.491533
 20
426.222682
 30
0.0
 11
831.755299
 21
438.094680
 31
0.0
  0
LINE
  5
1ba
100
AcDbEntity
  8
Base
 62
7
100
AcDbLine
 10
831.755299
 20
438.094680
 30
0.0
 11
834.510284
 21
450.089639
 31
0.0
  0
LINE
  5
1bb
100
AcDbEntity
  8
Base
 62
7
100
AcDbLine
 10
834.510284
 20
450.089639
 30
0.0
 11
836.740495
 21
462.191246
 31
0.0
  0
LINE
  5
1bc
100
AcDbEntity
  8
Base
 62
7
100
AcDbLine
 10
836.740495
 20
462.191246
 30
0.0
 11
838.429939
 21
474.383188
 31
0.0
  0
LINE
  5
1bd
100
AcDbEntity
  8
Base
 62
7
100
AcDbLine
 10
838.429939
 20
474.383188
 30
0.0
 11
839.562623
 21
486.649151
 31
0.0
  0
LINE
  5
1be
100
AcDbEntity
  8
Base
 62
7
100
AcDbLine
 10
839.562623
 20
486.649151
 30
0.0
 11
840.122555
 21
498.972823
 31
0.0
  0
LINE
  5
1bf
100
AcDbEntity
  8
Base
 62
7
100
AcDbLine
 10
840.122555
 20
498.972823
 30
0.0
 11
840.093740
 21
511.337890
 31
0.0
  0
LINE
  5
1c0
100
AcDbEntity
  8
Base
 62
7
100
AcDbLine
 10
840.093740
 20
511.337890
 30
0.0
 11
839.776694
 21
521.818533
 31
0.0
  0
LINE
  5
1c1
100
AcDbEntity
  8
Base
 62
7
100
AcDbLine
 10
839.776694
 20
521.818533
 30
0.0
 11
839.003528
 21
532.314534
 31
0.0
  0
LINE
  5
1c2
100
AcDbEntity
  8
Base
 62
7
100
AcDbLine
 10
839.003528
 20
532.314534
 30
0.0
 11
837.769288
 21
542.793662
 31
0.0
  0
LINE
  5
1c3
100
AcDbEntity
  8
Base
 62
7
100
AcDbLine
 10
837.769288
 20
542.793662
 30
0.0
 11
836.069017
 21
553.223688
 31
0.0
  0
LINE
  5
1c4
100
AcDbEntity
  8
Base
 62
7
100
AcDbLine
 10
836.069017
 20
553.223688
 30
0.0
 11
833.897760
 21
563.572382
 31
0.0
  0
LINE
  5
1c5
100
AcDbEntity
  8
Base
 62
7
100
AcDbLine
 10
833.897760
 20
563.572382
 30
0.0
 11
831.250563
 21
573.807513
 31
0.0
  0
LINE
  5
1c6
100
AcDbEntity
  8
Base
 62
7
100
AcDbLine
 10
831.250563
 20
573.807513
 30
0.0
 11
828.122471
 21
583.896852
 31
0.0
  0
LINE
  5
1c7
100
AcDbEntity
  8
Base
 62
7
100
AcDbLine
 10
828.122471
 20
583.896852
 30
0.0
 11
824.508528
 21
593.808168
 31
0.0
  0
LINE
  5
1c8
100
AcDbEntity
  8
Base
 62
7
100
AcDbLine
 10
824.508528
 20
593.808168
 30
0.0
 11
820.403778
 21
603.509230
 31
0.0
  0
LINE
  5
1c9
100
AcDbEntity
  8
Base
 62
7
100
AcDbLine
 10
820.403778
 20
603.509230
 30
0.0
 11
815.803268
 21
612.967810
 31
0.0
  0
LINE
  5
1ca
100
AcDbEntity
  8
Base
 62
7
100
AcDbLine
 10
815.803268
 20
612.967810
 30
0.0
 11
810.702042
 21
622.151677
 31
0.0
  0
LINE
  5
1cb
100
AcDbEntity
  8
Base
 62
7
100
AcDbLine
 10
810.702042
 20
622.151677
 30
0.0
 11
807.962112
 21
626.630521
 31
0.0
  0
LINE
  5
1cc
100
AcDbEntity
  8
Base
 62
7
100
AcDbLine
 10
807.962112
 20
626.630521
 30
0.0
 11
805.095145
 21
631.028601
 31
0.0
  0
LINE
  5
1cd
100
AcDbEntity
  8
Base
 62
7
100
AcDbLine
 10
805.095145
 20
631.028601
 30
0.0
 11
802.100521
 21
635.341887
 31
0.0
  0
LINE
  5
1ce
100
AcDbEntity
  8
Base
 62
7
100
AcDbLine
 10
802.100521
 20
635.341887
 30
0.0
 11
798.977621
 21
639.566351
 31
0.0
  0
LINE
  5
1cf
100
AcDbEntity
  8
Base
 62
7
100
AcDbLine
 10
798.977621
 20
639.566351
 30
0.0
 11
795.725826
 21
643.697964
 31
0.0
  0
LINE
  5
1d0
100
AcDbEntity
  8
Base
 62
7
100
AcDbLine
 10
795.725826
 20
643.697964
 30
0.0
 11
792.344516
 21
647.732698
 31
0.0
  0
LINE
  5
1d1
100
AcDbEntity
  8
Base
 62
7
100
AcDbLine
 10
792.344516
 20
647.732698
 30
0.0
 11
788.833071
 21
651.666523
 31
0.0
  0
LINE
  5
1d2
100
AcDbEntity
  8
Base
 62
7
100
AcDbLine
 10
788.833071
 20
651.666523
 30
0.0
 11
785.190874
 21
655.495411
 31
0.0
  0
LINE
  5
1d3
100
AcDbEntity
  8
Base
 62
7
100
AcDbLine
 10
785.190874
 20
655.495411
 30
0.0
 11
781.417303
 21
659.215333
 31
0.0
  0
LINE
  5
1d4
100
AcDbEntity
  8
Base
 62
7
100
AcDbLine
 10
781.417303
 20
659.215333
 30
0.0
 11
777.511740
 21
662.822261
 31
0.0
  0
LINE
  5
1d5
100
AcDbEntity
  8
Base
 62
7
100
AcDbLine
 10
777.511740
 20
662.822261
 30
0.0
 11
770.092200
 21
669.181826
 31
0.0
  0
LINE
  5
1d6
100
AcDbEntity
  8
Base
 62
7
100
AcDbLine
 10
770.092200
 20
669.181826
 30
0.0
 11
762.362178
 21
675.118126
 31
0.0
  0
LINE
  5
1d7
100
AcDbEntity
  8
Base
 62
7
100
AcDbLine
 10
762.362178
 20
675.118126
 30
0.0
 11
754.344223
 21
680.632463
 31
0.0
  0
LINE
  5
1d8
100
AcDbEntity
  8
Base
 62
7
100
AcDbLine
 10
754.344223
 20
680.632463
 30
0.0
 11
746.060888
 21
685.726143
 31
0.0
  0
LINE
  5
1d9
100
AcDbEntity
  8
Base
 62
7
100
AcDbLine
 10
746.060888
 20
685.726143
 30
0.0
 11
737.534723
 21
690.400469
 31
0.0
  0
LINE
  5
1da
100
AcDbEntity
  8
Base
 62
7
100
AcDbLine
 10
737.534723
 20
690.400469
 30
0.0
 11
728.788282
 21
694.656745
 31
0.0
  0
LINE
  5
1db
100
AcDbEntity
  8
Base
 62
7
100
AcDbLine
 10
728.788282
 20
694.656745
 30
0.0
 11
719.844114
 21
698.496276
 31
0.0
  0
LINE
  5
1dc
100
AcDbEntity
  8
Base
 62
7
100
AcDbLine
 10
719.844114
 20
698.496276
 30
0.0
 11
710.724772
 21
701.920365
 31
0.0
  0
LINE
  5
1dd
100
AcDbEntity
  8
Base
 62
7
100
AcDbLine
 10
710.724772
 20
701.920365
 30
0.0
 11
701.452808
 21
704.930316
 31
0.0
  0
LINE
  5
1de
100
AcDbEntity
  8
Base
 62
7
100
AcDbLine
 10
701.452808
 20
704.930316
 30
0.0
 11
692.050772
 21
707.527435
 31
0.0
  0
LINE
  5
1df
100
AcDbEntity
  8
Base
 62
7
100
AcDbLine
 10
692.050772
 20
707.527435
 30
0.0
 11
682.541216
 21
709.713023
 31
0.0
  0
LINE
  5
1e0
100
AcDbEntity
  8
Base
 62
7
100
AcDbLine
 10
682.541216
 20
709.713023
 30
0.0
 11
672.946691
 21
711.488387
 31
0.0
  0
LINE
  5
1e1
100
AcDbEntity
  8
Base
 62
7
100
AcDbLine
 10
672.946691
 20
711.488387
 30
0.0
 11
663.289750
 21
712.854830
 31
0.0
  0
LINE
  5
1e2
100
AcDbEntity
  8
Base
 62
7
100
AcDbLine
 10
663.289750
 20
712.854830
 30
0.0
 11
653.592943
 21
713.813655
 31
0.0
  0
LINE
  5
1e3
100
AcDbEntity
  8
Base
 62
7
100
AcDbLine
 10
653.592943
 20
713.813655
 30
0.0
 11
643.878823
 21
714.366167
 31
0.0
  0
LINE
  5
1e4
100
AcDbEntity
  8
Base
 62
7
100
AcDbLine
 10
643.878823
 20
714.366167
 30
0.0
 11
634.169940
 21
714.513671
 31
0.0
  0
LINE
  5
1e5
100
AcDbEntity
  8
Base
 62
7
100
AcDbLine
 10
634.169940
 20
714.513671
 30
0.0
 11
634.169940
 21
714.513671
 31
0.0
  0
LINE
  5
1e6
100
AcDbEntity
  8
Outline
 62
7
100
AcDbLine
 10
634.169920
 20
714.513672
 30
0.0
 11
623.606019
 21
714.255978
 31
0.0
  0
LINE
  5
1e7
100
AcDbEntity
  8
Outline
 62
7
100
AcDbLine
 10
623.606019
 20
714.255978
 30
0.0
 11
613.009857
 21
713.736061
 31
0.0
  0
LINE
  5
1e8
100
AcDbEntity
  8
Outline
 62
7
100
AcDbLine
 10
613.009857
 20
713.736061
 30
0.0
 11
602.402542
 21
712.936402
 31
0.0
  0
LINE
  5
1e9
100
AcDbEntity
  8
Outline
 62
7
100
AcDbLine
 10
602.402542
 20
712.936402
 30
0.0
 11
591.805180
 21
711.839482
 31
0.0
  0
LINE
  5
1ea
100
AcDbEntity
  8
Outline
 62
7
100
AcDbLine
 10
591.805180
 20
711.839482
 30
0.0
 11
581.238875
 21
710.427783
 31
0.0
  0
LINE
  5
1eb
100
AcDbEntity
  8
Outline
 62
7
100
AcDbLine
 10
581.238875
 20
710.427783
 30
0.0
 11
570.724735
 21
708.683786
 31
0.0
  0
LINE
  5
1ec
100
AcDbEntity
  8
Outline
 62
7
100
AcDbLine
 10
570.724735
 20
708.683786
 30
0.0
 11
560.283866
 21
706.589972
 31
0.0
  0
LINE
  5
1ed
100
AcDbEntity
  8
Outline
 62
7
100
AcDbLine
 10
560.283866
 20
706.589972
 30
0.0
 11
549.937373
 21
704.128821
 31
0.0
  0
LINE
  5
1ee
100
AcDbEntity
  8
Outline
 62
7
100
AcDbLine
 10
549.937373
 20
704.128821
 30
0.0
 11
539.706362
 21
701.282817
 31
0.0
  0
LINE
  5
1ef
100
AcDbEntity
  8
Outline
 62
7
100
AcDbLine
 10
539.706362
 20
701.282817
 30
0.0
 11
529.611939
 21
698.034439
 31
0.0
  0
LINE
  5
1f0
100
AcDbEntity
  8
Outline
 62
7
100
AcDbLine
 10
529.611939
 20
698.034439
 30
0.0
 11
519.675211
 21
694.366169
 31
0.0
  0
LINE
  5
1f1
100
AcDbEntity
  8
Outline
 62
7
100
AcDbLine
 10
519.675211
 20
694.366169
 30
0.0
 11
509.917284
 21
690.260488
 31
0.0
  0
LINE
  5
1f2
100
AcDbEntity
  8
Outline
 62
7
100
AcDbLine
 10
509.917284
 20
690.260488
 30
0.0
 11
500.359263
 21
685.699878
 31
0.0
  0
LINE
  5
1f3
100
AcDbEntity
  8
Outline
 62
7
100
AcDbLine
 10
500.359263
 20
685.699878
 30
0.0
 11
491.022255
 21
680.666819
 31
0.0
  0
LINE
  5
1f4
100
AcDbEntity
  8
Outline
 62
7
100
AcDbLine
 10
491.022255
 20
680.666819
 30
0.0
 11
481.927365
 21
675.143793
 31
0.0
  0
LINE
  5
1f5
100
AcDbEntity
  8
Outline
 62
7
100
AcDbLine
 10
481.927365
 20
675.143793
 30
0.0
 11
473.095700
 21
669.113281
 31
0.0
  0
LINE
  5
1f6
100
AcDbEntity
  8
Outline
 62
7
100
AcDbLine
 10
473.095700
 20
669.113281
 30
0.0
 11
467.854012
 21
665.128325
 31
0.0
  0
LINE
  5
1f7
100
AcDbEntity
  8
Outline
 62
7
100
AcDbLine
 10
467.854012
 20
665.128325
 30
0.0
 11
462.832831
 21
660.878497
 31
0.0
  0
LINE
  5
1f8
100
AcDbEntity
  8
Outline
 62
7
100
AcDbLine
 10
462.832831
 20
660.878497
 30
0.0
 11
458.031138
 21
656.383558
 31
0.0
  0
LINE
  5
1f9
100
AcDbEntity
  8
Outline
 62
7
100
AcDbLine
 10
458.031138
 20
656.383558
 30
0.0
 11
453.447912
 21
651.663268
 31
0.0
  0
LINE
  5
1fa
100
AcDbEntity
  8
Outline
 62
7
100
AcDbLine
 10
453.447912
 20
651.663268
 30
0.0
 11
449.082136
 21
646.737389
 31
0.0
  0
LINE
  5
1fb
100
AcDbEntity
  8
Outline
 62
7
100
AcDbLine
 10
449.082136
 20
646.737389
 30
0.0
 11
444.932788
 21
641.625683
 31
0.0
  0
LINE
  5
1fc
100
AcDbEntity
  8
Outline
 62
7
100
AcDbLine
 10
444.932788
 20
641.625683
 30
0.0
 11
440.998849
 21
636.347909
 31
0.0
  0
LINE
  5
1fd
100
AcDbEntity
  8
Outline
 62
7
100
AcDbLine
 10
440.998849
 20
636.347909
 30
0.0
 11
437.279300
 21
630.923830
 31
0.0
  0
LINE
  5
1fe
100
AcDbEntity
  8
Outline
 62
7
100
AcDbLine
 10
437.279300
 20
630.923830
 30
0.0
 11
432.450363
 21
638.177258
 31
0.0
  0
LINE
  5
1ff
100
AcDbEntity
  8
Outline
 62
7
100
AcDbLine
 10
432.450363
 20
638.177258
 30
0.0
 11
427.190674
 21
645.049664
 31
0.0
  0
LINE
  5
200
100
AcDbEntity
  8
Outline
 62
7
100
AcDbLine
 10
427.190674
 20
645.049664
 30
0.0
 11
421.528595
 21
651.545968
 31
0.0
  0
LINE
  5
201
100
AcDbEntity
  8
Outline
 62
7
100
AcDbLine
 10
421.528595
 20
651.545968
 30
0.0
 11
415.492490
 21
657.671092
 31
0.0
  0
LINE
  5
202
100
AcDbEntity
  8
Outline
 62
7
100
AcDbLine
 10
415.492490
 20
657.671092
 30
0.0
 11
409.110719
 21
663.429957
 31
0.0
  0
LINE
  5
203
100
AcDbEntity
  8
Outline
 62
7
100
AcDbLine
 10
409.110719
 20
663.429957
 30
0.0
 11
402.411647
 21
668.827483
 31
0.0
  0
LINE
  5
204
100
AcDbEntity
  8
Outline
 62
7
100
AcDbLine
 10
402.411647
 20
668.827483
 30
0.0
 11
395.423634
 21
673.868591
 31
0.0
  0
LINE
  5
205
100
AcDbEntity
  8
Outline
 62
7
100
AcDbLine
 10
395.423634
 20
673.868591
 30
0.0
 11
388.175043
 21
678.558203
 31
0.0
  0
LINE
  5
206
100
AcDbEntity
  8
Outline
 62
7
100
AcDbLine
 10
388.175043
 20
678.558203
 30
0.0
 11
380.694236
 21
682.901239
 31
0.0
  0
LINE
  5
207
100
AcDbEntity
  8
Outline
 62
7
100
AcDbLine
 10
380.694236
 20
682.901239
 30
0.0
 11
373.009576
 21
686.902619
 31
0.0
  0
LINE
  5
208
100
AcDbEntity
  8
Outline
 62
7
100
AcDbLine
 10
373.009576
 20
686.902619
 30
0.0
 11
365.149424
 21
690.567266
 31
0.0
  0
LINE
  5
209
100
AcDbEntity
  8
Outline
 62
7
100
AcDbLine
 10
365.149424
 20
690.567266
 30
0.0
 11
357.142144
 21
693.900100
 31
0.0
  0
LINE
  5
20a
100
AcDbEntity
  8
Outline
 62
7
100
AcDbLine
 10
357.142144
 20
693.900100
 30
0.0
 11
349.016097
 21
696.906041
 31
0.0
  0
LINE
  5
20b
100
AcDbEntity
  8
Outline
 62
7
100
AcDbLine
 10
349.016097
 20
696.906041
 30
0.0
 11
340.799646
 21
699.590010
 31
0.0
  0
LINE
  5
20c
100
AcDbEntity
  8
Outline
 62
7
100
AcDbLine
 10
340.799646
 20
699.590010
 30
0.0
 11
332.521153
 21
701.956929
 31
0.0
  0
LINE
  5
20d
100
AcDbEntity
  8
Outline
 62
7
100
AcDbLine
 10
332.521153
 20
701.956929
 30
0.0
 11
324.208980
 21
704.011719
 31
0.0
  0
LINE
  5
20e
100
AcDbEntity
  8
Outline
 62
7
100
AcDbLine
 10
324.208980
 20
704.011719
 30
0.0
 11
312.857154
 21
706.733585
 31
0.0
  0
LINE
  5
20f
100
AcDbEntity
  8
Outline
 62
7
100
AcDbLine
 10
312.857154
 20
706.733585
 30
0.0
 11
301.379468
 21
709.078316
 31
0.0
  0
LINE
  5
210
100
AcDbEntity
  8
Outline
 62
7
100
AcDbLine
 10
301.379468
 20
709.078316
 30
0.0
 11
289.799569
 21
711.027627
 31
0.0
  0
LINE
  5
211
100
AcDbEntity
  8
Outline
 62
7
100
AcDbLine
 10
289.799569
 20
711.027627
 30
0.0
 11
278.141104
 21
712.563235
 31
0.0
  0
LINE
  5
212
100
AcDbEntity
  8
Outline
 62
7
100
AcDbLine
 10
278.141104
 20
712.563235
 30
0.0
 11
266.427720
 21
713.666856
 31
0.0
  0
LINE
  5
213
100
AcDbEntity
  8
Outline
 62
7
100
AcDbLine
 10
266.427720
 20
713.666856
 30
0.0
 11
254.683063
 21
714.320207
 31
0.0
  0
LINE
  5
214
100
AcDbEntity
  8
Outline
 62
7
100
AcDbLine
 10
254.683063
 20
714.320207
 30
0.0
 11
242.930779
 21
714.505003
 31
0.0
  0
LINE
  5
215
100
AcDbEntity
  8
Outline
 62
7
100
AcDbLine
 10
242.930779
 20
714.505003
 30
0.0
 11
231.194516
 21
714.202961
 31
0.0
  0
LINE
  5
216
100
AcDbEntity
  8
Outline
 62
7
100
AcDbLine
 10
231.194516
 20
714.202961
 30
0.0
 11
219.497920
 21
713.395798
 31
0.0
  0
LINE
  5
217
100
AcDbEntity
  8
Outline
 62
7
100
AcDbLine
 10
219.497920
 20
713.395798
 30
0.0
 11
207.864638
 21
712.065228
 31
0.0
  0
LINE
  5
218
100
AcDbEntity
  8
Outline
 62
7
100
AcDbLine
 10
207.864638
 20
712.065228
 30
0.0
 11
196.318317
 21
710.192970
 31
0.0
  0
LINE
  5
219
100
AcDbEntity
  8
Outline
 62
7
100
AcDbLine
 10
196.318317
 20
710.192970
 30
0.0
 11
184.882603
 21
707.760738
 31
0.0
  0
LINE
  5
21a
100
AcDbEntity
  8
Outline
 62
7
100
AcDbLine
 10
184.882603
 20
707.760738
 30
0.0
 11
179.213613
 21
706.328919
 31
0.0
  0
LINE
  5
21b
100
AcDbEntity
  8
Outline
 62
7
100
AcDbLine
 10
179.213613
 20
706.328919
 30
0.0
 11
173.581142
 21
704.750250
 31
0.0
  0
LINE
  5
21c
100
AcDbEntity
  8
Outline
 62
7
100
AcDbLine
 10
173.581142
 20
704.750250
 30
0.0
 11
167.988147
 21
703.022446
 31
0.0
  0
LINE
  5
21d
100
AcDbEntity
  8
Outline
 62
7
100
AcDbLine
 10
167.988147
 20
703.022446
 30
0.0
 11
162.437582
 21
701.143221
 31
0.0
  0
LINE
  5
21e
100
AcDbEntity
  8
Outline
 62
7
100
AcDbLine
 10
162.437582
 20
701.143221
 30
0.0
 11
156.932404
 21
699.110290
 31
0.0
  0
LINE
  5
21f
100
AcDbEntity
  8
Outline
 62
7
100
AcDbLine
 10
156.932404
 20
699.110290
 30
0.0
 11
151.475569
 21
696.921367
 31
0.0
  0
LINE
  5
220
100
AcDbEntity
  8
Outline
 62
7
100
AcDbLine
 10
151.475569
 20
696.921367
 30
0.0
 11
146.070032
 21
694.574168
 31
0.0
  0
LINE
  5
221
100
AcDbEntity
  8
Outline
 62
7
100
AcDbLine
 10
146.070032
 20
694.574168
 30
0.0
 11
140.718750
 21
692.066406
 31
0.0
  0
LINE
  5
222
100
AcDbEntity
  8
Outline
 62
7
100
AcDbLine
 10
140.718750
 20
692.066406
 30
0.0
 11
131.781546
 21
687.467919
 31
0.0
  0
LINE
  5
223
100
AcDbEntity
  8
Outline
 62
7
100
AcDbLine
 10
131.781546
 20
687.467919
 30
0.0
 11
123.136515
 21
682.366633
 31
0.0
  0
LINE
  5
224
100
AcDbEntity
  8
Outline
 62
7
100
AcDbLine
 10
123.136515
 20
682.366633
 30
0.0
 11
114.801743
 21
676.785889
 31
0.0
  0
LINE
  5
225
100
AcDbEntity
  8
Outline
 62
7
100
AcDbLine
 10
114.801743
 20
676.785889
 30
0.0
 11
106.795322
 21
670.749024
 31
0.0
  0
LINE
  5
226
100
AcDbEntity
  8
Outline
 62
7
100
AcDbLine
 10
106.795322
 20
670.749024
 30
0.0
 11
99.135341
 21
664.279378
 31
0.0
  0
LINE
  5
227
100
AcDbEntity
  8
Outline
 62
7
100
AcDbLine
 10
99.135341
 20
664.279378
 30
0.0
 11
91.839887
 21
657.400289
 31
0.0
  0
LINE
  5
228
100
AcDbEntity
  8
Outline
 62
7
100
AcDbLine
 10
91.839887
 20
657.400289
 30
0.0
 11
84.927052
 21
650.135097
 31
0.0
  0
LINE
  5
229
100
AcDbEntity
  8
Outline
 62
7
100
AcDbLine
 10
84.927052
 20
650.135097
 30
0.0
 11
78.414924
 21
642.507139
 31
0.0
  0
LINE
  5
22a
100
AcDbEntity
  8
Outline
 62
7
100
AcDbLine
 10
78.414924
 20
642.507139
 30
0.0
 11
72.321592
 21
634.539756
 31
0.0
  0
LINE
  5
22b
100
AcDbEntity
  8
Outline
 62
7
100
AcDbLine
 10
72.321592
 20
634.539756
 30
0.0
 11
66.665145
 21
626.256286
 31
0.0
  0
LINE
  5
22c
100
AcDbEntity
  8
Outline
 62
7
100
AcDbLine
 10
66.665145
 20
626.256286
 30
0.0
 11
61.463674
 21
617.680067
 31
0.0
  0
LINE
  5
22d
100
AcDbEntity
  8
Outline
 62
7
100
AcDbLine
 10
61.463674
 20
617.680067
 30
0.0
 11
56.735266
 21
608.834439
 31
0.0
  0
LINE
  5
22e
100
AcDbEntity
  8
Outline
 62
7
100
AcDbLine
 10
56.735266
 20
608.834439
 30
0.0
 11
52.498012
 21
599.742740
 31
0.0
  0
LINE
  5
22f
100
AcDbEntity
  8
Outline
 62
7
100
AcDbLine
 10
52.498012
 20
599.742740
 30
0.0
 11
48.770001
 21
590.428310
 31
0.0
  0
LINE
  5
230
100
AcDbEntity
  8
Outline
 62
7
100
AcDbLine
 10
48.770001
 20
590.428310
 30
0.0
 11
45.569321
 21
580.914487
 31
0.0
  0
LINE
  5
231
100
AcDbEntity
  8
Outline
 62
7
100
AcDbLine
 10
45.569321
 20
580.914487
 30
0.0
 11
42.914062
 21
571.224610
 31
0.0
  0
LINE
  5
232
100
AcDbEntity
  8
Outline
 62
7
100
AcDbLine
 10
42.914062
 20
571.224610
 30
0.0
 11
41.332969
 21
564.715764
 31
0.0
  0
LINE
  5
233
100
AcDbEntity
  8
Outline
 62
7
100
AcDbLine
 10
41.332969
 20
564.715764
 30
0.0
 11
39.926966
 21
558.174105
 31
0.0
  0
LINE
  5
234
100
AcDbEntity
  8
Outline
 62
7
100
AcDbLine
 10
39.926966
 20
558.174105
 30
0.0
 11
38.694689
 21
551.603247
 31
0.0
  0
LINE
  5
235
100
AcDbEntity
  8
Outline
 62
7
100
AcDbLine
 10
38.694689
 20
551.603247
 30
0.0
 11
37.634774
 21
545.006804
 31
0.0
  0
LINE
  5
236
100
AcDbEntity
  8
Outline
 62
7
100
AcDbLine
 10
37.634774
 20
545.006804
 30
0.0
 11
36.745859
 21
538.388391
 31
0.0
  0
LINE
  5
237
100
AcDbEntity
  8
Outline
 62
7
100
AcDbLine
 10
36.745859
 20
538.388391
 30
0.0
 11
36.026579
 21
531.751621
 31
0.0
  0
LINE
  5
238
100
AcDbEntity
  8
Outline
 62
7
100
AcDbLine
 10
36.026579
 20
531.751621
 30
0.0
 11
35.475570
 21
525.100107
 31
0.0
  0
LINE
  5
239
100
AcDbEntity
  8
Outline
 62
7
100
AcDbLine
 10
35.475570
 20
525.100107
 30
0.0
 11
35.091470
 21
518.437465
 31
0.0
  0
LINE
  5
23a
100
AcDbEntity
  8
Outline
 62
7
100
AcDbLine
 10
35.091470
 20
518.437465
 30
0.0
 11
34.872915
 21
511.767308
 31
0.0
  0
LINE
  5
23b
100
AcDbEntity
  8
Outline
 62
7
100
AcDbLine
 10
34.872915
 20
511.767308
 30
0.0
 11
34.818542
 21
505.093251
 31
0.0
  0
LINE
  5
23c
100
AcDbEntity
  8
Outline
 62
7
100
AcDbLine
 10
34.818542
 20
505.093251
 30
0.0
 11
34.926986
 21
498.418906
 31
0.0
  0
LINE
  5
23d
100
AcDbEntity
  8
Outline
 62
7
100
AcDbLine
 10
34.926986
 20
498.418906
 30
0.0
 11
35.196884
 21
491.747888
 31
0.0
  0
LINE
  5
23e
100
AcDbEntity
  8
Outline
 62
7
100
AcDbLine
 10
35.196884
 20
491.747888
 30
0.0
 11
35.626873
 21
485.083812
 31
0.0
  0
LINE
  5
23f
100
AcDbEntity
  8
Outline
 62
7
100
AcDbLine
 10
35.626873
 20
485.083812
 30
0.0
 11
36.215589
 21
478.430291
 31
0.0
  0
LINE
  5
240
100
AcDbEntity
  8
Outline
 62
7
100
AcDbLine
 10
36.215589
 20
478.430291
 30
0.0
 11
36.961669
 21
471.790939
 31
0.0
  0
LINE
  5
241
100
AcDbEntity
  8
Outline
 62
7
100
AcDbLine
 10
36.961669
 20
471.790939
 30
0.0
 11
37.863748
 21
465.169370
 31
0.0
  0
LINE
  5
242
100
AcDbEntity
  8
Outline
 62
7
100
AcDbLine
 10
37.863748
 20
465.169370
 30
0.0
 11
38.920465
 21
458.569198
 31
0.0
  0
LINE
  5
243
100
AcDbEntity
  8
Outline
 62
7
100
AcDbLine
 10
38.920465
 20
458.569198
 30
0.0
 11
40.130454
 21
451.994038
 31
0.0
  0
LINE
  5
244
100
AcDbEntity
  8
Outline
 62
7
100
AcDbLine
 10
40.130454
 20
451.994038
 30
0.0
 11
41.492353
 21
445.447502
 31
0.0
  0
LINE
  5
245
100
AcDbEntity
  8
Outline
 62
7
100
AcDbLine
 10
41.492353
 20
445.447502
 30
0.0
 11
43.004798
 21
438.933206
 31
0.0
  0
LINE
  5
246
100
AcDbEntity
  8
Outline
 62
7
100
AcDbLine
 10
43.004798
 20
438.933206
 30
0.0
 11
44.666425
 21
432.454763
 31
0.0
  0
LINE
  5
247
100
AcDbEntity
  8
Outline
 62
7
100
AcDbLine
 10
44.666425
 20
432.454763
 30
0.0
 11
46.475871
 21
426.015787
 31
0.0
  0
LINE
  5
248
100
AcDbEntity
  8
Outline
 62
7
100
AcDbLine
 10
46.475871
 20
426.015787
 30
0.0
 11
48.431772
 21
419.619892
 31
0.0
  0
LINE
  5
249
100
AcDbEntity
  8
Outline
 62
7
100
AcDbLine
 10
48.431772
 20
419.619892
 30
0.0
 11
50.532766
 21
413.270692
 31
0.0
  0
LINE
  5
24a
100
AcDbEntity
  8
Outline
 62
7
100
AcDbLine
 10
50.532766
 20
413.270692
 30
0.0
 11
52.777487
 21
406.971802
 31
0.0
  0
LINE
  5
24b
100
AcDbEntity
  8
Outline
 62
7
100
AcDbLine
 10
52.777487
 20
406.971802
 30
0.0
 11
55.164573
 21
400.726834
 31
0.0
  0
LINE
  5
24c
100
AcDbEntity
  8
Outline
 62
7
100
AcDbLine
 10
55.164573
 20
400.726834
 30
0.0
 11
57.692660
 21
394.539404
 31
0.0
  0
LINE
  5
24d
100
AcDbEntity
  8
Outline
 62
7
100
AcDbLine
 10
57.692660
 20
394.539404
 30
0.0
 11
60.360385
 21
388.413125
 31
0.0
  0
LINE
  5
24e
100
AcDbEntity
  8
Outline
 62
7
100
AcDbLine
 10
60.360385
 20
388.413125
 30
0.0
 11
63.166385
 21
382.351611
 31
0.0
  0
LINE
  5
24f
100
AcDbEntity
  8
Outline
 62
7
100
AcDbLine
 10
63.166385
 20
382.351611
 30
0.0
 11
66.109294
 21
376.358476
 31
0.0
  0
LINE
  5
250
100
AcDbEntity
  8
Outline
 62
7
100
AcDbLine
 10
66.109294
 20
376.358476
 30
0.0
 11
69.187751
 21
370.437334
 31
0.0
  0
LINE
  5
251
100
AcDbEntity
  8
Outline
 62
7
100
AcDbLine
 10
69.187751
 20
370.437334
 30
0.0
 11
72.400391
 21
364.591800
 31
0.0
  0
LINE
  5
252
100
AcDbEntity
  8
Outline
 62
7
100
AcDbLine
 10
72.400391
 20
364.591800
 30
0.0
 11
77.028451
 21
356.710967
 31
0.0
  0
LINE
  5
253
100
AcDbEntity
  8
Outline
 62
7
100
AcDbLine
 10
77.028451
 20
356.710967
 30
0.0
 11
81.836616
 21
348.948283
 31
0.0
  0
LINE
  5
254
100
AcDbEntity
  8
Outline
 62
7
100
AcDbLine
 10
81.836616
 20
348.948283
 30
0.0
 11
86.815248
 21
341.299333
 31
0.0
  0
LINE
  5
255
100
AcDbEntity
  8
Outline
 62
7
100
AcDbLine
 10
86.815248
 20
341.299333
 30
0.0
 11
91.954706
 21
333.759699
 31
0.0
  0
LINE
  5
256
100
AcDbEntity
  8
Outline
 62
7
100
AcDbLine
 10
91.954706
 20
333.759699
 30
0.0
 11
97.245352
 21
326.324966
 31
0.0
  0
LINE
  5
257
100
AcDbEntity
  8
Outline
 62
7
100
AcDbLine
 10
97.245352
 20
326.324966
 30
0.0
 11
102.677547
 21
318.990715
 31
0.0
  0
LINE
  5
258
100
AcDbEntity
  8
Outline
 62
7
100
AcDbLine
 10
102.677547
 20
318.990715
 30
0.0
 11
108.241651
 21
311.752531
 31
0.0
  0
LINE
  5
259
100
AcDbEntity
  8
Outline
 62
7
100
AcDbLine
 10
108.241651
 20
311.752531
 30
0.0
 11
113.928026
 21
304.605998
 31
0.0
  0
LINE
  5
25a
100
AcDbEntity
  8
Outline
 62
7
100
AcDbLine
 10
113.928026
 20
304.605998
 30
0.0
 11
125.629029
 21
290.570213
 31
0.0
  0
LINE
  5
25b
100
AcDbEntity
  8
Outline
 62
7
100
AcDbLine
 10
125.629029
 20
290.570213
 30
0.0
 11
137.703445
 21
276.848027
 31
0.0
  0
LINE
  5
25c
100
AcDbEntity
  8
Outline
 62
7
100
AcDbLine
 10
137.703445
 20
276.848027
 30
0.0
 11
150.074160
 21
263.404107
 31
0.0
  0
LINE
  5
25d
100
AcDbEntity
  8
Outline
 62
7
100
AcDbLine
 10
150.074160
 20
263.404107
 30
0.0
 11
162.664060
 21
250.203120
 31
0.0
  0
LINE
  5
25e
100
AcDbEntity
  8
Outline
 62
7
100
AcDbLine
 10
162.664060
 20
250.203120
 30
0.0
 11
175.576533
 21
237.400198
 31
0.0
  0
LINE
  5
25f
100
AcDbEntity
  8
Outline
 62
7
100
AcDbLine
 10
175.576533
 20
237.400198
 30
0.0
 11
188.661751
 21
224.778008
 31
0.0
  0
LINE
  5
260
100
AcDbEntity
  8
Outline
 62
7
100
AcDbLine
 10
188.661751
 20
224.778008
 30
0.0
 11
201.914258
 21
212.333983
 31
0.0
  0
LINE
  5
261
100
AcDbEntity
  8
Outline
 62
7
100
AcDbLine
 10
201.914258
 20
212.333983
 30
0.0
 11
215.328598
 21
200.065558
 31
0.0
  0
LINE
  5
262
100
AcDbEntity
  8
Outline
 62
7
100
AcDbLine
 10
215.328598
 20
200.065558
 30
0.0
 11
228.899314
 21
187.970168
 31
0.0
  0
LINE
  5
263
100
AcDbEntity
  8
Outline
 62
7
100
AcDbLine
 10
228.899314
 20
187.970168
 30
0.0
 11
242.620949
 21
176.045247
 31
0.0
  0
LINE
  5
264
100
AcDbEntity
  8
Outline
 62
7
100
AcDbLine
 10
242.620949
 20
176.045247
 30
0.0
 11
256.488048
 21
164.288229
 31
0.0
  0
LINE
  5
265
100
AcDbEntity
  8
Outline
 62
7
100
AcDbLine
 10
256.488048
 20
164.288229
 30
0.0
 11
270.495154
 21
152.696550
 31
0.0
  0
LINE
  5
266
100
AcDbEntity
  8
Outline
 62
7
100
AcDbLine
 10
270.495154
 20
152.696550
 30
0.0
 11
284.636811
 21
141.267643
 31
0.0
  0
LINE
  5
267
100
AcDbEntity
  8
Outline
 62
7
100
AcDbLine
 10
284.636811
 20
141.267643
 30
0.0
 11
298.907562
 21
129.998943
 31
0.0
  0
LINE
  5
268
100
AcDbEntity
  8
Outline
 62
7
100
AcDbLine
 10
298.907562
 20
129.998943
 30
0.0
 11
313.301951
 21
118.887885
 31
0.0
  0
LINE
  5
269
100
AcDbEntity
  8
Outline
 62
7
100
AcDbLine
 10
313.301951
 20
118.887885
 30
0.0
 11
327.814523
 21
107.931902
 31
0.0
  0
LINE
  5
26a
100
AcDbEntity
  8
Outline
 62
7
100
AcDbLine
 10
327.814523
 20
107.931902
 30
0.0
 11
342.439820
 21
97.128430
 31
0.0
  0
LINE
  5
26b
100
AcDbEntity
  8
Outline
 62
7
100
AcDbLine
 10
342.439820
 20
97.128430
 30
0.0
 11
357.172386
 21
86.474902
 31
0.0
  0
LINE
  5
26c
100
AcDbEntity
  8
Outline
 62
7
100
AcDbLine
 10
357.172386
 20
86.474902
 30
0.0
 11
372.006765
 21
75.968754
 31
0.0
  0
LINE
  5
26d
100
AcDbEntity
  8
Outline
 62
7
100
AcDbLine
 10
372.006765
 20
75.968754
 30
0.0
 11
386.937500
 21
65.607420
 31
0.0
  0
LINE
  5
26e
100
AcDbEntity
  8
Outline
 62
7
100
AcDbLine
 10
386.937500
 20
65.607420
 30
0.0
 11
398.336610
 21
57.992711
 31
0.0
  0
LINE
  5
26f
100
AcDbEntity
  8
Outline
 62
7
100
AcDbLine
 10
398.336610
 20
57.992711
 30
0.0
 11
409.701494
 21
50.283416
 31
0.0
  0
LINE
  5
270
100
AcDbEntity
  8
Outline
 62
7
100
AcDbLine
 10
409.701494
 20
50.283416
 30
0.0
 11
415.445070
 21
46.530703
 31
0.0
  0
LINE
  5
271
100
AcDbEntity
  8
Outline
 62
7
100
AcDbLine
 10
415.445070
 20
46.530703
 30
0.0
 11
421.268854
 21
42.919229
 31
0.0
  0
LINE
  5
272
100
AcDbEntity
  8
Outline
 62
7
100
AcDbLine
 10
421.268854
 20
42.919229
 30
0.0
 11
427.202431
 21
39.503954
 31
0.0
  0
LINE
  5
273
100
AcDbEntity
  8
Outline
 62
7
100
AcDbLine
 10
427.202431
 20
39.503954
 30
0.0
 11
433.275390
 21
36.339840
 31
0.0
  0
LINE
  5
274
100
AcDbEntity
  8
Outline
 62
7
100
AcDbLine
 10
433.275390
 20
36.339840
 30
0.0
 11
434.844822
 21
35.856092
 31
0.0
  0
LINE
  5
275
100
AcDbEntity
  8
Outline
 62
7
100
AcDbLine
 10
434.844822
 20
35.856092
 30
0.0
 11
436.410062
 21
35.575581
 31
0.0
  0
LINE
  5
276
100
AcDbEntity
  8
Outline
 62
7
100
AcDbLine
 10
436.410062
 20
35.575581
 30
0.0
 11
437.968858
 21
35.481963
 31
0.0
  0
LINE
  5
277
100
AcDbEntity
  8
Outline
 62
7
100
AcDbLine
 10
437.968858
 20
35.481963
 30
0.0
 11
439.518954
 21
35.558896
 31
0.0
  0
LINE
  5
278
100
AcDbEntity
  8
Outline
 62
7
100
AcDbLine
 10
439.518954
 20
35.558896
 30
0.0
 11
442.584033
 21
36.159037
 31
0.0
  0
LINE
  5
279
100
AcDbEntity
  8
Outline
 62
7
100
AcDbLine
 10
442.584033
 20
36.159037
 30
0.0
 11
445.587266
 21
37.245255
 31
0.0
  0
LINE
  5
27a
100
AcDbEntity
  8
Outline
 62
7
100
AcDbLine
 10
445.587266
 20
37.245255
 30
0.0
 11
448.510621
 21
38.686803
 31
0.0
  0
LINE
  5
27b
100
AcDbEntity
  8
Outline
 62
7
100
AcDbLine
 10
448.510621
 20
38.686803
 30
0.0
 11
451.336065
 21
40.352932
 31
0.0
  0
LINE
  5
27c
100
AcDbEntity
  8
Outline
 62
7
100
AcDbLine
 10
451.336065
 20
40.352932
 30
0.0
 11
456.621090
 21
43.835940
 31
0.0
  0
LINE
  5
27d
100
AcDbEntity
  8
Outline
 62
7
100
AcDbLine
 10
456.621090
 20
43.835940
 30
0.0
 11
461.866861
 21
47.836045
 31
0.0
  0
LINE
  5
27e
100
AcDbEntity
  8
Outline
 62
7
100
AcDbLine
 10
461.866861
 20
47.836045
 30
0.0
 11
467.230376
 21
51.664005
 31
0.0
  0
LINE
  5
27f
100
AcDbEntity
  8
Outline
 62
7
100
AcDbLine
 10
467.230376
 20
51.664005
 30
0.0
 11
478.172573
 21
59.008630
 31
0.0
  0
LINE
  5
280
100
AcDbEntity
  8
Outline
 62
7
100
AcDbLine
 10
478.172573
 20
59.008630
 30
0.0
 11
489.171547
 21
66.280092
 31
0.0
  0
LINE
  5
281
100
AcDbEntity
  8
Outline
 62
7
100
AcDbLine
 10
489.171547
 20
66.280092
 30
0.0
 11
494.606036
 21
70.016599
 31
0.0
  0
LINE
  5
282
100
AcDbEntity
  8
Outline
 62
7
100
AcDbLine
 10
494.606036
 20
70.016599
 30
0.0
 11
499.951170
 21
73.888670
 31
0.0
  0
LINE
  5
283
100
AcDbEntity
  8
Outline
 62
7
100
AcDbLine
 10
499.951170
 20
73.888670
 30
0.0
 11
519.216435
 21
87.547811
 31
0.0
  0
LINE
  5
284
100
AcDbEntity
  8
Outline
 62
7
100
AcDbLine
 10
519.216435
 20
87.547811
 30
0.0
 11
538.357646
 21
101.428290
 31
0.0
  0
LINE
  5
285
100
AcDbEntity
  8
Outline
 62
7
100
AcDbLine
 10
538.357646
 20
101.428290
 30
0.0
 11
557.349003
 21
115.545471
 31
0.0
  0
LINE
  5
286
100
AcDbEntity
  8
Outline
 62
7
100
AcDbLine
 10
557.349003
 20
115.545471
 30
0.0
 11
576.164707
 21
129.914720
 31
0.0
  0
LINE
  5
287
100
AcDbEntity
  8
Outline
 62
7
100
AcDbLine
 10
576.164707
 20
129.914720
 30
0.0
 11
594.778958
 21
144.551400
 31
0.0
  0
LINE
  5
288
100
AcDbEntity
  8
Outline
 62
7
100
AcDbLine
 10
594.778958
 20
144.551400
 30
0.0
 11
613.165959
 21
159.470876
 31
0.0
  0
LINE
  5
289
100
AcDbEntity
  8
Outline
 62
7
100
AcDbLine
 10
613.165959
 20
159.470876
 30
0.0
 11
631.299908
 21
174.688513
 31
0.0
  0
LINE
  5
28a
100
AcDbEntity
  8
Outline
 62
7
100
AcDbLine
 10
631.299908
 20
174.688513
 30
0.0
 11
649.155009
 21
190.219675
 31
0.0
  0
LINE
  5
28b
100
AcDbEntity
  8
Outline
 62
7
100
AcDbLine
 10
649.155009
 20
190.219675
 30
0.0
 11
666.705460
 21
206.079726
 31
0.0
  0
LINE
  5
28c
100
AcDbEntity
  8
Outline
 62
7
100
AcDbLine
 10
666.705460
 20
206.079726
 30
0.0
 11
683.925464
 21
222.284032
 31
0.0
  0
LINE
  5
28d
100
AcDbEntity
  8
Outline
 62
7
100
AcDbLine
 10
683.925464
 20
222.284032
 30
0.0
 11
700.789221
 21
238.847956
 31
0.0
  0
LINE
  5
28e
100
AcDbEntity
  8
Outline
 62
7
100
AcDbLine
 10
700.789221
 20
238.847956
 30
0.0
 11
717.270931
 21
255.786863
 31
0.0
  0
LINE
  5
28f
100
AcDbEntity
  8
Outline
 62
7
100
AcDbLine
 10
717.270931
 20
255.786863
 30
0.0
 11
733.344797
 21
273.116117
 31
0.0
  0
LINE
  5
290
100
AcDbEntity
  8
Outline
 62
7
100
AcDbLine
 10
733.344797
 20
273.116117
 30
0.0
 11
741.220725
 21
281.931926
 31
0.0
  0
LINE
  5
291
100
AcDbEntity
  8
Outline
 62
7
100
AcDbLine
 10
741.220725
 20
281.931926
 30
0.0
 11
748.985018
 21
290.851084
 31
0.0
  0
LINE
  5
292
100
AcDbEntity
  8
Outline
 62
7
100
AcDbLine
 10
748.985018
 20
290.851084
 30
0.0
 11
756.634449
 21
299.875510
 31
0.0
  0
LINE
  5
293
100
AcDbEntity
  8
Outline
 62
7
100
AcDbLine
 10
756.634449
 20
299.875510
 30
0.0
 11
764.165795
 21
309.007126
 31
0.0
  0
LINE
  5
294
100
AcDbEntity
  8
Outline
 62
7
100
AcDbLine
 10
764.165795
 20
309.007126
 30
0.0
 11
771.575830
 21
318.247853
 31
0.0
  0
LINE
  5
295
100
AcDbEntity
  8
Outline
 62
7
100
AcDbLine
 10
771.575830
 20
318.247853
 30
0.0
 11
778.861330
 21
327.599610
 31
0.0
  0
LINE
  5
296
100
AcDbEntity
  8
Outline
 62
7
100
AcDbLine
 10
778.861330
 20
327.599610
 30
0.0
 11
785.984433
 21
337.630868
 31
0.0
  0
LINE
  5
297
100
AcDbEntity
  8
Outline
 62
7
100
AcDbLine
 10
785.984433
 20
337.630868
 30
0.0
 11
792.742694
 21
347.931905
 31
0.0
  0
LINE
  5
298
100
AcDbEntity
  8
Outline
 62
7
100
AcDbLine
 10
792.742694
 20
347.931905
 30
0.0
 11
799.120120
 21
358.486409
 31
0.0
  0
LINE
  5
299
100
AcDbEntity
  8
Outline
 62
7
100
AcDbLine
 10
799.120120
 20
358.486409
 30
0.0
 11
805.100718
 21
369.278065
 31
0.0
  0
LINE
  5
29a
100
AcDbEntity
  8
Outline
 62
7
100
AcDbLine
 10
805.100718
 20
369.278065
 30
0.0
 11
810.668494
 21
380.290561
 31
0.0
  0
LINE
  5
29b
100
AcDbEntity
  8
Outline
 62
7
100
AcDbLine
 10
810.668494
 20
380.290561
 30
0.0
 11
815.807456
 21
391.507584
 31
0.0
  0
LINE
  5
29c
100
AcDbEntity
  8
Outline
 62
7
100
AcDbLine
 10
815.807456
 20
391.507584
 30
0.0
 11
820.501610
 21
402.912821
 31
0.0
  0
LINE
  5
29d
100
AcDbEntity
  8
Outline
 62
7
100
AcDbLine
 10
820.501610
 20
402.912821
 30
0.0
 11
824.734963
 21
414.489958
 31
0.0
  0
LINE
  5
29e
100
AcDbEntity
  8
Outline
 62
7
100
AcDbLine
 10
824.734963
 20
414.489958
 30
0.0
 11
828.491521
 21
426.222682
 31
0.0
  0
LINE
  5
29f
100
AcDbEntity
  8
Outline
 62
7
100
AcDbLine
 10
828.491521
 20
426.222682
 30
0.0
 11
831.755291
 21
438.094680
 31
0.0
  0
LINE
  5
2a0
100
AcDbEntity
  8
Outline
 62
7
100
AcDbLine
 10
831.755291
 20
438.094680
 30
0.0
 11
834.510281
 21
450.089639
 31
0.0
  0
LINE
  5
2a1
100
AcDbEntity
  8
Outline
 62
7
100
AcDbLine
 10
834.510281
 20
450.089639
 30
0.0
 11
836.740496
 21
462.191246
 31
0.0
  0
LINE
  5
2a2
100
AcDbEntity
  8
Outline
 62
7
100
AcDbLine
 10
836.740496
 20
462.191246
 30
0.0
 11
838.429944
 21
474.383188
 31
0.0
  0
LINE
  5
2a3
100
AcDbEntity
  8
Outline
 62
7
100
AcDbLine
 10
838.429944
 20
474.383188
 30
0.0
 11
839.562631
 21
486.649151
 31
0.0
  0
LINE
  5
2a4
100
AcDbEntity
  8
Outline
 62
7
100
AcDbLine
 10
839.562631
 20
486.649151
 30
0.0
 11
840.122564
 21
498.972823
 31
0.0
  0
LINE
  5
2a5
100
AcDbEntity
  8
Outline
 62
7
100
AcDbLine
 10
840.122564
 20
498.972823
 30
0.0
 11
840.093750
 21
511.337890
 31
0.0
  0
LINE
  5
2a6
100
AcDbEntity
  8
Outline
 62
7
100
AcDbLine
 10
840.093750
 20
511.337890
 30
0.0
 11
839.776697
 21
521.818533
 31
0.0
  0
LINE
  5
2a7
100
AcDbEntity
  8
Outline
 62
7
100
AcDbLine
 10
839.776697
 20
521.818533
 30
0.0
 11
839.003525
 21
532.314534
 31
0.0
  0
LINE
  5
2a8
100
AcDbEntity
  8
Outline
 62
7
100
AcDbLine
 10
839.003525
 20
532.314534
 30
0.0
 11
837.769278
 21
542.793662
 31
0.0
  0
LINE
  5
2a9
100
AcDbEntity
  8
Outline
 62
7
100
AcDbLine
 10
837.769278
 20
542.793662
 30
0.0
 11
836.069002
 21
553.223689
 31
0.0
  0
LINE
  5
2aa
100
AcDbEntity
  8
Outline
 62
7
100
AcDbLine
 10
836.069002
 20
553.223689
 30
0.0
 11
833.897741
 21
563.572382
 31
0.0
  0
LINE
  5
2ab
100
AcDbEntity
  8
Outline
 62
7
100
AcDbLine
 10
833.897741
 20
563.572382
 30
0.0
 11
831.250541
 21
573.807514
 31
0.0
  0
LINE
  5
2ac
100
AcDbEntity
  8
Outline
 62
7
100
AcDbLine
 10
831.250541
 20
573.807514
 30
0.0
 11
828.122445
 21
583.896852
 31
0.0
  0
LINE
  5
2ad
100
AcDbEntity
  8
Outline
 62
7
100
AcDbLine
 10
828.122445
 20
583.896852
 30
0.0
 11
824.508500
 21
593.808168
 31
0.0
  0
LINE
  5
2ae
100
AcDbEntity
  8
Outline
 62
7
100
AcDbLine
 10
824.508500
 20
593.808168
 30
0.0
 11
820.403749
 21
603.509231
 31
0.0
  0
LINE
  5
2af
100
AcDbEntity
  8
Outline
 62
7
100
AcDbLine
 10
820.403749
 20
603.509231
 30
0.0
 11
815.803238
 21
612.967812
 31
0.0
  0
LINE
  5
2b0
100
AcDbEntity
  8
Outline
 62
7
100
AcDbLine
 10
815.803238
 20
612.967812
 30
0.0
 11
810.702012
 21
622.151679
 31
0.0
  0
LINE
  5
2b1
100
AcDbEntity
  8
Outline
 62
7
100
AcDbLine
 10
810.702012
 20
622.151679
 30
0.0
 11
807.962082
 21
626.630523
 31
0.0
  0
LINE
  5
2b2
100
AcDbEntity
  8
Outline
 62
7
100
AcDbLine
 10
807.962082
 20
626.630523
 30
0.0
 11
805.095115
 21
631.028603
 31
0.0
  0
LINE
  5
2b3
100
AcDbEntity
  8
Outline
 62
7
100
AcDbLine
 10
805.095115
 20
631.028603
 30
0.0
 11
802.100492
 21
635.341889
 31
0.0
  0
LINE
  5
2b4
100
AcDbEntity
  8
Outline
 62
7
100
AcDbLine
 10
802.100492
 20
635.341889
 30
0.0
 11
798.977593
 21
639.566354
 31
0.0
  0
LINE
  5
2b5
100
AcDbEntity
  8
Outline
 62
7
100
AcDbLine
 10
798.977593
 20
639.566354
 30
0.0
 11
795.725798
 21
643.697967
 31
0.0
  0
LINE
  5
2b6
100
AcDbEntity
  8
Outline
 62
7
100
AcDbLine
 10
795.725798
 20
643.697967
 30
0.0
 11
792.344489
 21
647.732701
 31
0.0
  0
LINE
  5
2b7
100
AcDbEntity
  8
Outline
 62
7
100
AcDbLine
 10
792.344489
 20
647.732701
 30
0.0
 11
788.833047
 21
651.666527
 31
0.0
  0
LINE
  5
2b8
100
AcDbEntity
  8
Outline
 62
7
100
AcDbLine
 10
788.833047
 20
651.666527
 30
0.0
 11
785.190850
 21
655.495415
 31
0.0
  0
LINE
  5
2b9
100
AcDbEntity
  8
Outline
 62
7
100
AcDbLine
 10
785.190850
 20
655.495415
 30
0.0
 11
781.417281
 21
659.215338
 31
0.0
  0
LINE
  5
2ba
100
AcDbEntity
  8
Outline
 62
7
100
AcDbLine
 10
781.417281
 20
659.215338
 30
0.0
 11
777.511720
 21
662.822266
 31
0.0
  0
LINE
  5
2bb
100
AcDbEntity
  8
Outline
 62
7
100
AcDbLine
 10
777.511720
 20
662.822266
 30
0.0
 11
770.092180
 21
669.181831
 31
0.0
  0
LINE
  5
2bc
100
AcDbEntity
  8
Outline
 62
7
100
AcDbLine
 10
770.092180
 20
669.181831
 30
0.0
 11
762.362158
 21
675.118131
 31
0.0
  0
LINE
  5
2bd
100
AcDbEntity
  8
Outline
 62
7
100
AcDbLine
 10
762.362158
 20
675.118131
 30
0.0
 11
754.344203
 21
680.632468
 31
0.0
  0
LINE
  5
2be
100
AcDbEntity
  8
Outline
 62
7
100
AcDbLine
 10
754.344203
 20
680.632468
 30
0.0
 11
746.060867
 21
685.726147
 31
0.0
  0
LINE
  5
2bf
100
AcDbEntity
  8
Outline
 62
7
100
AcDbLine
 10
746.060867
 20
685.726147
 30
0.0
 11
737.534703
 21
690.400473
 31
0.0
  0
LINE
  5
2c0
100
AcDbEntity
  8
Outline
 62
7
100
AcDbLine
 10
737.534703
 20
690.400473
 30
0.0
 11
728.788262
 21
694.656749
 31
0.0
  0
LINE
  5
2c1
100
AcDbEntity
  8
Outline
 62
7
100
AcDbLine
 10
728.788262
 20
694.656749
 30
0.0
 11
719.844094
 21
698.496279
 31
0.0
  0
LINE
  5
2c2
100
AcDbEntity
  8
Outline
 62
7
100
AcDbLine
 10
719.844094
 20
698.496279
 30
0.0
 11
710.724753
 21
701.920368
 31
0.0
  0
LINE
  5
2c3
100
AcDbEntity
  8
Outline
 62
7
100
AcDbLine
 10
710.724753
 20
701.920368
 30
0.0
 11
701.452788
 21
704.930319
 31
0.0
  0
LINE
  5
2c4
100
AcDbEntity
  8
Outline
 62
7
100
AcDbLine
 10
701.452788
 20
704.930319
 30
0.0
 11
692.050752
 21
707.527437
 31
0.0
  0
LINE
  5
2c5
100
AcDbEntity
  8
Outline
 62
7
100
AcDbLine
 10
692.050752
 20
707.527437
 30
0.0
 11
682.541196
 21
709.713025
 31
0.0
  0
LINE
  5
2c6
100
AcDbEntity
  8
Outline
 62
7
100
AcDbLine
 10
682.541196
 20
709.713025
 30
0.0
 11
672.946671
 21
711.488389
 31
0.0
  0
LINE
  5
2c7
100
AcDbEntity
  8
Outline
 62
7
100
AcDbLine
 10
672.946671
 20
711.488389
 30
0.0
 11
663.289730
 21
712.854831
 31
0.0
  0
LINE
  5
2c8
100
AcDbEntity
  8
Outline
 62
7
100
AcDbLine
 10
663.289730
 20
712.854831
 30
0.0
 11
653.592923
 21
713.813656
 31
0.0
  0
LINE
  5
2c9
100
AcDbEntity
  8
Outline
 62
7
100
AcDbLine
 10
653.592923
 20
713.813656
 30
0.0
 11
643.878803
 21
714.366169
 31
0.0
  0
LINE
  5
2ca
100
AcDbEntity
  8
Outline
 62
7
100
AcDbLine
 10
643.878803
 20
714.366169
 30
0.0
 11
634.169920
 21
714.513672
 31
0.0
  0
LINE
  5
2cb
100
AcDbEntity
  8
Outline
 62
7
100
AcDbLine
 10
634.169920
 20
714.513672
 30
0.0
 11
634.169920
 21
714.513672
 31
0.0
  0
LINE
  5
2cc
100
AcDbEntity
  8
Outline
 62
7
100
AcDbLine
 10
634.798830
 20
705.000000
 30
0.0
 11
641.760324
 21
704.858863
 31
0.0
  0
LINE
  5
2cd
100
AcDbEntity
  8
Outline
 62
7
100
AcDbLine
 10
641.760324
 20
704.858863
 30
0.0
 11
648.722026
 21
704.518065
 31
0.0
  0
LINE
  5
2ce
100
AcDbEntity
  8
Outline
 62
7
100
AcDbLine
 10
648.722026
 20
704.518065
 30
0.0
 11
655.675622
 21
703.974956
 31
0.0
  0
LINE
  5
2cf
100
AcDbEntity
  8
Outline
 62
7
100
AcDbLine
 10
655.675622
 20
703.974956
 30
0.0
 11
662.612800
 21
703.226888
 31
0.0
  0
LINE
  5
2d0
100
AcDbEntity
  8
Outline
 62
7
100
AcDbLine
 10
662.612800
 20
703.226888
 30
0.0
 11
669.525250
 21
702.271211
 31
0.0
  0
LINE
  5
2d1
100
AcDbEntity
  8
Outline
 62
7
100
AcDbLine
 10
669.525250
 20
702.271211
 30
0.0
 11
676.404657
 21
701.105275
 31
0.0
  0
LINE
  5
2d2
100
AcDbEntity
  8
Outline
 62
7
100
AcDbLine
 10
676.404657
 20
701.105275
 30
0.0
 11
683.242710
 21
699.726431
 31
0.0
  0
LINE
  5
2d3
100
AcDbEntity
  8
Outline
 62
7
100
AcDbLine
 10
683.242710
 20
699.726431
 30
0.0
 11
690.031096
 21
698.132030
 31
0.0
  0
LINE
  5
2d4
100
AcDbEntity
  8
Outline
 62
7
100
AcDbLine
 10
690.031096
 20
698.132030
 30
0.0
 11
696.761504
 21
696.319422
 31
0.0
  0
LINE
  5
2d5
100
AcDbEntity
  8
Outline
 62
7
100
AcDbLine
 10
696.761504
 20
696.319422
 30
0.0
 11
703.425621
 21
694.285958
 31
0.0
  0
LINE
  5
2d6
100
AcDbEntity
  8
Outline
 62
7
100
AcDbLine
 10
703.425621
 20
694.285958
 30
0.0
 11
710.015135
 21
692.028989
 31
0.0
  0
LINE
  5
2d7
100
AcDbEntity
  8
Outline
 62
7
100
AcDbLine
 10
710.015135
 20
692.028989
 30
0.0
 11
716.521734
 21
689.545864
 31
0.0
  0
LINE
  5
2d8
100
AcDbEntity
  8
Outline
 62
7
100
AcDbLine
 10
716.521734
 20
689.545864
 30
0.0
 11
722.937105
 21
686.833935
 31
0.0
  0
LINE
  5
2d9
100
AcDbEntity
  8
Outline
 62
7
100
AcDbLine
 10
722.937105
 20
686.833935
 30
0.0
 11
729.252936
 21
683.890552
 31
0.0
  0
LINE
  5
2da
100
AcDbEntity
  8
Outline
 62
7
100
AcDbLine
 10
729.252936
 20
683.890552
 30
0.0
 11
735.460915
 21
680.713066
 31
0.0
  0
LINE
  5
2db
100
AcDbEntity
  8
Outline
 62
7
100
AcDbLine
 10
735.460915
 20
680.713066
 30
0.0
 11
741.552730
 21
677.298828
 31
0.0
  0
LINE
  5
2dc
100
AcDbEntity
  8
Outline
 62
7
100
AcDbLine
 10
741.552730
 20
677.298828
 30
0.0
 11
748.826406
 21
672.930371
 31
0.0
  0
LINE
  5
2dd
100
AcDbEntity
  8
Outline
 62
7
100
AcDbLine
 10
748.826406
 20
672.930371
 30
0.0
 11
755.829599
 21
668.182813
 31
0.0
  0
LINE
  5
2de
100
AcDbEntity
  8
Outline
 62
7
100
AcDbLine
 10
755.829599
 20
668.182813
 30
0.0
 11
762.555390
 21
663.075106
 31
0.0
  0
LINE
  5
2df
100
AcDbEntity
  8
Outline
 62
7
100
AcDbLine
 10
762.555390
 20
663.075106
 30
0.0
 11
768.996863
 21
657.626204
 31
0.0
  0
LINE
  5
2e0
100
AcDbEntity
  8
Outline
 62
7
100
AcDbLine
 10
768.996863
 20
657.626204
 30
0.0
 11
775.147099
 21
651.855062
 31
0.0
  0
LINE
  5
2e1
100
AcDbEntity
  8
Outline
 62
7
100
AcDbLine
 10
775.147099
 20
651.855062
 30
0.0
 11
780.999181
 21
645.780633
 31
0.0
  0
LINE
  5
2e2
100
AcDbEntity
  8
Outline
 62
7
100
AcDbLine
 10
780.999181
 20
645.780633
 30
0.0
 11
786.546190
 21
639.421870
 31
0.0
  0
LINE
  5
2e3
100
AcDbEntity
  8
Outline
 62
7
100
AcDbLine
 10
786.546190
 20
639.421870
 30
0.0
 11
791.781210
 21
632.797729
 31
0.0
  0
LINE
  5
2e4
100
AcDbEntity
  8
Outline
 62
7
100
AcDbLine
 10
791.781210
 20
632.797729
 30
0.0
 11
796.697322
 21
625.927161
 31
0.0
  0
LINE
  5
2e5
100
AcDbEntity
  8
Outline
 62
7
100
AcDbLine
 10
796.697322
 20
625.927161
 30
0.0
 11
801.287609
 21
618.829122
 31
0.0
  0
LINE
  5
2e6
100
AcDbEntity
  8
Outline
 62
7
100
AcDbLine
 10
801.287609
 20
618.829122
 30
0.0
 11
805.545154
 21
611.522565
 31
0.0
  0
LINE
  5
2e7
100
AcDbEntity
  8
Outline
 62
7
100
AcDbLine
 10
805.545154
 20
611.522565
 30
0.0
 11
809.463037
 21
604.026443
 31
0.0
  0
LINE
  5
2e8
100
AcDbEntity
  8
Outline
 62
7
100
AcDbLine
 10
809.463037
 20
604.026443
 30
0.0
 11
813.034342
 21
596.359711
 31
0.0
  0
LINE
  5
2e9
100
AcDbEntity
  8
Outline
 62
7
100
AcDbLine
 10
813.034342
 20
596.359711
 30
0.0
 11
816.252151
 21
588.541323
 31
0.0
  0
LINE
  5
2ea
100
AcDbEntity
  8
Outline
 62
7
100
AcDbLine
 10
816.252151
 20
588.541323
 30
0.0
 11
819.109546
 21
580.590231
 31
0.0
  0
LINE
  5
2eb
100
AcDbEntity
  8
Outline
 62
7
100
AcDbLine
 10
819.109546
 20
580.590231
 30
0.0
 11
821.599610
 21
572.525390
 31
0.0
  0
LINE
  5
2ec
100
AcDbEntity
  8
Outline
 62
7
100
AcDbLine
 10
821.599610
 20
572.525390
 30
0.0
 11
823.630740
 21
564.591816
 31
0.0
  0
LINE
  5
2ed
100
AcDbEntity
  8
Outline
 62
7
100
AcDbLine
 10
823.630740
 20
564.591816
 30
0.0
 11
825.368268
 21
556.598194
 31
0.0
  0
LINE
  5
2ee
100
AcDbEntity
  8
Outline
 62
7
100
AcDbLine
 10
825.368268
 20
556.598194
 30
0.0
 11
826.818632
 21
548.552632
 31
0.0
  0
LINE
  5
2ef
100
AcDbEntity
  8
Outline
 62
7
100
AcDbLine
 10
826.818632
 20
548.552632
 30
0.0
 11
827.988270
 21
540.463235
 31
0.0
  0
LINE
  5
2f0
100
AcDbEntity
  8
Outline
 62
7
100
AcDbLine
 10
827.988270
 20
540.463235
 30
0.0
 11
828.883619
 21
532.338108
 31
0.0
  0
LINE
  5
2f1
100
AcDbEntity
  8
Outline
 62
7
100
AcDbLine
 10
828.883619
 20
532.338108
 30
0.0
 11
829.511117
 21
524.185358
 31
0.0
  0
LINE
  5
2f2
100
AcDbEntity
  8
Outline
 62
7
100
AcDbLine
 10
829.511117
 20
524.185358
 30
0.0
 11
829.877204
 21
516.013090
 31
0.0
  0
LINE
  5
2f3
100
AcDbEntity
  8
Outline
 62
7
100
AcDbLine
 10
829.877204
 20
516.013090
 30
0.0
 11
829.988316
 21
507.829411
 31
0.0
  0
LINE
  5
2f4
100
AcDbEntity
  8
Outline
 62
7
100
AcDbLine
 10
829.988316
 20
507.829411
 30
0.0
 11
829.850892
 21
499.642427
 31
0.0
  0
LINE
  5
2f5
100
AcDbEntity
  8
Outline
 62
7
100
AcDbLine
 10
829.850892
 20
499.642427
 30
0.0
 11
829.471370
 21
491.460243
 31
0.0
  0
LINE
  5
2f6
100
AcDbEntity
  8
Outline
 62
7
100
AcDbLine
 10
829.471370
 20
491.460243
 30
0.0
 11
828.856187
 21
483.290965
 31
0.0
  0
LINE
  5
2f7
100
AcDbEntity
  8
Outline
 62
7
100
AcDbLine
 10
828.856187
 20
483.290965
 30
0.0
 11
828.011782
 21
475.142700
 31
0.0
  0
LINE
  5
2f8
100
AcDbEntity
  8
Outline
 62
7
100
AcDbLine
 10
828.011782
 20
475.142700
 30
0.0
 11
826.944593
 21
467.023553
 31
0.0
  0
LINE
  5
2f9
100
AcDbEntity
  8
Outline
 62
7
100
AcDbLine
 10
826.944593
 20
467.023553
 30
0.0
 11
825.661058
 21
458.941630
 31
0.0
  0
LINE
  5
2fa
100
AcDbEntity
  8
Outline
 62
7
100
AcDbLine
 10
825.661058
 20
458.941630
 30
0.0
 11
824.167614
 21
450.905037
 31
0.0
  0
LINE
  5
2fb
100
AcDbEntity
  8
Outline
 62
7
100
AcDbLine
 10
824.167614
 20
450.905037
 30
0.0
 11
822.470700
 21
442.921880
 31
0.0
  0
LINE
  5
2fc
100
AcDbEntity
  8
Outline
 62
7
100
AcDbLine
 10
822.470700
 20
442.921880
 30
0.0
 11
819.866132
 21
432.242492
 31
0.0
  0
LINE
  5
2fd
100
AcDbEntity
  8
Outline
 62
7
100
AcDbLine
 10
819.866132
 20
432.242492
 30
0.0
 11
816.767789
 21
421.747201
 31
0.0
  0
LINE
  5
2fe
100
AcDbEntity
  8
Outline
 62
7
100
AcDbLine
 10
816.767789
 20
421.747201
 30
0.0
 11
813.203681
 21
411.432757
 31
0.0
  0
LINE
  5
2ff
100
AcDbEntity
  8
Outline
 62
7
100
AcDbLine
 10
813.203681
 20
411.432757
 30
0.0
 11
809.201819
 21
401.295912
 31
0.0
  0
LINE
  5
300
100
AcDbEntity
  8
Outline
 62
7
100
AcDbLine
 10
809.201819
 20
401.295912
 30
0.0
 11
804.790214
 21
391.333419
 31
0.0
  0
LINE
  5
301
100
AcDbEntity
  8
Outline
 62
7
100
AcDbLine
 10
804.790214
 20
391.333419
 30
0.0
 11
799.996875
 21
381.542029
 31
0.0
  0
LINE
  5
302
100
AcDbEntity
  8
Outline
 62
7
100
AcDbLine
 10
799.996875
 20
381.542029
 30
0.0
 11
794.849814
 21
371.918494
 31
0.0
  0
LINE
  5
303
100
AcDbEntity
  8
Outline
 62
7
100
AcDbLine
 10
794.849814
 20
371.918494
 30
0.0
 11
789.377040
 21
362.459566
 31
0.0
  0
LINE
  5
304
100
AcDbEntity
  8
Outline
 62
7
100
AcDbLine
 10
789.377040
 20
362.459566
 30
0.0
 11
783.606565
 21
353.161997
 31
0.0
  0
LINE
  5
305
100
AcDbEntity
  8
Outline
 62
7
100
AcDbLine
 10
783.606565
 20
353.161997
 30
0.0
 11
777.566398
 21
344.022539
 31
0.0
  0
LINE
  5
306
100
AcDbEntity
  8
Outline
 62
7
100
AcDbLine
 10
777.566398
 20
344.022539
 30
0.0
 11
771.284551
 21
335.037943
 31
0.0
  0
LINE
  5
307
100
AcDbEntity
  8
Outline
 62
7
100
AcDbLine
 10
771.284551
 20
335.037943
 30
0.0
 11
764.789033
 21
326.204962
 31
0.0
  0
LINE
  5
308
100
AcDbEntity
  8
Outline
 62
7
100
AcDbLine
 10
764.789033
 20
326.204962
 30
0.0
 11
758.107856
 21
317.520348
 31
0.0
  0
LINE
  5
309
100
AcDbEntity
  8
Outline
 62
7
100
AcDbLine
 10
758.107856
 20
317.520348
 30
0.0
 11
751.269029
 21
308.980851
 31
0.0
  0
LINE
  5
30a
100
AcDbEntity
  8
Outline
 62
7
100
AcDbLine
 10
751.269029
 20
308.980851
 30
0.0
 11
744.300564
 21
300.583225
 31
0.0
  0
LINE
  5
30b
100
AcDbEntity
  8
Outline
 62
7
100
AcDbLine
 10
744.300564
 20
300.583225
 30
0.0
 11
737.230470
 21
292.324220
 31
0.0
  0
LINE
  5
30c
100
AcDbEntity
  8
Outline
 62
7
100
AcDbLine
 10
737.230470
 20
292.324220
 30
0.0
 11
721.660608
 21
275.242533
 31
0.0
  0
LINE
  5
30d
100
AcDbEntity
  8
Outline
 62
7
100
AcDbLine
 10
721.660608
 20
275.242533
 30
0.0
 11
705.731384
 21
258.521451
 31
0.0
  0
LINE
  5
30e
100
AcDbEntity
  8
Outline
 62
7
100
AcDbLine
 10
705.731384
 20
258.521451
 30
0.0
 11
689.460545
 21
242.148953
 31
0.0
  0
LINE
  5
30f
100
AcDbEntity
  8
Outline
 62
7
100
AcDbLine
 10
689.460545
 20
242.148953
 30
0.0
 11
672.865838
 21
226.113020
 31
0.0
  0
LINE
  5
310
100
AcDbEntity
  8
Outline
 62
7
100
AcDbLine
 10
672.865838
 20
226.113020
 30
0.0
 11
655.965010
 21
210.401631
 31
0.0
  0
LINE
  5
311
100
AcDbEntity
  8
Outline
 62
7
100
AcDbLine
 10
655.965010
 20
210.401631
 30
0.0
 11
638.775810
 21
195.002767
 31
0.0
  0
LINE
  5
312
100
AcDbEntity
  8
Outline
 62
7
100
AcDbLine
 10
638.775810
 20
195.002767
 30
0.0
 11
621.315984
 21
179.904407
 31
0.0
  0
LINE
  5
313
100
AcDbEntity
  8
Outline
 62
7
100
AcDbLine
 10
621.315984
 20
179.904407
 30
0.0
 11
603.603280
 21
165.094533
 31
0.0
  0
LINE
  5
314
100
AcDbEntity
  8
Outline
 62
7
100
AcDbLine
 10
603.603280
 20
165.094533
 30
0.0
 11
585.655445
 21
150.561122
 31
0.0
  0
LINE
  5
315
100
AcDbEntity
  8
Outline
 62
7
100
AcDbLine
 10
585.655445
 20
150.561122
 30
0.0
 11
567.490228
 21
136.292157
 31
0.0
  0
LINE
  5
316
100
AcDbEntity
  8
Outline
 62
7
100
AcDbLine
 10
567.490228
 20
136.292157
 30
0.0
 11
549.125374
 21
122.275617
 31
0.0
  0
LINE
  5
317
100
AcDbEntity
  8
Outline
 62
7
100
AcDbLine
 10
549.125374
 20
122.275617
 30
0.0
 11
530.578632
 21
108.499482
 31
0.0
  0
LINE
  5
318
100
AcDbEntity
  8
Outline
 62
7
100
AcDbLine
 10
530.578632
 20
108.499482
 30
0.0
 11
511.867749
 21
94.951731
 31
0.0
  0
LINE
  5
319
100
AcDbEntity
  8
Outline
 62
7
100
AcDbLine
 10
511.867749
 20
94.951731
 30
0.0
 11
493.010473
 21
81.620346
 31
0.0
  0
LINE
  5
31a
100
AcDbEntity
  8
Outline
 62
7
100
AcDbLine
 10
493.010473
 20
81.620346
 30
0.0
 11
474.024551
 21
68.493305
 31
0.0
  0
LINE
  5
31b
100
AcDbEntity
  8
Outline
 62
7
100
AcDbLine
 10
474.024551
 20
68.493305
 30
0.0
 11
454.927730
 21
55.558590
 31
0.0
  0
LINE
  5
31c
100
AcDbEntity
  8
Outline
 62
7
100
AcDbLine
 10
454.927730
 20
55.558590
 30
0.0
 11
452.488035
 21
54.169227
 31
0.0
  0
LINE
  5
31d
100
AcDbEntity
  8
Outline
 62
7
100
AcDbLine
 10
452.488035
 20
54.169227
 30
0.0
 11
450.123976
 21
52.446967
 31
0.0
  0
LINE
  5
31e
100
AcDbEntity
  8
Outline
 62
7
100
AcDbLine
 10
450.123976
 20
52.446967
 30
0.0
 11
445.421411
 21
48.768996
 31
0.0
  0
LINE
  5
31f
100
AcDbEntity
  8
Outline
 62
7
100
AcDbLine
 10
445.421411
 20
48.768996
 30
0.0
 11
442.982226
 21
47.195906
 31
0.0
  0
LINE
  5
320
100
AcDbEntity
  8
Outline
 62
7
100
AcDbLine
 10
442.982226
 20
47.195906
 30
0.0
 11
440.417318
 21
46.055160
 31
0.0
  0
LINE
  5
321
100
AcDbEntity
  8
Outline
 62
7
100
AcDbLine
 10
440.417318
 20
46.055160
 30
0.0
 11
439.071988
 21
45.706700
 31
0.0
  0
LINE
  5
322
100
AcDbEntity
  8
Outline
 62
7
100
AcDbLine
 10
439.071988
 20
45.706700
 30
0.0
 11
437.676350
 21
45.538067
 31
0.0
  0
LINE
  5
323
100
AcDbEntity
  8
Outline
 62
7
100
AcDbLine
 10
437.676350
 20
45.538067
 30
0.0
 11
436.224111
 21
45.573176
 31
0.0
  0
LINE
  5
324
100
AcDbEntity
  8
Outline
 62
7
100
AcDbLine
 10
436.224111
 20
45.573176
 30
0.0
 11
434.708980
 21
45.835940
 31
0.0
  0
LINE
  5
325
100
AcDbEntity
  8
Outline
 62
7
100
AcDbLine
 10
434.708980
 20
45.835940
 30
0.0
 11
412.450554
 21
60.604448
 31
0.0
  0
LINE
  5
326
100
AcDbEntity
  8
Outline
 62
7
100
AcDbLine
 10
412.450554
 20
60.604448
 30
0.0
 11
390.375819
 21
75.669045
 31
0.0
  0
LINE
  5
327
100
AcDbEntity
  8
Outline
 62
7
100
AcDbLine
 10
390.375819
 20
75.669045
 30
0.0
 11
368.498276
 21
91.033967
 31
0.0
  0
LINE
  5
328
100
AcDbEntity
  8
Outline
 62
7
100
AcDbLine
 10
368.498276
 20
91.033967
 30
0.0
 11
346.831428
 21
106.703450
 31
0.0
  0
LINE
  5
329
100
AcDbEntity
  8
Outline
 62
7
100
AcDbLine
 10
346.831428
 20
106.703450
 30
0.0
 11
325.388776
 21
122.681730
 31
0.0
  0
LINE
  5
32a
100
AcDbEntity
  8
Outline
 62
7
100
AcDbLine
 10
325.388776
 20
122.681730
 30
0.0
 11
304.183822
 21
138.973045
 31
0.0
  0
LINE
  5
32b
100
AcDbEntity
  8
Outline
 62
7
100
AcDbLine
 10
304.183822
 20
138.973045
 30
0.0
 11
283.230070
 21
155.581629
 31
0.0
  0
LINE
  5
32c
100
AcDbEntity
  8
Outline
 62
7
100
AcDbLine
 10
283.230070
 20
155.581629
 30
0.0
 11
262.541020
 21
172.511720
 31
0.0
  0
LINE
  5
32d
100
AcDbEntity
  8
Outline
 62
7
100
AcDbLine
 10
262.541020
 20
172.511720
 30
0.0
 11
240.296925
 21
191.703593
 31
0.0
  0
LINE
  5
32e
100
AcDbEntity
  8
Outline
 62
7
100
AcDbLine
 10
240.296925
 20
191.703593
 30
0.0
 11
218.284346
 21
211.239070
 31
0.0
  0
LINE
  5
32f
100
AcDbEntity
  8
Outline
 62
7
100
AcDbLine
 10
218.284346
 20
211.239070
 30
0.0
 11
207.411784
 21
221.166910
 31
0.0
  0
LINE
  5
330
100
AcDbEntity
  8
Outline
 62
7
100
AcDbLine
 10
207.411784
 20
221.166910
 30
0.0
 11
196.653389
 21
231.218150
 31
0.0
  0
LINE
  5
331
100
AcDbEntity
  8
Outline
 62
7
100
AcDbLine
 10
196.653389
 20
231.218150
 30
0.0
 11
186.027926
 21
241.405291
 31
0.0
  0
LINE
  5
332
100
AcDbEntity
  8
Outline
 62
7
100
AcDbLine
 10
186.027926
 20
241.405291
 30
0.0
 11
175.554157
 21
251.740833
 31
0.0
  0
LINE
  5
333
100
AcDbEntity
  8
Outline
 62
7
100
AcDbLine
 10
175.554157
 20
251.740833
 30
0.0
 11
165.250845
 21
262.237275
 31
0.0
  0
LINE
  5
334
100
AcDbEntity
  8
Outline
 62
7
100
AcDbLine
 10
165.250845
 20
262.237275
 30
0.0
 11
155.136753
 21
272.907117
 31
0.0
  0
LINE
  5
335
100
AcDbEntity
  8
Outline
 62
7
100
AcDbLine
 10
155.136753
 20
272.907117
 30
0.0
 11
145.230645
 21
283.762860
 31
0.0
  0
LINE
  5
336
100
AcDbEntity
  8
Outline
 62
7
100
AcDbLine
 10
145.230645
 20
283.762860
 30
0.0
 11
135.551284
 21
294.817003
 31
0.0
  0
LINE
  5
337
100
AcDbEntity
  8
Outline
 62
7
100
AcDbLine
 10
135.551284
 20
294.817003
 30
0.0
 11
126.117432
 21
306.082047
 31
0.0
  0
LINE
  5
338
100
AcDbEntity
  8
Outline
 62
7
100
AcDbLine
 10
126.117432
 20
306.082047
 30
0.0
 11
116.947852
 21
317.570491
 31
0.0
  0
LINE
  5
339
100
AcDbEntity
  8
Outline
 62
7
100
AcDbLine
 10
116.947852
 20
317.570491
 30
0.0
 11
108.061308
 21
329.294836
 31
0.0
  0
LINE
  5
33a
100
AcDbEntity
  8
Outline
 62
7
100
AcDbLine
 10
108.061308
 20
329.294836
 30
0.0
 11
99.476562
 21
341.267580
 31
0.0
  0
LINE
  5
33b
100
AcDbEntity
  8
Outline
 62
7
100
AcDbLine
 10
99.476562
 20
341.267580
 30
0.0
 11
94.546038
 21
348.242414
 31
0.0
  0
LINE
  5
33c
100
AcDbEntity
  8
Outline
 62
7
100
AcDbLine
 10
94.546038
 20
348.242414
 30
0.0
 11
89.816112
 21
355.358466
 31
0.0
  0
LINE
  5
33d
100
AcDbEntity
  8
Outline
 62
7
100
AcDbLine
 10
89.816112
 20
355.358466
 30
0.0
 11
85.292965
 21
362.609717
 31
0.0
  0
LINE
  5
33e
100
AcDbEntity
  8
Outline
 62
7
100
AcDbLine
 10
85.292965
 20
362.609717
 30
0.0
 11
80.982778
 21
369.990151
 31
0.0
  0
LINE
  5
33f
100
AcDbEntity
  8
Outline
 62
7
100
AcDbLine
 10
80.982778
 20
369.990151
 30
0.0
 11
76.891730
 21
377.493751
 31
0.0
  0
LINE
  5
340
100
AcDbEntity
  8
Outline
 62
7
100
AcDbLine
 10
76.891730
 20
377.493751
 30
0.0
 11
73.026003
 21
385.114500
 31
0.0
  0
LINE
  5
341
100
AcDbEntity
  8
Outline
 62
7
100
AcDbLine
 10
73.026003
 20
385.114500
 30
0.0
 11
69.391777
 21
392.846380
 31
0.0
  0
LINE
  5
342
100
AcDbEntity
  8
Outline
 62
7
100
AcDbLine
 10
69.391777
 20
392.846380
 30
0.0
 11
65.995233
 21
400.683375
 31
0.0
  0
LINE
  5
343
100
AcDbEntity
  8
Outline
 62
7
100
AcDbLine
 10
65.995233
 20
400.683375
 30
0.0
 11
62.842551
 21
408.619467
 31
0.0
  0
LINE
  5
344
100
AcDbEntity
  8
Outline
 62
7
100
AcDbLine
 10
62.842551
 20
408.619467
 30
0.0
 11
59.939912
 21
416.648640
 31
0.0
  0
LINE
  5
345
100
AcDbEntity
  8
Outline
 62
7
100
AcDbLine
 10
59.939912
 20
416.648640
 30
0.0
 11
57.293497
 21
424.764877
 31
0.0
  0
LINE
  5
346
100
AcDbEntity
  8
Outline
 62
7
100
AcDbLine
 10
57.293497
 20
424.764877
 30
0.0
 11
54.909485
 21
432.962159
 31
0.0
  0
LINE
  5
347
100
AcDbEntity
  8
Outline
 62
7
100
AcDbLine
 10
54.909485
 20
432.962159
 30
0.0
 11
52.794059
 21
441.234471
 31
0.0
  0
LINE
  5
348
100
AcDbEntity
  8
Outline
 62
7
100
AcDbLine
 10
52.794059
 20
441.234471
 30
0.0
 11
50.953398
 21
449.575794
 31
0.0
  0
LINE
  5
349
100
AcDbEntity
  8
Outline
 62
7
100
AcDbLine
 10
50.953398
 20
449.575794
 30
0.0
 11
49.393683
 21
457.980113
 31
0.0
  0
LINE
  5
34a
100
AcDbEntity
  8
Outline
 62
7
100
AcDbLine
 10
49.393683
 20
457.980113
 30
0.0
 11
48.121094
 21
466.441410
 31
0.0
  0
LINE
  5
34b
100
AcDbEntity
  8
Outline
 62
7
100
AcDbLine
 10
48.121094
 20
466.441410
 30
0.0
 11
46.787879
 21
476.369278
 31
0.0
  0
LINE
  5
34c
100
AcDbEntity
  8
Outline
 62
7
100
AcDbLine
 10
46.787879
 20
476.369278
 30
0.0
 11
45.799681
 21
486.371478
 31
0.0
  0
LINE
  5
34d
100
AcDbEntity
  8
Outline
 62
7
100
AcDbLine
 10
45.799681
 20
486.371478
 30
0.0
 11
45.169375
 21
496.425617
 31
0.0
  0
LINE
  5
34e
100
AcDbEntity
  8
Outline
 62
7
100
AcDbLine
 10
45.169375
 20
496.425617
 30
0.0
 11
44.909838
 21
506.509304
 31
0.0
  0
LINE
  5
34f
100
AcDbEntity
  8
Outline
 62
7
100
AcDbLine
 10
44.909838
 20
506.509304
 30
0.0
 11
45.033946
 21
516.600149
 31
0.0
  0
LINE
  5
350
100
AcDbEntity
  8
Outline
 62
7
100
AcDbLine
 10
45.033946
 20
516.600149
 30
0.0
 11
45.554576
 21
526.675760
 31
0.0
  0
LINE
  5
351
100
AcDbEntity
  8
Outline
 62
7
100
AcDbLine
 10
45.554576
 20
526.675760
 30
0.0
 11
46.484604
 21
536.713746
 31
0.0
  0
LINE
  5
352
100
AcDbEntity
  8
Outline
 62
7
100
AcDbLine
 10
46.484604
 20
536.713746
 30
0.0
 11
47.836906
 21
546.691716
 31
0.0
  0
LINE
  5
353
100
AcDbEntity
  8
Outline
 62
7
100
AcDbLine
 10
47.836906
 20
546.691716
 30
0.0
 11
49.624358
 21
556.587279
 31
0.0
  0
LINE
  5
354
100
AcDbEntity
  8
Outline
 62
7
100
AcDbLine
 10
49.624358
 20
556.587279
 30
0.0
 11
51.859837
 21
566.378044
 31
0.0
  0
LINE
  5
355
100
AcDbEntity
  8
Outline
 62
7
100
AcDbLine
 10
51.859837
 20
566.378044
 30
0.0
 11
54.556218
 21
576.041620
 31
0.0
  0
LINE
  5
356
100
AcDbEntity
  8
Outline
 62
7
100
AcDbLine
 10
54.556218
 20
576.041620
 30
0.0
 11
57.726380
 21
585.555615
 31
0.0
  0
LINE
  5
357
100
AcDbEntity
  8
Outline
 62
7
100
AcDbLine
 10
57.726380
 20
585.555615
 30
0.0
 11
61.383197
 21
594.897639
 31
0.0
  0
LINE
  5
358
100
AcDbEntity
  8
Outline
 62
7
100
AcDbLine
 10
61.383197
 20
594.897639
 30
0.0
 11
65.539545
 21
604.045300
 31
0.0
  0
LINE
  5
359
100
AcDbEntity
  8
Outline
 62
7
100
AcDbLine
 10
65.539545
 20
604.045300
 30
0.0
 11
70.208302
 21
612.976208
 31
0.0
  0
LINE
  5
35a
100
AcDbEntity
  8
Outline
 62
7
100
AcDbLine
 10
70.208302
 20
612.976208
 30
0.0
 11
75.402344
 21
621.667970
 31
0.0
  0
LINE
  5
35b
100
AcDbEntity
  8
Outline
 62
7
100
AcDbLine
 10
75.402344
 20
621.667970
 30
0.0
 11
78.141787
 21
625.924258
 31
0.0
  0
LINE
  5
35c
100
AcDbEntity
  8
Outline
 62
7
100
AcDbLine
 10
78.141787
 20
625.924258
 30
0.0
 11
81.012210
 21
630.074286
 31
0.0
  0
LINE
  5
35d
100
AcDbEntity
  8
Outline
 62
7
100
AcDbLine
 10
81.012210
 20
630.074286
 30
0.0
 11
84.009615
 21
634.117571
 31
0.0
  0
LINE
  5
35e
100
AcDbEntity
  8
Outline
 62
7
100
AcDbLine
 10
84.009615
 20
634.117571
 30
0.0
 11
87.130003
 21
638.053630
 31
0.0
  0
LINE
  5
35f
100
AcDbEntity
  8
Outline
 62
7
100
AcDbLine
 10
87.130003
 20
638.053630
 30
0.0
 11
90.369374
 21
641.881979
 31
0.0
  0
LINE
  5
360
100
AcDbEntity
  8
Outline
 62
7
100
AcDbLine
 10
90.369374
 20
641.881979
 30
0.0
 11
93.723732
 21
645.602136
 31
0.0
  0
LINE
  5
361
100
AcDbEntity
  8
Outline
 62
7
100
AcDbLine
 10
93.723732
 20
645.602136
 30
0.0
 11
97.189076
 21
649.213617
 31
0.0
  0
LINE
  5
362
100
AcDbEntity
  8
Outline
 62
7
100
AcDbLine
 10
97.189076
 20
649.213617
 30
0.0
 11
100.761409
 21
652.715938
 31
0.0
  0
LINE
  5
363
100
AcDbEntity
  8
Outline
 62
7
100
AcDbLine
 10
100.761409
 20
652.715938
 30
0.0
 11
108.211043
 21
659.391172
 31
0.0
  0
LINE
  5
364
100
AcDbEntity
  8
Outline
 62
7
100
AcDbLine
 10
108.211043
 20
659.391172
 30
0.0
 11
116.040646
 21
665.623970
 31
0.0
  0
LINE
  5
365
100
AcDbEntity
  8
Outline
 62
7
100
AcDbLine
 10
116.040646
 20
665.623970
 30
0.0
 11
124.218229
 21
671.410467
 31
0.0
  0
LINE
  5
366
100
AcDbEntity
  8
Outline
 62
7
100
AcDbLine
 10
124.218229
 20
671.410467
 30
0.0
 11
132.711801
 21
676.746799
 31
0.0
  0
LINE
  5
367
100
AcDbEntity
  8
Outline
 62
7
100
AcDbLine
 10
132.711801
 20
676.746799
 30
0.0
 11
141.489373
 21
681.629098
 31
0.0
  0
LINE
  5
368
100
AcDbEntity
  8
Outline
 62
7
100
AcDbLine
 10
141.489373
 20
681.629098
 30
0.0
 11
150.518955
 21
686.053500
 31
0.0
  0
LINE
  5
369
100
AcDbEntity
  8
Outline
 62
7
100
AcDbLine
 10
150.518955
 20
686.053500
 30
0.0
 11
159.768560
 21
690.016138
 31
0.0
  0
LINE
  5
36a
100
AcDbEntity
  8
Outline
 62
7
100
AcDbLine
 10
159.768560
 20
690.016138
 30
0.0
 11
169.206196
 21
693.513147
 31
0.0
  0
LINE
  5
36b
100
AcDbEntity
  8
Outline
 62
7
100
AcDbLine
 10
169.206196
 20
693.513147
 30
0.0
 11
178.799874
 21
696.540661
 31
0.0
  0
LINE
  5
36c
100
AcDbEntity
  8
Outline
 62
7
100
AcDbLine
 10
178.799874
 20
696.540661
 30
0.0
 11
188.517606
 21
699.094815
 31
0.0
  0
LINE
  5
36d
100
AcDbEntity
  8
Outline
 62
7
100
AcDbLine
 10
188.517606
 20
699.094815
 30
0.0
 11
198.327401
 21
701.171742
 31
0.0
  0
LINE
  5
36e
100
AcDbEntity
  8
Outline
 62
7
100
AcDbLine
 10
198.327401
 20
701.171742
 30
0.0
 11
208.197270
 21
702.767578
 31
0.0
  0
LINE
  5
36f
100
AcDbEntity
  8
Outline
 62
7
100
AcDbLine
 10
208.197270
 20
702.767578
 30
0.0
 11
217.009888
 21
703.666208
 31
0.0
  0
LINE
  5
370
100
AcDbEntity
  8
Outline
 62
7
100
AcDbLine
 10
217.009888
 20
703.666208
 30
0.0
 11
225.847002
 21
704.308916
 31
0.0
  0
LINE
  5
371
100
AcDbEntity
  8
Outline
 62
7
100
AcDbLine
 10
225.847002
 20
704.308916
 30
0.0
 11
234.701099
 21
704.696639
 31
0.0
  0
LINE
  5
372
100
AcDbEntity
  8
Outline
 62
7
100
AcDbLine
 10
234.701099
 20
704.696639
 30
0.0
 11
243.564667
 21
704.830311
 31
0.0
  0
LINE
  5
373
100
AcDbEntity
  8
Outline
 62
7
100
AcDbLine
 10
243.564667
 20
704.830311
 30
0.0
 11
252.430194
 21
704.710868
 31
0.0
  0
LINE
  5
374
100
AcDbEntity
  8
Outline
 62
7
100
AcDbLine
 10
252.430194
 20
704.710868
 30
0.0
 11
261.290166
 21
704.339247
 31
0.0
  0
LINE
  5
375
100
AcDbEntity
  8
Outline
 62
7
100
AcDbLine
 10
261.290166
 20
704.339247
 30
0.0
 11
270.137071
 21
703.716381
 31
0.0
  0
LINE
  5
376
100
AcDbEntity
  8
Outline
 62
7
100
AcDbLine
 10
270.137071
 20
703.716381
 30
0.0
 11
278.963397
 21
702.843208
 31
0.0
  0
LINE
  5
377
100
AcDbEntity
  8
Outline
 62
7
100
AcDbLine
 10
278.963397
 20
702.843208
 30
0.0
 11
287.761632
 21
701.720662
 31
0.0
  0
LINE
  5
378
100
AcDbEntity
  8
Outline
 62
7
100
AcDbLine
 10
287.761632
 20
701.720662
 30
0.0
 11
296.524261
 21
700.349678
 31
0.0
  0
LINE
  5
379
100
AcDbEntity
  8
Outline
 62
7
100
AcDbLine
 10
296.524261
 20
700.349678
 30
0.0
 11
305.243774
 21
698.731193
 31
0.0
  0
LINE
  5
37a
100
AcDbEntity
  8
Outline
 62
7
100
AcDbLine
 10
305.243774
 20
698.731193
 30
0.0
 11
313.912657
 21
696.866141
 31
0.0
  0
LINE
  5
37b
100
AcDbEntity
  8
Outline
 62
7
100
AcDbLine
 10
313.912657
 20
696.866141
 30
0.0
 11
322.523397
 21
694.755459
 31
0.0
  0
LINE
  5
37c
100
AcDbEntity
  8
Outline
 62
7
100
AcDbLine
 10
322.523397
 20
694.755459
 30
0.0
 11
331.068483
 21
692.400082
 31
0.0
  0
LINE
  5
37d
100
AcDbEntity
  8
Outline
 62
7
100
AcDbLine
 10
331.068483
 20
692.400082
 30
0.0
 11
339.540401
 21
689.800945
 31
0.0
  0
LINE
  5
37e
100
AcDbEntity
  8
Outline
 62
7
100
AcDbLine
 10
339.540401
 20
689.800945
 30
0.0
 11
347.931640
 21
686.958984
 31
0.0
  0
LINE
  5
37f
100
AcDbEntity
  8
Outline
 62
7
100
AcDbLine
 10
347.931640
 20
686.958984
 30
0.0
 11
355.061916
 21
684.338817
 31
0.0
  0
LINE
  5
380
100
AcDbEntity
  8
Outline
 62
7
100
AcDbLine
 10
355.061916
 20
684.338817
 30
0.0
 11
362.120720
 21
681.412862
 31
0.0
  0
LINE
  5
381
100
AcDbEntity
  8
Outline
 62
7
100
AcDbLine
 10
362.120720
 20
681.412862
 30
0.0
 11
369.079551
 21
678.182096
 31
0.0
  0
LINE
  5
382
100
AcDbEntity
  8
Outline
 62
7
100
AcDbLine
 10
369.079551
 20
678.182096
 30
0.0
 11
375.909907
 21
674.647496
 31
0.0
  0
LINE
  5
383
100
AcDbEntity
  8
Outline
 62
7
100
AcDbLine
 10
375.909907
 20
674.647496
 30
0.0
 11
382.583286
 21
670.810037
 31
0.0
  0
LINE
  5
384
100
AcDbEntity
  8
Outline
 62
7
100
AcDbLine
 10
382.583286
 20
670.810037
 30
0.0
 11
389.071187
 21
666.670698
 31
0.0
  0
LINE
  5
385
100
AcDbEntity
  8
Outline
 62
7
100
AcDbLine
 10
389.071187
 20
666.670698
 30
0.0
 11
395.345107
 21
662.230454
 31
0.0
  0
LINE
  5
386
100
AcDbEntity
  8
Outline
 62
7
100
AcDbLine
 10
395.345107
 20
662.230454
 30
0.0
 11
401.376546
 21
657.490281
 31
0.0
  0
LINE
  5
387
100
AcDbEntity
  8
Outline
 62
7
100
AcDbLine
 10
401.376546
 20
657.490281
 30
0.0
 11
407.137002
 21
652.451157
 31
0.0
  0
LINE
  5
388
100
AcDbEntity
  8
Outline
 62
7
100
AcDbLine
 10
407.137002
 20
652.451157
 30
0.0
 11
412.597973
 21
647.114057
 31
0.0
  0
LINE
  5
389
100
AcDbEntity
  8
Outline
 62
7
100
AcDbLine
 10
412.597973
 20
647.114057
 30
0.0
 11
417.730957
 21
641.479959
 31
0.0
  0
LINE
  5
38a
100
AcDbEntity
  8
Outline
 62
7
100
AcDbLine
 10
417.730957
 20
641.479959
 30
0.0
 11
422.507453
 21
635.549839
 31
0.0
  0
LINE
  5
38b
100
AcDbEntity
  8
Outline
 62
7
100
AcDbLine
 10
422.507453
 20
635.549839
 30
0.0
 11
426.898959
 21
629.324674
 31
0.0
  0
LINE
  5
38c
100
AcDbEntity
  8
Outline
 62
7
100
AcDbLine
 10
426.898959
 20
629.324674
 30
0.0
 11
430.876973
 21
622.805439
 31
0.0
  0
LINE
  5
38d
100
AcDbEntity
  8
Outline
 62
7
100
AcDbLine
 10
430.876973
 20
622.805439
 30
0.0
 11
434.412994
 21
615.993113
 31
0.0
  0
LINE
  5
38e
100
AcDbEntity
  8
Outline
 62
7
100
AcDbLine
 10
434.412994
 20
615.993113
 30
0.0
 11
437.478520
 21
608.888670
 31
0.0
  0
LINE
  5
38f
100
AcDbEntity
  8
Outline
 62
7
100
AcDbLine
 10
437.478520
 20
608.888670
 30
0.0
 11
439.435198
 21
613.636935
 31
0.0
  0
LINE
  5
390
100
AcDbEntity
  8
Outline
 62
7
100
AcDbLine
 10
439.435198
 20
613.636935
 30
0.0
 11
441.621720
 21
618.265364
 31
0.0
  0
LINE
  5
391
100
AcDbEntity
  8
Outline
 62
7
100
AcDbLine
 10
441.621720
 20
618.265364
 30
0.0
 11
444.027351
 21
622.772204
 31
0.0
  0
LINE
  5
392
100
AcDbEntity
  8
Outline
 62
7
100
AcDbLine
 10
444.027351
 20
622.772204
 30
0.0
 11
446.641356
 21
627.155699
 31
0.0
  0
LINE
  5
393
100
AcDbEntity
  8
Outline
 62
7
100
AcDbLine
 10
446.641356
 20
627.155699
 30
0.0
 11
449.453003
 21
631.414095
 31
0.0
  0
LINE
  5
394
100
AcDbEntity
  8
Outline
 62
7
100
AcDbLine
 10
449.453003
 20
631.414095
 30
0.0
 11
452.451556
 21
635.545637
 31
0.0
  0
LINE
  5
395
100
AcDbEntity
  8
Outline
 62
7
100
AcDbLine
 10
452.451556
 20
635.545637
 30
0.0
 11
455.626283
 21
639.548570
 31
0.0
  0
LINE
  5
396
100
AcDbEntity
  8
Outline
 62
7
100
AcDbLine
 10
455.626283
 20
639.548570
 30
0.0
 11
458.966448
 21
643.421140
 31
0.0
  0
LINE
  5
397
100
AcDbEntity
  8
Outline
 62
7
100
AcDbLine
 10
458.966448
 20
643.421140
 30
0.0
 11
462.461317
 21
647.161591
 31
0.0
  0
LINE
  5
398
100
AcDbEntity
  8
Outline
 62
7
100
AcDbLine
 10
462.461317
 20
647.161591
 30
0.0
 11
466.100157
 21
650.768170
 31
0.0
  0
LINE
  5
399
100
AcDbEntity
  8
Outline
 62
7
100
AcDbLine
 10
466.100157
 20
650.768170
 30
0.0
 11
469.872234
 21
654.239121
 31
0.0
  0
LINE
  5
39a
100
AcDbEntity
  8
Outline
 62
7
100
AcDbLine
 10
469.872234
 20
654.239121
 30
0.0
 11
473.766813
 21
657.572690
 31
0.0
  0
LINE
  5
39b
100
AcDbEntity
  8
Outline
 62
7
100
AcDbLine
 10
473.766813
 20
657.572690
 30
0.0
 11
477.773160
 21
660.767121
 31
0.0
  0
LINE
  5
39c
100
AcDbEntity
  8
Outline
 62
7
100
AcDbLine
 10
477.773160
 20
660.767121
 30
0.0
 11
481.880541
 21
663.820661
 31
0.0
  0
LINE
  5
39d
100
AcDbEntity
  8
Outline
 62
7
100
AcDbLine
 10
481.880541
 20
663.820661
 30
0.0
 11
486.078222
 21
666.731555
 31
0.0
  0
LINE
  5
39e
100
AcDbEntity
  8
Outline
 62
7
100
AcDbLine
 10
486.078222
 20
666.731555
 30
0.0
 11
490.355470
 21
669.498047
 31
0.0
  0
LINE
  5
39f
100
AcDbEntity
  8
Outline
 62
7
100
AcDbLine
 10
490.355470
 20
669.498047
 30
0.0
 11
498.365038
 21
674.039588
 31
0.0
  0
LINE
  5
3a0
100
AcDbEntity
  8
Outline
 62
7
100
AcDbLine
 10
498.365038
 20
674.039588
 30
0.0
 11
506.541716
 21
678.219186
 31
0.0
  0
LINE
  5
3a1
100
AcDbEntity
  8
Outline
 62
7
100
AcDbLine
 10
506.541716
 20
678.219186
 30
0.0
 11
514.872374
 21
682.048031
 31
0.0
  0
LINE
  5
3a2
100
AcDbEntity
  8
Outline
 62
7
100
AcDbLine
 10
514.872374
 20
682.048031
 30
0.0
 11
523.343882
 21
685.537315
 31
0.0
  0
LINE
  5
3a3
100
AcDbEntity
  8
Outline
 62
7
100
AcDbLine
 10
523.343882
 20
685.537315
 30
0.0
 11
531.943109
 21
688.698226
 31
0.0
  0
LINE
  5
3a4
100
AcDbEntity
  8
Outline
 62
7
100
AcDbLine
 10
531.943109
 20
688.698226
 30
0.0
 11
540.656927
 21
691.541955
 31
0.0
  0
LINE
  5
3a5
100
AcDbEntity
  8
Outline
 62
7
100
AcDbLine
 10
540.656927
 20
691.541955
 30
0.0
 11
549.472204
 21
694.079693
 31
0.0
  0
LINE
  5
3a6
100
AcDbEntity
  8
Outline
 62
7
100
AcDbLine
 10
549.472204
 20
694.079693
 30
0.0
 11
558.375813
 21
696.322630
 31
0.0
  0
LINE
  5
3a7
100
AcDbEntity
  8
Outline
 62
7
100
AcDbLine
 10
558.375813
 20
696.322630
 30
0.0
 11
567.354621
 21
698.281955
 31
0.0
  0
LINE
  5
3a8
100
AcDbEntity
  8
Outline
 62
7
100
AcDbLine
 10
567.354621
 20
698.281955
 30
0.0
 11
576.395500
 21
699.968859
 31
0.0
  0
LINE
  5
3a9
100
AcDbEntity
  8
Outline
 62
7
100
AcDbLine
 10
576.395500
 20
699.968859
 30
0.0
 11
585.485319
 21
701.394532
 31
0.0
  0
LINE
  5
3aa
100
AcDbEntity
  8
Outline
 62
7
100
AcDbLine
 10
585.485319
 20
701.394532
 30
0.0
 11
594.610950
 21
702.570165
 31
0.0
  0
LINE
  5
3ab
100
AcDbEntity
  8
Outline
 62
7
100
AcDbLine
 10
594.610950
 20
702.570165
 30
0.0
 11
603.759261
 21
703.506948
 31
0.0
  0
LINE
  5
3ac
100
AcDbEntity
  8
Outline
 62
7
100
AcDbLine
 10
603.759261
 20
703.506948
 30
0.0
 11
612.917123
 21
704.216070
 31
0.0
  0
LINE
  5
3ad
100
AcDbEntity
  8
Outline
 62
7
100
AcDbLine
 10
612.917123
 20
704.216070
 30
0.0
 11
622.071406
 21
704.708722
 31
0.0
  0
LINE
  5
3ae
100
AcDbEntity
  8
Outline
 62
7
100
AcDbLine
 10
622.071406
 20
704.708722
 30
0.0
 11
631.208980
 21
704.996094
 31
0.0
  0
LINE
  5
3af
100
AcDbEntity
  8
Outline
 62
7
100
AcDbLine
 10
631.208980
 20
704.996094
 30
0.0
 11
634.798830
 21
704.999994
 31
0.0
  0
LINE
  5
3b0
100
AcDbEntity
  8
Outline
 62
7
100
AcDbLine
 10
634.798830
 20
704.999994
 30
0.0
 11
634.798830
 21
705.000000
 31
0.0
  0
LINE
  5
3b1
100
AcDbEntity
  8
Heart
 62
7
100
AcDbLine
 10
60.478876
 20
431.458653
 30
0.0
 11
58.500225
 21
439.521808
 31
0.0
  0
LINE
  5
3b2
100
AcDbEntity
  8
Heart
 62
7
100
AcDbLine
 10
58.500225
 20
439.521808
 30
0.0
 11
56.734514
 21
447.489572
 31
0.0
  0
LINE
  5
3b3
100
AcDbEntity
  8
Heart
 62
7
100
AcDbLine
 10
56.734514
 20
447.489572
 30
0.0
 11
55.179501
 21
455.360587
 31
0.0
  0
LINE
  5
3b4
100
AcDbEntity
  8
Heart
 62
7
100
AcDbLine
 10
55.179501
 20
455.360587
 30
0.0
 11
53.832942
 21
463.133498
 31
0.0
  0
LINE
  5
3b5
100
AcDbEntity
  8
Heart
 62
7
100
AcDbLine
 10
53.832942
 20
463.133498
 30
0.0
 11
52.692595
 21
470.806949
 31
0.0
  0
LINE
  5
3b6
100
AcDbEntity
  8
Heart
 62
7
100
AcDbLine
 10
52.692595
 20
470.806949
 30
0.0
 11
51.756217
 21
478.379584
 31
0.0
  0
LINE
  5
3b7
100
AcDbEntity
  8
Heart
 62
7
100
AcDbLine
 10
51.756217
 20
478.379584
 30
0.0
 11
51.021565
 21
485.850046
 31
0.0
  0
LINE
  5
3b8
100
AcDbEntity
  8
Heart
 62
7
100
AcDbLine
 10
51.021565
 20
485.850046
 30
0.0
 11
50.486397
 21
493.216980
 31
0.0
  0
LINE
  5
3b9
100
AcDbEntity
  8
Heart
 62
7
100
AcDbLine
 10
50.486397
 20
493.216980
 30
0.0
 11
50.148468
 21
500.479029
 31
0.0
  0
LINE
  5
3ba
100
AcDbEntity
  8
Heart
 62
7
100
AcDbLine
 10
50.148468
 20
500.479029
 30
0.0
 11
50.005537
 21
507.634837
 31
0.0
  0
LINE
  5
3bb
100
AcDbEntity
  8
Heart
 62
7
100
AcDbLine
 10
50.005537
 20
507.634837
 30
0.0
 11
50.055361
 21
514.683048
 31
0.0
  0
LINE
  5
3bc
100
AcDbEntity
  8
Heart
 62
7
100
AcDbLine
 10
50.055361
 20
514.683048
 30
0.0
 11
50.295697
 21
521.622305
 31
0.0
  0
LINE
  5
3bd
100
AcDbEntity
  8
Heart
 62
7
100
AcDbLine
 10
50.295697
 20
521.622305
 30
0.0
 11
50.724302
 21
528.451254
 31
0.0
  0
LINE
  5
3be
100
AcDbEntity
  8
Heart
 62
7
100
AcDbLine
 10
50.724302
 20
528.451254
 30
0.0
 11
51.338933
 21
535.168537
 31
0.0
  0
LINE
  5
3bf
100
AcDbEntity
  8
Heart
 62
7
100
AcDbLine
 10
51.338933
 20
535.168537
 30
0.0
 11
52.137347
 21
541.772799
 31
0.0
  0
LINE
  5
3c0
100
AcDbEntity
  8
Heart
 62
7
100
AcDbLine
 10
52.137347
 20
541.772799
 30
0.0
 11
53.117301
 21
548.262684
 31
0.0
  0
LINE
  5
3c1
100
AcDbEntity
  8
Heart
 62
7
100
AcDbLine
 10
53.117301
 20
548.262684
 30
0.0
 11
54.276554
 21
554.636834
 31
0.0
  0
LINE
  5
3c2
100
AcDbEntity
  8
Heart
 62
7
100
AcDbLine
 10
54.276554
 20
554.636834
 30
0.0
 11
55.612861
 21
560.893895
 31
0.0
  0
LINE
  5
3c3
100
AcDbEntity
  8
Heart
 62
7
100
AcDbLine
 10
55.612861
 20
560.893895
 30
0.0
 11
57.123980
 21
567.032510
 31
0.0
  0
LINE
  5
3c4
100
AcDbEntity
  8
Heart
 62
7
100
AcDbLine
 10
57.123980
 20
567.032510
 30
0.0
 11
58.807668
 21
573.051323
 31
0.0
  0
LINE
  5
3c5
100
AcDbEntity
  8
Heart
 62
7
100
AcDbLine
 10
58.807668
 20
573.051323
 30
0.0
 11
60.661682
 21
578.948977
 31
0.0
  0
LINE
  5
3c6
100
AcDbEntity
  8
Heart
 62
7
100
AcDbLine
 10
60.661682
 20
578.948977
 30
0.0
 11
62.683780
 21
584.724118
 31
0.0
  0
LINE
  5
3c7
100
AcDbEntity
  8
Heart
 62
7
100
AcDbLine
 10
62.683780
 20
584.724118
 30
0.0
 11
64.871719
 21
590.375387
 31
0.0
  0
LINE
  5
3c8
100
AcDbEntity
  8
Heart
 62
7
100
AcDbLine
 10
64.871719
 20
590.375387
 30
0.0
 11
67.223255
 21
595.901431
 31
0.0
  0
LINE
  5
3c9
100
AcDbEntity
  8
Heart
 62
7
100
AcDbLine
 10
67.223255
 20
595.901431
 30
0.0
 11
69.736146
 21
601.300892
 31
0.0
  0
LINE
  5
3ca
100
AcDbEntity
  8
Heart
 62
7
100
AcDbLine
 10
69.736146
 20
601.300892
 30
0.0
 11
72.408149
 21
606.572413
 31
0.0
  0
LINE
  5
3cb
100
AcDbEntity
  8
Heart
 62
7
100
AcDbLine
 10
72.408149
 20
606.572413
 30
0.0
 11
75.237021
 21
611.714640
 31
0.0
  0
LINE
  5
3cc
100
AcDbEntity
  8
Heart
 62
7
100
AcDbLine
 10
75.237021
 20
611.714640
 30
0.0
 11
78.220520
 21
616.726216
 31
0.0
  0
LINE
  5
3cd
100
AcDbEntity
  8
Heart
 62
7
100
AcDbLine
 10
78.220520
 20
616.726216
 30
0.0
 11
81.356402
 21
621.605785
 31
0.0
  0
LINE
  5
3ce
100
AcDbEntity
  8
Heart
 62
7
100
AcDbLine
 10
81.356402
 20
621.605785
 30
0.0
 11
84.642424
 21
626.351991
 31
0.0
  0
LINE
  5
3cf
100
AcDbEntity
  8
Heart
 62
7
100
AcDbLine
 10
84.642424
 20
626.351991
 30
0.0
 11
88.076345
 21
630.963477
 31
0.0
  0
LINE
  5
3d0
100
AcDbEntity
  8
Heart
 62
7
100
AcDbLine
 10
88.076345
 20
630.963477
 30
0.0
 11
91.655921
 21
635.438888
 31
0.0
  0
LINE
  5
3d1
100
AcDbEntity
  8
Heart
 62
7
100
AcDbLine
 10
91.655921
 20
635.438888
 30
0.0
 11
95.378908
 21
639.776867
 31
0.0
  0
LINE
  5
3d2
100
AcDbEntity
  8
Heart
 62
7
100
AcDbLine
 10
95.378908
 20
639.776867
 30
0.0
 11
99.243065
 21
643.976058
 31
0.0
  0
LINE
  5
3d3
100
AcDbEntity
  8
Heart
 62
7
100
AcDbLine
 10
99.243065
 20
643.976058
 30
0.0
 11
103.246149
 21
648.035106
 31
0.0
  0
LINE
  5
3d4
100
AcDbEntity
  8
Heart
 62
7
100
AcDbLine
 10
103.246149
 20
648.035106
 30
0.0
 11
107.385916
 21
651.952653
 31
0.0
  0
LINE
  5
3d5
100
AcDbEntity
  8
Heart
 62
7
100
AcDbLine
 10
107.385916
 20
651.952653
 30
0.0
 11
111.660123
 21
655.727345
 31
0.0
  0
LINE
  5
3d6
100
AcDbEntity
  8
Heart
 62
7
100
AcDbLine
 10
111.660123
 20
655.727345
 30
0.0
 11
116.066529
 21
659.357824
 31
0.0
  0
LINE
  5
3d7
100
AcDbEntity
  8
Heart
 62
7
100
AcDbLine
 10
116.066529
 20
659.357824
 30
0.0
 11
120.602890
 21
662.842735
 31
0.0
  0
LINE
  5
3d8
100
AcDbEntity
  8
Heart
 62
7
100
AcDbLine
 10
120.602890
 20
662.842735
 30
0.0
 11
125.266963
 21
666.180721
 31
0.0
  0
LINE
  5
3d9
100
AcDbEntity
  8
Heart
 62
7
100
AcDbLine
 10
125.266963
 20
666.180721
 30
0.0
 11
130.056505
 21
669.370427
 31
0.0
  0
LINE
  5
3da
100
AcDbEntity
  8
Heart
 62
7
100
AcDbLine
 10
130.056505
 20
669.370427
 30
0.0
 11
134.969274
 21
672.410496
 31
0.0
  0
LINE
  5
3db
100
AcDbEntity
  8
Heart
 62
7
100
AcDbLine
 10
134.969274
 20
672.410496
 30
0.0
 11
140.003026
 21
675.299572
 31
0.0
  0
LINE
  5
3dc
100
AcDbEntity
  8
Heart
 62
7
100
AcDbLine
 10
140.003026
 20
675.299572
 30
0.0
 11
145.155520
 21
678.036300
 31
0.0
  0
LINE
  5
3dd
100
AcDbEntity
  8
Heart
 62
7
100
AcDbLine
 10
145.155520
 20
678.036300
 30
0.0
 11
150.424511
 21
680.619322
 31
0.0
  0
LINE
  5
3de
100
AcDbEntity
  8
Heart
 62
7
100
AcDbLine
 10
150.424511
 20
680.619322
 30
0.0
 11
155.807758
 21
683.047283
 31
0.0
  0
LINE
  5
3df
100
AcDbEntity
  8
Heart
 62
7
100
AcDbLine
 10
155.807758
 20
683.047283
 30
0.0
 11
161.303017
 21
685.318827
 31
0.0
  0
LINE
  5
3e0
100
AcDbEntity
  8
Heart
 62
7
100
AcDbLine
 10
161.303017
 20
685.318827
 30
0.0
 11
166.908045
 21
687.432597
 31
0.0
  0
LINE
  5
3e1
100
AcDbEntity
  8
Heart
 62
7
100
AcDbLine
 10
166.908045
 20
687.432597
 30
0.0
 11
172.620600
 21
689.387238
 31
0.0
  0
LINE
  5
3e2
100
AcDbEntity
  8
Heart
 62
7
100
AcDbLine
 10
172.620600
 20
689.387238
 30
0.0
 11
178.438439
 21
691.181393
 31
0.0
  0
LINE
  5
3e3
100
AcDbEntity
  8
Heart
 62
7
100
AcDbLine
 10
178.438439
 20
691.181393
 30
0.0
 11
184.359319
 21
692.813707
 31
0.0
  0
LINE
  5
3e4
100
AcDbEntity
  8
Heart
 62
7
100
AcDbLine
 10
184.359319
 20
692.813707
 30
0.0
 11
190.380997
 21
694.282822
 31
0.0
  0
LINE
  5
3e5
100
AcDbEntity
  8
Heart
 62
7
100
AcDbLine
 10
190.380997
 20
694.282822
 30
0.0
 11
196.501230
 21
695.587383
 31
0.0
  0
LINE
  5
3e6
100
AcDbEntity
  8
Heart
 62
7
100
AcDbLine
 10
196.501230
 20
695.587383
 30
0.0
 11
202.717775
 21
696.726035
 31
0.0
  0
LINE
  5
3e7
100
AcDbEntity
  8
Heart
 62
7
100
AcDbLine
 10
202.717775
 20
696.726035
 30
0.0
 11
209.028391
 21
697.697420
 31
0.0
  0
LINE
  5
3e8
100
AcDbEntity
  8
Heart
 62
7
100
AcDbLine
 10
209.028391
 20
697.697420
 30
0.0
 11
215.430832
 21
698.500182
 31
0.0
  0
LINE
  5
3e9
100
AcDbEntity
  8
Heart
 62
7
100
AcDbLine
 10
215.430832
 20
698.500182
 30
0.0
 11
221.922858
 21
699.132966
 31
0.0
  0
LINE
  5
3ea
100
AcDbEntity
  8
Heart
 62
7
100
AcDbLine
 10
221.922858
 20
699.132966
 30
0.0
 11
228.502225
 21
699.594416
 31
0.0
  0
LINE
  5
3eb
100
AcDbEntity
  8
Heart
 62
7
100
AcDbLine
 10
228.502225
 20
699.594416
 30
0.0
 11
235.166690
 21
699.883175
 31
0.0
  0
LINE
  5
3ec
100
AcDbEntity
  8
Heart
 62
7
100
AcDbLine
 10
235.166690
 20
699.883175
 30
0.0
 11
241.914010
 21
699.997887
 31
0.0
  0
LINE
  5
3ed
100
AcDbEntity
  8
Heart
 62
7
100
AcDbLine
 10
241.914010
 20
699.997887
 30
0.0
 11
248.741943
 21
699.937195
 31
0.0
  0
LINE
  5
3ee
100
AcDbEntity
  8
Heart
 62
7
100
AcDbLine
 10
248.741943
 20
699.937195
 30
0.0
 11
255.648245
 21
699.699745
 31
0.0
  0
LINE
  5
3ef
100
AcDbEntity
  8
Heart
 62
7
100
AcDbLine
 10
255.648245
 20
699.699745
 30
0.0
 11
262.630675
 21
699.284180
 31
0.0
  0
LINE
  5
3f0
100
AcDbEntity
  8
Heart
 62
7
100
AcDbLine
 10
262.630675
 20
699.284180
 30
0.0
 11
269.686988
 21
698.689143
 31
0.0
  0
LINE
  5
3f1
100
AcDbEntity
  8
Heart
 62
7
100
AcDbLine
 10
269.686988
 20
698.689143
 30
0.0
 11
284.361101
 21
697.003972
 31
0.0
  0
LINE
  5
3f2
100
AcDbEntity
  8
Heart
 62
7
100
AcDbLine
 10
284.361101
 20
697.003972
 30
0.0
 11
298.155257
 21
694.891640
 31
0.0
  0
LINE
  5
3f3
100
AcDbEntity
  8
Heart
 62
7
100
AcDbLine
 10
298.155257
 20
694.891640
 30
0.0
 11
311.096615
 21
692.383668
 31
0.0
  0
LINE
  5
3f4
100
AcDbEntity
  8
Heart
 62
7
100
AcDbLine
 10
311.096615
 20
692.383668
 30
0.0
 11
323.212330
 21
689.511578
 31
0.0
  0
LINE
  5
3f5
100
AcDbEntity
  8
Heart
 62
7
100
AcDbLine
 10
323.212330
 20
689.511578
 30
0.0
 11
334.529561
 21
686.306891
 31
0.0
  0
LINE
  5
3f6
100
AcDbEntity
  8
Heart
 62
7
100
AcDbLine
 10
334.529561
 20
686.306891
 30
0.0
 11
345.075464
 21
682.801129
 31
0.0
  0
LINE
  5
3f7
100
AcDbEntity
  8
Heart
 62
7
100
AcDbLine
 10
345.075464
 20
682.801129
 30
0.0
 11
354.877197
 21
679.025811
 31
0.0
  0
LINE
  5
3f8
100
AcDbEntity
  8
Heart
 62
7
100
AcDbLine
 10
354.877197
 20
679.025811
 30
0.0
 11
363.961916
 21
675.012461
 31
0.0
  0
LINE
  5
3f9
100
AcDbEntity
  8
Heart
 62
7
100
AcDbLine
 10
363.961916
 20
675.012461
 30
0.0
 11
372.356780
 21
670.792599
 31
0.0
  0
LINE
  5
3fa
100
AcDbEntity
  8
Heart
 62
7
100
AcDbLine
 10
372.356780
 20
670.792599
 30
0.0
 11
380.088945
 21
666.397747
 31
0.0
  0
LINE
  5
3fb
100
AcDbEntity
  8
Heart
 62
7
100
AcDbLine
 10
380.088945
 20
666.397747
 30
0.0
 11
387.185569
 21
661.859426
 31
0.0
  0
LINE
  5
3fc
100
AcDbEntity
  8
Heart
 62
7
100
AcDbLine
 10
387.185569
 20
661.859426
 30
0.0
 11
393.673808
 21
657.209157
 31
0.0
  0
LINE
  5
3fd
100
AcDbEntity
  8
Heart
 62
7
100
AcDbLine
 10
393.673808
 20
657.209157
 30
0.0
 11
399.580820
 21
652.478461
 31
0.0
  0
LINE
  5
3fe
100
AcDbEntity
  8
Heart
 62
7
100
AcDbLine
 10
399.580820
 20
652.478461
 30
0.0
 11
404.933763
 21
647.698861
 31
0.0
  0
LINE
  5
3ff
100
AcDbEntity
  8
Heart
 62
7
100
AcDbLine
 10
404.933763
 20
647.698861
 30
0.0
 11
409.759792
 21
642.901876
 31
0.0
  0
LINE
  5
400
100
AcDbEntity
  8
Heart
 62
7
100
AcDbLine
 10
409.759792
 20
642.901876
 30
0.0
 11
414.086067
 21
638.119029
 31
0.0
  0
LINE
  5
401
100
AcDbEntity
  8
Heart
 62
7
100
AcDbLine
 10
414.086067
 20
638.119029
 30
0.0
 11
417.939743
 21
633.381841
 31
0.0
  0
LINE
  5
402
100
AcDbEntity
  8
Heart
 62
7
100
AcDbLine
 10
417.939743
 20
633.381841
 30
0.0
 11
421.347978
 21
628.721833
 31
0.0
  0
LINE
  5
403
100
AcDbEntity
  8
Heart
 62
7
100
AcDbLine
 10
421.347978
 20
628.721833
 30
0.0
 11
424.337929
 21
624.170527
 31
0.0
  0
LINE
  5
404
100
AcDbEntity
  8
Heart
 62
7
100
AcDbLine
 10
424.337929
 20
624.170527
 30
0.0
 11
426.936754
 21
619.759443
 31
0.0
  0
LINE
  5
405
100
AcDbEntity
  8
Heart
 62
7
100
AcDbLine
 10
426.936754
 20
619.759443
 30
0.0
 11
429.171609
 21
615.520104
 31
0.0
  0
LINE
  5
406
100
AcDbEntity
  8
Heart
 62
7
100
AcDbLine
 10
429.171609
 20
615.520104
 30
0.0
 11
431.069652
 21
611.484030
 31
0.0
  0
LINE
  5
407
100
AcDbEntity
  8
Heart
 62
7
100
AcDbLine
 10
431.069652
 20
611.484030
 30
0.0
 11
432.658040
 21
607.682743
 31
0.0
  0
LINE
  5
408
100
AcDbEntity
  8
Heart
 62
7
100
AcDbLine
 10
432.658040
 20
607.682743
 30
0.0
 11
433.963930
 21
604.147764
 31
0.0
  0
LINE
  5
409
100
AcDbEntity
  8
Heart
 62
7
100
AcDbLine
 10
433.963930
 20
604.147764
 30
0.0
 11
435.836846
 21
598.002816
 31
0.0
  0
LINE
  5
40a
100
AcDbEntity
  8
Heart
 62
7
100
AcDbLine
 10
435.836846
 20
598.002816
 30
0.0
 11
436.905658
 21
593.301356
 31
0.0
  0
LINE
  5
40b
100
AcDbEntity
  8
Heart
 62
7
100
AcDbLine
 10
436.905658
 20
593.301356
 30
0.0
 11
437.387623
 21
590.295555
 31
0.0
  0
LINE
  5
40c
100
AcDbEntity
  8
Heart
 62
7
100
AcDbLine
 10
437.387623
 20
590.295555
 30
0.0
 11
437.499998
 21
589.237583
 31
0.0
  0
LINE
  5
40d
100
AcDbEntity
  8
Heart
 62
7
100
AcDbLine
 10
437.499998
 20
589.237583
 30
0.0
 11
437.612373
 21
590.295555
 31
0.0
  0
LINE
  5
40e
100
AcDbEntity
  8
Heart
 62
7
100
AcDbLine
 10
437.612373
 20
590.295555
 30
0.0
 11
438.094338
 21
593.301356
 31
0.0
  0
LINE
  5
40f
100
AcDbEntity
  8
Heart
 62
7
100
AcDbLine
 10
438.094338
 20
593.301356
 30
0.0
 11
439.163149
 21
598.002816
 31
0.0
  0
LINE
  5
410
100
AcDbEntity
  8
Heart
 62
7
100
AcDbLine
 10
439.163149
 20
598.002816
 30
0.0
 11
441.036064
 21
604.147764
 31
0.0
  0
LINE
  5
411
100
AcDbEntity
  8
Heart
 62
7
100
AcDbLine
 10
441.036064
 20
604.147764
 30
0.0
 11
442.341954
 21
607.682743
 31
0.0
  0
LINE
  5
412
100
AcDbEntity
  8
Heart
 62
7
100
AcDbLine
 10
442.341954
 20
607.682743
 30
0.0
 11
443.930342
 21
611.484030
 31
0.0
  0
LINE
  5
413
100
AcDbEntity
  8
Heart
 62
7
100
AcDbLine
 10
443.930342
 20
611.484030
 30
0.0
 11
445.828385
 21
615.520104
 31
0.0
  0
LINE
  5
414
100
AcDbEntity
  8
Heart
 62
7
100
AcDbLine
 10
445.828385
 20
615.520104
 30
0.0
 11
448.063240
 21
619.759443
 31
0.0
  0
LINE
  5
415
100
AcDbEntity
  8
Heart
 62
7
100
AcDbLine
 10
448.063240
 20
619.759443
 30
0.0
 11
450.662064
 21
624.170527
 31
0.0
  0
LINE
  5
416
100
AcDbEntity
  8
Heart
 62
7
100
AcDbLine
 10
450.662064
 20
624.170527
 30
0.0
 11
453.652015
 21
628.721833
 31
0.0
  0
LINE
  5
417
100
AcDbEntity
  8
Heart
 62
7
100
AcDbLine
 10
453.652015
 20
628.721833
 30
0.0
 11
457.060250
 21
633.381841
 31
0.0
  0
LINE
  5
418
100
AcDbEntity
  8
Heart
 62
7
100
AcDbLine
 10
457.060250
 20
633.381841
 30
0.0
 11
460.913926
 21
638.119029
 31
0.0
  0
LINE
  5
419
100
AcDbEntity
  8
Heart
 62
7
100
AcDbLine
 10
460.913926
 20
638.119029
 30
0.0
 11
465.240200
 21
642.901876
 31
0.0
  0
LINE
  5
41a
100
AcDbEntity
  8
Heart
 62
7
100
AcDbLine
 10
465.240200
 20
642.901876
 30
0.0
 11
470.066229
 21
647.698861
 31
0.0
  0
LINE
  5
41b
100
AcDbEntity
  8
Heart
 62
7
100
AcDbLine
 10
470.066229
 20
647.698861
 30
0.0
 11
475.419171
 21
652.478461
 31
0.0
  0
LINE
  5
41c
100
AcDbEntity
  8
Heart
 62
7
100
AcDbLine
 10
475.419171
 20
652.478461
 30
0.0
 11
481.326184
 21
657.209157
 31
0.0
  0
LINE
  5
41d
100
AcDbEntity
  8
Heart
 62
7
100
AcDbLine
 10
481.326184
 20
657.209157
 30
0.0
 11
487.814423
 21
661.859426
 31
0.0
  0
LINE
  5
41e
100
AcDbEntity
  8
Heart
 62
7
100
AcDbLine
 10
487.814423
 20
661.859426
 30
0.0
 11
494.911046
 21
666.397747
 31
0.0
  0
LINE
  5
41f
100
AcDbEntity
  8
Heart
 62
7
100
AcDbLine
 10
494.911046
 20
666.397747
 30
0.0
 11
502.643212
 21
670.792599
 31
0.0
  0
LINE
  5
420
100
AcDbEntity
  8
Heart
 62
7
100
AcDbLine
 10
502.643212
 20
670.792599
 30
0.0
 11
511.038076
 21
675.012461
 31
0.0
  0
LINE
  5
421
100
AcDbEntity
  8
Heart
 62
7
100
AcDbLine
 10
511.038076
 20
675.012461
 30
0.0
 11
520.122795
 21
679.025811
 31
0.0
  0
LINE
  5
422
100
AcDbEntity
  8
Heart
 62
7
100
AcDbLine
 10
520.122795
 20
679.025811
 30
0.0
 11
529.924528
 21
682.801129
 31
0.0
  0
LINE
  5
423
100
AcDbEntity
  8
Heart
 62
7
100
AcDbLine
 10
529.924528
 20
682.801129
 30
0.0
 11
540.470432
 21
686.306891
 31
0.0
  0
LINE
  5
424
100
AcDbEntity
  8
Heart
 62
7
100
AcDbLine
 10
540.470432
 20
686.306891
 30
0.0
 11
551.787663
 21
689.511578
 31
0.0
  0
LINE
  5
425
100
AcDbEntity
  8
Heart
 62
7
100
AcDbLine
 10
551.787663
 20
689.511578
 30
0.0
 11
563.903379
 21
692.383668
 31
0.0
  0
LINE
  5
426
100
AcDbEntity
  8
Heart
 62
7
100
AcDbLine
 10
563.903379
 20
692.383668
 30
0.0
 11
576.844737
 21
694.891640
 31
0.0
  0
LINE
  5
427
100
AcDbEntity
  8
Heart
 62
7
100
AcDbLine
 10
576.844737
 20
694.891640
 30
0.0
 11
590.638894
 21
697.003972
 31
0.0
  0
LINE
  5
428
100
AcDbEntity
  8
Heart
 62
7
100
AcDbLine
 10
590.638894
 20
697.003972
 30
0.0
 11
605.313008
 21
698.689143
 31
0.0
  0
LINE
  5
429
100
AcDbEntity
  8
Heart
 62
7
100
AcDbLine
 10
605.313008
 20
698.689143
 30
0.0
 11
612.369322
 21
699.284180
 31
0.0
  0
LINE
  5
42a
100
AcDbEntity
  8
Heart
 62
7
100
AcDbLine
 10
612.369322
 20
699.284180
 30
0.0
 11
619.351751
 21
699.699745
 31
0.0
  0
LINE
  5
42b
100
AcDbEntity
  8
Heart
 62
7
100
AcDbLine
 10
619.351751
 20
699.699745
 30
0.0
 11
626.258054
 21
699.937195
 31
0.0
  0
LINE
  5
42c
100
AcDbEntity
  8
Heart
 62
7
100
AcDbLine
 10
626.258054
 20
699.937195
 30
0.0
 11
633.085987
 21
699.997887
 31
0.0
  0
LINE
  5
42d
100
AcDbEntity
  8
Heart
 62
7
100
AcDbLine
 10
633.085987
 20
699.997887
 30
0.0
 11
639.833308
 21
699.883175
 31
0.0
  0
LINE
  5
42e
100
AcDbEntity
  8
Heart
 62
7
100
AcDbLine
 10
639.833308
 20
699.883175
 30
0.0
 11
646.497773
 21
699.594416
 31
0.0
  0
LINE
  5
42f
100
AcDbEntity
  8
Heart
 62
7
100
AcDbLine
 10
646.497773
 20
699.594416
 30
0.0
 11
653.077140
 21
699.132966
 31
0.0
  0
LINE
  5
430
100
AcDbEntity
  8
Heart
 62
7
100
AcDbLine
 10
653.077140
 20
699.132966
 30
0.0
 11
659.569166
 21
698.500182
 31
0.0
  0
LINE
  5
431
100
AcDbEntity
  8
Heart
 62
7
100
AcDbLine
 10
659.569166
 20
698.500182
 30
0.0
 11
665.971608
 21
697.697420
 31
0.0
  0
LINE
  5
432
100
AcDbEntity
  8
Heart
 62
7
100
AcDbLine
 10
665.971608
 20
697.697420
 30
0.0
 11
672.282224
 21
696.726035
 31
0.0
  0
LINE
  5
433
100
AcDbEntity
  8
Heart
 62
7
100
AcDbLine
 10
672.282224
 20
696.726035
 30
0.0
 11
678.498769
 21
695.587383
 31
0.0
  0
LINE
  5
434
100
AcDbEntity
  8
Heart
 62
7
100
AcDbLine
 10
678.498769
 20
695.587383
 30
0.0
 11
684.619003
 21
694.282822
 31
0.0
  0
LINE
  5
435
100
AcDbEntity
  8
Heart
 62
7
100
AcDbLine
 10
684.619003
 20
694.282822
 30
0.0
 11
690.640680
 21
692.813707
 31
0.0
  0
LINE
  5
436
100
AcDbEntity
  8
Heart
 62
7
100
AcDbLine
 10
690.640680
 20
692.813707
 30
0.0
 11
696.561560
 21
691.181393
 31
0.0
  0
LINE
  5
437
100
AcDbEntity
  8
Heart
 62
7
100
AcDbLine
 10
696.561560
 20
691.181393
 30
0.0
 11
702.379399
 21
689.387238
 31
0.0
  0
LINE
  5
438
100
AcDbEntity
  8
Heart
 62
7
100
AcDbLine
 10
702.379399
 20
689.387238
 30
0.0
 11
708.091954
 21
687.432597
 31
0.0
  0
LINE
  5
439
100
AcDbEntity
  8
Heart
 62
7
100
AcDbLine
 10
708.091954
 20
687.432597
 30
0.0
 11
713.696983
 21
685.318827
 31
0.0
  0
LINE
  5
43a
100
AcDbEntity
  8
Heart
 62
7
100
AcDbLine
 10
713.696983
 20
685.318827
 30
0.0
 11
719.192242
 21
683.047283
 31
0.0
  0
LINE
  5
43b
100
AcDbEntity
  8
Heart
 62
7
100
AcDbLine
 10
719.192242
 20
683.047283
 30
0.0
 11
724.575488
 21
680.619322
 31
0.0
  0
LINE
  5
43c
100
AcDbEntity
  8
Heart
 62
7
100
AcDbLine
 10
724.575488
 20
680.619322
 30
0.0
 11
729.844480
 21
678.036300
 31
0.0
  0
LINE
  5
43d
100
AcDbEntity
  8
Heart
 62
7
100
AcDbLine
 10
729.844480
 20
678.036300
 30
0.0
 11
734.996973
 21
675.299572
 31
0.0
  0
LINE
  5
43e
100
AcDbEntity
  8
Heart
 62
7
100
AcDbLine
 10
734.996973
 20
675.299572
 30
0.0
 11
740.030725
 21
672.410496
 31
0.0
  0
LINE
  5
43f
100
AcDbEntity
  8
Heart
 62
7
100
AcDbLine
 10
740.030725
 20
672.410496
 30
0.0
 11
744.943494
 21
669.370427
 31
0.0
  0
LINE
  5
440
100
AcDbEntity
  8
Heart
 62
7
100
AcDbLine
 10
744.943494
 20
669.370427
 30
0.0
 11
749.733037
 21
666.180721
 31
0.0
  0
LINE
  5
441
100
AcDbEntity
  8
Heart
 62
7
100
AcDbLine
 10
749.733037
 20
666.180721
 30
0.0
 11
754.397109
 21
662.842735
 31
0.0
  0
LINE
  5
442
100
AcDbEntity
  8
Heart
 62
7
100
AcDbLine
 10
754.397109
 20
662.842735
 30
0.0
 11
758.933470
 21
659.357824
 31
0.0
  0
LINE
  5
443
100
AcDbEntity
  8
Heart
 62
7
100
AcDbLine
 10
758.933470
 20
659.357824
 30
0.0
 11
763.339876
 21
655.727345
 31
0.0
  0
LINE
  5
444
100
AcDbEntity
  8
Heart
 62
7
100
AcDbLine
 10
763.339876
 20
655.727345
 30
0.0
 11
767.614083
 21
651.952653
 31
0.0
  0
LINE
  5
445
100
AcDbEntity
  8
Heart
 62
7
100
AcDbLine
 10
767.614083
 20
651.952653
 30
0.0
 11
771.753850
 21
648.035106
 31
0.0
  0
LINE
  5
446
100
AcDbEntity
  8
Heart
 62
7
100
AcDbLine
 10
771.753850
 20
648.035106
 30
0.0
 11
775.756934
 21
643.976058
 31
0.0
  0
LINE
  5
447
100
AcDbEntity
  8
Heart
 62
7
100
AcDbLine
 10
775.756934
 20
643.976058
 30
0.0
 11
779.621090
 21
639.776867
 31
0.0
  0
LINE
  5
448
100
AcDbEntity
  8
Heart
 62
7
100
AcDbLine
 10
779.621090
 20
639.776867
 30
0.0
 11
783.344078
 21
635.438888
 31
0.0
  0
LINE
  5
449
100
AcDbEntity
  8
Heart
 62
7
100
AcDbLine
 10
783.344078
 20
635.438888
 30
0.0
 11
786.923653
 21
630.963477
 31
0.0
  0
LINE
  5
44a
100
AcDbEntity
  8
Heart
 62
7
100
AcDbLine
 10
786.923653
 20
630.963477
 30
0.0
 11
790.357574
 21
626.351991
 31
0.0
  0
LINE
  5
44b
100
AcDbEntity
  8
Heart
 62
7
100
AcDbLine
 10
790.357574
 20
626.351991
 30
0.0
 11
793.643597
 21
621.605785
 31
0.0
  0
LINE
  5
44c
100
AcDbEntity
  8
Heart
 62
7
100
AcDbLine
 10
793.643597
 20
621.605785
 30
0.0
 11
796.779479
 21
616.726216
 31
0.0
  0
LINE
  5
44d
100
AcDbEntity
  8
Heart
 62
7
100
AcDbLine
 10
796.779479
 20
616.726216
 30
0.0
 11
799.762977
 21
611.714640
 31
0.0
  0
LINE
  5
44e
100
AcDbEntity
  8
Heart
 62
7
100
AcDbLine
 10
799.762977
 20
611.714640
 30
0.0
 11
802.591849
 21
606.572413
 31
0.0
  0
LINE
  5
44f
100
AcDbEntity
  8
Heart
 62
7
100
AcDbLine
 10
802.591849
 20
606.572413
 30
0.0
 11
805.263852
 21
601.300892
 31
0.0
  0
LINE
  5
450
100
AcDbEntity
  8
Heart
 62
7
100
AcDbLine
 10
805.263852
 20
601.300892
 30
0.0
 11
807.776743
 21
595.901431
 31
0.0
  0
LINE
  5
451
100
AcDbEntity
  8
Heart
 62
7
100
AcDbLine
 10
807.776743
 20
595.901431
 30
0.0
 11
810.128279
 21
590.375387
 31
0.0
  0
LINE
  5
452
100
AcDbEntity
  8
Heart
 62
7
100
AcDbLine
 10
810.128279
 20
590.375387
 30
0.0
 11
812.316218
 21
584.724118
 31
0.0
  0
LINE
  5
453
100
AcDbEntity
  8
Heart
 62
7
100
AcDbLine
 10
812.316218
 20
584.724118
 30
0.0
 11
814.338315
 21
578.948977
 31
0.0
  0
LINE
  5
454
100
AcDbEntity
  8
Heart
 62
7
100
AcDbLine
 10
814.338315
 20
578.948977
 30
0.0
 11
816.192330
 21
573.051323
 31
0.0
  0
LINE
  5
455
100
AcDbEntity
  8
Heart
 62
7
100
AcDbLine
 10
816.192330
 20
573.051323
 30
0.0
 11
817.876018
 21
567.032510
 31
0.0
  0
LINE
  5
456
100
AcDbEntity
  8
Heart
 62
7
100
AcDbLine
 10
817.876018
 20
567.032510
 30
0.0
 11
819.387137
 21
560.893895
 31
0.0
  0
LINE
  5
457
100
AcDbEntity
  8
Heart
 62
7
100
AcDbLine
 10
819.387137
 20
560.893895
 30
0.0
 11
820.723444
 21
554.636834
 31
0.0
  0
LINE
  5
458
100
AcDbEntity
  8
Heart
 62
7
100
AcDbLine
 10
820.723444
 20
554.636834
 30
0.0
 11
821.882697
 21
548.262684
 31
0.0
  0
LINE
  5
459
100
AcDbEntity
  8
Heart
 62
7
100
AcDbLine
 10
821.882697
 20
548.262684
 30
0.0
 11
822.862652
 21
541.772799
 31
0.0
  0
LINE
  5
45a
100
AcDbEntity
  8
Heart
 62
7
100
AcDbLine
 10
822.862652
 20
541.772799
 30
0.0
 11
823.661066
 21
535.168537
 31
0.0
  0
LINE
  5
45b
100
AcDbEntity
  8
Heart
 62
7
100
AcDbLine
 10
823.661066
 20
535.168537
 30
0.0
 11
824.275697
 21
528.451254
 31
0.0
  0
LINE
  5
45c
100
AcDbEntity
  8
Heart
 62
7
100
AcDbLine
 10
824.275697
 20
528.451254
 30
0.0
 11
824.704302
 21
521.622305
 31
0.0
  0
LINE
  5
45d
100
AcDbEntity
  8
Heart
 62
7
100
AcDbLine
 10
824.704302
 20
521.622305
 30
0.0
 11
824.944638
 21
514.683048
 31
0.0
  0
LINE
  5
45e
100
AcDbEntity
  8
Heart
 62
7
100
AcDbLine
 10
824.944638
 20
514.683048
 30
0.0
 11
824.994462
 21
507.634837
 31
0.0
  0
LINE
  5
45f
100
AcDbEntity
  8
Heart
 62
7
100
AcDbLine
 10
824.994462
 20
507.634837
 30
0.0
 11
824.851531
 21
500.479029
 31
0.0
  0
LINE
  5
460
100
AcDbEntity
  8
Heart
 62
7
100
AcDbLine
 10
824.851531
 20
500.479029
 30
0.0
 11
824.513603
 21
493.216980
 31
0.0
  0
LINE
  5
461
100
AcDbEntity
  8
Heart
 62
7
100
AcDbLine
 10
824.513603
 20
493.216980
 30
0.0
 11
823.978435
 21
485.850046
 31
0.0
  0
LINE
  5
462
100
AcDbEntity
  8
Heart
 62
7
100
AcDbLine
 10
823.978435
 20
485.850046
 30
0.0
 11
823.243784
 21
478.379584
 31
0.0
  0
LINE
  5
463
100
AcDbEntity
  8
Heart
 62
7
100
AcDbLine
 10
823.243784
 20
478.379584
 30
0.0
 11
822.307406
 21
470.806949
 31
0.0
  0
LINE
  5
464
100
AcDbEntity
  8
Heart
 62
7
100
AcDbLine
 10
822.307406
 20
470.806949
 30
0.0
 11
821.167059
 21
463.133498
 31
0.0
  0
LINE
  5
465
100
AcDbEntity
  8
Heart
 62
7
100
AcDbLine
 10
821.167059
 20
463.133498
 30
0.0
 11
819.820501
 21
455.360587
 31
0.0
  0
LINE
  5
466
100
AcDbEntity
  8
Heart
 62
7
100
AcDbLine
 10
819.820501
 20
455.360587
 30
0.0
 11
818.265489
 21
447.489572
 31
0.0
  0
LINE
  5
467
100
AcDbEntity
  8
Heart
 62
7
100
AcDbLine
 10
818.265489
 20
447.489572
 30
0.0
 11
816.499778
 21
439.521808
 31
0.0
  0
LINE
  5
468
100
AcDbEntity
  8
Heart
 62
7
100
AcDbLine
 10
816.499778
 20
439.521808
 30
0.0
 11
814.521128
 21
431.458653
 31
0.0
  0
LINE
  5
469
100
AcDbEntity
  8
Heart
 62
7
100
AcDbLine
 10
814.521128
 20
431.458653
 30
0.0
 11
812.250948
 21
423.417639
 31
0.0
  0
LINE
  5
46a
100
AcDbEntity
  8
Heart
 62
7
100
AcDbLine
 10
812.250948
 20
423.417639
 30
0.0
 11
809.571531
 21
415.324383
 31
0.0
  0
LINE
  5
46b
100
AcDbEntity
  8
Heart
 62
7
100
AcDbLine
 10
809.571531
 20
415.324383
 30
0.0
 11
806.497118
 21
407.184609
 31
0.0
  0
LINE
  5
46c
100
AcDbEntity
  8
Heart
 62
7
100
AcDbLine
 10
806.497118
 20
407.184609
 30
0.0
 11
803.041948
 21
399.004042
 31
0.0
  0
LINE
  5
46d
100
AcDbEntity
  8
Heart
 62
7
100
AcDbLine
 10
803.041948
 20
399.004042
 30
0.0
 11
799.220263
 21
390.788404
 31
0.0
  0
LINE
  5
46e
100
AcDbEntity
  8
Heart
 62
7
100
AcDbLine
 10
799.220263
 20
390.788404
 30
0.0
 11
795.046300
 21
382.543422
 31
0.0
  0
LINE
  5
46f
100
AcDbEntity
  8
Heart
 62
7
100
AcDbLine
 10
795.046300
 20
382.543422
 30
0.0
 11
790.534301
 21
374.274818
 31
0.0
  0
LINE
  5
470
100
AcDbEntity
  8
Heart
 62
7
100
AcDbLine
 10
790.534301
 20
374.274818
 30
0.0
 11
785.698505
 21
365.988316
 31
0.0
  0
LINE
  5
471
100
AcDbEntity
  8
Heart
 62
7
100
AcDbLine
 10
785.698505
 20
365.988316
 30
0.0
 11
780.553152
 21
357.689640
 31
0.0
  0
LINE
  5
472
100
AcDbEntity
  8
Heart
 62
7
100
AcDbLine
 10
780.553152
 20
357.689640
 30
0.0
 11
775.112481
 21
349.384515
 31
0.0
  0
LINE
  5
473
100
AcDbEntity
  8
Heart
 62
7
100
AcDbLine
 10
775.112481
 20
349.384515
 30
0.0
 11
769.390734
 21
341.078665
 31
0.0
  0
LINE
  5
474
100
AcDbEntity
  8
Heart
 62
7
100
AcDbLine
 10
769.390734
 20
341.078665
 30
0.0
 11
763.402149
 21
332.777813
 31
0.0
  0
LINE
  5
475
100
AcDbEntity
  8
Heart
 62
7
100
AcDbLine
 10
763.402149
 20
332.777813
 30
0.0
 11
757.160967
 21
324.487683
 31
0.0
  0
LINE
  5
476
100
AcDbEntity
  8
Heart
 62
7
100
AcDbLine
 10
757.160967
 20
324.487683
 30
0.0
 11
750.681427
 21
316.214000
 31
0.0
  0
LINE
  5
477
100
AcDbEntity
  8
Heart
 62
7
100
AcDbLine
 10
750.681427
 20
316.214000
 30
0.0
 11
743.977770
 21
307.962488
 31
0.0
  0
LINE
  5
478
100
AcDbEntity
  8
Heart
 62
7
100
AcDbLine
 10
743.977770
 20
307.962488
 30
0.0
 11
737.064234
 21
299.738870
 31
0.0
  0
LINE
  5
479
100
AcDbEntity
  8
Heart
 62
7
100
AcDbLine
 10
737.064234
 20
299.738870
 30
0.0
 11
729.955061
 21
291.548870
 31
0.0
  0
LINE
  5
47a
100
AcDbEntity
  8
Heart
 62
7
100
AcDbLine
 10
729.955061
 20
291.548870
 30
0.0
 11
722.664490
 21
283.398214
 31
0.0
  0
LINE
  5
47b
100
AcDbEntity
  8
Heart
 62
7
100
AcDbLine
 10
722.664490
 20
283.398214
 30
0.0
 11
707.596113
 21
267.237824
 31
0.0
  0
LINE
  5
47c
100
AcDbEntity
  8
Heart
 62
7
100
AcDbLine
 10
707.596113
 20
267.237824
 30
0.0
 11
691.973023
 21
251.303493
 31
0.0
  0
LINE
  5
47d
100
AcDbEntity
  8
Heart
 62
7
100
AcDbLine
 10
691.973023
 20
251.303493
 30
0.0
 11
675.909138
 21
235.641013
 31
0.0
  0
LINE
  5
47e
100
AcDbEntity
  8
Heart
 62
7
100
AcDbLine
 10
675.909138
 20
235.641013
 30
0.0
 11
659.518378
 21
220.296176
 31
0.0
  0
LINE
  5
47f
100
AcDbEntity
  8
Heart
 62
7
100
AcDbLine
 10
659.518378
 20
220.296176
 30
0.0
 11
642.914662
 21
205.314774
 31
0.0
  0
LINE
  5
480
100
AcDbEntity
  8
Heart
 62
7
100
AcDbLine
 10
642.914662
 20
205.314774
 30
0.0
 11
626.211908
 21
190.742600
 31
0.0
  0
LINE
  5
481
100
AcDbEntity
  8
Heart
 62
7
100
AcDbLine
 10
626.211908
 20
190.742600
 30
0.0
 11
609.524037
 21
176.625444
 31
0.0
  0
LINE
  5
482
100
AcDbEntity
  8
Heart
 62
7
100
AcDbLine
 10
609.524037
 20
176.625444
 30
0.0
 11
592.964966
 21
163.009101
 31
0.0
  0
LINE
  5
483
100
AcDbEntity
  8
Heart
 62
7
100
AcDbLine
 10
592.964966
 20
163.009101
 30
0.0
 11
576.648616
 21
149.939361
 31
0.0
  0
LINE
  5
484
100
AcDbEntity
  8
Heart
 62
7
100
AcDbLine
 10
576.648616
 20
149.939361
 30
0.0
 11
560.688904
 21
137.462017
 31
0.0
  0
LINE
  5
485
100
AcDbEntity
  8
Heart
 62
7
100
AcDbLine
 10
560.688904
 20
137.462017
 30
0.0
 11
545.199751
 21
125.622861
 31
0.0
  0
LINE
  5
486
100
AcDbEntity
  8
Heart
 62
7
100
AcDbLine
 10
545.199751
 20
125.622861
 30
0.0
 11
530.295075
 21
114.467685
 31
0.0
  0
LINE
  5
487
100
AcDbEntity
  8
Heart
 62
7
100
AcDbLine
 10
530.295075
 20
114.467685
 30
0.0
 11
516.088796
 21
104.042282
 31
0.0
  0
LINE
  5
488
100
AcDbEntity
  8
Heart
 62
7
100
AcDbLine
 10
516.088796
 20
104.042282
 30
0.0
 11
490.227102
 21
85.563961
 31
0.0
  0
LINE
  5
489
100
AcDbEntity
  8
Heart
 62
7
100
AcDbLine
 10
490.227102
 20
85.563961
 30
0.0
 11
468.526023
 21
70.554235
 31
0.0
  0
LINE
  5
48a
100
AcDbEntity
  8
Heart
 62
7
100
AcDbLine
 10
468.526023
 20
70.554235
 30
0.0
 11
451.896911
 21
59.379442
 31
0.0
  0
LINE
  5
48b
100
AcDbEntity
  8
Heart
 62
7
100
AcDbLine
 10
451.896911
 20
59.379442
 30
0.0
 11
437.499998
 21
50.000003
 31
0.0
  0
LINE
  5
48c
100
AcDbEntity
  8
Heart
 62
7
100
AcDbLine
 10
437.499998
 20
50.000003
 30
0.0
 11
423.103086
 21
59.379442
 31
0.0
  0
LINE
  5
48d
100
AcDbEntity
  8
Heart
 62
7
100
AcDbLine
 10
423.103086
 20
59.379442
 30
0.0
 11
406.473974
 21
70.554235
 31
0.0
  0
LINE
  5
48e
100
AcDbEntity
  8
Heart
 62
7
100
AcDbLine
 10
406.473974
 20
70.554235
 30
0.0
 11
384.772895
 21
85.563961
 31
0.0
  0
LINE
  5
48f
100
AcDbEntity
  8
Heart
 62
7
100
AcDbLine
 10
384.772895
 20
85.563961
 30
0.0
 11
358.911202
 21
104.042282
 31
0.0
  0
LINE
  5
490
100
AcDbEntity
  8
Heart
 62
7
100
AcDbLine
 10
358.911202
 20
104.042282
 30
0.0
 11
344.704923
 21
114.467685
 31
0.0
  0
LINE
  5
491
100
AcDbEntity
  8
Heart
 62
7
100
AcDbLine
 10
344.704923
 20
114.467685
 30
0.0
 11
329.800248
 21
125.622861
 31
0.0
  0
LINE
  5
492
100
AcDbEntity
  8
Heart
 62
7
100
AcDbLine
 10
329.800248
 20
125.622861
 30
0.0
 11
314.311095
 21
137.462017
 31
0.0
  0
LINE
  5
493
100
AcDbEntity
  8
Heart
 62
7
100
AcDbLine
 10
314.311095
 20
137.462017
 30
0.0
 11
298.351384
 21
149.939361
 31
0.0
  0
LINE
  5
494
100
AcDbEntity
  8
Heart
 62
7
100
AcDbLine
 10
298.351384
 20
149.939361
 30
0.0
 11
282.035034
 21
163.009101
 31
0.0
  0
LINE
  5
495
100
AcDbEntity
  8
Heart
 62
7
100
AcDbLine
 10
282.035034
 20
163.009101
 30
0.0
 11
265.475964
 21
176.625444
 31
0.0
  0
LINE
  5
496
100
AcDbEntity
  8
Heart
 62
7
100
AcDbLine
 10
265.475964
 20
176.625444
 30
0.0
 11
248.788093
 21
190.742600
 31
0.0
  0
LINE
  5
497
100
AcDbEntity
  8
Heart
 62
7
100
AcDbLine
 10
248.788093
 20
190.742600
 30
0.0
 11
232.085340
 21
205.314774
 31
0.0
  0
LINE
  5
498
100
AcDbEntity
  8
Heart
 62
7
100
AcDbLine
 10
232.085340
 20
205.314774
 30
0.0
 11
215.481624
 21
220.296176
 31
0.0
  0
LINE
  5
499
100
AcDbEntity
  8
Heart
 62
7
100
AcDbLine
 10
215.481624
 20
220.296176
 30
0.0
 11
199.090864
 21
235.641013
 31
0.0
  0
LINE
  5
49a
100
AcDbEntity
  8
Heart
 62
7
100
AcDbLine
 10
199.090864
 20
235.641013
 30
0.0
 11
183.026980
 21
251.303493
 31
0.0
  0
LINE
  5
49b
100
AcDbEntity
  8
Heart
 62
7
100
AcDbLine
 10
183.026980
 20
251.303493
 30
0.0
 11
167.403890
 21
267.237824
 31
0.0
  0
LINE
  5
49c
100
AcDbEntity
  8
Heart
 62
7
100
AcDbLine
 10
167.403890
 20
267.237824
 30
0.0
 11
152.335513
 21
283.398214
 31
0.0
  0
LINE
  5
49d
100
AcDbEntity
  8
Heart
 62
7
100
AcDbLine
 10
152.335513
 20
283.398214
 30
0.0
 11
145.044942
 21
291.548870
 31
0.0
  0
LINE
  5
49e
100
AcDbEntity
  8
Heart
 62
7
100
AcDbLine
 10
145.044942
 20
291.548870
 30
0.0
 11
137.935769
 21
299.738870
 31
0.0
  0
LINE
  5
49f
100
AcDbEntity
  8
Heart
 62
7
100
AcDbLine
 10
137.935769
 20
299.738870
 30
0.0
 11
131.022234
 21
307.962488
 31
0.0
  0
LINE
  5
4a0
100
AcDbEntity
  8
Heart
 62
7
100
AcDbLine
 10
131.022234
 20
307.962488
 30
0.0
 11
124.318577
 21
316.214000
 31
0.0
  0
LINE
  5
4a1
100
AcDbEntity
  8
Heart
 62
7
100
AcDbLine
 10
124.318577
 20
316.214000
 30
0.0
 11
117.839037
 21
324.487683
 31
0.0
  0
LINE
  5
4a2
100
AcDbEntity
  8
Heart
 62
7
100
AcDbLine
 10
117.839037
 20
324.487683
 30
0.0
 11
111.597855
 21
332.777813
 31
0.0
  0
LINE
  5
4a3
100
AcDbEntity
  8
Heart
 62
7
100
AcDbLine
 10
111.597855
 20
332.777813
 30
0.0
 11
105.609270
 21
341.078665
 31
0.0
  0
LINE
  5
4a4
100
AcDbEntity
  8
Heart
 62
7
100
AcDbLine
 10
105.609270
 20
341.078665
 30
0.0
 11
99.887523
 21
349.384515
 31
0.0
  0
LINE
  5
4a5
100
AcDbEntity
  8
Heart
 62
7
100
AcDbLine
 10
99.887523
 20
349.384515
 30
0.0
 11
94.446853
 21
357.689640
 31
0.0
  0
LINE
  5
4a6
100
AcDbEntity
  8
Heart
 62
7
100
AcDbLine
 10
94.446853
 20
357.689640
 30
0.0
 11
89.301500
 21
365.988316
 31
0.0
  0
LINE
  5
4a7
100
AcDbEntity
  8
Heart
 62
7
100
AcDbLine
 10
89.301500
 20
365.988316
 30
0.0
 11
84.465703
 21
374.274818
 31
0.0
  0
LINE
  5
4a8
100
AcDbEntity
  8
Heart
 62
7
100
AcDbLine
 10
84.465703
 20
374.274818
 30
0.0
 11
79.953704
 21
382.543422
 31
0.0
  0
LINE
  5
4a9
100
AcDbEntity
  8
Heart
 62
7
100
AcDbLine
 10
79.953704
 20
382.543422
 30
0.0
 11
75.779742
 21
390.788404
 31
0.0
  0
LINE
  5
4aa
100
AcDbEntity
  8
Heart
 62
7
100
AcDbLine
 10
75.779742
 20
390.788404
 30
0.0
 11
71.958056
 21
399.004042
 31
0.0
  0
LINE
  5
4ab
100
AcDbEntity
  8
Heart
 62
7
100
AcDbLine
 10
71.958056
 20
399.004042
 30
0.0
 11
68.502886
 21
407.184609
 31
0.0
  0
LINE
  5
4ac
100
AcDbEntity
  8
Heart
 62
7
100
AcDbLine
 10
68.502886
 20
407.184609
 30
0.0
 11
65.428473
 21
415.324383
 31
0.0
  0
LINE
  5
4ad
100
AcDbEntity
  8
Heart
 62
7
100
AcDbLine
 10
65.428473
 20
415.324383
 30
0.0
 11
62.749057
 21
423.417639
 31
0.0
  0
LINE
  5
4ae
100
AcDbEntity
  8
Heart
 62
7
100
AcDbLine
 10
62.749057
 20
423.417639
 30
0.0
 11
60.478876
 21
431.458653
 31
0.0
  0
LINE
  5
4af
100
AcDbEntity
  8
Heart
 62
7
100
AcDbLine
 10
60.478876
 20
431.458653
 30
0.0
 11
60.478876
 21
431.458653
 31
0.0
  0
LINE
  5
4b0
100
AcDbEntity
  8
Face
 62
7
100
AcDbLine
 10
339.699461
 20
257.763129
 30
0.0
 11
324.881606
 21
257.952809
 31
0.0
  0
LINE
  5
4b1
100
AcDbEntity
  8
Face
 62
7
100
AcDbLine
 10
324.881606
 20
257.952809
 30
0.0
 11
310.799191
 21
258.515742
 31
0.0
  0
LINE
  5
4b2
100
AcDbEntity
  8
Face
 62
7
100
AcDbLine
 10
310.799191
 20
258.515742
 30
0.0
 11
297.434836
 21
259.442769
 31
0.0
  0
LINE
  5
4b3
100
AcDbEntity
  8
Face
 62
7
100
AcDbLine
 10
297.434836
 20
259.442769
 30
0.0
 11
284.771159
 21
260.724731
 31
0.0
  0
LINE
  5
4b4
100
AcDbEntity
  8
Face
 62
7
100
AcDbLine
 10
284.771159
 20
260.724731
 30
0.0
 11
272.790781
 21
262.352468
 31
0.0
  0
LINE
  5
4b5
100
AcDbEntity
  8
Face
 62
7
100
AcDbLine
 10
272.790781
 20
262.352468
 30
0.0
 11
261.476321
 21
264.316822
 31
0.0
  0
LINE
  5
4b6
100
AcDbEntity
  8
Face
 62
7
100
AcDbLine
 10
261.476321
 20
264.316822
 30
0.0
 11
250.810398
 21
266.608633
 31
0.0
  0
LINE
  5
4b7
100
AcDbEntity
  8
Face
 62
7
100
AcDbLine
 10
250.810398
 20
266.608633
 30
0.0
 11
240.775631
 21
269.218742
 31
0.0
  0
LINE
  5
4b8
100
AcDbEntity
  8
Face
 62
7
100
AcDbLine
 10
240.775631
 20
269.218742
 30
0.0
 11
231.354640
 21
272.137990
 31
0.0
  0
LINE
  5
4b9
100
AcDbEntity
  8
Face
 62
7
100
AcDbLine
 10
231.354640
 20
272.137990
 30
0.0
 11
222.530043
 21
275.357217
 31
0.0
  0
LINE
  5
4ba
100
AcDbEntity
  8
Face
 62
7
100
AcDbLine
 10
222.530043
 20
275.357217
 30
0.0
 11
214.284461
 21
278.867264
 31
0.0
  0
LINE
  5
4bb
100
AcDbEntity
  8
Face
 62
7
100
AcDbLine
 10
214.284461
 20
278.867264
 30
0.0
 11
206.600513
 21
282.658972
 31
0.0
  0
LINE
  5
4bc
100
AcDbEntity
  8
Face
 62
7
100
AcDbLine
 10
206.600513
 20
282.658972
 30
0.0
 11
199.460817
 21
286.723182
 31
0.0
  0
LINE
  5
4bd
100
AcDbEntity
  8
Face
 62
7
100
AcDbLine
 10
199.460817
 20
286.723182
 30
0.0
 11
192.847994
 21
291.050735
 31
0.0
  0
LINE
  5
4be
100
AcDbEntity
  8
Face
 62
7
100
AcDbLine
 10
192.847994
 20
291.050735
 30
0.0
 11
186.744662
 21
295.632470
 31
0.0
  0
LINE
  5
4bf
100
AcDbEntity
  8
Face
 62
7
100
AcDbLine
 10
186.744662
 20
295.632470
 30
0.0
 11
181.133441
 21
300.459230
 31
0.0
  0
LINE
  5
4c0
100
AcDbEntity
  8
Face
 62
7
100
AcDbLine
 10
181.133441
 20
300.459230
 30
0.0
 11
175.996950
 21
305.521855
 31
0.0
  0
LINE
  5
4c1
100
AcDbEntity
  8
Face
 62
7
100
AcDbLine
 10
175.996950
 20
305.521855
 30
0.0
 11
171.317809
 21
310.811185
 31
0.0
  0
LINE
  5
4c2
100
AcDbEntity
  8
Face
 62
7
100
AcDbLine
 10
171.317809
 20
310.811185
 30
0.0
 11
167.078637
 21
316.318062
 31
0.0
  0
LINE
  5
4c3
100
AcDbEntity
  8
Face
 62
7
100
AcDbLine
 10
167.078637
 20
316.318062
 30
0.0
 11
163.262052
 21
322.033326
 31
0.0
  0
LINE
  5
4c4
100
AcDbEntity
  8
Face
 62
7
100
AcDbLine
 10
163.262052
 20
322.033326
 30
0.0
 11
159.850676
 21
327.947818
 31
0.0
  0
LINE
  5
4c5
100
AcDbEntity
  8
Face
 62
7
100
AcDbLine
 10
159.850676
 20
327.947818
 30
0.0
 11
156.827126
 21
334.052378
 31
0.0
  0
LINE
  5
4c6
100
AcDbEntity
  8
Face
 62
7
100
AcDbLine
 10
156.827126
 20
334.052378
 30
0.0
 11
154.174022
 21
340.337848
 31
0.0
  0
LINE
  5
4c7
100
AcDbEntity
  8
Face
 62
7
100
AcDbLine
 10
154.174022
 20
340.337848
 30
0.0
 11
151.873984
 21
346.795068
 31
0.0
  0
LINE
  5
4c8
100
AcDbEntity
  8
Face
 62
7
100
AcDbLine
 10
151.873984
 20
346.795068
 30
0.0
 11
149.909630
 21
353.414879
 31
0.0
  0
LINE
  5
4c9
100
AcDbEntity
  8
Face
 62
7
100
AcDbLine
 10
149.909630
 20
353.414879
 30
0.0
 11
148.263580
 21
360.188122
 31
0.0
  0
LINE
  5
4ca
100
AcDbEntity
  8
Face
 62
7
100
AcDbLine
 10
148.263580
 20
360.188122
 30
0.0
 11
146.918454
 21
367.105637
 31
0.0
  0
LINE
  5
4cb
100
AcDbEntity
  8
Face
 62
7
100
AcDbLine
 10
146.918454
 20
367.105637
 30
0.0
 11
145.856871
 21
374.158266
 31
0.0
  0
LINE
  5
4cc
100
AcDbEntity
  8
Face
 62
7
100
AcDbLine
 10
145.856871
 20
374.158266
 30
0.0
 11
145.061450
 21
381.336849
 31
0.0
  0
LINE
  5
4cd
100
AcDbEntity
  8
Face
 62
7
100
AcDbLine
 10
145.061450
 20
381.336849
 30
0.0
 11
144.514810
 21
388.632226
 31
0.0
  0
LINE
  5
4ce
100
AcDbEntity
  8
Face
 62
7
100
AcDbLine
 10
144.514810
 20
388.632226
 30
0.0
 11
144.199570
 21
396.035239
 31
0.0
  0
LINE
  5
4cf
100
AcDbEntity
  8
Face
 62
7
100
AcDbLine
 10
144.199570
 20
396.035239
 30
0.0
 11
144.098351
 21
403.536729
 31
0.0
  0
LINE
  5
4d0
100
AcDbEntity
  8
Face
 62
7
100
AcDbLine
 10
144.098351
 20
403.536729
 30
0.0
 11
144.194178
 21
407.308537
 31
0.0
  0
LINE
  5
4d1
100
AcDbEntity
  8
Face
 62
7
100
AcDbLine
 10
144.194178
 20
407.308537
 30
0.0
 11
144.480123
 21
411.075131
 31
0.0
  0
LINE
  5
4d2
100
AcDbEntity
  8
Face
 62
7
100
AcDbLine
 10
144.480123
 20
411.075131
 30
0.0
 11
144.953882
 21
414.834776
 31
0.0
  0
LINE
  5
4d3
100
AcDbEntity
  8
Face
 62
7
100
AcDbLine
 10
144.953882
 20
414.834776
 30
0.0
 11
145.613151
 21
418.585739
 31
0.0
  0
LINE
  5
4d4
100
AcDbEntity
  8
Face
 62
7
100
AcDbLine
 10
145.613151
 20
418.585739
 30
0.0
 11
146.455624
 21
422.326286
 31
0.0
  0
LINE
  5
4d5
100
AcDbEntity
  8
Face
 62
7
100
AcDbLine
 10
146.455624
 20
422.326286
 30
0.0
 11
147.478998
 21
426.054682
 31
0.0
  0
LINE
  5
4d6
100
AcDbEntity
  8
Face
 62
7
100
AcDbLine
 10
147.478998
 20
426.054682
 30
0.0
 11
148.680968
 21
429.769195
 31
0.0
  0
LINE
  5
4d7
100
AcDbEntity
  8
Face
 62
7
100
AcDbLine
 10
148.680968
 20
429.769195
 30
0.0
 11
150.059230
 21
433.468089
 31
0.0
  0
LINE
  5
4d8
100
AcDbEntity
  8
Face
 62
7
100
AcDbLine
 10
150.059230
 20
433.468089
 30
0.0
 11
151.611479
 21
437.149632
 31
0.0
  0
LINE
  5
4d9
100
AcDbEntity
  8
Face
 62
7
100
AcDbLine
 10
151.611479
 20
437.149632
 30
0.0
 11
153.335411
 21
440.812088
 31
0.0
  0
LINE
  5
4da
100
AcDbEntity
  8
Face
 62
7
100
AcDbLine
 10
153.335411
 20
440.812088
 30
0.0
 11
155.228723
 21
444.453725
 31
0.0
  0
LINE
  5
4db
100
AcDbEntity
  8
Face
 62
7
100
AcDbLine
 10
155.228723
 20
444.453725
 30
0.0
 11
157.289108
 21
448.072808
 31
0.0
  0
LINE
  5
4dc
100
AcDbEntity
  8
Face
 62
7
100
AcDbLine
 10
157.289108
 20
448.072808
 30
0.0
 11
159.514264
 21
451.667603
 31
0.0
  0
LINE
  5
4dd
100
AcDbEntity
  8
Face
 62
7
100
AcDbLine
 10
159.514264
 20
451.667603
 30
0.0
 11
161.901885
 21
455.236377
 31
0.0
  0
LINE
  5
4de
100
AcDbEntity
  8
Face
 62
7
100
AcDbLine
 10
161.901885
 20
455.236377
 30
0.0
 11
167.155307
 21
462.288924
 31
0.0
  0
LINE
  5
4df
100
AcDbEntity
  8
Face
 62
7
100
AcDbLine
 10
167.155307
 20
462.288924
 30
0.0
 11
173.030938
 21
469.216578
 31
0.0
  0
LINE
  5
4e0
100
AcDbEntity
  8
Face
 62
7
100
AcDbLine
 10
173.030938
 20
469.216578
 30
0.0
 11
179.510345
 21
476.005467
 31
0.0
  0
LINE
  5
4e1
100
AcDbEntity
  8
Face
 62
7
100
AcDbLine
 10
179.510345
 20
476.005467
 30
0.0
 11
186.575092
 21
482.641720
 31
0.0
  0
LINE
  5
4e2
100
AcDbEntity
  8
Face
 62
7
100
AcDbLine
 10
186.575092
 20
482.641720
 30
0.0
 11
194.206744
 21
489.111464
 31
0.0
  0
LINE
  5
4e3
100
AcDbEntity
  8
Face
 62
7
100
AcDbLine
 10
194.206744
 20
489.111464
 30
0.0
 11
202.386866
 21
495.400830
 31
0.0
  0
LINE
  5
4e4
100
AcDbEntity
  8
Face
 62
7
100
AcDbLine
 10
202.386866
 20
495.400830
 30
0.0
 11
211.097023
 21
501.495945
 31
0.0
  0
LINE
  5
4e5
100
AcDbEntity
  8
Face
 62
7
100
AcDbLine
 10
211.097023
 20
501.495945
 30
0.0
 11
220.318781
 21
507.382938
 31
0.0
  0
LINE
  5
4e6
100
AcDbEntity
  8
Face
 62
7
100
AcDbLine
 10
220.318781
 20
507.382938
 30
0.0
 11
230.033704
 21
513.047938
 31
0.0
  0
LINE
  5
4e7
100
AcDbEntity
  8
Face
 62
7
100
AcDbLine
 10
230.033704
 20
513.047938
 30
0.0
 11
240.223356
 21
518.477073
 31
0.0
  0
LINE
  5
4e8
100
AcDbEntity
  8
Face
 62
7
100
AcDbLine
 10
240.223356
 20
518.477073
 30
0.0
 11
250.869305
 21
523.656471
 31
0.0
  0
LINE
  5
4e9
100
AcDbEntity
  8
Face
 62
7
100
AcDbLine
 10
250.869305
 20
523.656471
 30
0.0
 11
261.953113
 21
528.572262
 31
0.0
  0
LINE
  5
4ea
100
AcDbEntity
  8
Face
 62
7
100
AcDbLine
 10
261.953113
 20
528.572262
 30
0.0
 11
273.456347
 21
533.210574
 31
0.0
  0
LINE
  5
4eb
100
AcDbEntity
  8
Face
 62
7
100
AcDbLine
 10
273.456347
 20
533.210574
 30
0.0
 11
285.360571
 21
537.557535
 31
0.0
  0
LINE
  5
4ec
100
AcDbEntity
  8
Face
 62
7
100
AcDbLine
 10
285.360571
 20
537.557535
 30
0.0
 11
297.647351
 21
541.599274
 31
0.0
  0
LINE
  5
4ed
100
AcDbEntity
  8
Face
 62
7
100
AcDbLine
 10
297.647351
 20
541.599274
 30
0.0
 11
310.298251
 21
545.321920
 31
0.0
  0
LINE
  5
4ee
100
AcDbEntity
  8
Face
 62
7
100
AcDbLine
 10
310.298251
 20
545.321920
 30
0.0
 11
323.294837
 21
548.711602
 31
0.0
  0
LINE
  5
4ef
100
AcDbEntity
  8
Face
 62
7
100
AcDbLine
 10
323.294837
 20
548.711602
 30
0.0
 11
336.618673
 21
551.754447
 31
0.0
  0
LINE
  5
4f0
100
AcDbEntity
  8
Face
 62
7
100
AcDbLine
 10
336.618673
 20
551.754447
 30
0.0
 11
350.251324
 21
554.436584
 31
0.0
  0
LINE
  5
4f1
100
AcDbEntity
  8
Face
 62
7
100
AcDbLine
 10
350.251324
 20
554.436584
 30
0.0
 11
364.174356
 21
556.744142
 31
0.0
  0
LINE
  5
4f2
100
AcDbEntity
  8
Face
 62
7
100
AcDbLine
 10
364.174356
 20
556.744142
 30
0.0
 11
378.369334
 21
558.663250
 31
0.0
  0
LINE
  5
4f3
100
AcDbEntity
  8
Face
 62
7
100
AcDbLine
 10
378.369334
 20
558.663250
 30
0.0
 11
392.817822
 21
560.180036
 31
0.0
  0
LINE
  5
4f4
100
AcDbEntity
  8
Face
 62
7
100
AcDbLine
 10
392.817822
 20
560.180036
 30
0.0
 11
407.501386
 21
561.280629
 31
0.0
  0
LINE
  5
4f5
100
AcDbEntity
  8
Face
 62
7
100
AcDbLine
 10
407.501386
 20
561.280629
 30
0.0
 11
422.401591
 21
561.951157
 31
0.0
  0
LINE
  5
4f6
100
AcDbEntity
  8
Face
 62
7
100
AcDbLine
 10
422.401591
 20
561.951157
 30
0.0
 11
437.500001
 21
562.177749
 31
0.0
  0
LINE
  5
4f7
100
AcDbEntity
  8
Face
 62
7
100
AcDbLine
 10
437.500001
 20
562.177749
 30
0.0
 11
452.598411
 21
561.951157
 31
0.0
  0
LINE
  5
4f8
100
AcDbEntity
  8
Face
 62
7
100
AcDbLine
 10
452.598411
 20
561.951157
 30
0.0
 11
467.498616
 21
561.280629
 31
0.0
  0
LINE
  5
4f9
100
AcDbEntity
  8
Face
 62
7
100
AcDbLine
 10
467.498616
 20
561.280629
 30
0.0
 11
482.182180
 21
560.180036
 31
0.0
  0
LINE
  5
4fa
100
AcDbEntity
  8
Face
 62
7
100
AcDbLine
 10
482.182180
 20
560.180036
 30
0.0
 11
496.630668
 21
558.663250
 31
0.0
  0
LINE
  5
4fb
100
AcDbEntity
  8
Face
 62
7
100
AcDbLine
 10
496.630668
 20
558.663250
 30
0.0
 11
510.825645
 21
556.744142
 31
0.0
  0
LINE
  5
4fc
100
AcDbEntity
  8
Face
 62
7
100
AcDbLine
 10
510.825645
 20
556.744142
 30
0.0
 11
524.748677
 21
554.436584
 31
0.0
  0
LINE
  5
4fd
100
AcDbEntity
  8
Face
 62
7
100
AcDbLine
 10
524.748677
 20
554.436584
 30
0.0
 11
538.381328
 21
551.754447
 31
0.0
  0
LINE
  5
4fe
100
AcDbEntity
  8
Face
 62
7
100
AcDbLine
 10
538.381328
 20
551.754447
 30
0.0
 11
551.705164
 21
548.711602
 31
0.0
  0
LINE
  5
4ff
100
AcDbEntity
  8
Face
 62
7
100
AcDbLine
 10
551.705164
 20
548.711602
 30
0.0
 11
564.701749
 21
545.321920
 31
0.0
  0
LINE
  5
500
100
AcDbEntity
  8
Face
 62
7
100
AcDbLine
 10
564.701749
 20
545.321920
 30
0.0
 11
577.352649
 21
541.599274
 31
0.0
  0
LINE
  5
501
100
AcDbEntity
  8
Face
 62
7
100
AcDbLine
 10
577.352649
 20
541.599274
 30
0.0
 11
589.639428
 21
537.557535
 31
0.0
  0
LINE
  5
502
100
AcDbEntity
  8
Face
 62
7
100
AcDbLine
 10
589.639428
 20
537.557535
 30
0.0
 11
601.543652
 21
533.210574
 31
0.0
  0
LINE
  5
503
100
AcDbEntity
  8
Face
 62
7
100
AcDbLine
 10
601.543652
 20
533.210574
 30
0.0
 11
613.046885
 21
528.572262
 31
0.0
  0
LINE
  5
504
100
AcDbEntity
  8
Face
 62
7
100
AcDbLine
 10
613.046885
 20
528.572262
 30
0.0
 11
624.130693
 21
523.656471
 31
0.0
  0
LINE
  5
505
100
AcDbEntity
  8
Face
 62
7
100
AcDbLine
 10
624.130693
 20
523.656471
 30
0.0
 11
634.776641
 21
518.477073
 31
0.0
  0
LINE
  5
506
100
AcDbEntity
  8
Face
 62
7
100
AcDbLine
 10
634.776641
 20
518.477073
 30
0.0
 11
644.966294
 21
513.047938
 31
0.0
  0
LINE
  5
507
100
AcDbEntity
  8
Face
 62
7
100
AcDbLine
 10
644.966294
 20
513.047938
 30
0.0
 11
654.681216
 21
507.382938
 31
0.0
  0
LINE
  5
508
100
AcDbEntity
  8
Face
 62
7
100
AcDbLine
 10
654.681216
 20
507.382938
 30
0.0
 11
663.902973
 21
501.495945
 31
0.0
  0
LINE
  5
509
100
AcDbEntity
  8
Face
 62
7
100
AcDbLine
 10
663.902973
 20
501.495945
 30
0.0
 11
672.613130
 21
495.400830
 31
0.0
  0
LINE
  5
50a
100
AcDbEntity
  8
Face
 62
7
100
AcDbLine
 10
672.613130
 20
495.400830
 30
0.0
 11
680.793251
 21
489.111464
 31
0.0
  0
LINE
  5
50b
100
AcDbEntity
  8
Face
 62
7
100
AcDbLine
 10
680.793251
 20
489.111464
 30
0.0
 11
688.424903
 21
482.641720
 31
0.0
  0
LINE
  5
50c
100
AcDbEntity
  8
Face
 62
7
100
AcDbLine
 10
688.424903
 20
482.641720
 30
0.0
 11
695.489649
 21
476.005467
 31
0.0
  0
LINE
  5
50d
100
AcDbEntity
  8
Face
 62
7
100
AcDbLine
 10
695.489649
 20
476.005467
 30
0.0
 11
701.969056
 21
469.216578
 31
0.0
  0
LINE
  5
50e
100
AcDbEntity
  8
Face
 62
7
100
AcDbLine
 10
701.969056
 20
469.216578
 30
0.0
 11
707.844687
 21
462.288924
 31
0.0
  0
LINE
  5
50f
100
AcDbEntity
  8
Face
 62
7
100
AcDbLine
 10
707.844687
 20
462.288924
 30
0.0
 11
713.098108
 21
455.236377
 31
0.0
  0
LINE
  5
510
100
AcDbEntity
  8
Face
 62
7
100
AcDbLine
 10
713.098108
 20
455.236377
 30
0.0
 11
715.485729
 21
451.667603
 31
0.0
  0
LINE
  5
511
100
AcDbEntity
  8
Face
 62
7
100
AcDbLine
 10
715.485729
 20
451.667603
 30
0.0
 11
717.710885
 21
448.072808
 31
0.0
  0
LINE
  5
512
100
AcDbEntity
  8
Face
 62
7
100
AcDbLine
 10
717.710885
 20
448.072808
 30
0.0
 11
719.771270
 21
444.453725
 31
0.0
  0
LINE
  5
513
100
AcDbEntity
  8
Face
 62
7
100
AcDbLine
 10
719.771270
 20
444.453725
 30
0.0
 11
721.664581
 21
440.812088
 31
0.0
  0
LINE
  5
514
100
AcDbEntity
  8
Face
 62
7
100
AcDbLine
 10
721.664581
 20
440.812088
 30
0.0
 11
723.388514
 21
437.149632
 31
0.0
  0
LINE
  5
515
100
AcDbEntity
  8
Face
 62
7
100
AcDbLine
 10
723.388514
 20
437.149632
 30
0.0
 11
724.940763
 21
433.468089
 31
0.0
  0
LINE
  5
516
100
AcDbEntity
  8
Face
 62
7
100
AcDbLine
 10
724.940763
 20
433.468089
 30
0.0
 11
726.319025
 21
429.769195
 31
0.0
  0
LINE
  5
517
100
AcDbEntity
  8
Face
 62
7
100
AcDbLine
 10
726.319025
 20
429.769195
 30
0.0
 11
727.520995
 21
426.054682
 31
0.0
  0
LINE
  5
518
100
AcDbEntity
  8
Face
 62
7
100
AcDbLine
 10
727.520995
 20
426.054682
 30
0.0
 11
728.544368
 21
422.326286
 31
0.0
  0
LINE
  5
519
100
AcDbEntity
  8
Face
 62
7
100
AcDbLine
 10
728.544368
 20
422.326286
 30
0.0
 11
729.386842
 21
418.585739
 31
0.0
  0
LINE
  5
51a
100
AcDbEntity
  8
Face
 62
7
100
AcDbLine
 10
729.386842
 20
418.585739
 30
0.0
 11
730.046110
 21
414.834776
 31
0.0
  0
LINE
  5
51b
100
AcDbEntity
  8
Face
 62
7
100
AcDbLine
 10
730.046110
 20
414.834776
 30
0.0
 11
730.519869
 21
411.075131
 31
0.0
  0
LINE
  5
51c
100
AcDbEntity
  8
Face
 62
7
100
AcDbLine
 10
730.519869
 20
411.075131
 30
0.0
 11
730.805814
 21
407.308537
 31
0.0
  0
LINE
  5
51d
100
AcDbEntity
  8
Face
 62
7
100
AcDbLine
 10
730.805814
 20
407.308537
 30
0.0
 11
730.901641
 21
403.536729
 31
0.0
  0
LINE
  5
51e
100
AcDbEntity
  8
Face
 62
7
100
AcDbLine
 10
730.901641
 20
403.536729
 30
0.0
 11
730.800423
 21
396.035239
 31
0.0
  0
LINE
  5
51f
100
AcDbEntity
  8
Face
 62
7
100
AcDbLine
 10
730.800423
 20
396.035239
 30
0.0
 11
730.485184
 21
388.632226
 31
0.0
  0
LINE
  5
520
100
AcDbEntity
  8
Face
 62
7
100
AcDbLine
 10
730.485184
 20
388.632226
 30
0.0
 11
729.938545
 21
381.336849
 31
0.0
  0
LINE
  5
521
100
AcDbEntity
  8
Face
 62
7
100
AcDbLine
 10
729.938545
 20
381.336849
 30
0.0
 11
729.143124
 21
374.158266
 31
0.0
  0
LINE
  5
522
100
AcDbEntity
  8
Face
 62
7
100
AcDbLine
 10
729.143124
 20
374.158266
 30
0.0
 11
728.081542
 21
367.105637
 31
0.0
  0
LINE
  5
523
100
AcDbEntity
  8
Face
 62
7
100
AcDbLine
 10
728.081542
 20
367.105637
 30
0.0
 11
726.736416
 21
360.188122
 31
0.0
  0
LINE
  5
524
100
AcDbEntity
  8
Face
 62
7
100
AcDbLine
 10
726.736416
 20
360.188122
 30
0.0
 11
725.090367
 21
353.414879
 31
0.0
  0
LINE
  5
525
100
AcDbEntity
  8
Face
 62
7
100
AcDbLine
 10
725.090367
 20
353.414879
 30
0.0
 11
723.126014
 21
346.795068
 31
0.0
  0
LINE
  5
526
100
AcDbEntity
  8
Face
 62
7
100
AcDbLine
 10
723.126014
 20
346.795068
 30
0.0
 11
720.825976
 21
340.337848
 31
0.0
  0
LINE
  5
527
100
AcDbEntity
  8
Face
 62
7
100
AcDbLine
 10
720.825976
 20
340.337848
 30
0.0
 11
718.172873
 21
334.052378
 31
0.0
  0
LINE
  5
528
100
AcDbEntity
  8
Face
 62
7
100
AcDbLine
 10
718.172873
 20
334.052378
 30
0.0
 11
715.149324
 21
327.947818
 31
0.0
  0
LINE
  5
529
100
AcDbEntity
  8
Face
 62
7
100
AcDbLine
 10
715.149324
 20
327.947818
 30
0.0
 11
711.737947
 21
322.033326
 31
0.0
  0
LINE
  5
52a
100
AcDbEntity
  8
Face
 62
7
100
AcDbLine
 10
711.737947
 20
322.033326
 30
0.0
 11
707.921363
 21
316.318062
 31
0.0
  0
LINE
  5
52b
100
AcDbEntity
  8
Face
 62
7
100
AcDbLine
 10
707.921363
 20
316.318062
 30
0.0
 11
703.682191
 21
310.811185
 31
0.0
  0
LINE
  5
52c
100
AcDbEntity
  8
Face
 62
7
100
AcDbLine
 10
703.682191
 20
310.811185
 30
0.0
 11
699.003050
 21
305.521855
 31
0.0
  0
LINE
  5
52d
100
AcDbEntity
  8
Face
 62
7
100
AcDbLine
 10
699.003050
 20
305.521855
 30
0.0
 11
693.866560
 21
300.459230
 31
0.0
  0
LINE
  5
52e
100
AcDbEntity
  8
Face
 62
7
100
AcDbLine
 10
693.866560
 20
300.459230
 30
0.0
 11
688.255339
 21
295.632470
 31
0.0
  0
LINE
  5
52f
100
AcDbEntity
  8
Face
 62
7
100
AcDbLine
 10
688.255339
 20
295.632470
 30
0.0
 11
682.152007
 21
291.050735
 31
0.0
  0
LINE
  5
530
100
AcDbEntity
  8
Face
 62
7
100
AcDbLine
 10
682.152007
 20
291.050735
 30
0.0
 11
675.539184
 21
286.723182
 31
0.0
  0
LINE
  5
531
100
AcDbEntity
  8
Face
 62
7
100
AcDbLine
 10
675.539184
 20
286.723182
 30
0.0
 11
668.399489
 21
282.658972
 31
0.0
  0
LINE
  5
532
100
AcDbEntity
  8
Face
 62
7
100
AcDbLine
 10
668.399489
 20
282.658972
 30
0.0
 11
660.715540
 21
278.867264
 31
0.0
  0
LINE
  5
533
100
AcDbEntity
  8
Face
 62
7
100
AcDbLine
 10
660.715540
 20
278.867264
 30
0.0
 11
652.469958
 21
275.357217
 31
0.0
  0
LINE
  5
534
100
AcDbEntity
  8
Face
 62
7
100
AcDbLine
 10
652.469958
 20
275.357217
 30
0.0
 11
643.645362
 21
272.137990
 31
0.0
  0
LINE
  5
535
100
AcDbEntity
  8
Face
 62
7
100
AcDbLine
 10
643.645362
 20
272.137990
 30
0.0
 11
634.224371
 21
269.218742
 31
0.0
  0
LINE
  5
536
100
AcDbEntity
  8
Face
 62
7
100
AcDbLine
 10
634.224371
 20
269.218742
 30
0.0
 11
624.189604
 21
266.608633
 31
0.0
  0
LINE
  5
537
100
AcDbEntity
  8
Face
 62
7
100
AcDbLine
 10
624.189604
 20
266.608633
 30
0.0
 11
613.523681
 21
264.316822
 31
0.0
  0
LINE
  5
538
100
AcDbEntity
  8
Face
 62
7
100
AcDbLine
 10
613.523681
 20
264.316822
 30
0.0
 11
602.209221
 21
262.352468
 31
0.0
  0
LINE
  5
539
100
AcDbEntity
  8
Face
 62
7
100
AcDbLine
 10
602.209221
 20
262.352468
 30
0.0
 11
590.228843
 21
260.724731
 31
0.0
  0
LINE
  5
53a
100
AcDbEntity
  8
Face
 62
7
100
AcDbLine
 10
590.228843
 20
260.724731
 30
0.0
 11
577.565166
 21
259.442769
 31
0.0
  0
LINE
  5
53b
100
AcDbEntity
  8
Face
 62
7
100
AcDbLine
 10
577.565166
 20
259.442769
 30
0.0
 11
564.200811
 21
258.515742
 31
0.0
  0
LINE
  5
53c
100
AcDbEntity
  8
Face
 62
7
100
AcDbLine
 10
564.200811
 20
258.515742
 30
0.0
 11
550.118396
 21
257.952809
 31
0.0
  0
LINE
  5
53d
100
AcDbEntity
  8
Face
 62
7
100
AcDbLine
 10
550.118396
 20
257.952809
 30
0.0
 11
535.300541
 21
257.763129
 31
0.0
  0
LINE
  5
53e
100
AcDbEntity
  8
Face
 62
7
100
AcDbLine
 10
535.300541
 20
257.763129
 30
0.0
 11
339.699461
 21
257.763129
 31
0.0
  0
LINE
  5
53f
100
AcDbEntity
  8
Eyes
 62
7
100
AcDbLine
 10
271.173828
 20
492.398434
 30
0.0
 11
267.404846
 21
492.303176
 31
0.0
  0
LINE
  5
540
100
AcDbEntity
  8
Eyes
 62
7
100
AcDbLine
 10
267.404846
 20
492.303176
 30
0.0
 11
263.685340
 21
492.020384
 31
0.0
  0
LINE
  5
541
100
AcDbEntity
  8
Eyes
 62
7
100
AcDbLine
 10
263.685340
 20
492.020384
 30
0.0
 11
260.019911
 21
491.554660
 31
0.0
  0
LINE
  5
542
100
AcDbEntity
  8
Eyes
 62
7
100
AcDbLine
 10
260.019911
 20
491.554660
 30
0.0
 11
256.413160
 21
490.910606
 31
0.0
  0
LINE
  5
543
100
AcDbEntity
  8
Eyes
 62
7
100
AcDbLine
 10
256.413160
 20
490.910606
 30
0.0
 11
252.869691
 21
490.092823
 31
0.0
  0
LINE
  5
544
100
AcDbEntity
  8
Eyes
 62
7
100
AcDbLine
 10
252.869691
 20
490.092823
 30
0.0
 11
249.394105
 21
489.105912
 31
0.0
  0
LINE
  5
545
100
AcDbEntity
  8
Eyes
 62
7
100
AcDbLine
 10
249.394105
 20
489.105912
 30
0.0
 11
242.664989
 21
486.643119
 31
0.0
  0
LINE
  5
546
100
AcDbEntity
  8
Eyes
 62
7
100
AcDbLine
 10
242.664989
 20
486.643119
 30
0.0
 11
236.262627
 21
483.559039
 31
0.0
  0
LINE
  5
547
100
AcDbEntity
  8
Eyes
 62
7
100
AcDbLine
 10
236.262627
 20
483.559039
 30
0.0
 11
230.223835
 21
479.890488
 31
0.0
  0
LINE
  5
548
100
AcDbEntity
  8
Eyes
 62
7
100
AcDbLine
 10
230.223835
 20
479.890488
 30
0.0
 11
224.585428
 21
475.674279
 31
0.0
  0
LINE
  5
549
100
AcDbEntity
  8
Eyes
 62
7
100
AcDbLine
 10
224.585428
 20
475.674279
 30
0.0
 11
219.384222
 21
470.947227
 31
0.0
  0
LINE
  5
54a
100
AcDbEntity
  8
Eyes
 62
7
100
AcDbLine
 10
219.384222
 20
470.947227
 30
0.0
 11
214.657032
 21
465.746147
 31
0.0
  0
LINE
  5
54b
100
AcDbEntity
  8
Eyes
 62
7
100
AcDbLine
 10
214.657032
 20
465.746147
 30
0.0
 11
210.440672
 21
460.107853
 31
0.0
  0
LINE
  5
54c
100
AcDbEntity
  8
Eyes
 62
7
100
AcDbLine
 10
210.440672
 20
460.107853
 30
0.0
 11
206.771960
 21
454.069159
 31
0.0
  0
LINE
  5
54d
100
AcDbEntity
  8
Eyes
 62
7
100
AcDbLine
 10
206.771960
 20
454.069159
 30
0.0
 11
203.687709
 21
447.666879
 31
0.0
  0
LINE
  5
54e
100
AcDbEntity
  8
Eyes
 62
7
100
AcDbLine
 10
203.687709
 20
447.666879
 30
0.0
 11
201.224736
 21
440.937829
 31
0.0
  0
LINE
  5
54f
100
AcDbEntity
  8
Eyes
 62
7
100
AcDbLine
 10
201.224736
 20
440.937829
 30
0.0
 11
200.237733
 21
437.462269
 31
0.0
  0
LINE
  5
550
100
AcDbEntity
  8
Eyes
 62
7
100
AcDbLine
 10
200.237733
 20
437.462269
 30
0.0
 11
199.419855
 21
433.918821
 31
0.0
  0
LINE
  5
551
100
AcDbEntity
  8
Eyes
 62
7
100
AcDbLine
 10
199.419855
 20
433.918821
 30
0.0
 11
198.775705
 21
430.312089
 31
0.0
  0
LINE
  5
552
100
AcDbEntity
  8
Eyes
 62
7
100
AcDbLine
 10
198.775705
 20
430.312089
 30
0.0
 11
198.309883
 21
426.646672
 31
0.0
  0
LINE
  5
553
100
AcDbEntity
  8
Eyes
 62
7
100
AcDbLine
 10
198.309883
 20
426.646672
 30
0.0
 11
198.026992
 21
422.927173
 31
0.0
  0
LINE
  5
554
100
AcDbEntity
  8
Eyes
 62
7
100
AcDbLine
 10
198.026992
 20
422.927173
 30
0.0
 11
197.931633
 21
419.158194
 31
0.0
  0
LINE
  5
555
100
AcDbEntity
  8
Eyes
 62
7
100
AcDbLine
 10
197.931633
 20
419.158194
 30
0.0
 11
198.021609
 21
415.526311
 31
0.0
  0
LINE
  5
556
100
AcDbEntity
  8
Eyes
 62
7
100
AcDbLine
 10
198.021609
 20
415.526311
 30
0.0
 11
198.289958
 21
411.919077
 31
0.0
  0
LINE
  5
557
100
AcDbEntity
  8
Eyes
 62
7
100
AcDbLine
 10
198.289958
 20
411.919077
 30
0.0
 11
199.351831
 21
404.802569
 31
0.0
  0
LINE
  5
558
100
AcDbEntity
  8
Eyes
 62
7
100
AcDbLine
 10
199.351831
 20
404.802569
 30
0.0
 11
201.097359
 21
397.856700
 31
0.0
  0
LINE
  5
559
100
AcDbEntity
  8
Eyes
 62
7
100
AcDbLine
 10
201.097359
 20
397.856700
 30
0.0
 11
203.506647
 21
391.129497
 31
0.0
  0
LINE
  5
55a
100
AcDbEntity
  8
Eyes
 62
7
100
AcDbLine
 10
203.506647
 20
391.129497
 30
0.0
 11
206.559803
 21
384.668989
 31
0.0
  0
LINE
  5
55b
100
AcDbEntity
  8
Eyes
 62
7
100
AcDbLine
 10
206.559803
 20
384.668989
 30
0.0
 11
210.236933
 21
378.523204
 31
0.0
  0
LINE
  5
55c
100
AcDbEntity
  8
Eyes
 62
7
100
AcDbLine
 10
210.236933
 20
378.523204
 30
0.0
 11
214.518143
 21
372.740169
 31
0.0
  0
LINE
  5
55d
100
AcDbEntity
  8
Eyes
 62
7
100
AcDbLine
 10
214.518143
 20
372.740169
 30
0.0
 11
216.879061
 21
369.999692
 31
0.0
  0
LINE
  5
55e
100
AcDbEntity
  8
Eyes
 62
7
100
AcDbLine
 10
216.879061
 20
369.999692
 30
0.0
 11
219.383539
 21
367.367913
 31
0.0
  0
LINE
  5
55f
100
AcDbEntity
  8
Eyes
 62
7
100
AcDbLine
 10
219.383539
 20
367.367913
 30
0.0
 11
222.015319
 21
364.863436
 31
0.0
  0
LINE
  5
560
100
AcDbEntity
  8
Eyes
 62
7
100
AcDbLine
 10
222.015319
 20
364.863436
 30
0.0
 11
224.755797
 21
362.502518
 31
0.0
  0
LINE
  5
561
100
AcDbEntity
  8
Eyes
 62
7
100
AcDbLine
 10
224.755797
 20
362.502518
 30
0.0
 11
230.538833
 21
358.221310
 31
0.0
  0
LINE
  5
562
100
AcDbEntity
  8
Eyes
 62
7
100
AcDbLine
 10
230.538833
 20
358.221310
 30
0.0
 11
236.684620
 21
354.544182
 31
0.0
  0
LINE
  5
563
100
AcDbEntity
  8
Eyes
 62
7
100
AcDbLine
 10
236.684620
 20
354.544182
 30
0.0
 11
243.145129
 21
351.491028
 31
0.0
  0
LINE
  5
564
100
AcDbEntity
  8
Eyes
 62
7
100
AcDbLine
 10
243.145129
 20
351.491028
 30
0.0
 11
249.872333
 21
349.081742
 31
0.0
  0
LINE
  5
565
100
AcDbEntity
  8
Eyes
 62
7
100
AcDbLine
 10
249.872333
 20
349.081742
 30
0.0
 11
256.818202
 21
347.336217
 31
0.0
  0
LINE
  5
566
100
AcDbEntity
  8
Eyes
 62
7
100
AcDbLine
 10
256.818202
 20
347.336217
 30
0.0
 11
263.934710
 21
346.274346
 31
0.0
  0
LINE
  5
567
100
AcDbEntity
  8
Eyes
 62
7
100
AcDbLine
 10
263.934710
 20
346.274346
 30
0.0
 11
267.541944
 21
346.005998
 31
0.0
  0
LINE
  5
568
100
AcDbEntity
  8
Eyes
 62
7
100
AcDbLine
 10
267.541944
 20
346.005998
 30
0.0
 11
271.173828
 21
345.916024
 31
0.0
  0
LINE
  5
569
100
AcDbEntity
  8
Eyes
 62
7
100
AcDbLine
 10
271.173828
 20
345.916024
 30
0.0
 11
277.672031
 21
346.204024
 31
0.0
  0
LINE
  5
56a
100
AcDbEntity
  8
Eyes
 62
7
100
AcDbLine
 10
277.672031
 20
346.204024
 30
0.0
 11
284.028563
 21
347.049736
 31
0.0
  0
LINE
  5
56b
100
AcDbEntity
  8
Eyes
 62
7
100
AcDbLine
 10
284.028563
 20
347.049736
 30
0.0
 11
290.216407
 21
348.430937
 31
0.0
  0
LINE
  5
56c
100
AcDbEntity
  8
Eyes
 62
7
100
AcDbLine
 10
290.216407
 20
348.430937
 30
0.0
 11
296.208548
 21
350.325408
 31
0.0
  0
LINE
  5
56d
100
AcDbEntity
  8
Eyes
 62
7
100
AcDbLine
 10
296.208548
 20
350.325408
 30
0.0
 11
301.977969
 21
352.710929
 31
0.0
  0
LINE
  5
56e
100
AcDbEntity
  8
Eyes
 62
7
100
AcDbLine
 10
301.977969
 20
352.710929
 30
0.0
 11
307.497656
 21
355.565279
 31
0.0
  0
LINE
  5
56f
100
AcDbEntity
  8
Eyes
 62
7
100
AcDbLine
 10
307.497656
 20
355.565279
 30
0.0
 11
312.740591
 21
358.866237
 31
0.0
  0
LINE
  5
570
100
AcDbEntity
  8
Eyes
 62
7
100
AcDbLine
 10
312.740591
 20
358.866237
 30
0.0
 11
317.679760
 21
362.591583
 31
0.0
  0
LINE
  5
571
100
AcDbEntity
  8
Eyes
 62
7
100
AcDbLine
 10
317.679760
 20
362.591583
 30
0.0
 11
322.288146
 21
366.719096
 31
0.0
  0
LINE
  5
572
100
AcDbEntity
  8
Eyes
 62
7
100
AcDbLine
 10
322.288146
 20
366.719096
 30
0.0
 11
326.538734
 21
371.226556
 31
0.0
  0
LINE
  5
573
100
AcDbEntity
  8
Eyes
 62
7
100
AcDbLine
 10
326.538734
 20
371.226556
 30
0.0
 11
330.404508
 21
376.091743
 31
0.0
  0
LINE
  5
574
100
AcDbEntity
  8
Eyes
 62
7
100
AcDbLine
 10
330.404508
 20
376.091743
 30
0.0
 11
333.858452
 21
381.292435
 31
0.0
  0
LINE
  5
575
100
AcDbEntity
  8
Eyes
 62
7
100
AcDbLine
 10
333.858452
 20
381.292435
 30
0.0
 11
336.873551
 21
386.806413
 31
0.0
  0
LINE
  5
576
100
AcDbEntity
  8
Eyes
 62
7
100
AcDbLine
 10
336.873551
 20
386.806413
 30
0.0
 11
339.422788
 21
392.611456
 31
0.0
  0
LINE
  5
577
100
AcDbEntity
  8
Eyes
 62
7
100
AcDbLine
 10
339.422788
 20
392.611456
 30
0.0
 11
341.479147
 21
398.685344
 31
0.0
  0
LINE
  5
578
100
AcDbEntity
  8
Eyes
 62
7
100
AcDbLine
 10
341.479147
 20
398.685344
 30
0.0
 11
343.015614
 21
405.005855
 31
0.0
  0
LINE
  5
579
100
AcDbEntity
  8
Eyes
 62
7
100
AcDbLine
 10
343.015614
 20
405.005855
 30
0.0
 11
532.033197
 21
405.005855
 31
0.0
  0
LINE
  5
57a
100
AcDbEntity
  8
Eyes
 62
7
100
AcDbLine
 10
532.033197
 20
405.005855
 30
0.0
 11
533.568731
 21
398.688567
 31
0.0
  0
LINE
  5
57b
100
AcDbEntity
  8
Eyes
 62
7
100
AcDbLine
 10
533.568731
 20
398.688567
 30
0.0
 11
535.623657
 21
392.617581
 31
0.0
  0
LINE
  5
57c
100
AcDbEntity
  8
Eyes
 62
7
100
AcDbLine
 10
535.623657
 20
392.617581
 30
0.0
 11
538.171007
 21
386.815096
 31
0.0
  0
LINE
  5
57d
100
AcDbEntity
  8
Eyes
 62
7
100
AcDbLine
 10
538.171007
 20
386.815096
 30
0.0
 11
541.183811
 21
381.303308
 31
0.0
  0
LINE
  5
57e
100
AcDbEntity
  8
Eyes
 62
7
100
AcDbLine
 10
541.183811
 20
381.303308
 30
0.0
 11
544.635101
 21
376.104415
 31
0.0
  0
LINE
  5
57f
100
AcDbEntity
  8
Eyes
 62
7
100
AcDbLine
 10
544.635101
 20
376.104415
 30
0.0
 11
548.497908
 21
371.240613
 31
0.0
  0
LINE
  5
580
100
AcDbEntity
  8
Eyes
 62
7
100
AcDbLine
 10
548.497908
 20
371.240613
 30
0.0
 11
552.745262
 21
366.734100
 31
0.0
  0
LINE
  5
581
100
AcDbEntity
  8
Eyes
 62
7
100
AcDbLine
 10
552.745262
 20
366.734100
 30
0.0
 11
557.350193
 21
362.607074
 31
0.0
  0
LINE
  5
582
100
AcDbEntity
  8
Eyes
 62
7
100
AcDbLine
 10
557.350193
 20
362.607074
 30
0.0
 11
562.285734
 21
358.881731
 31
0.0
  0
LINE
  5
583
100
AcDbEntity
  8
Eyes
 62
7
100
AcDbLine
 10
562.285734
 20
358.881731
 30
0.0
 11
567.524915
 21
355.580268
 31
0.0
  0
LINE
  5
584
100
AcDbEntity
  8
Eyes
 62
7
100
AcDbLine
 10
567.524915
 20
355.580268
 30
0.0
 11
573.040766
 21
352.724883
 31
0.0
  0
LINE
  5
585
100
AcDbEntity
  8
Eyes
 62
7
100
AcDbLine
 10
573.040766
 20
352.724883
 30
0.0
 11
578.806319
 21
350.337773
 31
0.0
  0
LINE
  5
586
100
AcDbEntity
  8
Eyes
 62
7
100
AcDbLine
 10
578.806319
 20
350.337773
 30
0.0
 11
584.794604
 21
348.441134
 31
0.0
  0
LINE
  5
587
100
AcDbEntity
  8
Eyes
 62
7
100
AcDbLine
 10
584.794604
 20
348.441134
 30
0.0
 11
590.978653
 21
347.057165
 31
0.0
  0
LINE
  5
588
100
AcDbEntity
  8
Eyes
 62
7
100
AcDbLine
 10
590.978653
 20
347.057165
 30
0.0
 11
597.331496
 21
346.208063
 31
0.0
  0
LINE
  5
589
100
AcDbEntity
  8
Eyes
 62
7
100
AcDbLine
 10
597.331496
 20
346.208063
 30
0.0
 11
603.826164
 21
345.916024
 31
0.0
  0
LINE
  5
58a
100
AcDbEntity
  8
Eyes
 62
7
100
AcDbLine
 10
603.826164
 20
345.916024
 30
0.0
 11
607.458047
 21
346.005998
 31
0.0
  0
LINE
  5
58b
100
AcDbEntity
  8
Eyes
 62
7
100
AcDbLine
 10
607.458047
 20
346.005998
 30
0.0
 11
611.065281
 21
346.274346
 31
0.0
  0
LINE
  5
58c
100
AcDbEntity
  8
Eyes
 62
7
100
AcDbLine
 10
611.065281
 20
346.274346
 30
0.0
 11
618.181789
 21
347.336217
 31
0.0
  0
LINE
  5
58d
100
AcDbEntity
  8
Eyes
 62
7
100
AcDbLine
 10
618.181789
 20
347.336217
 30
0.0
 11
625.127658
 21
349.081742
 31
0.0
  0
LINE
  5
58e
100
AcDbEntity
  8
Eyes
 62
7
100
AcDbLine
 10
625.127658
 20
349.081742
 30
0.0
 11
631.854862
 21
351.491028
 31
0.0
  0
LINE
  5
58f
100
AcDbEntity
  8
Eyes
 62
7
100
AcDbLine
 10
631.854862
 20
351.491028
 30
0.0
 11
638.315371
 21
354.544182
 31
0.0
  0
LINE
  5
590
100
AcDbEntity
  8
Eyes
 62
7
100
AcDbLine
 10
638.315371
 20
354.544182
 30
0.0
 11
644.461158
 21
358.221310
 31
0.0
  0
LINE
  5
591
100
AcDbEntity
  8
Eyes
 62
7
100
AcDbLine
 10
644.461158
 20
358.221310
 30
0.0
 11
650.244194
 21
362.502518
 31
0.0
  0
LINE
  5
592
100
AcDbEntity
  8
Eyes
 62
7
100
AcDbLine
 10
650.244194
 20
362.502518
 30
0.0
 11
652.984672
 21
364.863436
 31
0.0
  0
LINE
  5
593
100
AcDbEntity
  8
Eyes
 62
7
100
AcDbLine
 10
652.984672
 20
364.863436
 30
0.0
 11
655.616452
 21
367.367913
 31
0.0
  0
LINE
  5
594
100
AcDbEntity
  8
Eyes
 62
7
100
AcDbLine
 10
655.616452
 20
367.367913
 30
0.0
 11
658.120930
 21
369.999692
 31
0.0
  0
LINE
  5
595
100
AcDbEntity
  8
Eyes
 62
7
100
AcDbLine
 10
658.120930
 20
369.999692
 30
0.0
 11
660.481848
 21
372.740169
 31
0.0
  0
LINE
  5
596
100
AcDbEntity
  8
Eyes
 62
7
100
AcDbLine
 10
660.481848
 20
372.740169
 30
0.0
 11
664.763058
 21
378.523204
 31
0.0
  0
LINE
  5
597
100
AcDbEntity
  8
Eyes
 62
7
100
AcDbLine
 10
664.763058
 20
378.523204
 30
0.0
 11
668.440188
 21
384.668989
 31
0.0
  0
LINE
  5
598
100
AcDbEntity
  8
Eyes
 62
7
100
AcDbLine
 10
668.440188
 20
384.668989
 30
0.0
 11
671.493344
 21
391.129497
 31
0.0
  0
LINE
  5
599
100
AcDbEntity
  8
Eyes
 62
7
100
AcDbLine
 10
671.493344
 20
391.129497
 30
0.0
 11
673.902633
 21
397.856700
 31
0.0
  0
LINE
  5
59a
100
AcDbEntity
  8
Eyes
 62
7
100
AcDbLine
 10
673.902633
 20
397.856700
 30
0.0
 11
675.648160
 21
404.802569
 31
0.0
  0
LINE
  5
59b
100
AcDbEntity
  8
Eyes
 62
7
100
AcDbLine
 10
675.648160
 20
404.802569
 30
0.0
 11
676.710033
 21
411.919077
 31
0.0
  0
LINE
  5
59c
100
AcDbEntity
  8
Eyes
 62
7
100
AcDbLine
 10
676.710033
 20
411.919077
 30
0.0
 11
676.978382
 21
415.526311
 31
0.0
  0
LINE
  5
59d
100
AcDbEntity
  8
Eyes
 62
7
100
AcDbLine
 10
676.978382
 20
415.526311
 30
0.0
 11
677.068358
 21
419.158194
 31
0.0
  0
LINE
  5
59e
100
AcDbEntity
  8
Eyes
 62
7
100
AcDbLine
 10
677.068358
 20
419.158194
 30
0.0
 11
676.973000
 21
422.927173
 31
0.0
  0
LINE
  5
59f
100
AcDbEntity
  8
Eyes
 62
7
100
AcDbLine
 10
676.973000
 20
422.927173
 30
0.0
 11
676.690108
 21
426.646672
 31
0.0
  0
LINE
  5
5a0
100
AcDbEntity
  8
Eyes
 62
7
100
AcDbLine
 10
676.690108
 20
426.646672
 30
0.0
 11
676.224287
 21
430.312089
 31
0.0
  0
LINE
  5
5a1
100
AcDbEntity
  8
Eyes
 62
7
100
AcDbLine
 10
676.224287
 20
430.312089
 30
0.0
 11
675.580136
 21
433.918821
 31
0.0
  0
LINE
  5
5a2
100
AcDbEntity
  8
Eyes
 62
7
100
AcDbLine
 10
675.580136
 20
433.918821
 30
0.0
 11
674.762258
 21
437.462269
 31
0.0
  0
LINE
  5
5a3
100
AcDbEntity
  8
Eyes
 62
7
100
AcDbLine
 10
674.762258
 20
437.462269
 30
0.0
 11
673.775255
 21
440.937829
 31
0.0
  0
LINE
  5
5a4
100
AcDbEntity
  8
Eyes
 62
7
100
AcDbLine
 10
673.775255
 20
440.937829
 30
0.0
 11
671.312282
 21
447.666879
 31
0.0
  0
LINE
  5
5a5
100
AcDbEntity
  8
Eyes
 62
7
100
AcDbLine
 10
671.312282
 20
447.666879
 30
0.0
 11
668.228031
 21
454.069159
 31
0.0
  0
LINE
  5
5a6
100
AcDbEntity
  8
Eyes
 62
7
100
AcDbLine
 10
668.228031
 20
454.069159
 30
0.0
 11
664.559319
 21
460.107853
 31
0.0
  0
LINE
  5
5a7
100
AcDbEntity
  8
Eyes
 62
7
100
AcDbLine
 10
664.559319
 20
460.107853
 30
0.0
 11
660.342960
 21
465.746147
 31
0.0
  0
LINE
  5
5a8
100
AcDbEntity
  8
Eyes
 62
7
100
AcDbLine
 10
660.342960
 20
465.746147
 30
0.0
 11
655.615769
 21
470.947227
 31
0.0
  0
LINE
  5
5a9
100
AcDbEntity
  8
Eyes
 62
7
100
AcDbLine
 10
655.615769
 20
470.947227
 30
0.0
 11
650.414563
 21
475.674279
 31
0.0
  0
LINE
  5
5aa
100
AcDbEntity
  8
Eyes
 62
7
100
AcDbLine
 10
650.414563
 20
475.674279
 30
0.0
 11
644.776156
 21
479.890488
 31
0.0
  0
LINE
  5
5ab
100
AcDbEntity
  8
Eyes
 62
7
100
AcDbLine
 10
644.776156
 20
479.890488
 30
0.0
 11
638.737364
 21
483.559039
 31
0.0
  0
LINE
  5
5ac
100
AcDbEntity
  8
Eyes
 62
7
100
AcDbLine
 10
638.737364
 20
483.559039
 30
0.0
 11
632.335003
 21
486.643119
 31
0.0
  0
LINE
  5
5ad
100
AcDbEntity
  8
Eyes
 62
7
100
AcDbLine
 10
632.335003
 20
486.643119
 30
0.0
 11
625.605886
 21
489.105912
 31
0.0
  0
LINE
  5
5ae
100
AcDbEntity
  8
Eyes
 62
7
100
AcDbLine
 10
625.605886
 20
489.105912
 30
0.0
 11
622.130300
 21
490.092823
 31
0.0
  0
LINE
  5
5af
100
AcDbEntity
  8
Eyes
 62
7
100
AcDbLine
 10
622.130300
 20
490.092823
 30
0.0
 11
618.586831
 21
490.910606
 31
0.0
  0
LINE
  5
5b0
100
AcDbEntity
  8
Eyes
 62
7
100
AcDbLine
 10
618.586831
 20
490.910606
 30
0.0
 11
614.980081
 21
491.554660
 31
0.0
  0
LINE
  5
5b1
100
AcDbEntity
  8
Eyes
 62
7
100
AcDbLine
 10
614.980081
 20
491.554660
 30
0.0
 11
611.314651
 21
492.020384
 31
0.0
  0
LINE
  5
5b2
100
AcDbEntity
  8
Eyes
 62
7
100
AcDbLine
 10
611.314651
 20
492.020384
 30
0.0
 11
607.595145
 21
492.303176
 31
0.0
  0
LINE
  5
5b3
100
AcDbEntity
  8
Eyes
 62
7
100
AcDbLine
 10
607.595145
 20
492.303176
 30
0.0
 11
603.826164
 21
492.398434
 31
0.0
  0
LINE
  5
5b4
100
AcDbEntity
  8
Eyes
 62
7
100
AcDbLine
 10
603.826164
 20
492.398434
 30
0.0
 11
597.327959
 21
492.110433
 31
0.0
  0
LINE
  5
5b5
100
AcDbEntity
  8
Eyes
 62
7
100
AcDbLine
 10
597.327959
 20
492.110433
 30
0.0
 11
590.971427
 21
491.264722
 31
0.0
  0
LINE
  5
5b6
100
AcDbEntity
  8
Eyes
 62
7
100
AcDbLine
 10
590.971427
 20
491.264722
 30
0.0
 11
584.783582
 21
489.883520
 31
0.0
  0
LINE
  5
5b7
100
AcDbEntity
  8
Eyes
 62
7
100
AcDbLine
 10
584.783582
 20
489.883520
 30
0.0
 11
578.791441
 21
487.989048
 31
0.0
  0
LINE
  5
5b8
100
AcDbEntity
  8
Eyes
 62
7
100
AcDbLine
 10
578.791441
 20
487.989048
 30
0.0
 11
573.022019
 21
485.603526
 31
0.0
  0
LINE
  5
5b9
100
AcDbEntity
  8
Eyes
 62
7
100
AcDbLine
 10
573.022019
 20
485.603526
 30
0.0
 11
567.502332
 21
482.749176
 31
0.0
  0
LINE
  5
5ba
100
AcDbEntity
  8
Eyes
 62
7
100
AcDbLine
 10
567.502332
 20
482.749176
 30
0.0
 11
562.259397
 21
479.448217
 31
0.0
  0
LINE
  5
5bb
100
AcDbEntity
  8
Eyes
 62
7
100
AcDbLine
 10
562.259397
 20
479.448217
 30
0.0
 11
557.320228
 21
475.722871
 31
0.0
  0
LINE
  5
5bc
100
AcDbEntity
  8
Eyes
 62
7
100
AcDbLine
 10
557.320228
 20
475.722871
 30
0.0
 11
552.711841
 21
471.595357
 31
0.0
  0
LINE
  5
5bd
100
AcDbEntity
  8
Eyes
 62
7
100
AcDbLine
 10
552.711841
 20
471.595357
 30
0.0
 11
548.461254
 21
467.087895
 31
0.0
  0
LINE
  5
5be
100
AcDbEntity
  8
Eyes
 62
7
100
AcDbLine
 10
548.461254
 20
467.087895
 30
0.0
 11
544.595480
 21
462.222708
 31
0.0
  0
LINE
  5
5bf
100
AcDbEntity
  8
Eyes
 62
7
100
AcDbLine
 10
544.595480
 20
462.222708
 30
0.0
 11
541.141536
 21
457.022014
 31
0.0
  0
LINE
  5
5c0
100
AcDbEntity
  8
Eyes
 62
7
100
AcDbLine
 10
541.141536
 20
457.022014
 30
0.0
 11
538.126438
 21
451.508035
 31
0.0
  0
LINE
  5
5c1
100
AcDbEntity
  8
Eyes
 62
7
100
AcDbLine
 10
538.126438
 20
451.508035
 30
0.0
 11
535.577202
 21
445.702991
 31
0.0
  0
LINE
  5
5c2
100
AcDbEntity
  8
Eyes
 62
7
100
AcDbLine
 10
535.577202
 20
445.702991
 30
0.0
 11
533.520843
 21
439.629103
 31
0.0
  0
LINE
  5
5c3
100
AcDbEntity
  8
Eyes
 62
7
100
AcDbLine
 10
533.520843
 20
439.629103
 30
0.0
 11
531.984377
 21
433.308590
 31
0.0
  0
LINE
  5
5c4
100
AcDbEntity
  8
Eyes
 62
7
100
AcDbLine
 10
531.984377
 20
433.308590
 30
0.0
 11
342.966794
 21
433.308590
 31
0.0
  0
LINE
  5
5c5
100
AcDbEntity
  8
Eyes
 62
7
100
AcDbLine
 10
342.966794
 20
433.308590
 30
0.0
 11
341.431261
 21
439.625880
 31
0.0
  0
LINE
  5
5c6
100
AcDbEntity
  8
Eyes
 62
7
100
AcDbLine
 10
341.431261
 20
439.625880
 30
0.0
 11
339.376336
 21
445.696867
 31
0.0
  0
LINE
  5
5c7
100
AcDbEntity
  8
Eyes
 62
7
100
AcDbLine
 10
339.376336
 20
445.696867
 30
0.0
 11
336.828987
 21
451.499353
 31
0.0
  0
LINE
  5
5c8
100
AcDbEntity
  8
Eyes
 62
7
100
AcDbLine
 10
336.828987
 20
451.499353
 30
0.0
 11
333.816182
 21
457.011142
 31
0.0
  0
LINE
  5
5c9
100
AcDbEntity
  8
Eyes
 62
7
100
AcDbLine
 10
333.816182
 20
457.011142
 30
0.0
 11
330.364893
 21
462.210036
 31
0.0
  0
LINE
  5
5ca
100
AcDbEntity
  8
Eyes
 62
7
100
AcDbLine
 10
330.364893
 20
462.210036
 30
0.0
 11
326.502086
 21
467.073839
 31
0.0
  0
LINE
  5
5cb
100
AcDbEntity
  8
Eyes
 62
7
100
AcDbLine
 10
326.502086
 20
467.073839
 30
0.0
 11
322.254733
 21
471.580352
 31
0.0
  0
LINE
  5
5cc
100
AcDbEntity
  8
Eyes
 62
7
100
AcDbLine
 10
322.254733
 20
471.580352
 30
0.0
 11
317.649801
 21
475.707379
 31
0.0
  0
LINE
  5
5cd
100
AcDbEntity
  8
Eyes
 62
7
100
AcDbLine
 10
317.649801
 20
475.707379
 30
0.0
 11
312.714260
 21
479.432723
 31
0.0
  0
LINE
  5
5ce
100
AcDbEntity
  8
Eyes
 62
7
100
AcDbLine
 10
312.714260
 20
479.432723
 30
0.0
 11
307.475080
 21
482.734187
 31
0.0
  0
LINE
  5
5cf
100
AcDbEntity
  8
Eyes
 62
7
100
AcDbLine
 10
307.475080
 20
482.734187
 30
0.0
 11
301.959228
 21
485.589573
 31
0.0
  0
LINE
  5
5d0
100
AcDbEntity
  8
Eyes
 62
7
100
AcDbLine
 10
301.959228
 20
485.589573
 30
0.0
 11
296.193675
 21
487.976684
 31
0.0
  0
LINE
  5
5d1
100
AcDbEntity
  8
Eyes
 62
7
100
AcDbLine
 10
296.193675
 20
487.976684
 30
0.0
 11
290.205389
 21
489.873322
 31
0.0
  0
LINE
  5
5d2
100
AcDbEntity
  8
Eyes
 62
7
100
AcDbLine
 10
290.205389
 20
489.873322
 30
0.0
 11
284.021340
 21
491.257292
 31
0.0
  0
LINE
  5
5d3
100
AcDbEntity
  8
Eyes
 62
7
100
AcDbLine
 10
284.021340
 20
491.257292
 30
0.0
 11
277.668496
 21
492.106395
 31
0.0
  0
LINE
  5
5d4
100
AcDbEntity
  8
Eyes
 62
7
100
AcDbLine
 10
277.668496
 20
492.106395
 30
0.0
 11
271.173828
 21
492.398434
 31
0.0
  0
LINE
  5
5d5
100
AcDbEntity
  8
Eyes
 62
7
100
AcDbLine
 10
271.173828
 20
492.398434
 30
0.0
 11
271.173828
 21
492.398434
 31
0.0
  0
ENDSEC
  0
SECTION
  2
OBJECTS
  0
DICTIONARY
  5
C
330
0
100
AcDbDictionary
  3
ACAD_GROUP
350
D
  3
ACAD_MLINESTYLE
350
17
  0
DICTIONARY
  5
D
330
C
100
AcDbDictionary
  0
DICTIONARY
  5
1A
330
C
100
AcDbDictionary
  0
DICTIONARY
  5
17
330
C
100
AcDbDictionary
  3
STANDARD
350
18
  0
DICTIONARY
  5
19
330
C
100
AcDbDictionary
  0
ENDSEC
  0
EOF
