  0
SECTION
  2
HEADER
  9
$ACADVER
  1
AC1014
  9
$HANDSEED
  5
FFFF
  9
$MEASUREMENT
 70
     1
  0
ENDSEC
  0
SECTION
  2
TABLES
  0
TABLE
  2
VPORT
  5
8
330
0
100
AcDbSymbolTable
 70
     4
  0
VPORT
  5
2E
330
8
100
AcDbSymbolTableRecord
100
AcDbViewportTableRecord
  2
*ACTIVE
 70
     0
 10
0.0
 20
0.0
 11
1.0
 21
1.0
 12
210.0
 22
148.5
 13
0.0
 23
0.0
 14
10.0
 24
10.0
 15
10.0
 25
10.0
 16
0.0
 26
0.0
 36
1.0
 17
0.0
 27
0.0
 37
0.0
 40
341.0
 41
1.24
 42
50.0
 43
0.0
 44
0.0
 50
0.0
 51
0.0
 71
     0
 72
   100
 73
     1
 74
     3
 75
     0
 76
     0
 77
     0
 78
     0
  0
ENDTAB
  0
TABLE
  2
LTYPE
  5
5
330
0
100
AcDbSymbolTable
 70
     1
  0
LTYPE
  5
14
330
5
100
AcDbSymbolTableRecord
100
AcDbLinetypeTableRecord
  2
BYBLOCK
 70
     0
  3

 72
    65
 73
     0
 40
0.0
  0
LTYPE
  5
15
330
5
100
AcDbSymbolTableRecord
100
AcDbLinetypeTableRecord
  2
BYLAYER
 70
     0
  3

 72
    65
 73
     0
 40
0.0
  0
LTYPE
  5
16
330
5
100
AcDbSymbolTableRecord
100
AcDbLinetypeTableRecord
  2
CONTINUOUS
 70
     0
  3
Solid line
 72
    65
 73
     0
 40
0.0
  0
ENDTAB
  0
TABLE
  2
LAYER
  5
2
100
AcDbSymbolTable
 70
6
  0
LAYER
  5
50
100
AcDbSymbolTableRecord
100
AcDbLayerTableRecord
  2
0
 70
0
  6
CONTINUOUS
  0
LAYER
  5
51
100
AcDbSymbolTableRecord
100
AcDbLayerTableRecord
  2
Base
 70
0
  6
CONTINUOUS
  0
LAYER
  5
52
100
AcDbSymbolTableRecord
100
AcDbLayerTableRecord
  2
Outline
 70
0
  6
CONTINUOUS
  0
LAYER
  5
53
100
AcDbSymbolTableRecord
100
AcDbLayerTableRecord
  2
Heart
 70
0
  6
CONTINUOUS
  0
LAYER
  5
54
100
AcDbSymbolTableRecord
100
AcDbLayerTableRecord
  2
Face
 70
0
  6
CONTINUOUS
  0
LAYER
  5
55
100
AcDbSymbolTableRecord
100
AcDbLayerTableRecord
  2
Eyes
 70
0
  6
CONTINUOUS
  0
ENDTAB
  0
TABLE
  2
STYLE
  5
3
330
0
100
AcDbSymbolTable
 70
     1
  0
STYLE
  5
11
330
3
100
AcDbSymbolTableRecord
100
AcDbTextStyleTableRecord
  2
STANDARD
 70
     0
 40
0.0
 41
1.0
 50
0.0
 71
     0
 42
2.5
  3
txt
  4

  0
ENDTAB
  0
TABLE
  2
VIEW
  5
6
330
0
100
AcDbSymbolTable
 70
     0
  0
ENDTAB
  0
TABLE
  2
UCS
  5
7
330
0
100
AcDbSymbolTable
 70
     0
  0
ENDTAB
  0
TABLE
  2
APPID
  5
9
330
0
100
AcDbSymbolTable
 70
     2
  0
APPID
  5
12
330
9
100
AcDbSymbolTableRecord
100
AcDbRegAppTableRecord
  2
ACAD
 70
     0
  0
ENDTAB
  0
TABLE
  2
DIMSTYLE
  5
A
330
0
100
AcDbSymbolTable
 70
     1
  0
DIMSTYLE
105
27
330
A
100
AcDbSymbolTableRecord
100
AcDbDimStyleTableRecord
  2
ISO-25
 70
     0
  3

  4

  5

  6

  7

 40
1.0
 41
2.5
 42
0.625
 43
3.75
 44
1.25
 45
0.0
 46
0.0
 47
0.0
 48
0.0
140
2.5
141
2.5
142
0.0
143
0.03937007874016
144
1.0
145
0.0
146
1.0
147
0.625
 71
     0
 72
     0
 73
     0
 74
     0
 75
     0
 76
     0
 77
     1
 78
     8
170
     0
171
     3
172
     1
173
     0
174
     0
175
     0
176
     0
177
     0
178
     0
270
     2
271
     2
272
     2
273
     2
274
     3
340
11
275
     0
280
     0
281
     0
282
     0
283
     0
284
     8
285
     0
286
     0
287
     3
288
     0
  0
ENDTAB
  0
TABLE
  2
BLOCK_RECORD
  5
1
330
0
100
AcDbSymbolTable
 70
     1
  0
BLOCK_RECORD
  5
1F
330
1
100
AcDbSymbolTableRecord
100
AcDbBlockTableRecord
  2
*MODEL_SPACE
  0
BLOCK_RECORD
  5
1B
330
1
100
AcDbSymbolTableRecord
100
AcDbBlockTableRecord
  2
*PAPER_SPACE
  0
ENDTAB
  0
ENDSEC
  0
SECTION
  2
BLOCKS
  0
BLOCK
  5
20
330
1F
100
AcDbEntity
  8
0
100
AcDbBlockBegin
  2
*MODEL_SPACE
 70
     0
 10
0.0
 20
0.0
 30
0.0
  3
*MODEL_SPACE
  1

  0
ENDBLK
  5
21
330
1F
100
AcDbEntity
  8
0
100
AcDbBlockEnd
  0
BLOCK
  5
1C
330
1B
100
AcDbEntity
 67
     1
  8
0
100
AcDbBlockBegin
  2
*PAPER_SPACE
  1

  0
ENDBLK
  5
1D
330
1B
100
AcDbEntity
 67
     1
  8
0
100
AcDbBlockEnd
  0
ENDSEC
  0
SECTION
  2
ENTITIES
  0
LINE
  5
100
100
AcDbEntity
  8
Base
 62
7
100
AcDbLine
 10
633.926110
 20
719.556402
 30
0.0
 11
622.924765
 21
719.291607
 31
0.0
  0
LINE
  5
101
100
AcDbEntity
  8
Base
 62
7
100
AcDbLine
 10
622.924765
 20
719.291607
 30
0.0
 11
611.891402
 21
718.733484
 31
0.0
  0
LINE
  5
102
100
AcDbEntity
  8
Base
 62
7
100
AcDbLine
 10
611.891402
 20
718.733484
 30
0.0
 11
600.848785
 21
717.865232
 31
0.0
  0
LINE
  5
103
100
AcDbEntity
  8
Base
 62
7
100
AcDbLine
 10
600.848785
 20
717.865232
 30
0.0
 11
589.819678
 21
716.670048
 31
0.0
  0
LINE
  5
104
100
AcDbEntity
  8
Base
 62
7
100
AcDbLine
 10
589.819678
 20
716.670048
 30
0.0
 11
578.826847
 21
715.131131
 31
0.0
  0
LINE
  5
105
100
AcDbEntity
  8
Base
 62
7
100
AcDbLine
 10
578.826847
 20
715.131131
 30
0.0
 11
567.893053
 21
713.231679
 31
0.0
  0
LINE
  5
106
100
AcDbEntity
  8
Base
 62
7
100
AcDbLine
 10
567.893053
 20
713.231679
 30
0.0
 11
557.041063
 21
710.954890
 31
0.0
  0
LINE
  5
107
100
AcDbEntity
  8
Base
 62
7
100
AcDbLine
 10
557.041063
 20
710.954890
 30
0.0
 11
546.293640
 21
708.283963
 31
0.0
  0
LINE
  5
108
100
AcDbEntity
  8
Base
 62
7
100
AcDbLine
 10
546.293640
 20
708.283963
 30
0.0
 11
535.673548
 21
705.202097
 31
0.0
  0
LINE
  5
109
100
AcDbEntity
  8
Base
 62
7
100
AcDbLine
 10
535.673548
 20
705.202097
 30
0.0
 11
525.203552
 21
701.692488
 31
0.0
  0
LINE
  5
10a
100
AcDbEntity
  8
Base
 62
7
100
AcDbLine
 10
525.203552
 20
701.692488
 30
0.0
 11
514.906415
 21
697.738337
 31
0.0
  0
LINE
  5
10b
100
AcDbEntity
  8
Base
 62
7
100
AcDbLine
 10
514.906415
 20
697.738337
 30
0.0
 11
504.804902
 21
693.322841
 31
0.0
  0
LINE
  5
10c
100
AcDbEntity
  8
Base
 62
7
100
AcDbLine
 10
504.804902
 20
693.322841
 30
0.0
 11
494.921776
 21
688.429198
 31
0.0
  0
LINE
  5
10d
100
AcDbEntity
  8
Base
 62
7
100
AcDbLine
 10
494.921776
 20
688.429198
 30
0.0
 11
485.279803
 21
683.040606
 31
0.0
  0
LINE
  5
10e
100
AcDbEntity
  8
Base
 62
7
100
AcDbLine
 10
485.279803
 20
683.040606
 30
0.0
 11
475.901746
 21
677.140265
 31
0.0
  0
LINE
  5
10f
100
AcDbEntity
  8
Base
 62
7
100
AcDbLine
 10
475.901746
 20
677.140265
 30
0.0
 11
471.318800
 21
673.992938
 31
0.0
  0
LINE
  5
110
100
AcDbEntity
  8
Base
 62
7
100
AcDbLine
 10
471.318800
 20
673.992938
 30
0.0
 11
466.810370
 21
670.711372
 31
0.0
  0
LINE
  5
111
100
AcDbEntity
  8
Base
 62
7
100
AcDbLine
 10
466.810370
 20
670.711372
 30
0.0
 11
462.606514
 21
667.379818
 31
0.0
  0
LINE
  5
112
100
AcDbEntity
  8
Base
 62
7
100
AcDbLine
 10
462.606514
 20
667.379818
 30
0.0
 11
458.557981
 21
663.866889
 31
0.0
  0
LINE
  5
113
100
AcDbEntity
  8
Base
 62
7
100
AcDbLine
 10
458.557981
 20
663.866889
 30
0.0
 11
454.661129
 21
660.186743
 31
0.0
  0
LINE
  5
114
100
AcDbEntity
  8
Base
 62
7
100
AcDbLine
 10
454.661129
 20
660.186743
 30
0.0
 11
450.912314
 21
656.353534
 31
0.0
  0
LINE
  5
115
100
AcDbEntity
  8
Base
 62
7
100
AcDbLine
 10
450.912314
 20
656.353534
 30
0.0
 11
447.307892
 21
652.381419
 31
0.0
  0
LINE
  5
116
100
AcDbEntity
  8
Base
 62
7
100
AcDbLine
 10
447.307892
 20
652.381419
 30
0.0
 11
443.844219
 21
648.284552
 31
0.0
  0
LINE
  5
117
100
AcDbEntity
  8
Base
 62
7
100
AcDbLine
 10
443.844219
 20
648.284552
 30
0.0
 11
440.517653
 21
644.077091
 31
0.0
  0
LINE
  5
118
100
AcDbEntity
  8
Base
 62
7
100
AcDbLine
 10
440.517653
 20
644.077091
 30
0.0
 11
437.324550
 21
639.773190
 31
0.0
  0
LINE
  5
119
100
AcDbEntity
  8
Base
 62
7
100
AcDbLine
 10
437.324550
 20
639.773190
 30
0.0
 11
431.865360
 21
647.048195
 31
0.0
  0
LINE
  5
11a
100
AcDbEntity
  8
Base
 62
7
100
AcDbLine
 10
431.865360
 20
647.048195
 30
0.0
 11
425.993170
 21
653.912905
 31
0.0
  0
LINE
  5
11b
100
AcDbEntity
  8
Base
 62
7
100
AcDbLine
 10
425.993170
 20
653.912905
 30
0.0
 11
419.735683
 21
660.374901
 31
0.0
  0
LINE
  5
11c
100
AcDbEntity
  8
Base
 62
7
100
AcDbLine
 10
419.735683
 20
660.374901
 30
0.0
 11
413.120605
 21
666.441765
 31
0.0
  0
LINE
  5
11d
100
AcDbEntity
  8
Base
 62
7
100
AcDbLine
 10
413.120605
 20
666.441765
 30
0.0
 11
406.175639
 21
672.121078
 31
0.0
  0
LINE
  5
11e
100
AcDbEntity
  8
Base
 62
7
100
AcDbLine
 10
406.175639
 20
672.121078
 30
0.0
 11
398.928491
 21
677.420421
 31
0.0
  0
LINE
  5
11f
100
AcDbEntity
  8
Base
 62
7
100
AcDbLine
 10
398.928491
 20
677.420421
 30
0.0
 11
391.406865
 21
682.347374
 31
0.0
  0
LINE
  5
120
100
AcDbEntity
  8
Base
 62
7
100
AcDbLine
 10
391.406865
 20
682.347374
 30
0.0
 11
383.638465
 21
686.909520
 31
0.0
  0
LINE
  5
121
100
AcDbEntity
  8
Base
 62
7
100
AcDbLine
 10
383.638465
 20
686.909520
 30
0.0
 11
375.650996
 21
691.114440
 31
0.0
  0
LINE
  5
122
100
AcDbEntity
  8
Base
 62
7
100
AcDbLine
 10
375.650996
 20
691.114440
 30
0.0
 11
367.472163
 21
694.969714
 31
0.0
  0
LINE
  5
123
100
AcDbEntity
  8
Base
 62
7
100
AcDbLine
 10
367.472163
 20
694.969714
 30
0.0
 11
359.129671
 21
698.482924
 31
0.0
  0
LINE
  5
124
100
AcDbEntity
  8
Base
 62
7
100
AcDbLine
 10
359.129671
 20
698.482924
 30
0.0
 11
350.651223
 21
701.661651
 31
0.0
  0
LINE
  5
125
100
AcDbEntity
  8
Base
 62
7
100
AcDbLine
 10
350.651223
 20
701.661651
 30
0.0
 11
342.064524
 21
704.513476
 31
0.0
  0
LINE
  5
126
100
AcDbEntity
  8
Base
 62
7
100
AcDbLine
 10
342.064524
 20
704.513476
 30
0.0
 11
333.397279
 21
707.045981
 31
0.0
  0
LINE
  5
127
100
AcDbEntity
  8
Base
 62
7
100
AcDbLine
 10
333.397279
 20
707.045981
 30
0.0
 11
324.677193
 21
709.266746
 31
0.0
  0
LINE
  5
128
100
AcDbEntity
  8
Base
 62
7
100
AcDbLine
 10
324.677193
 20
709.266746
 30
0.0
 11
315.931970
 21
711.183352
 31
0.0
  0
LINE
  5
129
100
AcDbEntity
  8
Base
 62
7
100
AcDbLine
 10
315.931970
 20
711.183352
 30
0.0
 11
304.221531
 21
713.665191
 31
0.0
  0
LINE
  5
12a
100
AcDbEntity
  8
Base
 62
7
100
AcDbLine
 10
304.221531
 20
713.665191
 30
0.0
 11
292.388007
 21
715.730349
 31
0.0
  0
LINE
  5
12b
100
AcDbEntity
  8
Base
 62
7
100
AcDbLine
 10
292.388007
 20
715.730349
 30
0.0
 11
280.457983
 21
717.362098
 31
0.0
  0
LINE
  5
12c
100
AcDbEntity
  8
Base
 62
7
100
AcDbLine
 10
280.457983
 20
717.362098
 30
0.0
 11
268.458045
 21
718.543712
 31
0.0
  0
LINE
  5
12d
100
AcDbEntity
  8
Base
 62
7
100
AcDbLine
 10
268.458045
 20
718.543712
 30
0.0
 11
256.414779
 21
719.258463
 31
0.0
  0
LINE
  5
12e
100
AcDbEntity
  8
Base
 62
7
100
AcDbLine
 10
256.414779
 20
719.258463
 30
0.0
 11
244.354772
 21
719.489624
 31
0.0
  0
LINE
  5
12f
100
AcDbEntity
  8
Base
 62
7
100
AcDbLine
 10
244.354772
 20
719.489624
 30
0.0
 11
232.304609
 21
719.220467
 31
0.0
  0
LINE
  5
130
100
AcDbEntity
  8
Base
 62
7
100
AcDbLine
 10
232.304609
 20
719.220467
 30
0.0
 11
220.290876
 21
718.434267
 31
0.0
  0
LINE
  5
131
100
AcDbEntity
  8
Base
 62
7
100
AcDbLine
 10
220.290876
 20
718.434267
 30
0.0
 11
208.340160
 21
717.114295
 31
0.0
  0
LINE
  5
132
100
AcDbEntity
  8
Base
 62
7
100
AcDbLine
 10
208.340160
 20
717.114295
 30
0.0
 11
196.479047
 21
715.243825
 31
0.0
  0
LINE
  5
133
100
AcDbEntity
  8
Base
 62
7
100
AcDbLine
 10
196.479047
 20
715.243825
 30
0.0
 11
184.734122
 21
712.806130
 31
0.0
  0
LINE
  5
134
100
AcDbEntity
  8
Base
 62
7
100
AcDbLine
 10
184.734122
 20
712.806130
 30
0.0
 11
178.913539
 21
711.369346
 31
0.0
  0
LINE
  5
135
100
AcDbEntity
  8
Base
 62
7
100
AcDbLine
 10
178.913539
 20
711.369346
 30
0.0
 11
173.131972
 21
709.784482
 31
0.0
  0
LINE
  5
136
100
AcDbEntity
  8
Base
 62
7
100
AcDbLine
 10
173.131972
 20
709.784482
 30
0.0
 11
167.392746
 21
708.049449
 31
0.0
  0
LINE
  5
137
100
AcDbEntity
  8
Base
 62
7
100
AcDbLine
 10
167.392746
 20
708.049449
 30
0.0
 11
161.699183
 21
706.162154
 31
0.0
  0
LINE
  5
138
100
AcDbEntity
  8
Base
 62
7
100
AcDbLine
 10
161.699183
 20
706.162154
 30
0.0
 11
156.054607
 21
704.120508
 31
0.0
  0
LINE
  5
139
100
AcDbEntity
  8
Base
 62
7
100
AcDbLine
 10
156.054607
 20
704.120508
 30
0.0
 11
150.462341
 21
701.922420
 31
0.0
  0
LINE
  5
13a
100
AcDbEntity
  8
Base
 62
7
100
AcDbLine
 10
150.462341
 20
701.922420
 30
0.0
 11
144.925707
 21
699.565798
 31
0.0
  0
LINE
  5
13b
100
AcDbEntity
  8
Base
 62
7
100
AcDbLine
 10
144.925707
 20
699.565798
 30
0.0
 11
139.448031
 21
697.048551
 31
0.0
  0
LINE
  5
13c
100
AcDbEntity
  8
Base
 62
7
100
AcDbLine
 10
139.448031
 20
697.048551
 30
0.0
 11
134.032634
 21
694.368590
 31
0.0
  0
LINE
  5
13d
100
AcDbEntity
  8
Base
 62
7
100
AcDbLine
 10
134.032634
 20
694.368590
 30
0.0
 11
128.682840
 21
691.523822
 31
0.0
  0
LINE
  5
13e
100
AcDbEntity
  8
Base
 62
7
100
AcDbLine
 10
128.682840
 20
691.523822
 30
0.0
 11
123.401206
 21
688.493343
 31
0.0
  0
LINE
  5
13f
100
AcDbEntity
  8
Base
 62
7
100
AcDbLine
 10
123.401206
 20
688.493343
 30
0.0
 11
118.241034
 21
685.285345
 31
0.0
  0
LINE
  5
140
100
AcDbEntity
  8
Base
 62
7
100
AcDbLine
 10
118.241034
 20
685.285345
 30
0.0
 11
113.204571
 21
681.905210
 31
0.0
  0
LINE
  5
141
100
AcDbEntity
  8
Base
 62
7
100
AcDbLine
 10
113.204571
 20
681.905210
 30
0.0
 11
108.294066
 21
678.358318
 31
0.0
  0
LINE
  5
142
100
AcDbEntity
  8
Base
 62
7
100
AcDbLine
 10
108.294066
 20
678.358318
 30
0.0
 11
103.511768
 21
674.650053
 31
0.0
  0
LINE
  5
143
100
AcDbEntity
  8
Base
 62
7
100
AcDbLine
 10
103.511768
 20
674.650053
 30
0.0
 11
98.859924
 21
670.785796
 31
0.0
  0
LINE
  5
144
100
AcDbEntity
  8
Base
 62
7
100
AcDbLine
 10
98.859924
 20
670.785796
 30
0.0
 11
94.340783
 21
666.770930
 31
0.0
  0
LINE
  5
145
100
AcDbEntity
  8
Base
 62
7
100
AcDbLine
 10
94.340783
 20
666.770930
 30
0.0
 11
89.956592
 21
662.610835
 31
0.0
  0
LINE
  5
146
100
AcDbEntity
  8
Base
 62
7
100
AcDbLine
 10
89.956592
 20
662.610835
 30
0.0
 11
85.709601
 21
658.310894
 31
0.0
  0
LINE
  5
147
100
AcDbEntity
  8
Base
 62
7
100
AcDbLine
 10
85.709601
 20
658.310894
 30
0.0
 11
81.602058
 21
653.876489
 31
0.0
  0
LINE
  5
148
100
AcDbEntity
  8
Base
 62
7
100
AcDbLine
 10
81.602058
 20
653.876489
 30
0.0
 11
77.636210
 21
649.313002
 31
0.0
  0
LINE
  5
149
100
AcDbEntity
  8
Base
 62
7
100
AcDbLine
 10
77.636210
 20
649.313002
 30
0.0
 11
73.814306
 21
644.625814
 31
0.0
  0
LINE
  5
14a
100
AcDbEntity
  8
Base
 62
7
100
AcDbLine
 10
73.814306
 20
644.625814
 30
0.0
 11
70.138594
 21
639.820308
 31
0.0
  0
LINE
  5
14b
100
AcDbEntity
  8
Base
 62
7
100
AcDbLine
 10
70.138594
 20
639.820308
 30
0.0
 11
66.611322
 21
634.901865
 31
0.0
  0
LINE
  5
14c
100
AcDbEntity
  8
Base
 62
7
100
AcDbLine
 10
66.611322
 20
634.901865
 30
0.0
 11
63.234739
 21
629.875868
 31
0.0
  0
LINE
  5
14d
100
AcDbEntity
  8
Base
 62
7
100
AcDbLine
 10
63.234739
 20
629.875868
 30
0.0
 11
60.011093
 21
624.747697
 31
0.0
  0
LINE
  5
14e
100
AcDbEntity
  8
Base
 62
7
100
AcDbLine
 10
60.011093
 20
624.747697
 30
0.0
 11
56.942633
 21
619.522736
 31
0.0
  0
LINE
  5
14f
100
AcDbEntity
  8
Base
 62
7
100
AcDbLine
 10
56.942633
 20
619.522736
 30
0.0
 11
54.031605
 21
614.206366
 31
0.0
  0
LINE
  5
150
100
AcDbEntity
  8
Base
 62
7
100
AcDbLine
 10
54.031605
 20
614.206366
 30
0.0
 11
51.280259
 21
608.803969
 31
0.0
  0
LINE
  5
151
100
AcDbEntity
  8
Base
 62
7
100
AcDbLine
 10
51.280259
 20
608.803969
 30
0.0
 11
48.690843
 21
603.320927
 31
0.0
  0
LINE
  5
152
100
AcDbEntity
  8
Base
 62
7
100
AcDbLine
 10
48.690843
 20
603.320927
 30
0.0
 11
46.265605
 21
597.762621
 31
0.0
  0
LINE
  5
153
100
AcDbEntity
  8
Base
 62
7
100
AcDbLine
 10
46.265605
 20
597.762621
 30
0.0
 11
44.006794
 21
592.134434
 31
0.0
  0
LINE
  5
154
100
AcDbEntity
  8
Base
 62
7
100
AcDbLine
 10
44.006794
 20
592.134434
 30
0.0
 11
41.916657
 21
586.441748
 31
0.0
  0
LINE
  5
155
100
AcDbEntity
  8
Base
 62
7
100
AcDbLine
 10
41.916657
 20
586.441748
 30
0.0
 11
39.997443
 21
580.689944
 31
0.0
  0
LINE
  5
156
100
AcDbEntity
  8
Base
 62
7
100
AcDbLine
 10
39.997443
 20
580.689944
 30
0.0
 11
38.251400
 21
574.884404
 31
0.0
  0
LINE
  5
157
100
AcDbEntity
  8
Base
 62
7
100
AcDbLine
 10
38.251400
 20
574.884404
 30
0.0
 11
36.680776
 21
569.030511
 31
0.0
  0
LINE
  5
158
100
AcDbEntity
  8
Base
 62
7
100
AcDbLine
 10
36.680776
 20
569.030511
 30
0.0
 11
35.287820
 21
563.133646
 31
0.0
  0
LINE
  5
159
100
AcDbEntity
  8
Base
 62
7
100
AcDbLine
 10
35.287820
 20
563.133646
 30
0.0
 11
34.074780
 21
557.199191
 31
0.0
  0
LINE
  5
15a
100
AcDbEntity
  8
Base
 62
7
100
AcDbLine
 10
34.074780
 20
557.199191
 30
0.0
 11
33.043903
 21
551.232528
 31
0.0
  0
LINE
  5
15b
100
AcDbEntity
  8
Base
 62
7
100
AcDbLine
 10
33.043903
 20
551.232528
 30
0.0
 11
32.197439
 21
545.239039
 31
0.0
  0
LINE
  5
15c
100
AcDbEntity
  8
Base
 62
7
100
AcDbLine
 10
32.197439
 20
545.239039
 30
0.0
 11
31.537636
 21
539.224106
 31
0.0
  0
LINE
  5
15d
100
AcDbEntity
  8
Base
 62
7
100
AcDbLine
 10
31.537636
 20
539.224106
 30
0.0
 11
31.066741
 21
533.193110
 31
0.0
  0
LINE
  5
15e
100
AcDbEntity
  8
Base
 62
7
100
AcDbLine
 10
31.066741
 20
533.193110
 30
0.0
 11
30.405946
 21
525.589122
 31
0.0
  0
LINE
  5
15f
100
AcDbEntity
  8
Base
 62
7
100
AcDbLine
 10
30.405946
 20
525.589122
 30
0.0
 11
29.965462
 21
517.982740
 31
0.0
  0
LINE
  5
160
100
AcDbEntity
  8
Base
 62
7
100
AcDbLine
 10
29.965462
 20
517.982740
 30
0.0
 11
29.742386
 21
510.377897
 31
0.0
  0
LINE
  5
161
100
AcDbEntity
  8
Base
 62
7
100
AcDbLine
 10
29.742386
 20
510.377897
 30
0.0
 11
29.733813
 21
502.778529
 31
0.0
  0
LINE
  5
162
100
AcDbEntity
  8
Base
 62
7
100
AcDbLine
 10
29.733813
 20
502.778529
 30
0.0
 11
29.936838
 21
495.188569
 31
0.0
  0
LINE
  5
163
100
AcDbEntity
  8
Base
 62
7
100
AcDbLine
 10
29.936838
 20
495.188569
 30
0.0
 11
30.348557
 21
487.611951
 31
0.0
  0
LINE
  5
164
100
AcDbEntity
  8
Base
 62
7
100
AcDbLine
 10
30.348557
 20
487.611951
 30
0.0
 11
30.966065
 21
480.052611
 31
0.0
  0
LINE
  5
165
100
AcDbEntity
  8
Base
 62
7
100
AcDbLine
 10
30.966065
 20
480.052611
 30
0.0
 11
31.786456
 21
472.514483
 31
0.0
  0
LINE
  5
166
100
AcDbEntity
  8
Base
 62
7
100
AcDbLine
 10
31.786456
 20
472.514483
 30
0.0
 11
32.806828
 21
465.001500
 31
0.0
  0
LINE
  5
167
100
AcDbEntity
  8
Base
 62
7
100
AcDbLine
 10
32.806828
 20
465.001500
 30
0.0
 11
34.024274
 21
457.517598
 31
0.0
  0
LINE
  5
168
100
AcDbEntity
  8
Base
 62
7
100
AcDbLine
 10
34.024274
 20
457.517598
 30
0.0
 11
35.435890
 21
450.066711
 31
0.0
  0
LINE
  5
169
100
AcDbEntity
  8
Base
 62
7
100
AcDbLine
 10
35.435890
 20
450.066711
 30
0.0
 11
37.038772
 21
442.652772
 31
0.0
  0
LINE
  5
16a
100
AcDbEntity
  8
Base
 62
7
100
AcDbLine
 10
37.038772
 20
442.652772
 30
0.0
 11
38.830015
 21
435.279718
 31
0.0
  0
LINE
  5
16b
100
AcDbEntity
  8
Base
 62
7
100
AcDbLine
 10
38.830015
 20
435.279718
 30
0.0
 11
40.806714
 21
427.951481
 31
0.0
  0
LINE
  5
16c
100
AcDbEntity
  8
Base
 62
7
100
AcDbLine
 10
40.806714
 20
427.951481
 30
0.0
 11
42.965965
 21
420.671996
 31
0.0
  0
LINE
  5
16d
100
AcDbEntity
  8
Base
 62
7
100
AcDbLine
 10
42.965965
 20
420.671996
 30
0.0
 11
45.304863
 21
413.445199
 31
0.0
  0
LINE
  5
16e
100
AcDbEntity
  8
Base
 62
7
100
AcDbLine
 10
45.304863
 20
413.445199
 30
0.0
 11
47.820504
 21
406.275022
 31
0.0
  0
LINE
  5
16f
100
AcDbEntity
  8
Base
 62
7
100
AcDbLine
 10
47.820504
 20
406.275022
 30
0.0
 11
50.509982
 21
399.165401
 31
0.0
  0
LINE
  5
170
100
AcDbEntity
  8
Base
 62
7
100
AcDbLine
 10
50.509982
 20
399.165401
 30
0.0
 11
53.370393
 21
392.120270
 31
0.0
  0
LINE
  5
171
100
AcDbEntity
  8
Base
 62
7
100
AcDbLine
 10
53.370393
 20
392.120270
 30
0.0
 11
56.398832
 21
385.143563
 31
0.0
  0
LINE
  5
172
100
AcDbEntity
  8
Base
 62
7
100
AcDbLine
 10
56.398832
 20
385.143563
 30
0.0
 11
59.592396
 21
378.239215
 31
0.0
  0
LINE
  5
173
100
AcDbEntity
  8
Base
 62
7
100
AcDbLine
 10
59.592396
 20
378.239215
 30
0.0
 11
62.948178
 21
371.411159
 31
0.0
  0
LINE
  5
174
100
AcDbEntity
  8
Base
 62
7
100
AcDbLine
 10
62.948178
 20
371.411159
 30
0.0
 11
66.463275
 21
364.663331
 31
0.0
  0
LINE
  5
175
100
AcDbEntity
  8
Base
 62
7
100
AcDbLine
 10
66.463275
 20
364.663331
 30
0.0
 11
70.134782
 21
357.999665
 31
0.0
  0
LINE
  5
176
100
AcDbEntity
  8
Base
 62
7
100
AcDbLine
 10
70.134782
 20
357.999665
 30
0.0
 11
73.959793
 21
351.424096
 31
0.0
  0
LINE
  5
177
100
AcDbEntity
  8
Base
 62
7
100
AcDbLine
 10
73.959793
 20
351.424096
 30
0.0
 11
77.935406
 21
344.940557
 31
0.0
  0
LINE
  5
178
100
AcDbEntity
  8
Base
 62
7
100
AcDbLine
 10
77.935406
 20
344.940557
 30
0.0
 11
82.058714
 21
338.552982
 31
0.0
  0
LINE
  5
179
100
AcDbEntity
  8
Base
 62
7
100
AcDbLine
 10
82.058714
 20
338.552982
 30
0.0
 11
86.326813
 21
332.265308
 31
0.0
  0
LINE
  5
17a
100
AcDbEntity
  8
Base
 62
7
100
AcDbLine
 10
86.326813
 20
332.265308
 30
0.0
 11
90.736799
 21
326.081467
 31
0.0
  0
LINE
  5
17b
100
AcDbEntity
  8
Base
 62
7
100
AcDbLine
 10
90.736799
 20
326.081467
 30
0.0
 11
95.285767
 21
320.005394
 31
0.0
  0
LINE
  5
17c
100
AcDbEntity
  8
Base
 62
7
100
AcDbLine
 10
95.285767
 20
320.005394
 30
0.0
 11
99.970812
 21
314.041023
 31
0.0
  0
LINE
  5
17d
100
AcDbEntity
  8
Base
 62
7
100
AcDbLine
 10
99.970812
 20
314.041023
 30
0.0
 11
104.789030
 21
308.192290
 31
0.0
  0
LINE
  5
17e
100
AcDbEntity
  8
Base
 62
7
100
AcDbLine
 10
104.789030
 20
308.192290
 30
0.0
 11
116.301941
 21
294.018578
 31
0.0
  0
LINE
  5
17f
100
AcDbEntity
  8
Base
 62
7
100
AcDbLine
 10
116.301941
 20
294.018578
 30
0.0
 11
128.144442
 21
280.148141
 31
0.0
  0
LINE
  5
180
100
AcDbEntity
  8
Base
 62
7
100
AcDbLine
 10
128.144442
 20
280.148141
 30
0.0
 11
140.296573
 21
266.566095
 31
0.0
  0
LINE
  5
181
100
AcDbEntity
  8
Base
 62
7
100
AcDbLine
 10
140.296573
 20
266.566095
 30
0.0
 11
152.738376
 21
253.257558
 31
0.0
  0
LINE
  5
182
100
AcDbEntity
  8
Base
 62
7
100
AcDbLine
 10
152.738376
 20
253.257558
 30
0.0
 11
165.449890
 21
240.207646
 31
0.0
  0
LINE
  5
183
100
AcDbEntity
  8
Base
 62
7
100
AcDbLine
 10
165.449890
 20
240.207646
 30
0.0
 11
178.411157
 21
227.401477
 31
0.0
  0
LINE
  5
184
100
AcDbEntity
  8
Base
 62
7
100
AcDbLine
 10
178.411157
 20
227.401477
 30
0.0
 11
191.602216
 21
214.824169
 31
0.0
  0
LINE
  5
185
100
AcDbEntity
  8
Base
 62
7
100
AcDbLine
 10
191.602216
 20
214.824169
 30
0.0
 11
205.003107
 21
202.460838
 31
0.0
  0
LINE
  5
186
100
AcDbEntity
  8
Base
 62
7
100
AcDbLine
 10
205.003107
 20
202.460838
 30
0.0
 11
218.593873
 21
190.296600
 31
0.0
  0
LINE
  5
187
100
AcDbEntity
  8
Base
 62
7
100
AcDbLine
 10
218.593873
 20
190.296600
 30
0.0
 11
232.354552
 21
178.316575
 31
0.0
  0
LINE
  5
188
100
AcDbEntity
  8
Base
 62
7
100
AcDbLine
 10
232.354552
 20
178.316575
 30
0.0
 11
246.265186
 21
166.505878
 31
0.0
  0
LINE
  5
189
100
AcDbEntity
  8
Base
 62
7
100
AcDbLine
 10
246.265186
 20
166.505878
 30
0.0
 11
260.305815
 21
154.849626
 31
0.0
  0
LINE
  5
18a
100
AcDbEntity
  8
Base
 62
7
100
AcDbLine
 10
260.305815
 20
154.849626
 30
0.0
 11
274.456480
 21
143.332938
 31
0.0
  0
LINE
  5
18b
100
AcDbEntity
  8
Base
 62
7
100
AcDbLine
 10
274.456480
 20
143.332938
 30
0.0
 11
288.697220
 21
131.940929
 31
0.0
  0
LINE
  5
18c
100
AcDbEntity
  8
Base
 62
7
100
AcDbLine
 10
288.697220
 20
131.940929
 30
0.0
 11
317.369090
 21
109.471420
 31
0.0
  0
LINE
  5
18d
100
AcDbEntity
  8
Base
 62
7
100
AcDbLine
 10
317.369090
 20
109.471420
 30
0.0
 11
345.401789
 21
88.617164
 31
0.0
  0
LINE
  5
18e
100
AcDbEntity
  8
Base
 62
7
100
AcDbLine
 10
345.401789
 20
88.617164
 30
0.0
 11
359.564577
 21
78.363604
 31
0.0
  0
LINE
  5
18f
100
AcDbEntity
  8
Base
 62
7
100
AcDbLine
 10
359.564577
 20
78.363604
 30
0.0
 11
373.856930
 21
68.293799
 31
0.0
  0
LINE
  5
190
100
AcDbEntity
  8
Base
 62
7
100
AcDbLine
 10
373.856930
 20
68.293799
 30
0.0
 11
388.302804
 21
58.458783
 31
0.0
  0
LINE
  5
191
100
AcDbEntity
  8
Base
 62
7
100
AcDbLine
 10
388.302804
 20
58.458783
 30
0.0
 11
402.926156
 21
48.909589
 31
0.0
  0
LINE
  5
192
100
AcDbEntity
  8
Base
 62
7
100
AcDbLine
 10
402.926156
 20
48.909589
 30
0.0
 11
417.750939
 21
39.697250
 31
0.0
  0
LINE
  5
193
100
AcDbEntity
  8
Base
 62
7
100
AcDbLine
 10
417.750939
 20
39.697250
 30
0.0
 11
432.801110
 21
30.872800
 31
0.0
  0
LINE
  5
194
100
AcDbEntity
  8
Base
 62
7
100
AcDbLine
 10
432.801110
 20
30.872800
 30
0.0
 11
435.553546
 21
30.503741
 31
0.0
  0
LINE
  5
195
100
AcDbEntity
  8
Base
 62
7
100
AcDbLine
 10
435.553546
 20
30.503741
 30
0.0
 11
438.237434
 21
30.460387
 31
0.0
  0
LINE
  5
196
100
AcDbEntity
  8
Base
 62
7
100
AcDbLine
 10
438.237434
 20
30.460387
 30
0.0
 11
440.856497
 21
30.713632
 31
0.0
  0
LINE
  5
197
100
AcDbEntity
  8
Base
 62
7
100
AcDbLine
 10
440.856497
 20
30.713632
 30
0.0
 11
443.414457
 21
31.234370
 31
0.0
  0
LINE
  5
198
100
AcDbEntity
  8
Base
 62
7
100
AcDbLine
 10
443.414457
 20
31.234370
 30
0.0
 11
445.915036
 21
31.993498
 31
0.0
  0
LINE
  5
199
100
AcDbEntity
  8
Base
 62
7
100
AcDbLine
 10
445.915036
 20
31.993498
 30
0.0
 11
448.361958
 21
32.961910
 31
0.0
  0
LINE
  5
19a
100
AcDbEntity
  8
Base
 62
7
100
AcDbLine
 10
448.361958
 20
32.961910
 30
0.0
 11
450.758944
 21
34.110501
 31
0.0
  0
LINE
  5
19b
100
AcDbEntity
  8
Base
 62
7
100
AcDbLine
 10
450.758944
 20
34.110501
 30
0.0
 11
453.109717
 21
35.410165
 31
0.0
  0
LINE
  5
19c
100
AcDbEntity
  8
Base
 62
7
100
AcDbLine
 10
453.109717
 20
35.410165
 30
0.0
 11
457.687515
 21
38.346295
 31
0.0
  0
LINE
  5
19d
100
AcDbEntity
  8
Base
 62
7
100
AcDbLine
 10
457.687515
 20
38.346295
 30
0.0
 11
462.125129
 21
41.537460
 31
0.0
  0
LINE
  5
19e
100
AcDbEntity
  8
Base
 62
7
100
AcDbLine
 10
462.125129
 20
41.537460
 30
0.0
 11
466.452341
 21
44.750818
 31
0.0
  0
LINE
  5
19f
100
AcDbEntity
  8
Base
 62
7
100
AcDbLine
 10
466.452341
 20
44.750818
 30
0.0
 11
470.698930
 21
47.753530
 31
0.0
  0
LINE
  5
1a0
100
AcDbEntity
  8
Base
 62
7
100
AcDbLine
 10
470.698930
 20
47.753530
 30
0.0
 11
491.891861
 21
62.258583
 31
0.0
  0
LINE
  5
1a1
100
AcDbEntity
  8
Base
 62
7
100
AcDbLine
 10
491.891861
 20
62.258583
 30
0.0
 11
512.962918
 21
76.998108
 31
0.0
  0
LINE
  5
1a2
100
AcDbEntity
  8
Base
 62
7
100
AcDbLine
 10
512.962918
 20
76.998108
 30
0.0
 11
533.882020
 21
91.991429
 31
0.0
  0
LINE
  5
1a3
100
AcDbEntity
  8
Base
 62
7
100
AcDbLine
 10
533.882020
 20
91.991429
 30
0.0
 11
554.619084
 21
107.257874
 31
0.0
  0
LINE
  5
1a4
100
AcDbEntity
  8
Base
 62
7
100
AcDbLine
 10
554.619084
 20
107.257874
 30
0.0
 11
575.144030
 21
122.816767
 31
0.0
  0
LINE
  5
1a5
100
AcDbEntity
  8
Base
 62
7
100
AcDbLine
 10
575.144030
 20
122.816767
 30
0.0
 11
595.426775
 21
138.687433
 31
0.0
  0
LINE
  5
1a6
100
AcDbEntity
  8
Base
 62
7
100
AcDbLine
 10
595.426775
 20
138.687433
 30
0.0
 11
615.437236
 21
154.889198
 31
0.0
  0
LINE
  5
1a7
100
AcDbEntity
  8
Base
 62
7
100
AcDbLine
 10
615.437236
 20
154.889198
 30
0.0
 11
635.145334
 21
171.441388
 31
0.0
  0
LINE
  5
1a8
100
AcDbEntity
  8
Base
 62
7
100
AcDbLine
 10
635.145334
 20
171.441388
 30
0.0
 11
654.520985
 21
188.363327
 31
0.0
  0
LINE
  5
1a9
100
AcDbEntity
  8
Base
 62
7
100
AcDbLine
 10
654.520985
 20
188.363327
 30
0.0
 11
673.534107
 21
205.674341
 31
0.0
  0
LINE
  5
1aa
100
AcDbEntity
  8
Base
 62
7
100
AcDbLine
 10
673.534107
 20
205.674341
 30
0.0
 11
692.154619
 21
223.393756
 31
0.0
  0
LINE
  5
1ab
100
AcDbEntity
  8
Base
 62
7
100
AcDbLine
 10
692.154619
 20
223.393756
 30
0.0
 11
701.308246
 21
232.412653
 31
0.0
  0
LINE
  5
1ac
100
AcDbEntity
  8
Base
 62
7
100
AcDbLine
 10
701.308246
 20
232.412653
 30
0.0
 11
710.352439
 21
241.540897
 31
0.0
  0
LINE
  5
1ad
100
AcDbEntity
  8
Base
 62
7
100
AcDbLine
 10
710.352439
 20
241.540897
 30
0.0
 11
719.283439
 21
250.780904
 31
0.0
  0
LINE
  5
1ae
100
AcDbEntity
  8
Base
 62
7
100
AcDbLine
 10
719.283439
 20
250.780904
 30
0.0
 11
728.097485
 21
260.135090
 31
0.0
  0
LINE
  5
1af
100
AcDbEntity
  8
Base
 62
7
100
AcDbLine
 10
728.097485
 20
260.135090
 30
0.0
 11
736.790817
 21
269.605869
 31
0.0
  0
LINE
  5
1b0
100
AcDbEntity
  8
Base
 62
7
100
AcDbLine
 10
736.790817
 20
269.605869
 30
0.0
 11
745.359675
 21
279.195659
 31
0.0
  0
LINE
  5
1b1
100
AcDbEntity
  8
Base
 62
7
100
AcDbLine
 10
745.359675
 20
279.195659
 30
0.0
 11
753.800298
 21
288.906874
 31
0.0
  0
LINE
  5
1b2
100
AcDbEntity
  8
Base
 62
7
100
AcDbLine
 10
753.800298
 20
288.906874
 30
0.0
 11
762.108927
 21
298.741931
 31
0.0
  0
LINE
  5
1b3
100
AcDbEntity
  8
Base
 62
7
100
AcDbLine
 10
762.108927
 20
298.741931
 30
0.0
 11
770.281801
 21
308.703244
 31
0.0
  0
LINE
  5
1b4
100
AcDbEntity
  8
Base
 62
7
100
AcDbLine
 10
770.281801
 20
308.703244
 30
0.0
 11
778.315160
 21
318.793230
 31
0.0
  0
LINE
  5
1b5
100
AcDbEntity
  8
Base
 62
7
100
AcDbLine
 10
778.315160
 20
318.793230
 30
0.0
 11
783.061484
 21
325.006973
 31
0.0
  0
LINE
  5
1b6
100
AcDbEntity
  8
Base
 62
7
100
AcDbLine
 10
783.061484
 20
325.006973
 30
0.0
 11
787.659642
 21
331.342206
 31
0.0
  0
LINE
  5
1b7
100
AcDbEntity
  8
Base
 62
7
100
AcDbLine
 10
787.659642
 20
331.342206
 30
0.0
 11
792.106450
 21
337.794192
 31
0.0
  0
LINE
  5
1b8
100
AcDbEntity
  8
Base
 62
7
100
AcDbLine
 10
792.106450
 20
337.794192
 30
0.0
 11
796.398725
 21
344.358195
 31
0.0
  0
LINE
  5
1b9
100
AcDbEntity
  8
Base
 62
7
100
AcDbLine
 10
796.398725
 20
344.358195
 30
0.0
 11
800.533282
 21
351.029479
 31
0.0
  0
LINE
  5
1ba
100
AcDbEntity
  8
Base
 62
7
100
AcDbLine
 10
800.533282
 20
351.029479
 30
0.0
 11
804.506936
 21
357.803308
 31
0.0
  0
LINE
  5
1bb
100
AcDbEntity
  8
Base
 62
7
100
AcDbLine
 10
804.506936
 20
357.803308
 30
0.0
 11
808.316505
 21
364.674946
 31
0.0
  0
LINE
  5
1bc
100
AcDbEntity
  8
Base
 62
7
100
AcDbLine
 10
808.316505
 20
364.674946
 30
0.0
 11
811.958804
 21
371.639656
 31
0.0
  0
LINE
  5
1bd
100
AcDbEntity
  8
Base
 62
7
100
AcDbLine
 10
811.958804
 20
371.639656
 30
0.0
 11
815.430648
 21
378.692702
 31
0.0
  0
LINE
  5
1be
100
AcDbEntity
  8
Base
 62
7
100
AcDbLine
 10
815.430648
 20
378.692702
 30
0.0
 11
818.728855
 21
385.829347
 31
0.0
  0
LINE
  5
1bf
100
AcDbEntity
  8
Base
 62
7
100
AcDbLine
 10
818.728855
 20
385.829347
 30
0.0
 11
821.850239
 21
393.044856
 31
0.0
  0
LINE
  5
1c0
100
AcDbEntity
  8
Base
 62
7
100
AcDbLine
 10
821.850239
 20
393.044856
 30
0.0
 11
824.791617
 21
400.334493
 31
0.0
  0
LINE
  5
1c1
100
AcDbEntity
  8
Base
 62
7
100
AcDbLine
 10
824.791617
 20
400.334493
 30
0.0
 11
827.549804
 21
407.693520
 31
0.0
  0
LINE
  5
1c2
100
AcDbEntity
  8
Base
 62
7
100
AcDbLine
 10
827.549804
 20
407.693520
 30
0.0
 11
830.121617
 21
415.117202
 31
0.0
  0
LINE
  5
1c3
100
AcDbEntity
  8
Base
 62
7
100
AcDbLine
 10
830.121617
 20
415.117202
 30
0.0
 11
832.503872
 21
422.600803
 31
0.0
  0
LINE
  5
1c4
100
AcDbEntity
  8
Base
 62
7
100
AcDbLine
 10
832.503872
 20
422.600803
 30
0.0
 11
834.693384
 21
430.139586
 31
0.0
  0
LINE
  5
1c5
100
AcDbEntity
  8
Base
 62
7
100
AcDbLine
 10
834.693384
 20
430.139586
 30
0.0
 11
836.686969
 21
437.728815
 31
0.0
  0
LINE
  5
1c6
100
AcDbEntity
  8
Base
 62
7
100
AcDbLine
 10
836.686969
 20
437.728815
 30
0.0
 11
838.481444
 21
445.363755
 31
0.0
  0
LINE
  5
1c7
100
AcDbEntity
  8
Base
 62
7
100
AcDbLine
 10
838.481444
 20
445.363755
 30
0.0
 11
840.073624
 21
453.039667
 31
0.0
  0
LINE
  5
1c8
100
AcDbEntity
  8
Base
 62
7
100
AcDbLine
 10
840.073624
 20
453.039667
 30
0.0
 11
841.460325
 21
460.751817
 31
0.0
  0
LINE
  5
1c9
100
AcDbEntity
  8
Base
 62
7
100
AcDbLine
 10
841.460325
 20
460.751817
 30
0.0
 11
842.638363
 21
468.495468
 31
0.0
  0
LINE
  5
1ca
100
AcDbEntity
  8
Base
 62
7
100
AcDbLine
 10
842.638363
 20
468.495468
 30
0.0
 11
843.604554
 21
476.265884
 31
0.0
  0
LINE
  5
1cb
100
AcDbEntity
  8
Base
 62
7
100
AcDbLine
 10
843.604554
 20
476.265884
 30
0.0
 11
844.355714
 21
484.058329
 31
0.0
  0
LINE
  5
1cc
100
AcDbEntity
  8
Base
 62
7
100
AcDbLine
 10
844.355714
 20
484.058329
 30
0.0
 11
844.888659
 21
491.868066
 31
0.0
  0
LINE
  5
1cd
100
AcDbEntity
  8
Base
 62
7
100
AcDbLine
 10
844.888659
 20
491.868066
 30
0.0
 11
845.200205
 21
499.690359
 31
0.0
  0
LINE
  5
1ce
100
AcDbEntity
  8
Base
 62
7
100
AcDbLine
 10
845.200205
 20
499.690359
 30
0.0
 11
845.287168
 21
507.520472
 31
0.0
  0
LINE
  5
1cf
100
AcDbEntity
  8
Base
 62
7
100
AcDbLine
 10
845.287168
 20
507.520472
 30
0.0
 11
845.146364
 21
515.353669
 31
0.0
  0
LINE
  5
1d0
100
AcDbEntity
  8
Base
 62
7
100
AcDbLine
 10
845.146364
 20
515.353669
 30
0.0
 11
844.774608
 21
523.185213
 31
0.0
  0
LINE
  5
1d1
100
AcDbEntity
  8
Base
 62
7
100
AcDbLine
 10
844.774608
 20
523.185213
 30
0.0
 11
844.168717
 21
531.010369
 31
0.0
  0
LINE
  5
1d2
100
AcDbEntity
  8
Base
 62
7
100
AcDbLine
 10
844.168717
 20
531.010369
 30
0.0
 11
843.325506
 21
538.824399
 31
0.0
  0
LINE
  5
1d3
100
AcDbEntity
  8
Base
 62
7
100
AcDbLine
 10
843.325506
 20
538.824399
 30
0.0
 11
842.241792
 21
546.622568
 31
0.0
  0
LINE
  5
1d4
100
AcDbEntity
  8
Base
 62
7
100
AcDbLine
 10
842.241792
 20
546.622568
 30
0.0
 11
840.914390
 21
554.400140
 31
0.0
  0
LINE
  5
1d5
100
AcDbEntity
  8
Base
 62
7
100
AcDbLine
 10
840.914390
 20
554.400140
 30
0.0
 11
838.922341
 21
564.104958
 31
0.0
  0
LINE
  5
1d6
100
AcDbEntity
  8
Base
 62
7
100
AcDbLine
 10
838.922341
 20
564.104958
 30
0.0
 11
836.482128
 21
573.732446
 31
0.0
  0
LINE
  5
1d7
100
AcDbEntity
  8
Base
 62
7
100
AcDbLine
 10
836.482128
 20
573.732446
 30
0.0
 11
833.597614
 21
583.254221
 31
0.0
  0
LINE
  5
1d8
100
AcDbEntity
  8
Base
 62
7
100
AcDbLine
 10
833.597614
 20
583.254221
 30
0.0
 11
830.272659
 21
592.641900
 31
0.0
  0
LINE
  5
1d9
100
AcDbEntity
  8
Base
 62
7
100
AcDbLine
 10
830.272659
 20
592.641900
 30
0.0
 11
826.511127
 21
601.867103
 31
0.0
  0
LINE
  5
1da
100
AcDbEntity
  8
Base
 62
7
100
AcDbLine
 10
826.511127
 20
601.867103
 30
0.0
 11
822.316879
 21
610.901446
 31
0.0
  0
LINE
  5
1db
100
AcDbEntity
  8
Base
 62
7
100
AcDbLine
 10
822.316879
 20
610.901446
 30
0.0
 11
817.693778
 21
619.716549
 31
0.0
  0
LINE
  5
1dc
100
AcDbEntity
  8
Base
 62
7
100
AcDbLine
 10
817.693778
 20
619.716549
 30
0.0
 11
812.645685
 21
628.284027
 31
0.0
  0
LINE
  5
1dd
100
AcDbEntity
  8
Base
 62
7
100
AcDbLine
 10
812.645685
 20
628.284027
 30
0.0
 11
807.176463
 21
636.575500
 31
0.0
  0
LINE
  5
1de
100
AcDbEntity
  8
Base
 62
7
100
AcDbLine
 10
807.176463
 20
636.575500
 30
0.0
 11
801.289974
 21
644.562586
 31
0.0
  0
LINE
  5
1df
100
AcDbEntity
  8
Base
 62
7
100
AcDbLine
 10
801.289974
 20
644.562586
 30
0.0
 11
794.990080
 21
652.216902
 31
0.0
  0
LINE
  5
1e0
100
AcDbEntity
  8
Base
 62
7
100
AcDbLine
 10
794.990080
 20
652.216902
 30
0.0
 11
788.280643
 21
659.510066
 31
0.0
  0
LINE
  5
1e1
100
AcDbEntity
  8
Base
 62
7
100
AcDbLine
 10
788.280643
 20
659.510066
 30
0.0
 11
781.165526
 21
666.413696
 31
0.0
  0
LINE
  5
1e2
100
AcDbEntity
  8
Base
 62
7
100
AcDbLine
 10
781.165526
 20
666.413696
 30
0.0
 11
773.648590
 21
672.899410
 31
0.0
  0
LINE
  5
1e3
100
AcDbEntity
  8
Base
 62
7
100
AcDbLine
 10
773.648590
 20
672.899410
 30
0.0
 11
769.740647
 21
675.976679
 31
0.0
  0
LINE
  5
1e4
100
AcDbEntity
  8
Base
 62
7
100
AcDbLine
 10
769.740647
 20
675.976679
 30
0.0
 11
765.733697
 21
678.938826
 31
0.0
  0
LINE
  5
1e5
100
AcDbEntity
  8
Base
 62
7
100
AcDbLine
 10
765.733697
 20
678.938826
 30
0.0
 11
761.628224
 21
681.782303
 31
0.0
  0
LINE
  5
1e6
100
AcDbEntity
  8
Base
 62
7
100
AcDbLine
 10
761.628224
 20
681.782303
 30
0.0
 11
757.424710
 21
684.503562
 31
0.0
  0
LINE
  5
1e7
100
AcDbEntity
  8
Base
 62
7
100
AcDbLine
 10
757.424710
 20
684.503562
 30
0.0
 11
750.511645
 21
688.815069
 31
0.0
  0
LINE
  5
1e8
100
AcDbEntity
  8
Base
 62
7
100
AcDbLine
 10
750.511645
 20
688.815069
 30
0.0
 11
743.438013
 21
692.840469
 31
0.0
  0
LINE
  5
1e9
100
AcDbEntity
  8
Base
 62
7
100
AcDbLine
 10
743.438013
 20
692.840469
 30
0.0
 11
736.215204
 21
696.580480
 31
0.0
  0
LINE
  5
1ea
100
AcDbEntity
  8
Base
 62
7
100
AcDbLine
 10
736.215204
 20
696.580480
 30
0.0
 11
728.854608
 21
700.035818
 31
0.0
  0
LINE
  5
1eb
100
AcDbEntity
  8
Base
 62
7
100
AcDbLine
 10
728.854608
 20
700.035818
 30
0.0
 11
721.367616
 21
703.207201
 31
0.0
  0
LINE
  5
1ec
100
AcDbEntity
  8
Base
 62
7
100
AcDbLine
 10
721.367616
 20
703.207201
 30
0.0
 11
713.765617
 21
706.095345
 31
0.0
  0
LINE
  5
1ed
100
AcDbEntity
  8
Base
 62
7
100
AcDbLine
 10
713.765617
 20
706.095345
 30
0.0
 11
706.060001
 21
708.700967
 31
0.0
  0
LINE
  5
1ee
100
AcDbEntity
  8
Base
 62
7
100
AcDbLine
 10
706.060001
 20
708.700967
 30
0.0
 11
698.262160
 21
711.024785
 31
0.0
  0
LINE
  5
1ef
100
AcDbEntity
  8
Base
 62
7
100
AcDbLine
 10
698.262160
 20
711.024785
 30
0.0
 11
690.383483
 21
713.067515
 31
0.0
  0
LINE
  5
1f0
100
AcDbEntity
  8
Base
 62
7
100
AcDbLine
 10
690.383483
 20
713.067515
 30
0.0
 11
682.435359
 21
714.829874
 31
0.0
  0
LINE
  5
1f1
100
AcDbEntity
  8
Base
 62
7
100
AcDbLine
 10
682.435359
 20
714.829874
 30
0.0
 11
674.429181
 21
716.312580
 31
0.0
  0
LINE
  5
1f2
100
AcDbEntity
  8
Base
 62
7
100
AcDbLine
 10
674.429181
 20
716.312580
 30
0.0
 11
666.376337
 21
717.516350
 31
0.0
  0
LINE
  5
1f3
100
AcDbEntity
  8
Base
 62
7
100
AcDbLine
 10
666.376337
 20
717.516350
 30
0.0
 11
658.288217
 21
718.441899
 31
0.0
  0
LINE
  5
1f4
100
AcDbEntity
  8
Base
 62
7
100
AcDbLine
 10
658.288217
 20
718.441899
 30
0.0
 11
650.176213
 21
719.089947
 31
0.0
  0
LINE
  5
1f5
100
AcDbEntity
  8
Base
 62
7
100
AcDbLine
 10
650.176213
 20
719.089947
 30
0.0
 11
642.051714
 21
719.461209
 31
0.0
  0
LINE
  5
1f6
100
AcDbEntity
  8
Base
 62
7
100
AcDbLine
 10
642.051714
 20
719.461209
 30
0.0
 11
633.926110
 21
719.556402
 31
0.0
  0
LINE
  5
1f7
100
AcDbEntity
  8
Base
 62
7
100
AcDbLine
 10
633.926110
 20
719.556402
 30
0.0
 11
633.926110
 21
719.556402
 31
0.0
  0
LINE
  5
1f8
100
AcDbEntity
  8
Outline
 62
7
100
AcDbLine
 10
633.949220
 20
719.587891
 30
0.0
 11
622.947880
 21
719.323089
 31
0.0
  0
LINE
  5
1f9
100
AcDbEntity
  8
Outline
 62
7
100
AcDbLine
 10
622.947880
 20
719.323089
 30
0.0
 11
611.914533
 21
718.764946
 31
0.0
  0
LINE
  5
1fa
100
AcDbEntity
  8
Outline
 62
7
100
AcDbLine
 10
611.914533
 20
718.764946
 30
0.0
 11
600.871941
 21
717.896660
 31
0.0
  0
LINE
  5
1fb
100
AcDbEntity
  8
Outline
 62
7
100
AcDbLine
 10
600.871941
 20
717.896660
 30
0.0
 11
589.842867
 21
716.701433
 31
0.0
  0
LINE
  5
1fc
100
AcDbEntity
  8
Outline
 62
7
100
AcDbLine
 10
589.842867
 20
716.701433
 30
0.0
 11
578.850073
 21
715.162465
 31
0.0
  0
LINE
  5
1fd
100
AcDbEntity
  8
Outline
 62
7
100
AcDbLine
 10
578.850073
 20
715.162465
 30
0.0
 11
567.916322
 21
713.262957
 31
0.0
  0
LINE
  5
1fe
100
AcDbEntity
  8
Outline
 62
7
100
AcDbLine
 10
567.916322
 20
713.262957
 30
0.0
 11
557.064377
 21
710.986107
 31
0.0
  0
LINE
  5
1ff
100
AcDbEntity
  8
Outline
 62
7
100
AcDbLine
 10
557.064377
 20
710.986107
 30
0.0
 11
546.317000
 21
708.315118
 31
0.0
  0
LINE
  5
200
100
AcDbEntity
  8
Outline
 62
7
100
AcDbLine
 10
546.317000
 20
708.315118
 30
0.0
 11
535.696955
 21
705.233188
 31
0.0
  0
LINE
  5
201
100
AcDbEntity
  8
Outline
 62
7
100
AcDbLine
 10
535.696955
 20
705.233188
 30
0.0
 11
525.227003
 21
701.723519
 31
0.0
  0
LINE
  5
202
100
AcDbEntity
  8
Outline
 62
7
100
AcDbLine
 10
525.227003
 20
701.723519
 30
0.0
 11
514.929909
 21
697.769310
 31
0.0
  0
LINE
  5
203
100
AcDbEntity
  8
Outline
 62
7
100
AcDbLine
 10
514.929909
 20
697.769310
 30
0.0
 11
504.828433
 21
693.353763
 31
0.0
  0
LINE
  5
204
100
AcDbEntity
  8
Outline
 62
7
100
AcDbLine
 10
504.828433
 20
693.353763
 30
0.0
 11
494.945340
 21
688.460076
 31
0.0
  0
LINE
  5
205
100
AcDbEntity
  8
Outline
 62
7
100
AcDbLine
 10
494.945340
 20
688.460076
 30
0.0
 11
485.303392
 21
683.071452
 31
0.0
  0
LINE
  5
206
100
AcDbEntity
  8
Outline
 62
7
100
AcDbLine
 10
485.303392
 20
683.071452
 30
0.0
 11
475.925351
 21
677.171089
 31
0.0
  0
LINE
  5
207
100
AcDbEntity
  8
Outline
 62
7
100
AcDbLine
 10
475.925351
 20
677.171089
 30
0.0
 11
471.342409
 21
674.023756
 31
0.0
  0
LINE
  5
208
100
AcDbEntity
  8
Outline
 62
7
100
AcDbLine
 10
471.342409
 20
674.023756
 30
0.0
 11
466.833980
 21
670.742188
 31
0.0
  0
LINE
  5
209
100
AcDbEntity
  8
Outline
 62
7
100
AcDbLine
 10
466.833980
 20
670.742188
 30
0.0
 11
462.630102
 21
667.410665
 31
0.0
  0
LINE
  5
20a
100
AcDbEntity
  8
Outline
 62
7
100
AcDbLine
 10
462.630102
 20
667.410665
 30
0.0
 11
458.581513
 21
663.897813
 31
0.0
  0
LINE
  5
20b
100
AcDbEntity
  8
Outline
 62
7
100
AcDbLine
 10
458.581513
 20
663.897813
 30
0.0
 11
454.684581
 21
660.217775
 31
0.0
  0
LINE
  5
20c
100
AcDbEntity
  8
Outline
 62
7
100
AcDbLine
 10
454.684581
 20
660.217775
 30
0.0
 11
450.935674
 21
656.384690
 31
0.0
  0
LINE
  5
20d
100
AcDbEntity
  8
Outline
 62
7
100
AcDbLine
 10
450.935674
 20
656.384690
 30
0.0
 11
447.331160
 21
652.412698
 31
0.0
  0
LINE
  5
20e
100
AcDbEntity
  8
Outline
 62
7
100
AcDbLine
 10
447.331160
 20
652.412698
 30
0.0
 11
443.867407
 21
648.315941
 31
0.0
  0
LINE
  5
20f
100
AcDbEntity
  8
Outline
 62
7
100
AcDbLine
 10
443.867407
 20
648.315941
 30
0.0
 11
440.540785
 21
644.108558
 31
0.0
  0
LINE
  5
210
100
AcDbEntity
  8
Outline
 62
7
100
AcDbLine
 10
440.540785
 20
644.108558
 30
0.0
 11
437.347660
 21
639.804690
 31
0.0
  0
LINE
  5
211
100
AcDbEntity
  8
Outline
 62
7
100
AcDbLine
 10
437.347660
 20
639.804690
 30
0.0
 11
431.888470
 21
647.079693
 31
0.0
  0
LINE
  5
212
100
AcDbEntity
  8
Outline
 62
7
100
AcDbLine
 10
431.888470
 20
647.079693
 30
0.0
 11
426.016280
 21
653.944402
 31
0.0
  0
LINE
  5
213
100
AcDbEntity
  8
Outline
 62
7
100
AcDbLine
 10
426.016280
 20
653.944402
 30
0.0
 11
419.758793
 21
660.406397
 31
0.0
  0
LINE
  5
214
100
AcDbEntity
  8
Outline
 62
7
100
AcDbLine
 10
419.758793
 20
660.406397
 30
0.0
 11
413.143715
 21
666.473261
 31
0.0
  0
LINE
  5
215
100
AcDbEntity
  8
Outline
 62
7
100
AcDbLine
 10
413.143715
 20
666.473261
 30
0.0
 11
406.198749
 21
672.152573
 31
0.0
  0
LINE
  5
216
100
AcDbEntity
  8
Outline
 62
7
100
AcDbLine
 10
406.198749
 20
672.152573
 30
0.0
 11
398.951601
 21
677.451915
 31
0.0
  0
LINE
  5
217
100
AcDbEntity
  8
Outline
 62
7
100
AcDbLine
 10
398.951601
 20
677.451915
 30
0.0
 11
391.429975
 21
682.378868
 31
0.0
  0
LINE
  5
218
100
AcDbEntity
  8
Outline
 62
7
100
AcDbLine
 10
391.429975
 20
682.378868
 30
0.0
 11
383.661575
 21
686.941014
 31
0.0
  0
LINE
  5
219
100
AcDbEntity
  8
Outline
 62
7
100
AcDbLine
 10
383.661575
 20
686.941014
 30
0.0
 11
375.674106
 21
691.145933
 31
0.0
  0
LINE
  5
21a
100
AcDbEntity
  8
Outline
 62
7
100
AcDbLine
 10
375.674106
 20
691.145933
 30
0.0
 11
367.495273
 21
695.001207
 31
0.0
  0
LINE
  5
21b
100
AcDbEntity
  8
Outline
 62
7
100
AcDbLine
 10
367.495273
 20
695.001207
 30
0.0
 11
359.152781
 21
698.514417
 31
0.0
  0
LINE
  5
21c
100
AcDbEntity
  8
Outline
 62
7
100
AcDbLine
 10
359.152781
 20
698.514417
 30
0.0
 11
350.674333
 21
701.693144
 31
0.0
  0
LINE
  5
21d
100
AcDbEntity
  8
Outline
 62
7
100
AcDbLine
 10
350.674333
 20
701.693144
 30
0.0
 11
342.087634
 21
704.544969
 31
0.0
  0
LINE
  5
21e
100
AcDbEntity
  8
Outline
 62
7
100
AcDbLine
 10
342.087634
 20
704.544969
 30
0.0
 11
333.420389
 21
707.077473
 31
0.0
  0
LINE
  5
21f
100
AcDbEntity
  8
Outline
 62
7
100
AcDbLine
 10
333.420389
 20
707.077473
 30
0.0
 11
324.700303
 21
709.298238
 31
0.0
  0
LINE
  5
220
100
AcDbEntity
  8
Outline
 62
7
100
AcDbLine
 10
324.700303
 20
709.298238
 30
0.0
 11
315.955080
 21
711.214844
 31
0.0
  0
LINE
  5
221
100
AcDbEntity
  8
Outline
 62
7
100
AcDbLine
 10
315.955080
 20
711.214844
 30
0.0
 11
304.244632
 21
713.696677
 31
0.0
  0
LINE
  5
222
100
AcDbEntity
  8
Outline
 62
7
100
AcDbLine
 10
304.244632
 20
713.696677
 30
0.0
 11
292.411079
 21
715.761816
 31
0.0
  0
LINE
  5
223
100
AcDbEntity
  8
Outline
 62
7
100
AcDbLine
 10
292.411079
 20
715.761816
 30
0.0
 11
280.481012
 21
717.393534
 31
0.0
  0
LINE
  5
224
100
AcDbEntity
  8
Outline
 62
7
100
AcDbLine
 10
280.481012
 20
717.393534
 30
0.0
 11
268.481019
 21
718.575108
 31
0.0
  0
LINE
  5
225
100
AcDbEntity
  8
Outline
 62
7
100
AcDbLine
 10
268.481019
 20
718.575108
 30
0.0
 11
256.437687
 21
719.289811
 31
0.0
  0
LINE
  5
226
100
AcDbEntity
  8
Outline
 62
7
100
AcDbLine
 10
256.437687
 20
719.289811
 30
0.0
 11
244.377606
 21
719.520919
 31
0.0
  0
LINE
  5
227
100
AcDbEntity
  8
Outline
 62
7
100
AcDbLine
 10
244.377606
 20
719.520919
 30
0.0
 11
232.327365
 21
719.251706
 31
0.0
  0
LINE
  5
228
100
AcDbEntity
  8
Outline
 62
7
100
AcDbLine
 10
232.327365
 20
719.251706
 30
0.0
 11
220.313551
 21
718.465447
 31
0.0
  0
LINE
  5
229
100
AcDbEntity
  8
Outline
 62
7
100
AcDbLine
 10
220.313551
 20
718.465447
 30
0.0
 11
208.362754
 21
717.145417
 31
0.0
  0
LINE
  5
22a
100
AcDbEntity
  8
Outline
 62
7
100
AcDbLine
 10
208.362754
 20
717.145417
 30
0.0
 11
196.501562
 21
715.274890
 31
0.0
  0
LINE
  5
22b
100
AcDbEntity
  8
Outline
 62
7
100
AcDbLine
 10
196.501562
 20
715.274890
 30
0.0
 11
184.756564
 21
712.837141
 31
0.0
  0
LINE
  5
22c
100
AcDbEntity
  8
Outline
 62
7
100
AcDbLine
 10
184.756564
 20
712.837141
 30
0.0
 11
178.935947
 21
711.400332
 31
0.0
  0
LINE
  5
22d
100
AcDbEntity
  8
Outline
 62
7
100
AcDbLine
 10
178.935947
 20
711.400332
 30
0.0
 11
173.154348
 21
709.815446
 31
0.0
  0
LINE
  5
22e
100
AcDbEntity
  8
Outline
 62
7
100
AcDbLine
 10
173.154348
 20
709.815446
 30
0.0
 11
167.415093
 21
708.080391
 31
0.0
  0
LINE
  5
22f
100
AcDbEntity
  8
Outline
 62
7
100
AcDbLine
 10
167.415093
 20
708.080391
 30
0.0
 11
161.721503
 21
706.193078
 31
0.0
  0
LINE
  5
230
100
AcDbEntity
  8
Outline
 62
7
100
AcDbLine
 10
161.721503
 20
706.193078
 30
0.0
 11
156.076904
 21
704.151415
 31
0.0
  0
LINE
  5
231
100
AcDbEntity
  8
Outline
 62
7
100
AcDbLine
 10
156.076904
 20
704.151415
 30
0.0
 11
150.484618
 21
701.953312
 31
0.0
  0
LINE
  5
232
100
AcDbEntity
  8
Outline
 62
7
100
AcDbLine
 10
150.484618
 20
701.953312
 30
0.0
 11
144.947969
 21
699.596679
 31
0.0
  0
LINE
  5
233
100
AcDbEntity
  8
Outline
 62
7
100
AcDbLine
 10
144.947969
 20
699.596679
 30
0.0
 11
139.470281
 21
697.079424
 31
0.0
  0
LINE
  5
234
100
AcDbEntity
  8
Outline
 62
7
100
AcDbLine
 10
139.470281
 20
697.079424
 30
0.0
 11
134.054876
 21
694.399457
 31
0.0
  0
LINE
  5
235
100
AcDbEntity
  8
Outline
 62
7
100
AcDbLine
 10
134.054876
 20
694.399457
 30
0.0
 11
128.705080
 21
691.554688
 31
0.0
  0
LINE
  5
236
100
AcDbEntity
  8
Outline
 62
7
100
AcDbLine
 10
128.705080
 20
691.554688
 30
0.0
 11
123.423448
 21
688.524211
 31
0.0
  0
LINE
  5
237
100
AcDbEntity
  8
Outline
 62
7
100
AcDbLine
 10
123.423448
 20
688.524211
 30
0.0
 11
118.263282
 21
685.316217
 31
0.0
  0
LINE
  5
238
100
AcDbEntity
  8
Outline
 62
7
100
AcDbLine
 10
118.263282
 20
685.316217
 30
0.0
 11
113.226830
 21
681.936090
 31
0.0
  0
LINE
  5
239
100
AcDbEntity
  8
Outline
 62
7
100
AcDbLine
 10
113.226830
 20
681.936090
 30
0.0
 11
108.316341
 21
678.389209
 31
0.0
  0
LINE
  5
23a
100
AcDbEntity
  8
Outline
 62
7
100
AcDbLine
 10
108.316341
 20
678.389209
 30
0.0
 11
103.534062
 21
674.680959
 31
0.0
  0
LINE
  5
23b
100
AcDbEntity
  8
Outline
 62
7
100
AcDbLine
 10
103.534062
 20
674.680959
 30
0.0
 11
98.882240
 21
670.816718
 31
0.0
  0
LINE
  5
23c
100
AcDbEntity
  8
Outline
 62
7
100
AcDbLine
 10
98.882240
 20
670.816718
 30
0.0
 11
94.363125
 21
666.801871
 31
0.0
  0
LINE
  5
23d
100
AcDbEntity
  8
Outline
 62
7
100
AcDbLine
 10
94.363125
 20
666.801871
 30
0.0
 11
89.978964
 21
662.641797
 31
0.0
  0
LINE
  5
23e
100
AcDbEntity
  8
Outline
 62
7
100
AcDbLine
 10
89.978964
 20
662.641797
 30
0.0
 11
85.732004
 21
658.341879
 31
0.0
  0
LINE
  5
23f
100
AcDbEntity
  8
Outline
 62
7
100
AcDbLine
 10
85.732004
 20
658.341879
 30
0.0
 11
81.624495
 21
653.907499
 31
0.0
  0
LINE
  5
240
100
AcDbEntity
  8
Outline
 62
7
100
AcDbLine
 10
81.624495
 20
653.907499
 30
0.0
 11
77.658682
 21
649.344038
 31
0.0
  0
LINE
  5
241
100
AcDbEntity
  8
Outline
 62
7
100
AcDbLine
 10
77.658682
 20
649.344038
 30
0.0
 11
73.836816
 21
644.656878
 31
0.0
  0
LINE
  5
242
100
AcDbEntity
  8
Outline
 62
7
100
AcDbLine
 10
73.836816
 20
644.656878
 30
0.0
 11
70.161143
 21
639.851400
 31
0.0
  0
LINE
  5
243
100
AcDbEntity
  8
Outline
 62
7
100
AcDbLine
 10
70.161143
 20
639.851400
 30
0.0
 11
66.633911
 21
634.932986
 31
0.0
  0
LINE
  5
244
100
AcDbEntity
  8
Outline
 62
7
100
AcDbLine
 10
66.633911
 20
634.932986
 30
0.0
 11
63.257369
 21
629.907018
 31
0.0
  0
LINE
  5
245
100
AcDbEntity
  8
Outline
 62
7
100
AcDbLine
 10
63.257369
 20
629.907018
 30
0.0
 11
60.033763
 21
624.778878
 31
0.0
  0
LINE
  5
246
100
AcDbEntity
  8
Outline
 62
7
100
AcDbLine
 10
60.033763
 20
624.778878
 30
0.0
 11
56.965343
 21
619.553946
 31
0.0
  0
LINE
  5
247
100
AcDbEntity
  8
Outline
 62
7
100
AcDbLine
 10
56.965343
 20
619.553946
 30
0.0
 11
54.054356
 21
614.237606
 31
0.0
  0
LINE
  5
248
100
AcDbEntity
  8
Outline
 62
7
100
AcDbLine
 10
54.054356
 20
614.237606
 30
0.0
 11
51.303050
 21
608.835238
 31
0.0
  0
LINE
  5
249
100
AcDbEntity
  8
Outline
 62
7
100
AcDbLine
 10
51.303050
 20
608.835238
 30
0.0
 11
48.713673
 21
603.352224
 31
0.0
  0
LINE
  5
24a
100
AcDbEntity
  8
Outline
 62
7
100
AcDbLine
 10
48.713673
 20
603.352224
 30
0.0
 11
46.288473
 21
597.793946
 31
0.0
  0
LINE
  5
24b
100
AcDbEntity
  8
Outline
 62
7
100
AcDbLine
 10
46.288473
 20
597.793946
 30
0.0
 11
44.029697
 21
592.165786
 31
0.0
  0
LINE
  5
24c
100
AcDbEntity
  8
Outline
 62
7
100
AcDbLine
 10
44.029697
 20
592.165786
 30
0.0
 11
41.939594
 21
586.473124
 31
0.0
  0
LINE
  5
24d
100
AcDbEntity
  8
Outline
 62
7
100
AcDbLine
 10
41.939594
 20
586.473124
 30
0.0
 11
40.020412
 21
580.721344
 31
0.0
  0
LINE
  5
24e
100
AcDbEntity
  8
Outline
 62
7
100
AcDbLine
 10
40.020412
 20
580.721344
 30
0.0
 11
38.274398
 21
574.915826
 31
0.0
  0
LINE
  5
24f
100
AcDbEntity
  8
Outline
 62
7
100
AcDbLine
 10
38.274398
 20
574.915826
 30
0.0
 11
36.703801
 21
569.061952
 31
0.0
  0
LINE
  5
250
100
AcDbEntity
  8
Outline
 62
7
100
AcDbLine
 10
36.703801
 20
569.061952
 30
0.0
 11
35.310868
 21
563.165104
 31
0.0
  0
LINE
  5
251
100
AcDbEntity
  8
Outline
 62
7
100
AcDbLine
 10
35.310868
 20
563.165104
 30
0.0
 11
34.097847
 21
557.230664
 31
0.0
  0
LINE
  5
252
100
AcDbEntity
  8
Outline
 62
7
100
AcDbLine
 10
34.097847
 20
557.230664
 30
0.0
 11
33.066986
 21
551.264012
 31
0.0
  0
LINE
  5
253
100
AcDbEntity
  8
Outline
 62
7
100
AcDbLine
 10
33.066986
 20
551.264012
 30
0.0
 11
32.220533
 21
545.270532
 31
0.0
  0
LINE
  5
254
100
AcDbEntity
  8
Outline
 62
7
100
AcDbLine
 10
32.220533
 20
545.270532
 30
0.0
 11
31.560737
 21
539.255604
 31
0.0
  0
LINE
  5
255
100
AcDbEntity
  8
Outline
 62
7
100
AcDbLine
 10
31.560737
 20
539.255604
 30
0.0
 11
31.089844
 21
533.224610
 31
0.0
  0
LINE
  5
256
100
AcDbEntity
  8
Outline
 62
7
100
AcDbLine
 10
31.089844
 20
533.224610
 30
0.0
 11
30.429050
 21
525.620625
 31
0.0
  0
LINE
  5
257
100
AcDbEntity
  8
Outline
 62
7
100
AcDbLine
 10
30.429050
 20
525.620625
 30
0.0
 11
29.988570
 21
518.014249
 31
0.0
  0
LINE
  5
258
100
AcDbEntity
  8
Outline
 62
7
100
AcDbLine
 10
29.988570
 20
518.014249
 30
0.0
 11
29.765500
 21
510.409418
 31
0.0
  0
LINE
  5
259
100
AcDbEntity
  8
Outline
 62
7
100
AcDbLine
 10
29.765500
 20
510.409418
 30
0.0
 11
29.756934
 21
502.810064
 31
0.0
  0
LINE
  5
25a
100
AcDbEntity
  8
Outline
 62
7
100
AcDbLine
 10
29.756934
 20
502.810064
 30
0.0
 11
29.959967
 21
495.220122
 31
0.0
  0
LINE
  5
25b
100
AcDbEntity
  8
Outline
 62
7
100
AcDbLine
 10
29.959967
 20
495.220122
 30
0.0
 11
30.371696
 21
487.643527
 31
0.0
  0
LINE
  5
25c
100
AcDbEntity
  8
Outline
 62
7
100
AcDbLine
 10
30.371696
 20
487.643527
 30
0.0
 11
30.989215
 21
480.084212
 31
0.0
  0
LINE
  5
25d
100
AcDbEntity
  8
Outline
 62
7
100
AcDbLine
 10
30.989215
 20
480.084212
 30
0.0
 11
31.809619
 21
472.546111
 31
0.0
  0
LINE
  5
25e
100
AcDbEntity
  8
Outline
 62
7
100
AcDbLine
 10
31.809619
 20
472.546111
 30
0.0
 11
32.830003
 21
465.033158
 31
0.0
  0
LINE
  5
25f
100
AcDbEntity
  8
Outline
 62
7
100
AcDbLine
 10
32.830003
 20
465.033158
 30
0.0
 11
34.047464
 21
457.549288
 31
0.0
  0
LINE
  5
260
100
AcDbEntity
  8
Outline
 62
7
100
AcDbLine
 10
34.047464
 20
457.549288
 30
0.0
 11
35.459096
 21
450.098435
 31
0.0
  0
LINE
  5
261
100
AcDbEntity
  8
Outline
 62
7
100
AcDbLine
 10
35.459096
 20
450.098435
 30
0.0
 11
37.061993
 21
442.684532
 31
0.0
  0
LINE
  5
262
100
AcDbEntity
  8
Outline
 62
7
100
AcDbLine
 10
37.061993
 20
442.684532
 30
0.0
 11
38.853253
 21
435.311514
 31
0.0
  0
LINE
  5
263
100
AcDbEntity
  8
Outline
 62
7
100
AcDbLine
 10
38.853253
 20
435.311514
 30
0.0
 11
40.829969
 21
427.983314
 31
0.0
  0
LINE
  5
264
100
AcDbEntity
  8
Outline
 62
7
100
AcDbLine
 10
40.829969
 20
427.983314
 30
0.0
 11
42.989237
 21
420.703868
 31
0.0
  0
LINE
  5
265
100
AcDbEntity
  8
Outline
 62
7
100
AcDbLine
 10
42.989237
 20
420.703868
 30
0.0
 11
45.328152
 21
413.477109
 31
0.0
  0
LINE
  5
266
100
AcDbEntity
  8
Outline
 62
7
100
AcDbLine
 10
45.328152
 20
413.477109
 30
0.0
 11
47.843809
 21
406.306971
 31
0.0
  0
LINE
  5
267
100
AcDbEntity
  8
Outline
 62
7
100
AcDbLine
 10
47.843809
 20
406.306971
 30
0.0
 11
50.533304
 21
399.197388
 31
0.0
  0
LINE
  5
268
100
AcDbEntity
  8
Outline
 62
7
100
AcDbLine
 10
50.533304
 20
399.197388
 30
0.0
 11
53.393732
 21
392.152294
 31
0.0
  0
LINE
  5
269
100
AcDbEntity
  8
Outline
 62
7
100
AcDbLine
 10
53.393732
 20
392.152294
 30
0.0
 11
56.422188
 21
385.175623
 31
0.0
  0
LINE
  5
26a
100
AcDbEntity
  8
Outline
 62
7
100
AcDbLine
 10
56.422188
 20
385.175623
 30
0.0
 11
59.615767
 21
378.271310
 31
0.0
  0
LINE
  5
26b
100
AcDbEntity
  8
Outline
 62
7
100
AcDbLine
 10
59.615767
 20
378.271310
 30
0.0
 11
62.971564
 21
371.443289
 31
0.0
  0
LINE
  5
26c
100
AcDbEntity
  8
Outline
 62
7
100
AcDbLine
 10
62.971564
 20
371.443289
 30
0.0
 11
66.486675
 21
364.695493
 31
0.0
  0
LINE
  5
26d
100
AcDbEntity
  8
Outline
 62
7
100
AcDbLine
 10
66.486675
 20
364.695493
 30
0.0
 11
70.158195
 21
358.031857
 31
0.0
  0
LINE
  5
26e
100
AcDbEntity
  8
Outline
 62
7
100
AcDbLine
 10
70.158195
 20
358.031857
 30
0.0
 11
73.983219
 21
351.456315
 31
0.0
  0
LINE
  5
26f
100
AcDbEntity
  8
Outline
 62
7
100
AcDbLine
 10
73.983219
 20
351.456315
 30
0.0
 11
77.958842
 21
344.972801
 31
0.0
  0
LINE
  5
270
100
AcDbEntity
  8
Outline
 62
7
100
AcDbLine
 10
77.958842
 20
344.972801
 30
0.0
 11
82.082160
 21
338.585249
 31
0.0
  0
LINE
  5
271
100
AcDbEntity
  8
Outline
 62
7
100
AcDbLine
 10
82.082160
 20
338.585249
 30
0.0
 11
86.350268
 21
332.297592
 31
0.0
  0
LINE
  5
272
100
AcDbEntity
  8
Outline
 62
7
100
AcDbLine
 10
86.350268
 20
332.297592
 30
0.0
 11
90.760260
 21
326.113766
 31
0.0
  0
LINE
  5
273
100
AcDbEntity
  8
Outline
 62
7
100
AcDbLine
 10
90.760260
 20
326.113766
 30
0.0
 11
95.309233
 21
320.037704
 31
0.0
  0
LINE
  5
274
100
AcDbEntity
  8
Outline
 62
7
100
AcDbLine
 10
95.309233
 20
320.037704
 30
0.0
 11
99.994281
 21
314.073341
 31
0.0
  0
LINE
  5
275
100
AcDbEntity
  8
Outline
 62
7
100
AcDbLine
 10
99.994281
 20
314.073341
 30
0.0
 11
104.812500
 21
308.224610
 31
0.0
  0
LINE
  5
276
100
AcDbEntity
  8
Outline
 62
7
100
AcDbLine
 10
104.812500
 20
308.224610
 30
0.0
 11
116.325411
 21
294.050878
 31
0.0
  0
LINE
  5
277
100
AcDbEntity
  8
Outline
 62
7
100
AcDbLine
 10
116.325411
 20
294.050878
 30
0.0
 11
128.167913
 21
280.180384
 31
0.0
  0
LINE
  5
278
100
AcDbEntity
  8
Outline
 62
7
100
AcDbLine
 10
128.167913
 20
280.180384
 30
0.0
 11
140.320045
 21
266.598250
 31
0.0
  0
LINE
  5
279
100
AcDbEntity
  8
Outline
 62
7
100
AcDbLine
 10
140.320045
 20
266.598250
 30
0.0
 11
152.761849
 21
253.289598
 31
0.0
  0
LINE
  5
27a
100
AcDbEntity
  8
Outline
 62
7
100
AcDbLine
 10
152.761849
 20
253.289598
 30
0.0
 11
165.473365
 21
240.239551
 31
0.0
  0
LINE
  5
27b
100
AcDbEntity
  8
Outline
 62
7
100
AcDbLine
 10
165.473365
 20
240.239551
 30
0.0
 11
178.434633
 21
227.433231
 31
0.0
  0
LINE
  5
27c
100
AcDbEntity
  8
Outline
 62
7
100
AcDbLine
 10
178.434633
 20
227.433231
 30
0.0
 11
191.625694
 21
214.855761
 31
0.0
  0
LINE
  5
27d
100
AcDbEntity
  8
Outline
 62
7
100
AcDbLine
 10
191.625694
 20
214.855761
 30
0.0
 11
205.026588
 21
202.492263
 31
0.0
  0
LINE
  5
27e
100
AcDbEntity
  8
Outline
 62
7
100
AcDbLine
 10
205.026588
 20
202.492263
 30
0.0
 11
218.617355
 21
190.327858
 31
0.0
  0
LINE
  5
27f
100
AcDbEntity
  8
Outline
 62
7
100
AcDbLine
 10
218.617355
 20
190.327858
 30
0.0
 11
232.378036
 21
178.347671
 31
0.0
  0
LINE
  5
280
100
AcDbEntity
  8
Outline
 62
7
100
AcDbLine
 10
232.378036
 20
178.347671
 30
0.0
 11
246.288672
 21
166.536823
 31
0.0
  0
LINE
  5
281
100
AcDbEntity
  8
Outline
 62
7
100
AcDbLine
 10
246.288672
 20
166.536823
 30
0.0
 11
260.329302
 21
154.880436
 31
0.0
  0
LINE
  5
282
100
AcDbEntity
  8
Outline
 62
7
100
AcDbLine
 10
260.329302
 20
154.880436
 30
0.0
 11
274.479968
 21
143.363633
 31
0.0
  0
LINE
  5
283
100
AcDbEntity
  8
Outline
 62
7
100
AcDbLine
 10
274.479968
 20
143.363633
 30
0.0
 11
288.720709
 21
131.971536
 31
0.0
  0
LINE
  5
284
100
AcDbEntity
  8
Outline
 62
7
100
AcDbLine
 10
288.720709
 20
131.971536
 30
0.0
 11
317.392580
 21
109.501950
 31
0.0
  0
LINE
  5
285
100
AcDbEntity
  8
Outline
 62
7
100
AcDbLine
 10
317.392580
 20
109.501950
 30
0.0
 11
345.425220
 21
88.647846
 31
0.0
  0
LINE
  5
286
100
AcDbEntity
  8
Outline
 62
7
100
AcDbLine
 10
345.425220
 20
88.647846
 30
0.0
 11
359.587947
 21
78.394441
 31
0.0
  0
LINE
  5
287
100
AcDbEntity
  8
Outline
 62
7
100
AcDbLine
 10
359.587947
 20
78.394441
 30
0.0
 11
373.880230
 21
68.324814
 31
0.0
  0
LINE
  5
288
100
AcDbEntity
  8
Outline
 62
7
100
AcDbLine
 10
373.880230
 20
68.324814
 30
0.0
 11
388.326035
 21
58.489976
 31
0.0
  0
LINE
  5
289
100
AcDbEntity
  8
Outline
 62
7
100
AcDbLine
 10
388.326035
 20
58.489976
 30
0.0
 11
402.949325
 21
48.940937
 31
0.0
  0
LINE
  5
28a
100
AcDbEntity
  8
Outline
 62
7
100
AcDbLine
 10
402.949325
 20
48.940937
 30
0.0
 11
417.774065
 21
39.728709
 31
0.0
  0
LINE
  5
28b
100
AcDbEntity
  8
Outline
 62
7
100
AcDbLine
 10
417.774065
 20
39.728709
 30
0.0
 11
432.824220
 21
30.904300
 31
0.0
  0
LINE
  5
28c
100
AcDbEntity
  8
Outline
 62
7
100
AcDbLine
 10
432.824220
 20
30.904300
 30
0.0
 11
435.576663
 21
30.535243
 31
0.0
  0
LINE
  5
28d
100
AcDbEntity
  8
Outline
 62
7
100
AcDbLine
 10
435.576663
 20
30.535243
 30
0.0
 11
438.260571
 21
30.491892
 31
0.0
  0
LINE
  5
28e
100
AcDbEntity
  8
Outline
 62
7
100
AcDbLine
 10
438.260571
 20
30.491892
 30
0.0
 11
440.879664
 21
30.745144
 31
0.0
  0
LINE
  5
28f
100
AcDbEntity
  8
Outline
 62
7
100
AcDbLine
 10
440.879664
 20
30.745144
 30
0.0
 11
443.437664
 21
31.265891
 31
0.0
  0
LINE
  5
290
100
AcDbEntity
  8
Outline
 62
7
100
AcDbLine
 10
443.437664
 20
31.265891
 30
0.0
 11
445.938290
 21
32.025028
 31
0.0
  0
LINE
  5
291
100
AcDbEntity
  8
Outline
 62
7
100
AcDbLine
 10
445.938290
 20
32.025028
 30
0.0
 11
448.385264
 21
32.993451
 31
0.0
  0
LINE
  5
292
100
AcDbEntity
  8
Outline
 62
7
100
AcDbLine
 10
448.385264
 20
32.993451
 30
0.0
 11
450.782306
 21
34.142053
 31
0.0
  0
LINE
  5
293
100
AcDbEntity
  8
Outline
 62
7
100
AcDbLine
 10
450.782306
 20
34.142053
 30
0.0
 11
453.133137
 21
35.441730
 31
0.0
  0
LINE
  5
294
100
AcDbEntity
  8
Outline
 62
7
100
AcDbLine
 10
453.133137
 20
35.441730
 30
0.0
 11
457.711049
 21
38.377884
 31
0.0
  0
LINE
  5
295
100
AcDbEntity
  8
Outline
 62
7
100
AcDbLine
 10
457.711049
 20
38.377884
 30
0.0
 11
462.148762
 21
41.569069
 31
0.0
  0
LINE
  5
296
100
AcDbEntity
  8
Outline
 62
7
100
AcDbLine
 10
462.148762
 20
41.569069
 30
0.0
 11
466.476045
 21
44.782443
 31
0.0
  0
LINE
  5
297
100
AcDbEntity
  8
Outline
 62
7
100
AcDbLine
 10
466.476045
 20
44.782443
 30
0.0
 11
470.722660
 21
47.785160
 31
0.0
  0
LINE
  5
298
100
AcDbEntity
  8
Outline
 62
7
100
AcDbLine
 10
470.722660
 20
47.785160
 30
0.0
 11
491.915579
 21
62.290206
 31
0.0
  0
LINE
  5
299
100
AcDbEntity
  8
Outline
 62
7
100
AcDbLine
 10
491.915579
 20
62.290206
 30
0.0
 11
512.986605
 21
77.029710
 31
0.0
  0
LINE
  5
29a
100
AcDbEntity
  8
Outline
 62
7
100
AcDbLine
 10
512.986605
 20
77.029710
 30
0.0
 11
533.905657
 21
92.023000
 31
0.0
  0
LINE
  5
29b
100
AcDbEntity
  8
Outline
 62
7
100
AcDbLine
 10
533.905657
 20
92.023000
 30
0.0
 11
554.642658
 21
107.289404
 31
0.0
  0
LINE
  5
29c
100
AcDbEntity
  8
Outline
 62
7
100
AcDbLine
 10
554.642658
 20
107.289404
 30
0.0
 11
575.167528
 21
122.848248
 31
0.0
  0
LINE
  5
29d
100
AcDbEntity
  8
Outline
 62
7
100
AcDbLine
 10
575.167528
 20
122.848248
 30
0.0
 11
595.450188
 21
138.718860
 31
0.0
  0
LINE
  5
29e
100
AcDbEntity
  8
Outline
 62
7
100
AcDbLine
 10
595.450188
 20
138.718860
 30
0.0
 11
615.460560
 21
154.920568
 31
0.0
  0
LINE
  5
29f
100
AcDbEntity
  8
Outline
 62
7
100
AcDbLine
 10
615.460560
 20
154.920568
 30
0.0
 11
635.168564
 21
171.472697
 31
0.0
  0
LINE
  5
2a0
100
AcDbEntity
  8
Outline
 62
7
100
AcDbLine
 10
635.168564
 20
171.472697
 30
0.0
 11
654.544121
 21
188.394577
 31
0.0
  0
LINE
  5
2a1
100
AcDbEntity
  8
Outline
 62
7
100
AcDbLine
 10
654.544121
 20
188.394577
 30
0.0
 11
673.557153
 21
205.705534
 31
0.0
  0
LINE
  5
2a2
100
AcDbEntity
  8
Outline
 62
7
100
AcDbLine
 10
673.557153
 20
205.705534
 30
0.0
 11
692.177581
 21
223.424895
 31
0.0
  0
LINE
  5
2a3
100
AcDbEntity
  8
Outline
 62
7
100
AcDbLine
 10
692.177581
 20
223.424895
 30
0.0
 11
701.331168
 21
232.443766
 31
0.0
  0
LINE
  5
2a4
100
AcDbEntity
  8
Outline
 62
7
100
AcDbLine
 10
701.331168
 20
232.443766
 30
0.0
 11
710.375325
 21
241.571987
 31
0.0
  0
LINE
  5
2a5
100
AcDbEntity
  8
Outline
 62
7
100
AcDbLine
 10
710.375325
 20
241.571987
 30
0.0
 11
719.306291
 21
250.811973
 31
0.0
  0
LINE
  5
2a6
100
AcDbEntity
  8
Outline
 62
7
100
AcDbLine
 10
719.306291
 20
250.811973
 30
0.0
 11
728.120307
 21
260.166139
 31
0.0
  0
LINE
  5
2a7
100
AcDbEntity
  8
Outline
 62
7
100
AcDbLine
 10
728.120307
 20
260.166139
 30
0.0
 11
736.813613
 21
269.636901
 31
0.0
  0
LINE
  5
2a8
100
AcDbEntity
  8
Outline
 62
7
100
AcDbLine
 10
736.813613
 20
269.636901
 30
0.0
 11
745.382448
 21
279.226677
 31
0.0
  0
LINE
  5
2a9
100
AcDbEntity
  8
Outline
 62
7
100
AcDbLine
 10
745.382448
 20
279.226677
 30
0.0
 11
753.823053
 21
288.937880
 31
0.0
  0
LINE
  5
2aa
100
AcDbEntity
  8
Outline
 62
7
100
AcDbLine
 10
753.823053
 20
288.937880
 30
0.0
 11
762.131669
 21
298.772928
 31
0.0
  0
LINE
  5
2ab
100
AcDbEntity
  8
Outline
 62
7
100
AcDbLine
 10
762.131669
 20
298.772928
 30
0.0
 11
770.304534
 21
308.734236
 31
0.0
  0
LINE
  5
2ac
100
AcDbEntity
  8
Outline
 62
7
100
AcDbLine
 10
770.304534
 20
308.734236
 30
0.0
 11
778.337890
 21
318.824220
 31
0.0
  0
LINE
  5
2ad
100
AcDbEntity
  8
Outline
 62
7
100
AcDbLine
 10
778.337890
 20
318.824220
 30
0.0
 11
783.084215
 21
325.037964
 31
0.0
  0
LINE
  5
2ae
100
AcDbEntity
  8
Outline
 62
7
100
AcDbLine
 10
783.084215
 20
325.037964
 30
0.0
 11
787.682376
 21
331.373201
 31
0.0
  0
LINE
  5
2af
100
AcDbEntity
  8
Outline
 62
7
100
AcDbLine
 10
787.682376
 20
331.373201
 30
0.0
 11
792.129190
 21
337.825194
 31
0.0
  0
LINE
  5
2b0
100
AcDbEntity
  8
Outline
 62
7
100
AcDbLine
 10
792.129190
 20
337.825194
 30
0.0
 11
796.421471
 21
344.389207
 31
0.0
  0
LINE
  5
2b1
100
AcDbEntity
  8
Outline
 62
7
100
AcDbLine
 10
796.421471
 20
344.389207
 30
0.0
 11
800.556037
 21
351.060503
 31
0.0
  0
LINE
  5
2b2
100
AcDbEntity
  8
Outline
 62
7
100
AcDbLine
 10
800.556037
 20
351.060503
 30
0.0
 11
804.529701
 21
357.834346
 31
0.0
  0
LINE
  5
2b3
100
AcDbEntity
  8
Outline
 62
7
100
AcDbLine
 10
804.529701
 20
357.834346
 30
0.0
 11
808.339282
 21
364.705999
 31
0.0
  0
LINE
  5
2b4
100
AcDbEntity
  8
Outline
 62
7
100
AcDbLine
 10
808.339282
 20
364.705999
 30
0.0
 11
811.981593
 21
371.670725
 31
0.0
  0
LINE
  5
2b5
100
AcDbEntity
  8
Outline
 62
7
100
AcDbLine
 10
811.981593
 20
371.670725
 30
0.0
 11
815.453452
 21
378.723790
 31
0.0
  0
LINE
  5
2b6
100
AcDbEntity
  8
Outline
 62
7
100
AcDbLine
 10
815.453452
 20
378.723790
 30
0.0
 11
818.751673
 21
385.860455
 31
0.0
  0
LINE
  5
2b7
100
AcDbEntity
  8
Outline
 62
7
100
AcDbLine
 10
818.751673
 20
385.860455
 30
0.0
 11
821.873073
 21
393.075986
 31
0.0
  0
LINE
  5
2b8
100
AcDbEntity
  8
Outline
 62
7
100
AcDbLine
 10
821.873073
 20
393.075986
 30
0.0
 11
824.814467
 21
400.365644
 31
0.0
  0
LINE
  5
2b9
100
AcDbEntity
  8
Outline
 62
7
100
AcDbLine
 10
824.814467
 20
400.365644
 30
0.0
 11
827.572671
 21
407.724694
 31
0.0
  0
LINE
  5
2ba
100
AcDbEntity
  8
Outline
 62
7
100
AcDbLine
 10
827.572671
 20
407.724694
 30
0.0
 11
830.144502
 21
415.148400
 31
0.0
  0
LINE
  5
2bb
100
AcDbEntity
  8
Outline
 62
7
100
AcDbLine
 10
830.144502
 20
415.148400
 30
0.0
 11
832.526774
 21
422.632024
 31
0.0
  0
LINE
  5
2bc
100
AcDbEntity
  8
Outline
 62
7
100
AcDbLine
 10
832.526774
 20
422.632024
 30
0.0
 11
834.716304
 21
430.170831
 31
0.0
  0
LINE
  5
2bd
100
AcDbEntity
  8
Outline
 62
7
100
AcDbLine
 10
834.716304
 20
430.170831
 30
0.0
 11
836.709907
 21
437.760084
 31
0.0
  0
LINE
  5
2be
100
AcDbEntity
  8
Outline
 62
7
100
AcDbLine
 10
836.709907
 20
437.760084
 30
0.0
 11
838.504399
 21
445.395047
 31
0.0
  0
LINE
  5
2bf
100
AcDbEntity
  8
Outline
 62
7
100
AcDbLine
 10
838.504399
 20
445.395047
 30
0.0
 11
840.096596
 21
453.070983
 31
0.0
  0
LINE
  5
2c0
100
AcDbEntity
  8
Outline
 62
7
100
AcDbLine
 10
840.096596
 20
453.070983
 30
0.0
 11
841.483314
 21
460.783156
 31
0.0
  0
LINE
  5
2c1
100
AcDbEntity
  8
Outline
 62
7
100
AcDbLine
 10
841.483314
 20
460.783156
 30
0.0
 11
842.661369
 21
468.526829
 31
0.0
  0
LINE
  5
2c2
100
AcDbEntity
  8
Outline
 62
7
100
AcDbLine
 10
842.661369
 20
468.526829
 30
0.0
 11
843.627576
 21
476.297266
 31
0.0
  0
LINE
  5
2c3
100
AcDbEntity
  8
Outline
 62
7
100
AcDbLine
 10
843.627576
 20
476.297266
 30
0.0
 11
844.378751
 21
484.089731
 31
0.0
  0
LINE
  5
2c4
100
AcDbEntity
  8
Outline
 62
7
100
AcDbLine
 10
844.378751
 20
484.089731
 30
0.0
 11
844.911710
 21
491.899486
 31
0.0
  0
LINE
  5
2c5
100
AcDbEntity
  8
Outline
 62
7
100
AcDbLine
 10
844.911710
 20
491.899486
 30
0.0
 11
845.223269
 21
499.721797
 31
0.0
  0
LINE
  5
2c6
100
AcDbEntity
  8
Outline
 62
7
100
AcDbLine
 10
845.223269
 20
499.721797
 30
0.0
 11
845.310243
 21
507.551925
 31
0.0
  0
LINE
  5
2c7
100
AcDbEntity
  8
Outline
 62
7
100
AcDbLine
 10
845.310243
 20
507.551925
 30
0.0
 11
845.169449
 21
515.385136
 31
0.0
  0
LINE
  5
2c8
100
AcDbEntity
  8
Outline
 62
7
100
AcDbLine
 10
845.169449
 20
515.385136
 30
0.0
 11
844.797701
 21
523.216692
 31
0.0
  0
LINE
  5
2c9
100
AcDbEntity
  8
Outline
 62
7
100
AcDbLine
 10
844.797701
 20
523.216692
 30
0.0
 11
844.191817
 21
531.041856
 31
0.0
  0
LINE
  5
2ca
100
AcDbEntity
  8
Outline
 62
7
100
AcDbLine
 10
844.191817
 20
531.041856
 30
0.0
 11
843.348612
 21
538.855894
 31
0.0
  0
LINE
  5
2cb
100
AcDbEntity
  8
Outline
 62
7
100
AcDbLine
 10
843.348612
 20
538.855894
 30
0.0
 11
842.264901
 21
546.654067
 31
0.0
  0
LINE
  5
2cc
100
AcDbEntity
  8
Outline
 62
7
100
AcDbLine
 10
842.264901
 20
546.654067
 30
0.0
 11
840.937500
 21
554.431640
 31
0.0
  0
LINE
  5
2cd
100
AcDbEntity
  8
Outline
 62
7
100
AcDbLine
 10
840.937500
 20
554.431640
 30
0.0
 11
838.945445
 21
564.136460
 31
0.0
  0
LINE
  5
2ce
100
AcDbEntity
  8
Outline
 62
7
100
AcDbLine
 10
838.945445
 20
564.136460
 30
0.0
 11
836.505215
 21
573.763950
 31
0.0
  0
LINE
  5
2cf
100
AcDbEntity
  8
Outline
 62
7
100
AcDbLine
 10
836.505215
 20
573.763950
 30
0.0
 11
833.620673
 21
583.285730
 31
0.0
  0
LINE
  5
2d0
100
AcDbEntity
  8
Outline
 62
7
100
AcDbLine
 10
833.620673
 20
583.285730
 30
0.0
 11
830.295683
 21
592.673416
 31
0.0
  0
LINE
  5
2d1
100
AcDbEntity
  8
Outline
 62
7
100
AcDbLine
 10
830.295683
 20
592.673416
 30
0.0
 11
826.534109
 21
601.898626
 31
0.0
  0
LINE
  5
2d2
100
AcDbEntity
  8
Outline
 62
7
100
AcDbLine
 10
826.534109
 20
601.898626
 30
0.0
 11
822.339815
 21
610.932978
 31
0.0
  0
LINE
  5
2d3
100
AcDbEntity
  8
Outline
 62
7
100
AcDbLine
 10
822.339815
 20
610.932978
 30
0.0
 11
817.716664
 21
619.748089
 31
0.0
  0
LINE
  5
2d4
100
AcDbEntity
  8
Outline
 62
7
100
AcDbLine
 10
817.716664
 20
619.748089
 30
0.0
 11
812.668520
 21
628.315577
 31
0.0
  0
LINE
  5
2d5
100
AcDbEntity
  8
Outline
 62
7
100
AcDbLine
 10
812.668520
 20
628.315577
 30
0.0
 11
807.199247
 21
636.607059
 31
0.0
  0
LINE
  5
2d6
100
AcDbEntity
  8
Outline
 62
7
100
AcDbLine
 10
807.199247
 20
636.607059
 30
0.0
 11
801.312708
 21
644.594153
 31
0.0
  0
LINE
  5
2d7
100
AcDbEntity
  8
Outline
 62
7
100
AcDbLine
 10
801.312708
 20
644.594153
 30
0.0
 11
795.012768
 21
652.248477
 31
0.0
  0
LINE
  5
2d8
100
AcDbEntity
  8
Outline
 62
7
100
AcDbLine
 10
795.012768
 20
652.248477
 30
0.0
 11
788.303289
 21
659.541648
 31
0.0
  0
LINE
  5
2d9
100
AcDbEntity
  8
Outline
 62
7
100
AcDbLine
 10
788.303289
 20
659.541648
 30
0.0
 11
781.188137
 21
666.445284
 31
0.0
  0
LINE
  5
2da
100
AcDbEntity
  8
Outline
 62
7
100
AcDbLine
 10
781.188137
 20
666.445284
 30
0.0
 11
773.671173
 21
672.931002
 31
0.0
  0
LINE
  5
2db
100
AcDbEntity
  8
Outline
 62
7
100
AcDbLine
 10
773.671173
 20
672.931002
 30
0.0
 11
769.763220
 21
676.008273
 31
0.0
  0
LINE
  5
2dc
100
AcDbEntity
  8
Outline
 62
7
100
AcDbLine
 10
769.763220
 20
676.008273
 30
0.0
 11
765.756263
 21
678.970420
 31
0.0
  0
LINE
  5
2dd
100
AcDbEntity
  8
Outline
 62
7
100
AcDbLine
 10
765.756263
 20
678.970420
 30
0.0
 11
761.650786
 21
681.813897
 31
0.0
  0
LINE
  5
2de
100
AcDbEntity
  8
Outline
 62
7
100
AcDbLine
 10
761.650786
 20
681.813897
 30
0.0
 11
757.447270
 21
684.535156
 31
0.0
  0
LINE
  5
2df
100
AcDbEntity
  8
Outline
 62
7
100
AcDbLine
 10
757.447270
 20
684.535156
 30
0.0
 11
750.534211
 21
688.846662
 31
0.0
  0
LINE
  5
2e0
100
AcDbEntity
  8
Outline
 62
7
100
AcDbLine
 10
750.534211
 20
688.846662
 30
0.0
 11
743.460597
 21
692.872059
 31
0.0
  0
LINE
  5
2e1
100
AcDbEntity
  8
Outline
 62
7
100
AcDbLine
 10
743.460597
 20
692.872059
 30
0.0
 11
736.237815
 21
696.612065
 31
0.0
  0
LINE
  5
2e2
100
AcDbEntity
  8
Outline
 62
7
100
AcDbLine
 10
736.237815
 20
696.612065
 30
0.0
 11
728.877254
 21
700.067397
 31
0.0
  0
LINE
  5
2e3
100
AcDbEntity
  8
Outline
 62
7
100
AcDbLine
 10
728.877254
 20
700.067397
 30
0.0
 11
721.390303
 21
703.238771
 31
0.0
  0
LINE
  5
2e4
100
AcDbEntity
  8
Outline
 62
7
100
AcDbLine
 10
721.390303
 20
703.238771
 30
0.0
 11
713.788351
 21
706.126906
 31
0.0
  0
LINE
  5
2e5
100
AcDbEntity
  8
Outline
 62
7
100
AcDbLine
 10
713.788351
 20
706.126906
 30
0.0
 11
706.082785
 21
708.732519
 31
0.0
  0
LINE
  5
2e6
100
AcDbEntity
  8
Outline
 62
7
100
AcDbLine
 10
706.082785
 20
708.732519
 30
0.0
 11
698.284995
 21
711.056327
 31
0.0
  0
LINE
  5
2e7
100
AcDbEntity
  8
Outline
 62
7
100
AcDbLine
 10
698.284995
 20
711.056327
 30
0.0
 11
690.406369
 21
713.099047
 31
0.0
  0
LINE
  5
2e8
100
AcDbEntity
  8
Outline
 62
7
100
AcDbLine
 10
690.406369
 20
713.099047
 30
0.0
 11
682.458295
 21
714.861397
 31
0.0
  0
LINE
  5
2e9
100
AcDbEntity
  8
Outline
 62
7
100
AcDbLine
 10
682.458295
 20
714.861397
 30
0.0
 11
674.452163
 21
716.344095
 31
0.0
  0
LINE
  5
2ea
100
AcDbEntity
  8
Outline
 62
7
100
AcDbLine
 10
674.452163
 20
716.344095
 30
0.0
 11
666.399361
 21
717.547856
 31
0.0
  0
LINE
  5
2eb
100
AcDbEntity
  8
Outline
 62
7
100
AcDbLine
 10
666.399361
 20
717.547856
 30
0.0
 11
658.311276
 21
718.473399
 31
0.0
  0
LINE
  5
2ec
100
AcDbEntity
  8
Outline
 62
7
100
AcDbLine
 10
658.311276
 20
718.473399
 30
0.0
 11
650.199299
 21
719.121441
 31
0.0
  0
LINE
  5
2ed
100
AcDbEntity
  8
Outline
 62
7
100
AcDbLine
 10
650.199299
 20
719.121441
 30
0.0
 11
642.074818
 21
719.492699
 31
0.0
  0
LINE
  5
2ee
100
AcDbEntity
  8
Outline
 62
7
100
AcDbLine
 10
642.074818
 20
719.492699
 30
0.0
 11
633.949220
 21
719.587891
 31
0.0
  0
LINE
  5
2ef
100
AcDbEntity
  8
Outline
 62
7
100
AcDbLine
 10
633.949220
 20
719.587891
 30
0.0
 11
633.949220
 21
719.587891
 31
0.0
  0
LINE
  5
2f0
100
AcDbEntity
  8
Outline
 62
7
100
AcDbLine
 10
634.798830
 20
705.000000
 30
0.0
 11
641.760324
 21
704.858863
 31
0.0
  0
LINE
  5
2f1
100
AcDbEntity
  8
Outline
 62
7
100
AcDbLine
 10
641.760324
 20
704.858863
 30
0.0
 11
648.722026
 21
704.518065
 31
0.0
  0
LINE
  5
2f2
100
AcDbEntity
  8
Outline
 62
7
100
AcDbLine
 10
648.722026
 20
704.518065
 30
0.0
 11
655.675622
 21
703.974956
 31
0.0
  0
LINE
  5
2f3
100
AcDbEntity
  8
Outline
 62
7
100
AcDbLine
 10
655.675622
 20
703.974956
 30
0.0
 11
662.612800
 21
703.226888
 31
0.0
  0
LINE
  5
2f4
100
AcDbEntity
  8
Outline
 62
7
100
AcDbLine
 10
662.612800
 20
703.226888
 30
0.0
 11
669.525250
 21
702.271211
 31
0.0
  0
LINE
  5
2f5
100
AcDbEntity
  8
Outline
 62
7
100
AcDbLine
 10
669.525250
 20
702.271211
 30
0.0
 11
676.404657
 21
701.105275
 31
0.0
  0
LINE
  5
2f6
100
AcDbEntity
  8
Outline
 62
7
100
AcDbLine
 10
676.404657
 20
701.105275
 30
0.0
 11
683.242710
 21
699.726431
 31
0.0
  0
LINE
  5
2f7
100
AcDbEntity
  8
Outline
 62
7
100
AcDbLine
 10
683.242710
 20
699.726431
 30
0.0
 11
690.031096
 21
698.132030
 31
0.0
  0
LINE
  5
2f8
100
AcDbEntity
  8
Outline
 62
7
100
AcDbLine
 10
690.031096
 20
698.132030
 30
0.0
 11
696.761504
 21
696.319422
 31
0.0
  0
LINE
  5
2f9
100
AcDbEntity
  8
Outline
 62
7
100
AcDbLine
 10
696.761504
 20
696.319422
 30
0.0
 11
703.425621
 21
694.285958
 31
0.0
  0
LINE
  5
2fa
100
AcDbEntity
  8
Outline
 62
7
100
AcDbLine
 10
703.425621
 20
694.285958
 30
0.0
 11
710.015135
 21
692.028989
 31
0.0
  0
LINE
  5
2fb
100
AcDbEntity
  8
Outline
 62
7
100
AcDbLine
 10
710.015135
 20
692.028989
 30
0.0
 11
716.521734
 21
689.545864
 31
0.0
  0
LINE
  5
2fc
100
AcDbEntity
  8
Outline
 62
7
100
AcDbLine
 10
716.521734
 20
689.545864
 30
0.0
 11
722.937105
 21
686.833935
 31
0.0
  0
LINE
  5
2fd
100
AcDbEntity
  8
Outline
 62
7
100
AcDbLine
 10
722.937105
 20
686.833935
 30
0.0
 11
729.252936
 21
683.890552
 31
0.0
  0
LINE
  5
2fe
100
AcDbEntity
  8
Outline
 62
7
100
AcDbLine
 10
729.252936
 20
683.890552
 30
0.0
 11
735.460915
 21
680.713066
 31
0.0
  0
LINE
  5
2ff
100
AcDbEntity
  8
Outline
 62
7
100
AcDbLine
 10
735.460915
 20
680.713066
 30
0.0
 11
741.552730
 21
677.298828
 31
0.0
  0
LINE
  5
300
100
AcDbEntity
  8
Outline
 62
7
100
AcDbLine
 10
741.552730
 20
677.298828
 30
0.0
 11
748.826406
 21
672.930371
 31
0.0
  0
LINE
  5
301
100
AcDbEntity
  8
Outline
 62
7
100
AcDbLine
 10
748.826406
 20
672.930371
 30
0.0
 11
755.829599
 21
668.182813
 31
0.0
  0
LINE
  5
302
100
AcDbEntity
  8
Outline
 62
7
100
AcDbLine
 10
755.829599
 20
668.182813
 30
0.0
 11
762.555390
 21
663.075106
 31
0.0
  0
LINE
  5
303
100
AcDbEntity
  8
Outline
 62
7
100
AcDbLine
 10
762.555390
 20
663.075106
 30
0.0
 11
768.996863
 21
657.626204
 31
0.0
  0
LINE
  5
304
100
AcDbEntity
  8
Outline
 62
7
100
AcDbLine
 10
768.996863
 20
657.626204
 30
0.0
 11
775.147099
 21
651.855062
 31
0.0
  0
LINE
  5
305
100
AcDbEntity
  8
Outline
 62
7
100
AcDbLine
 10
775.147099
 20
651.855062
 30
0.0
 11
780.999181
 21
645.780633
 31
0.0
  0
LINE
  5
306
100
AcDbEntity
  8
Outline
 62
7
100
AcDbLine
 10
780.999181
 20
645.780633
 30
0.0
 11
786.546190
 21
639.421870
 31
0.0
  0
LINE
  5
307
100
AcDbEntity
  8
Outline
 62
7
100
AcDbLine
 10
786.546190
 20
639.421870
 30
0.0
 11
791.781210
 21
632.797729
 31
0.0
  0
LINE
  5
308
100
AcDbEntity
  8
Outline
 62
7
100
AcDbLine
 10
791.781210
 20
632.797729
 30
0.0
 11
796.697322
 21
625.927161
 31
0.0
  0
LINE
  5
309
100
AcDbEntity
  8
Outline
 62
7
100
AcDbLine
 10
796.697322
 20
625.927161
 30
0.0
 11
801.287609
 21
618.829122
 31
0.0
  0
LINE
  5
30a
100
AcDbEntity
  8
Outline
 62
7
100
AcDbLine
 10
801.287609
 20
618.829122
 30
0.0
 11
805.545154
 21
611.522565
 31
0.0
  0
LINE
  5
30b
100
AcDbEntity
  8
Outline
 62
7
100
AcDbLine
 10
805.545154
 20
611.522565
 30
0.0
 11
809.463037
 21
604.026443
 31
0.0
  0
LINE
  5
30c
100
AcDbEntity
  8
Outline
 62
7
100
AcDbLine
 10
809.463037
 20
604.026443
 30
0.0
 11
813.034342
 21
596.359711
 31
0.0
  0
LINE
  5
30d
100
AcDbEntity
  8
Outline
 62
7
100
AcDbLine
 10
813.034342
 20
596.359711
 30
0.0
 11
816.252151
 21
588.541323
 31
0.0
  0
LINE
  5
30e
100
AcDbEntity
  8
Outline
 62
7
100
AcDbLine
 10
816.252151
 20
588.541323
 30
0.0
 11
819.109546
 21
580.590231
 31
0.0
  0
LINE
  5
30f
100
AcDbEntity
  8
Outline
 62
7
100
AcDbLine
 10
819.109546
 20
580.590231
 30
0.0
 11
821.599610
 21
572.525390
 31
0.0
  0
LINE
  5
310
100
AcDbEntity
  8
Outline
 62
7
100
AcDbLine
 10
821.599610
 20
572.525390
 30
0.0
 11
823.630740
 21
564.591816
 31
0.0
  0
LINE
  5
311
100
AcDbEntity
  8
Outline
 62
7
100
AcDbLine
 10
823.630740
 20
564.591816
 30
0.0
 11
825.368268
 21
556.598194
 31
0.0
  0
LINE
  5
312
100
AcDbEntity
  8
Outline
 62
7
100
AcDbLine
 10
825.368268
 20
556.598194
 30
0.0
 11
826.818632
 21
548.552632
 31
0.0
  0
LINE
  5
313
100
AcDbEntity
  8
Outline
 62
7
100
AcDbLine
 10
826.818632
 20
548.552632
 30
0.0
 11
827.988270
 21
540.463235
 31
0.0
  0
LINE
  5
314
100
AcDbEntity
  8
Outline
 62
7
100
AcDbLine
 10
827.988270
 20
540.463235
 30
0.0
 11
828.883619
 21
532.338108
 31
0.0
  0
LINE
  5
315
100
AcDbEntity
  8
Outline
 62
7
100
AcDbLine
 10
828.883619
 20
532.338108
 30
0.0
 11
829.511117
 21
524.185358
 31
0.0
  0
LINE
  5
316
100
AcDbEntity
  8
Outline
 62
7
100
AcDbLine
 10
829.511117
 20
524.185358
 30
0.0
 11
829.877204
 21
516.013090
 31
0.0
  0
LINE
  5
317
100
AcDbEntity
  8
Outline
 62
7
100
AcDbLine
 10
829.877204
 20
516.013090
 30
0.0
 11
829.988316
 21
507.829411
 31
0.0
  0
LINE
  5
318
100
AcDbEntity
  8
Outline
 62
7
100
AcDbLine
 10
829.988316
 20
507.829411
 30
0.0
 11
829.850892
 21
499.642427
 31
0.0
  0
LINE
  5
319
100
AcDbEntity
  8
Outline
 62
7
100
AcDbLine
 10
829.850892
 20
499.642427
 30
0.0
 11
829.471370
 21
491.460243
 31
0.0
  0
LINE
  5
31a
100
AcDbEntity
  8
Outline
 62
7
100
AcDbLine
 10
829.471370
 20
491.460243
 30
0.0
 11
828.856187
 21
483.290965
 31
0.0
  0
LINE
  5
31b
100
AcDbEntity
  8
Outline
 62
7
100
AcDbLine
 10
828.856187
 20
483.290965
 30
0.0
 11
828.011782
 21
475.142700
 31
0.0
  0
LINE
  5
31c
100
AcDbEntity
  8
Outline
 62
7
100
AcDbLine
 10
828.011782
 20
475.142700
 30
0.0
 11
826.944593
 21
467.023553
 31
0.0
  0
LINE
  5
31d
100
AcDbEntity
  8
Outline
 62
7
100
AcDbLine
 10
826.944593
 20
467.023553
 30
0.0
 11
825.661058
 21
458.941630
 31
0.0
  0
LINE
  5
31e
100
AcDbEntity
  8
Outline
 62
7
100
AcDbLine
 10
825.661058
 20
458.941630
 30
0.0
 11
824.167614
 21
450.905037
 31
0.0
  0
LINE
  5
31f
100
AcDbEntity
  8
Outline
 62
7
100
AcDbLine
 10
824.167614
 20
450.905037
 30
0.0
 11
822.470700
 21
442.921880
 31
0.0
  0
LINE
  5
320
100
AcDbEntity
  8
Outline
 62
7
100
AcDbLine
 10
822.470700
 20
442.921880
 30
0.0
 11
819.866132
 21
432.242489
 31
0.0
  0
LINE
  5
321
100
AcDbEntity
  8
Outline
 62
7
100
AcDbLine
 10
819.866132
 20
432.242489
 30
0.0
 11
816.767789
 21
421.747195
 31
0.0
  0
LINE
  5
322
100
AcDbEntity
  8
Outline
 62
7
100
AcDbLine
 10
816.767789
 20
421.747195
 30
0.0
 11
813.203681
 21
411.432749
 31
0.0
  0
LINE
  5
323
100
AcDbEntity
  8
Outline
 62
7
100
AcDbLine
 10
813.203681
 20
411.432749
 30
0.0
 11
809.201819
 21
401.295904
 31
0.0
  0
LINE
  5
324
100
AcDbEntity
  8
Outline
 62
7
100
AcDbLine
 10
809.201819
 20
401.295904
 30
0.0
 11
804.790214
 21
391.333410
 31
0.0
  0
LINE
  5
325
100
AcDbEntity
  8
Outline
 62
7
100
AcDbLine
 10
804.790214
 20
391.333410
 30
0.0
 11
799.996875
 21
381.542020
 31
0.0
  0
LINE
  5
326
100
AcDbEntity
  8
Outline
 62
7
100
AcDbLine
 10
799.996875
 20
381.542020
 30
0.0
 11
794.849814
 21
371.918486
 31
0.0
  0
LINE
  5
327
100
AcDbEntity
  8
Outline
 62
7
100
AcDbLine
 10
794.849814
 20
371.918486
 30
0.0
 11
789.377040
 21
362.459559
 31
0.0
  0
LINE
  5
328
100
AcDbEntity
  8
Outline
 62
7
100
AcDbLine
 10
789.377040
 20
362.459559
 30
0.0
 11
783.606565
 21
353.161991
 31
0.0
  0
LINE
  5
329
100
AcDbEntity
  8
Outline
 62
7
100
AcDbLine
 10
783.606565
 20
353.161991
 30
0.0
 11
777.566398
 21
344.022534
 31
0.0
  0
LINE
  5
32a
100
AcDbEntity
  8
Outline
 62
7
100
AcDbLine
 10
777.566398
 20
344.022534
 30
0.0
 11
771.284551
 21
335.037939
 31
0.0
  0
LINE
  5
32b
100
AcDbEntity
  8
Outline
 62
7
100
AcDbLine
 10
771.284551
 20
335.037939
 30
0.0
 11
764.789033
 21
326.204960
 31
0.0
  0
LINE
  5
32c
100
AcDbEntity
  8
Outline
 62
7
100
AcDbLine
 10
764.789033
 20
326.204960
 30
0.0
 11
758.107856
 21
317.520346
 31
0.0
  0
LINE
  5
32d
100
AcDbEntity
  8
Outline
 62
7
100
AcDbLine
 10
758.107856
 20
317.520346
 30
0.0
 11
751.269029
 21
308.980850
 31
0.0
  0
LINE
  5
32e
100
AcDbEntity
  8
Outline
 62
7
100
AcDbLine
 10
751.269029
 20
308.980850
 30
0.0
 11
744.300564
 21
300.583224
 31
0.0
  0
LINE
  5
32f
100
AcDbEntity
  8
Outline
 62
7
100
AcDbLine
 10
744.300564
 20
300.583224
 30
0.0
 11
737.230470
 21
292.324220
 31
0.0
  0
LINE
  5
330
100
AcDbEntity
  8
Outline
 62
7
100
AcDbLine
 10
737.230470
 20
292.324220
 30
0.0
 11
721.660608
 21
275.242533
 31
0.0
  0
LINE
  5
331
100
AcDbEntity
  8
Outline
 62
7
100
AcDbLine
 10
721.660608
 20
275.242533
 30
0.0
 11
705.731384
 21
258.521451
 31
0.0
  0
LINE
  5
332
100
AcDbEntity
  8
Outline
 62
7
100
AcDbLine
 10
705.731384
 20
258.521451
 30
0.0
 11
689.460545
 21
242.148953
 31
0.0
  0
LINE
  5
333
100
AcDbEntity
  8
Outline
 62
7
100
AcDbLine
 10
689.460545
 20
242.148953
 30
0.0
 11
672.865838
 21
226.113020
 31
0.0
  0
LINE
  5
334
100
AcDbEntity
  8
Outline
 62
7
100
AcDbLine
 10
672.865838
 20
226.113020
 30
0.0
 11
655.965010
 21
210.401631
 31
0.0
  0
LINE
  5
335
100
AcDbEntity
  8
Outline
 62
7
100
AcDbLine
 10
655.965010
 20
210.401631
 30
0.0
 11
638.775810
 21
195.002767
 31
0.0
  0
LINE
  5
336
100
AcDbEntity
  8
Outline
 62
7
100
AcDbLine
 10
638.775810
 20
195.002767
 30
0.0
 11
621.315984
 21
179.904407
 31
0.0
  0
LINE
  5
337
100
AcDbEntity
  8
Outline
 62
7
100
AcDbLine
 10
621.315984
 20
179.904407
 30
0.0
 11
603.603280
 21
165.094533
 31
0.0
  0
LINE
  5
338
100
AcDbEntity
  8
Outline
 62
7
100
AcDbLine
 10
603.603280
 20
165.094533
 30
0.0
 11
585.655445
 21
150.561122
 31
0.0
  0
LINE
  5
339
100
AcDbEntity
  8
Outline
 62
7
100
AcDbLine
 10
585.655445
 20
150.561122
 30
0.0
 11
567.490228
 21
136.292157
 31
0.0
  0
LINE
  5
33a
100
AcDbEntity
  8
Outline
 62
7
100
AcDbLine
 10
567.490228
 20
136.292157
 30
0.0
 11
549.125374
 21
122.275617
 31
0.0
  0
LINE
  5
33b
100
AcDbEntity
  8
Outline
 62
7
100
AcDbLine
 10
549.125374
 20
122.275617
 30
0.0
 11
530.578632
 21
108.499482
 31
0.0
  0
LINE
  5
33c
100
AcDbEntity
  8
Outline
 62
7
100
AcDbLine
 10
530.578632
 20
108.499482
 30
0.0
 11
511.867749
 21
94.951731
 31
0.0
  0
LINE
  5
33d
100
AcDbEntity
  8
Outline
 62
7
100
AcDbLine
 10
511.867749
 20
94.951731
 30
0.0
 11
493.010473
 21
81.620346
 31
0.0
  0
LINE
  5
33e
100
AcDbEntity
  8
Outline
 62
7
100
AcDbLine
 10
493.010473
 20
81.620346
 30
0.0
 11
474.024551
 21
68.493305
 31
0.0
  0
LINE
  5
33f
100
AcDbEntity
  8
Outline
 62
7
100
AcDbLine
 10
474.024551
 20
68.493305
 30
0.0
 11
454.927730
 21
55.558590
 31
0.0
  0
LINE
  5
340
100
AcDbEntity
  8
Outline
 62
7
100
AcDbLine
 10
454.927730
 20
55.558590
 30
0.0
 11
452.488035
 21
54.169227
 31
0.0
  0
LINE
  5
341
100
AcDbEntity
  8
Outline
 62
7
100
AcDbLine
 10
452.488035
 20
54.169227
 30
0.0
 11
450.123976
 21
52.446967
 31
0.0
  0
LINE
  5
342
100
AcDbEntity
  8
Outline
 62
7
100
AcDbLine
 10
450.123976
 20
52.446967
 30
0.0
 11
445.421411
 21
48.768996
 31
0.0
  0
LINE
  5
343
100
AcDbEntity
  8
Outline
 62
7
100
AcDbLine
 10
445.421411
 20
48.768996
 30
0.0
 11
442.982226
 21
47.195906
 31
0.0
  0
LINE
  5
344
100
AcDbEntity
  8
Outline
 62
7
100
AcDbLine
 10
442.982226
 20
47.195906
 30
0.0
 11
440.417318
 21
46.055160
 31
0.0
  0
LINE
  5
345
100
AcDbEntity
  8
Outline
 62
7
100
AcDbLine
 10
440.417318
 20
46.055160
 30
0.0
 11
439.071988
 21
45.706700
 31
0.0
  0
LINE
  5
346
100
AcDbEntity
  8
Outline
 62
7
100
AcDbLine
 10
439.071988
 20
45.706700
 30
0.0
 11
437.676350
 21
45.538067
 31
0.0
  0
LINE
  5
347
100
AcDbEntity
  8
Outline
 62
7
100
AcDbLine
 10
437.676350
 20
45.538067
 30
0.0
 11
436.224111
 21
45.573176
 31
0.0
  0
LINE
  5
348
100
AcDbEntity
  8
Outline
 62
7
100
AcDbLine
 10
436.224111
 20
45.573176
 30
0.0
 11
434.708980
 21
45.835940
 31
0.0
  0
LINE
  5
349
100
AcDbEntity
  8
Outline
 62
7
100
AcDbLine
 10
434.708980
 20
45.835940
 30
0.0
 11
412.450554
 21
60.604448
 31
0.0
  0
LINE
  5
34a
100
AcDbEntity
  8
Outline
 62
7
100
AcDbLine
 10
412.450554
 20
60.604448
 30
0.0
 11
390.375819
 21
75.669045
 31
0.0
  0
LINE
  5
34b
100
AcDbEntity
  8
Outline
 62
7
100
AcDbLine
 10
390.375819
 20
75.669045
 30
0.0
 11
368.498276
 21
91.033967
 31
0.0
  0
LINE
  5
34c
100
AcDbEntity
  8
Outline
 62
7
100
AcDbLine
 10
368.498276
 20
91.033967
 30
0.0
 11
346.831428
 21
106.703450
 31
0.0
  0
LINE
  5
34d
100
AcDbEntity
  8
Outline
 62
7
100
AcDbLine
 10
346.831428
 20
106.703450
 30
0.0
 11
325.388776
 21
122.681730
 31
0.0
  0
LINE
  5
34e
100
AcDbEntity
  8
Outline
 62
7
100
AcDbLine
 10
325.388776
 20
122.681730
 30
0.0
 11
304.183822
 21
138.973045
 31
0.0
  0
LINE
  5
34f
100
AcDbEntity
  8
Outline
 62
7
100
AcDbLine
 10
304.183822
 20
138.973045
 30
0.0
 11
283.230070
 21
155.581629
 31
0.0
  0
LINE
  5
350
100
AcDbEntity
  8
Outline
 62
7
100
AcDbLine
 10
283.230070
 20
155.581629
 30
0.0
 11
262.541020
 21
172.511720
 31
0.0
  0
LINE
  5
351
100
AcDbEntity
  8
Outline
 62
7
100
AcDbLine
 10
262.541020
 20
172.511720
 30
0.0
 11
240.296925
 21
191.703593
 31
0.0
  0
LINE
  5
352
100
AcDbEntity
  8
Outline
 62
7
100
AcDbLine
 10
240.296925
 20
191.703593
 30
0.0
 11
218.284346
 21
211.239070
 31
0.0
  0
LINE
  5
353
100
AcDbEntity
  8
Outline
 62
7
100
AcDbLine
 10
218.284346
 20
211.239070
 30
0.0
 11
207.411784
 21
221.166910
 31
0.0
  0
LINE
  5
354
100
AcDbEntity
  8
Outline
 62
7
100
AcDbLine
 10
207.411784
 20
221.166910
 30
0.0
 11
196.653389
 21
231.218150
 31
0.0
  0
LINE
  5
355
100
AcDbEntity
  8
Outline
 62
7
100
AcDbLine
 10
196.653389
 20
231.218150
 30
0.0
 11
186.027926
 21
241.405291
 31
0.0
  0
LINE
  5
356
100
AcDbEntity
  8
Outline
 62
7
100
AcDbLine
 10
186.027926
 20
241.405291
 30
0.0
 11
175.554157
 21
251.740833
 31
0.0
  0
LINE
  5
357
100
AcDbEntity
  8
Outline
 62
7
100
AcDbLine
 10
175.554157
 20
251.740833
 30
0.0
 11
165.250845
 21
262.237275
 31
0.0
  0
LINE
  5
358
100
AcDbEntity
  8
Outline
 62
7
100
AcDbLine
 10
165.250845
 20
262.237275
 30
0.0
 11
155.136753
 21
272.907117
 31
0.0
  0
LINE
  5
359
100
AcDbEntity
  8
Outline
 62
7
100
AcDbLine
 10
155.136753
 20
272.907117
 30
0.0
 11
145.230645
 21
283.762860
 31
0.0
  0
LINE
  5
35a
100
AcDbEntity
  8
Outline
 62
7
100
AcDbLine
 10
145.230645
 20
283.762860
 30
0.0
 11
135.551284
 21
294.817003
 31
0.0
  0
LINE
  5
35b
100
AcDbEntity
  8
Outline
 62
7
100
AcDbLine
 10
135.551284
 20
294.817003
 30
0.0
 11
126.117432
 21
306.082047
 31
0.0
  0
LINE
  5
35c
100
AcDbEntity
  8
Outline
 62
7
100
AcDbLine
 10
126.117432
 20
306.082047
 30
0.0
 11
116.947852
 21
317.570491
 31
0.0
  0
LINE
  5
35d
100
AcDbEntity
  8
Outline
 62
7
100
AcDbLine
 10
116.947852
 20
317.570491
 30
0.0
 11
108.061308
 21
329.294836
 31
0.0
  0
LINE
  5
35e
100
AcDbEntity
  8
Outline
 62
7
100
AcDbLine
 10
108.061308
 20
329.294836
 30
0.0
 11
99.476562
 21
341.267580
 31
0.0
  0
LINE
  5
35f
100
AcDbEntity
  8
Outline
 62
7
100
AcDbLine
 10
99.476562
 20
341.267580
 30
0.0
 11
94.546038
 21
348.242414
 31
0.0
  0
LINE
  5
360
100
AcDbEntity
  8
Outline
 62
7
100
AcDbLine
 10
94.546038
 20
348.242414
 30
0.0
 11
89.816112
 21
355.358466
 31
0.0
  0
LINE
  5
361
100
AcDbEntity
  8
Outline
 62
7
100
AcDbLine
 10
89.816112
 20
355.358466
 30
0.0
 11
85.292965
 21
362.609717
 31
0.0
  0
LINE
  5
362
100
AcDbEntity
  8
Outline
 62
7
100
AcDbLine
 10
85.292965
 20
362.609717
 30
0.0
 11
80.982778
 21
369.990151
 31
0.0
  0
LINE
  5
363
100
AcDbEntity
  8
Outline
 62
7
100
AcDbLine
 10
80.982778
 20
369.990151
 30
0.0
 11
76.891730
 21
377.493751
 31
0.0
  0
LINE
  5
364
100
AcDbEntity
  8
Outline
 62
7
100
AcDbLine
 10
76.891730
 20
377.493751
 30
0.0
 11
73.026003
 21
385.114500
 31
0.0
  0
LINE
  5
365
100
AcDbEntity
  8
Outline
 62
7
100
AcDbLine
 10
73.026003
 20
385.114500
 30
0.0
 11
69.391777
 21
392.846380
 31
0.0
  0
LINE
  5
366
100
AcDbEntity
  8
Outline
 62
7
100
AcDbLine
 10
69.391777
 20
392.846380
 30
0.0
 11
65.995233
 21
400.683375
 31
0.0
  0
LINE
  5
367
100
AcDbEntity
  8
Outline
 62
7
100
AcDbLine
 10
65.995233
 20
400.683375
 30
0.0
 11
62.842551
 21
408.619467
 31
0.0
  0
LINE
  5
368
100
AcDbEntity
  8
Outline
 62
7
100
AcDbLine
 10
62.842551
 20
408.619467
 30
0.0
 11
59.939912
 21
416.648640
 31
0.0
  0
LINE
  5
369
100
AcDbEntity
  8
Outline
 62
7
100
AcDbLine
 10
59.939912
 20
416.648640
 30
0.0
 11
57.293497
 21
424.764877
 31
0.0
  0
LINE
  5
36a
100
AcDbEntity
  8
Outline
 62
7
100
AcDbLine
 10
57.293497
 20
424.764877
 30
0.0
 11
54.909485
 21
432.962159
 31
0.0
  0
LINE
  5
36b
100
AcDbEntity
  8
Outline
 62
7
100
AcDbLine
 10
54.909485
 20
432.962159
 30
0.0
 11
52.794059
 21
441.234471
 31
0.0
  0
LINE
  5
36c
100
AcDbEntity
  8
Outline
 62
7
100
AcDbLine
 10
52.794059
 20
441.234471
 30
0.0
 11
50.953398
 21
449.575794
 31
0.0
  0
LINE
  5
36d
100
AcDbEntity
  8
Outline
 62
7
100
AcDbLine
 10
50.953398
 20
449.575794
 30
0.0
 11
49.393683
 21
457.980113
 31
0.0
  0
LINE
  5
36e
100
AcDbEntity
  8
Outline
 62
7
100
AcDbLine
 10
49.393683
 20
457.980113
 30
0.0
 11
48.121094
 21
466.441410
 31
0.0
  0
LINE
  5
36f
100
AcDbEntity
  8
Outline
 62
7
100
AcDbLine
 10
48.121094
 20
466.441410
 30
0.0
 11
46.787879
 21
476.369278
 31
0.0
  0
LINE
  5
370
100
AcDbEntity
  8
Outline
 62
7
100
AcDbLine
 10
46.787879
 20
476.369278
 30
0.0
 11
45.799681
 21
486.371478
 31
0.0
  0
LINE
  5
371
100
AcDbEntity
  8
Outline
 62
7
100
AcDbLine
 10
45.799681
 20
486.371478
 30
0.0
 11
45.169375
 21
496.425617
 31
0.0
  0
LINE
  5
372
100
AcDbEntity
  8
Outline
 62
7
100
AcDbLine
 10
45.169375
 20
496.425617
 30
0.0
 11
44.909838
 21
506.509304
 31
0.0
  0
LINE
  5
373
100
AcDbEntity
  8
Outline
 62
7
100
AcDbLine
 10
44.909838
 20
506.509304
 30
0.0
 11
45.033946
 21
516.600149
 31
0.0
  0
LINE
  5
374
100
AcDbEntity
  8
Outline
 62
7
100
AcDbLine
 10
45.033946
 20
516.600149
 30
0.0
 11
45.554576
 21
526.675760
 31
0.0
  0
LINE
  5
375
100
AcDbEntity
  8
Outline
 62
7
100
AcDbLine
 10
45.554576
 20
526.675760
 30
0.0
 11
46.484604
 21
536.713746
 31
0.0
  0
LINE
  5
376
100
AcDbEntity
  8
Outline
 62
7
100
AcDbLine
 10
46.484604
 20
536.713746
 30
0.0
 11
47.836906
 21
546.691716
 31
0.0
  0
LINE
  5
377
100
AcDbEntity
  8
Outline
 62
7
100
AcDbLine
 10
47.836906
 20
546.691716
 30
0.0
 11
49.624358
 21
556.587279
 31
0.0
  0
LINE
  5
378
100
AcDbEntity
  8
Outline
 62
7
100
AcDbLine
 10
49.624358
 20
556.587279
 30
0.0
 11
51.859837
 21
566.378044
 31
0.0
  0
LINE
  5
379
100
AcDbEntity
  8
Outline
 62
7
100
AcDbLine
 10
51.859837
 20
566.378044
 30
0.0
 11
54.556218
 21
576.041620
 31
0.0
  0
LINE
  5
37a
100
AcDbEntity
  8
Outline
 62
7
100
AcDbLine
 10
54.556218
 20
576.041620
 30
0.0
 11
57.726380
 21
585.555615
 31
0.0
  0
LINE
  5
37b
100
AcDbEntity
  8
Outline
 62
7
100
AcDbLine
 10
57.726380
 20
585.555615
 30
0.0
 11
61.383197
 21
594.897639
 31
0.0
  0
LINE
  5
37c
100
AcDbEntity
  8
Outline
 62
7
100
AcDbLine
 10
61.383197
 20
594.897639
 30
0.0
 11
65.539545
 21
604.045300
 31
0.0
  0
LINE
  5
37d
100
AcDbEntity
  8
Outline
 62
7
100
AcDbLine
 10
65.539545
 20
604.045300
 30
0.0
 11
70.208302
 21
612.976208
 31
0.0
  0
LINE
  5
37e
100
AcDbEntity
  8
Outline
 62
7
100
AcDbLine
 10
70.208302
 20
612.976208
 30
0.0
 11
75.402344
 21
621.667970
 31
0.0
  0
LINE
  5
37f
100
AcDbEntity
  8
Outline
 62
7
100
AcDbLine
 10
75.402344
 20
621.667970
 30
0.0
 11
78.141787
 21
625.924258
 31
0.0
  0
LINE
  5
380
100
AcDbEntity
  8
Outline
 62
7
100
AcDbLine
 10
78.141787
 20
625.924258
 30
0.0
 11
81.012210
 21
630.074286
 31
0.0
  0
LINE
  5
381
100
AcDbEntity
  8
Outline
 62
7
100
AcDbLine
 10
81.012210
 20
630.074286
 30
0.0
 11
84.009615
 21
634.117570
 31
0.0
  0
LINE
  5
382
100
AcDbEntity
  8
Outline
 62
7
100
AcDbLine
 10
84.009615
 20
634.117570
 30
0.0
 11
87.130003
 21
638.053629
 31
0.0
  0
LINE
  5
383
100
AcDbEntity
  8
Outline
 62
7
100
AcDbLine
 10
87.130003
 20
638.053629
 30
0.0
 11
90.369374
 21
641.881978
 31
0.0
  0
LINE
  5
384
100
AcDbEntity
  8
Outline
 62
7
100
AcDbLine
 10
90.369374
 20
641.881978
 30
0.0
 11
93.723732
 21
645.602135
 31
0.0
  0
LINE
  5
385
100
AcDbEntity
  8
Outline
 62
7
100
AcDbLine
 10
93.723732
 20
645.602135
 30
0.0
 11
97.189076
 21
649.213616
 31
0.0
  0
LINE
  5
386
100
AcDbEntity
  8
Outline
 62
7
100
AcDbLine
 10
97.189076
 20
649.213616
 30
0.0
 11
100.761409
 21
652.715937
 31
0.0
  0
LINE
  5
387
100
AcDbEntity
  8
Outline
 62
7
100
AcDbLine
 10
100.761409
 20
652.715937
 30
0.0
 11
108.211043
 21
659.391170
 31
0.0
  0
LINE
  5
388
100
AcDbEntity
  8
Outline
 62
7
100
AcDbLine
 10
108.211043
 20
659.391170
 30
0.0
 11
116.040646
 21
665.623969
 31
0.0
  0
LINE
  5
389
100
AcDbEntity
  8
Outline
 62
7
100
AcDbLine
 10
116.040646
 20
665.623969
 30
0.0
 11
124.218229
 21
671.410466
 31
0.0
  0
LINE
  5
38a
100
AcDbEntity
  8
Outline
 62
7
100
AcDbLine
 10
124.218229
 20
671.410466
 30
0.0
 11
132.711801
 21
676.746798
 31
0.0
  0
LINE
  5
38b
100
AcDbEntity
  8
Outline
 62
7
100
AcDbLine
 10
132.711801
 20
676.746798
 30
0.0
 11
141.489373
 21
681.629097
 31
0.0
  0
LINE
  5
38c
100
AcDbEntity
  8
Outline
 62
7
100
AcDbLine
 10
141.489373
 20
681.629097
 30
0.0
 11
150.518955
 21
686.053499
 31
0.0
  0
LINE
  5
38d
100
AcDbEntity
  8
Outline
 62
7
100
AcDbLine
 10
150.518955
 20
686.053499
 30
0.0
 11
159.768560
 21
690.016137
 31
0.0
  0
LINE
  5
38e
100
AcDbEntity
  8
Outline
 62
7
100
AcDbLine
 10
159.768560
 20
690.016137
 30
0.0
 11
169.206196
 21
693.513146
 31
0.0
  0
LINE
  5
38f
100
AcDbEntity
  8
Outline
 62
7
100
AcDbLine
 10
169.206196
 20
693.513146
 30
0.0
 11
178.799874
 21
696.540661
 31
0.0
  0
LINE
  5
390
100
AcDbEntity
  8
Outline
 62
7
100
AcDbLine
 10
178.799874
 20
696.540661
 30
0.0
 11
188.517606
 21
699.094815
 31
0.0
  0
LINE
  5
391
100
AcDbEntity
  8
Outline
 62
7
100
AcDbLine
 10
188.517606
 20
699.094815
 30
0.0
 11
198.327401
 21
701.171742
 31
0.0
  0
LINE
  5
392
100
AcDbEntity
  8
Outline
 62
7
100
AcDbLine
 10
198.327401
 20
701.171742
 30
0.0
 11
208.197270
 21
702.767578
 31
0.0
  0
LINE
  5
393
100
AcDbEntity
  8
Outline
 62
7
100
AcDbLine
 10
208.197270
 20
702.767578
 30
0.0
 11
217.009888
 21
703.666208
 31
0.0
  0
LINE
  5
394
100
AcDbEntity
  8
Outline
 62
7
100
AcDbLine
 10
217.009888
 20
703.666208
 30
0.0
 11
225.847002
 21
704.308916
 31
0.0
  0
LINE
  5
395
100
AcDbEntity
  8
Outline
 62
7
100
AcDbLine
 10
225.847002
 20
704.308916
 30
0.0
 11
234.701099
 21
704.696639
 31
0.0
  0
LINE
  5
396
100
AcDbEntity
  8
Outline
 62
7
100
AcDbLine
 10
234.701099
 20
704.696639
 30
0.0
 11
243.564667
 21
704.830311
 31
0.0
  0
LINE
  5
397
100
AcDbEntity
  8
Outline
 62
7
100
AcDbLine
 10
243.564667
 20
704.830311
 30
0.0
 11
252.430194
 21
704.710868
 31
0.0
  0
LINE
  5
398
100
AcDbEntity
  8
Outline
 62
7
100
AcDbLine
 10
252.430194
 20
704.710868
 30
0.0
 11
261.290166
 21
704.339247
 31
0.0
  0
LINE
  5
399
100
AcDbEntity
  8
Outline
 62
7
100
AcDbLine
 10
261.290166
 20
704.339247
 30
0.0
 11
270.137071
 21
703.716381
 31
0.0
  0
LINE
  5
39a
100
AcDbEntity
  8
Outline
 62
7
100
AcDbLine
 10
270.137071
 20
703.716381
 30
0.0
 11
278.963397
 21
702.843208
 31
0.0
  0
LINE
  5
39b
100
AcDbEntity
  8
Outline
 62
7
100
AcDbLine
 10
278.963397
 20
702.843208
 30
0.0
 11
287.761632
 21
701.720662
 31
0.0
  0
LINE
  5
39c
100
AcDbEntity
  8
Outline
 62
7
100
AcDbLine
 10
287.761632
 20
701.720662
 30
0.0
 11
296.524261
 21
700.349678
 31
0.0
  0
LINE
  5
39d
100
AcDbEntity
  8
Outline
 62
7
100
AcDbLine
 10
296.524261
 20
700.349678
 30
0.0
 11
305.243774
 21
698.731193
 31
0.0
  0
LINE
  5
39e
100
AcDbEntity
  8
Outline
 62
7
100
AcDbLine
 10
305.243774
 20
698.731193
 30
0.0
 11
313.912657
 21
696.866141
 31
0.0
  0
LINE
  5
39f
100
AcDbEntity
  8
Outline
 62
7
100
AcDbLine
 10
313.912657
 20
696.866141
 30
0.0
 11
322.523397
 21
694.755459
 31
0.0
  0
LINE
  5
3a0
100
AcDbEntity
  8
Outline
 62
7
100
AcDbLine
 10
322.523397
 20
694.755459
 30
0.0
 11
331.068483
 21
692.400082
 31
0.0
  0
LINE
  5
3a1
100
AcDbEntity
  8
Outline
 62
7
100
AcDbLine
 10
331.068483
 20
692.400082
 30
0.0
 11
339.540401
 21
689.800945
 31
0.0
  0
LINE
  5
3a2
100
AcDbEntity
  8
Outline
 62
7
100
AcDbLine
 10
339.540401
 20
689.800945
 30
0.0
 11
347.931640
 21
686.958984
 31
0.0
  0
LINE
  5
3a3
100
AcDbEntity
  8
Outline
 62
7
100
AcDbLine
 10
347.931640
 20
686.958984
 30
0.0
 11
355.061916
 21
684.338817
 31
0.0
  0
LINE
  5
3a4
100
AcDbEntity
  8
Outline
 62
7
100
AcDbLine
 10
355.061916
 20
684.338817
 30
0.0
 11
362.120720
 21
681.412862
 31
0.0
  0
LINE
  5
3a5
100
AcDbEntity
  8
Outline
 62
7
100
AcDbLine
 10
362.120720
 20
681.412862
 30
0.0
 11
369.079551
 21
678.182096
 31
0.0
  0
LINE
  5
3a6
100
AcDbEntity
  8
Outline
 62
7
100
AcDbLine
 10
369.079551
 20
678.182096
 30
0.0
 11
375.909907
 21
674.647496
 31
0.0
  0
LINE
  5
3a7
100
AcDbEntity
  8
Outline
 62
7
100
AcDbLine
 10
375.909907
 20
674.647496
 30
0.0
 11
382.583286
 21
670.810037
 31
0.0
  0
LINE
  5
3a8
100
AcDbEntity
  8
Outline
 62
7
100
AcDbLine
 10
382.583286
 20
670.810037
 30
0.0
 11
389.071187
 21
666.670698
 31
0.0
  0
LINE
  5
3a9
100
AcDbEntity
  8
Outline
 62
7
100
AcDbLine
 10
389.071187
 20
666.670698
 30
0.0
 11
395.345107
 21
662.230454
 31
0.0
  0
LINE
  5
3aa
100
AcDbEntity
  8
Outline
 62
7
100
AcDbLine
 10
395.345107
 20
662.230454
 30
0.0
 11
401.376546
 21
657.490281
 31
0.0
  0
LINE
  5
3ab
100
AcDbEntity
  8
Outline
 62
7
100
AcDbLine
 10
401.376546
 20
657.490281
 30
0.0
 11
407.137002
 21
652.451157
 31
0.0
  0
LINE
  5
3ac
100
AcDbEntity
  8
Outline
 62
7
100
AcDbLine
 10
407.137002
 20
652.451157
 30
0.0
 11
412.597973
 21
647.114057
 31
0.0
  0
LINE
  5
3ad
100
AcDbEntity
  8
Outline
 62
7
100
AcDbLine
 10
412.597973
 20
647.114057
 30
0.0
 11
417.730957
 21
641.479959
 31
0.0
  0
LINE
  5
3ae
100
AcDbEntity
  8
Outline
 62
7
100
AcDbLine
 10
417.730957
 20
641.479959
 30
0.0
 11
422.507453
 21
635.549839
 31
0.0
  0
LINE
  5
3af
100
AcDbEntity
  8
Outline
 62
7
100
AcDbLine
 10
422.507453
 20
635.549839
 30
0.0
 11
426.898959
 21
629.324674
 31
0.0
  0
LINE
  5
3b0
100
AcDbEntity
  8
Outline
 62
7
100
AcDbLine
 10
426.898959
 20
629.324674
 30
0.0
 11
430.876973
 21
622.805439
 31
0.0
  0
LINE
  5
3b1
100
AcDbEntity
  8
Outline
 62
7
100
AcDbLine
 10
430.876973
 20
622.805439
 30
0.0
 11
434.412994
 21
615.993113
 31
0.0
  0
LINE
  5
3b2
100
AcDbEntity
  8
Outline
 62
7
100
AcDbLine
 10
434.412994
 20
615.993113
 30
0.0
 11
437.478520
 21
608.888670
 31
0.0
  0
LINE
  5
3b3
100
AcDbEntity
  8
Outline
 62
7
100
AcDbLine
 10
437.478520
 20
608.888670
 30
0.0
 11
439.435198
 21
613.636935
 31
0.0
  0
LINE
  5
3b4
100
AcDbEntity
  8
Outline
 62
7
100
AcDbLine
 10
439.435198
 20
613.636935
 30
0.0
 11
441.621720
 21
618.265364
 31
0.0
  0
LINE
  5
3b5
100
AcDbEntity
  8
Outline
 62
7
100
AcDbLine
 10
441.621720
 20
618.265364
 30
0.0
 11
444.027351
 21
622.772204
 31
0.0
  0
LINE
  5
3b6
100
AcDbEntity
  8
Outline
 62
7
100
AcDbLine
 10
444.027351
 20
622.772204
 30
0.0
 11
446.641356
 21
627.155699
 31
0.0
  0
LINE
  5
3b7
100
AcDbEntity
  8
Outline
 62
7
100
AcDbLine
 10
446.641356
 20
627.155699
 30
0.0
 11
449.453003
 21
631.414095
 31
0.0
  0
LINE
  5
3b8
100
AcDbEntity
  8
Outline
 62
7
100
AcDbLine
 10
449.453003
 20
631.414095
 30
0.0
 11
452.451556
 21
635.545637
 31
0.0
  0
LINE
  5
3b9
100
AcDbEntity
  8
Outline
 62
7
100
AcDbLine
 10
452.451556
 20
635.545637
 30
0.0
 11
455.626283
 21
639.548570
 31
0.0
  0
LINE
  5
3ba
100
AcDbEntity
  8
Outline
 62
7
100
AcDbLine
 10
455.626283
 20
639.548570
 30
0.0
 11
458.966448
 21
643.421140
 31
0.0
  0
LINE
  5
3bb
100
AcDbEntity
  8
Outline
 62
7
100
AcDbLine
 10
458.966448
 20
643.421140
 30
0.0
 11
462.461317
 21
647.161591
 31
0.0
  0
LINE
  5
3bc
100
AcDbEntity
  8
Outline
 62
7
100
AcDbLine
 10
462.461317
 20
647.161591
 30
0.0
 11
466.100157
 21
650.768170
 31
0.0
  0
LINE
  5
3bd
100
AcDbEntity
  8
Outline
 62
7
100
AcDbLine
 10
466.100157
 20
650.768170
 30
0.0
 11
469.872234
 21
654.239121
 31
0.0
  0
LINE
  5
3be
100
AcDbEntity
  8
Outline
 62
7
100
AcDbLine
 10
469.872234
 20
654.239121
 30
0.0
 11
473.766813
 21
657.572690
 31
0.0
  0
LINE
  5
3bf
100
AcDbEntity
  8
Outline
 62
7
100
AcDbLine
 10
473.766813
 20
657.572690
 30
0.0
 11
477.773160
 21
660.767121
 31
0.0
  0
LINE
  5
3c0
100
AcDbEntity
  8
Outline
 62
7
100
AcDbLine
 10
477.773160
 20
660.767121
 30
0.0
 11
481.880541
 21
663.820661
 31
0.0
  0
LINE
  5
3c1
100
AcDbEntity
  8
Outline
 62
7
100
AcDbLine
 10
481.880541
 20
663.820661
 30
0.0
 11
486.078222
 21
666.731555
 31
0.0
  0
LINE
  5
3c2
100
AcDbEntity
  8
Outline
 62
7
100
AcDbLine
 10
486.078222
 20
666.731555
 30
0.0
 11
490.355470
 21
669.498047
 31
0.0
  0
LINE
  5
3c3
100
AcDbEntity
  8
Outline
 62
7
100
AcDbLine
 10
490.355470
 20
669.498047
 30
0.0
 11
498.365038
 21
674.039588
 31
0.0
  0
LINE
  5
3c4
100
AcDbEntity
  8
Outline
 62
7
100
AcDbLine
 10
498.365038
 20
674.039588
 30
0.0
 11
506.541716
 21
678.219186
 31
0.0
  0
LINE
  5
3c5
100
AcDbEntity
  8
Outline
 62
7
100
AcDbLine
 10
506.541716
 20
678.219186
 30
0.0
 11
514.872374
 21
682.048031
 31
0.0
  0
LINE
  5
3c6
100
AcDbEntity
  8
Outline
 62
7
100
AcDbLine
 10
514.872374
 20
682.048031
 30
0.0
 11
523.343882
 21
685.537315
 31
0.0
  0
LINE
  5
3c7
100
AcDbEntity
  8
Outline
 62
7
100
AcDbLine
 10
523.343882
 20
685.537315
 30
0.0
 11
531.943109
 21
688.698226
 31
0.0
  0
LINE
  5
3c8
100
AcDbEntity
  8
Outline
 62
7
100
AcDbLine
 10
531.943109
 20
688.698226
 30
0.0
 11
540.656927
 21
691.541955
 31
0.0
  0
LINE
  5
3c9
100
AcDbEntity
  8
Outline
 62
7
100
AcDbLine
 10
540.656927
 20
691.541955
 30
0.0
 11
549.472204
 21
694.079693
 31
0.0
  0
LINE
  5
3ca
100
AcDbEntity
  8
Outline
 62
7
100
AcDbLine
 10
549.472204
 20
694.079693
 30
0.0
 11
558.375813
 21
696.322630
 31
0.0
  0
LINE
  5
3cb
100
AcDbEntity
  8
Outline
 62
7
100
AcDbLine
 10
558.375813
 20
696.322630
 30
0.0
 11
567.354621
 21
698.281955
 31
0.0
  0
LINE
  5
3cc
100
AcDbEntity
  8
Outline
 62
7
100
AcDbLine
 10
567.354621
 20
698.281955
 30
0.0
 11
576.395500
 21
699.968859
 31
0.0
  0
LINE
  5
3cd
100
AcDbEntity
  8
Outline
 62
7
100
AcDbLine
 10
576.395500
 20
699.968859
 30
0.0
 11
585.485319
 21
701.394532
 31
0.0
  0
LINE
  5
3ce
100
AcDbEntity
  8
Outline
 62
7
100
AcDbLine
 10
585.485319
 20
701.394532
 30
0.0
 11
594.610950
 21
702.570165
 31
0.0
  0
LINE
  5
3cf
100
AcDbEntity
  8
Outline
 62
7
100
AcDbLine
 10
594.610950
 20
702.570165
 30
0.0
 11
603.759261
 21
703.506948
 31
0.0
  0
LINE
  5
3d0
100
AcDbEntity
  8
Outline
 62
7
100
AcDbLine
 10
603.759261
 20
703.506948
 30
0.0
 11
612.917123
 21
704.216070
 31
0.0
  0
LINE
  5
3d1
100
AcDbEntity
  8
Outline
 62
7
100
AcDbLine
 10
612.917123
 20
704.216070
 30
0.0
 11
622.071406
 21
704.708722
 31
0.0
  0
LINE
  5
3d2
100
AcDbEntity
  8
Outline
 62
7
100
AcDbLine
 10
622.071406
 20
704.708722
 30
0.0
 11
631.208980
 21
704.996094
 31
0.0
  0
LINE
  5
3d3
100
AcDbEntity
  8
Outline
 62
7
100
AcDbLine
 10
631.208980
 20
704.996094
 30
0.0
 11
634.798830
 21
705.000000
 31
0.0
  0
LINE
  5
3d4
100
AcDbEntity
  8
Outline
 62
7
100
AcDbLine
 10
634.798830
 20
705.000000
 30
0.0
 11
634.798830
 21
705.000000
 31
0.0
  0
LINE
  5
3d5
100
AcDbEntity
  8
Heart
 62
7
100
AcDbLine
 10
60.478876
 20
431.458653
 30
0.0
 11
58.500225
 21
439.521808
 31
0.0
  0
LINE
  5
3d6
100
AcDbEntity
  8
Heart
 62
7
100
AcDbLine
 10
58.500225
 20
439.521808
 30
0.0
 11
56.734514
 21
447.489572
 31
0.0
  0
LINE
  5
3d7
100
AcDbEntity
  8
Heart
 62
7
100
AcDbLine
 10
56.734514
 20
447.489572
 30
0.0
 11
55.179501
 21
455.360587
 31
0.0
  0
LINE
  5
3d8
100
AcDbEntity
  8
Heart
 62
7
100
AcDbLine
 10
55.179501
 20
455.360587
 30
0.0
 11
53.832942
 21
463.133498
 31
0.0
  0
LINE
  5
3d9
100
AcDbEntity
  8
Heart
 62
7
100
AcDbLine
 10
53.832942
 20
463.133498
 30
0.0
 11
52.692595
 21
470.806949
 31
0.0
  0
LINE
  5
3da
100
AcDbEntity
  8
Heart
 62
7
100
AcDbLine
 10
52.692595
 20
470.806949
 30
0.0
 11
51.756217
 21
478.379584
 31
0.0
  0
LINE
  5
3db
100
AcDbEntity
  8
Heart
 62
7
100
AcDbLine
 10
51.756217
 20
478.379584
 30
0.0
 11
51.021565
 21
485.850046
 31
0.0
  0
LINE
  5
3dc
100
AcDbEntity
  8
Heart
 62
7
100
AcDbLine
 10
51.021565
 20
485.850046
 30
0.0
 11
50.486397
 21
493.216980
 31
0.0
  0
LINE
  5
3dd
100
AcDbEntity
  8
Heart
 62
7
100
AcDbLine
 10
50.486397
 20
493.216980
 30
0.0
 11
50.148468
 21
500.479029
 31
0.0
  0
LINE
  5
3de
100
AcDbEntity
  8
Heart
 62
7
100
AcDbLine
 10
50.148468
 20
500.479029
 30
0.0
 11
50.005537
 21
507.634837
 31
0.0
  0
LINE
  5
3df
100
AcDbEntity
  8
Heart
 62
7
100
AcDbLine
 10
50.005537
 20
507.634837
 30
0.0
 11
50.055361
 21
514.683048
 31
0.0
  0
LINE
  5
3e0
100
AcDbEntity
  8
Heart
 62
7
100
AcDbLine
 10
50.055361
 20
514.683048
 30
0.0
 11
50.295697
 21
521.622305
 31
0.0
  0
LINE
  5
3e1
100
AcDbEntity
  8
Heart
 62
7
100
AcDbLine
 10
50.295697
 20
521.622305
 30
0.0
 11
50.724302
 21
528.451254
 31
0.0
  0
LINE
  5
3e2
100
AcDbEntity
  8
Heart
 62
7
100
AcDbLine
 10
50.724302
 20
528.451254
 30
0.0
 11
51.338933
 21
535.168537
 31
0.0
  0
LINE
  5
3e3
100
AcDbEntity
  8
Heart
 62
7
100
AcDbLine
 10
51.338933
 20
535.168537
 30
0.0
 11
52.137347
 21
541.772799
 31
0.0
  0
LINE
  5
3e4
100
AcDbEntity
  8
Heart
 62
7
100
AcDbLine
 10
52.137347
 20
541.772799
 30
0.0
 11
53.117301
 21
548.262684
 31
0.0
  0
LINE
  5
3e5
100
AcDbEntity
  8
Heart
 62
7
100
AcDbLine
 10
53.117301
 20
548.262684
 30
0.0
 11
54.276554
 21
554.636834
 31
0.0
  0
LINE
  5
3e6
100
AcDbEntity
  8
Heart
 62
7
100
AcDbLine
 10
54.276554
 20
554.636834
 30
0.0
 11
55.612861
 21
560.893895
 31
0.0
  0
LINE
  5
3e7
100
AcDbEntity
  8
Heart
 62
7
100
AcDbLine
 10
55.612861
 20
560.893895
 30
0.0
 11
57.123980
 21
567.032510
 31
0.0
  0
LINE
  5
3e8
100
AcDbEntity
  8
Heart
 62
7
100
AcDbLine
 10
57.123980
 20
567.032510
 30
0.0
 11
58.807668
 21
573.051323
 31
0.0
  0
LINE
  5
3e9
100
AcDbEntity
  8
Heart
 62
7
100
AcDbLine
 10
58.807668
 20
573.051323
 30
0.0
 11
60.661682
 21
578.948977
 31
0.0
  0
LINE
  5
3ea
100
AcDbEntity
  8
Heart
 62
7
100
AcDbLine
 10
60.661682
 20
578.948977
 30
0.0
 11
62.683780
 21
584.724118
 31
0.0
  0
LINE
  5
3eb
100
AcDbEntity
  8
Heart
 62
7
100
AcDbLine
 10
62.683780
 20
584.724118
 30
0.0
 11
64.871719
 21
590.375387
 31
0.0
  0
LINE
  5
3ec
100
AcDbEntity
  8
Heart
 62
7
100
AcDbLine
 10
64.871719
 20
590.375387
 30
0.0
 11
67.223255
 21
595.901431
 31
0.0
  0
LINE
  5
3ed
100
AcDbEntity
  8
Heart
 62
7
100
AcDbLine
 10
67.223255
 20
595.901431
 30
0.0
 11
69.736146
 21
601.300892
 31
0.0
  0
LINE
  5
3ee
100
AcDbEntity
  8
Heart
 62
7
100
AcDbLine
 10
69.736146
 20
601.300892
 30
0.0
 11
72.408149
 21
606.572413
 31
0.0
  0
LINE
  5
3ef
100
AcDbEntity
  8
Heart
 62
7
100
AcDbLine
 10
72.408149
 20
606.572413
 30
0.0
 11
75.237021
 21
611.714640
 31
0.0
  0
LINE
  5
3f0
100
AcDbEntity
  8
Heart
 62
7
100
AcDbLine
 10
75.237021
 20
611.714640
 30
0.0
 11
78.220520
 21
616.726216
 31
0.0
  0
LINE
  5
3f1
100
AcDbEntity
  8
Heart
 62
7
100
AcDbLine
 10
78.220520
 20
616.726216
 30
0.0
 11
81.356402
 21
621.605785
 31
0.0
  0
LINE
  5
3f2
100
AcDbEntity
  8
Heart
 62
7
100
AcDbLine
 10
81.356402
 20
621.605785
 30
0.0
 11
84.642424
 21
626.351991
 31
0.0
  0
LINE
  5
3f3
100
AcDbEntity
  8
Heart
 62
7
100
AcDbLine
 10
84.642424
 20
626.351991
 30
0.0
 11
88.076345
 21
630.963477
 31
0.0
  0
LINE
  5
3f4
100
AcDbEntity
  8
Heart
 62
7
100
AcDbLine
 10
88.076345
 20
630.963477
 30
0.0
 11
91.655921
 21
635.438888
 31
0.0
  0
LINE
  5
3f5
100
AcDbEntity
  8
Heart
 62
7
100
AcDbLine
 10
91.655921
 20
635.438888
 30
0.0
 11
95.378908
 21
639.776867
 31
0.0
  0
LINE
  5
3f6
100
AcDbEntity
  8
Heart
 62
7
100
AcDbLine
 10
95.378908
 20
639.776867
 30
0.0
 11
99.243065
 21
643.976058
 31
0.0
  0
LINE
  5
3f7
100
AcDbEntity
  8
Heart
 62
7
100
AcDbLine
 10
99.243065
 20
643.976058
 30
0.0
 11
103.246149
 21
648.035106
 31
0.0
  0
LINE
  5
3f8
100
AcDbEntity
  8
Heart
 62
7
100
AcDbLine
 10
103.246149
 20
648.035106
 30
0.0
 11
107.385916
 21
651.952653
 31
0.0
  0
LINE
  5
3f9
100
AcDbEntity
  8
Heart
 62
7
100
AcDbLine
 10
107.385916
 20
651.952653
 30
0.0
 11
111.660123
 21
655.727345
 31
0.0
  0
LINE
  5
3fa
100
AcDbEntity
  8
Heart
 62
7
100
AcDbLine
 10
111.660123
 20
655.727345
 30
0.0
 11
116.066529
 21
659.357824
 31
0.0
  0
LINE
  5
3fb
100
AcDbEntity
  8
Heart
 62
7
100
AcDbLine
 10
116.066529
 20
659.357824
 30
0.0
 11
120.602890
 21
662.842735
 31
0.0
  0
LINE
  5
3fc
100
AcDbEntity
  8
Heart
 62
7
100
AcDbLine
 10
120.602890
 20
662.842735
 30
0.0
 11
125.266963
 21
666.180721
 31
0.0
  0
LINE
  5
3fd
100
AcDbEntity
  8
Heart
 62
7
100
AcDbLine
 10
125.266963
 20
666.180721
 30
0.0
 11
130.056505
 21
669.370427
 31
0.0
  0
LINE
  5
3fe
100
AcDbEntity
  8
Heart
 62
7
100
AcDbLine
 10
130.056505
 20
669.370427
 30
0.0
 11
134.969274
 21
672.410496
 31
0.0
  0
LINE
  5
3ff
100
AcDbEntity
  8
Heart
 62
7
100
AcDbLine
 10
134.969274
 20
672.410496
 30
0.0
 11
140.003026
 21
675.299572
 31
0.0
  0
LINE
  5
400
100
AcDbEntity
  8
Heart
 62
7
100
AcDbLine
 10
140.003026
 20
675.299572
 30
0.0
 11
145.155520
 21
678.036300
 31
0.0
  0
LINE
  5
401
100
AcDbEntity
  8
Heart
 62
7
100
AcDbLine
 10
145.155520
 20
678.036300
 30
0.0
 11
150.424511
 21
680.619322
 31
0.0
  0
LINE
  5
402
100
AcDbEntity
  8
Heart
 62
7
100
AcDbLine
 10
150.424511
 20
680.619322
 30
0.0
 11
155.807758
 21
683.047283
 31
0.0
  0
LINE
  5
403
100
AcDbEntity
  8
Heart
 62
7
100
AcDbLine
 10
155.807758
 20
683.047283
 30
0.0
 11
161.303017
 21
685.318827
 31
0.0
  0
LINE
  5
404
100
AcDbEntity
  8
Heart
 62
7
100
AcDbLine
 10
161.303017
 20
685.318827
 30
0.0
 11
166.908045
 21
687.432597
 31
0.0
  0
LINE
  5
405
100
AcDbEntity
  8
Heart
 62
7
100
AcDbLine
 10
166.908045
 20
687.432597
 30
0.0
 11
172.620600
 21
689.387238
 31
0.0
  0
LINE
  5
406
100
AcDbEntity
  8
Heart
 62
7
100
AcDbLine
 10
172.620600
 20
689.387238
 30
0.0
 11
178.438439
 21
691.181393
 31
0.0
  0
LINE
  5
407
100
AcDbEntity
  8
Heart
 62
7
100
AcDbLine
 10
178.438439
 20
691.181393
 30
0.0
 11
184.359319
 21
692.813707
 31
0.0
  0
LINE
  5
408
100
AcDbEntity
  8
Heart
 62
7
100
AcDbLine
 10
184.359319
 20
692.813707
 30
0.0
 11
190.380997
 21
694.282822
 31
0.0
  0
LINE
  5
409
100
AcDbEntity
  8
Heart
 62
7
100
AcDbLine
 10
190.380997
 20
694.282822
 30
0.0
 11
196.501230
 21
695.587383
 31
0.0
  0
LINE
  5
40a
100
AcDbEntity
  8
Heart
 62
7
100
AcDbLine
 10
196.501230
 20
695.587383
 30
0.0
 11
202.717775
 21
696.726035
 31
0.0
  0
LINE
  5
40b
100
AcDbEntity
  8
Heart
 62
7
100
AcDbLine
 10
202.717775
 20
696.726035
 30
0.0
 11
209.028391
 21
697.697420
 31
0.0
  0
LINE
  5
40c
100
AcDbEntity
  8
Heart
 62
7
100
AcDbLine
 10
209.028391
 20
697.697420
 30
0.0
 11
215.430832
 21
698.500182
 31
0.0
  0
LINE
  5
40d
100
AcDbEntity
  8
Heart
 62
7
100
AcDbLine
 10
215.430832
 20
698.500182
 30
0.0
 11
221.922858
 21
699.132966
 31
0.0
  0
LINE
  5
40e
100
AcDbEntity
  8
Heart
 62
7
100
AcDbLine
 10
221.922858
 20
699.132966
 30
0.0
 11
228.502225
 21
699.594416
 31
0.0
  0
LINE
  5
40f
100
AcDbEntity
  8
Heart
 62
7
100
AcDbLine
 10
228.502225
 20
699.594416
 30
0.0
 11
235.166690
 21
699.883175
 31
0.0
  0
LINE
  5
410
100
AcDbEntity
  8
Heart
 62
7
100
AcDbLine
 10
235.166690
 20
699.883175
 30
0.0
 11
241.914010
 21
699.997887
 31
0.0
  0
LINE
  5
411
100
AcDbEntity
  8
Heart
 62
7
100
AcDbLine
 10
241.914010
 20
699.997887
 30
0.0
 11
248.741943
 21
699.937195
 31
0.0
  0
LINE
  5
412
100
AcDbEntity
  8
Heart
 62
7
100
AcDbLine
 10
248.741943
 20
699.937195
 30
0.0
 11
255.648245
 21
699.699745
 31
0.0
  0
LINE
  5
413
100
AcDbEntity
  8
Heart
 62
7
100
AcDbLine
 10
255.648245
 20
699.699745
 30
0.0
 11
262.630675
 21
699.284180
 31
0.0
  0
LINE
  5
414
100
AcDbEntity
  8
Heart
 62
7
100
AcDbLine
 10
262.630675
 20
699.284180
 30
0.0
 11
269.686988
 21
698.689143
 31
0.0
  0
LINE
  5
415
100
AcDbEntity
  8
Heart
 62
7
100
AcDbLine
 10
269.686988
 20
698.689143
 30
0.0
 11
284.361101
 21
697.003972
 31
0.0
  0
LINE
  5
416
100
AcDbEntity
  8
Heart
 62
7
100
AcDbLine
 10
284.361101
 20
697.003972
 30
0.0
 11
298.155257
 21
694.891640
 31
0.0
  0
LINE
  5
417
100
AcDbEntity
  8
Heart
 62
7
100
AcDbLine
 10
298.155257
 20
694.891640
 30
0.0
 11
311.096615
 21
692.383668
 31
0.0
  0
LINE
  5
418
100
AcDbEntity
  8
Heart
 62
7
100
AcDbLine
 10
311.096615
 20
692.383668
 30
0.0
 11
323.212330
 21
689.511578
 31
0.0
  0
LINE
  5
419
100
AcDbEntity
  8
Heart
 62
7
100
AcDbLine
 10
323.212330
 20
689.511578
 30
0.0
 11
334.529561
 21
686.306891
 31
0.0
  0
LINE
  5
41a
100
AcDbEntity
  8
Heart
 62
7
100
AcDbLine
 10
334.529561
 20
686.306891
 30
0.0
 11
345.075464
 21
682.801129
 31
0.0
  0
LINE
  5
41b
100
AcDbEntity
  8
Heart
 62
7
100
AcDbLine
 10
345.075464
 20
682.801129
 30
0.0
 11
354.877197
 21
679.025811
 31
0.0
  0
LINE
  5
41c
100
AcDbEntity
  8
Heart
 62
7
100
AcDbLine
 10
354.877197
 20
679.025811
 30
0.0
 11
363.961916
 21
675.012461
 31
0.0
  0
LINE
  5
41d
100
AcDbEntity
  8
Heart
 62
7
100
AcDbLine
 10
363.961916
 20
675.012461
 30
0.0
 11
372.356780
 21
670.792599
 31
0.0
  0
LINE
  5
41e
100
AcDbEntity
  8
Heart
 62
7
100
AcDbLine
 10
372.356780
 20
670.792599
 30
0.0
 11
380.088945
 21
666.397747
 31
0.0
  0
LINE
  5
41f
100
AcDbEntity
  8
Heart
 62
7
100
AcDbLine
 10
380.088945
 20
666.397747
 30
0.0
 11
387.185569
 21
661.859426
 31
0.0
  0
LINE
  5
420
100
AcDbEntity
  8
Heart
 62
7
100
AcDbLine
 10
387.185569
 20
661.859426
 30
0.0
 11
393.673808
 21
657.209157
 31
0.0
  0
LINE
  5
421
100
AcDbEntity
  8
Heart
 62
7
100
AcDbLine
 10
393.673808
 20
657.209157
 30
0.0
 11
399.580820
 21
652.478461
 31
0.0
  0
LINE
  5
422
100
AcDbEntity
  8
Heart
 62
7
100
AcDbLine
 10
399.580820
 20
652.478461
 30
0.0
 11
404.933763
 21
647.698861
 31
0.0
  0
LINE
  5
423
100
AcDbEntity
  8
Heart
 62
7
100
AcDbLine
 10
404.933763
 20
647.698861
 30
0.0
 11
409.759792
 21
642.901876
 31
0.0
  0
LINE
  5
424
100
AcDbEntity
  8
Heart
 62
7
100
AcDbLine
 10
409.759792
 20
642.901876
 30
0.0
 11
414.086067
 21
638.119029
 31
0.0
  0
LINE
  5
425
100
AcDbEntity
  8
Heart
 62
7
100
AcDbLine
 10
414.086067
 20
638.119029
 30
0.0
 11
417.939743
 21
633.381841
 31
0.0
  0
LINE
  5
426
100
AcDbEntity
  8
Heart
 62
7
100
AcDbLine
 10
417.939743
 20
633.381841
 30
0.0
 11
421.347978
 21
628.721833
 31
0.0
  0
LINE
  5
427
100
AcDbEntity
  8
Heart
 62
7
100
AcDbLine
 10
421.347978
 20
628.721833
 30
0.0
 11
424.337929
 21
624.170527
 31
0.0
  0
LINE
  5
428
100
AcDbEntity
  8
Heart
 62
7
100
AcDbLine
 10
424.337929
 20
624.170527
 30
0.0
 11
426.936754
 21
619.759443
 31
0.0
  0
LINE
  5
429
100
AcDbEntity
  8
Heart
 62
7
100
AcDbLine
 10
426.936754
 20
619.759443
 30
0.0
 11
429.171609
 21
615.520104
 31
0.0
  0
LINE
  5
42a
100
AcDbEntity
  8
Heart
 62
7
100
AcDbLine
 10
429.171609
 20
615.520104
 30
0.0
 11
431.069652
 21
611.484030
 31
0.0
  0
LINE
  5
42b
100
AcDbEntity
  8
Heart
 62
7
100
AcDbLine
 10
431.069652
 20
611.484030
 30
0.0
 11
432.658040
 21
607.682743
 31
0.0
  0
LINE
  5
42c
100
AcDbEntity
  8
Heart
 62
7
100
AcDbLine
 10
432.658040
 20
607.682743
 30
0.0
 11
433.963930
 21
604.147764
 31
0.0
  0
LINE
  5
42d
100
AcDbEntity
  8
Heart
 62
7
100
AcDbLine
 10
433.963930
 20
604.147764
 30
0.0
 11
435.836846
 21
598.002816
 31
0.0
  0
LINE
  5
42e
100
AcDbEntity
  8
Heart
 62
7
100
AcDbLine
 10
435.836846
 20
598.002816
 30
0.0
 11
436.905658
 21
593.301356
 31
0.0
  0
LINE
  5
42f
100
AcDbEntity
  8
Heart
 62
7
100
AcDbLine
 10
436.905658
 20
593.301356
 30
0.0
 11
437.387623
 21
590.295555
 31
0.0
  0
LINE
  5
430
100
AcDbEntity
  8
Heart
 62
7
100
AcDbLine
 10
437.387623
 20
590.295555
 30
0.0
 11
437.499998
 21
589.237583
 31
0.0
  0
LINE
  5
431
100
AcDbEntity
  8
Heart
 62
7
100
AcDbLine
 10
437.499998
 20
589.237583
 30
0.0
 11
437.612373
 21
590.295555
 31
0.0
  0
LINE
  5
432
100
AcDbEntity
  8
Heart
 62
7
100
AcDbLine
 10
437.612373
 20
590.295555
 30
0.0
 11
438.094338
 21
593.301356
 31
0.0
  0
LINE
  5
433
100
AcDbEntity
  8
Heart
 62
7
100
AcDbLine
 10
438.094338
 20
593.301356
 30
0.0
 11
439.163149
 21
598.002816
 31
0.0
  0
LINE
  5
434
100
AcDbEntity
  8
Heart
 62
7
100
AcDbLine
 10
439.163149
 20
598.002816
 30
0.0
 11
441.036064
 21
604.147764
 31
0.0
  0
LINE
  5
435
100
AcDbEntity
  8
Heart
 62
7
100
AcDbLine
 10
441.036064
 20
604.147764
 30
0.0
 11
442.341954
 21
607.682743
 31
0.0
  0
LINE
  5
436
100
AcDbEntity
  8
Heart
 62
7
100
AcDbLine
 10
442.341954
 20
607.682743
 30
0.0
 11
443.930342
 21
611.484030
 31
0.0
  0
LINE
  5
437
100
AcDbEntity
  8
Heart
 62
7
100
AcDbLine
 10
443.930342
 20
611.484030
 30
0.0
 11
445.828385
 21
615.520104
 31
0.0
  0
LINE
  5
438
100
AcDbEntity
  8
Heart
 62
7
100
AcDbLine
 10
445.828385
 20
615.520104
 30
0.0
 11
448.063240
 21
619.759443
 31
0.0
  0
LINE
  5
439
100
AcDbEntity
  8
Heart
 62
7
100
AcDbLine
 10
448.063240
 20
619.759443
 30
0.0
 11
450.662064
 21
624.170527
 31
0.0
  0
LINE
  5
43a
100
AcDbEntity
  8
Heart
 62
7
100
AcDbLine
 10
450.662064
 20
624.170527
 30
0.0
 11
453.652015
 21
628.721833
 31
0.0
  0
LINE
  5
43b
100
AcDbEntity
  8
Heart
 62
7
100
AcDbLine
 10
453.652015
 20
628.721833
 30
0.0
 11
457.060250
 21
633.381841
 31
0.0
  0
LINE
  5
43c
100
AcDbEntity
  8
Heart
 62
7
100
AcDbLine
 10
457.060250
 20
633.381841
 30
0.0
 11
460.913926
 21
638.119029
 31
0.0
  0
LINE
  5
43d
100
AcDbEntity
  8
Heart
 62
7
100
AcDbLine
 10
460.913926
 20
638.119029
 30
0.0
 11
465.240200
 21
642.901876
 31
0.0
  0
LINE
  5
43e
100
AcDbEntity
  8
Heart
 62
7
100
AcDbLine
 10
465.240200
 20
642.901876
 30
0.0
 11
470.066229
 21
647.698861
 31
0.0
  0
LINE
  5
43f
100
AcDbEntity
  8
Heart
 62
7
100
AcDbLine
 10
470.066229
 20
647.698861
 30
0.0
 11
475.419171
 21
652.478461
 31
0.0
  0
LINE
  5
440
100
AcDbEntity
  8
Heart
 62
7
100
AcDbLine
 10
475.419171
 20
652.478461
 30
0.0
 11
481.326184
 21
657.209157
 31
0.0
  0
LINE
  5
441
100
AcDbEntity
  8
Heart
 62
7
100
AcDbLine
 10
481.326184
 20
657.209157
 30
0.0
 11
487.814423
 21
661.859426
 31
0.0
  0
LINE
  5
442
100
AcDbEntity
  8
Heart
 62
7
100
AcDbLine
 10
487.814423
 20
661.859426
 30
0.0
 11
494.911046
 21
666.397747
 31
0.0
  0
LINE
  5
443
100
AcDbEntity
  8
Heart
 62
7
100
AcDbLine
 10
494.911046
 20
666.397747
 30
0.0
 11
502.643212
 21
670.792599
 31
0.0
  0
LINE
  5
444
100
AcDbEntity
  8
Heart
 62
7
100
AcDbLine
 10
502.643212
 20
670.792599
 30
0.0
 11
511.038076
 21
675.012461
 31
0.0
  0
LINE
  5
445
100
AcDbEntity
  8
Heart
 62
7
100
AcDbLine
 10
511.038076
 20
675.012461
 30
0.0
 11
520.122795
 21
679.025811
 31
0.0
  0
LINE
  5
446
100
AcDbEntity
  8
Heart
 62
7
100
AcDbLine
 10
520.122795
 20
679.025811
 30
0.0
 11
529.924528
 21
682.801129
 31
0.0
  0
LINE
  5
447
100
AcDbEntity
  8
Heart
 62
7
100
AcDbLine
 10
529.924528
 20
682.801129
 30
0.0
 11
540.470432
 21
686.306891
 31
0.0
  0
LINE
  5
448
100
AcDbEntity
  8
Heart
 62
7
100
AcDbLine
 10
540.470432
 20
686.306891
 30
0.0
 11
551.787663
 21
689.511578
 31
0.0
  0
LINE
  5
449
100
AcDbEntity
  8
Heart
 62
7
100
AcDbLine
 10
551.787663
 20
689.511578
 30
0.0
 11
563.903379
 21
692.383668
 31
0.0
  0
LINE
  5
44a
100
AcDbEntity
  8
Heart
 62
7
100
AcDbLine
 10
563.903379
 20
692.383668
 30
0.0
 11
576.844737
 21
694.891640
 31
0.0
  0
LINE
  5
44b
100
AcDbEntity
  8
Heart
 62
7
100
AcDbLine
 10
576.844737
 20
694.891640
 30
0.0
 11
590.638894
 21
697.003972
 31
0.0
  0
LINE
  5
44c
100
AcDbEntity
  8
Heart
 62
7
100
AcDbLine
 10
590.638894
 20
697.003972
 30
0.0
 11
605.313008
 21
698.689143
 31
0.0
  0
LINE
  5
44d
100
AcDbEntity
  8
Heart
 62
7
100
AcDbLine
 10
605.313008
 20
698.689143
 30
0.0
 11
612.369322
 21
699.284180
 31
0.0
  0
LINE
  5
44e
100
AcDbEntity
  8
Heart
 62
7
100
AcDbLine
 10
612.369322
 20
699.284180
 30
0.0
 11
619.351751
 21
699.699745
 31
0.0
  0
LINE
  5
44f
100
AcDbEntity
  8
Heart
 62
7
100
AcDbLine
 10
619.351751
 20
699.699745
 30
0.0
 11
626.258054
 21
699.937195
 31
0.0
  0
LINE
  5
450
100
AcDbEntity
  8
Heart
 62
7
100
AcDbLine
 10
626.258054
 20
699.937195
 30
0.0
 11
633.085987
 21
699.997887
 31
0.0
  0
LINE
  5
451
100
AcDbEntity
  8
Heart
 62
7
100
AcDbLine
 10
633.085987
 20
699.997887
 30
0.0
 11
639.833308
 21
699.883175
 31
0.0
  0
LINE
  5
452
100
AcDbEntity
  8
Heart
 62
7
100
AcDbLine
 10
639.833308
 20
699.883175
 30
0.0
 11
646.497773
 21
699.594416
 31
0.0
  0
LINE
  5
453
100
AcDbEntity
  8
Heart
 62
7
100
AcDbLine
 10
646.497773
 20
699.594416
 30
0.0
 11
653.077140
 21
699.132966
 31
0.0
  0
LINE
  5
454
100
AcDbEntity
  8
Heart
 62
7
100
AcDbLine
 10
653.077140
 20
699.132966
 30
0.0
 11
659.569166
 21
698.500182
 31
0.0
  0
LINE
  5
455
100
AcDbEntity
  8
Heart
 62
7
100
AcDbLine
 10
659.569166
 20
698.500182
 30
0.0
 11
665.971608
 21
697.697420
 31
0.0
  0
LINE
  5
456
100
AcDbEntity
  8
Heart
 62
7
100
AcDbLine
 10
665.971608
 20
697.697420
 30
0.0
 11
672.282224
 21
696.726035
 31
0.0
  0
LINE
  5
457
100
AcDbEntity
  8
Heart
 62
7
100
AcDbLine
 10
672.282224
 20
696.726035
 30
0.0
 11
678.498769
 21
695.587383
 31
0.0
  0
LINE
  5
458
100
AcDbEntity
  8
Heart
 62
7
100
AcDbLine
 10
678.498769
 20
695.587383
 30
0.0
 11
684.619003
 21
694.282822
 31
0.0
  0
LINE
  5
459
100
AcDbEntity
  8
Heart
 62
7
100
AcDbLine
 10
684.619003
 20
694.282822
 30
0.0
 11
690.640680
 21
692.813707
 31
0.0
  0
LINE
  5
45a
100
AcDbEntity
  8
Heart
 62
7
100
AcDbLine
 10
690.640680
 20
692.813707
 30
0.0
 11
696.561560
 21
691.181393
 31
0.0
  0
LINE
  5
45b
100
AcDbEntity
  8
Heart
 62
7
100
AcDbLine
 10
696.561560
 20
691.181393
 30
0.0
 11
702.379399
 21
689.387238
 31
0.0
  0
LINE
  5
45c
100
AcDbEntity
  8
Heart
 62
7
100
AcDbLine
 10
702.379399
 20
689.387238
 30
0.0
 11
708.091954
 21
687.432597
 31
0.0
  0
LINE
  5
45d
100
AcDbEntity
  8
Heart
 62
7
100
AcDbLine
 10
708.091954
 20
687.432597
 30
0.0
 11
713.696983
 21
685.318827
 31
0.0
  0
LINE
  5
45e
100
AcDbEntity
  8
Heart
 62
7
100
AcDbLine
 10
713.696983
 20
685.318827
 30
0.0
 11
719.192242
 21
683.047283
 31
0.0
  0
LINE
  5
45f
100
AcDbEntity
  8
Heart
 62
7
100
AcDbLine
 10
719.192242
 20
683.047283
 30
0.0
 11
724.575488
 21
680.619322
 31
0.0
  0
LINE
  5
460
100
AcDbEntity
  8
Heart
 62
7
100
AcDbLine
 10
724.575488
 20
680.619322
 30
0.0
 11
729.844480
 21
678.036300
 31
0.0
  0
LINE
  5
461
100
AcDbEntity
  8
Heart
 62
7
100
AcDbLine
 10
729.844480
 20
678.036300
 30
0.0
 11
734.996973
 21
675.299572
 31
0.0
  0
LINE
  5
462
100
AcDbEntity
  8
Heart
 62
7
100
AcDbLine
 10
734.996973
 20
675.299572
 30
0.0
 11
740.030725
 21
672.410496
 31
0.0
  0
LINE
  5
463
100
AcDbEntity
  8
Heart
 62
7
100
AcDbLine
 10
740.030725
 20
672.410496
 30
0.0
 11
744.943494
 21
669.370427
 31
0.0
  0
LINE
  5
464
100
AcDbEntity
  8
Heart
 62
7
100
AcDbLine
 10
744.943494
 20
669.370427
 30
0.0
 11
749.733037
 21
666.180721
 31
0.0
  0
LINE
  5
465
100
AcDbEntity
  8
Heart
 62
7
100
AcDbLine
 10
749.733037
 20
666.180721
 30
0.0
 11
754.397109
 21
662.842735
 31
0.0
  0
LINE
  5
466
100
AcDbEntity
  8
Heart
 62
7
100
AcDbLine
 10
754.397109
 20
662.842735
 30
0.0
 11
758.933470
 21
659.357824
 31
0.0
  0
LINE
  5
467
100
AcDbEntity
  8
Heart
 62
7
100
AcDbLine
 10
758.933470
 20
659.357824
 30
0.0
 11
763.339876
 21
655.727345
 31
0.0
  0
LINE
  5
468
100
AcDbEntity
  8
Heart
 62
7
100
AcDbLine
 10
763.339876
 20
655.727345
 30
0.0
 11
767.614083
 21
651.952653
 31
0.0
  0
LINE
  5
469
100
AcDbEntity
  8
Heart
 62
7
100
AcDbLine
 10
767.614083
 20
651.952653
 30
0.0
 11
771.753850
 21
648.035106
 31
0.0
  0
LINE
  5
46a
100
AcDbEntity
  8
Heart
 62
7
100
AcDbLine
 10
771.753850
 20
648.035106
 30
0.0
 11
775.756934
 21
643.976058
 31
0.0
  0
LINE
  5
46b
100
AcDbEntity
  8
Heart
 62
7
100
AcDbLine
 10
775.756934
 20
643.976058
 30
0.0
 11
779.621090
 21
639.776867
 31
0.0
  0
LINE
  5
46c
100
AcDbEntity
  8
Heart
 62
7
100
AcDbLine
 10
779.621090
 20
639.776867
 30
0.0
 11
783.344078
 21
635.438888
 31
0.0
  0
LINE
  5
46d
100
AcDbEntity
  8
Heart
 62
7
100
AcDbLine
 10
783.344078
 20
635.438888
 30
0.0
 11
786.923653
 21
630.963477
 31
0.0
  0
LINE
  5
46e
100
AcDbEntity
  8
Heart
 62
7
100
AcDbLine
 10
786.923653
 20
630.963477
 30
0.0
 11
790.357574
 21
626.351991
 31
0.0
  0
LINE
  5
46f
100
AcDbEntity
  8
Heart
 62
7
100
AcDbLine
 10
790.357574
 20
626.351991
 30
0.0
 11
793.643597
 21
621.605785
 31
0.0
  0
LINE
  5
470
100
AcDbEntity
  8
Heart
 62
7
100
AcDbLine
 10
793.643597
 20
621.605785
 30
0.0
 11
796.779479
 21
616.726216
 31
0.0
  0
LINE
  5
471
100
AcDbEntity
  8
Heart
 62
7
100
AcDbLine
 10
796.779479
 20
616.726216
 30
0.0
 11
799.762977
 21
611.714640
 31
0.0
  0
LINE
  5
472
100
AcDbEntity
  8
Heart
 62
7
100
AcDbLine
 10
799.762977
 20
611.714640
 30
0.0
 11
802.591849
 21
606.572413
 31
0.0
  0
LINE
  5
473
100
AcDbEntity
  8
Heart
 62
7
100
AcDbLine
 10
802.591849
 20
606.572413
 30
0.0
 11
805.263852
 21
601.300892
 31
0.0
  0
LINE
  5
474
100
AcDbEntity
  8
Heart
 62
7
100
AcDbLine
 10
805.263852
 20
601.300892
 30
0.0
 11
807.776743
 21
595.901431
 31
0.0
  0
LINE
  5
475
100
AcDbEntity
  8
Heart
 62
7
100
AcDbLine
 10
807.776743
 20
595.901431
 30
0.0
 11
810.128279
 21
590.375387
 31
0.0
  0
LINE
  5
476
100
AcDbEntity
  8
Heart
 62
7
100
AcDbLine
 10
810.128279
 20
590.375387
 30
0.0
 11
812.316218
 21
584.724118
 31
0.0
  0
LINE
  5
477
100
AcDbEntity
  8
Heart
 62
7
100
AcDbLine
 10
812.316218
 20
584.724118
 30
0.0
 11
814.338315
 21
578.948977
 31
0.0
  0
LINE
  5
478
100
AcDbEntity
  8
Heart
 62
7
100
AcDbLine
 10
814.338315
 20
578.948977
 30
0.0
 11
816.192330
 21
573.051323
 31
0.0
  0
LINE
  5
479
100
AcDbEntity
  8
Heart
 62
7
100
AcDbLine
 10
816.192330
 20
573.051323
 30
0.0
 11
817.876018
 21
567.032510
 31
0.0
  0
LINE
  5
47a
100
AcDbEntity
  8
Heart
 62
7
100
AcDbLine
 10
817.876018
 20
567.032510
 30
0.0
 11
819.387137
 21
560.893895
 31
0.0
  0
LINE
  5
47b
100
AcDbEntity
  8
Heart
 62
7
100
AcDbLine
 10
819.387137
 20
560.893895
 30
0.0
 11
820.723444
 21
554.636834
 31
0.0
  0
LINE
  5
47c
100
AcDbEntity
  8
Heart
 62
7
100
AcDbLine
 10
820.723444
 20
554.636834
 30
0.0
 11
821.882697
 21
548.262684
 31
0.0
  0
LINE
  5
47d
100
AcDbEntity
  8
Heart
 62
7
100
AcDbLine
 10
821.882697
 20
548.262684
 30
0.0
 11
822.862652
 21
541.772799
 31
0.0
  0
LINE
  5
47e
100
AcDbEntity
  8
Heart
 62
7
100
AcDbLine
 10
822.862652
 20
541.772799
 30
0.0
 11
823.661066
 21
535.168537
 31
0.0
  0
LINE
  5
47f
100
AcDbEntity
  8
Heart
 62
7
100
AcDbLine
 10
823.661066
 20
535.168537
 30
0.0
 11
824.275697
 21
528.451254
 31
0.0
  0
LINE
  5
480
100
AcDbEntity
  8
Heart
 62
7
100
AcDbLine
 10
824.275697
 20
528.451254
 30
0.0
 11
824.704302
 21
521.622305
 31
0.0
  0
LINE
  5
481
100
AcDbEntity
  8
Heart
 62
7
100
AcDbLine
 10
824.704302
 20
521.622305
 30
0.0
 11
824.944638
 21
514.683048
 31
0.0
  0
LINE
  5
482
100
AcDbEntity
  8
Heart
 62
7
100
AcDbLine
 10
824.944638
 20
514.683048
 30
0.0
 11
824.994462
 21
507.634837
 31
0.0
  0
LINE
  5
483
100
AcDbEntity
  8
Heart
 62
7
100
AcDbLine
 10
824.994462
 20
507.634837
 30
0.0
 11
824.851531
 21
500.479029
 31
0.0
  0
LINE
  5
484
100
AcDbEntity
  8
Heart
 62
7
100
AcDbLine
 10
824.851531
 20
500.479029
 30
0.0
 11
824.513603
 21
493.216980
 31
0.0
  0
LINE
  5
485
100
AcDbEntity
  8
Heart
 62
7
100
AcDbLine
 10
824.513603
 20
493.216980
 30
0.0
 11
823.978435
 21
485.850046
 31
0.0
  0
LINE
  5
486
100
AcDbEntity
  8
Heart
 62
7
100
AcDbLine
 10
823.978435
 20
485.850046
 30
0.0
 11
823.243784
 21
478.379584
 31
0.0
  0
LINE
  5
487
100
AcDbEntity
  8
Heart
 62
7
100
AcDbLine
 10
823.243784
 20
478.379584
 30
0.0
 11
822.307406
 21
470.806949
 31
0.0
  0
LINE
  5
488
100
AcDbEntity
  8
Heart
 62
7
100
AcDbLine
 10
822.307406
 20
470.806949
 30
0.0
 11
821.167059
 21
463.133498
 31
0.0
  0
LINE
  5
489
100
AcDbEntity
  8
Heart
 62
7
100
AcDbLine
 10
821.167059
 20
463.133498
 30
0.0
 11
819.820501
 21
455.360587
 31
0.0
  0
LINE
  5
48a
100
AcDbEntity
  8
Heart
 62
7
100
AcDbLine
 10
819.820501
 20
455.360587
 30
0.0
 11
818.265489
 21
447.489572
 31
0.0
  0
LINE
  5
48b
100
AcDbEntity
  8
Heart
 62
7
100
AcDbLine
 10
818.265489
 20
447.489572
 30
0.0
 11
816.499778
 21
439.521808
 31
0.0
  0
LINE
  5
48c
100
AcDbEntity
  8
Heart
 62
7
100
AcDbLine
 10
816.499778
 20
439.521808
 30
0.0
 11
814.521128
 21
431.458653
 31
0.0
  0
LINE
  5
48d
100
AcDbEntity
  8
Heart
 62
7
100
AcDbLine
 10
814.521128
 20
431.458653
 30
0.0
 11
812.250948
 21
423.417639
 31
0.0
  0
LINE
  5
48e
100
AcDbEntity
  8
Heart
 62
7
100
AcDbLine
 10
812.250948
 20
423.417639
 30
0.0
 11
809.571531
 21
415.324383
 31
0.0
  0
LINE
  5
48f
100
AcDbEntity
  8
Heart
 62
7
100
AcDbLine
 10
809.571531
 20
415.324383
 30
0.0
 11
806.497118
 21
407.184609
 31
0.0
  0
LINE
  5
490
100
AcDbEntity
  8
Heart
 62
7
100
AcDbLine
 10
806.497118
 20
407.184609
 30
0.0
 11
803.041948
 21
399.004042
 31
0.0
  0
LINE
  5
491
100
AcDbEntity
  8
Heart
 62
7
100
AcDbLine
 10
803.041948
 20
399.004042
 30
0.0
 11
799.220263
 21
390.788404
 31
0.0
  0
LINE
  5
492
100
AcDbEntity
  8
Heart
 62
7
100
AcDbLine
 10
799.220263
 20
390.788404
 30
0.0
 11
795.046300
 21
382.543422
 31
0.0
  0
LINE
  5
493
100
AcDbEntity
  8
Heart
 62
7
100
AcDbLine
 10
795.046300
 20
382.543422
 30
0.0
 11
790.534301
 21
374.274818
 31
0.0
  0
LINE
  5
494
100
AcDbEntity
  8
Heart
 62
7
100
AcDbLine
 10
790.534301
 20
374.274818
 30
0.0
 11
785.698505
 21
365.988316
 31
0.0
  0
LINE
  5
495
100
AcDbEntity
  8
Heart
 62
7
100
AcDbLine
 10
785.698505
 20
365.988316
 30
0.0
 11
780.553152
 21
357.689640
 31
0.0
  0
LINE
  5
496
100
AcDbEntity
  8
Heart
 62
7
100
AcDbLine
 10
780.553152
 20
357.689640
 30
0.0
 11
775.112481
 21
349.384515
 31
0.0
  0
LINE
  5
497
100
AcDbEntity
  8
Heart
 62
7
100
AcDbLine
 10
775.112481
 20
349.384515
 30
0.0
 11
769.390734
 21
341.078665
 31
0.0
  0
LINE
  5
498
100
AcDbEntity
  8
Heart
 62
7
100
AcDbLine
 10
769.390734
 20
341.078665
 30
0.0
 11
763.402149
 21
332.777813
 31
0.0
  0
LINE
  5
499
100
AcDbEntity
  8
Heart
 62
7
100
AcDbLine
 10
763.402149
 20
332.777813
 30
0.0
 11
757.160967
 21
324.487683
 31
0.0
  0
LINE
  5
49a
100
AcDbEntity
  8
Heart
 62
7
100
AcDbLine
 10
757.160967
 20
324.487683
 30
0.0
 11
750.681427
 21
316.214000
 31
0.0
  0
LINE
  5
49b
100
AcDbEntity
  8
Heart
 62
7
100
AcDbLine
 10
750.681427
 20
316.214000
 30
0.0
 11
743.977770
 21
307.962488
 31
0.0
  0
LINE
  5
49c
100
AcDbEntity
  8
Heart
 62
7
100
AcDbLine
 10
743.977770
 20
307.962488
 30
0.0
 11
737.064234
 21
299.738870
 31
0.0
  0
LINE
  5
49d
100
AcDbEntity
  8
Heart
 62
7
100
AcDbLine
 10
737.064234
 20
299.738870
 30
0.0
 11
729.955061
 21
291.548870
 31
0.0
  0
LINE
  5
49e
100
AcDbEntity
  8
Heart
 62
7
100
AcDbLine
 10
729.955061
 20
291.548870
 30
0.0
 11
722.664490
 21
283.398214
 31
0.0
  0
LINE
  5
49f
100
AcDbEntity
  8
Heart
 62
7
100
AcDbLine
 10
722.664490
 20
283.398214
 30
0.0
 11
707.596113
 21
267.237824
 31
0.0
  0
LINE
  5
4a0
100
AcDbEntity
  8
Heart
 62
7
100
AcDbLine
 10
707.596113
 20
267.237824
 30
0.0
 11
691.973023
 21
251.303493
 31
0.0
  0
LINE
  5
4a1
100
AcDbEntity
  8
Heart
 62
7
100
AcDbLine
 10
691.973023
 20
251.303493
 30
0.0
 11
675.909138
 21
235.641013
 31
0.0
  0
LINE
  5
4a2
100
AcDbEntity
  8
Heart
 62
7
100
AcDbLine
 10
675.909138
 20
235.641013
 30
0.0
 11
659.518378
 21
220.296176
 31
0.0
  0
LINE
  5
4a3
100
AcDbEntity
  8
Heart
 62
7
100
AcDbLine
 10
659.518378
 20
220.296176
 30
0.0
 11
642.914662
 21
205.314774
 31
0.0
  0
LINE
  5
4a4
100
AcDbEntity
  8
Heart
 62
7
100
AcDbLine
 10
642.914662
 20
205.314774
 30
0.0
 11
626.211908
 21
190.742600
 31
0.0
  0
LINE
  5
4a5
100
AcDbEntity
  8
Heart
 62
7
100
AcDbLine
 10
626.211908
 20
190.742600
 30
0.0
 11
609.524037
 21
176.625444
 31
0.0
  0
LINE
  5
4a6
100
AcDbEntity
  8
Heart
 62
7
100
AcDbLine
 10
609.524037
 20
176.625444
 30
0.0
 11
592.964966
 21
163.009101
 31
0.0
  0
LINE
  5
4a7
100
AcDbEntity
  8
Heart
 62
7
100
AcDbLine
 10
592.964966
 20
163.009101
 30
0.0
 11
576.648616
 21
149.939361
 31
0.0
  0
LINE
  5
4a8
100
AcDbEntity
  8
Heart
 62
7
100
AcDbLine
 10
576.648616
 20
149.939361
 30
0.0
 11
560.688904
 21
137.462017
 31
0.0
  0
LINE
  5
4a9
100
AcDbEntity
  8
Heart
 62
7
100
AcDbLine
 10
560.688904
 20
137.462017
 30
0.0
 11
545.199751
 21
125.622861
 31
0.0
  0
LINE
  5
4aa
100
AcDbEntity
  8
Heart
 62
7
100
AcDbLine
 10
545.199751
 20
125.622861
 30
0.0
 11
530.295075
 21
114.467685
 31
0.0
  0
LINE
  5
4ab
100
AcDbEntity
  8
Heart
 62
7
100
AcDbLine
 10
530.295075
 20
114.467685
 30
0.0
 11
516.088796
 21
104.042282
 31
0.0
  0
LINE
  5
4ac
100
AcDbEntity
  8
Heart
 62
7
100
AcDbLine
 10
516.088796
 20
104.042282
 30
0.0
 11
490.227102
 21
85.563961
 31
0.0
  0
LINE
  5
4ad
100
AcDbEntity
  8
Heart
 62
7
100
AcDbLine
 10
490.227102
 20
85.563961
 30
0.0
 11
468.526023
 21
70.554235
 31
0.0
  0
LINE
  5
4ae
100
AcDbEntity
  8
Heart
 62
7
100
AcDbLine
 10
468.526023
 20
70.554235
 30
0.0
 11
451.896911
 21
59.379442
 31
0.0
  0
LINE
  5
4af
100
AcDbEntity
  8
Heart
 62
7
100
AcDbLine
 10
451.896911
 20
59.379442
 30
0.0
 11
437.499998
 21
50.000003
 31
0.0
  0
LINE
  5
4b0
100
AcDbEntity
  8
Heart
 62
7
100
AcDbLine
 10
437.499998
 20
50.000003
 30
0.0
 11
423.103086
 21
59.379442
 31
0.0
  0
LINE
  5
4b1
100
AcDbEntity
  8
Heart
 62
7
100
AcDbLine
 10
423.103086
 20
59.379442
 30
0.0
 11
406.473974
 21
70.554235
 31
0.0
  0
LINE
  5
4b2
100
AcDbEntity
  8
Heart
 62
7
100
AcDbLine
 10
406.473974
 20
70.554235
 30
0.0
 11
384.772895
 21
85.563961
 31
0.0
  0
LINE
  5
4b3
100
AcDbEntity
  8
Heart
 62
7
100
AcDbLine
 10
384.772895
 20
85.563961
 30
0.0
 11
358.911202
 21
104.042282
 31
0.0
  0
LINE
  5
4b4
100
AcDbEntity
  8
Heart
 62
7
100
AcDbLine
 10
358.911202
 20
104.042282
 30
0.0
 11
344.704923
 21
114.467685
 31
0.0
  0
LINE
  5
4b5
100
AcDbEntity
  8
Heart
 62
7
100
AcDbLine
 10
344.704923
 20
114.467685
 30
0.0
 11
329.800248
 21
125.622861
 31
0.0
  0
LINE
  5
4b6
100
AcDbEntity
  8
Heart
 62
7
100
AcDbLine
 10
329.800248
 20
125.622861
 30
0.0
 11
314.311095
 21
137.462017
 31
0.0
  0
LINE
  5
4b7
100
AcDbEntity
  8
Heart
 62
7
100
AcDbLine
 10
314.311095
 20
137.462017
 30
0.0
 11
298.351384
 21
149.939361
 31
0.0
  0
LINE
  5
4b8
100
AcDbEntity
  8
Heart
 62
7
100
AcDbLine
 10
298.351384
 20
149.939361
 30
0.0
 11
282.035034
 21
163.009101
 31
0.0
  0
LINE
  5
4b9
100
AcDbEntity
  8
Heart
 62
7
100
AcDbLine
 10
282.035034
 20
163.009101
 30
0.0
 11
265.475964
 21
176.625444
 31
0.0
  0
LINE
  5
4ba
100
AcDbEntity
  8
Heart
 62
7
100
AcDbLine
 10
265.475964
 20
176.625444
 30
0.0
 11
248.788093
 21
190.742600
 31
0.0
  0
LINE
  5
4bb
100
AcDbEntity
  8
Heart
 62
7
100
AcDbLine
 10
248.788093
 20
190.742600
 30
0.0
 11
232.085340
 21
205.314774
 31
0.0
  0
LINE
  5
4bc
100
AcDbEntity
  8
Heart
 62
7
100
AcDbLine
 10
232.085340
 20
205.314774
 30
0.0
 11
215.481624
 21
220.296176
 31
0.0
  0
LINE
  5
4bd
100
AcDbEntity
  8
Heart
 62
7
100
AcDbLine
 10
215.481624
 20
220.296176
 30
0.0
 11
199.090864
 21
235.641013
 31
0.0
  0
LINE
  5
4be
100
AcDbEntity
  8
Heart
 62
7
100
AcDbLine
 10
199.090864
 20
235.641013
 30
0.0
 11
183.026980
 21
251.303493
 31
0.0
  0
LINE
  5
4bf
100
AcDbEntity
  8
Heart
 62
7
100
AcDbLine
 10
183.026980
 20
251.303493
 30
0.0
 11
167.403890
 21
267.237824
 31
0.0
  0
LINE
  5
4c0
100
AcDbEntity
  8
Heart
 62
7
100
AcDbLine
 10
167.403890
 20
267.237824
 30
0.0
 11
152.335513
 21
283.398214
 31
0.0
  0
LINE
  5
4c1
100
AcDbEntity
  8
Heart
 62
7
100
AcDbLine
 10
152.335513
 20
283.398214
 30
0.0
 11
145.044942
 21
291.548870
 31
0.0
  0
LINE
  5
4c2
100
AcDbEntity
  8
Heart
 62
7
100
AcDbLine
 10
145.044942
 20
291.548870
 30
0.0
 11
137.935769
 21
299.738870
 31
0.0
  0
LINE
  5
4c3
100
AcDbEntity
  8
Heart
 62
7
100
AcDbLine
 10
137.935769
 20
299.738870
 30
0.0
 11
131.022234
 21
307.962488
 31
0.0
  0
LINE
  5
4c4
100
AcDbEntity
  8
Heart
 62
7
100
AcDbLine
 10
131.022234
 20
307.962488
 30
0.0
 11
124.318577
 21
316.214000
 31
0.0
  0
LINE
  5
4c5
100
AcDbEntity
  8
Heart
 62
7
100
AcDbLine
 10
124.318577
 20
316.214000
 30
0.0
 11
117.839037
 21
324.487683
 31
0.0
  0
LINE
  5
4c6
100
AcDbEntity
  8
Heart
 62
7
100
AcDbLine
 10
117.839037
 20
324.487683
 30
0.0
 11
111.597855
 21
332.777813
 31
0.0
  0
LINE
  5
4c7
100
AcDbEntity
  8
Heart
 62
7
100
AcDbLine
 10
111.597855
 20
332.777813
 30
0.0
 11
105.609270
 21
341.078665
 31
0.0
  0
LINE
  5
4c8
100
AcDbEntity
  8
Heart
 62
7
100
AcDbLine
 10
105.609270
 20
341.078665
 30
0.0
 11
99.887523
 21
349.384515
 31
0.0
  0
LINE
  5
4c9
100
AcDbEntity
  8
Heart
 62
7
100
AcDbLine
 10
99.887523
 20
349.384515
 30
0.0
 11
94.446853
 21
357.689640
 31
0.0
  0
LINE
  5
4ca
100
AcDbEntity
  8
Heart
 62
7
100
AcDbLine
 10
94.446853
 20
357.689640
 30
0.0
 11
89.301500
 21
365.988316
 31
0.0
  0
LINE
  5
4cb
100
AcDbEntity
  8
Heart
 62
7
100
AcDbLine
 10
89.301500
 20
365.988316
 30
0.0
 11
84.465703
 21
374.274818
 31
0.0
  0
LINE
  5
4cc
100
AcDbEntity
  8
Heart
 62
7
100
AcDbLine
 10
84.465703
 20
374.274818
 30
0.0
 11
79.953704
 21
382.543422
 31
0.0
  0
LINE
  5
4cd
100
AcDbEntity
  8
Heart
 62
7
100
AcDbLine
 10
79.953704
 20
382.543422
 30
0.0
 11
75.779742
 21
390.788404
 31
0.0
  0
LINE
  5
4ce
100
AcDbEntity
  8
Heart
 62
7
100
AcDbLine
 10
75.779742
 20
390.788404
 30
0.0
 11
71.958056
 21
399.004042
 31
0.0
  0
LINE
  5
4cf
100
AcDbEntity
  8
Heart
 62
7
100
AcDbLine
 10
71.958056
 20
399.004042
 30
0.0
 11
68.502886
 21
407.184609
 31
0.0
  0
LINE
  5
4d0
100
AcDbEntity
  8
Heart
 62
7
100
AcDbLine
 10
68.502886
 20
407.184609
 30
0.0
 11
65.428473
 21
415.324383
 31
0.0
  0
LINE
  5
4d1
100
AcDbEntity
  8
Heart
 62
7
100
AcDbLine
 10
65.428473
 20
415.324383
 30
0.0
 11
62.749057
 21
423.417639
 31
0.0
  0
LINE
  5
4d2
100
AcDbEntity
  8
Heart
 62
7
100
AcDbLine
 10
62.749057
 20
423.417639
 30
0.0
 11
60.478876
 21
431.458653
 31
0.0
  0
LINE
  5
4d3
100
AcDbEntity
  8
Heart
 62
7
100
AcDbLine
 10
60.478876
 20
431.458653
 30
0.0
 11
60.478876
 21
431.458653
 31
0.0
  0
LINE
  5
4d4
100
AcDbEntity
  8
Face
 62
7
100
AcDbLine
 10
339.699461
 20
257.763129
 30
0.0
 11
324.881606
 21
257.952809
 31
0.0
  0
LINE
  5
4d5
100
AcDbEntity
  8
Face
 62
7
100
AcDbLine
 10
324.881606
 20
257.952809
 30
0.0
 11
310.799191
 21
258.515742
 31
0.0
  0
LINE
  5
4d6
100
AcDbEntity
  8
Face
 62
7
100
AcDbLine
 10
310.799191
 20
258.515742
 30
0.0
 11
297.434836
 21
259.442769
 31
0.0
  0
LINE
  5
4d7
100
AcDbEntity
  8
Face
 62
7
100
AcDbLine
 10
297.434836
 20
259.442769
 30
0.0
 11
284.771159
 21
260.724731
 31
0.0
  0
LINE
  5
4d8
100
AcDbEntity
  8
Face
 62
7
100
AcDbLine
 10
284.771159
 20
260.724731
 30
0.0
 11
272.790781
 21
262.352468
 31
0.0
  0
LINE
  5
4d9
100
AcDbEntity
  8
Face
 62
7
100
AcDbLine
 10
272.790781
 20
262.352468
 30
0.0
 11
261.476321
 21
264.316822
 31
0.0
  0
LINE
  5
4da
100
AcDbEntity
  8
Face
 62
7
100
AcDbLine
 10
261.476321
 20
264.316822
 30
0.0
 11
250.810398
 21
266.608633
 31
0.0
  0
LINE
  5
4db
100
AcDbEntity
  8
Face
 62
7
100
AcDbLine
 10
250.810398
 20
266.608633
 30
0.0
 11
240.775631
 21
269.218742
 31
0.0
  0
LINE
  5
4dc
100
AcDbEntity
  8
Face
 62
7
100
AcDbLine
 10
240.775631
 20
269.218742
 30
0.0
 11
231.354640
 21
272.137990
 31
0.0
  0
LINE
  5
4dd
100
AcDbEntity
  8
Face
 62
7
100
AcDbLine
 10
231.354640
 20
272.137990
 30
0.0
 11
222.530043
 21
275.357217
 31
0.0
  0
LINE
  5
4de
100
AcDbEntity
  8
Face
 62
7
100
AcDbLine
 10
222.530043
 20
275.357217
 30
0.0
 11
214.284461
 21
278.867264
 31
0.0
  0
LINE
  5
4df
100
AcDbEntity
  8
Face
 62
7
100
AcDbLine
 10
214.284461
 20
278.867264
 30
0.0
 11
206.600513
 21
282.658972
 31
0.0
  0
LINE
  5
4e0
100
AcDbEntity
  8
Face
 62
7
100
AcDbLine
 10
206.600513
 20
282.658972
 30
0.0
 11
199.460817
 21
286.723182
 31
0.0
  0
LINE
  5
4e1
100
AcDbEntity
  8
Face
 62
7
100
AcDbLine
 10
199.460817
 20
286.723182
 30
0.0
 11
192.847994
 21
291.050735
 31
0.0
  0
LINE
  5
4e2
100
AcDbEntity
  8
Face
 62
7
100
AcDbLine
 10
192.847994
 20
291.050735
 30
0.0
 11
186.744662
 21
295.632470
 31
0.0
  0
LINE
  5
4e3
100
AcDbEntity
  8
Face
 62
7
100
AcDbLine
 10
186.744662
 20
295.632470
 30
0.0
 11
181.133441
 21
300.459230
 31
0.0
  0
LINE
  5
4e4
100
AcDbEntity
  8
Face
 62
7
100
AcDbLine
 10
181.133441
 20
300.459230
 30
0.0
 11
175.996950
 21
305.521855
 31
0.0
  0
LINE
  5
4e5
100
AcDbEntity
  8
Face
 62
7
100
AcDbLine
 10
175.996950
 20
305.521855
 30
0.0
 11
171.317809
 21
310.811185
 31
0.0
  0
LINE
  5
4e6
100
AcDbEntity
  8
Face
 62
7
100
AcDbLine
 10
171.317809
 20
310.811185
 30
0.0
 11
167.078637
 21
316.318062
 31
0.0
  0
LINE
  5
4e7
100
AcDbEntity
  8
Face
 62
7
100
AcDbLine
 10
167.078637
 20
316.318062
 30
0.0
 11
163.262052
 21
322.033326
 31
0.0
  0
LINE
  5
4e8
100
AcDbEntity
  8
Face
 62
7
100
AcDbLine
 10
163.262052
 20
322.033326
 30
0.0
 11
159.850676
 21
327.947818
 31
0.0
  0
LINE
  5
4e9
100
AcDbEntity
  8
Face
 62
7
100
AcDbLine
 10
159.850676
 20
327.947818
 30
0.0
 11
156.827126
 21
334.052378
 31
0.0
  0
LINE
  5
4ea
100
AcDbEntity
  8
Face
 62
7
100
AcDbLine
 10
156.827126
 20
334.052378
 30
0.0
 11
154.174022
 21
340.337848
 31
0.0
  0
LINE
  5
4eb
100
AcDbEntity
  8
Face
 62
7
100
AcDbLine
 10
154.174022
 20
340.337848
 30
0.0
 11
151.873984
 21
346.795068
 31
0.0
  0
LINE
  5
4ec
100
AcDbEntity
  8
Face
 62
7
100
AcDbLine
 10
151.873984
 20
346.795068
 30
0.0
 11
149.909630
 21
353.414879
 31
0.0
  0
LINE
  5
4ed
100
AcDbEntity
  8
Face
 62
7
100
AcDbLine
 10
149.909630
 20
353.414879
 30
0.0
 11
148.263580
 21
360.188122
 31
0.0
  0
LINE
  5
4ee
100
AcDbEntity
  8
Face
 62
7
100
AcDbLine
 10
148.263580
 20
360.188122
 30
0.0
 11
146.918454
 21
367.105637
 31
0.0
  0
LINE
  5
4ef
100
AcDbEntity
  8
Face
 62
7
100
AcDbLine
 10
146.918454
 20
367.105637
 30
0.0
 11
145.856871
 21
374.158266
 31
0.0
  0
LINE
  5
4f0
100
AcDbEntity
  8
Face
 62
7
100
AcDbLine
 10
145.856871
 20
374.158266
 30
0.0
 11
145.061450
 21
381.336849
 31
0.0
  0
LINE
  5
4f1
100
AcDbEntity
  8
Face
 62
7
100
AcDbLine
 10
145.061450
 20
381.336849
 30
0.0
 11
144.514810
 21
388.632226
 31
0.0
  0
LINE
  5
4f2
100
AcDbEntity
  8
Face
 62
7
100
AcDbLine
 10
144.514810
 20
388.632226
 30
0.0
 11
144.199570
 21
396.035239
 31
0.0
  0
LINE
  5
4f3
100
AcDbEntity
  8
Face
 62
7
100
AcDbLine
 10
144.199570
 20
396.035239
 30
0.0
 11
144.098351
 21
403.536729
 31
0.0
  0
LINE
  5
4f4
100
AcDbEntity
  8
Face
 62
7
100
AcDbLine
 10
144.098351
 20
403.536729
 30
0.0
 11
144.194178
 21
407.308537
 31
0.0
  0
LINE
  5
4f5
100
AcDbEntity
  8
Face
 62
7
100
AcDbLine
 10
144.194178
 20
407.308537
 30
0.0
 11
144.480123
 21
411.075131
 31
0.0
  0
LINE
  5
4f6
100
AcDbEntity
  8
Face
 62
7
100
AcDbLine
 10
144.480123
 20
411.075131
 30
0.0
 11
144.953882
 21
414.834776
 31
0.0
  0
LINE
  5
4f7
100
AcDbEntity
  8
Face
 62
7
100
AcDbLine
 10
144.953882
 20
414.834776
 30
0.0
 11
145.613151
 21
418.585739
 31
0.0
  0
LINE
  5
4f8
100
AcDbEntity
  8
Face
 62
7
100
AcDbLine
 10
145.613151
 20
418.585739
 30
0.0
 11
146.455624
 21
422.326286
 31
0.0
  0
LINE
  5
4f9
100
AcDbEntity
  8
Face
 62
7
100
AcDbLine
 10
146.455624
 20
422.326286
 30
0.0
 11
147.478998
 21
426.054682
 31
0.0
  0
LINE
  5
4fa
100
AcDbEntity
  8
Face
 62
7
100
AcDbLine
 10
147.478998
 20
426.054682
 30
0.0
 11
148.680968
 21
429.769195
 31
0.0
  0
LINE
  5
4fb
100
AcDbEntity
  8
Face
 62
7
100
AcDbLine
 10
148.680968
 20
429.769195
 30
0.0
 11
150.059230
 21
433.468089
 31
0.0
  0
LINE
  5
4fc
100
AcDbEntity
  8
Face
 62
7
100
AcDbLine
 10
150.059230
 20
433.468089
 30
0.0
 11
151.611479
 21
437.149632
 31
0.0
  0
LINE
  5
4fd
100
AcDbEntity
  8
Face
 62
7
100
AcDbLine
 10
151.611479
 20
437.149632
 30
0.0
 11
153.335411
 21
440.812088
 31
0.0
  0
LINE
  5
4fe
100
AcDbEntity
  8
Face
 62
7
100
AcDbLine
 10
153.335411
 20
440.812088
 30
0.0
 11
155.228723
 21
444.453725
 31
0.0
  0
LINE
  5
4ff
100
AcDbEntity
  8
Face
 62
7
100
AcDbLine
 10
155.228723
 20
444.453725
 30
0.0
 11
157.289108
 21
448.072808
 31
0.0
  0
LINE
  5
500
100
AcDbEntity
  8
Face
 62
7
100
AcDbLine
 10
157.289108
 20
448.072808
 30
0.0
 11
159.514264
 21
451.667603
 31
0.0
  0
LINE
  5
501
100
AcDbEntity
  8
Face
 62
7
100
AcDbLine
 10
159.514264
 20
451.667603
 30
0.0
 11
161.901885
 21
455.236377
 31
0.0
  0
LINE
  5
502
100
AcDbEntity
  8
Face
 62
7
100
AcDbLine
 10
161.901885
 20
455.236377
 30
0.0
 11
167.155307
 21
462.288924
 31
0.0
  0
LINE
  5
503
100
AcDbEntity
  8
Face
 62
7
100
AcDbLine
 10
167.155307
 20
462.288924
 30
0.0
 11
173.030938
 21
469.216578
 31
0.0
  0
LINE
  5
504
100
AcDbEntity
  8
Face
 62
7
100
AcDbLine
 10
173.030938
 20
469.216578
 30
0.0
 11
179.510345
 21
476.005467
 31
0.0
  0
LINE
  5
505
100
AcDbEntity
  8
Face
 62
7
100
AcDbLine
 10
179.510345
 20
476.005467
 30
0.0
 11
186.575092
 21
482.641720
 31
0.0
  0
LINE
  5
506
100
AcDbEntity
  8
Face
 62
7
100
AcDbLine
 10
186.575092
 20
482.641720
 30
0.0
 11
194.206744
 21
489.111464
 31
0.0
  0
LINE
  5
507
100
AcDbEntity
  8
Face
 62
7
100
AcDbLine
 10
194.206744
 20
489.111464
 30
0.0
 11
202.386866
 21
495.400830
 31
0.0
  0
LINE
  5
508
100
AcDbEntity
  8
Face
 62
7
100
AcDbLine
 10
202.386866
 20
495.400830
 30
0.0
 11
211.097023
 21
501.495945
 31
0.0
  0
LINE
  5
509
100
AcDbEntity
  8
Face
 62
7
100
AcDbLine
 10
211.097023
 20
501.495945
 30
0.0
 11
220.318781
 21
507.382938
 31
0.0
  0
LINE
  5
50a
100
AcDbEntity
  8
Face
 62
7
100
AcDbLine
 10
220.318781
 20
507.382938
 30
0.0
 11
230.033704
 21
513.047938
 31
0.0
  0
LINE
  5
50b
100
AcDbEntity
  8
Face
 62
7
100
AcDbLine
 10
230.033704
 20
513.047938
 30
0.0
 11
240.223356
 21
518.477073
 31
0.0
  0
LINE
  5
50c
100
AcDbEntity
  8
Face
 62
7
100
AcDbLine
 10
240.223356
 20
518.477073
 30
0.0
 11
250.869305
 21
523.656471
 31
0.0
  0
LINE
  5
50d
100
AcDbEntity
  8
Face
 62
7
100
AcDbLine
 10
250.869305
 20
523.656471
 30
0.0
 11
261.953113
 21
528.572262
 31
0.0
  0
LINE
  5
50e
100
AcDbEntity
  8
Face
 62
7
100
AcDbLine
 10
261.953113
 20
528.572262
 30
0.0
 11
273.456347
 21
533.210574
 31
0.0
  0
LINE
  5
50f
100
AcDbEntity
  8
Face
 62
7
100
AcDbLine
 10
273.456347
 20
533.210574
 30
0.0
 11
285.360571
 21
537.557535
 31
0.0
  0
LINE
  5
510
100
AcDbEntity
  8
Face
 62
7
100
AcDbLine
 10
285.360571
 20
537.557535
 30
0.0
 11
297.647351
 21
541.599274
 31
0.0
  0
LINE
  5
511
100
AcDbEntity
  8
Face
 62
7
100
AcDbLine
 10
297.647351
 20
541.599274
 30
0.0
 11
310.298251
 21
545.321920
 31
0.0
  0
LINE
  5
512
100
AcDbEntity
  8
Face
 62
7
100
AcDbLine
 10
310.298251
 20
545.321920
 30
0.0
 11
323.294837
 21
548.711602
 31
0.0
  0
LINE
  5
513
100
AcDbEntity
  8
Face
 62
7
100
AcDbLine
 10
323.294837
 20
548.711602
 30
0.0
 11
336.618673
 21
551.754447
 31
0.0
  0
LINE
  5
514
100
AcDbEntity
  8
Face
 62
7
100
AcDbLine
 10
336.618673
 20
551.754447
 30
0.0
 11
350.251324
 21
554.436584
 31
0.0
  0
LINE
  5
515
100
AcDbEntity
  8
Face
 62
7
100
AcDbLine
 10
350.251324
 20
554.436584
 30
0.0
 11
364.174356
 21
556.744142
 31
0.0
  0
LINE
  5
516
100
AcDbEntity
  8
Face
 62
7
100
AcDbLine
 10
364.174356
 20
556.744142
 30
0.0
 11
378.369334
 21
558.663250
 31
0.0
  0
LINE
  5
517
100
AcDbEntity
  8
Face
 62
7
100
AcDbLine
 10
378.369334
 20
558.663250
 30
0.0
 11
392.817822
 21
560.180036
 31
0.0
  0
LINE
  5
518
100
AcDbEntity
  8
Face
 62
7
100
AcDbLine
 10
392.817822
 20
560.180036
 30
0.0
 11
407.501386
 21
561.280629
 31
0.0
  0
LINE
  5
519
100
AcDbEntity
  8
Face
 62
7
100
AcDbLine
 10
407.501386
 20
561.280629
 30
0.0
 11
422.401591
 21
561.951157
 31
0.0
  0
LINE
  5
51a
100
AcDbEntity
  8
Face
 62
7
100
AcDbLine
 10
422.401591
 20
561.951157
 30
0.0
 11
437.500001
 21
562.177749
 31
0.0
  0
LINE
  5
51b
100
AcDbEntity
  8
Face
 62
7
100
AcDbLine
 10
437.500001
 20
562.177749
 30
0.0
 11
452.598411
 21
561.951157
 31
0.0
  0
LINE
  5
51c
100
AcDbEntity
  8
Face
 62
7
100
AcDbLine
 10
452.598411
 20
561.951157
 30
0.0
 11
467.498616
 21
561.280629
 31
0.0
  0
LINE
  5
51d
100
AcDbEntity
  8
Face
 62
7
100
AcDbLine
 10
467.498616
 20
561.280629
 30
0.0
 11
482.182180
 21
560.180036
 31
0.0
  0
LINE
  5
51e
100
AcDbEntity
  8
Face
 62
7
100
AcDbLine
 10
482.182180
 20
560.180036
 30
0.0
 11
496.630668
 21
558.663250
 31
0.0
  0
LINE
  5
51f
100
AcDbEntity
  8
Face
 62
7
100
AcDbLine
 10
496.630668
 20
558.663250
 30
0.0
 11
510.825645
 21
556.744142
 31
0.0
  0
LINE
  5
520
100
AcDbEntity
  8
Face
 62
7
100
AcDbLine
 10
510.825645
 20
556.744142
 30
0.0
 11
524.748677
 21
554.436584
 31
0.0
  0
LINE
  5
521
100
AcDbEntity
  8
Face
 62
7
100
AcDbLine
 10
524.748677
 20
554.436584
 30
0.0
 11
538.381328
 21
551.754447
 31
0.0
  0
LINE
  5
522
100
AcDbEntity
  8
Face
 62
7
100
AcDbLine
 10
538.381328
 20
551.754447
 30
0.0
 11
551.705164
 21
548.711602
 31
0.0
  0
LINE
  5
523
100
AcDbEntity
  8
Face
 62
7
100
AcDbLine
 10
551.705164
 20
548.711602
 30
0.0
 11
564.701749
 21
545.321920
 31
0.0
  0
LINE
  5
524
100
AcDbEntity
  8
Face
 62
7
100
AcDbLine
 10
564.701749
 20
545.321920
 30
0.0
 11
577.352649
 21
541.599274
 31
0.0
  0
LINE
  5
525
100
AcDbEntity
  8
Face
 62
7
100
AcDbLine
 10
577.352649
 20
541.599274
 30
0.0
 11
589.639428
 21
537.557535
 31
0.0
  0
LINE
  5
526
100
AcDbEntity
  8
Face
 62
7
100
AcDbLine
 10
589.639428
 20
537.557535
 30
0.0
 11
601.543652
 21
533.210574
 31
0.0
  0
LINE
  5
527
100
AcDbEntity
  8
Face
 62
7
100
AcDbLine
 10
601.543652
 20
533.210574
 30
0.0
 11
613.046885
 21
528.572262
 31
0.0
  0
LINE
  5
528
100
AcDbEntity
  8
Face
 62
7
100
AcDbLine
 10
613.046885
 20
528.572262
 30
0.0
 11
624.130693
 21
523.656471
 31
0.0
  0
LINE
  5
529
100
AcDbEntity
  8
Face
 62
7
100
AcDbLine
 10
624.130693
 20
523.656471
 30
0.0
 11
634.776641
 21
518.477073
 31
0.0
  0
LINE
  5
52a
100
AcDbEntity
  8
Face
 62
7
100
AcDbLine
 10
634.776641
 20
518.477073
 30
0.0
 11
644.966294
 21
513.047938
 31
0.0
  0
LINE
  5
52b
100
AcDbEntity
  8
Face
 62
7
100
AcDbLine
 10
644.966294
 20
513.047938
 30
0.0
 11
654.681216
 21
507.382938
 31
0.0
  0
LINE
  5
52c
100
AcDbEntity
  8
Face
 62
7
100
AcDbLine
 10
654.681216
 20
507.382938
 30
0.0
 11
663.902973
 21
501.495945
 31
0.0
  0
LINE
  5
52d
100
AcDbEntity
  8
Face
 62
7
100
AcDbLine
 10
663.902973
 20
501.495945
 30
0.0
 11
672.613130
 21
495.400830
 31
0.0
  0
LINE
  5
52e
100
AcDbEntity
  8
Face
 62
7
100
AcDbLine
 10
672.613130
 20
495.400830
 30
0.0
 11
680.793251
 21
489.111464
 31
0.0
  0
LINE
  5
52f
100
AcDbEntity
  8
Face
 62
7
100
AcDbLine
 10
680.793251
 20
489.111464
 30
0.0
 11
688.424903
 21
482.641720
 31
0.0
  0
LINE
  5
530
100
AcDbEntity
  8
Face
 62
7
100
AcDbLine
 10
688.424903
 20
482.641720
 30
0.0
 11
695.489649
 21
476.005467
 31
0.0
  0
LINE
  5
531
100
AcDbEntity
  8
Face
 62
7
100
AcDbLine
 10
695.489649
 20
476.005467
 30
0.0
 11
701.969056
 21
469.216578
 31
0.0
  0
LINE
  5
532
100
AcDbEntity
  8
Face
 62
7
100
AcDbLine
 10
701.969056
 20
469.216578
 30
0.0
 11
707.844687
 21
462.288924
 31
0.0
  0
LINE
  5
533
100
AcDbEntity
  8
Face
 62
7
100
AcDbLine
 10
707.844687
 20
462.288924
 30
0.0
 11
713.098108
 21
455.236377
 31
0.0
  0
LINE
  5
534
100
AcDbEntity
  8
Face
 62
7
100
AcDbLine
 10
713.098108
 20
455.236377
 30
0.0
 11
715.485729
 21
451.667603
 31
0.0
  0
LINE
  5
535
100
AcDbEntity
  8
Face
 62
7
100
AcDbLine
 10
715.485729
 20
451.667603
 30
0.0
 11
717.710885
 21
448.072808
 31
0.0
  0
LINE
  5
536
100
AcDbEntity
  8
Face
 62
7
100
AcDbLine
 10
717.710885
 20
448.072808
 30
0.0
 11
719.771270
 21
444.453725
 31
0.0
  0
LINE
  5
537
100
AcDbEntity
  8
Face
 62
7
100
AcDbLine
 10
719.771270
 20
444.453725
 30
0.0
 11
721.664581
 21
440.812088
 31
0.0
  0
LINE
  5
538
100
AcDbEntity
  8
Face
 62
7
100
AcDbLine
 10
721.664581
 20
440.812088
 30
0.0
 11
723.388514
 21
437.149632
 31
0.0
  0
LINE
  5
539
100
AcDbEntity
  8
Face
 62
7
100
AcDbLine
 10
723.388514
 20
437.149632
 30
0.0
 11
724.940763
 21
433.468089
 31
0.0
  0
LINE
  5
53a
100
AcDbEntity
  8
Face
 62
7
100
AcDbLine
 10
724.940763
 20
433.468089
 30
0.0
 11
726.319025
 21
429.769195
 31
0.0
  0
LINE
  5
53b
100
AcDbEntity
  8
Face
 62
7
100
AcDbLine
 10
726.319025
 20
429.769195
 30
0.0
 11
727.520995
 21
426.054682
 31
0.0
  0
LINE
  5
53c
100
AcDbEntity
  8
Face
 62
7
100
AcDbLine
 10
727.520995
 20
426.054682
 30
0.0
 11
728.544368
 21
422.326286
 31
0.0
  0
LINE
  5
53d
100
AcDbEntity
  8
Face
 62
7
100
AcDbLine
 10
728.544368
 20
422.326286
 30
0.0
 11
729.386842
 21
418.585739
 31
0.0
  0
LINE
  5
53e
100
AcDbEntity
  8
Face
 62
7
100
AcDbLine
 10
729.386842
 20
418.585739
 30
0.0
 11
730.046110
 21
414.834776
 31
0.0
  0
LINE
  5
53f
100
AcDbEntity
  8
Face
 62
7
100
AcDbLine
 10
730.046110
 20
414.834776
 30
0.0
 11
730.519869
 21
411.075131
 31
0.0
  0
LINE
  5
540
100
AcDbEntity
  8
Face
 62
7
100
AcDbLine
 10
730.519869
 20
411.075131
 30
0.0
 11
730.805814
 21
407.308537
 31
0.0
  0
LINE
  5
541
100
AcDbEntity
  8
Face
 62
7
100
AcDbLine
 10
730.805814
 20
407.308537
 30
0.0
 11
730.901641
 21
403.536729
 31
0.0
  0
LINE
  5
542
100
AcDbEntity
  8
Face
 62
7
100
AcDbLine
 10
730.901641
 20
403.536729
 30
0.0
 11
730.800423
 21
396.035239
 31
0.0
  0
LINE
  5
543
100
AcDbEntity
  8
Face
 62
7
100
AcDbLine
 10
730.800423
 20
396.035239
 30
0.0
 11
730.485184
 21
388.632226
 31
0.0
  0
LINE
  5
544
100
AcDbEntity
  8
Face
 62
7
100
AcDbLine
 10
730.485184
 20
388.632226
 30
0.0
 11
729.938545
 21
381.336849
 31
0.0
  0
LINE
  5
545
100
AcDbEntity
  8
Face
 62
7
100
AcDbLine
 10
729.938545
 20
381.336849
 30
0.0
 11
729.143124
 21
374.158266
 31
0.0
  0
LINE
  5
546
100
AcDbEntity
  8
Face
 62
7
100
AcDbLine
 10
729.143124
 20
374.158266
 30
0.0
 11
728.081542
 21
367.105637
 31
0.0
  0
LINE
  5
547
100
AcDbEntity
  8
Face
 62
7
100
AcDbLine
 10
728.081542
 20
367.105637
 30
0.0
 11
726.736416
 21
360.188122
 31
0.0
  0
LINE
  5
548
100
AcDbEntity
  8
Face
 62
7
100
AcDbLine
 10
726.736416
 20
360.188122
 30
0.0
 11
725.090367
 21
353.414879
 31
0.0
  0
LINE
  5
549
100
AcDbEntity
  8
Face
 62
7
100
AcDbLine
 10
725.090367
 20
353.414879
 30
0.0
 11
723.126014
 21
346.795068
 31
0.0
  0
LINE
  5
54a
100
AcDbEntity
  8
Face
 62
7
100
AcDbLine
 10
723.126014
 20
346.795068
 30
0.0
 11
720.825976
 21
340.337848
 31
0.0
  0
LINE
  5
54b
100
AcDbEntity
  8
Face
 62
7
100
AcDbLine
 10
720.825976
 20
340.337848
 30
0.0
 11
718.172873
 21
334.052378
 31
0.0
  0
LINE
  5
54c
100
AcDbEntity
  8
Face
 62
7
100
AcDbLine
 10
718.172873
 20
334.052378
 30
0.0
 11
715.149324
 21
327.947818
 31
0.0
  0
LINE
  5
54d
100
AcDbEntity
  8
Face
 62
7
100
AcDbLine
 10
715.149324
 20
327.947818
 30
0.0
 11
711.737947
 21
322.033326
 31
0.0
  0
LINE
  5
54e
100
AcDbEntity
  8
Face
 62
7
100
AcDbLine
 10
711.737947
 20
322.033326
 30
0.0
 11
707.921363
 21
316.318062
 31
0.0
  0
LINE
  5
54f
100
AcDbEntity
  8
Face
 62
7
100
AcDbLine
 10
707.921363
 20
316.318062
 30
0.0
 11
703.682191
 21
310.811185
 31
0.0
  0
LINE
  5
550
100
AcDbEntity
  8
Face
 62
7
100
AcDbLine
 10
703.682191
 20
310.811185
 30
0.0
 11
699.003050
 21
305.521855
 31
0.0
  0
LINE
  5
551
100
AcDbEntity
  8
Face
 62
7
100
AcDbLine
 10
699.003050
 20
305.521855
 30
0.0
 11
693.866560
 21
300.459230
 31
0.0
  0
LINE
  5
552
100
AcDbEntity
  8
Face
 62
7
100
AcDbLine
 10
693.866560
 20
300.459230
 30
0.0
 11
688.255339
 21
295.632470
 31
0.0
  0
LINE
  5
553
100
AcDbEntity
  8
Face
 62
7
100
AcDbLine
 10
688.255339
 20
295.632470
 30
0.0
 11
682.152007
 21
291.050735
 31
0.0
  0
LINE
  5
554
100
AcDbEntity
  8
Face
 62
7
100
AcDbLine
 10
682.152007
 20
291.050735
 30
0.0
 11
675.539184
 21
286.723182
 31
0.0
  0
LINE
  5
555
100
AcDbEntity
  8
Face
 62
7
100
AcDbLine
 10
675.539184
 20
286.723182
 30
0.0
 11
668.399489
 21
282.658972
 31
0.0
  0
LINE
  5
556
100
AcDbEntity
  8
Face
 62
7
100
AcDbLine
 10
668.399489
 20
282.658972
 30
0.0
 11
660.715540
 21
278.867264
 31
0.0
  0
LINE
  5
557
100
AcDbEntity
  8
Face
 62
7
100
AcDbLine
 10
660.715540
 20
278.867264
 30
0.0
 11
652.469958
 21
275.357217
 31
0.0
  0
LINE
  5
558
100
AcDbEntity
  8
Face
 62
7
100
AcDbLine
 10
652.469958
 20
275.357217
 30
0.0
 11
643.645362
 21
272.137990
 31
0.0
  0
LINE
  5
559
100
AcDbEntity
  8
Face
 62
7
100
AcDbLine
 10
643.645362
 20
272.137990
 30
0.0
 11
634.224371
 21
269.218742
 31
0.0
  0
LINE
  5
55a
100
AcDbEntity
  8
Face
 62
7
100
AcDbLine
 10
634.224371
 20
269.218742
 30
0.0
 11
624.189604
 21
266.608633
 31
0.0
  0
LINE
  5
55b
100
AcDbEntity
  8
Face
 62
7
100
AcDbLine
 10
624.189604
 20
266.608633
 30
0.0
 11
613.523681
 21
264.316822
 31
0.0
  0
LINE
  5
55c
100
AcDbEntity
  8
Face
 62
7
100
AcDbLine
 10
613.523681
 20
264.316822
 30
0.0
 11
602.209221
 21
262.352468
 31
0.0
  0
LINE
  5
55d
100
AcDbEntity
  8
Face
 62
7
100
AcDbLine
 10
602.209221
 20
262.352468
 30
0.0
 11
590.228843
 21
260.724731
 31
0.0
  0
LINE
  5
55e
100
AcDbEntity
  8
Face
 62
7
100
AcDbLine
 10
590.228843
 20
260.724731
 30
0.0
 11
577.565166
 21
259.442769
 31
0.0
  0
LINE
  5
55f
100
AcDbEntity
  8
Face
 62
7
100
AcDbLine
 10
577.565166
 20
259.442769
 30
0.0
 11
564.200811
 21
258.515742
 31
0.0
  0
LINE
  5
560
100
AcDbEntity
  8
Face
 62
7
100
AcDbLine
 10
564.200811
 20
258.515742
 30
0.0
 11
550.118396
 21
257.952809
 31
0.0
  0
LINE
  5
561
100
AcDbEntity
  8
Face
 62
7
100
AcDbLine
 10
550.118396
 20
257.952809
 30
0.0
 11
535.300541
 21
257.763129
 31
0.0
  0
LINE
  5
562
100
AcDbEntity
  8
Face
 62
7
100
AcDbLine
 10
535.300541
 20
257.763129
 30
0.0
 11
339.699461
 21
257.763129
 31
0.0
  0
LINE
  5
563
100
AcDbEntity
  8
Eyes
 62
7
100
AcDbLine
 10
271.173831
 20
492.398439
 30
0.0
 11
267.404849
 21
492.303182
 31
0.0
  0
LINE
  5
564
100
AcDbEntity
  8
Eyes
 62
7
100
AcDbLine
 10
267.404849
 20
492.303182
 30
0.0
 11
263.685343
 21
492.020390
 31
0.0
  0
LINE
  5
565
100
AcDbEntity
  8
Eyes
 62
7
100
AcDbLine
 10
263.685343
 20
492.020390
 30
0.0
 11
260.019913
 21
491.554666
 31
0.0
  0
LINE
  5
566
100
AcDbEntity
  8
Eyes
 62
7
100
AcDbLine
 10
260.019913
 20
491.554666
 30
0.0
 11
256.413163
 21
490.910612
 31
0.0
  0
LINE
  5
567
100
AcDbEntity
  8
Eyes
 62
7
100
AcDbLine
 10
256.413163
 20
490.910612
 30
0.0
 11
252.869694
 21
490.092829
 31
0.0
  0
LINE
  5
568
100
AcDbEntity
  8
Eyes
 62
7
100
AcDbLine
 10
252.869694
 20
490.092829
 30
0.0
 11
249.394107
 21
489.105919
 31
0.0
  0
LINE
  5
569
100
AcDbEntity
  8
Eyes
 62
7
100
AcDbLine
 10
249.394107
 20
489.105919
 30
0.0
 11
245.991005
 21
487.954484
 31
0.0
  0
LINE
  5
56a
100
AcDbEntity
  8
Eyes
 62
7
100
AcDbLine
 10
245.991005
 20
487.954484
 30
0.0
 11
242.664990
 21
486.643125
 31
0.0
  0
LINE
  5
56b
100
AcDbEntity
  8
Eyes
 62
7
100
AcDbLine
 10
242.664990
 20
486.643125
 30
0.0
 11
239.420664
 21
485.176445
 31
0.0
  0
LINE
  5
56c
100
AcDbEntity
  8
Eyes
 62
7
100
AcDbLine
 10
239.420664
 20
485.176445
 30
0.0
 11
236.262628
 21
483.559046
 31
0.0
  0
LINE
  5
56d
100
AcDbEntity
  8
Eyes
 62
7
100
AcDbLine
 10
236.262628
 20
483.559046
 30
0.0
 11
233.195485
 21
481.795528
 31
0.0
  0
LINE
  5
56e
100
AcDbEntity
  8
Eyes
 62
7
100
AcDbLine
 10
233.195485
 20
481.795528
 30
0.0
 11
230.223836
 21
479.890494
 31
0.0
  0
LINE
  5
56f
100
AcDbEntity
  8
Eyes
 62
7
100
AcDbLine
 10
230.223836
 20
479.890494
 30
0.0
 11
227.352283
 21
477.848546
 31
0.0
  0
LINE
  5
570
100
AcDbEntity
  8
Eyes
 62
7
100
AcDbLine
 10
227.352283
 20
477.848546
 30
0.0
 11
224.585428
 21
475.674286
 31
0.0
  0
LINE
  5
571
100
AcDbEntity
  8
Eyes
 62
7
100
AcDbLine
 10
224.585428
 20
475.674286
 30
0.0
 11
221.927874
 21
473.372315
 31
0.0
  0
LINE
  5
572
100
AcDbEntity
  8
Eyes
 62
7
100
AcDbLine
 10
221.927874
 20
473.372315
 30
0.0
 11
219.384222
 21
470.947234
 31
0.0
  0
LINE
  5
573
100
AcDbEntity
  8
Eyes
 62
7
100
AcDbLine
 10
219.384222
 20
470.947234
 30
0.0
 11
216.959073
 21
468.403647
 31
0.0
  0
LINE
  5
574
100
AcDbEntity
  8
Eyes
 62
7
100
AcDbLine
 10
216.959073
 20
468.403647
 30
0.0
 11
214.657031
 21
465.746154
 31
0.0
  0
LINE
  5
575
100
AcDbEntity
  8
Eyes
 62
7
100
AcDbLine
 10
214.657031
 20
465.746154
 30
0.0
 11
212.482696
 21
462.979358
 31
0.0
  0
LINE
  5
576
100
AcDbEntity
  8
Eyes
 62
7
100
AcDbLine
 10
212.482696
 20
462.979358
 30
0.0
 11
210.440671
 21
460.107860
 31
0.0
  0
LINE
  5
577
100
AcDbEntity
  8
Eyes
 62
7
100
AcDbLine
 10
210.440671
 20
460.107860
 30
0.0
 11
208.535558
 21
457.136262
 31
0.0
  0
LINE
  5
578
100
AcDbEntity
  8
Eyes
 62
7
100
AcDbLine
 10
208.535558
 20
457.136262
 30
0.0
 11
206.771959
 21
454.069165
 31
0.0
  0
LINE
  5
579
100
AcDbEntity
  8
Eyes
 62
7
100
AcDbLine
 10
206.771959
 20
454.069165
 30
0.0
 11
205.154474
 21
450.911173
 31
0.0
  0
LINE
  5
57a
100
AcDbEntity
  8
Eyes
 62
7
100
AcDbLine
 10
205.154474
 20
450.911173
 30
0.0
 11
203.687708
 21
447.666886
 31
0.0
  0
LINE
  5
57b
100
AcDbEntity
  8
Eyes
 62
7
100
AcDbLine
 10
203.687708
 20
447.666886
 30
0.0
 11
202.376260
 21
444.340906
 31
0.0
  0
LINE
  5
57c
100
AcDbEntity
  8
Eyes
 62
7
100
AcDbLine
 10
202.376260
 20
444.340906
 30
0.0
 11
201.224734
 21
440.937835
 31
0.0
  0
LINE
  5
57d
100
AcDbEntity
  8
Eyes
 62
7
100
AcDbLine
 10
201.224734
 20
440.937835
 30
0.0
 11
200.237731
 21
437.462275
 31
0.0
  0
LINE
  5
57e
100
AcDbEntity
  8
Eyes
 62
7
100
AcDbLine
 10
200.237731
 20
437.462275
 30
0.0
 11
199.419853
 21
433.918827
 31
0.0
  0
LINE
  5
57f
100
AcDbEntity
  8
Eyes
 62
7
100
AcDbLine
 10
199.419853
 20
433.918827
 30
0.0
 11
198.775702
 21
430.312094
 31
0.0
  0
LINE
  5
580
100
AcDbEntity
  8
Eyes
 62
7
100
AcDbLine
 10
198.775702
 20
430.312094
 30
0.0
 11
198.309880
 21
426.646677
 31
0.0
  0
LINE
  5
581
100
AcDbEntity
  8
Eyes
 62
7
100
AcDbLine
 10
198.309880
 20
426.646677
 30
0.0
 11
198.026989
 21
422.927178
 31
0.0
  0
LINE
  5
582
100
AcDbEntity
  8
Eyes
 62
7
100
AcDbLine
 10
198.026989
 20
422.927178
 30
0.0
 11
197.931631
 21
419.158199
 31
0.0
  0
LINE
  5
583
100
AcDbEntity
  8
Eyes
 62
7
100
AcDbLine
 10
197.931631
 20
419.158199
 30
0.0
 11
198.021606
 21
415.526315
 31
0.0
  0
LINE
  5
584
100
AcDbEntity
  8
Eyes
 62
7
100
AcDbLine
 10
198.021606
 20
415.526315
 30
0.0
 11
198.289955
 21
411.919081
 31
0.0
  0
LINE
  5
585
100
AcDbEntity
  8
Eyes
 62
7
100
AcDbLine
 10
198.289955
 20
411.919081
 30
0.0
 11
198.734191
 21
408.342498
 31
0.0
  0
LINE
  5
586
100
AcDbEntity
  8
Eyes
 62
7
100
AcDbLine
 10
198.734191
 20
408.342498
 30
0.0
 11
199.351827
 21
404.802572
 31
0.0
  0
LINE
  5
587
100
AcDbEntity
  8
Eyes
 62
7
100
AcDbLine
 10
199.351827
 20
404.802572
 30
0.0
 11
200.140377
 21
401.305306
 31
0.0
  0
LINE
  5
588
100
AcDbEntity
  8
Eyes
 62
7
100
AcDbLine
 10
200.140377
 20
401.305306
 30
0.0
 11
201.097354
 21
397.856702
 31
0.0
  0
LINE
  5
589
100
AcDbEntity
  8
Eyes
 62
7
100
AcDbLine
 10
201.097354
 20
397.856702
 30
0.0
 11
202.220272
 21
394.462765
 31
0.0
  0
LINE
  5
58a
100
AcDbEntity
  8
Eyes
 62
7
100
AcDbLine
 10
202.220272
 20
394.462765
 30
0.0
 11
203.506643
 21
391.129498
 31
0.0
  0
LINE
  5
58b
100
AcDbEntity
  8
Eyes
 62
7
100
AcDbLine
 10
203.506643
 20
391.129498
 30
0.0
 11
204.953980
 21
387.862905
 31
0.0
  0
LINE
  5
58c
100
AcDbEntity
  8
Eyes
 62
7
100
AcDbLine
 10
204.953980
 20
387.862905
 30
0.0
 11
206.559798
 21
384.668989
 31
0.0
  0
LINE
  5
58d
100
AcDbEntity
  8
Eyes
 62
7
100
AcDbLine
 10
206.559798
 20
384.668989
 30
0.0
 11
208.321610
 21
381.553753
 31
0.0
  0
LINE
  5
58e
100
AcDbEntity
  8
Eyes
 62
7
100
AcDbLine
 10
208.321610
 20
381.553753
 30
0.0
 11
210.236928
 21
378.523202
 31
0.0
  0
LINE
  5
58f
100
AcDbEntity
  8
Eyes
 62
7
100
AcDbLine
 10
210.236928
 20
378.523202
 30
0.0
 11
212.303267
 21
375.583339
 31
0.0
  0
LINE
  5
590
100
AcDbEntity
  8
Eyes
 62
7
100
AcDbLine
 10
212.303267
 20
375.583339
 30
0.0
 11
214.518139
 21
372.740166
 31
0.0
  0
LINE
  5
591
100
AcDbEntity
  8
Eyes
 62
7
100
AcDbLine
 10
214.518139
 20
372.740166
 30
0.0
 11
216.879057
 21
369.999689
 31
0.0
  0
LINE
  5
592
100
AcDbEntity
  8
Eyes
 62
7
100
AcDbLine
 10
216.879057
 20
369.999689
 30
0.0
 11
219.383536
 21
367.367910
 31
0.0
  0
LINE
  5
593
100
AcDbEntity
  8
Eyes
 62
7
100
AcDbLine
 10
219.383536
 20
367.367910
 30
0.0
 11
222.015316
 21
364.863432
 31
0.0
  0
LINE
  5
594
100
AcDbEntity
  8
Eyes
 62
7
100
AcDbLine
 10
222.015316
 20
364.863432
 30
0.0
 11
224.755794
 21
362.502514
 31
0.0
  0
LINE
  5
595
100
AcDbEntity
  8
Eyes
 62
7
100
AcDbLine
 10
224.755794
 20
362.502514
 30
0.0
 11
227.598967
 21
360.287643
 31
0.0
  0
LINE
  5
596
100
AcDbEntity
  8
Eyes
 62
7
100
AcDbLine
 10
227.598967
 20
360.287643
 30
0.0
 11
230.538831
 21
358.221305
 31
0.0
  0
LINE
  5
597
100
AcDbEntity
  8
Eyes
 62
7
100
AcDbLine
 10
230.538831
 20
358.221305
 30
0.0
 11
233.569383
 21
356.305988
 31
0.0
  0
LINE
  5
598
100
AcDbEntity
  8
Eyes
 62
7
100
AcDbLine
 10
233.569383
 20
356.305988
 30
0.0
 11
236.684618
 21
354.544177
 31
0.0
  0
LINE
  5
599
100
AcDbEntity
  8
Eyes
 62
7
100
AcDbLine
 10
236.684618
 20
354.544177
 30
0.0
 11
239.878535
 21
352.938360
 31
0.0
  0
LINE
  5
59a
100
AcDbEntity
  8
Eyes
 62
7
100
AcDbLine
 10
239.878535
 20
352.938360
 30
0.0
 11
243.145129
 21
351.491023
 31
0.0
  0
LINE
  5
59b
100
AcDbEntity
  8
Eyes
 62
7
100
AcDbLine
 10
243.145129
 20
351.491023
 30
0.0
 11
246.478396
 21
350.204653
 31
0.0
  0
LINE
  5
59c
100
AcDbEntity
  8
Eyes
 62
7
100
AcDbLine
 10
246.478396
 20
350.204653
 30
0.0
 11
249.872333
 21
349.081736
 31
0.0
  0
LINE
  5
59d
100
AcDbEntity
  8
Eyes
 62
7
100
AcDbLine
 10
249.872333
 20
349.081736
 30
0.0
 11
253.320937
 21
348.124760
 31
0.0
  0
LINE
  5
59e
100
AcDbEntity
  8
Eyes
 62
7
100
AcDbLine
 10
253.320937
 20
348.124760
 30
0.0
 11
256.818204
 21
347.336211
 31
0.0
  0
LINE
  5
59f
100
AcDbEntity
  8
Eyes
 62
7
100
AcDbLine
 10
256.818204
 20
347.336211
 30
0.0
 11
260.358130
 21
346.718576
 31
0.0
  0
LINE
  5
5a0
100
AcDbEntity
  8
Eyes
 62
7
100
AcDbLine
 10
260.358130
 20
346.718576
 30
0.0
 11
263.934713
 21
346.274341
 31
0.0
  0
LINE
  5
5a1
100
AcDbEntity
  8
Eyes
 62
7
100
AcDbLine
 10
263.934713
 20
346.274341
 30
0.0
 11
267.541947
 21
346.005993
 31
0.0
  0
LINE
  5
5a2
100
AcDbEntity
  8
Eyes
 62
7
100
AcDbLine
 10
267.541947
 20
346.005993
 30
0.0
 11
271.173831
 21
345.916019
 31
0.0
  0
LINE
  5
5a3
100
AcDbEntity
  8
Eyes
 62
7
100
AcDbLine
 10
271.173831
 20
345.916019
 30
0.0
 11
277.672035
 21
346.204020
 31
0.0
  0
LINE
  5
5a4
100
AcDbEntity
  8
Eyes
 62
7
100
AcDbLine
 10
277.672035
 20
346.204020
 30
0.0
 11
284.028567
 21
347.049732
 31
0.0
  0
LINE
  5
5a5
100
AcDbEntity
  8
Eyes
 62
7
100
AcDbLine
 10
284.028567
 20
347.049732
 30
0.0
 11
290.216411
 21
348.430934
 31
0.0
  0
LINE
  5
5a6
100
AcDbEntity
  8
Eyes
 62
7
100
AcDbLine
 10
290.216411
 20
348.430934
 30
0.0
 11
296.208551
 21
350.325406
 31
0.0
  0
LINE
  5
5a7
100
AcDbEntity
  8
Eyes
 62
7
100
AcDbLine
 10
296.208551
 20
350.325406
 30
0.0
 11
301.977972
 21
352.710928
 31
0.0
  0
LINE
  5
5a8
100
AcDbEntity
  8
Eyes
 62
7
100
AcDbLine
 10
301.977972
 20
352.710928
 30
0.0
 11
307.497658
 21
355.565278
 31
0.0
  0
LINE
  5
5a9
100
AcDbEntity
  8
Eyes
 62
7
100
AcDbLine
 10
307.497658
 20
355.565278
 30
0.0
 11
312.740594
 21
358.866237
 31
0.0
  0
LINE
  5
5aa
100
AcDbEntity
  8
Eyes
 62
7
100
AcDbLine
 10
312.740594
 20
358.866237
 30
0.0
 11
317.679762
 21
362.591583
 31
0.0
  0
LINE
  5
5ab
100
AcDbEntity
  8
Eyes
 62
7
100
AcDbLine
 10
317.679762
 20
362.591583
 30
0.0
 11
322.288148
 21
366.719097
 31
0.0
  0
LINE
  5
5ac
100
AcDbEntity
  8
Eyes
 62
7
100
AcDbLine
 10
322.288148
 20
366.719097
 30
0.0
 11
326.538735
 21
371.226558
 31
0.0
  0
LINE
  5
5ad
100
AcDbEntity
  8
Eyes
 62
7
100
AcDbLine
 10
326.538735
 20
371.226558
 30
0.0
 11
330.404509
 21
376.091745
 31
0.0
  0
LINE
  5
5ae
100
AcDbEntity
  8
Eyes
 62
7
100
AcDbLine
 10
330.404509
 20
376.091745
 30
0.0
 11
333.858452
 21
381.292438
 31
0.0
  0
LINE
  5
5af
100
AcDbEntity
  8
Eyes
 62
7
100
AcDbLine
 10
333.858452
 20
381.292438
 30
0.0
 11
336.873550
 21
386.806416
 31
0.0
  0
LINE
  5
5b0
100
AcDbEntity
  8
Eyes
 62
7
100
AcDbLine
 10
336.873550
 20
386.806416
 30
0.0
 11
339.422786
 21
392.611459
 31
0.0
  0
LINE
  5
5b1
100
AcDbEntity
  8
Eyes
 62
7
100
AcDbLine
 10
339.422786
 20
392.611459
 30
0.0
 11
341.479145
 21
398.685347
 31
0.0
  0
LINE
  5
5b2
100
AcDbEntity
  8
Eyes
 62
7
100
AcDbLine
 10
341.479145
 20
398.685347
 30
0.0
 11
343.015611
 21
405.005859
 31
0.0
  0
LINE
  5
5b3
100
AcDbEntity
  8
Eyes
 62
7
100
AcDbLine
 10
343.015611
 20
405.005859
 30
0.0
 11
532.033201
 21
405.005859
 31
0.0
  0
LINE
  5
5b4
100
AcDbEntity
  8
Eyes
 62
7
100
AcDbLine
 10
532.033201
 20
405.005859
 30
0.0
 11
533.568734
 21
398.688570
 31
0.0
  0
LINE
  5
5b5
100
AcDbEntity
  8
Eyes
 62
7
100
AcDbLine
 10
533.568734
 20
398.688570
 30
0.0
 11
535.623659
 21
392.617584
 31
0.0
  0
LINE
  5
5b6
100
AcDbEntity
  8
Eyes
 62
7
100
AcDbLine
 10
535.623659
 20
392.617584
 30
0.0
 11
538.171008
 21
386.815099
 31
0.0
  0
LINE
  5
5b7
100
AcDbEntity
  8
Eyes
 62
7
100
AcDbLine
 10
538.171008
 20
386.815099
 30
0.0
 11
541.183812
 21
381.303310
 31
0.0
  0
LINE
  5
5b8
100
AcDbEntity
  8
Eyes
 62
7
100
AcDbLine
 10
541.183812
 20
381.303310
 30
0.0
 11
544.635102
 21
376.104417
 31
0.0
  0
LINE
  5
5b9
100
AcDbEntity
  8
Eyes
 62
7
100
AcDbLine
 10
544.635102
 20
376.104417
 30
0.0
 11
548.497908
 21
371.240614
 31
0.0
  0
LINE
  5
5ba
100
AcDbEntity
  8
Eyes
 62
7
100
AcDbLine
 10
548.497908
 20
371.240614
 30
0.0
 11
552.745261
 21
366.734101
 31
0.0
  0
LINE
  5
5bb
100
AcDbEntity
  8
Eyes
 62
7
100
AcDbLine
 10
552.745261
 20
366.734101
 30
0.0
 11
557.350192
 21
362.607074
 31
0.0
  0
LINE
  5
5bc
100
AcDbEntity
  8
Eyes
 62
7
100
AcDbLine
 10
557.350192
 20
362.607074
 30
0.0
 11
562.285733
 21
358.881731
 31
0.0
  0
LINE
  5
5bd
100
AcDbEntity
  8
Eyes
 62
7
100
AcDbLine
 10
562.285733
 20
358.881731
 30
0.0
 11
567.524913
 21
355.580267
 31
0.0
  0
LINE
  5
5be
100
AcDbEntity
  8
Eyes
 62
7
100
AcDbLine
 10
567.524913
 20
355.580267
 30
0.0
 11
573.040764
 21
352.724882
 31
0.0
  0
LINE
  5
5bf
100
AcDbEntity
  8
Eyes
 62
7
100
AcDbLine
 10
573.040764
 20
352.724882
 30
0.0
 11
578.806317
 21
350.337771
 31
0.0
  0
LINE
  5
5c0
100
AcDbEntity
  8
Eyes
 62
7
100
AcDbLine
 10
578.806317
 20
350.337771
 30
0.0
 11
584.794602
 21
348.441132
 31
0.0
  0
LINE
  5
5c1
100
AcDbEntity
  8
Eyes
 62
7
100
AcDbLine
 10
584.794602
 20
348.441132
 30
0.0
 11
590.978650
 21
347.057162
 31
0.0
  0
LINE
  5
5c2
100
AcDbEntity
  8
Eyes
 62
7
100
AcDbLine
 10
590.978650
 20
347.057162
 30
0.0
 11
597.331493
 21
346.208059
 31
0.0
  0
LINE
  5
5c3
100
AcDbEntity
  8
Eyes
 62
7
100
AcDbLine
 10
597.331493
 20
346.208059
 30
0.0
 11
603.826161
 21
345.916019
 31
0.0
  0
LINE
  5
5c4
100
AcDbEntity
  8
Eyes
 62
7
100
AcDbLine
 10
603.826161
 20
345.916019
 30
0.0
 11
607.458045
 21
346.005993
 31
0.0
  0
LINE
  5
5c5
100
AcDbEntity
  8
Eyes
 62
7
100
AcDbLine
 10
607.458045
 20
346.005993
 30
0.0
 11
611.065279
 21
346.274341
 31
0.0
  0
LINE
  5
5c6
100
AcDbEntity
  8
Eyes
 62
7
100
AcDbLine
 10
611.065279
 20
346.274341
 30
0.0
 11
614.641862
 21
346.718576
 31
0.0
  0
LINE
  5
5c7
100
AcDbEntity
  8
Eyes
 62
7
100
AcDbLine
 10
614.641862
 20
346.718576
 30
0.0
 11
618.181788
 21
347.336211
 31
0.0
  0
LINE
  5
5c8
100
AcDbEntity
  8
Eyes
 62
7
100
AcDbLine
 10
618.181788
 20
347.336211
 30
0.0
 11
621.679055
 21
348.124760
 31
0.0
  0
LINE
  5
5c9
100
AcDbEntity
  8
Eyes
 62
7
100
AcDbLine
 10
621.679055
 20
348.124760
 30
0.0
 11
625.127659
 21
349.081736
 31
0.0
  0
LINE
  5
5ca
100
AcDbEntity
  8
Eyes
 62
7
100
AcDbLine
 10
625.127659
 20
349.081736
 30
0.0
 11
628.521596
 21
350.204653
 31
0.0
  0
LINE
  5
5cb
100
AcDbEntity
  8
Eyes
 62
7
100
AcDbLine
 10
628.521596
 20
350.204653
 30
0.0
 11
631.854863
 21
351.491023
 31
0.0
  0
LINE
  5
5cc
100
AcDbEntity
  8
Eyes
 62
7
100
AcDbLine
 10
631.854863
 20
351.491023
 30
0.0
 11
635.121457
 21
352.938360
 31
0.0
  0
LINE
  5
5cd
100
AcDbEntity
  8
Eyes
 62
7
100
AcDbLine
 10
635.121457
 20
352.938360
 30
0.0
 11
638.315374
 21
354.544177
 31
0.0
  0
LINE
  5
5ce
100
AcDbEntity
  8
Eyes
 62
7
100
AcDbLine
 10
638.315374
 20
354.544177
 30
0.0
 11
641.430609
 21
356.305988
 31
0.0
  0
LINE
  5
5cf
100
AcDbEntity
  8
Eyes
 62
7
100
AcDbLine
 10
641.430609
 20
356.305988
 30
0.0
 11
644.461161
 21
358.221305
 31
0.0
  0
LINE
  5
5d0
100
AcDbEntity
  8
Eyes
 62
7
100
AcDbLine
 10
644.461161
 20
358.221305
 30
0.0
 11
647.401025
 21
360.287643
 31
0.0
  0
LINE
  5
5d1
100
AcDbEntity
  8
Eyes
 62
7
100
AcDbLine
 10
647.401025
 20
360.287643
 30
0.0
 11
650.244198
 21
362.502514
 31
0.0
  0
LINE
  5
5d2
100
AcDbEntity
  8
Eyes
 62
7
100
AcDbLine
 10
650.244198
 20
362.502514
 30
0.0
 11
652.984676
 21
364.863432
 31
0.0
  0
LINE
  5
5d3
100
AcDbEntity
  8
Eyes
 62
7
100
AcDbLine
 10
652.984676
 20
364.863432
 30
0.0
 11
655.616456
 21
367.367910
 31
0.0
  0
LINE
  5
5d4
100
AcDbEntity
  8
Eyes
 62
7
100
AcDbLine
 10
655.616456
 20
367.367910
 30
0.0
 11
658.120935
 21
369.999689
 31
0.0
  0
LINE
  5
5d5
100
AcDbEntity
  8
Eyes
 62
7
100
AcDbLine
 10
658.120935
 20
369.999689
 30
0.0
 11
660.481853
 21
372.740166
 31
0.0
  0
LINE
  5
5d6
100
AcDbEntity
  8
Eyes
 62
7
100
AcDbLine
 10
660.481853
 20
372.740166
 30
0.0
 11
662.696725
 21
375.583339
 31
0.0
  0
LINE
  5
5d7
100
AcDbEntity
  8
Eyes
 62
7
100
AcDbLine
 10
662.696725
 20
375.583339
 30
0.0
 11
664.763064
 21
378.523202
 31
0.0
  0
LINE
  5
5d8
100
AcDbEntity
  8
Eyes
 62
7
100
AcDbLine
 10
664.763064
 20
378.523202
 30
0.0
 11
666.678382
 21
381.553753
 31
0.0
  0
LINE
  5
5d9
100
AcDbEntity
  8
Eyes
 62
7
100
AcDbLine
 10
666.678382
 20
381.553753
 30
0.0
 11
668.440194
 21
384.668989
 31
0.0
  0
LINE
  5
5da
100
AcDbEntity
  8
Eyes
 62
7
100
AcDbLine
 10
668.440194
 20
384.668989
 30
0.0
 11
670.046012
 21
387.862905
 31
0.0
  0
LINE
  5
5db
100
AcDbEntity
  8
Eyes
 62
7
100
AcDbLine
 10
670.046012
 20
387.862905
 30
0.0
 11
671.493349
 21
391.129498
 31
0.0
  0
LINE
  5
5dc
100
AcDbEntity
  8
Eyes
 62
7
100
AcDbLine
 10
671.493349
 20
391.129498
 30
0.0
 11
672.779720
 21
394.462765
 31
0.0
  0
LINE
  5
5dd
100
AcDbEntity
  8
Eyes
 62
7
100
AcDbLine
 10
672.779720
 20
394.462765
 30
0.0
 11
673.902638
 21
397.856702
 31
0.0
  0
LINE
  5
5de
100
AcDbEntity
  8
Eyes
 62
7
100
AcDbLine
 10
673.902638
 20
397.856702
 30
0.0
 11
674.859615
 21
401.305306
 31
0.0
  0
LINE
  5
5df
100
AcDbEntity
  8
Eyes
 62
7
100
AcDbLine
 10
674.859615
 20
401.305306
 30
0.0
 11
675.648165
 21
404.802572
 31
0.0
  0
LINE
  5
5e0
100
AcDbEntity
  8
Eyes
 62
7
100
AcDbLine
 10
675.648165
 20
404.802572
 30
0.0
 11
676.265801
 21
408.342498
 31
0.0
  0
LINE
  5
5e1
100
AcDbEntity
  8
Eyes
 62
7
100
AcDbLine
 10
676.265801
 20
408.342498
 30
0.0
 11
676.710037
 21
411.919081
 31
0.0
  0
LINE
  5
5e2
100
AcDbEntity
  8
Eyes
 62
7
100
AcDbLine
 10
676.710037
 20
411.919081
 30
0.0
 11
676.978386
 21
415.526315
 31
0.0
  0
LINE
  5
5e3
100
AcDbEntity
  8
Eyes
 62
7
100
AcDbLine
 10
676.978386
 20
415.526315
 30
0.0
 11
677.068361
 21
419.158199
 31
0.0
  0
LINE
  5
5e4
100
AcDbEntity
  8
Eyes
 62
7
100
AcDbLine
 10
677.068361
 20
419.158199
 30
0.0
 11
676.973003
 21
422.927178
 31
0.0
  0
LINE
  5
5e5
100
AcDbEntity
  8
Eyes
 62
7
100
AcDbLine
 10
676.973003
 20
422.927178
 30
0.0
 11
676.690112
 21
426.646677
 31
0.0
  0
LINE
  5
5e6
100
AcDbEntity
  8
Eyes
 62
7
100
AcDbLine
 10
676.690112
 20
426.646677
 30
0.0
 11
676.224290
 21
430.312094
 31
0.0
  0
LINE
  5
5e7
100
AcDbEntity
  8
Eyes
 62
7
100
AcDbLine
 10
676.224290
 20
430.312094
 30
0.0
 11
675.580139
 21
433.918827
 31
0.0
  0
LINE
  5
5e8
100
AcDbEntity
  8
Eyes
 62
7
100
AcDbLine
 10
675.580139
 20
433.918827
 30
0.0
 11
674.762261
 21
437.462275
 31
0.0
  0
LINE
  5
5e9
100
AcDbEntity
  8
Eyes
 62
7
100
AcDbLine
 10
674.762261
 20
437.462275
 30
0.0
 11
673.775258
 21
440.937835
 31
0.0
  0
LINE
  5
5ea
100
AcDbEntity
  8
Eyes
 62
7
100
AcDbLine
 10
673.775258
 20
440.937835
 30
0.0
 11
672.623732
 21
444.340906
 31
0.0
  0
LINE
  5
5eb
100
AcDbEntity
  8
Eyes
 62
7
100
AcDbLine
 10
672.623732
 20
444.340906
 30
0.0
 11
671.312284
 21
447.666886
 31
0.0
  0
LINE
  5
5ec
100
AcDbEntity
  8
Eyes
 62
7
100
AcDbLine
 10
671.312284
 20
447.666886
 30
0.0
 11
669.845518
 21
450.911173
 31
0.0
  0
LINE
  5
5ed
100
AcDbEntity
  8
Eyes
 62
7
100
AcDbLine
 10
669.845518
 20
450.911173
 30
0.0
 11
668.228033
 21
454.069165
 31
0.0
  0
LINE
  5
5ee
100
AcDbEntity
  8
Eyes
 62
7
100
AcDbLine
 10
668.228033
 20
454.069165
 30
0.0
 11
666.464434
 21
457.136262
 31
0.0
  0
LINE
  5
5ef
100
AcDbEntity
  8
Eyes
 62
7
100
AcDbLine
 10
666.464434
 20
457.136262
 30
0.0
 11
664.559321
 21
460.107860
 31
0.0
  0
LINE
  5
5f0
100
AcDbEntity
  8
Eyes
 62
7
100
AcDbLine
 10
664.559321
 20
460.107860
 30
0.0
 11
662.517296
 21
462.979358
 31
0.0
  0
LINE
  5
5f1
100
AcDbEntity
  8
Eyes
 62
7
100
AcDbLine
 10
662.517296
 20
462.979358
 30
0.0
 11
660.342961
 21
465.746154
 31
0.0
  0
LINE
  5
5f2
100
AcDbEntity
  8
Eyes
 62
7
100
AcDbLine
 10
660.342961
 20
465.746154
 30
0.0
 11
658.040919
 21
468.403647
 31
0.0
  0
LINE
  5
5f3
100
AcDbEntity
  8
Eyes
 62
7
100
AcDbLine
 10
658.040919
 20
468.403647
 30
0.0
 11
655.615770
 21
470.947234
 31
0.0
  0
LINE
  5
5f4
100
AcDbEntity
  8
Eyes
 62
7
100
AcDbLine
 10
655.615770
 20
470.947234
 30
0.0
 11
653.072118
 21
473.372315
 31
0.0
  0
LINE
  5
5f5
100
AcDbEntity
  8
Eyes
 62
7
100
AcDbLine
 10
653.072118
 20
473.372315
 30
0.0
 11
650.414564
 21
475.674286
 31
0.0
  0
LINE
  5
5f6
100
AcDbEntity
  8
Eyes
 62
7
100
AcDbLine
 10
650.414564
 20
475.674286
 30
0.0
 11
647.647709
 21
477.848546
 31
0.0
  0
LINE
  5
5f7
100
AcDbEntity
  8
Eyes
 62
7
100
AcDbLine
 10
647.647709
 20
477.848546
 30
0.0
 11
644.776156
 21
479.890494
 31
0.0
  0
LINE
  5
5f8
100
AcDbEntity
  8
Eyes
 62
7
100
AcDbLine
 10
644.776156
 20
479.890494
 30
0.0
 11
641.804507
 21
481.795528
 31
0.0
  0
LINE
  5
5f9
100
AcDbEntity
  8
Eyes
 62
7
100
AcDbLine
 10
641.804507
 20
481.795528
 30
0.0
 11
638.737364
 21
483.559046
 31
0.0
  0
LINE
  5
5fa
100
AcDbEntity
  8
Eyes
 62
7
100
AcDbLine
 10
638.737364
 20
483.559046
 30
0.0
 11
635.579328
 21
485.176445
 31
0.0
  0
LINE
  5
5fb
100
AcDbEntity
  8
Eyes
 62
7
100
AcDbLine
 10
635.579328
 20
485.176445
 30
0.0
 11
632.335002
 21
486.643125
 31
0.0
  0
LINE
  5
5fc
100
AcDbEntity
  8
Eyes
 62
7
100
AcDbLine
 10
632.335002
 20
486.643125
 30
0.0
 11
629.008987
 21
487.954484
 31
0.0
  0
LINE
  5
5fd
100
AcDbEntity
  8
Eyes
 62
7
100
AcDbLine
 10
629.008987
 20
487.954484
 30
0.0
 11
625.605885
 21
489.105919
 31
0.0
  0
LINE
  5
5fe
100
AcDbEntity
  8
Eyes
 62
7
100
AcDbLine
 10
625.605885
 20
489.105919
 30
0.0
 11
622.130298
 21
490.092829
 31
0.0
  0
LINE
  5
5ff
100
AcDbEntity
  8
Eyes
 62
7
100
AcDbLine
 10
622.130298
 20
490.092829
 30
0.0
 11
618.586829
 21
490.910612
 31
0.0
  0
LINE
  5
600
100
AcDbEntity
  8
Eyes
 62
7
100
AcDbLine
 10
618.586829
 20
490.910612
 30
0.0
 11
614.980079
 21
491.554666
 31
0.0
  0
LINE
  5
601
100
AcDbEntity
  8
Eyes
 62
7
100
AcDbLine
 10
614.980079
 20
491.554666
 30
0.0
 11
611.314649
 21
492.020390
 31
0.0
  0
LINE
  5
602
100
AcDbEntity
  8
Eyes
 62
7
100
AcDbLine
 10
611.314649
 20
492.020390
 30
0.0
 11
607.595143
 21
492.303182
 31
0.0
  0
LINE
  5
603
100
AcDbEntity
  8
Eyes
 62
7
100
AcDbLine
 10
607.595143
 20
492.303182
 30
0.0
 11
603.826161
 21
492.398439
 31
0.0
  0
LINE
  5
604
100
AcDbEntity
  8
Eyes
 62
7
100
AcDbLine
 10
603.826161
 20
492.398439
 30
0.0
 11
597.327957
 21
492.110438
 31
0.0
  0
LINE
  5
605
100
AcDbEntity
  8
Eyes
 62
7
100
AcDbLine
 10
597.327957
 20
492.110438
 30
0.0
 11
590.971424
 21
491.264725
 31
0.0
  0
LINE
  5
606
100
AcDbEntity
  8
Eyes
 62
7
100
AcDbLine
 10
590.971424
 20
491.264725
 30
0.0
 11
584.783580
 21
489.883523
 31
0.0
  0
LINE
  5
607
100
AcDbEntity
  8
Eyes
 62
7
100
AcDbLine
 10
584.783580
 20
489.883523
 30
0.0
 11
578.791439
 21
487.989050
 31
0.0
  0
LINE
  5
608
100
AcDbEntity
  8
Eyes
 62
7
100
AcDbLine
 10
578.791439
 20
487.989050
 30
0.0
 11
573.022017
 21
485.603528
 31
0.0
  0
LINE
  5
609
100
AcDbEntity
  8
Eyes
 62
7
100
AcDbLine
 10
573.022017
 20
485.603528
 30
0.0
 11
567.502331
 21
482.749177
 31
0.0
  0
LINE
  5
60a
100
AcDbEntity
  8
Eyes
 62
7
100
AcDbLine
 10
567.502331
 20
482.749177
 30
0.0
 11
562.259396
 21
479.448218
 31
0.0
  0
LINE
  5
60b
100
AcDbEntity
  8
Eyes
 62
7
100
AcDbLine
 10
562.259396
 20
479.448218
 30
0.0
 11
557.320227
 21
475.722871
 31
0.0
  0
LINE
  5
60c
100
AcDbEntity
  8
Eyes
 62
7
100
AcDbLine
 10
557.320227
 20
475.722871
 30
0.0
 11
552.711841
 21
471.595357
 31
0.0
  0
LINE
  5
60d
100
AcDbEntity
  8
Eyes
 62
7
100
AcDbLine
 10
552.711841
 20
471.595357
 30
0.0
 11
548.461254
 21
467.087895
 31
0.0
  0
LINE
  5
60e
100
AcDbEntity
  8
Eyes
 62
7
100
AcDbLine
 10
548.461254
 20
467.087895
 30
0.0
 11
544.595481
 21
462.222707
 31
0.0
  0
LINE
  5
60f
100
AcDbEntity
  8
Eyes
 62
7
100
AcDbLine
 10
544.595481
 20
462.222707
 30
0.0
 11
541.141537
 21
457.022014
 31
0.0
  0
LINE
  5
610
100
AcDbEntity
  8
Eyes
 62
7
100
AcDbLine
 10
541.141537
 20
457.022014
 30
0.0
 11
538.126440
 21
451.508034
 31
0.0
  0
LINE
  5
611
100
AcDbEntity
  8
Eyes
 62
7
100
AcDbLine
 10
538.126440
 20
451.508034
 30
0.0
 11
535.577204
 21
445.702990
 31
0.0
  0
LINE
  5
612
100
AcDbEntity
  8
Eyes
 62
7
100
AcDbLine
 10
535.577204
 20
445.702990
 30
0.0
 11
533.520846
 21
439.629102
 31
0.0
  0
LINE
  5
613
100
AcDbEntity
  8
Eyes
 62
7
100
AcDbLine
 10
533.520846
 20
439.629102
 30
0.0
 11
531.984381
 21
433.308589
 31
0.0
  0
LINE
  5
614
100
AcDbEntity
  8
Eyes
 62
7
100
AcDbLine
 10
531.984381
 20
433.308589
 30
0.0
 11
342.966791
 21
433.308589
 31
0.0
  0
LINE
  5
615
100
AcDbEntity
  8
Eyes
 62
7
100
AcDbLine
 10
342.966791
 20
433.308589
 30
0.0
 11
341.431259
 21
439.625879
 31
0.0
  0
LINE
  5
616
100
AcDbEntity
  8
Eyes
 62
7
100
AcDbLine
 10
341.431259
 20
439.625879
 30
0.0
 11
339.376334
 21
445.696865
 31
0.0
  0
LINE
  5
617
100
AcDbEntity
  8
Eyes
 62
7
100
AcDbLine
 10
339.376334
 20
445.696865
 30
0.0
 11
336.828985
 21
451.499352
 31
0.0
  0
LINE
  5
618
100
AcDbEntity
  8
Eyes
 62
7
100
AcDbLine
 10
336.828985
 20
451.499352
 30
0.0
 11
333.816182
 21
457.011141
 31
0.0
  0
LINE
  5
619
100
AcDbEntity
  8
Eyes
 62
7
100
AcDbLine
 10
333.816182
 20
457.011141
 30
0.0
 11
330.364893
 21
462.210035
 31
0.0
  0
LINE
  5
61a
100
AcDbEntity
  8
Eyes
 62
7
100
AcDbLine
 10
330.364893
 20
462.210035
 30
0.0
 11
326.502087
 21
467.073838
 31
0.0
  0
LINE
  5
61b
100
AcDbEntity
  8
Eyes
 62
7
100
AcDbLine
 10
326.502087
 20
467.073838
 30
0.0
 11
322.254734
 21
471.580352
 31
0.0
  0
LINE
  5
61c
100
AcDbEntity
  8
Eyes
 62
7
100
AcDbLine
 10
322.254734
 20
471.580352
 30
0.0
 11
317.649802
 21
475.707380
 31
0.0
  0
LINE
  5
61d
100
AcDbEntity
  8
Eyes
 62
7
100
AcDbLine
 10
317.649802
 20
475.707380
 30
0.0
 11
312.714262
 21
479.432724
 31
0.0
  0
LINE
  5
61e
100
AcDbEntity
  8
Eyes
 62
7
100
AcDbLine
 10
312.714262
 20
479.432724
 30
0.0
 11
307.475082
 21
482.734188
 31
0.0
  0
LINE
  5
61f
100
AcDbEntity
  8
Eyes
 62
7
100
AcDbLine
 10
307.475082
 20
482.734188
 30
0.0
 11
301.959230
 21
485.589575
 31
0.0
  0
LINE
  5
620
100
AcDbEntity
  8
Eyes
 62
7
100
AcDbLine
 10
301.959230
 20
485.589575
 30
0.0
 11
296.193677
 21
487.976686
 31
0.0
  0
LINE
  5
621
100
AcDbEntity
  8
Eyes
 62
7
100
AcDbLine
 10
296.193677
 20
487.976686
 30
0.0
 11
290.205392
 21
489.873325
 31
0.0
  0
LINE
  5
622
100
AcDbEntity
  8
Eyes
 62
7
100
AcDbLine
 10
290.205392
 20
489.873325
 30
0.0
 11
284.021343
 21
491.257295
 31
0.0
  0
LINE
  5
623
100
AcDbEntity
  8
Eyes
 62
7
100
AcDbLine
 10
284.021343
 20
491.257295
 30
0.0
 11
277.668500
 21
492.106399
 31
0.0
  0
LINE
  5
624
100
AcDbEntity
  8
Eyes
 62
7
100
AcDbLine
 10
277.668500
 20
492.106399
 30
0.0
 11
271.173831
 21
492.398439
 31
0.0
  0
LINE
  5
625
100
AcDbEntity
  8
Eyes
 62
7
100
AcDbLine
 10
271.173831
 20
492.398439
 30
0.0
 11
271.173831
 21
492.398439
 31
0.0
  0
ENDSEC
  0
SECTION
  2
OBJECTS
  0
DICTIONARY
  5
C
330
0
100
AcDbDictionary
  3
ACAD_GROUP
350
D
  3
ACAD_MLINESTYLE
350
17
  0
DICTIONARY
  5
D
330
C
100
AcDbDictionary
  0
DICTIONARY
  5
1A
330
C
100
AcDbDictionary
  0
DICTIONARY
  5
17
330
C
100
AcDbDictionary
  3
STANDARD
350
18
  0
DICTIONARY
  5
19
330
C
100
AcDbDictionary
  0
ENDSEC
  0
EOF
