<?xml version="1.0" encoding="UTF-8" standalone="no"?>
<!-- Created with Inkscape (http://www.inkscape.org/) -->

<svg
   xmlns:dc="http://purl.org/dc/elements/1.1/"
   xmlns:cc="http://creativecommons.org/ns#"
   xmlns:rdf="http://www.w3.org/1999/02/22-rdf-syntax-ns#"
   xmlns:svg="http://www.w3.org/2000/svg"
   xmlns="http://www.w3.org/2000/svg"
   xmlns:sodipodi="http://sodipodi.sourceforge.net/DTD/sodipodi-0.dtd"
   xmlns:inkscape="http://www.inkscape.org/namespaces/inkscape"
   width="875"
   height="750"
   viewBox="0 0 875.00001 750.00001"
   id="svg3353"
   version="1.1"
   inkscape:version="0.91 r13725"
   sodipodi:docname="BaymaxHeartFace.svg">
  <defs
     id="defs3355" />
  <sodipodi:namedview
     id="base"
     pagecolor="#ffffff"
     bordercolor="#666666"
     borderopacity="1.0"
     inkscape:pageopacity="0.0"
     inkscape:pageshadow="2"
     inkscape:zoom="0.77051342"
     inkscape:cx="437.51154"
     inkscape:cy="375.01575"
     inkscape:document-units="px"
     inkscape:current-layer="svg3353"
     showgrid="false"
     units="px"
     fit-margin-top="50"
     fit-margin-left="50"
     fit-margin-right="50"
     fit-margin-bottom="50"
     showguides="false"
     inkscape:guide-bbox="true"
     inkscape:snap-smooth-nodes="true"
     inkscape:snap-intersection-paths="false"
     inkscape:object-nodes="true"
     inkscape:snap-page="true"
     inkscape:snap-global="false"
     inkscape:window-width="1280"
     inkscape:window-height="747"
     inkscape:window-x="0"
     inkscape:window-y="31"
     inkscape:window-maximized="1">
    <sodipodi:guide
       position="12.776303,753.82388"
       orientation="1,0"
       id="guide3369"
       inkscape:label=""
       inkscape:color="rgb(0,0,255)" />
    <sodipodi:guide
       position="732.77631,753.82388"
       orientation="1,0"
       id="guide3371"
       inkscape:label=""
       inkscape:color="rgb(0,0,255)" />
    <sodipodi:guide
       position="272.7763,753.82388"
       orientation="1,0"
       id="guide3373"
       inkscape:label=""
       inkscape:color="rgb(0,0,255)" />
    <sodipodi:guide
       position="472.77631,753.82388"
       orientation="1,0"
       id="guide3375"
       inkscape:label=""
       inkscape:color="rgb(0,0,255)" />
    <sodipodi:guide
       position="-77.223699,3.8238672"
       orientation="0,1"
       id="guide3379"
       inkscape:label=""
       inkscape:color="rgb(0,0,255)" />
    <sodipodi:guide
       position="-77.223699,603.82388"
       orientation="0,1"
       id="guide3381"
       inkscape:label=""
       inkscape:color="rgb(0,0,255)" />
  </sodipodi:namedview>
  <metadata
     id="metadata3358">
    <rdf:RDF>
      <cc:Work
         rdf:about="">
        <dc:format>image/svg+xml</dc:format>
        <dc:type
           rdf:resource="http://purl.org/dc/dcmitype/StillImage" />
        <dc:title />
      </cc:Work>
    </rdf:RDF>
  </metadata>
  <g
     inkscape:groupmode="layer"
     id="layer5"
     inkscape:label="Base"
     style="display:inline">
    <path
       style="display:inline;fill:#0000ff;fill-rule:evenodd;stroke:none;stroke-width:1.43216705px;stroke-linecap:butt;stroke-linejoin:miter;stroke-opacity:1"
       d="m 633.92611,30.443598 c -58.54799,0.6599 -119.43335,13.11826 -167.11574,48.84503 -11.42062,8.62973 -21.14559,19.34511 -29.48582,30.938182 C 409.35946,70.319188 362.59094,48.240938 315.93197,38.816648 253.85179,24.498758 185.38561,27.245588 128.68284,58.476178 71.705611,89.835378 35.074111,152.40974 31.066741,216.80689 c -8.23381,81.08244 21.62804,163.24505 73.722289,225.00082 60.4878,76.42832 135.88972,139.28193 212.58006,198.72087 37.18048,27.97815 74.97642,55.6293 115.43202,78.59862 14.86907,2.8886 26.65461,-9.36133 37.89782,-16.88073 C 583.99941,625.47709 693.38345,539.52813 778.31516,431.20677 829.72151,365.59163 856.38433,278.43393 840.91439,195.59986 831.4921,143.68507 802.78336,93.858758 757.42471,65.496438 721.00346,41.737508 677.24536,30.216388 633.92611,30.443598 Z"
       id="path10787-8-7"
       inkscape:connector-curvature="0" />
  </g>
  <g
     inkscape:groupmode="layer"
     id="layer4"
     inkscape:label="Outline"
     style="display:inline">
    <path
       style="display:inline;fill:#000000;fill-rule:evenodd;stroke:none;stroke-width:1.43216705px;stroke-linecap:butt;stroke-linejoin:miter;stroke-opacity:1"
       d="M 633.94922 30.412109 C 575.40123 31.072005 514.51637 43.531041 466.83398 79.257812 C 455.41336 87.887535 445.68789 98.602251 437.34766 110.19531 C 409.38257 70.287696 362.61405 48.209445 315.95508 38.785156 C 253.8749 24.467261 185.40785 27.214724 128.70508 58.445312 C 71.727841 89.804519 35.09722 152.37824 31.089844 216.77539 C 22.856039 297.85783 52.718251 380.01962 104.8125 441.77539 C 165.3003 518.20371 240.70224 581.05911 317.39258 640.49805 C 354.57306 668.4762 392.36862 696.12638 432.82422 719.0957 C 447.69329 721.9843 459.47945 709.73424 470.72266 702.21484 C 584.02314 625.44546 693.40618 539.49714 778.33789 431.17578 C 829.74424 365.56064 856.40744 278.40243 840.9375 195.56836 C 831.51521 143.65357 802.80592 93.827157 757.44727 65.464844 C 721.02602 41.705913 677.26847 30.184897 633.94922 30.412109 z M 634.79883 45 C 671.91147 45.225012 709.3876 53.85585 741.55273 72.701172 C 781.05466 94.954973 809.31112 134.19249 821.59961 177.47461 C 833.22669 219.61247 832.05205 264.65819 822.4707 307.07812 C 809.9462 364.53157 775.15885 413.99164 737.23047 457.67578 C 655.18106 549.76109 557.04162 625.94776 454.92773 694.44141 C 448.27628 697.53246 442.96858 706.21506 434.70898 704.16406 C 375.12026 665.17239 317.34688 623.06763 262.54102 577.48828 C 203.04817 526.6792 144.42372 473.27168 99.476562 408.73242 C 72.656494 371.92058 54.131575 328.82675 48.121094 283.55859 C 40.113463 230.84798 46.277139 174.01057 75.402344 128.33203 C 103.91029 82.366627 155.45464 54.453762 208.19727 47.232422 C 255.11922 41.755611 303.40687 47.238022 347.93164 63.041016 C 386.0997 76.198072 422.43437 102.44373 437.47852 141.11133 C 447.28214 115.47081 467.35039 94.868389 490.35547 80.501953 C 532.6042 55.295329 582.54315 46.009039 631.20898 45.003906 C 632.40522 44.993726 633.60165 44.99272 634.79883 45 z "
       id="path10787-8" />
  </g>
  <g
     inkscape:label="Heart"
     inkscape:groupmode="layer"
     id="layer1"
     transform="translate(-24.270922,-55.033253)"
     style="display:inline">
    <path
       style="fill:#ff8080;fill-rule:evenodd;stroke:none;stroke-width:1.43216705px;stroke-linecap:butt;stroke-linejoin:miter;stroke-opacity:1"
       d="M 84.749798,373.5746 C 40.251264,200.55275 142.65108,91.725987 293.95791,106.34411 455.27144,121.929 461.77092,215.79567 461.77092,215.79567 c 0,0 6.49947,-93.86667 167.81301,-109.45156 151.30684,-14.618123 253.70664,94.20864 209.20812,267.23049 -43.96407,170.94369 -377.02113,381.45865 -377.02113,381.45865 0,0 -333.05705,-210.51496 -377.021122,-381.45865 z"
       id="path3363"
       inkscape:connector-curvature="0"
       sodipodi:nodetypes="sscsscs" />
  </g>
  <g
     inkscape:groupmode="layer"
     id="layer3"
     inkscape:label="Face"
     style="display:inline"
     transform="translate(30.394461,25.862771)">
    <path
       sodipodi:nodetypes="cssscc"
       inkscape:connector-curvature="0"
       id="path9847"
       d="m 309.305,466.3741 c -162.04127,0 -195.60108,-65.26507 -195.60111,-145.7736 0,-80.50853 131.36039,-158.64102 293.40165,-158.64102 162.04126,0 293.40164,78.13249 293.40164,158.64102 -2e-5,80.50853 -33.55983,145.7736 -195.6011,145.7736 z"
       style="display:inline;fill:#cccccc;fill-rule:evenodd;stroke:none;stroke-width:0.89769971px;stroke-linecap:butt;stroke-linejoin:miter;stroke-opacity:1" />
  </g>
  <g
     inkscape:groupmode="layer"
     id="layer2"
     inkscape:label="Eyes"
     style="display:inline"
     transform="translate(30.394461,25.862771)">
    <path
       style="fill:#000000;fill-rule:evenodd;stroke:none;stroke-width:1px;stroke-linecap:butt;stroke-linejoin:miter;stroke-opacity:1"
       d="m 240.77937,231.73879 a 73.24136,73.24136 0 0 0 -73.2422,73.24024 73.24136,73.24136 0 0 0 73.2422,73.24218 73.24136,73.24136 0 0 0 71.84178,-59.08984 l 189.01759,0 a 73.24136,73.24136 0 0 0 71.79296,59.08984 73.24136,73.24136 0 0 0 73.2422,-73.24218 73.24136,73.24136 0 0 0 -73.2422,-73.24024 73.24136,73.24136 0 0 0 -71.84178,59.08985 l -189.01759,0 a 73.24136,73.24136 0 0 0 -71.79296,-59.08985 z"
       id="path9828"
       inkscape:connector-curvature="0" />
  </g>
</svg>
