  0
SECTION
  2
HEADER
  9
$ACADVER
  1
AC1014
  9
$HANDSEED
  5
FFFF
  9
$MEASUREMENT
 70
     1
  0
ENDSEC
  0
SECTION
  2
TABLES
  0
TABLE
  2
VPORT
  5
8
330
0
100
AcDbSymbolTable
 70
     4
  0
VPORT
  5
2E
330
8
100
AcDbSymbolTableRecord
100
AcDbViewportTableRecord
  2
*ACTIVE
 70
     0
 10
0.0
 20
0.0
 11
1.0
 21
1.0
 12
210.0
 22
148.5
 13
0.0
 23
0.0
 14
10.0
 24
10.0
 15
10.0
 25
10.0
 16
0.0
 26
0.0
 36
1.0
 17
0.0
 27
0.0
 37
0.0
 40
341.0
 41
1.24
 42
50.0
 43
0.0
 44
0.0
 50
0.0
 51
0.0
 71
     0
 72
   100
 73
     1
 74
     3
 75
     0
 76
     0
 77
     0
 78
     0
  0
ENDTAB
  0
TABLE
  2
LTYPE
  5
5
330
0
100
AcDbSymbolTable
 70
     1
  0
LTYPE
  5
14
330
5
100
AcDbSymbolTableRecord
100
AcDbLinetypeTableRecord
  2
BYBLOCK
 70
     0
  3

 72
    65
 73
     0
 40
0.0
  0
LTYPE
  5
15
330
5
100
AcDbSymbolTableRecord
100
AcDbLinetypeTableRecord
  2
BYLAYER
 70
     0
  3

 72
    65
 73
     0
 40
0.0
  0
LTYPE
  5
16
330
5
100
AcDbSymbolTableRecord
100
AcDbLinetypeTableRecord
  2
CONTINUOUS
 70
     0
  3
Solid line
 72
    65
 73
     0
 40
0.0
  0
ENDTAB
  0
TABLE
  2
LAYER
  5
2
100
AcDbSymbolTable
 70
7
  0
LAYER
  5
50
100
AcDbSymbolTableRecord
100
AcDbLayerTableRecord
  2
0
 70
0
  6
CONTINUOUS
  0
LAYER
  5
51
100
AcDbSymbolTableRecord
100
AcDbLayerTableRecord
  2
Original
 70
0
  6
CONTINUOUS
  0
LAYER
  5
52
100
AcDbSymbolTableRecord
100
AcDbLayerTableRecord
  2
CutterBase
 70
0
  6
CONTINUOUS
  0
LAYER
  5
53
100
AcDbSymbolTableRecord
100
AcDbLayerTableRecord
  2
CutterOutline
 70
0
  6
CONTINUOUS
  0
LAYER
  5
54
100
AcDbSymbolTableRecord
100
AcDbLayerTableRecord
  2
Heart
 70
0
  6
CONTINUOUS
  0
LAYER
  5
55
100
AcDbSymbolTableRecord
100
AcDbLayerTableRecord
  2
Face
 70
0
  6
CONTINUOUS
  0
LAYER
  5
56
100
AcDbSymbolTableRecord
100
AcDbLayerTableRecord
  2
Eyes
 70
0
  6
CONTINUOUS
  0
ENDTAB
  0
TABLE
  2
STYLE
  5
3
330
0
100
AcDbSymbolTable
 70
     1
  0
STYLE
  5
11
330
3
100
AcDbSymbolTableRecord
100
AcDbTextStyleTableRecord
  2
STANDARD
 70
     0
 40
0.0
 41
1.0
 50
0.0
 71
     0
 42
2.5
  3
txt
  4

  0
ENDTAB
  0
TABLE
  2
VIEW
  5
6
330
0
100
AcDbSymbolTable
 70
     0
  0
ENDTAB
  0
TABLE
  2
UCS
  5
7
330
0
100
AcDbSymbolTable
 70
     0
  0
ENDTAB
  0
TABLE
  2
APPID
  5
9
330
0
100
AcDbSymbolTable
 70
     2
  0
APPID
  5
12
330
9
100
AcDbSymbolTableRecord
100
AcDbRegAppTableRecord
  2
ACAD
 70
     0
  0
ENDTAB
  0
TABLE
  2
DIMSTYLE
  5
A
330
0
100
AcDbSymbolTable
 70
     1
  0
DIMSTYLE
105
27
330
A
100
AcDbSymbolTableRecord
100
AcDbDimStyleTableRecord
  2
ISO-25
 70
     0
  3

  4

  5

  6

  7

 40
1.0
 41
2.5
 42
0.625
 43
3.75
 44
1.25
 45
0.0
 46
0.0
 47
0.0
 48
0.0
140
2.5
141
2.5
142
0.0
143
0.03937007874016
144
1.0
145
0.0
146
1.0
147
0.625
 71
     0
 72
     0
 73
     0
 74
     0
 75
     0
 76
     0
 77
     1
 78
     8
170
     0
171
     3
172
     1
173
     0
174
     0
175
     0
176
     0
177
     0
178
     0
270
     2
271
     2
272
     2
273
     2
274
     3
340
11
275
     0
280
     0
281
     0
282
     0
283
     0
284
     8
285
     0
286
     0
287
     3
288
     0
  0
ENDTAB
  0
TABLE
  2
BLOCK_RECORD
  5
1
330
0
100
AcDbSymbolTable
 70
     1
  0
BLOCK_RECORD
  5
1F
330
1
100
AcDbSymbolTableRecord
100
AcDbBlockTableRecord
  2
*MODEL_SPACE
  0
BLOCK_RECORD
  5
1B
330
1
100
AcDbSymbolTableRecord
100
AcDbBlockTableRecord
  2
*PAPER_SPACE
  0
ENDTAB
  0
ENDSEC
  0
SECTION
  2
BLOCKS
  0
BLOCK
  5
20
330
1F
100
AcDbEntity
  8
0
100
AcDbBlockBegin
  2
*MODEL_SPACE
 70
     0
 10
0.0
 20
0.0
 30
0.0
  3
*MODEL_SPACE
  1

  0
ENDBLK
  5
21
330
1F
100
AcDbEntity
  8
0
100
AcDbBlockEnd
  0
BLOCK
  5
1C
330
1B
100
AcDbEntity
 67
     1
  8
0
100
AcDbBlockBegin
  2
*PAPER_SPACE
  1

  0
ENDBLK
  5
1D
330
1B
100
AcDbEntity
 67
     1
  8
0
100
AcDbBlockEnd
  0
ENDSEC
  0
SECTION
  2
ENTITIES
  0
LWPOLYLINE
  5
100
100
AcDbEntity
  8
CutterBase
 62
7
100
AcDbPolyline
 90
483
 70
0
 10
58.121889
 20
69.568535
 30
0.0
 10
57.796897
 20
69.570848
 30
0.0
 10
57.472022
 20
69.568174
 30
0.0
 10
57.147323
 20
69.560541
 30
0.0
 10
56.822860
 20
69.547978
 30
0.0
 10
56.498694
 20
69.530514
 30
0.0
 10
56.174885
 20
69.508176
 30
0.0
 10
55.851492
 20
69.480995
 30
0.0
 10
55.528575
 20
69.448997
 30
0.0
 10
55.206195
 20
69.412213
 30
0.0
 10
54.884412
 20
69.370671
 30
0.0
 10
54.563285
 20
69.324400
 30
0.0
 10
54.242875
 20
69.273427
 30
0.0
 10
53.923242
 20
69.217783
 30
0.0
 10
53.604445
 20
69.157495
 30
0.0
 10
53.286546
 20
69.092592
 30
0.0
 10
52.969603
 20
69.023103
 30
0.0
 10
52.653676
 20
68.949057
 30
0.0
 10
52.338827
 20
68.870482
 30
0.0
 10
52.025114
 20
68.787407
 30
0.0
 10
51.712598
 20
68.699861
 30
0.0
 10
51.401339
 20
68.607872
 30
0.0
 10
51.091397
 20
68.511470
 30
0.0
 10
50.782832
 20
68.410681
 30
0.0
 10
50.475704
 20
68.305537
 30
0.0
 10
50.170073
 20
68.196064
 30
0.0
 10
49.865999
 20
68.082292
 30
0.0
 10
49.563542
 20
67.964250
 30
0.0
 10
49.262763
 20
67.841965
 30
0.0
 10
48.963720
 20
67.715468
 30
0.0
 10
48.666474
 20
67.584785
 30
0.0
 10
48.371086
 20
67.449947
 30
0.0
 10
48.077615
 20
67.310982
 30
0.0
 10
47.786121
 20
67.167919
 30
0.0
 10
47.496664
 20
67.020785
 30
0.0
 10
47.209304
 20
66.869611
 30
0.0
 10
46.924102
 20
66.714424
 30
0.0
 10
46.641117
 20
66.555253
 30
0.0
 10
46.360410
 20
66.392127
 30
0.0
 10
46.082039
 20
66.225075
 30
0.0
 10
45.806067
 20
66.054125
 30
0.0
 10
45.532551
 20
65.879306
 30
0.0
 10
45.261554
 20
65.700646
 30
0.0
 10
44.993133
 20
65.518175
 30
0.0
 10
44.727350
 20
65.331921
 30
0.0
 10
44.464265
 20
65.141913
 30
0.0
 10
44.203937
 20
64.948179
 30
0.0
 10
43.946427
 20
64.750748
 30
0.0
 10
43.691795
 20
64.549648
 30
0.0
 10
43.440100
 20
64.344909
 30
0.0
 10
43.191403
 20
64.136560
 30
0.0
 10
42.945763
 20
63.924628
 30
0.0
 10
42.703241
 20
63.709142
 30
0.0
 10
42.463897
 20
63.490131
 30
0.0
 10
42.227791
 20
63.267625
 30
0.0
 10
41.994983
 20
63.041651
 30
0.0
 10
41.765532
 20
62.812238
 30
0.0
 10
41.539499
 20
62.579414
 30
0.0
 10
41.316944
 20
62.343210
 30
0.0
 10
41.097928
 20
62.103652
 30
0.0
 10
40.882509
 20
61.860771
 30
0.0
 10
40.670748
 20
61.614594
 30
0.0
 10
40.462705
 20
61.365150
 30
0.0
 10
40.258440
 20
61.112469
 30
0.0
 10
40.058013
 20
60.856577
 30
0.0
 10
39.743628
 20
61.242816
 30
0.0
 10
39.420295
 20
61.621379
 30
0.0
 10
39.088240
 20
61.992184
 30
0.0
 10
38.747687
 20
62.355149
 30
0.0
 10
38.398863
 20
62.710192
 30
0.0
 10
38.041993
 20
63.057231
 30
0.0
 10
37.677302
 20
63.396184
 30
0.0
 10
37.305016
 20
63.726968
 30
0.0
 10
36.925360
 20
64.049502
 30
0.0
 10
36.538560
 20
64.363703
 30
0.0
 10
36.144840
 20
64.669488
 30
0.0
 10
35.744427
 20
64.966777
 30
0.0
 10
35.337545
 20
65.255486
 30
0.0
 10
34.924421
 20
65.535534
 30
0.0
 10
34.505280
 20
65.806839
 30
0.0
 10
34.080346
 20
66.069318
 30
0.0
 10
33.649846
 20
66.322889
 30
0.0
 10
33.214005
 20
66.567469
 30
0.0
 10
32.773049
 20
66.802978
 30
0.0
 10
32.327202
 20
67.029332
 30
0.0
 10
31.876690
 20
67.246450
 30
0.0
 10
31.421739
 20
67.454249
 30
0.0
 10
30.962575
 20
67.652648
 30
0.0
 10
30.499421
 20
67.841563
 30
0.0
 10
30.032505
 20
68.020914
 30
0.0
 10
29.562051
 20
68.190617
 30
0.0
 10
29.088285
 20
68.350591
 30
0.0
 10
28.611432
 20
68.500753
 30
0.0
 10
28.131717
 20
68.641021
 30
0.0
 10
27.649367
 20
68.771314
 30
0.0
 10
27.164606
 20
68.891549
 30
0.0
 10
26.677661
 20
69.001643
 30
0.0
 10
26.188755
 20
69.101516
 30
0.0
 10
25.698115
 20
69.191083
 30
0.0
 10
25.205967
 20
69.270264
 30
0.0
 10
24.712535
 20
69.338977
 30
0.0
 10
24.218045
 20
69.397138
 30
0.0
 10
23.722723
 20
69.444667
 30
0.0
 10
23.226794
 20
69.481480
 30
0.0
 10
22.730483
 20
69.507496
 30
0.0
 10
22.234016
 20
69.522632
 30
0.0
 10
21.737618
 20
69.526806
 30
0.0
 10
21.241515
 20
69.519937
 30
0.0
 10
20.745931
 20
69.501942
 30
0.0
 10
20.251094
 20
69.472738
 30
0.0
 10
19.757227
 20
69.432245
 30
0.0
 10
19.264556
 20
69.380379
 30
0.0
 10
18.773307
 20
69.317058
 30
0.0
 10
18.283706
 20
69.242200
 30
0.0
 10
17.795977
 20
69.155724
 30
0.0
 10
17.310346
 20
69.057546
 30
0.0
 10
16.827039
 20
68.947586
 30
0.0
 10
16.346281
 20
68.825760
 30
0.0
 10
15.868296
 20
68.691986
 30
0.0
 10
15.393312
 20
68.546183
 30
0.0
 10
14.921553
 20
68.388268
 30
0.0
 10
14.453245
 20
68.218159
 30
0.0
 10
13.988612
 20
68.035774
 30
0.0
 10
13.527881
 20
67.841031
 30
0.0
 10
13.071277
 20
67.633847
 30
0.0
 10
12.619025
 20
67.414141
 30
0.0
 10
12.171352
 20
67.181830
 30
0.0
 10
11.728481
 20
66.936832
 30
0.0
 10
11.290639
 20
66.679065
 30
0.0
 10
10.966897
 20
66.500606
 30
0.0
 10
10.646257
 20
66.316412
 30
0.0
 10
10.328798
 20
66.126566
 30
0.0
 10
10.014597
 20
65.931152
 30
0.0
 10
9.703730
 20
65.730256
 30
0.0
 10
9.396274
 20
65.523962
 30
0.0
 10
9.092308
 20
65.312355
 30
0.0
 10
8.791909
 20
65.095518
 30
0.0
 10
8.495153
 20
64.873538
 30
0.0
 10
8.202117
 20
64.646498
 30
0.0
 10
7.912880
 20
64.414483
 30
0.0
 10
7.627518
 20
64.177578
 30
0.0
 10
7.346109
 20
63.935867
 30
0.0
 10
7.068729
 20
63.689435
 30
0.0
 10
6.795456
 20
63.438367
 30
0.0
 10
6.526368
 20
63.182747
 30
0.0
 10
6.261541
 20
62.922659
 30
0.0
 10
6.001053
 20
62.658189
 30
0.0
 10
5.744981
 20
62.389421
 30
0.0
 10
5.493403
 20
62.116440
 30
0.0
 10
5.246394
 20
61.839330
 30
0.0
 10
5.004034
 20
61.558175
 30
0.0
 10
4.766398
 20
61.273061
 30
0.0
 10
4.533565
 20
60.984072
 30
0.0
 10
4.305611
 20
60.691293
 30
0.0
 10
4.082613
 20
60.394808
 30
0.0
 10
3.864650
 20
60.094702
 30
0.0
 10
3.651798
 20
59.791059
 30
0.0
 10
3.444134
 20
59.483965
 30
0.0
 10
3.241736
 20
59.173503
 30
0.0
 10
3.044681
 20
58.859759
 30
0.0
 10
2.853045
 20
58.542816
 30
0.0
 10
2.666908
 20
58.222760
 30
0.0
 10
2.486345
 20
57.899676
 30
0.0
 10
2.311433
 20
57.573647
 30
0.0
 10
2.142251
 20
57.244758
 30
0.0
 10
1.978875
 20
56.913095
 30
0.0
 10
1.821383
 20
56.578741
 30
0.0
 10
1.669852
 20
56.241781
 30
0.0
 10
1.524358
 20
55.902301
 30
0.0
 10
1.384980
 20
55.560384
 30
0.0
 10
1.251795
 20
55.216114
 30
0.0
 10
1.124879
 20
54.869578
 30
0.0
 10
1.004310
 20
54.520859
 30
0.0
 10
0.890166
 20
54.170042
 30
0.0
 10
0.782523
 20
53.817211
 30
0.0
 10
0.681459
 20
53.462452
 30
0.0
 10
0.587050
 20
53.105848
 30
0.0
 10
0.499376
 20
52.747484
 30
0.0
 10
0.418511
 20
52.387446
 30
0.0
 10
0.344534
 20
52.025817
 30
0.0
 10
0.277522
 20
51.662683
 30
0.0
 10
0.217553
 20
51.298127
 30
0.0
 10
0.164703
 20
50.932235
 30
0.0
 10
0.119049
 20
50.565091
 30
0.0
 10
0.080670
 20
50.196779
 30
0.0
 10
0.049641
 20
49.827385
 30
0.0
 10
0.026041
 20
49.456993
 30
0.0
 10
0.009947
 20
49.085687
 30
0.0
 10
0.001435
 20
48.713552
 30
0.0
 10
0.000584
 20
48.340673
 30
0.0
 10
0.007470
 20
47.967135
 30
0.0
 10
0.022171
 20
47.593021
 30
0.0
 10
0.044763
 20
47.218417
 30
0.0
 10
0.044061
 20
46.772458
 30
0.0
 10
0.050276
 20
46.327161
 30
0.0
 10
0.063353
 20
45.882578
 30
0.0
 10
0.083232
 20
45.438762
 30
0.0
 10
0.109858
 20
44.995767
 30
0.0
 10
0.143172
 20
44.553647
 30
0.0
 10
0.183117
 20
44.112454
 30
0.0
 10
0.229636
 20
43.672241
 30
0.0
 10
0.282671
 20
43.233062
 30
0.0
 10
0.342164
 20
42.794970
 30
0.0
 10
0.408059
 20
42.358018
 30
0.0
 10
0.480298
 20
41.922259
 30
0.0
 10
0.558823
 20
41.487747
 30
0.0
 10
0.643577
 20
41.054535
 30
0.0
 10
0.734503
 20
40.622676
 30
0.0
 10
0.831543
 20
40.192223
 30
0.0
 10
0.934639
 20
39.763229
 30
0.0
 10
1.043735
 20
39.335749
 30
0.0
 10
1.158773
 20
38.909834
 30
0.0
 10
1.279695
 20
38.485538
 30
0.0
 10
1.406444
 20
38.062914
 30
0.0
 10
1.538962
 20
37.642016
 30
0.0
 10
1.677193
 20
37.222897
 30
0.0
 10
1.821079
 20
36.805610
 30
0.0
 10
1.970561
 20
36.390208
 30
0.0
 10
2.125584
 20
35.976744
 30
0.0
 10
2.286088
 20
35.565272
 30
0.0
 10
2.452018
 20
35.155845
 30
0.0
 10
2.623316
 20
34.748516
 30
0.0
 10
2.799923
 20
34.343338
 30
0.0
 10
2.981783
 20
33.940365
 30
0.0
 10
3.168838
 20
33.539649
 30
0.0
 10
3.361031
 20
33.141245
 30
0.0
 10
3.558305
 20
32.745204
 30
0.0
 10
3.760601
 20
32.351581
 30
0.0
 10
3.967863
 20
31.960428
 30
0.0
 10
4.180033
 20
31.571799
 30
0.0
 10
4.397054
 20
31.185747
 30
0.0
 10
4.618867
 20
30.802326
 30
0.0
 10
4.845417
 20
30.421587
 30
0.0
 10
5.076645
 20
30.043586
 30
0.0
 10
5.312493
 20
29.668374
 30
0.0
 10
5.552906
 20
29.296006
 30
0.0
 10
5.797824
 20
28.926533
 30
0.0
 10
6.047191
 20
28.560010
 30
0.0
 10
6.300949
 20
28.196490
 30
0.0
 10
6.559041
 20
27.836026
 30
0.0
 10
6.821409
 20
27.478671
 30
0.0
 10
7.087996
 20
27.124479
 30
0.0
 10
7.358744
 20
26.773502
 30
0.0
 10
7.633596
 20
26.425794
 30
0.0
 10
7.912495
 20
26.081408
 30
0.0
 10
8.195384
 20
25.740397
 30
0.0
 10
8.482203
 20
25.402814
 30
0.0
 10
8.772898
 20
25.068714
 30
0.0
 10
9.067409
 20
24.738148
 30
0.0
 10
9.365679
 20
24.411170
 30
0.0
 10
9.667651
 20
24.087834
 30
0.0
 10
9.973268
 20
23.768192
 30
0.0
 10
10.282472
 20
23.452298
 30
0.0
 10
10.595206
 20
23.140205
 30
0.0
 10
10.911412
 20
22.831966
 30
0.0
 10
11.231033
 20
22.527635
 30
0.0
 10
11.554011
 20
22.227264
 30
0.0
 10
12.337854
 20
21.444408
 30
0.0
 10
13.130711
 20
20.671910
 30
0.0
 10
13.932188
 20
19.909338
 30
0.0
 10
14.741892
 20
19.156257
 30
0.0
 10
15.559432
 20
18.412233
 30
0.0
 10
16.384412
 20
17.676833
 30
0.0
 10
17.216440
 20
16.949623
 30
0.0
 10
18.055124
 20
16.230170
 30
0.0
 10
18.900069
 20
15.518038
 30
0.0
 10
19.750883
 20
14.812795
 30
0.0
 10
20.607173
 20
14.114007
 30
0.0
 10
21.468545
 20
13.421240
 30
0.0
 10
22.334607
 20
12.734060
 30
0.0
 10
23.204964
 20
12.052033
 30
0.0
 10
24.079225
 20
11.374726
 30
0.0
 10
24.956996
 20
10.701705
 30
0.0
 10
25.837883
 20
10.032535
 30
0.0
 10
26.721494
 20
9.366784
 30
0.0
 10
28.495315
 20
8.043802
 30
0.0
 10
30.275313
 20
6.729287
 30
0.0
 10
32.058342
 20
5.419769
 30
0.0
 10
33.841259
 20
4.111778
 30
0.0
 10
35.620917
 20
2.801844
 30
0.0
 10
37.394172
 20
1.486496
 30
0.0
 10
39.157879
 20
0.162264
 30
0.0
 10
39.266224
 20
0.125849
 30
0.0
 10
39.373283
 20
0.094305
 30
0.0
 10
39.479084
 20
0.067516
 30
0.0
 10
39.583655
 20
0.045367
 30
0.0
 10
39.789219
 20
0.014534
 30
0.0
 10
39.990202
 20
0.000886
 30
0.0
 10
40.186829
 20
0.003506
 30
0.0
 10
40.379327
 20
0.021476
 30
0.0
 10
40.567922
 20
0.053878
 30
0.0
 10
40.752838
 20
0.099793
 30
0.0
 10
40.934303
 20
0.158305
 30
0.0
 10
41.112542
 20
0.228493
 30
0.0
 10
41.287780
 20
0.309442
 30
0.0
 10
41.460244
 20
0.400232
 30
0.0
 10
41.630160
 20
0.499945
 30
0.0
 10
41.797753
 20
0.607664
 30
0.0
 10
41.963250
 20
0.722470
 30
0.0
 10
42.126876
 20
0.843446
 30
0.0
 10
42.288857
 20
0.969673
 30
0.0
 10
42.449419
 20
1.100233
 30
0.0
 10
42.767190
 20
1.370682
 30
0.0
 10
43.395643
 20
1.923185
 30
0.0
 10
43.709939
 20
2.190552
 30
0.0
 10
43.867895
 20
2.318800
 30
0.0
 10
44.026691
 20
2.442201
 30
0.0
 10
44.186552
 20
2.559838
 30
0.0
 10
44.347705
 20
2.670791
 30
0.0
 10
44.510376
 20
2.774143
 30
0.0
 10
44.674790
 20
2.868976
 30
0.0
 10
45.717331
 20
3.662874
 30
0.0
 10
46.765260
 20
4.454460
 30
0.0
 10
48.873192
 20
6.034033
 30
0.0
 10
50.990398
 20
7.614380
 30
0.0
 10
53.108691
 20
9.202187
 30
0.0
 10
54.165687
 20
10.000976
 30
0.0
 10
55.219884
 20
10.804138
 30
0.0
 10
56.270260
 20
11.612508
 30
0.0
 10
57.315791
 20
12.426921
 30
0.0
 10
58.355453
 20
13.248212
 30
0.0
 10
59.388223
 20
14.077218
 30
0.0
 10
60.413078
 20
14.914775
 30
0.0
 10
61.428994
 20
15.761718
 30
0.0
 10
62.434948
 20
16.618882
 30
0.0
 10
63.429916
 20
17.487103
 30
0.0
 10
63.922961
 20
17.925622
 30
0.0
 10
64.412876
 20
18.367218
 30
0.0
 10
64.899533
 20
18.811996
 30
0.0
 10
65.382803
 20
19.260061
 30
0.0
 10
65.862560
 20
19.711517
 30
0.0
 10
66.338675
 20
20.166468
 30
0.0
 10
66.811020
 20
20.625020
 30
0.0
 10
67.279467
 20
21.087276
 30
0.0
 10
67.743889
 20
21.553341
 30
0.0
 10
68.204157
 20
22.023319
 30
0.0
 10
68.660144
 20
22.497315
 30
0.0
 10
69.111721
 20
22.975434
 30
0.0
 10
69.558761
 20
23.457779
 30
0.0
 10
70.001136
 20
23.944455
 30
0.0
 10
70.438718
 20
24.435567
 30
0.0
 10
70.871378
 20
24.931219
 30
0.0
 10
71.298990
 20
25.431516
 30
0.0
 10
71.721424
 20
25.936562
 30
0.0
 10
72.138554
 20
26.446461
 30
0.0
 10
72.550251
 20
26.961319
 30
0.0
 10
72.956387
 20
27.481238
 30
0.0
 10
73.356834
 20
28.006325
 30
0.0
 10
73.751465
 20
28.536683
 30
0.0
 10
74.140152
 20
29.072417
 30
0.0
 10
74.522766
 20
29.613631
 30
0.0
 10
74.899179
 20
30.160430
 30
0.0
 10
75.269265
 20
30.712918
 30
0.0
 10
75.632894
 20
31.271199
 30
0.0
 10
75.852107
 20
31.652153
 30
0.0
 10
76.066668
 20
32.036640
 30
0.0
 10
76.276514
 20
32.424560
 30
0.0
 10
76.481578
 20
32.815808
 30
0.0
 10
76.681795
 20
33.210283
 30
0.0
 10
76.877100
 20
33.607881
 30
0.0
 10
77.067428
 20
34.008501
 30
0.0
 10
77.252713
 20
34.412039
 30
0.0
 10
77.432890
 20
34.818393
 30
0.0
 10
77.607894
 20
35.227460
 30
0.0
 10
77.777659
 20
35.639137
 30
0.0
 10
77.942120
 20
36.053323
 30
0.0
 10
78.101211
 20
36.469914
 30
0.0
 10
78.254867
 20
36.888807
 30
0.0
 10
78.403024
 20
37.309901
 30
0.0
 10
78.545614
 20
37.733092
 30
0.0
 10
78.682574
 20
38.158277
 30
0.0
 10
78.813838
 20
38.585355
 30
0.0
 10
78.939341
 20
39.014223
 30
0.0
 10
79.059016
 20
39.444777
 30
0.0
 10
79.172800
 20
39.876916
 30
0.0
 10
79.280626
 20
40.310536
 30
0.0
 10
79.382429
 20
40.745535
 30
0.0
 10
79.478144
 20
41.181810
 30
0.0
 10
79.567705
 20
41.619260
 30
0.0
 10
79.651048
 20
42.057780
 30
0.0
 10
79.728106
 20
42.497269
 30
0.0
 10
79.798815
 20
42.937623
 30
0.0
 10
79.863109
 20
43.378741
 30
0.0
 10
79.920923
 20
43.820520
 30
0.0
 10
79.972191
 20
44.262856
 30
0.0
 10
80.016848
 20
44.705648
 30
0.0
 10
80.054830
 20
45.148792
 30
0.0
 10
80.086069
 20
45.592186
 30
0.0
 10
80.110502
 20
46.035728
 30
0.0
 10
80.128062
 20
46.479315
 30
0.0
 10
80.138685
 20
46.922843
 30
0.0
 10
80.142305
 20
47.366212
 30
0.0
 10
80.138857
 20
47.809317
 30
0.0
 10
80.128275
 20
48.252056
 30
0.0
 10
80.110494
 20
48.694327
 30
0.0
 10
80.085449
 20
49.136027
 30
0.0
 10
80.053074
 20
49.577053
 30
0.0
 10
80.013305
 20
50.017304
 30
0.0
 10
79.966075
 20
50.456675
 30
0.0
 10
79.911319
 20
50.895064
 30
0.0
 10
79.848973
 20
51.332370
 30
0.0
 10
79.778970
 20
51.768488
 30
0.0
 10
79.701245
 20
52.203318
 30
0.0
 10
79.615734
 20
52.636755
 30
0.0
 10
79.522370
 20
53.068697
 30
0.0
 10
79.421089
 20
53.499043
 30
0.0
 10
79.311825
 20
53.927688
 30
0.0
 10
79.194512
 20
54.354530
 30
0.0
 10
79.069086
 20
54.779468
 30
0.0
 10
78.935480
 20
55.202397
 30
0.0
 10
78.793631
 20
55.623216
 30
0.0
 10
78.643471
 20
56.041822
 30
0.0
 10
78.484937
 20
56.458113
 30
0.0
 10
78.317962
 20
56.871984
 30
0.0
 10
78.142481
 20
57.283335
 30
0.0
 10
77.958430
 20
57.692062
 30
0.0
 10
77.765742
 20
58.098063
 30
0.0
 10
77.564353
 20
58.501235
 30
0.0
 10
77.382098
 20
58.820557
 30
0.0
 10
77.194126
 20
59.136192
 30
0.0
 10
77.000527
 20
59.448096
 30
0.0
 10
76.801389
 20
59.756220
 30
0.0
 10
76.596803
 20
60.060520
 30
0.0
 10
76.386859
 20
60.360947
 30
0.0
 10
76.171648
 20
60.657456
 30
0.0
 10
75.951258
 20
60.950000
 30
0.0
 10
75.725780
 20
61.238533
 30
0.0
 10
75.495304
 20
61.523008
 30
0.0
 10
75.259921
 20
61.803378
 30
0.0
 10
75.019719
 20
62.079597
 30
0.0
 10
74.774789
 20
62.351619
 30
0.0
 10
74.525221
 20
62.619397
 30
0.0
 10
74.271105
 20
62.882883
 30
0.0
 10
74.012531
 20
63.142033
 30
0.0
 10
73.749588
 20
63.396799
 30
0.0
 10
73.482368
 20
63.647135
 30
0.0
 10
73.210959
 20
63.892993
 30
0.0
 10
72.935452
 20
64.134329
 30
0.0
 10
72.655937
 20
64.371094
 30
0.0
 10
72.372504
 20
64.603243
 30
0.0
 10
72.085242
 20
64.830730
 30
0.0
 10
71.794242
 20
65.053506
 30
0.0
 10
71.499594
 20
65.271527
 30
0.0
 10
71.201388
 20
65.484745
 30
0.0
 10
70.899713
 20
65.693114
 30
0.0
 10
70.594660
 20
65.896587
 30
0.0
 10
70.286319
 20
66.095118
 30
0.0
 10
69.974779
 20
66.288661
 30
0.0
 10
69.660131
 20
66.477168
 30
0.0
 10
69.342465
 20
66.660593
 30
0.0
 10
69.021870
 20
66.838890
 30
0.0
 10
68.698436
 20
67.012012
 30
0.0
 10
68.372255
 20
67.179913
 30
0.0
 10
68.043414
 20
67.342546
 30
0.0
 10
67.712006
 20
67.499864
 30
0.0
 10
67.378119
 20
67.651821
 30
0.0
 10
67.041843
 20
67.798371
 30
0.0
 10
66.703269
 20
67.939466
 30
0.0
 10
66.362486
 20
68.075061
 30
0.0
 10
66.019585
 20
68.205109
 30
0.0
 10
65.674655
 20
68.329563
 30
0.0
 10
65.327786
 20
68.448377
 30
0.0
 10
64.979069
 20
68.561504
 30
0.0
 10
64.628594
 20
68.668898
 30
0.0
 10
64.276449
 20
68.770512
 30
0.0
 10
63.922726
 20
68.866299
 30
0.0
 10
63.567515
 20
68.956214
 30
0.0
 10
63.210905
 20
69.040209
 30
0.0
 10
62.852986
 20
69.118238
 30
0.0
 10
62.493848
 20
69.190254
 30
0.0
 10
62.133581
 20
69.256212
 30
0.0
 10
61.772276
 20
69.316064
 30
0.0
 10
61.410022
 20
69.369763
 30
0.0
 10
61.046909
 20
69.417264
 30
0.0
 10
60.683028
 20
69.458520
 30
0.0
 10
60.318467
 20
69.493484
 30
0.0
 10
59.953318
 20
69.522110
 30
0.0
 10
59.587670
 20
69.544350
 30
0.0
 10
59.221613
 20
69.560160
 30
0.0
 10
58.855237
 20
69.569491
 30
0.0
 10
58.488632
 20
69.572299
 30
0.0
 10
58.121889
 20
69.568535
 30
0.0
 10
58.121889
 20
69.568535
 30
0.0
  0
LWPOLYLINE
  5
101
100
AcDbEntity
  8
CutterOutline
 62
7
100
AcDbPolyline
 90
485
 70
0
 10
58.855271
 20
69.569749
 30
0.0
 10
58.488782
 20
69.572483
 30
0.0
 10
58.122154
 20
69.568646
 30
0.0
 10
57.797162
 20
69.570959
 30
0.0
 10
57.472287
 20
69.568285
 30
0.0
 10
57.147588
 20
69.560652
 30
0.0
 10
56.823125
 20
69.548089
 30
0.0
 10
56.498959
 20
69.530625
 30
0.0
 10
56.175150
 20
69.508287
 30
0.0
 10
55.851757
 20
69.481106
 30
0.0
 10
55.528841
 20
69.449109
 30
0.0
 10
55.206461
 20
69.412325
 30
0.0
 10
54.884677
 20
69.370782
 30
0.0
 10
54.563551
 20
69.324511
 30
0.0
 10
54.243141
 20
69.273538
 30
0.0
 10
53.923507
 20
69.217894
 30
0.0
 10
53.604711
 20
69.157606
 30
0.0
 10
53.286811
 20
69.092703
 30
0.0
 10
52.969868
 20
69.023215
 30
0.0
 10
52.653942
 20
68.949169
 30
0.0
 10
52.339092
 20
68.870594
 30
0.0
 10
52.025379
 20
68.787519
 30
0.0
 10
51.712864
 20
68.699973
 30
0.0
 10
51.401605
 20
68.607984
 30
0.0
 10
51.091663
 20
68.511581
 30
0.0
 10
50.783098
 20
68.410793
 30
0.0
 10
50.475970
 20
68.305648
 30
0.0
 10
50.170339
 20
68.196176
 30
0.0
 10
49.866265
 20
68.082404
 30
0.0
 10
49.563808
 20
67.964361
 30
0.0
 10
49.263028
 20
67.842077
 30
0.0
 10
48.963985
 20
67.715579
 30
0.0
 10
48.666740
 20
67.584897
 30
0.0
 10
48.371351
 20
67.450059
 30
0.0
 10
48.077880
 20
67.311094
 30
0.0
 10
47.786386
 20
67.168030
 30
0.0
 10
47.496929
 20
67.020897
 30
0.0
 10
47.209570
 20
66.869722
 30
0.0
 10
46.924367
 20
66.714535
 30
0.0
 10
46.641382
 20
66.555365
 30
0.0
 10
46.360675
 20
66.392239
 30
0.0
 10
46.082305
 20
66.225186
 30
0.0
 10
45.806332
 20
66.054236
 30
0.0
 10
45.532817
 20
65.879417
 30
0.0
 10
45.261819
 20
65.700758
 30
0.0
 10
44.993399
 20
65.518287
 30
0.0
 10
44.727616
 20
65.332033
 30
0.0
 10
44.464530
 20
65.142024
 30
0.0
 10
44.204203
 20
64.948290
 30
0.0
 10
43.946692
 20
64.750859
 30
0.0
 10
43.692060
 20
64.549760
 30
0.0
 10
43.440365
 20
64.345021
 30
0.0
 10
43.191668
 20
64.136671
 30
0.0
 10
42.946028
 20
63.924739
 30
0.0
 10
42.703507
 20
63.709254
 30
0.0
 10
42.464163
 20
63.490243
 30
0.0
 10
42.228056
 20
63.267737
 30
0.0
 10
41.995248
 20
63.041762
 30
0.0
 10
41.765797
 20
62.812349
 30
0.0
 10
41.539765
 20
62.579526
 30
0.0
 10
41.317210
 20
62.343322
 30
0.0
 10
41.098193
 20
62.103764
 30
0.0
 10
40.882774
 20
61.860883
 30
0.0
 10
40.671013
 20
61.614706
 30
0.0
 10
40.462970
 20
61.365262
 30
0.0
 10
40.258705
 20
61.112580
 30
0.0
 10
40.058278
 20
60.856689
 30
0.0
 10
39.743893
 20
61.242928
 30
0.0
 10
39.420560
 20
61.621490
 30
0.0
 10
39.088505
 20
61.992296
 30
0.0
 10
38.747953
 20
62.355261
 30
0.0
 10
38.399129
 20
62.710304
 30
0.0
 10
38.042259
 20
63.057343
 30
0.0
 10
37.677568
 20
63.396296
 30
0.0
 10
37.305282
 20
63.727080
 30
0.0
 10
36.925625
 20
64.049614
 30
0.0
 10
36.538825
 20
64.363814
 30
0.0
 10
36.145105
 20
64.669600
 30
0.0
 10
35.744692
 20
64.966889
 30
0.0
 10
35.337811
 20
65.255598
 30
0.0
 10
34.924686
 20
65.535646
 30
0.0
 10
34.505545
 20
65.806951
 30
0.0
 10
34.080611
 20
66.069429
 30
0.0
 10
33.650112
 20
66.323000
 30
0.0
 10
33.214271
 20
66.567581
 30
0.0
 10
32.773314
 20
66.803090
 30
0.0
 10
32.327467
 20
67.029444
 30
0.0
 10
31.876956
 20
67.246562
 30
0.0
 10
31.422005
 20
67.454361
 30
0.0
 10
30.962840
 20
67.652760
 30
0.0
 10
30.499687
 20
67.841675
 30
0.0
 10
30.032770
 20
68.021025
 30
0.0
 10
29.562316
 20
68.190729
 30
0.0
 10
29.088550
 20
68.350702
 30
0.0
 10
28.611697
 20
68.500865
 30
0.0
 10
28.131983
 20
68.641133
 30
0.0
 10
27.649632
 20
68.771426
 30
0.0
 10
27.164872
 20
68.891660
 30
0.0
 10
26.677926
 20
69.001755
 30
0.0
 10
26.189020
 20
69.101627
 30
0.0
 10
25.698381
 20
69.191195
 30
0.0
 10
25.206232
 20
69.270376
 30
0.0
 10
24.712800
 20
69.339088
 30
0.0
 10
24.218311
 20
69.397250
 30
0.0
 10
23.722989
 20
69.444778
 30
0.0
 10
23.227059
 20
69.481591
 30
0.0
 10
22.730748
 20
69.507607
 30
0.0
 10
22.234281
 20
69.522743
 30
0.0
 10
21.737883
 20
69.526918
 30
0.0
 10
21.241780
 20
69.520049
 30
0.0
 10
20.746197
 20
69.502053
 30
0.0
 10
20.251359
 20
69.472850
 30
0.0
 10
19.757492
 20
69.432356
 30
0.0
 10
19.264822
 20
69.380490
 30
0.0
 10
18.773573
 20
69.317169
 30
0.0
 10
18.283971
 20
69.242312
 30
0.0
 10
17.796242
 20
69.155835
 30
0.0
 10
17.310612
 20
69.057658
 30
0.0
 10
16.827304
 20
68.947697
 30
0.0
 10
16.346546
 20
68.825871
 30
0.0
 10
15.868562
 20
68.692098
 30
0.0
 10
15.393577
 20
68.546295
 30
0.0
 10
14.921818
 20
68.388380
 30
0.0
 10
14.453510
 20
68.218271
 30
0.0
 10
13.988877
 20
68.035886
 30
0.0
 10
13.528147
 20
67.841142
 30
0.0
 10
13.071542
 20
67.633958
 30
0.0
 10
12.619291
 20
67.414252
 30
0.0
 10
12.171617
 20
67.181941
 30
0.0
 10
11.728746
 20
66.936943
 30
0.0
 10
11.290904
 20
66.679176
 30
0.0
 10
10.967162
 20
66.500718
 30
0.0
 10
10.646523
 20
66.316523
 30
0.0
 10
10.329064
 20
66.126677
 30
0.0
 10
10.014862
 20
65.931264
 30
0.0
 10
9.703995
 20
65.730367
 30
0.0
 10
9.396539
 20
65.524073
 30
0.0
 10
9.092573
 20
65.312466
 30
0.0
 10
8.792173
 20
65.095629
 30
0.0
 10
8.495417
 20
64.873649
 30
0.0
 10
8.202381
 20
64.646609
 30
0.0
 10
7.913144
 20
64.414594
 30
0.0
 10
7.627782
 20
64.177689
 30
0.0
 10
7.346372
 20
63.935978
 30
0.0
 10
7.068992
 20
63.689546
 30
0.0
 10
6.795719
 20
63.438477
 30
0.0
 10
6.526631
 20
63.182857
 30
0.0
 10
6.261803
 20
62.922770
 30
0.0
 10
6.001315
 20
62.658299
 30
0.0
 10
5.745243
 20
62.389531
 30
0.0
 10
5.493664
 20
62.116549
 30
0.0
 10
5.246655
 20
61.839439
 30
0.0
 10
5.004294
 20
61.558284
 30
0.0
 10
4.766658
 20
61.273170
 30
0.0
 10
4.533824
 20
60.984181
 30
0.0
 10
4.305870
 20
60.691402
 30
0.0
 10
4.082872
 20
60.394917
 30
0.0
 10
3.864908
 20
60.094810
 30
0.0
 10
3.652055
 20
59.791168
 30
0.0
 10
3.444391
 20
59.484073
 30
0.0
 10
3.241993
 20
59.173611
 30
0.0
 10
3.044937
 20
58.859866
 30
0.0
 10
2.853301
 20
58.542924
 30
0.0
 10
2.667163
 20
58.222868
 30
0.0
 10
2.486600
 20
57.899783
 30
0.0
 10
2.311688
 20
57.573754
 30
0.0
 10
2.142505
 20
57.244865
 30
0.0
 10
1.979129
 20
56.913201
 30
0.0
 10
1.821636
 20
56.578847
 30
0.0
 10
1.670105
 20
56.241888
 30
0.0
 10
1.524611
 20
55.902407
 30
0.0
 10
1.385232
 20
55.560489
 30
0.0
 10
1.252046
 20
55.216220
 30
0.0
 10
1.125130
 20
54.869684
 30
0.0
 10
1.004561
 20
54.520964
 30
0.0
 10
0.890416
 20
54.170147
 30
0.0
 10
0.782773
 20
53.817316
 30
0.0
 10
0.681709
 20
53.462556
 30
0.0
 10
0.587300
 20
53.105953
 30
0.0
 10
0.499625
 20
52.747589
 30
0.0
 10
0.418760
 20
52.387551
 30
0.0
 10
0.344783
 20
52.025922
 30
0.0
 10
0.277771
 20
51.662787
 30
0.0
 10
0.217801
 20
51.298231
 30
0.0
 10
0.164951
 20
50.932339
 30
0.0
 10
0.119297
 20
50.565195
 30
0.0
 10
0.080917
 20
50.196883
 30
0.0
 10
0.049888
 20
49.827489
 30
0.0
 10
0.026288
 20
49.457096
 30
0.0
 10
0.010194
 20
49.085791
 30
0.0
 10
0.001682
 20
48.713656
 30
0.0
 10
0.000831
 20
48.340777
 30
0.0
 10
0.007717
 20
47.967238
 30
0.0
 10
0.022417
 20
47.593125
 30
0.0
 10
0.045010
 20
47.218521
 30
0.0
 10
0.044307
 20
46.772562
 30
0.0
 10
0.050522
 20
46.327265
 30
0.0
 10
0.063597
 20
45.882682
 30
0.0
 10
0.083474
 20
45.438867
 30
0.0
 10
0.110097
 20
44.995874
 30
0.0
 10
0.143408
 20
44.553754
 30
0.0
 10
0.183350
 20
44.112562
 30
0.0
 10
0.229864
 20
43.672351
 30
0.0
 10
0.282894
 20
43.233173
 30
0.0
 10
0.342383
 20
42.795083
 30
0.0
 10
0.408272
 20
42.358133
 30
0.0
 10
0.480505
 20
41.922377
 30
0.0
 10
0.559024
 20
41.487867
 30
0.0
 10
0.643772
 20
41.054657
 30
0.0
 10
0.734690
 20
40.622801
 30
0.0
 10
0.831723
 20
40.192350
 30
0.0
 10
0.934812
 20
39.763360
 30
0.0
 10
1.043900
 20
39.335882
 30
0.0
 10
1.158929
 20
38.909970
 30
0.0
 10
1.279843
 20
38.485677
 30
0.0
 10
1.406583
 20
38.063057
 30
0.0
 10
1.539093
 20
37.642162
 30
0.0
 10
1.677315
 20
37.223046
 30
0.0
 10
1.821191
 20
36.805762
 30
0.0
 10
1.970664
 20
36.390364
 30
0.0
 10
2.125677
 20
35.976904
 30
0.0
 10
2.286172
 20
35.565435
 30
0.0
 10
2.452092
 20
35.156012
 30
0.0
 10
2.623380
 20
34.748686
 30
0.0
 10
2.799977
 20
34.343512
 30
0.0
 10
2.981828
 20
33.940542
 30
0.0
 10
3.168873
 20
33.539830
 30
0.0
 10
3.361056
 20
33.141429
 30
0.0
 10
3.558320
 20
32.745392
 30
0.0
 10
3.760606
 20
32.351772
 30
0.0
 10
3.967858
 20
31.960623
 30
0.0
 10
4.180018
 20
31.571998
 30
0.0
 10
4.397029
 20
31.185950
 30
0.0
 10
4.618833
 20
30.802532
 30
0.0
 10
4.845374
 20
30.421797
 30
0.0
 10
5.076592
 20
30.043799
 30
0.0
 10
5.312432
 20
29.668590
 30
0.0
 10
5.552835
 20
29.296225
 30
0.0
 10
5.797745
 20
28.926756
 30
0.0
 10
6.047103
 20
28.560236
 30
0.0
 10
6.300853
 20
28.196719
 30
0.0
 10
6.558937
 20
27.836258
 30
0.0
 10
6.821297
 20
27.478906
 30
0.0
 10
7.087877
 20
27.124716
 30
0.0
 10
7.358618
 20
26.773741
 30
0.0
 10
7.633464
 20
26.426036
 30
0.0
 10
7.912357
 20
26.081652
 30
0.0
 10
8.195239
 20
25.740643
 30
0.0
 10
8.482054
 20
25.403063
 30
0.0
 10
8.772743
 20
25.068964
 30
0.0
 10
9.067249
 20
24.738400
 30
0.0
 10
9.365516
 20
24.411424
 30
0.0
 10
9.667484
 20
24.088089
 30
0.0
 10
9.973098
 20
23.768448
 30
0.0
 10
10.282300
 20
23.452555
 30
0.0
 10
10.595031
 20
23.140463
 30
0.0
 10
10.911236
 20
22.832224
 30
0.0
 10
11.230856
 20
22.527893
 30
0.0
 10
11.553834
 20
22.227522
 30
0.0
 10
12.337678
 20
21.444666
 30
0.0
 10
13.130538
 20
20.672167
 30
0.0
 10
13.932021
 20
19.909593
 30
0.0
 10
14.741734
 20
19.156509
 30
0.0
 10
15.559283
 20
18.412482
 30
0.0
 10
16.384275
 20
17.677078
 30
0.0
 10
17.216317
 20
16.949864
 30
0.0
 10
18.055016
 20
16.230405
 30
0.0
 10
18.899977
 20
15.518268
 30
0.0
 10
19.750809
 20
14.813020
 30
0.0
 10
20.607117
 20
14.114225
 30
0.0
 10
21.468508
 20
13.421452
 30
0.0
 10
22.334589
 20
12.734265
 30
0.0
 10
23.204967
 20
12.052232
 30
0.0
 10
24.079248
 20
11.374918
 30
0.0
 10
24.957040
 20
10.701890
 30
0.0
 10
25.837948
 20
10.032714
 30
0.0
 10
26.721579
 20
9.366956
 30
0.0
 10
28.495440
 20
8.043960
 30
0.0
 10
30.275475
 20
6.729433
 30
0.0
 10
32.058538
 20
5.419904
 30
0.0
 10
33.841483
 20
4.111904
 30
0.0
 10
35.621163
 20
2.801962
 30
0.0
 10
37.394432
 20
1.486610
 30
0.0
 10
39.158144
 20
0.162376
 30
0.0
 10
39.266489
 20
0.125961
 30
0.0
 10
39.373548
 20
0.094416
 30
0.0
 10
39.479347
 20
0.067626
 30
0.0
 10
39.583916
 20
0.045476
 30
0.0
 10
39.789476
 20
0.014639
 30
0.0
 10
39.990452
 20
0.000987
 30
0.0
 10
40.187072
 20
0.003602
 30
0.0
 10
40.379560
 20
0.021565
 30
0.0
 10
40.568144
 20
0.053960
 30
0.0
 10
40.753049
 20
0.099867
 30
0.0
 10
40.934501
 20
0.158369
 30
0.0
 10
41.112726
 20
0.228548
 30
0.0
 10
41.287950
 20
0.309486
 30
0.0
 10
41.460399
 20
0.400266
 30
0.0
 10
41.630299
 20
0.499968
 30
0.0
 10
41.797876
 20
0.607676
 30
0.0
 10
41.963357
 20
0.722471
 30
0.0
 10
42.126966
 20
0.843435
 30
0.0
 10
42.288931
 20
0.969651
 30
0.0
 10
42.449477
 20
1.100200
 30
0.0
 10
42.767216
 20
1.370626
 30
0.0
 10
43.395613
 20
1.923090
 30
0.0
 10
43.709887
 20
2.190440
 30
0.0
 10
43.867833
 20
2.318682
 30
0.0
 10
44.026621
 20
2.442078
 30
0.0
 10
44.186476
 20
2.559710
 30
0.0
 10
44.347625
 20
2.670660
 30
0.0
 10
44.510292
 20
2.774010
 30
0.0
 10
44.674705
 20
2.868842
 30
0.0
 10
45.717247
 20
3.662741
 30
0.0
 10
46.765179
 20
4.454329
 30
0.0
 10
48.873122
 20
6.033909
 30
0.0
 10
50.990345
 20
7.614269
 30
0.0
 10
53.108661
 20
9.202091
 30
0.0
 10
54.165670
 20
10.000890
 30
0.0
 10
55.219881
 20
10.804061
 30
0.0
 10
56.270271
 20
11.612441
 30
0.0
 10
57.315817
 20
12.426864
 30
0.0
 10
58.355495
 20
13.248167
 30
0.0
 10
59.388281
 20
14.077185
 30
0.0
 10
60.413152
 20
14.914753
 30
0.0
 10
61.429084
 20
15.761707
 30
0.0
 10
62.435055
 20
16.618882
 30
0.0
 10
63.430039
 20
17.487115
 30
0.0
 10
63.923092
 20
17.925639
 30
0.0
 10
64.413015
 20
18.367241
 30
0.0
 10
64.899679
 20
18.812025
 30
0.0
 10
65.382958
 20
19.260095
 30
0.0
 10
65.862722
 20
19.711556
 30
0.0
 10
66.338844
 20
20.166513
 30
0.0
 10
66.811197
 20
20.625070
 30
0.0
 10
67.279651
 20
21.087331
 30
0.0
 10
67.744080
 20
21.553400
 30
0.0
 10
68.204355
 20
22.023383
 30
0.0
 10
68.660348
 20
22.497384
 30
0.0
 10
69.111932
 20
22.975507
 30
0.0
 10
69.558978
 20
23.457856
 30
0.0
 10
70.001358
 20
23.944537
 30
0.0
 10
70.438945
 20
24.435653
 30
0.0
 10
70.871611
 20
24.931308
 30
0.0
 10
71.299227
 20
25.431609
 30
0.0
 10
71.721666
 20
25.936658
 30
0.0
 10
72.138800
 20
26.446560
 30
0.0
 10
72.550501
 20
26.961420
 30
0.0
 10
72.956640
 20
27.481342
 30
0.0
 10
73.357091
 20
28.006431
 30
0.0
 10
73.751724
 20
28.536790
 30
0.0
 10
74.140413
 20
29.072526
 30
0.0
 10
74.523029
 20
29.613741
 30
0.0
 10
74.899444
 20
30.160541
 30
0.0
 10
75.269530
 20
30.713029
 30
0.0
 10
75.633159
 20
31.271311
 30
0.0
 10
75.852372
 20
31.652264
 30
0.0
 10
76.066934
 20
32.036752
 30
0.0
 10
76.276779
 20
32.424672
 30
0.0
 10
76.481844
 20
32.815920
 30
0.0
 10
76.682061
 20
33.210395
 30
0.0
 10
76.877366
 20
33.607993
 30
0.0
 10
77.067694
 20
34.008613
 30
0.0
 10
77.252980
 20
34.412151
 30
0.0
 10
77.433157
 20
34.818504
 30
0.0
 10
77.608160
 20
35.227571
 30
0.0
 10
77.777925
 20
35.639249
 30
0.0
 10
77.942386
 20
36.053434
 30
0.0
 10
78.101477
 20
36.470025
 30
0.0
 10
78.255134
 20
36.888919
 30
0.0
 10
78.403290
 20
37.310012
 30
0.0
 10
78.545881
 20
37.733203
 30
0.0
 10
78.682841
 20
38.158389
 30
0.0
 10
78.814105
 20
38.585467
 30
0.0
 10
78.939607
 20
39.014334
 30
0.0
 10
79.059283
 20
39.444889
 30
0.0
 10
79.173067
 20
39.877027
 30
0.0
 10
79.280893
 20
40.310647
 30
0.0
 10
79.382696
 20
40.745646
 30
0.0
 10
79.478411
 20
41.181922
 30
0.0
 10
79.567972
 20
41.619371
 30
0.0
 10
79.651315
 20
42.057891
 30
0.0
 10
79.728373
 20
42.497380
 30
0.0
 10
79.799082
 20
42.937735
 30
0.0
 10
79.863376
 20
43.378853
 30
0.0
 10
79.921190
 20
43.820631
 30
0.0
 10
79.972458
 20
44.262967
 30
0.0
 10
80.017115
 20
44.705759
 30
0.0
 10
80.055096
 20
45.148903
 30
0.0
 10
80.086336
 20
45.592298
 30
0.0
 10
80.110769
 20
46.035839
 30
0.0
 10
80.128329
 20
46.479426
 30
0.0
 10
80.138952
 20
46.922955
 30
0.0
 10
80.142572
 20
47.366323
 30
0.0
 10
80.139124
 20
47.809428
 30
0.0
 10
80.128542
 20
48.252167
 30
0.0
 10
80.110761
 20
48.694438
 30
0.0
 10
80.085716
 20
49.136138
 30
0.0
 10
80.053341
 20
49.577165
 30
0.0
 10
80.013571
 20
50.017415
 30
0.0
 10
79.966342
 20
50.456786
 30
0.0
 10
79.911586
 20
50.895175
 30
0.0
 10
79.849240
 20
51.332481
 30
0.0
 10
79.779237
 20
51.768599
 30
0.0
 10
79.701512
 20
52.203429
 30
0.0
 10
79.616001
 20
52.636866
 30
0.0
 10
79.522637
 20
53.068808
 30
0.0
 10
79.421356
 20
53.499153
 30
0.0
 10
79.312092
 20
53.927799
 30
0.0
 10
79.194779
 20
54.354641
 30
0.0
 10
79.069353
 20
54.779579
 30
0.0
 10
78.935748
 20
55.202508
 30
0.0
 10
78.793898
 20
55.623327
 30
0.0
 10
78.643739
 20
56.041933
 30
0.0
 10
78.485204
 20
56.458223
 30
0.0
 10
78.318230
 20
56.872095
 30
0.0
 10
78.142749
 20
57.283446
 30
0.0
 10
77.958698
 20
57.692173
 30
0.0
 10
77.766010
 20
58.098174
 30
0.0
 10
77.564621
 20
58.501346
 30
0.0
 10
77.388149
 20
58.810744
 30
0.0
 10
77.206308
 20
59.116685
 30
0.0
 10
77.019180
 20
59.419126
 30
0.0
 10
76.826846
 20
59.718025
 30
0.0
 10
76.629389
 20
60.013340
 30
0.0
 10
76.426890
 20
60.305028
 30
0.0
 10
76.219430
 20
60.593048
 30
0.0
 10
76.007093
 20
60.877356
 30
0.0
 10
75.789960
 20
61.157910
 30
0.0
 10
75.568112
 20
61.434669
 30
0.0
 10
75.341631
 20
61.707589
 30
0.0
 10
75.110599
 20
61.976629
 30
0.0
 10
74.875098
 20
62.241746
 30
0.0
 10
74.635210
 20
62.502898
 30
0.0
 10
74.391017
 20
62.760042
 30
0.0
 10
74.142600
 20
63.013137
 30
0.0
 10
73.890041
 20
63.262140
 30
0.0
 10
73.633422
 20
63.507008
 30
0.0
 10
73.372825
 20
63.747699
 30
0.0
 10
73.108332
 20
63.984172
 30
0.0
 10
72.840024
 20
64.216383
 30
0.0
 10
72.567984
 20
64.444290
 30
0.0
 10
72.292292
 20
64.667851
 30
0.0
 10
72.013032
 20
64.887024
 30
0.0
 10
71.730284
 20
65.101767
 30
0.0
 10
71.444131
 20
65.312036
 30
0.0
 10
71.154654
 20
65.517791
 30
0.0
 10
70.861936
 20
65.718987
 30
0.0
 10
70.566058
 20
65.915584
 30
0.0
 10
70.267101
 20
66.107539
 30
0.0
 10
69.965148
 20
66.294809
 30
0.0
 10
69.660281
 20
66.477352
 30
0.0
 10
69.352581
 20
66.655126
 30
0.0
 10
69.042130
 20
66.828089
 30
0.0
 10
68.729010
 20
66.996198
 30
0.0
 10
68.413302
 20
67.159410
 30
0.0
 10
68.095090
 20
67.317685
 30
0.0
 10
67.774454
 20
67.470978
 30
0.0
 10
67.451476
 20
67.619249
 30
0.0
 10
67.126238
 20
67.762454
 30
0.0
 10
66.798822
 20
67.900551
 30
0.0
 10
66.469309
 20
68.033499
 30
0.0
 10
66.137782
 20
68.161254
 30
0.0
 10
65.804323
 20
68.283775
 30
0.0
 10
65.469012
 20
68.401019
 30
0.0
 10
65.131933
 20
68.512943
 30
0.0
 10
64.793166
 20
68.619506
 30
0.0
 10
64.452794
 20
68.720665
 30
0.0
 10
64.110899
 20
68.816377
 30
0.0
 10
63.767561
 20
68.906602
 30
0.0
 10
63.422864
 20
68.991295
 30
0.0
 10
63.076888
 20
69.070415
 30
0.0
 10
62.729717
 20
69.143920
 30
0.0
 10
62.381430
 20
69.211767
 30
0.0
 10
62.032111
 20
69.273914
 30
0.0
 10
61.681842
 20
69.330318
 30
0.0
 10
61.330703
 20
69.380938
 30
0.0
 10
60.978777
 20
69.425731
 30
0.0
 10
60.626145
 20
69.464654
 30
0.0
 10
60.272890
 20
69.497666
 30
0.0
 10
59.919094
 20
69.524723
 30
0.0
 10
59.564837
 20
69.545785
 30
0.0
 10
59.210202
 20
69.560807
 30
0.0
 10
58.855271
 20
69.569749
 30
0.0
 10
58.855271
 20
69.569749
 30
0.0
  0
LWPOLYLINE
  5
102
100
AcDbEntity
  8
CutterOutline
 62
7
100
AcDbPolyline
 90
478
 70
0
 10
58.911493
 20
68.034063
 30
0.0
 10
59.296303
 20
68.022684
 30
0.0
 10
59.680884
 20
68.003493
 30
0.0
 10
60.065106
 20
67.976558
 30
0.0
 10
60.448840
 20
67.941947
 30
0.0
 10
60.831957
 20
67.899727
 30
0.0
 10
61.214329
 20
67.849966
 30
0.0
 10
61.595825
 20
67.792731
 30
0.0
 10
61.976317
 20
67.728091
 30
0.0
 10
62.355676
 20
67.656112
 30
0.0
 10
62.733772
 20
67.576862
 30
0.0
 10
63.110476
 20
67.490410
 30
0.0
 10
63.485660
 20
67.396821
 30
0.0
 10
63.859195
 20
67.296165
 30
0.0
 10
64.230950
 20
67.188508
 30
0.0
 10
64.600797
 20
67.073918
 30
0.0
 10
64.968608
 20
66.952464
 30
0.0
 10
65.334252
 20
66.824211
 30
0.0
 10
65.697601
 20
66.689229
 30
0.0
 10
66.058526
 20
66.547584
 30
0.0
 10
66.416897
 20
66.399344
 30
0.0
 10
66.772585
 20
66.244577
 30
0.0
 10
67.125462
 20
66.083350
 30
0.0
 10
67.475398
 20
65.915731
 30
0.0
 10
67.822264
 20
65.741787
 30
0.0
 10
68.165931
 20
65.561587
 30
0.0
 10
68.506270
 20
65.375197
 30
0.0
 10
68.843152
 20
65.182685
 30
0.0
 10
69.176447
 20
64.984120
 30
0.0
 10
69.506027
 20
64.779567
 30
0.0
 10
69.831763
 20
64.569096
 30
0.0
 10
70.153524
 20
64.352773
 30
0.0
 10
70.471183
 20
64.130667
 30
0.0
 10
70.784611
 20
63.902844
 30
0.0
 10
71.093677
 20
63.669372
 30
0.0
 10
71.398253
 20
63.430320
 30
0.0
 10
71.698210
 20
63.185754
 30
0.0
 10
71.993419
 20
62.935742
 30
0.0
 10
72.283750
 20
62.680352
 30
0.0
 10
72.569075
 20
62.419651
 30
0.0
 10
72.849265
 20
62.153707
 30
0.0
 10
73.124189
 20
61.882588
 30
0.0
 10
73.393720
 20
61.606360
 30
0.0
 10
73.657728
 20
61.325092
 30
0.0
 10
73.916084
 20
61.038852
 30
0.0
 10
74.168659
 20
60.747706
 30
0.0
 10
74.415324
 20
60.451723
 30
0.0
 10
74.655949
 20
60.150969
 30
0.0
 10
74.890406
 20
59.845514
 30
0.0
 10
75.118566
 20
59.535423
 30
0.0
 10
75.340298
 20
59.220765
 30
0.0
 10
75.555475
 20
58.901608
 30
0.0
 10
75.763968
 20
58.578018
 30
0.0
 10
75.965646
 20
58.250064
 30
0.0
 10
76.160381
 20
57.917814
 30
0.0
 10
76.348044
 20
57.581334
 30
0.0
 10
76.528506
 20
57.240692
 30
0.0
 10
76.701638
 20
56.895956
 30
0.0
 10
76.867309
 20
56.547193
 30
0.0
 10
77.025393
 20
56.194472
 30
0.0
 10
77.175759
 20
55.837859
 30
0.0
 10
77.318278
 20
55.477423
 30
0.0
 10
77.452821
 20
55.113230
 30
0.0
 10
77.579259
 20
54.745349
 30
0.0
 10
77.697463
 20
54.373846
 30
0.0
 10
77.807259
 20
53.965494
 30
0.0
 10
77.909986
 20
53.555923
 30
0.0
 10
78.005686
 20
53.145210
 30
0.0
 10
78.094405
 20
52.733430
 30
0.0
 10
78.176188
 20
52.320659
 30
0.0
 10
78.251080
 20
51.906975
 30
0.0
 10
78.319125
 20
51.492453
 30
0.0
 10
78.380367
 20
51.077169
 30
0.0
 10
78.434853
 20
50.661199
 30
0.0
 10
78.482625
 20
50.244620
 30
0.0
 10
78.523730
 20
49.827508
 30
0.0
 10
78.558212
 20
49.409940
 30
0.0
 10
78.586115
 20
48.991990
 30
0.0
 10
78.607485
 20
48.573736
 30
0.0
 10
78.622365
 20
48.155254
 30
0.0
 10
78.630802
 20
47.736620
 30
0.0
 10
78.632839
 20
47.317909
 30
0.0
 10
78.628521
 20
46.899199
 30
0.0
 10
78.617893
 20
46.480566
 30
0.0
 10
78.601000
 20
46.062085
 30
0.0
 10
78.577886
 20
45.643833
 30
0.0
 10
78.548597
 20
45.225886
 30
0.0
 10
78.513176
 20
44.808321
 30
0.0
 10
78.471669
 20
44.391213
 30
0.0
 10
78.424121
 20
43.974638
 30
0.0
 10
78.370575
 20
43.558674
 30
0.0
 10
78.311078
 20
43.143395
 30
0.0
 10
78.245673
 20
42.728879
 30
0.0
 10
78.174405
 20
42.315201
 30
0.0
 10
78.097320
 20
41.902438
 30
0.0
 10
78.014461
 20
41.490666
 30
0.0
 10
77.925874
 20
41.079960
 30
0.0
 10
77.831603
 20
40.670398
 30
0.0
 10
77.731693
 20
40.262056
 30
0.0
 10
77.626188
 20
39.855009
 30
0.0
 10
77.515135
 20
39.449334
 30
0.0
 10
77.398576
 20
39.045107
 30
0.0
 10
77.276557
 20
38.642404
 30
0.0
 10
77.149123
 20
38.241302
 30
0.0
 10
77.016319
 20
37.841876
 30
0.0
 10
76.878188
 20
37.444203
 30
0.0
 10
76.734777
 20
37.048359
 30
0.0
 10
76.586129
 20
36.654420
 30
0.0
 10
76.432289
 20
36.262463
 30
0.0
 10
76.273303
 20
35.872564
 30
0.0
 10
76.109214
 20
35.484798
 30
0.0
 10
75.940067
 20
35.099242
 30
0.0
 10
75.765909
 20
34.715972
 30
0.0
 10
75.586782
 20
34.335065
 30
0.0
 10
75.402731
 20
33.956596
 30
0.0
 10
75.213803
 20
33.580642
 30
0.0
 10
75.020040
 20
33.207280
 30
0.0
 10
74.821488
 20
32.836584
 30
0.0
 10
74.618193
 20
32.468632
 30
0.0
 10
74.410197
 20
32.103499
 30
0.0
 10
74.197547
 20
31.741262
 30
0.0
 10
73.980286
 20
31.381997
 30
0.0
 10
73.758460
 20
31.025780
 30
0.0
 10
73.532114
 20
30.672688
 30
0.0
 10
73.301291
 20
30.322796
 30
0.0
 10
73.066038
 20
29.976181
 30
0.0
 10
72.826398
 20
29.632919
 30
0.0
 10
72.582416
 20
29.293086
 30
0.0
 10
72.334137
 20
28.956759
 30
0.0
 10
71.921929
 20
28.434160
 30
0.0
 10
71.504760
 20
27.916566
 30
0.0
 10
71.082735
 20
27.403875
 30
0.0
 10
70.655960
 20
26.895985
 30
0.0
 10
70.224540
 20
26.392797
 30
0.0
 10
69.788580
 20
25.894208
 30
0.0
 10
69.348186
 20
25.400119
 30
0.0
 10
68.903462
 20
24.910427
 30
0.0
 10
68.454514
 20
24.425031
 30
0.0
 10
68.001447
 20
23.943832
 30
0.0
 10
67.544366
 20
23.466726
 30
0.0
 10
67.083376
 20
22.993615
 30
0.0
 10
66.618583
 20
22.524395
 30
0.0
 10
66.150092
 20
22.058968
 30
0.0
 10
65.678008
 20
21.597230
 30
0.0
 10
65.202436
 20
21.139082
 30
0.0
 10
64.723481
 20
20.684422
 30
0.0
 10
64.241250
 20
20.233149
 30
0.0
 10
63.755846
 20
19.785162
 30
0.0
 10
63.267375
 20
19.340361
 30
0.0
 10
62.281654
 20
18.459908
 30
0.0
 10
61.284927
 20
17.590983
 30
0.0
 10
60.278037
 20
16.732778
 30
0.0
 10
59.261825
 20
15.884483
 30
0.0
 10
58.237134
 20
15.045290
 30
0.0
 10
57.204804
 20
14.214391
 30
0.0
 10
56.165677
 20
13.390978
 30
0.0
 10
55.120596
 20
12.574241
 30
0.0
 10
54.070401
 20
11.763373
 30
0.0
 10
53.015935
 20
10.957565
 30
0.0
 10
51.958039
 20
10.156009
 30
0.0
 10
50.897554
 20
9.357896
 30
0.0
 10
48.772188
 20
7.768765
 30
0.0
 10
46.646570
 20
6.183705
 30
0.0
 10
44.527434
 20
4.596249
 30
0.0
 10
43.472400
 20
3.799602
 30
0.0
 10
42.421512
 20
2.999930
 30
0.0
 10
41.375611
 20
2.196425
 30
0.0
 10
40.335539
 20
1.388279
 30
0.0
 10
40.226527
 20
1.396279
 30
0.0
 10
40.117448
 20
1.412955
 30
0.0
 10
40.008306
 20
1.437844
 30
0.0
 10
39.899104
 20
1.470486
 30
0.0
 10
39.789845
 20
1.510418
 30
0.0
 10
39.680532
 20
1.557181
 30
0.0
 10
39.571168
 20
1.610312
 30
0.0
 10
39.461756
 20
1.669350
 30
0.0
 10
39.352300
 20
1.733833
 30
0.0
 10
39.242803
 20
1.803300
 30
0.0
 10
39.023697
 20
1.955342
 30
0.0
 10
38.804464
 20
2.121784
 30
0.0
 10
38.585129
 20
2.298934
 30
0.0
 10
38.146254
 20
2.670598
 30
0.0
 10
37.707275
 20
3.040805
 30
0.0
 10
37.487809
 20
3.216134
 30
0.0
 10
37.268393
 20
3.380026
 30
0.0
 10
37.049052
 20
3.528790
 30
0.0
 10
36.939417
 20
3.596345
 30
0.0
 10
36.829811
 20
3.658734
 30
0.0
 10
35.939371
 20
4.340574
 30
0.0
 10
35.045313
 20
5.019303
 30
0.0
 10
33.248615
 20
6.369738
 30
0.0
 10
31.444262
 20
7.714660
 30
0.0
 10
29.636797
 20
9.058691
 30
0.0
 10
27.830767
 20
10.406453
 30
0.0
 10
26.030716
 20
11.762568
 30
0.0
 10
25.134352
 20
12.445201
 30
0.0
 10
24.241188
 20
13.131656
 30
0.0
 10
23.351790
 20
13.822510
 30
0.0
 10
22.466728
 20
14.518340
 30
0.0
 10
21.586569
 20
15.219724
 30
0.0
 10
20.711882
 20
15.927241
 30
0.0
 10
19.843234
 20
16.641468
 30
0.0
 10
18.981194
 20
17.362981
 30
0.0
 10
18.126329
 20
18.092360
 30
0.0
 10
17.279209
 20
18.830182
 30
0.0
 10
16.440400
 20
19.577025
 30
0.0
 10
15.610471
 20
20.333465
 30
0.0
 10
14.789991
 20
21.100082
 30
0.0
 10
13.979526
 20
21.877452
 30
0.0
 10
13.179646
 20
22.666154
 30
0.0
 10
12.390919
 20
23.466765
 30
0.0
 10
12.000914
 20
23.871716
 30
0.0
 10
11.613911
 20
24.279862
 30
0.0
 10
11.229981
 20
24.691274
 30
0.0
 10
10.849193
 20
25.106024
 30
0.0
 10
10.471620
 20
25.524185
 30
0.0
 10
10.097331
 20
25.945828
 30
0.0
 10
9.726399
 20
26.371027
 30
0.0
 10
9.358894
 20
26.799853
 30
0.0
 10
9.102613
 20
27.087620
 30
0.0
 10
8.850275
 20
27.378618
 30
0.0
 10
8.601896
 20
27.672793
 30
0.0
 10
8.357494
 20
27.970089
 30
0.0
 10
8.117088
 20
28.270453
 30
0.0
 10
7.880695
 20
28.573828
 30
0.0
 10
7.648333
 20
28.880160
 30
0.0
 10
7.420019
 20
29.189395
 30
0.0
 10
7.195772
 20
29.501478
 30
0.0
 10
6.975608
 20
29.816353
 30
0.0
 10
6.759546
 20
30.133966
 30
0.0
 10
6.547603
 20
30.454262
 30
0.0
 10
6.339797
 20
30.777186
 30
0.0
 10
6.136146
 20
31.102684
 30
0.0
 10
5.936667
 20
31.430700
 30
0.0
 10
5.741379
 20
31.761180
 30
0.0
 10
5.550299
 20
32.094069
 30
0.0
 10
5.363444
 20
32.429313
 30
0.0
 10
5.180832
 20
32.766855
 30
0.0
 10
5.002482
 20
33.106642
 30
0.0
 10
4.828410
 20
33.448619
 30
0.0
 10
4.658635
 20
33.792730
 30
0.0
 10
4.493174
 20
34.138922
 30
0.0
 10
4.332045
 20
34.487138
 30
0.0
 10
4.175265
 20
34.837325
 30
0.0
 10
4.022853
 20
35.189428
 30
0.0
 10
3.874826
 20
35.543391
 30
0.0
 10
3.731202
 20
35.899160
 30
0.0
 10
3.591998
 20
36.256680
 30
0.0
 10
3.457232
 20
36.615897
 30
0.0
 10
3.326923
 20
36.976755
 30
0.0
 10
3.201087
 20
37.339199
 30
0.0
 10
3.079742
 20
37.703176
 30
0.0
 10
2.962907
 20
38.068629
 30
0.0
 10
2.850598
 20
38.435504
 30
0.0
 10
2.742834
 20
38.803747
 30
0.0
 10
2.639632
 20
39.173302
 30
0.0
 10
2.541009
 20
39.544115
 30
0.0
 10
2.446985
 20
39.916130
 30
0.0
 10
2.357576
 20
40.289294
 30
0.0
 10
2.272800
 20
40.663551
 30
0.0
 10
2.192675
 20
41.038846
 30
0.0
 10
2.117218
 20
41.415125
 30
0.0
 10
2.046448
 20
41.792332
 30
0.0
 10
1.980381
 20
42.170414
 30
0.0
 10
1.919036
 20
42.549314
 30
0.0
 10
1.862431
 20
42.928979
 30
0.0
 10
1.810583
 20
43.309353
 30
0.0
 10
1.763509
 20
43.690382
 30
0.0
 10
1.721228
 20
44.072010
 30
0.0
 10
1.683758
 20
44.454183
 30
0.0
 10
1.651115
 20
44.836847
 30
0.0
 10
1.623318
 20
45.219946
 30
0.0
 10
1.600384
 20
45.603425
 30
0.0
 10
1.582331
 20
45.987230
 30
0.0
 10
1.569178
 20
46.371306
 30
0.0
 10
1.560941
 20
46.755598
 30
0.0
 10
1.557638
 20
47.140051
 30
0.0
 10
1.559287
 20
47.524610
 30
0.0
 10
1.565905
 20
47.909221
 30
0.0
 10
1.577512
 20
48.293829
 30
0.0
 10
1.594123
 20
48.678379
 30
0.0
 10
1.615757
 20
49.062815
 30
0.0
 10
1.642432
 20
49.447084
 30
0.0
 10
1.653473
 20
49.800934
 30
0.0
 10
1.672409
 20
50.153115
 30
0.0
 10
1.699143
 20
50.503571
 30
0.0
 10
1.733574
 20
50.852245
 30
0.0
 10
1.775604
 20
51.199079
 30
0.0
 10
1.825133
 20
51.544018
 30
0.0
 10
1.882063
 20
51.887003
 30
0.0
 10
1.946293
 20
52.227978
 30
0.0
 10
2.017726
 20
52.566887
 30
0.0
 10
2.096261
 20
52.903671
 30
0.0
 10
2.181799
 20
53.238275
 30
0.0
 10
2.274242
 20
53.570641
 30
0.0
 10
2.373490
 20
53.900712
 30
0.0
 10
2.479444
 20
54.228431
 30
0.0
 10
2.592005
 20
54.553742
 30
0.0
 10
2.711073
 20
54.876588
 30
0.0
 10
2.836550
 20
55.196911
 30
0.0
 10
2.968337
 20
55.514654
 30
0.0
 10
3.106333
 20
55.829762
 30
0.0
 10
3.250441
 20
56.142176
 30
0.0
 10
3.400560
 20
56.451840
 30
0.0
 10
3.556592
 20
56.758697
 30
0.0
 10
3.718438
 20
57.062690
 30
0.0
 10
3.885998
 20
57.363762
 30
0.0
 10
4.059173
 20
57.661855
 30
0.0
 10
4.237864
 20
57.956915
 30
0.0
 10
4.421972
 20
58.248882
 30
0.0
 10
4.611398
 20
58.537700
 30
0.0
 10
4.806042
 20
58.823313
 30
0.0
 10
5.005806
 20
59.105664
 30
0.0
 10
5.210589
 20
59.384694
 30
0.0
 10
5.420294
 20
59.660349
 30
0.0
 10
5.634821
 20
59.932570
 30
0.0
 10
5.854070
 20
60.201300
 30
0.0
 10
6.077943
 20
60.466484
 30
0.0
 10
6.306340
 20
60.728063
 30
0.0
 10
6.539162
 20
60.985981
 30
0.0
 10
6.776310
 20
61.240181
 30
0.0
 10
7.017686
 20
61.490606
 30
0.0
 10
7.263188
 20
61.737199
 30
0.0
 10
7.512720
 20
61.979903
 30
0.0
 10
7.766180
 20
62.218661
 30
0.0
 10
8.023471
 20
62.453417
 30
0.0
 10
8.284493
 20
62.684113
 30
0.0
 10
8.549147
 20
62.910692
 30
0.0
 10
8.817333
 20
63.133098
 30
0.0
 10
9.088953
 20
63.351273
 30
0.0
 10
9.363907
 20
63.565161
 30
0.0
 10
9.642097
 20
63.774704
 30
0.0
 10
9.923422
 20
63.979847
 30
0.0
 10
10.207785
 20
64.180531
 30
0.0
 10
10.495085
 20
64.376699
 30
0.0
 10
10.785223
 20
64.568296
 30
0.0
 10
11.078101
 20
64.755264
 30
0.0
 10
11.373619
 20
64.937545
 30
0.0
 10
11.671678
 20
65.115084
 30
0.0
 10
11.972179
 20
65.287823
 30
0.0
 10
12.275022
 20
65.455705
 30
0.0
 10
12.580109
 20
65.618674
 30
0.0
 10
12.887340
 20
65.776672
 30
0.0
 10
13.196617
 20
65.929642
 30
0.0
 10
13.507840
 20
66.077528
 30
0.0
 10
13.820909
 20
66.220272
 30
0.0
 10
14.135726
 20
66.357818
 30
0.0
 10
14.564869
 20
66.548874
 30
0.0
 10
14.997208
 20
66.727790
 30
0.0
 10
15.432552
 20
66.894664
 30
0.0
 10
15.870710
 20
67.049596
 30
0.0
 10
16.311492
 20
67.192685
 30
0.0
 10
16.754708
 20
67.324030
 30
0.0
 10
17.200165
 20
67.443730
 30
0.0
 10
17.647673
 20
67.551884
 30
0.0
 10
18.097042
 20
67.648591
 30
0.0
 10
18.548081
 20
67.733951
 30
0.0
 10
19.000599
 20
67.808062
 30
0.0
 10
19.454406
 20
67.871023
 30
0.0
 10
19.909309
 20
67.922934
 30
0.0
 10
20.365120
 20
67.963894
 30
0.0
 10
20.821646
 20
67.994001
 30
0.0
 10
21.278698
 20
68.013356
 30
0.0
 10
21.736084
 20
68.022056
 30
0.0
 10
22.193614
 20
68.020201
 30
0.0
 10
22.651097
 20
68.007891
 30
0.0
 10
23.108341
 20
67.985224
 30
0.0
 10
23.565158
 20
67.952299
 30
0.0
 10
24.021354
 20
67.909215
 30
0.0
 10
24.476741
 20
67.856072
 30
0.0
 10
24.931127
 20
67.792969
 30
0.0
 10
25.384321
 20
67.720005
 30
0.0
 10
25.836132
 20
67.637278
 30
0.0
 10
26.286371
 20
67.544888
 30
0.0
 10
26.734845
 20
67.442934
 30
0.0
 10
27.181364
 20
67.331516
 30
0.0
 10
27.625738
 20
67.210732
 30
0.0
 10
28.067776
 20
67.080680
 30
0.0
 10
28.507286
 20
66.941462
 30
0.0
 10
28.944079
 20
66.793175
 30
0.0
 10
29.377963
 20
66.635918
 30
0.0
 10
29.808747
 20
66.469791
 30
0.0
 10
30.236242
 20
66.294893
 30
0.0
 10
30.660255
 20
66.111323
 30
0.0
 10
31.080597
 20
65.919180
 30
0.0
 10
31.497076
 20
65.718563
 30
0.0
 10
31.909503
 20
65.509571
 30
0.0
 10
32.317685
 20
65.292303
 30
0.0
 10
32.721432
 20
65.066859
 30
0.0
 10
33.120554
 20
64.833337
 30
0.0
 10
33.514859
 20
64.591837
 30
0.0
 10
33.904158
 20
64.342457
 30
0.0
 10
34.288258
 20
64.085297
 30
0.0
 10
34.666970
 20
63.820456
 30
0.0
 10
35.040103
 20
63.548033
 30
0.0
 10
35.407465
 20
63.268127
 30
0.0
 10
35.768867
 20
62.980838
 30
0.0
 10
36.124116
 20
62.686263
 30
0.0
 10
36.473024
 20
62.384503
 30
0.0
 10
36.815398
 20
62.075656
 30
0.0
 10
37.151048
 20
61.759821
 30
0.0
 10
37.479783
 20
61.437099
 30
0.0
 10
37.801413
 20
61.107587
 30
0.0
 10
38.115746
 20
60.771384
 30
0.0
 10
38.422593
 20
60.428591
 30
0.0
 10
38.721761
 20
60.079306
 30
0.0
 10
39.013061
 20
59.723628
 30
0.0
 10
39.296302
 20
59.361656
 30
0.0
 10
39.571292
 20
58.993489
 30
0.0
 10
39.837842
 20
58.619226
 30
0.0
 10
40.095760
 20
58.238968
 30
0.0
 10
40.275606
 20
58.523989
 30
0.0
 10
40.460172
 20
58.805543
 30
0.0
 10
40.649385
 20
59.083594
 30
0.0
 10
40.843174
 20
59.358109
 30
0.0
 10
41.041466
 20
59.629051
 30
0.0
 10
41.244189
 20
59.896385
 30
0.0
 10
41.451271
 20
60.160078
 30
0.0
 10
41.662640
 20
60.420093
 30
0.0
 10
41.878224
 20
60.676396
 30
0.0
 10
42.097950
 20
60.928951
 30
0.0
 10
42.321748
 20
61.177725
 30
0.0
 10
42.549544
 20
61.422681
 30
0.0
 10
42.781267
 20
61.663785
 30
0.0
 10
43.016844
 20
61.901002
 30
0.0
 10
43.256203
 20
62.134296
 30
0.0
 10
43.499273
 20
62.363633
 30
0.0
 10
43.745982
 20
62.588979
 30
0.0
 10
43.996256
 20
62.810297
 30
0.0
 10
44.250024
 20
63.027553
 30
0.0
 10
44.507215
 20
63.240711
 30
0.0
 10
44.767755
 20
63.449738
 30
0.0
 10
45.031574
 20
63.654598
 30
0.0
 10
45.298598
 20
63.855255
 30
0.0
 10
45.568755
 20
64.051676
 30
0.0
 10
45.841974
 20
64.243824
 30
0.0
 10
46.118183
 20
64.431665
 30
0.0
 10
46.397310
 20
64.615164
 30
0.0
 10
46.679281
 20
64.794286
 30
0.0
 10
46.964026
 20
64.968996
 30
0.0
 10
47.251472
 20
65.139260
 30
0.0
 10
47.541547
 20
65.305041
 30
0.0
 10
47.834180
 20
65.466305
 30
0.0
 10
48.129297
 20
65.623017
 30
0.0
 10
48.426827
 20
65.775142
 30
0.0
 10
48.726698
 20
65.922645
 30
0.0
 10
49.028837
 20
66.065491
 30
0.0
 10
49.333173
 20
66.203646
 30
0.0
 10
49.639634
 20
66.337073
 30
0.0
 10
49.948147
 20
66.465738
 30
0.0
 10
50.258641
 20
66.589607
 30
0.0
 10
50.571043
 20
66.708644
 30
0.0
 10
50.885281
 20
66.822813
 30
0.0
 10
51.201283
 20
66.932081
 30
0.0
 10
51.518978
 20
67.036412
 30
0.0
 10
51.838292
 20
67.135771
 30
0.0
 10
52.159154
 20
67.230124
 30
0.0
 10
52.481492
 20
67.319434
 30
0.0
 10
52.805234
 20
67.403668
 30
0.0
 10
53.130307
 20
67.482790
 30
0.0
 10
53.456640
 20
67.556765
 30
0.0
 10
53.784161
 20
67.625558
 30
0.0
 10
54.112797
 20
67.689135
 30
0.0
 10
54.442476
 20
67.747460
 30
0.0
 10
54.773127
 20
67.800498
 30
0.0
 10
55.104676
 20
67.848214
 30
0.0
 10
55.437053
 20
67.890574
 30
0.0
 10
55.770185
 20
67.927541
 30
0.0
 10
56.103999
 20
67.959083
 30
0.0
 10
56.438425
 20
67.985162
 30
0.0
 10
56.773389
 20
68.005745
 30
0.0
 10
57.108820
 20
68.020796
 30
0.0
 10
57.444646
 20
68.030280
 30
0.0
 10
57.780794
 20
68.034163
 30
0.0
 10
58.117192
 20
68.032410
 30
0.0
 10
58.514327
 20
68.037472
 30
0.0
 10
58.911493
 20
68.034075
 30
0.0
 10
58.911493
 20
68.034063
 30
0.0
  0
LWPOLYLINE
  5
103
100
AcDbEntity
  8
Heart
 62
7
100
AcDbPolyline
 90
473
 70
0
 10
58.136257
 20
67.319248
 30
0.0
 10
57.794064
 20
67.323933
 30
0.0
 10
57.452069
 20
67.322226
 30
0.0
 10
57.110355
 20
67.314177
 30
0.0
 10
56.769007
 20
67.299840
 30
0.0
 10
56.428109
 20
67.279267
 30
0.0
 10
56.087743
 20
67.252512
 30
0.0
 10
55.747995
 20
67.219625
 30
0.0
 10
55.408948
 20
67.180661
 30
0.0
 10
55.070685
 20
67.135671
 30
0.0
 10
54.733292
 20
67.084709
 30
0.0
 10
54.396851
 20
67.027826
 30
0.0
 10
54.061446
 20
66.965076
 30
0.0
 10
53.727162
 20
66.896510
 30
0.0
 10
53.394083
 20
66.822182
 30
0.0
 10
53.062292
 20
66.742144
 30
0.0
 10
52.731873
 20
66.656449
 30
0.0
 10
52.402910
 20
66.565149
 30
0.0
 10
52.075487
 20
66.468296
 30
0.0
 10
51.749687
 20
66.365945
 30
0.0
 10
51.425596
 20
66.258146
 30
0.0
 10
51.103296
 20
66.144952
 30
0.0
 10
50.782872
 20
66.026417
 30
0.0
 10
50.464407
 20
65.902593
 30
0.0
 10
50.147985
 20
65.773531
 30
0.0
 10
49.833690
 20
65.639286
 30
0.0
 10
49.521607
 20
65.499909
 30
0.0
 10
49.211819
 20
65.355453
 30
0.0
 10
48.904409
 20
65.205971
 30
0.0
 10
48.599462
 20
65.051514
 30
0.0
 10
48.297062
 20
64.892137
 30
0.0
 10
47.997292
 20
64.727891
 30
0.0
 10
47.700237
 20
64.558829
 30
0.0
 10
47.405980
 20
64.385003
 30
0.0
 10
47.114606
 20
64.206466
 30
0.0
 10
46.826197
 20
64.023271
 30
0.0
 10
46.540839
 20
63.835471
 30
0.0
 10
46.258614
 20
63.643117
 30
0.0
 10
45.979607
 20
63.446262
 30
0.0
 10
45.703902
 20
63.244959
 30
0.0
 10
45.431583
 20
63.039261
 30
0.0
 10
45.162733
 20
62.829220
 30
0.0
 10
44.897436
 20
62.614889
 30
0.0
 10
44.635777
 20
62.396320
 30
0.0
 10
44.377838
 20
62.173566
 30
0.0
 10
44.123705
 20
61.946679
 30
0.0
 10
43.873461
 20
61.715712
 30
0.0
 10
43.627189
 20
61.480718
 30
0.0
 10
43.384974
 20
61.241749
 30
0.0
 10
43.146900
 20
60.998858
 30
0.0
 10
42.913051
 20
60.752097
 30
0.0
 10
42.683509
 20
60.501519
 30
0.0
 10
42.458360
 20
60.247177
 30
0.0
 10
42.237688
 20
59.989122
 30
0.0
 10
42.021575
 20
59.727408
 30
0.0
 10
41.810106
 20
59.462088
 30
0.0
 10
41.603365
 20
59.193213
 30
0.0
 10
41.401436
 20
58.920836
 30
0.0
 10
41.204403
 20
58.645011
 30
0.0
 10
41.012349
 20
58.365789
 30
0.0
 10
40.825358
 20
58.083223
 30
0.0
 10
40.643515
 20
57.797366
 30
0.0
 10
40.466903
 20
57.508270
 30
0.0
 10
40.295606
 20
57.215988
 30
0.0
 10
40.129708
 20
56.920572
 30
0.0
 10
39.955573
 20
57.200123
 30
0.0
 10
39.777048
 20
57.476859
 30
0.0
 10
39.594196
 20
57.750735
 30
0.0
 10
39.407078
 20
58.021707
 30
0.0
 10
39.215754
 20
58.289730
 30
0.0
 10
39.020287
 20
58.554760
 30
0.0
 10
38.820736
 20
58.816753
 30
0.0
 10
38.617164
 20
59.075664
 30
0.0
 10
38.409631
 20
59.331450
 30
0.0
 10
38.198199
 20
59.584064
 30
0.0
 10
37.982929
 20
59.833464
 30
0.0
 10
37.763882
 20
60.079604
 30
0.0
 10
37.541119
 20
60.322441
 30
0.0
 10
37.314702
 20
60.561930
 30
0.0
 10
37.084691
 20
60.798026
 30
0.0
 10
36.851148
 20
61.030685
 30
0.0
 10
36.614134
 20
61.259862
 30
0.0
 10
36.373710
 20
61.485514
 30
0.0
 10
36.129938
 20
61.707596
 30
0.0
 10
35.882878
 20
61.926064
 30
0.0
 10
35.632592
 20
62.140872
 30
0.0
 10
35.379141
 20
62.351977
 30
0.0
 10
35.122586
 20
62.559334
 30
0.0
 10
34.862989
 20
62.762899
 30
0.0
 10
34.600410
 20
62.962627
 30
0.0
 10
34.334910
 20
63.158475
 30
0.0
 10
34.066552
 20
63.350397
 30
0.0
 10
33.795395
 20
63.538349
 30
0.0
 10
33.521502
 20
63.722287
 30
0.0
 10
33.244933
 20
63.902167
 30
0.0
 10
32.965750
 20
64.077944
 30
0.0
 10
32.684013
 20
64.249573
 30
0.0
 10
32.399785
 20
64.417010
 30
0.0
 10
32.113126
 20
64.580211
 30
0.0
 10
31.824097
 20
64.739132
 30
0.0
 10
31.532760
 20
64.893727
 30
0.0
 10
31.239175
 20
65.043954
 30
0.0
 10
30.943404
 20
65.189766
 30
0.0
 10
30.645509
 20
65.331120
 30
0.0
 10
30.345549
 20
65.467972
 30
0.0
 10
30.043588
 20
65.600276
 30
0.0
 10
29.739685
 20
65.727989
 30
0.0
 10
29.433901
 20
65.851066
 30
0.0
 10
29.126299
 20
65.969463
 30
0.0
 10
28.816939
 20
66.083136
 30
0.0
 10
28.505883
 20
66.192039
 30
0.0
 10
28.193191
 20
66.296129
 30
0.0
 10
27.878924
 20
66.395361
 30
0.0
 10
27.563145
 20
66.489691
 30
0.0
 10
27.245914
 20
66.579074
 30
0.0
 10
26.927292
 20
66.663466
 30
0.0
 10
26.607341
 20
66.742823
 30
0.0
 10
26.286122
 20
66.817100
 30
0.0
 10
25.963695
 20
66.886252
 30
0.0
 10
25.640123
 20
66.950236
 30
0.0
 10
25.315466
 20
67.009007
 30
0.0
 10
24.989785
 20
67.062520
 30
0.0
 10
24.663142
 20
67.110731
 30
0.0
 10
24.335598
 20
67.153597
 30
0.0
 10
24.007214
 20
67.191071
 30
0.0
 10
23.678051
 20
67.223110
 30
0.0
 10
23.348170
 20
67.249670
 30
0.0
 10
23.017633
 20
67.270706
 30
0.0
 10
22.686501
 20
67.286174
 30
0.0
 10
22.311712
 20
67.297900
 30
0.0
 10
21.937189
 20
67.301695
 30
0.0
 10
21.563037
 20
67.297632
 30
0.0
 10
21.189362
 20
67.285788
 30
0.0
 10
20.816270
 20
67.266238
 30
0.0
 10
20.443866
 20
67.239058
 30
0.0
 10
20.072254
 20
67.204321
 30
0.0
 10
19.701541
 20
67.162104
 30
0.0
 10
19.331832
 20
67.112483
 30
0.0
 10
18.963233
 20
67.055531
 30
0.0
 10
18.595848
 20
66.991325
 30
0.0
 10
18.229783
 20
66.919939
 30
0.0
 10
17.865143
 20
66.841450
 30
0.0
 10
17.502035
 20
66.755931
 30
0.0
 10
17.140562
 20
66.663459
 30
0.0
 10
16.780831
 20
66.564109
 30
0.0
 10
16.422948
 20
66.457956
 30
0.0
 10
16.067016
 20
66.345074
 30
0.0
 10
15.713143
 20
66.225541
 30
0.0
 10
15.361432
 20
66.099430
 30
0.0
 10
15.011990
 20
65.966817
 30
0.0
 10
14.664922
 20
65.827778
 30
0.0
 10
14.320333
 20
65.682387
 30
0.0
 10
13.978329
 20
65.530719
 30
0.0
 10
13.639016
 20
65.372851
 30
0.0
 10
13.302497
 20
65.208857
 30
0.0
 10
12.968880
 20
65.038813
 30
0.0
 10
12.638268
 20
64.862793
 30
0.0
 10
12.310769
 20
64.680874
 30
0.0
 10
11.986486
 20
64.493130
 30
0.0
 10
11.665526
 20
64.299636
 30
0.0
 10
11.347994
 20
64.100468
 30
0.0
 10
11.033994
 20
63.895702
 30
0.0
 10
10.723634
 20
63.685412
 30
0.0
 10
10.417017
 20
63.469673
 30
0.0
 10
10.114250
 20
63.248561
 30
0.0
 10
9.815437
 20
63.022152
 30
0.0
 10
9.520685
 20
62.790519
 30
0.0
 10
9.230098
 20
62.553740
 30
0.0
 10
8.943782
 20
62.311888
 30
0.0
 10
8.661842
 20
62.065040
 30
0.0
 10
8.384384
 20
61.813270
 30
0.0
 10
8.111513
 20
61.556653
 30
0.0
 10
7.843335
 20
61.295266
 30
0.0
 10
7.579954
 20
61.029183
 30
0.0
 10
7.321476
 20
60.758479
 30
0.0
 10
7.068007
 20
60.483230
 30
0.0
 10
6.819652
 20
60.203511
 30
0.0
 10
6.576517
 20
59.919397
 30
0.0
 10
6.338706
 20
59.630964
 30
0.0
 10
6.106326
 20
59.338286
 30
0.0
 10
5.879481
 20
59.041439
 30
0.0
 10
5.658276
 20
58.740499
 30
0.0
 10
5.442819
 20
58.435540
 30
0.0
 10
5.233212
 20
58.126638
 30
0.0
 10
5.029563
 20
57.813869
 30
0.0
 10
4.831977
 20
57.497306
 30
0.0
 10
4.640558
 20
57.177026
 30
0.0
 10
4.455413
 20
56.853104
 30
0.0
 10
4.276646
 20
56.525614
 30
0.0
 10
4.104363
 20
56.194634
 30
0.0
 10
3.938670
 20
55.860236
 30
0.0
 10
3.779671
 20
55.522498
 30
0.0
 10
3.627473
 20
55.181494
 30
0.0
 10
3.469506
 20
54.790422
 30
0.0
 10
3.322861
 20
54.396385
 30
0.0
 10
3.187253
 20
53.999539
 30
0.0
 10
3.062396
 20
53.600042
 30
0.0
 10
2.948006
 20
53.198049
 30
0.0
 10
2.843799
 20
52.793717
 30
0.0
 10
2.749489
 20
52.387202
 30
0.0
 10
2.664791
 20
51.978662
 30
0.0
 10
2.589421
 20
51.568253
 30
0.0
 10
2.523093
 20
51.156130
 30
0.0
 10
2.465523
 20
50.742452
 30
0.0
 10
2.416427
 20
50.327374
 30
0.0
 10
2.375518
 20
49.911052
 30
0.0
 10
2.342513
 20
49.493644
 30
0.0
 10
2.317126
 20
49.075307
 30
0.0
 10
2.299073
 20
48.656195
 30
0.0
 10
2.288068
 20
48.236467
 30
0.0
 10
2.283827
 20
47.816278
 30
0.0
 10
2.286066
 20
47.395786
 30
0.0
 10
2.294498
 20
46.975146
 30
0.0
 10
2.308840
 20
46.554516
 30
0.0
 10
2.328806
 20
46.134051
 30
0.0
 10
2.354112
 20
45.713909
 30
0.0
 10
2.384473
 20
45.294246
 30
0.0
 10
2.419604
 20
44.875218
 30
0.0
 10
2.459219
 20
44.456982
 30
0.0
 10
2.550766
 20
43.623513
 30
0.0
 10
2.656835
 20
42.795090
 30
0.0
 10
2.775148
 20
41.972966
 30
0.0
 10
2.884851
 20
41.369045
 30
0.0
 10
3.008218
 20
40.768850
 30
0.0
 10
3.145022
 20
40.172497
 30
0.0
 10
3.295034
 20
39.580099
 30
0.0
 10
3.458027
 20
38.991774
 30
0.0
 10
3.633774
 20
38.407636
 30
0.0
 10
3.822047
 20
37.827800
 30
0.0
 10
4.022620
 20
37.252383
 30
0.0
 10
4.235264
 20
36.681499
 30
0.0
 10
4.459752
 20
36.115264
 30
0.0
 10
4.695857
 20
35.553793
 30
0.0
 10
4.943352
 20
34.997202
 30
0.0
 10
5.202009
 20
34.445605
 30
0.0
 10
5.471600
 20
33.899120
 30
0.0
 10
5.751898
 20
33.357860
 30
0.0
 10
6.042677
 20
32.821941
 30
0.0
 10
6.343707
 20
32.291478
 30
0.0
 10
6.654763
 20
31.766588
 30
0.0
 10
6.975616
 20
31.247385
 30
0.0
 10
7.306039
 20
30.733985
 30
0.0
 10
7.645806
 20
30.226503
 30
0.0
 10
7.994687
 20
29.725055
 30
0.0
 10
8.352457
 20
29.229755
 30
0.0
 10
8.718887
 20
28.740720
 30
0.0
 10
9.093750
 20
28.258065
 30
0.0
 10
9.476819
 20
27.781904
 30
0.0
 10
9.867866
 20
27.312354
 30
0.0
 10
10.266665
 20
26.849530
 30
0.0
 10
10.672987
 20
26.393548
 30
0.0
 10
11.086605
 20
25.944522
 30
0.0
 10
11.507291
 20
25.502568
 30
0.0
 10
11.934819
 20
25.067801
 30
0.0
 10
12.702558
 20
24.262816
 30
0.0
 10
13.480922
 20
23.469854
 30
0.0
 10
14.269439
 20
22.688394
 30
0.0
 10
15.067638
 20
21.917914
 30
0.0
 10
15.875047
 20
21.157894
 30
0.0
 10
16.691193
 20
20.407812
 30
0.0
 10
17.515605
 20
19.667147
 30
0.0
 10
18.347811
 20
18.935377
 30
0.0
 10
19.187338
 20
18.211982
 30
0.0
 10
20.033716
 20
17.496440
 30
0.0
 10
20.886471
 20
16.788231
 30
0.0
 10
21.745133
 20
16.086832
 30
0.0
 10
22.609229
 20
15.391723
 30
0.0
 10
23.478287
 20
14.702383
 30
0.0
 10
24.351835
 20
14.018290
 30
0.0
 10
25.229402
 20
13.338923
 30
0.0
 10
26.110515
 20
12.663761
 30
0.0
 10
26.994702
 20
11.992283
 30
0.0
 10
28.770413
 20
10.658292
 30
0.0
 10
30.552759
 20
9.332782
 30
0.0
 10
32.337964
 20
8.011583
 30
0.0
 10
34.122253
 20
6.690525
 30
0.0
 10
35.901850
 20
5.365438
 30
0.0
 10
37.672981
 20
4.032153
 30
0.0
 10
38.554191
 20
3.361134
 30
0.0
 10
39.431869
 20
2.686501
 30
0.0
 10
39.558792
 20
2.616382
 30
0.0
 10
39.683188
 20
2.561225
 30
0.0
 10
39.805159
 20
2.520296
 30
0.0
 10
39.924808
 20
2.492862
 30
0.0
 10
40.042236
 20
2.478188
 30
0.0
 10
40.157547
 20
2.475542
 30
0.0
 10
40.270842
 20
2.484188
 30
0.0
 10
40.382225
 20
2.503393
 30
0.0
 10
40.491797
 20
2.532423
 30
0.0
 10
40.599662
 20
2.570544
 30
0.0
 10
40.705921
 20
2.617023
 30
0.0
 10
40.810677
 20
2.671125
 30
0.0
 10
40.914032
 20
2.732117
 30
0.0
 10
41.016090
 20
2.799265
 30
0.0
 10
41.116952
 20
2.871835
 30
0.0
 10
41.216720
 20
2.949092
 30
0.0
 10
41.413388
 20
3.114737
 30
0.0
 10
41.606912
 20
3.290327
 30
0.0
 10
41.987808
 20
3.647860
 30
0.0
 10
42.176819
 20
3.818062
 30
0.0
 10
42.365965
 20
3.974725
 30
0.0
 10
42.460845
 20
4.046145
 30
0.0
 10
42.556066
 20
4.111980
 30
0.0
 10
42.651730
 20
4.171494
 30
0.0
 10
42.747940
 20
4.223954
 30
0.0
 10
43.735560
 20
4.976128
 30
0.0
 10
44.727416
 20
5.725842
 30
0.0
 10
46.720679
 20
7.220718
 30
0.0
 10
48.721416
 20
8.714235
 30
0.0
 10
50.723312
 20
10.212047
 30
0.0
 10
52.720055
 20
11.719807
 30
0.0
 10
53.714521
 20
12.479185
 30
0.0
 10
54.705330
 20
13.243169
 30
0.0
 10
55.691695
 20
14.012466
 30
0.0
 10
56.672825
 20
14.787784
 30
0.0
 10
57.647932
 20
15.569829
 30
0.0
 10
58.616226
 20
16.359307
 30
0.0
 10
59.576917
 20
17.156926
 30
0.0
 10
60.529218
 20
17.963391
 30
0.0
 10
61.472339
 20
18.779410
 30
0.0
 10
62.405489
 20
19.605689
 30
0.0
 10
63.327882
 20
20.442934
 30
0.0
 10
63.784796
 20
20.865890
 30
0.0
 10
64.238726
 20
21.291853
 30
0.0
 10
64.689571
 20
21.720911
 30
0.0
 10
65.137233
 20
22.153152
 30
0.0
 10
65.581613
 20
22.588665
 30
0.0
 10
66.022614
 20
23.027538
 30
0.0
 10
66.460135
 20
23.469860
 30
0.0
 10
66.894079
 20
23.915718
 30
0.0
 10
67.324347
 20
24.365201
 30
0.0
 10
67.750839
 20
24.818397
 30
0.0
 10
68.173459
 20
25.275395
 30
0.0
 10
68.592106
 20
25.736283
 30
0.0
 10
69.006683
 20
26.201149
 30
0.0
 10
69.417090
 20
26.670082
 30
0.0
 10
69.823229
 20
27.143170
 30
0.0
 10
70.225001
 20
27.620501
 30
0.0
 10
70.622308
 20
28.102164
 30
0.0
 10
71.015051
 20
28.588247
 30
0.0
 10
71.403131
 20
29.078839
 30
0.0
 10
71.786450
 20
29.574027
 30
0.0
 10
72.164909
 20
30.073899
 30
0.0
 10
72.538409
 20
30.578546
 30
0.0
 10
72.765438
 20
30.917424
 30
0.0
 10
72.988296
 20
31.259673
 30
0.0
 10
73.206932
 20
31.605211
 30
0.0
 10
73.421292
 20
31.953954
 30
0.0
 10
73.631324
 20
32.305823
 30
0.0
 10
73.836973
 20
32.660734
 30
0.0
 10
74.038188
 20
33.018605
 30
0.0
 10
74.234915
 20
33.379354
 30
0.0
 10
74.427102
 20
33.742900
 30
0.0
 10
74.614695
 20
34.109160
 30
0.0
 10
74.797641
 20
34.478052
 30
0.0
 10
74.975888
 20
34.849495
 30
0.0
 10
75.149382
 20
35.223405
 30
0.0
 10
75.318071
 20
35.599702
 30
0.0
 10
75.481901
 20
35.978303
 30
0.0
 10
75.640820
 20
36.359126
 30
0.0
 10
75.794774
 20
36.742089
 30
0.0
 10
75.943711
 20
37.127110
 30
0.0
 10
76.087578
 20
37.514107
 30
0.0
 10
76.226321
 20
37.902998
 30
0.0
 10
76.359888
 20
38.293701
 30
0.0
 10
76.488226
 20
38.686134
 30
0.0
 10
76.611282
 20
39.080215
 30
0.0
 10
76.729002
 20
39.475861
 30
0.0
 10
76.841334
 20
39.872991
 30
0.0
 10
76.948225
 20
40.271523
 30
0.0
 10
77.049621
 20
40.671375
 30
0.0
 10
77.145471
 20
41.072464
 30
0.0
 10
77.235720
 20
41.474709
 30
0.0
 10
77.320317
 20
41.878028
 30
0.0
 10
77.399207
 20
42.282338
 30
0.0
 10
77.472339
 20
42.687558
 30
0.0
 10
77.539658
 20
43.093606
 30
0.0
 10
77.601112
 20
43.500398
 30
0.0
 10
77.656649
 20
43.907855
 30
0.0
 10
77.706214
 20
44.315893
 30
0.0
 10
77.749756
 20
44.724430
 30
0.0
 10
77.787221
 20
45.133384
 30
0.0
 10
77.818556
 20
45.542674
 30
0.0
 10
77.843708
 20
45.952217
 30
0.0
 10
77.862625
 20
46.361931
 30
0.0
 10
77.875253
 20
46.771735
 30
0.0
 10
77.881539
 20
47.181546
 30
0.0
 10
77.881430
 20
47.591282
 30
0.0
 10
77.874874
 20
48.000861
 30
0.0
 10
77.861817
 20
48.410201
 30
0.0
 10
77.842206
 20
48.819221
 30
0.0
 10
77.815989
 20
49.227837
 30
0.0
 10
77.783113
 20
49.635968
 30
0.0
 10
77.743523
 20
50.043533
 30
0.0
 10
77.697169
 20
50.450448
 30
0.0
 10
77.643996
 20
50.856632
 30
0.0
 10
77.583951
 20
51.262003
 30
0.0
 10
77.516982
 20
51.666479
 30
0.0
 10
77.443036
 20
52.069978
 30
0.0
 10
77.362059
 20
52.472417
 30
0.0
 10
77.273999
 20
52.873715
 30
0.0
 10
77.178803
 20
53.273790
 30
0.0
 10
77.076417
 20
53.672560
 30
0.0
 10
76.966789
 20
54.069942
 30
0.0
 10
76.849866
 20
54.465855
 30
0.0
 10
76.725595
 20
54.860217
 30
0.0
 10
76.593922
 20
55.252945
 30
0.0
 10
76.454796
 20
55.643957
 30
0.0
 10
76.312224
 20
55.976062
 30
0.0
 10
76.162832
 20
56.304582
 30
0.0
 10
76.006727
 20
56.629462
 30
0.0
 10
75.844020
 20
56.950645
 30
0.0
 10
75.674820
 20
57.268074
 30
0.0
 10
75.499236
 20
57.581693
 30
0.0
 10
75.317379
 20
57.891445
 30
0.0
 10
75.129356
 20
58.197274
 30
0.0
 10
74.935278
 20
58.499123
 30
0.0
 10
74.735253
 20
58.796936
 30
0.0
 10
74.529392
 20
59.090657
 30
0.0
 10
74.317804
 20
59.380228
 30
0.0
 10
74.100598
 20
59.665594
 30
0.0
 10
73.877883
 20
59.946698
 30
0.0
 10
73.649770
 20
60.223483
 30
0.0
 10
73.416366
 20
60.495893
 30
0.0
 10
73.177782
 20
60.763872
 30
0.0
 10
72.934127
 20
61.027362
 30
0.0
 10
72.685511
 20
61.286308
 30
0.0
 10
72.432042
 20
61.540653
 30
0.0
 10
72.173830
 20
61.790341
 30
0.0
 10
71.910986
 20
62.035314
 30
0.0
 10
71.643617
 20
62.275517
 30
0.0
 10
71.371833
 20
62.510892
 30
0.0
 10
71.095744
 20
62.741385
 30
0.0
 10
70.815459
 20
62.966937
 30
0.0
 10
70.531088
 20
63.187493
 30
0.0
 10
70.242740
 20
63.402996
 30
0.0
 10
69.950524
 20
63.613389
 30
0.0
 10
69.654550
 20
63.818616
 30
0.0
 10
69.354926
 20
64.018621
 30
0.0
 10
69.051764
 20
64.213347
 30
0.0
 10
68.745171
 20
64.402738
 30
0.0
 10
68.435257
 20
64.586736
 30
0.0
 10
68.122132
 20
64.765286
 30
0.0
 10
67.805905
 20
64.938332
 30
0.0
 10
67.486685
 20
65.105815
 30
0.0
 10
67.164583
 20
65.267681
 30
0.0
 10
66.839706
 20
65.423873
 30
0.0
 10
66.512165
 20
65.574334
 30
0.0
 10
66.182069
 20
65.719007
 30
0.0
 10
65.849527
 20
65.857836
 30
0.0
 10
65.514649
 20
65.990766
 30
0.0
 10
65.177544
 20
66.117738
 30
0.0
 10
64.838321
 20
66.238697
 30
0.0
 10
64.497091
 20
66.353586
 30
0.0
 10
64.153961
 20
66.462349
 30
0.0
 10
63.809043
 20
66.564928
 30
0.0
 10
63.462444
 20
66.661269
 30
0.0
 10
63.114275
 20
66.751314
 30
0.0
 10
62.764645
 20
66.835006
 30
0.0
 10
62.413663
 20
66.912290
 30
0.0
 10
62.061438
 20
66.983109
 30
0.0
 10
61.708081
 20
67.047406
 30
0.0
 10
61.353700
 20
67.105124
 30
0.0
 10
60.998404
 20
67.156208
 30
0.0
 10
60.642304
 20
67.200600
 30
0.0
 10
60.285509
 20
67.238245
 30
0.0
 10
59.928127
 20
67.269086
 30
0.0
 10
59.570269
 20
67.293065
 30
0.0
 10
59.212043
 20
67.310128
 30
0.0
 10
58.853560
 20
67.320217
 30
0.0
 10
58.494928
 20
67.323276
 30
0.0
 10
58.136257
 20
67.319248
 30
0.0
 10
58.136257
 20
67.319248
 30
0.0
  0
LWPOLYLINE
  5
104
100
AcDbEntity
  8
Face
 62
7
100
AcDbPolyline
 90
399
 70
0
 10
40.088769
 20
46.832768
 30
0.0
 10
40.333048
 20
47.245087
 30
0.0
 10
40.589881
 20
47.656815
 30
0.0
 10
40.859462
 20
48.067133
 30
0.0
 10
41.141984
 20
48.475220
 30
0.0
 10
41.437641
 20
48.880257
 30
0.0
 10
41.746625
 20
49.281425
 30
0.0
 10
42.069129
 20
49.677904
 30
0.0
 10
42.405348
 20
50.068874
 30
0.0
 10
42.755473
 20
50.453515
 30
0.0
 10
43.119699
 20
50.831008
 30
0.0
 10
43.498217
 20
51.200534
 30
0.0
 10
43.891223
 20
51.561271
 30
0.0
 10
44.093218
 20
51.738089
 30
0.0
 10
44.298908
 20
51.912402
 30
0.0
 10
44.508315
 20
52.084109
 30
0.0
 10
44.721466
 20
52.253106
 30
0.0
 10
44.938382
 20
52.419292
 30
0.0
 10
45.159089
 20
52.582564
 30
0.0
 10
45.383611
 20
52.742819
 30
0.0
 10
45.611972
 20
52.899956
 30
0.0
 10
45.844196
 20
53.053871
 30
0.0
 10
46.080308
 20
53.204462
 30
0.0
 10
46.320330
 20
53.351626
 30
0.0
 10
46.564289
 20
53.495262
 30
0.0
 10
46.812207
 20
53.635267
 30
0.0
 10
47.064108
 20
53.771538
 30
0.0
 10
47.320018
 20
53.903973
 30
0.0
 10
47.579960
 20
54.032469
 30
0.0
 10
47.843958
 20
54.156924
 30
0.0
 10
48.112036
 20
54.277236
 30
0.0
 10
48.384219
 20
54.393302
 30
0.0
 10
48.660531
 20
54.505019
 30
0.0
 10
48.940996
 20
54.612285
 30
0.0
 10
49.225637
 20
54.714998
 30
0.0
 10
49.514480
 20
54.813056
 30
0.0
 10
49.807548
 20
54.906355
 30
0.0
 10
50.104866
 20
54.994793
 30
0.0
 10
50.406457
 20
55.078268
 30
0.0
 10
50.712345
 20
55.156677
 30
0.0
 10
51.022556
 20
55.229919
 30
0.0
 10
51.337113
 20
55.297890
 30
0.0
 10
51.656040
 20
55.360488
 30
0.0
 10
51.979361
 20
55.417610
 30
0.0
 10
52.307101
 20
55.469155
 30
0.0
 10
52.639283
 20
55.515019
 30
0.0
 10
52.975932
 20
55.555100
 30
0.0
 10
53.317072
 20
55.589296
 30
0.0
 10
53.662727
 20
55.617505
 30
0.0
 10
54.012921
 20
55.639623
 30
0.0
 10
54.367678
 20
55.655548
 30
0.0
 10
54.727023
 20
55.665179
 30
0.0
 10
55.090980
 20
55.668412
 30
0.0
 10
55.456767
 20
55.665241
 30
0.0
 10
55.821489
 20
55.655740
 30
0.0
 10
56.184993
 20
55.639929
 30
0.0
 10
56.547131
 20
55.617827
 30
0.0
 10
56.907752
 20
55.589452
 30
0.0
 10
57.266706
 20
55.554824
 30
0.0
 10
57.623843
 20
55.513961
 30
0.0
 10
57.979012
 20
55.466884
 30
0.0
 10
58.332064
 20
55.413610
 30
0.0
 10
58.682847
 20
55.354160
 30
0.0
 10
59.031213
 20
55.288551
 30
0.0
 10
59.377010
 20
55.216803
 30
0.0
 10
59.720088
 20
55.138936
 30
0.0
 10
60.060297
 20
55.054967
 30
0.0
 10
60.397488
 20
54.964917
 30
0.0
 10
60.731509
 20
54.868803
 30
0.0
 10
61.062211
 20
54.766647
 30
0.0
 10
61.389443
 20
54.658465
 30
0.0
 10
61.713055
 20
54.544278
 30
0.0
 10
62.032896
 20
54.424104
 30
0.0
 10
62.348818
 20
54.297963
 30
0.0
 10
62.660669
 20
54.165873
 30
0.0
 10
62.968299
 20
54.027854
 30
0.0
 10
63.271558
 20
53.883924
 30
0.0
 10
63.570296
 20
53.734103
 30
0.0
 10
63.864362
 20
53.578410
 30
0.0
 10
64.153607
 20
53.416864
 30
0.0
 10
64.437880
 20
53.249483
 30
0.0
 10
64.717031
 20
53.076288
 30
0.0
 10
64.990909
 20
52.897296
 30
0.0
 10
65.259365
 20
52.712527
 30
0.0
 10
65.522249
 20
52.522000
 30
0.0
 10
65.779409
 20
52.325735
 30
0.0
 10
66.030696
 20
52.123749
 30
0.0
 10
66.275959
 20
51.916063
 30
0.0
 10
66.515049
 20
51.702695
 30
0.0
 10
66.747815
 20
51.483664
 30
0.0
 10
66.974107
 20
51.258990
 30
0.0
 10
67.193775
 20
51.028691
 30
0.0
 10
67.406669
 20
50.792786
 30
0.0
 10
67.612637
 20
50.551295
 30
0.0
 10
67.811531
 20
50.304237
 30
0.0
 10
68.003199
 20
50.051630
 30
0.0
 10
68.187492
 20
49.793493
 30
0.0
 10
68.364260
 20
49.529847
 30
0.0
 10
68.533351
 20
49.260709
 30
0.0
 10
68.694617
 20
48.986099
 30
0.0
 10
68.847907
 20
48.706036
 30
0.0
 10
68.993070
 20
48.420538
 30
0.0
 10
69.129956
 20
48.129626
 30
0.0
 10
69.258415
 20
47.833318
 30
0.0
 10
69.378298
 20
47.531632
 30
0.0
 10
69.489453
 20
47.224589
 30
0.0
 10
69.591730
 20
46.912207
 30
0.0
 10
69.684980
 20
46.594505
 30
0.0
 10
69.769051
 20
46.271503
 30
0.0
 10
69.843795
 20
45.943218
 30
0.0
 10
69.909060
 20
45.609671
 30
0.0
 10
69.964696
 20
45.270881
 30
0.0
 10
70.010554
 20
44.926866
 30
0.0
 10
70.046482
 20
44.577645
 30
0.0
 10
70.072331
 20
44.223239
 30
0.0
 10
70.087951
 20
43.863664
 30
0.0
 10
70.093191
 20
43.498942
 30
0.0
 10
70.089809
 20
43.242584
 30
0.0
 10
70.079712
 20
42.989189
 30
0.0
 10
70.062975
 20
42.738741
 30
0.0
 10
70.039675
 20
42.491225
 30
0.0
 10
70.009885
 20
42.246626
 30
0.0
 10
69.973680
 20
42.004929
 30
0.0
 10
69.931137
 20
41.766117
 30
0.0
 10
69.882329
 20
41.530177
 30
0.0
 10
69.827332
 20
41.297092
 30
0.0
 10
69.766222
 20
41.066847
 30
0.0
 10
69.699072
 20
40.839427
 30
0.0
 10
69.625958
 20
40.614817
 30
0.0
 10
69.546956
 20
40.393001
 30
0.0
 10
69.462140
 20
40.173964
 30
0.0
 10
69.371585
 20
39.957691
 30
0.0
 10
69.275367
 20
39.744166
 30
0.0
 10
69.173560
 20
39.533375
 30
0.0
 10
69.066239
 20
39.325301
 30
0.0
 10
68.953481
 20
39.119929
 30
0.0
 10
68.835358
 20
38.917245
 30
0.0
 10
68.711948
 20
38.717233
 30
0.0
 10
68.583324
 20
38.519878
 30
0.0
 10
68.449563
 20
38.325164
 30
0.0
 10
68.310738
 20
38.133075
 30
0.0
 10
68.166925
 20
37.943598
 30
0.0
 10
68.018199
 20
37.756716
 30
0.0
 10
67.864635
 20
37.572414
 30
0.0
 10
67.706309
 20
37.390677
 30
0.0
 10
67.543294
 20
37.211489
 30
0.0
 10
67.375667
 20
37.034836
 30
0.0
 10
67.203503
 20
36.860701
 30
0.0
 10
67.026876
 20
36.689070
 30
0.0
 10
66.845861
 20
36.519928
 30
0.0
 10
66.660534
 20
36.353258
 30
0.0
 10
66.470970
 20
36.189046
 30
0.0
 10
66.277243
 20
36.027277
 30
0.0
 10
66.079429
 20
35.867934
 30
0.0
 10
65.877603
 20
35.711004
 30
0.0
 10
65.462215
 20
35.404317
 30
0.0
 10
65.031679
 20
35.107094
 30
0.0
 10
64.586595
 20
34.819211
 30
0.0
 10
64.127565
 20
34.540548
 30
0.0
 10
63.655189
 20
34.270981
 30
0.0
 10
63.170067
 20
34.010388
 30
0.0
 10
62.672800
 20
33.758647
 30
0.0
 10
62.163988
 20
33.515634
 30
0.0
 10
61.644232
 20
33.281229
 30
0.0
 10
61.114133
 20
33.055307
 30
0.0
 10
60.574290
 20
32.837748
 30
0.0
 10
60.025306
 20
32.628428
 30
0.0
 10
59.467779
 20
32.427225
 30
0.0
 10
58.902310
 20
32.234017
 30
0.0
 10
58.329501
 20
32.048682
 30
0.0
 10
57.749951
 20
31.871096
 30
0.0
 10
57.164262
 20
31.701138
 30
0.0
 10
56.573033
 20
31.538684
 30
0.0
 10
55.976865
 20
31.383614
 30
0.0
 10
55.376359
 20
31.235803
 30
0.0
 10
54.772116
 20
31.095131
 30
0.0
 10
54.164735
 20
30.961474
 30
0.0
 10
53.554818
 20
30.834709
 30
0.0
 10
52.942964
 20
30.714716
 30
0.0
 10
52.329775
 20
30.601371
 30
0.0
 10
51.715850
 20
30.494551
 30
0.0
 10
51.101792
 20
30.394135
 30
0.0
 10
50.488199
 20
30.300000
 30
0.0
 10
49.875672
 20
30.212024
 30
0.0
 10
49.264813
 20
30.130083
 30
0.0
 10
48.656221
 20
30.054057
 30
0.0
 10
48.050498
 20
29.983822
 30
0.0
 10
47.448243
 20
29.919255
 30
0.0
 10
46.850057
 20
29.860236
 30
0.0
 10
46.256541
 20
29.806640
 30
0.0
 10
45.668295
 20
29.758346
 30
0.0
 10
45.085920
 20
29.715232
 30
0.0
 10
44.510016
 20
29.677174
 30
0.0
 10
43.941184
 20
29.644051
 30
0.0
 10
43.380024
 20
29.615740
 30
0.0
 10
42.827138
 20
29.592119
 30
0.0
 10
41.748585
 20
29.558455
 30
0.0
 10
40.710330
 20
29.542082
 30
0.0
 10
40.178574
 20
29.539985
 30
0.0
 10
39.635455
 20
29.542117
 30
0.0
 10
39.081602
 20
29.548611
 30
0.0
 10
38.517649
 20
29.559602
 30
0.0
 10
37.944227
 20
29.575222
 30
0.0
 10
37.361966
 20
29.595606
 30
0.0
 10
36.771500
 20
29.620887
 30
0.0
 10
36.173460
 20
29.651198
 30
0.0
 10
35.568476
 20
29.686673
 30
0.0
 10
34.957182
 20
29.727446
 30
0.0
 10
34.340208
 20
29.773650
 30
0.0
 10
33.718186
 20
29.825419
 30
0.0
 10
33.091749
 20
29.882886
 30
0.0
 10
32.461526
 20
29.946186
 30
0.0
 10
31.828151
 20
30.015450
 30
0.0
 10
31.192254
 20
30.090814
 30
0.0
 10
30.554468
 20
30.172411
 30
0.0
 10
29.915424
 20
30.260373
 30
0.0
 10
29.275753
 20
30.354836
 30
0.0
 10
28.636088
 20
30.455932
 30
0.0
 10
27.997060
 20
30.563795
 30
0.0
 10
27.359300
 20
30.678559
 30
0.0
 10
26.723440
 20
30.800356
 30
0.0
 10
26.090113
 20
30.929322
 30
0.0
 10
25.459949
 20
31.065588
 30
0.0
 10
24.833580
 20
31.209290
 30
0.0
 10
24.211637
 20
31.360560
 30
0.0
 10
23.594753
 20
31.519532
 30
0.0
 10
22.983560
 20
31.686340
 30
0.0
 10
22.378687
 20
31.861117
 30
0.0
 10
21.780769
 20
32.043997
 30
0.0
 10
21.190435
 20
32.235113
 30
0.0
 10
20.608317
 20
32.434598
 30
0.0
 10
20.035048
 20
32.642588
 30
0.0
 10
19.471259
 20
32.859214
 30
0.0
 10
18.917582
 20
33.084612
 30
0.0
 10
18.374647
 20
33.318913
 30
0.0
 10
17.843088
 20
33.562252
 30
0.0
 10
17.323535
 20
33.814763
 30
0.0
 10
16.816619
 20
34.076578
 30
0.0
 10
16.322974
 20
34.347832
 30
0.0
 10
15.843230
 20
34.628659
 30
0.0
 10
15.378019
 20
34.919190
 30
0.0
 10
14.927973
 20
35.219562
 30
0.0
 10
14.708834
 20
35.373479
 30
0.0
 10
14.493723
 20
35.529906
 30
0.0
 10
14.282719
 20
35.688859
 30
0.0
 10
14.075900
 20
35.850356
 30
0.0
 10
13.873347
 20
36.014413
 30
0.0
 10
13.675138
 20
36.181046
 30
0.0
 10
13.481351
 20
36.350273
 30
0.0
 10
13.292066
 20
36.522111
 30
0.0
 10
13.107362
 20
36.696574
 30
0.0
 10
12.927318
 20
36.873682
 30
0.0
 10
12.752012
 20
37.053449
 30
0.0
 10
12.581524
 20
37.235894
 30
0.0
 10
12.415932
 20
37.421032
 30
0.0
 10
12.255316
 20
37.608880
 30
0.0
 10
12.099754
 20
37.799455
 30
0.0
 10
11.949326
 20
37.992774
 30
0.0
 10
11.804109
 20
38.188853
 30
0.0
 10
11.664185
 20
38.387710
 30
0.0
 10
11.529630
 20
38.589360
 30
0.0
 10
11.400525
 20
38.793820
 30
0.0
 10
11.276948
 20
39.001108
 30
0.0
 10
11.158978
 20
39.211240
 30
0.0
 10
11.046694
 20
39.424232
 30
0.0
 10
10.940175
 20
39.640101
 30
0.0
 10
10.839500
 20
39.858864
 30
0.0
 10
10.744748
 20
40.080538
 30
0.0
 10
10.655998
 20
40.305140
 30
0.0
 10
10.573329
 20
40.532685
 30
0.0
 10
10.496820
 20
40.763191
 30
0.0
 10
10.426549
 20
40.996674
 30
0.0
 10
10.362596
 20
41.233152
 30
0.0
 10
10.305040
 20
41.472641
 30
0.0
 10
10.253959
 20
41.715157
 30
0.0
 10
10.209433
 20
41.960717
 30
0.0
 10
10.171541
 20
42.209338
 30
0.0
 10
10.140361
 20
42.461037
 30
0.0
 10
10.115972
 20
42.715830
 30
0.0
 10
10.098454
 20
42.973734
 30
0.0
 10
10.087885
 20
43.234765
 30
0.0
 10
10.084345
 20
43.498942
 30
0.0
 10
10.089341
 20
43.867130
 30
0.0
 10
10.104246
 20
44.229951
 30
0.0
 10
10.128932
 20
44.587393
 30
0.0
 10
10.163272
 20
44.939440
 30
0.0
 10
10.207139
 20
45.286079
 30
0.0
 10
10.260406
 20
45.627296
 30
0.0
 10
10.322946
 20
45.963077
 30
0.0
 10
10.394633
 20
46.293409
 30
0.0
 10
10.475338
 20
46.618277
 30
0.0
 10
10.564936
 20
46.937669
 30
0.0
 10
10.663298
 20
47.251569
 30
0.0
 10
10.770298
 20
47.559965
 30
0.0
 10
10.885809
 20
47.862842
 30
0.0
 10
11.009705
 20
48.160187
 30
0.0
 10
11.141856
 20
48.451985
 30
0.0
 10
11.282138
 20
48.738224
 30
0.0
 10
11.430423
 20
49.018889
 30
0.0
 10
11.586583
 20
49.293966
 30
0.0
 10
11.750492
 20
49.563442
 30
0.0
 10
11.922023
 20
49.827302
 30
0.0
 10
12.101048
 20
50.085534
 30
0.0
 10
12.287441
 20
50.338123
 30
0.0
 10
12.481075
 20
50.585054
 30
0.0
 10
12.681822
 20
50.826316
 30
0.0
 10
12.889555
 20
51.061893
 30
0.0
 10
13.104149
 20
51.291772
 30
0.0
 10
13.325475
 20
51.515939
 30
0.0
 10
13.553406
 20
51.734381
 30
0.0
 10
13.787815
 20
51.947082
 30
0.0
 10
14.028576
 20
52.154031
 30
0.0
 10
14.275562
 20
52.355212
 30
0.0
 10
14.528645
 20
52.550613
 30
0.0
 10
14.787698
 20
52.740218
 30
0.0
 10
15.052594
 20
52.924015
 30
0.0
 10
15.323207
 20
53.101989
 30
0.0
 10
15.599409
 20
53.274128
 30
0.0
 10
15.881073
 20
53.440416
 30
0.0
 10
16.168072
 20
53.600840
 30
0.0
 10
16.460280
 20
53.755387
 30
0.0
 10
16.757569
 20
53.904042
 30
0.0
 10
17.059811
 20
54.046792
 30
0.0
 10
17.366881
 20
54.183623
 30
0.0
 10
17.678651
 20
54.314521
 30
0.0
 10
17.994993
 20
54.439472
 30
0.0
 10
18.315782
 20
54.558462
 30
0.0
 10
18.640890
 20
54.671479
 30
0.0
 10
18.970190
 20
54.778507
 30
0.0
 10
19.303554
 20
54.879533
 30
0.0
 10
19.640856
 20
54.974543
 30
0.0
 10
19.981970
 20
55.063524
 30
0.0
 10
20.326767
 20
55.146461
 30
0.0
 10
20.675120
 20
55.223341
 30
0.0
 10
21.026904
 20
55.294151
 30
0.0
 10
21.381990
 20
55.358875
 30
0.0
 10
21.740252
 20
55.417500
 30
0.0
 10
22.101563
 20
55.470013
 30
0.0
 10
22.465795
 20
55.516400
 30
0.0
 10
22.832822
 20
55.556647
 30
0.0
 10
23.202516
 20
55.590740
 30
0.0
 10
23.574751
 20
55.618665
 30
0.0
 10
23.949399
 20
55.640408
 30
0.0
 10
24.326334
 20
55.655957
 30
0.0
 10
24.705429
 20
55.665296
 30
0.0
 10
25.086556
 20
55.668412
 30
0.0
 10
25.465938
 20
55.665029
 30
0.0
 10
25.839909
 20
55.654960
 30
0.0
 10
26.208509
 20
55.638321
 30
0.0
 10
26.571776
 20
55.615229
 30
0.0
 10
26.929750
 20
55.585799
 30
0.0
 10
27.282469
 20
55.550150
 30
0.0
 10
27.629973
 20
55.508397
 30
0.0
 10
27.972301
 20
55.460658
 30
0.0
 10
28.309492
 20
55.407048
 30
0.0
 10
28.641585
 20
55.347685
 30
0.0
 10
28.968620
 20
55.282686
 30
0.0
 10
29.290634
 20
55.212166
 30
0.0
 10
29.607669
 20
55.136243
 30
0.0
 10
29.919761
 20
55.055034
 30
0.0
 10
30.226952
 20
54.968655
 30
0.0
 10
30.529280
 20
54.877222
 30
0.0
 10
30.826783
 20
54.780853
 30
0.0
 10
31.119502
 20
54.679664
 30
0.0
 10
31.407474
 20
54.573771
 30
0.0
 10
31.690741
 20
54.463293
 30
0.0
 10
31.969339
 20
54.348344
 30
0.0
 10
32.243310
 20
54.229042
 30
0.0
 10
32.512691
 20
54.105504
 30
0.0
 10
32.777521
 20
53.977846
 30
0.0
 10
33.037841
 20
53.846184
 30
0.0
 10
33.293689
 20
53.710636
 30
0.0
 10
33.545104
 20
53.571319
 30
0.0
 10
33.792126
 20
53.428348
 30
0.0
 10
34.034793
 20
53.281841
 30
0.0
 10
34.273145
 20
53.131915
 30
0.0
 10
34.507220
 20
52.978685
 30
0.0
 10
34.737058
 20
52.822269
 30
0.0
 10
34.962698
 20
52.662783
 30
0.0
 10
35.184179
 20
52.500344
 30
0.0
 10
35.401541
 20
52.335069
 30
0.0
 10
35.614821
 20
52.167074
 30
0.0
 10
35.824061
 20
51.996476
 30
0.0
 10
36.029297
 20
51.823392
 30
0.0
 10
36.230571
 20
51.647939
 30
0.0
 10
36.427920
 20
51.470232
 30
0.0
 10
36.811003
 20
51.108527
 30
0.0
 10
37.178858
 20
50.739210
 30
0.0
 10
37.531799
 20
50.363215
 30
0.0
 10
37.870139
 20
49.981476
 30
0.0
 10
38.194190
 20
49.594925
 30
0.0
 10
38.504266
 20
49.204497
 30
0.0
 10
38.800680
 20
48.811124
 30
0.0
 10
39.083745
 20
48.415741
 30
0.0
 10
39.353773
 20
48.019280
 30
0.0
 10
39.611078
 20
47.622675
 30
0.0
 10
39.855972
 20
47.226860
 30
0.0
 10
40.088769
 20
46.832768
 30
0.0
 10
40.088769
 20
46.832768
 30
0.0
  0
LWPOLYLINE
  5
105
100
AcDbEntity
  8
Eyes
 62
7
100
AcDbPolyline
 90
198
 70
0
 10
44.165802
 20
40.393921
 30
0.0
 10
44.192859
 20
40.453672
 30
0.0
 10
44.277880
 20
40.622531
 30
0.0
 10
44.343933
 20
40.743006
 30
0.0
 10
44.426642
 20
40.884913
 30
0.0
 10
44.526730
 20
41.046303
 30
0.0
 10
44.644919
 20
41.225229
 30
0.0
 10
44.781931
 20
41.419742
 30
0.0
 10
44.938487
 20
41.627894
 30
0.0
 10
45.115311
 20
41.847736
 30
0.0
 10
45.313123
 20
42.077320
 30
0.0
 10
45.532646
 20
42.314698
 30
0.0
 10
45.774602
 20
42.557920
 30
0.0
 10
46.039712
 20
42.805039
 30
0.0
 10
46.328699
 20
43.054107
 30
0.0
 10
46.642285
 20
43.303175
 30
0.0
 10
46.808528
 20
43.427100
 30
0.0
 10
46.981191
 20
43.550294
 30
0.0
 10
47.160365
 20
43.672514
 30
0.0
 10
47.346140
 20
43.793517
 30
0.0
 10
47.538606
 20
43.913058
 30
0.0
 10
47.737853
 20
44.030894
 30
0.0
 10
47.943972
 20
44.146782
 30
0.0
 10
48.157053
 20
44.260478
 30
0.0
 10
48.377186
 20
44.371738
 30
0.0
 10
48.604461
 20
44.480320
 30
0.0
 10
48.838969
 20
44.585979
 30
0.0
 10
49.080800
 20
44.688472
 30
0.0
 10
49.330043
 20
44.787555
 30
0.0
 10
49.586790
 20
44.882985
 30
0.0
 10
49.851131
 20
44.974518
 30
0.0
 10
50.123156
 20
45.061911
 30
0.0
 10
50.402954
 20
45.144920
 30
0.0
 10
50.690617
 20
45.223302
 30
0.0
 10
50.986235
 20
45.296812
 30
0.0
 10
51.289897
 20
45.365208
 30
0.0
 10
51.601694
 20
45.428247
 30
0.0
 10
51.921717
 20
45.485683
 30
0.0
 10
52.250055
 20
45.537275
 30
0.0
 10
52.586799
 20
45.582777
 30
0.0
 10
52.932039
 20
45.621948
 30
0.0
 10
53.285866
 20
45.654543
 30
0.0
 10
53.648368
 20
45.680318
 30
0.0
 10
54.019638
 20
45.699031
 30
0.0
 10
54.399765
 20
45.710437
 30
0.0
 10
54.788839
 20
45.714293
 30
0.0
 10
55.177912
 20
45.710437
 30
0.0
 10
55.558039
 20
45.699031
 30
0.0
 10
55.929309
 20
45.680318
 30
0.0
 10
56.291812
 20
45.654543
 30
0.0
 10
56.645638
 20
45.621948
 30
0.0
 10
56.990878
 20
45.582777
 30
0.0
 10
57.327622
 20
45.537275
 30
0.0
 10
57.655960
 20
45.485683
 30
0.0
 10
57.975983
 20
45.428247
 30
0.0
 10
58.287780
 20
45.365208
 30
0.0
 10
58.591442
 20
45.296812
 30
0.0
 10
58.887060
 20
45.223302
 30
0.0
 10
59.174723
 20
45.144920
 30
0.0
 10
59.454521
 20
45.061911
 30
0.0
 10
59.726546
 20
44.974518
 30
0.0
 10
59.990886
 20
44.882985
 30
0.0
 10
60.247633
 20
44.787555
 30
0.0
 10
60.496877
 20
44.688472
 30
0.0
 10
60.738708
 20
44.585979
 30
0.0
 10
60.973215
 20
44.480320
 30
0.0
 10
61.200491
 20
44.371738
 30
0.0
 10
61.420623
 20
44.260478
 30
0.0
 10
61.633704
 20
44.146782
 30
0.0
 10
61.839823
 20
44.030894
 30
0.0
 10
62.039070
 20
43.913058
 30
0.0
 10
62.231536
 20
43.793517
 30
0.0
 10
62.417311
 20
43.672514
 30
0.0
 10
62.596485
 20
43.550294
 30
0.0
 10
62.769148
 20
43.427100
 30
0.0
 10
62.935391
 20
43.303175
 30
0.0
 10
63.248976
 20
43.054107
 30
0.0
 10
63.537963
 20
42.805039
 30
0.0
 10
63.803074
 20
42.557920
 30
0.0
 10
64.045029
 20
42.314698
 30
0.0
 10
64.264552
 20
42.077320
 30
0.0
 10
64.462364
 20
41.847736
 30
0.0
 10
64.639188
 20
41.627894
 30
0.0
 10
64.795744
 20
41.419742
 30
0.0
 10
64.932756
 20
41.225229
 30
0.0
 10
65.050945
 20
41.046303
 30
0.0
 10
65.151033
 20
40.884913
 30
0.0
 10
65.233742
 20
40.743006
 30
0.0
 10
65.299794
 20
40.622531
 30
0.0
 10
65.384815
 20
40.453672
 30
0.0
 10
65.411872
 20
40.393921
 30
0.0
 10
65.422473
 20
40.520203
 30
0.0
 10
65.431816
 20
40.671879
 30
0.0
 10
65.440382
 20
40.877087
 30
0.0
 10
65.445565
 20
41.131711
 30
0.0
 10
65.444761
 20
41.431630
 30
0.0
 10
65.435364
 20
41.772729
 30
0.0
 10
65.414771
 20
42.150889
 30
0.0
 10
65.380375
 20
42.561992
 30
0.0
 10
65.329573
 20
43.001920
 30
0.0
 10
65.297206
 20
43.231407
 30
0.0
 10
65.259760
 20
43.466556
 30
0.0
 10
65.216909
 20
43.706852
 30
0.0
 10
65.168329
 20
43.951781
 30
0.0
 10
65.113694
 20
44.200828
 30
0.0
 10
65.052678
 20
44.453478
 30
0.0
 10
64.984956
 20
44.709216
 30
0.0
 10
64.910201
 20
44.967528
 30
0.0
 10
64.828088
 20
45.227899
 30
0.0
 10
64.738293
 20
45.489814
 30
0.0
 10
64.640488
 20
45.752759
 30
0.0
 10
64.534349
 20
46.016218
 30
0.0
 10
64.419549
 20
46.279678
 30
0.0
 10
64.295764
 20
46.542622
 30
0.0
 10
64.162668
 20
46.804538
 30
0.0
 10
64.019934
 20
47.064909
 30
0.0
 10
63.867238
 20
47.323221
 30
0.0
 10
63.704254
 20
47.578959
 30
0.0
 10
63.530656
 20
47.831609
 30
0.0
 10
63.346119
 20
48.080656
 30
0.0
 10
63.150316
 20
48.325584
 30
0.0
 10
62.942924
 20
48.565881
 30
0.0
 10
62.723614
 20
48.801030
 30
0.0
 10
62.492064
 20
49.030516
 30
0.0
 10
62.247945
 20
49.253826
 30
0.0
 10
61.990934
 20
49.470445
 30
0.0
 10
61.720704
 20
49.679857
 30
0.0
 10
61.436930
 20
49.881548
 30
0.0
 10
61.139286
 20
50.075003
 30
0.0
 10
60.827447
 20
50.259707
 30
0.0
 10
60.501086
 20
50.435147
 30
0.0
 10
60.159880
 20
50.600806
 30
0.0
 10
59.803500
 20
50.756171
 30
0.0
 10
59.431623
 20
50.900726
 30
0.0
 10
59.043923
 20
51.033957
 30
0.0
 10
58.640073
 20
51.155349
 30
0.0
 10
58.219749
 20
51.264388
 30
0.0
 10
57.782625
 20
51.360558
 30
0.0
 10
57.328374
 20
51.443344
 30
0.0
 10
56.856672
 20
51.512233
 30
0.0
 10
56.367194
 20
51.566710
 30
0.0
 10
55.859612
 20
51.606259
 30
0.0
 10
55.333602
 20
51.630365
 30
0.0
 10
54.788839
 20
51.638515
 30
0.0
 10
54.244075
 20
51.630365
 30
0.0
 10
53.718065
 20
51.606259
 30
0.0
 10
53.210484
 20
51.566710
 30
0.0
 10
52.721005
 20
51.512233
 30
0.0
 10
52.249303
 20
51.443344
 30
0.0
 10
51.795053
 20
51.360558
 30
0.0
 10
51.357928
 20
51.264388
 30
0.0
 10
50.937604
 20
51.155349
 30
0.0
 10
50.533754
 20
51.033957
 30
0.0
 10
50.146054
 20
50.900726
 30
0.0
 10
49.774177
 20
50.756171
 30
0.0
 10
49.417797
 20
50.600806
 30
0.0
 10
49.076590
 20
50.435147
 30
0.0
 10
48.750230
 20
50.259707
 30
0.0
 10
48.438391
 20
50.075002
 30
0.0
 10
48.140747
 20
49.881547
 30
0.0
 10
47.856973
 20
49.679856
 30
0.0
 10
47.586743
 20
49.470444
 30
0.0
 10
47.329731
 20
49.253826
 30
0.0
 10
47.085613
 20
49.030516
 30
0.0
 10
46.854062
 20
48.801029
 30
0.0
 10
46.634753
 20
48.565880
 30
0.0
 10
46.427360
 20
48.325584
 30
0.0
 10
46.231558
 20
48.080655
 30
0.0
 10
46.047020
 20
47.831608
 30
0.0
 10
45.873422
 20
47.578958
 30
0.0
 10
45.710438
 20
47.323220
 30
0.0
 10
45.557742
 20
47.064908
 30
0.0
 10
45.415008
 20
46.804537
 30
0.0
 10
45.281912
 20
46.542621
 30
0.0
 10
45.158127
 20
46.279677
 30
0.0
 10
45.043327
 20
46.016217
 30
0.0
 10
44.937188
 20
45.752758
 30
0.0
 10
44.839383
 20
45.489813
 30
0.0
 10
44.749587
 20
45.227898
 30
0.0
 10
44.667475
 20
44.967527
 30
0.0
 10
44.592720
 20
44.709215
 30
0.0
 10
44.524997
 20
44.453477
 30
0.0
 10
44.463981
 20
44.200827
 30
0.0
 10
44.409346
 20
43.951780
 30
0.0
 10
44.360766
 20
43.706851
 30
0.0
 10
44.317916
 20
43.466555
 30
0.0
 10
44.280469
 20
43.231406
 30
0.0
 10
44.248102
 20
43.001919
 30
0.0
 10
44.197300
 20
42.561991
 30
0.0
 10
44.162904
 20
42.150888
 30
0.0
 10
44.142311
 20
41.772728
 30
0.0
 10
44.132914
 20
41.431629
 30
0.0
 10
44.132110
 20
41.131710
 30
0.0
 10
44.137293
 20
40.877087
 30
0.0
 10
44.145858
 20
40.671878
 30
0.0
 10
44.155202
 20
40.520203
 30
0.0
 10
44.165802
 20
40.393921
 30
0.0
 10
44.165802
 20
40.393921
 30
0.0
  0
LWPOLYLINE
  5
106
100
AcDbEntity
  8
Eyes
 62
7
100
AcDbPolyline
 90
198
 70
0
 10
14.765661
 20
40.393921
 30
0.0
 10
14.792718
 20
40.453672
 30
0.0
 10
14.877739
 20
40.622531
 30
0.0
 10
14.943791
 20
40.743006
 30
0.0
 10
15.026500
 20
40.884913
 30
0.0
 10
15.126589
 20
41.046303
 30
0.0
 10
15.244778
 20
41.225229
 30
0.0
 10
15.381790
 20
41.419742
 30
0.0
 10
15.538346
 20
41.627894
 30
0.0
 10
15.715170
 20
41.847736
 30
0.0
 10
15.912982
 20
42.077320
 30
0.0
 10
16.132506
 20
42.314698
 30
0.0
 10
16.374461
 20
42.557920
 30
0.0
 10
16.639572
 20
42.805039
 30
0.0
 10
16.928559
 20
43.054107
 30
0.0
 10
17.242145
 20
43.303175
 30
0.0
 10
17.408388
 20
43.427100
 30
0.0
 10
17.581051
 20
43.550294
 30
0.0
 10
17.760225
 20
43.672514
 30
0.0
 10
17.946000
 20
43.793517
 30
0.0
 10
18.138466
 20
43.913058
 30
0.0
 10
18.337714
 20
44.030894
 30
0.0
 10
18.543833
 20
44.146782
 30
0.0
 10
18.756913
 20
44.260478
 30
0.0
 10
18.977046
 20
44.371738
 30
0.0
 10
19.204322
 20
44.480320
 30
0.0
 10
19.438830
 20
44.585979
 30
0.0
 10
19.680660
 20
44.688472
 30
0.0
 10
19.929904
 20
44.787555
 30
0.0
 10
20.186651
 20
44.882985
 30
0.0
 10
20.450992
 20
44.974518
 30
0.0
 10
20.723017
 20
45.061911
 30
0.0
 10
21.002815
 20
45.144920
 30
0.0
 10
21.290478
 20
45.223302
 30
0.0
 10
21.586096
 20
45.296812
 30
0.0
 10
21.889758
 20
45.365208
 30
0.0
 10
22.201555
 20
45.428247
 30
0.0
 10
22.521578
 20
45.485683
 30
0.0
 10
22.849916
 20
45.537275
 30
0.0
 10
23.186660
 20
45.582777
 30
0.0
 10
23.531900
 20
45.621948
 30
0.0
 10
23.885727
 20
45.654543
 30
0.0
 10
24.248230
 20
45.680318
 30
0.0
 10
24.619499
 20
45.699031
 30
0.0
 10
24.999626
 20
45.710437
 30
0.0
 10
25.388700
 20
45.714293
 30
0.0
 10
25.777774
 20
45.710437
 30
0.0
 10
26.157900
 20
45.699031
 30
0.0
 10
26.529170
 20
45.680318
 30
0.0
 10
26.891672
 20
45.654543
 30
0.0
 10
27.245499
 20
45.621948
 30
0.0
 10
27.590738
 20
45.582777
 30
0.0
 10
27.927482
 20
45.537275
 30
0.0
 10
28.255820
 20
45.485683
 30
0.0
 10
28.575843
 20
45.428247
 30
0.0
 10
28.887640
 20
45.365208
 30
0.0
 10
29.191302
 20
45.296812
 30
0.0
 10
29.486920
 20
45.223302
 30
0.0
 10
29.774582
 20
45.144920
 30
0.0
 10
30.054381
 20
45.061911
 30
0.0
 10
30.326405
 20
44.974518
 30
0.0
 10
30.590746
 20
44.882985
 30
0.0
 10
30.847493
 20
44.787555
 30
0.0
 10
31.096737
 20
44.688472
 30
0.0
 10
31.338567
 20
44.585979
 30
0.0
 10
31.573075
 20
44.480320
 30
0.0
 10
31.800350
 20
44.371738
 30
0.0
 10
32.020483
 20
44.260478
 30
0.0
 10
32.233563
 20
44.146782
 30
0.0
 10
32.439682
 20
44.030894
 30
0.0
 10
32.638929
 20
43.913058
 30
0.0
 10
32.831395
 20
43.793517
 30
0.0
 10
33.017170
 20
43.672514
 30
0.0
 10
33.196344
 20
43.550294
 30
0.0
 10
33.369007
 20
43.427100
 30
0.0
 10
33.535250
 20
43.303175
 30
0.0
 10
33.848835
 20
43.054107
 30
0.0
 10
34.137822
 20
42.805039
 30
0.0
 10
34.402932
 20
42.557920
 30
0.0
 10
34.644888
 20
42.314698
 30
0.0
 10
34.864411
 20
42.077320
 30
0.0
 10
35.062223
 20
41.847736
 30
0.0
 10
35.239046
 20
41.627894
 30
0.0
 10
35.395603
 20
41.419742
 30
0.0
 10
35.532614
 20
41.225229
 30
0.0
 10
35.650803
 20
41.046303
 30
0.0
 10
35.750891
 20
40.884913
 30
0.0
 10
35.833600
 20
40.743006
 30
0.0
 10
35.899652
 20
40.622531
 30
0.0
 10
35.984674
 20
40.453672
 30
0.0
 10
36.011731
 20
40.393921
 30
0.0
 10
36.022331
 20
40.520203
 30
0.0
 10
36.031674
 20
40.671879
 30
0.0
 10
36.040240
 20
40.877087
 30
0.0
 10
36.045423
 20
41.131711
 30
0.0
 10
36.044619
 20
41.431630
 30
0.0
 10
36.035223
 20
41.772729
 30
0.0
 10
36.014629
 20
42.150889
 30
0.0
 10
35.980234
 20
42.561992
 30
0.0
 10
35.929432
 20
43.001920
 30
0.0
 10
35.897064
 20
43.231407
 30
0.0
 10
35.859618
 20
43.466556
 30
0.0
 10
35.816768
 20
43.706852
 30
0.0
 10
35.768188
 20
43.951781
 30
0.0
 10
35.713553
 20
44.200828
 30
0.0
 10
35.652537
 20
44.453478
 30
0.0
 10
35.584814
 20
44.709216
 30
0.0
 10
35.510060
 20
44.967528
 30
0.0
 10
35.427947
 20
45.227899
 30
0.0
 10
35.338151
 20
45.489814
 30
0.0
 10
35.240347
 20
45.752759
 30
0.0
 10
35.134207
 20
46.016218
 30
0.0
 10
35.019408
 20
46.279678
 30
0.0
 10
34.895623
 20
46.542622
 30
0.0
 10
34.762527
 20
46.804538
 30
0.0
 10
34.619793
 20
47.064909
 30
0.0
 10
34.467097
 20
47.323221
 30
0.0
 10
34.304113
 20
47.578959
 30
0.0
 10
34.130515
 20
47.831609
 30
0.0
 10
33.945978
 20
48.080656
 30
0.0
 10
33.750176
 20
48.325584
 30
0.0
 10
33.542783
 20
48.565881
 30
0.0
 10
33.323474
 20
48.801030
 30
0.0
 10
33.091923
 20
49.030516
 30
0.0
 10
32.847805
 20
49.253826
 30
0.0
 10
32.590794
 20
49.470445
 30
0.0
 10
32.320564
 20
49.679857
 30
0.0
 10
32.036790
 20
49.881548
 30
0.0
 10
31.739146
 20
50.075003
 30
0.0
 10
31.427307
 20
50.259707
 30
0.0
 10
31.100946
 20
50.435147
 30
0.0
 10
30.759739
 20
50.600806
 30
0.0
 10
30.403360
 20
50.756171
 30
0.0
 10
30.031483
 20
50.900726
 30
0.0
 10
29.643783
 20
51.033957
 30
0.0
 10
29.239934
 20
51.155349
 30
0.0
 10
28.819609
 20
51.264388
 30
0.0
 10
28.382485
 20
51.360558
 30
0.0
 10
27.928235
 20
51.443344
 30
0.0
 10
27.456533
 20
51.512233
 30
0.0
 10
26.967054
 20
51.566710
 30
0.0
 10
26.459473
 20
51.606259
 30
0.0
 10
25.933463
 20
51.630365
 30
0.0
 10
25.388700
 20
51.638515
 30
0.0
 10
24.843936
 20
51.630365
 30
0.0
 10
24.317926
 20
51.606259
 30
0.0
 10
23.810344
 20
51.566710
 30
0.0
 10
23.320865
 20
51.512233
 30
0.0
 10
22.849164
 20
51.443344
 30
0.0
 10
22.394913
 20
51.360558
 30
0.0
 10
21.957788
 20
51.264388
 30
0.0
 10
21.537464
 20
51.155349
 30
0.0
 10
21.133614
 20
51.033957
 30
0.0
 10
20.745914
 20
50.900726
 30
0.0
 10
20.374037
 20
50.756171
 30
0.0
 10
20.017657
 20
50.600806
 30
0.0
 10
19.676450
 20
50.435147
 30
0.0
 10
19.350090
 20
50.259707
 30
0.0
 10
19.038250
 20
50.075002
 30
0.0
 10
18.740606
 20
49.881547
 30
0.0
 10
18.456832
 20
49.679856
 30
0.0
 10
18.186602
 20
49.470444
 30
0.0
 10
17.929591
 20
49.253826
 30
0.0
 10
17.685472
 20
49.030516
 30
0.0
 10
17.453921
 20
48.801029
 30
0.0
 10
17.234612
 20
48.565880
 30
0.0
 10
17.027219
 20
48.325584
 30
0.0
 10
16.831417
 20
48.080655
 30
0.0
 10
16.646879
 20
47.831608
 30
0.0
 10
16.473281
 20
47.578958
 30
0.0
 10
16.310297
 20
47.323220
 30
0.0
 10
16.157601
 20
47.064908
 30
0.0
 10
16.014867
 20
46.804537
 30
0.0
 10
15.881771
 20
46.542621
 30
0.0
 10
15.757985
 20
46.279677
 30
0.0
 10
15.643186
 20
46.016217
 30
0.0
 10
15.537046
 20
45.752758
 30
0.0
 10
15.439242
 20
45.489813
 30
0.0
 10
15.349446
 20
45.227898
 30
0.0
 10
15.267333
 20
44.967527
 30
0.0
 10
15.192578
 20
44.709215
 30
0.0
 10
15.124856
 20
44.453477
 30
0.0
 10
15.063840
 20
44.200827
 30
0.0
 10
15.009204
 20
43.951780
 30
0.0
 10
14.960624
 20
43.706851
 30
0.0
 10
14.917774
 20
43.466555
 30
0.0
 10
14.880328
 20
43.231406
 30
0.0
 10
14.847960
 20
43.001919
 30
0.0
 10
14.797158
 20
42.561991
 30
0.0
 10
14.762763
 20
42.150888
 30
0.0
 10
14.742169
 20
41.772728
 30
0.0
 10
14.732772
 20
41.431629
 30
0.0
 10
14.731968
 20
41.131710
 30
0.0
 10
14.737151
 20
40.877087
 30
0.0
 10
14.745717
 20
40.671878
 30
0.0
 10
14.755060
 20
40.520203
 30
0.0
 10
14.765661
 20
40.393921
 30
0.0
 10
14.765661
 20
40.393921
 30
0.0
  0
ENDSEC
  0
SECTION
  2
OBJECTS
  0
DICTIONARY
  5
C
330
0
100
AcDbDictionary
  3
ACAD_GROUP
350
D
  3
ACAD_MLINESTYLE
350
17
  0
DICTIONARY
  5
D
330
C
100
AcDbDictionary
  0
DICTIONARY
  5
1A
330
C
100
AcDbDictionary
  0
DICTIONARY
  5
17
330
C
100
AcDbDictionary
  3
STANDARD
350
18
  0
DICTIONARY
  5
19
330
C
100
AcDbDictionary
  0
ENDSEC
  0
EOF
