  0
SECTION
  2
HEADER
  9
$ACADVER
  1
AC1014
  9
$HANDSEED
  5
FFFF
  9
$MEASUREMENT
 70
     1
  0
ENDSEC
  0
SECTION
  2
TABLES
  0
TABLE
  2
VPORT
  5
8
330
0
100
AcDbSymbolTable
 70
     4
  0
VPORT
  5
2E
330
8
100
AcDbSymbolTableRecord
100
AcDbViewportTableRecord
  2
*ACTIVE
 70
     0
 10
0.0
 20
0.0
 11
1.0
 21
1.0
 12
210.0
 22
148.5
 13
0.0
 23
0.0
 14
10.0
 24
10.0
 15
10.0
 25
10.0
 16
0.0
 26
0.0
 36
1.0
 17
0.0
 27
0.0
 37
0.0
 40
341.0
 41
1.24
 42
50.0
 43
0.0
 44
0.0
 50
0.0
 51
0.0
 71
     0
 72
   100
 73
     1
 74
     3
 75
     0
 76
     0
 77
     0
 78
     0
  0
ENDTAB
  0
TABLE
  2
LTYPE
  5
5
330
0
100
AcDbSymbolTable
 70
     1
  0
LTYPE
  5
14
330
5
100
AcDbSymbolTableRecord
100
AcDbLinetypeTableRecord
  2
BYBLOCK
 70
     0
  3

 72
    65
 73
     0
 40
0.0
  0
LTYPE
  5
15
330
5
100
AcDbSymbolTableRecord
100
AcDbLinetypeTableRecord
  2
BYLAYER
 70
     0
  3

 72
    65
 73
     0
 40
0.0
  0
LTYPE
  5
16
330
5
100
AcDbSymbolTableRecord
100
AcDbLinetypeTableRecord
  2
CONTINUOUS
 70
     0
  3
Solid line
 72
    65
 73
     0
 40
0.0
  0
ENDTAB
  0
TABLE
  2
LAYER
  5
2
100
AcDbSymbolTable
 70
7
  0
LAYER
  5
50
100
AcDbSymbolTableRecord
100
AcDbLayerTableRecord
  2
0
 70
0
  6
CONTINUOUS
  0
LAYER
  5
51
100
AcDbSymbolTableRecord
100
AcDbLayerTableRecord
  2
Original
 70
0
  6
CONTINUOUS
  0
LAYER
  5
52
100
AcDbSymbolTableRecord
100
AcDbLayerTableRecord
  2
CutterBase
 70
0
  6
CONTINUOUS
  0
LAYER
  5
53
100
AcDbSymbolTableRecord
100
AcDbLayerTableRecord
  2
CutterOutline
 70
0
  6
CONTINUOUS
  0
LAYER
  5
54
100
AcDbSymbolTableRecord
100
AcDbLayerTableRecord
  2
Heart
 70
0
  6
CONTINUOUS
  0
LAYER
  5
55
100
AcDbSymbolTableRecord
100
AcDbLayerTableRecord
  2
Face
 70
0
  6
CONTINUOUS
  0
LAYER
  5
56
100
AcDbSymbolTableRecord
100
AcDbLayerTableRecord
  2
Eyes
 70
0
  6
CONTINUOUS
  0
ENDTAB
  0
TABLE
  2
STYLE
  5
3
330
0
100
AcDbSymbolTable
 70
     1
  0
STYLE
  5
11
330
3
100
AcDbSymbolTableRecord
100
AcDbTextStyleTableRecord
  2
STANDARD
 70
     0
 40
0.0
 41
1.0
 50
0.0
 71
     0
 42
2.5
  3
txt
  4

  0
ENDTAB
  0
TABLE
  2
VIEW
  5
6
330
0
100
AcDbSymbolTable
 70
     0
  0
ENDTAB
  0
TABLE
  2
UCS
  5
7
330
0
100
AcDbSymbolTable
 70
     0
  0
ENDTAB
  0
TABLE
  2
APPID
  5
9
330
0
100
AcDbSymbolTable
 70
     2
  0
APPID
  5
12
330
9
100
AcDbSymbolTableRecord
100
AcDbRegAppTableRecord
  2
ACAD
 70
     0
  0
ENDTAB
  0
TABLE
  2
DIMSTYLE
  5
A
330
0
100
AcDbSymbolTable
 70
     1
  0
DIMSTYLE
105
27
330
A
100
AcDbSymbolTableRecord
100
AcDbDimStyleTableRecord
  2
ISO-25
 70
     0
  3

  4

  5

  6

  7

 40
1.0
 41
2.5
 42
0.625
 43
3.75
 44
1.25
 45
0.0
 46
0.0
 47
0.0
 48
0.0
140
2.5
141
2.5
142
0.0
143
0.03937007874016
144
1.0
145
0.0
146
1.0
147
0.625
 71
     0
 72
     0
 73
     0
 74
     0
 75
     0
 76
     0
 77
     1
 78
     8
170
     0
171
     3
172
     1
173
     0
174
     0
175
     0
176
     0
177
     0
178
     0
270
     2
271
     2
272
     2
273
     2
274
     3
340
11
275
     0
280
     0
281
     0
282
     0
283
     0
284
     8
285
     0
286
     0
287
     3
288
     0
  0
ENDTAB
  0
TABLE
  2
BLOCK_RECORD
  5
1
330
0
100
AcDbSymbolTable
 70
     1
  0
BLOCK_RECORD
  5
1F
330
1
100
AcDbSymbolTableRecord
100
AcDbBlockTableRecord
  2
*MODEL_SPACE
  0
BLOCK_RECORD
  5
1B
330
1
100
AcDbSymbolTableRecord
100
AcDbBlockTableRecord
  2
*PAPER_SPACE
  0
ENDTAB
  0
ENDSEC
  0
SECTION
  2
BLOCKS
  0
BLOCK
  5
20
330
1F
100
AcDbEntity
  8
0
100
AcDbBlockBegin
  2
*MODEL_SPACE
 70
     0
 10
0.0
 20
0.0
 30
0.0
  3
*MODEL_SPACE
  1

  0
ENDBLK
  5
21
330
1F
100
AcDbEntity
  8
0
100
AcDbBlockEnd
  0
BLOCK
  5
1C
330
1B
100
AcDbEntity
 67
     1
  8
0
100
AcDbBlockBegin
  2
*PAPER_SPACE
  1

  0
ENDBLK
  5
1D
330
1B
100
AcDbEntity
 67
     1
  8
0
100
AcDbBlockEnd
  0
ENDSEC
  0
SECTION
  2
ENTITIES
  0
LWPOLYLINE
  5
100
100
AcDbEntity
  8
CutterBase
 62
7
100
AcDbPolyline
 90
143
 70
0
 10
58.121889
 20
69.568535
 30
0.0
 10
56.822860
 20
69.547978
 30
0.0
 10
55.528575
 20
69.448997
 30
0.0
 10
54.242875
 20
69.273427
 30
0.0
 10
52.969603
 20
69.023103
 30
0.0
 10
51.712598
 20
68.699861
 30
0.0
 10
50.475704
 20
68.305537
 30
0.0
 10
49.262763
 20
67.841965
 30
0.0
 10
48.077615
 20
67.310982
 30
0.0
 10
46.924102
 20
66.714424
 30
0.0
 10
45.806067
 20
66.054125
 30
0.0
 10
44.727350
 20
65.331921
 30
0.0
 10
43.691795
 20
64.549648
 30
0.0
 10
42.703241
 20
63.709142
 30
0.0
 10
41.765532
 20
62.812238
 30
0.0
 10
40.882509
 20
61.860771
 30
0.0
 10
40.058013
 20
60.856577
 30
0.0
 10
39.420295
 20
61.621379
 30
0.0
 10
38.747687
 20
62.355149
 30
0.0
 10
38.041993
 20
63.057231
 30
0.0
 10
37.305016
 20
63.726968
 30
0.0
 10
36.538560
 20
64.363703
 30
0.0
 10
35.744427
 20
64.966777
 30
0.0
 10
34.924421
 20
65.535534
 30
0.0
 10
34.080346
 20
66.069318
 30
0.0
 10
32.327202
 20
67.029332
 30
0.0
 10
30.499421
 20
67.841563
 30
0.0
 10
28.611432
 20
68.500753
 30
0.0
 10
26.677661
 20
69.001643
 30
0.0
 10
24.712535
 20
69.338977
 30
0.0
 10
23.722723
 20
69.444667
 30
0.0
 10
22.730483
 20
69.507496
 30
0.0
 10
21.737618
 20
69.526806
 30
0.0
 10
20.745931
 20
69.501942
 30
0.0
 10
19.757227
 20
69.432245
 30
0.0
 10
18.773307
 20
69.317058
 30
0.0
 10
17.795977
 20
69.155724
 30
0.0
 10
16.827039
 20
68.947586
 30
0.0
 10
15.868296
 20
68.691986
 30
0.0
 10
14.921553
 20
68.388268
 30
0.0
 10
13.988612
 20
68.035774
 30
0.0
 10
13.071277
 20
67.633847
 30
0.0
 10
12.171352
 20
67.181830
 30
0.0
 10
11.290639
 20
66.679065
 30
0.0
 10
10.014597
 20
65.931152
 30
0.0
 10
8.791909
 20
65.095518
 30
0.0
 10
7.627518
 20
64.177578
 30
0.0
 10
6.526368
 20
63.182747
 30
0.0
 10
5.493403
 20
62.116440
 30
0.0
 10
4.533565
 20
60.984072
 30
0.0
 10
3.651798
 20
59.791059
 30
0.0
 10
2.853045
 20
58.542816
 30
0.0
 10
2.142251
 20
57.244758
 30
0.0
 10
1.524358
 20
55.902301
 30
0.0
 10
1.004310
 20
54.520859
 30
0.0
 10
0.587050
 20
53.105848
 30
0.0
 10
0.277522
 20
51.662683
 30
0.0
 10
0.080670
 20
50.196779
 30
0.0
 10
0.001435
 20
48.713552
 30
0.0
 10
0.044763
 20
47.218417
 30
0.0
 10
0.083232
 20
45.438762
 30
0.0
 10
0.229636
 20
43.672241
 30
0.0
 10
0.480298
 20
41.922259
 30
0.0
 10
0.831543
 20
40.192223
 30
0.0
 10
1.279695
 20
38.485538
 30
0.0
 10
1.821079
 20
36.805610
 30
0.0
 10
2.452018
 20
35.155845
 30
0.0
 10
3.168838
 20
33.539649
 30
0.0
 10
3.967863
 20
31.960428
 30
0.0
 10
4.845417
 20
30.421587
 30
0.0
 10
5.797824
 20
28.926533
 30
0.0
 10
6.821409
 20
27.478671
 30
0.0
 10
7.912495
 20
26.081408
 30
0.0
 10
9.067409
 20
24.738148
 30
0.0
 10
10.282472
 20
23.452298
 30
0.0
 10
11.554011
 20
22.227264
 30
0.0
 10
13.130711
 20
20.671910
 30
0.0
 10
14.741892
 20
19.156257
 30
0.0
 10
16.384412
 20
17.676833
 30
0.0
 10
18.055124
 20
16.230170
 30
0.0
 10
21.468545
 20
13.421240
 30
0.0
 10
24.956996
 20
10.701705
 30
0.0
 10
28.495315
 20
8.043802
 30
0.0
 10
32.058342
 20
5.419769
 30
0.0
 10
35.620917
 20
2.801844
 30
0.0
 10
39.157879
 20
0.162264
 30
0.0
 10
39.583655
 20
0.045367
 30
0.0
 10
39.990202
 20
0.000886
 30
0.0
 10
40.379327
 20
0.021476
 30
0.0
 10
40.752838
 20
0.099793
 30
0.0
 10
41.112542
 20
0.228493
 30
0.0
 10
41.460244
 20
0.400232
 30
0.0
 10
42.126876
 20
0.843446
 30
0.0
 10
42.767190
 20
1.370682
 30
0.0
 10
43.395643
 20
1.923185
 30
0.0
 10
44.026691
 20
2.442201
 30
0.0
 10
44.674790
 20
2.868976
 30
0.0
 10
48.873192
 20
6.034033
 30
0.0
 10
53.108691
 20
9.202187
 30
0.0
 10
57.315791
 20
12.426921
 30
0.0
 10
59.388223
 20
14.077218
 30
0.0
 10
61.428994
 20
15.761718
 30
0.0
 10
63.429916
 20
17.487103
 30
0.0
 10
65.382803
 20
19.260061
 30
0.0
 10
67.279467
 20
21.087276
 30
0.0
 10
69.111721
 20
22.975434
 30
0.0
 10
70.871378
 20
24.931219
 30
0.0
 10
72.550251
 20
26.961319
 30
0.0
 10
74.140152
 20
29.072417
 30
0.0
 10
75.632894
 20
31.271199
 30
0.0
 10
76.481578
 20
32.815808
 30
0.0
 10
77.252713
 20
34.412039
 30
0.0
 10
77.942120
 20
36.053323
 30
0.0
 10
78.545614
 20
37.733092
 30
0.0
 10
79.059016
 20
39.444777
 30
0.0
 10
79.478144
 20
41.181810
 30
0.0
 10
79.798815
 20
42.937623
 30
0.0
 10
80.016848
 20
44.705648
 30
0.0
 10
80.128062
 20
46.479315
 30
0.0
 10
80.128275
 20
48.252056
 30
0.0
 10
80.013305
 20
50.017304
 30
0.0
 10
79.778970
 20
51.768488
 30
0.0
 10
79.421089
 20
53.499043
 30
0.0
 10
78.935480
 20
55.202397
 30
0.0
 10
78.317962
 20
56.871984
 30
0.0
 10
77.564353
 20
58.501235
 30
0.0
 10
76.801389
 20
59.756220
 30
0.0
 10
75.951258
 20
60.950000
 30
0.0
 10
75.019719
 20
62.079597
 30
0.0
 10
74.012531
 20
63.142033
 30
0.0
 10
72.935452
 20
64.134329
 30
0.0
 10
71.794242
 20
65.053506
 30
0.0
 10
70.594660
 20
65.896587
 30
0.0
 10
69.342465
 20
66.660593
 30
0.0
 10
68.043414
 20
67.342546
 30
0.0
 10
66.703269
 20
67.939466
 30
0.0
 10
65.327786
 20
68.448377
 30
0.0
 10
63.922726
 20
68.866299
 30
0.0
 10
62.493848
 20
69.190254
 30
0.0
 10
61.046909
 20
69.417264
 30
0.0
 10
59.587670
 20
69.544350
 30
0.0
 10
58.121889
 20
69.568535
 30
0.0
 10
58.121889
 20
69.568535
 30
0.0
  0
LWPOLYLINE
  5
101
100
AcDbEntity
  8
CutterOutline
 62
7
100
AcDbPolyline
 90
144
 70
0
 10
58.855271
 20
69.569749
 30
0.0
 10
58.122154
 20
69.568646
 30
0.0
 10
56.823125
 20
69.548089
 30
0.0
 10
55.528841
 20
69.449109
 30
0.0
 10
54.243141
 20
69.273538
 30
0.0
 10
52.969868
 20
69.023215
 30
0.0
 10
51.712864
 20
68.699973
 30
0.0
 10
50.475970
 20
68.305648
 30
0.0
 10
49.263028
 20
67.842077
 30
0.0
 10
48.077880
 20
67.311094
 30
0.0
 10
46.924367
 20
66.714535
 30
0.0
 10
45.806332
 20
66.054236
 30
0.0
 10
44.727616
 20
65.332033
 30
0.0
 10
43.692060
 20
64.549760
 30
0.0
 10
42.703507
 20
63.709254
 30
0.0
 10
41.765797
 20
62.812349
 30
0.0
 10
40.882774
 20
61.860883
 30
0.0
 10
40.058278
 20
60.856689
 30
0.0
 10
39.420560
 20
61.621490
 30
0.0
 10
38.747953
 20
62.355261
 30
0.0
 10
38.042259
 20
63.057343
 30
0.0
 10
37.305282
 20
63.727080
 30
0.0
 10
36.538825
 20
64.363814
 30
0.0
 10
35.744692
 20
64.966889
 30
0.0
 10
34.924686
 20
65.535646
 30
0.0
 10
34.080611
 20
66.069429
 30
0.0
 10
32.327467
 20
67.029444
 30
0.0
 10
30.499687
 20
67.841675
 30
0.0
 10
28.611697
 20
68.500865
 30
0.0
 10
26.677926
 20
69.001755
 30
0.0
 10
24.712800
 20
69.339088
 30
0.0
 10
23.722989
 20
69.444778
 30
0.0
 10
22.730748
 20
69.507607
 30
0.0
 10
21.737883
 20
69.526918
 30
0.0
 10
20.746197
 20
69.502053
 30
0.0
 10
19.757492
 20
69.432356
 30
0.0
 10
18.773573
 20
69.317169
 30
0.0
 10
17.796242
 20
69.155835
 30
0.0
 10
16.827304
 20
68.947697
 30
0.0
 10
15.868562
 20
68.692098
 30
0.0
 10
14.921818
 20
68.388380
 30
0.0
 10
13.988877
 20
68.035886
 30
0.0
 10
13.071542
 20
67.633958
 30
0.0
 10
12.171617
 20
67.181941
 30
0.0
 10
11.290904
 20
66.679176
 30
0.0
 10
10.014862
 20
65.931264
 30
0.0
 10
8.792173
 20
65.095629
 30
0.0
 10
7.627782
 20
64.177689
 30
0.0
 10
6.526631
 20
63.182857
 30
0.0
 10
5.493664
 20
62.116549
 30
0.0
 10
4.533824
 20
60.984181
 30
0.0
 10
3.652055
 20
59.791168
 30
0.0
 10
2.853301
 20
58.542924
 30
0.0
 10
2.142505
 20
57.244865
 30
0.0
 10
1.524611
 20
55.902407
 30
0.0
 10
1.004561
 20
54.520964
 30
0.0
 10
0.587300
 20
53.105953
 30
0.0
 10
0.277771
 20
51.662787
 30
0.0
 10
0.080917
 20
50.196883
 30
0.0
 10
0.001682
 20
48.713656
 30
0.0
 10
0.045010
 20
47.218521
 30
0.0
 10
0.083474
 20
45.438867
 30
0.0
 10
0.229864
 20
43.672351
 30
0.0
 10
0.480505
 20
41.922377
 30
0.0
 10
0.831723
 20
40.192350
 30
0.0
 10
1.279843
 20
38.485677
 30
0.0
 10
1.821191
 20
36.805762
 30
0.0
 10
2.452092
 20
35.156012
 30
0.0
 10
3.168873
 20
33.539830
 30
0.0
 10
3.967858
 20
31.960623
 30
0.0
 10
4.845374
 20
30.421797
 30
0.0
 10
5.797745
 20
28.926756
 30
0.0
 10
6.821297
 20
27.478906
 30
0.0
 10
7.912357
 20
26.081652
 30
0.0
 10
9.067249
 20
24.738400
 30
0.0
 10
10.282300
 20
23.452555
 30
0.0
 10
11.553834
 20
22.227522
 30
0.0
 10
13.130538
 20
20.672167
 30
0.0
 10
14.741734
 20
19.156509
 30
0.0
 10
16.384275
 20
17.677078
 30
0.0
 10
18.055016
 20
16.230405
 30
0.0
 10
21.468508
 20
13.421452
 30
0.0
 10
24.957040
 20
10.701890
 30
0.0
 10
28.495440
 20
8.043960
 30
0.0
 10
32.058538
 20
5.419904
 30
0.0
 10
35.621163
 20
2.801962
 30
0.0
 10
39.158144
 20
0.162376
 30
0.0
 10
39.583916
 20
0.045476
 30
0.0
 10
39.990452
 20
0.000987
 30
0.0
 10
40.379560
 20
0.021565
 30
0.0
 10
40.753049
 20
0.099867
 30
0.0
 10
41.112726
 20
0.228548
 30
0.0
 10
41.460399
 20
0.400266
 30
0.0
 10
42.126966
 20
0.843435
 30
0.0
 10
42.767216
 20
1.370626
 30
0.0
 10
43.395613
 20
1.923090
 30
0.0
 10
44.026621
 20
2.442078
 30
0.0
 10
44.674705
 20
2.868842
 30
0.0
 10
48.873122
 20
6.033909
 30
0.0
 10
53.108661
 20
9.202091
 30
0.0
 10
57.315817
 20
12.426864
 30
0.0
 10
59.388281
 20
14.077185
 30
0.0
 10
61.429084
 20
15.761707
 30
0.0
 10
63.430039
 20
17.487115
 30
0.0
 10
65.382958
 20
19.260095
 30
0.0
 10
67.279651
 20
21.087331
 30
0.0
 10
69.111932
 20
22.975507
 30
0.0
 10
70.871611
 20
24.931308
 30
0.0
 10
72.550501
 20
26.961420
 30
0.0
 10
74.140413
 20
29.072526
 30
0.0
 10
75.633159
 20
31.271311
 30
0.0
 10
76.481844
 20
32.815920
 30
0.0
 10
77.252980
 20
34.412151
 30
0.0
 10
77.942386
 20
36.053434
 30
0.0
 10
78.545881
 20
37.733203
 30
0.0
 10
79.059283
 20
39.444889
 30
0.0
 10
79.478411
 20
41.181922
 30
0.0
 10
79.799082
 20
42.937735
 30
0.0
 10
80.017115
 20
44.705759
 30
0.0
 10
80.128329
 20
46.479426
 30
0.0
 10
80.128542
 20
48.252167
 30
0.0
 10
80.013571
 20
50.017415
 30
0.0
 10
79.779237
 20
51.768599
 30
0.0
 10
79.421356
 20
53.499153
 30
0.0
 10
78.935748
 20
55.202508
 30
0.0
 10
78.318230
 20
56.872095
 30
0.0
 10
77.564621
 20
58.501346
 30
0.0
 10
76.826846
 20
59.718025
 30
0.0
 10
76.007093
 20
60.877356
 30
0.0
 10
75.110599
 20
61.976629
 30
0.0
 10
74.142600
 20
63.013137
 30
0.0
 10
73.108332
 20
63.984172
 30
0.0
 10
72.013032
 20
64.887024
 30
0.0
 10
70.861936
 20
65.718987
 30
0.0
 10
69.660281
 20
66.477352
 30
0.0
 10
68.413302
 20
67.159410
 30
0.0
 10
67.126238
 20
67.762454
 30
0.0
 10
65.804323
 20
68.283775
 30
0.0
 10
64.452794
 20
68.720665
 30
0.0
 10
63.076888
 20
69.070415
 30
0.0
 10
61.681842
 20
69.330318
 30
0.0
 10
60.272890
 20
69.497666
 30
0.0
 10
58.855271
 20
69.569749
 30
0.0
 10
58.855271
 20
69.569749
 30
0.0
  0
LWPOLYLINE
  5
102
100
AcDbEntity
  8
CutterOutline
 62
7
100
AcDbPolyline
 90
133
 70
0
 10
58.911493
 20
68.034063
 30
0.0
 10
60.448840
 20
67.941947
 30
0.0
 10
61.976317
 20
67.728091
 30
0.0
 10
63.485660
 20
67.396821
 30
0.0
 10
64.968608
 20
66.952464
 30
0.0
 10
66.416897
 20
66.399344
 30
0.0
 10
67.822264
 20
65.741787
 30
0.0
 10
69.176447
 20
64.984120
 30
0.0
 10
70.471183
 20
64.130667
 30
0.0
 10
71.698210
 20
63.185754
 30
0.0
 10
72.849265
 20
62.153707
 30
0.0
 10
73.916084
 20
61.038852
 30
0.0
 10
74.890406
 20
59.845514
 30
0.0
 10
75.763968
 20
58.578018
 30
0.0
 10
76.528506
 20
57.240692
 30
0.0
 10
77.175759
 20
55.837859
 30
0.0
 10
77.697463
 20
54.373846
 30
0.0
 10
78.094405
 20
52.733430
 30
0.0
 10
78.380367
 20
51.077169
 30
0.0
 10
78.558212
 20
49.409940
 30
0.0
 10
78.630802
 20
47.736620
 30
0.0
 10
78.601000
 20
46.062085
 30
0.0
 10
78.471669
 20
44.391213
 30
0.0
 10
78.245673
 20
42.728879
 30
0.0
 10
77.925874
 20
41.079960
 30
0.0
 10
77.515135
 20
39.449334
 30
0.0
 10
77.016319
 20
37.841876
 30
0.0
 10
76.432289
 20
36.262463
 30
0.0
 10
75.765909
 20
34.715972
 30
0.0
 10
75.020040
 20
33.207280
 30
0.0
 10
74.197547
 20
31.741262
 30
0.0
 10
73.301291
 20
30.322796
 30
0.0
 10
72.334137
 20
28.956759
 30
0.0
 10
70.655960
 20
26.895985
 30
0.0
 10
68.903462
 20
24.910427
 30
0.0
 10
67.083376
 20
22.993615
 30
0.0
 10
65.202436
 20
21.139082
 30
0.0
 10
63.267375
 20
19.340361
 30
0.0
 10
61.284927
 20
17.590983
 30
0.0
 10
59.261825
 20
15.884483
 30
0.0
 10
57.204804
 20
14.214391
 30
0.0
 10
53.015935
 20
10.957565
 30
0.0
 10
48.772188
 20
7.768765
 30
0.0
 10
44.527434
 20
4.596249
 30
0.0
 10
40.335539
 20
1.388279
 30
0.0
 10
39.899104
 20
1.470486
 30
0.0
 10
39.461756
 20
1.669350
 30
0.0
 10
39.023697
 20
1.955342
 30
0.0
 10
38.585129
 20
2.298934
 30
0.0
 10
37.707275
 20
3.040805
 30
0.0
 10
37.268393
 20
3.380026
 30
0.0
 10
36.829811
 20
3.658734
 30
0.0
 10
33.248615
 20
6.369738
 30
0.0
 10
29.636797
 20
9.058691
 30
0.0
 10
26.030716
 20
11.762568
 30
0.0
 10
22.466728
 20
14.518340
 30
0.0
 10
18.981194
 20
17.362981
 30
0.0
 10
17.279209
 20
18.830182
 30
0.0
 10
15.610471
 20
20.333465
 30
0.0
 10
13.979526
 20
21.877452
 30
0.0
 10
12.390919
 20
23.466765
 30
0.0
 10
10.849193
 20
25.106024
 30
0.0
 10
9.358894
 20
26.799853
 30
0.0
 10
8.357494
 20
27.970089
 30
0.0
 10
7.420019
 20
29.189395
 30
0.0
 10
6.547603
 20
30.454262
 30
0.0
 10
5.741379
 20
31.761180
 30
0.0
 10
5.002482
 20
33.106642
 30
0.0
 10
4.332045
 20
34.487138
 30
0.0
 10
3.731202
 20
35.899160
 30
0.0
 10
3.201087
 20
37.339199
 30
0.0
 10
2.742834
 20
38.803747
 30
0.0
 10
2.357576
 20
40.289294
 30
0.0
 10
2.046448
 20
41.792332
 30
0.0
 10
1.810583
 20
43.309353
 30
0.0
 10
1.651115
 20
44.836847
 30
0.0
 10
1.569178
 20
46.371306
 30
0.0
 10
1.565905
 20
47.909221
 30
0.0
 10
1.642432
 20
49.447084
 30
0.0
 10
1.733574
 20
50.852245
 30
0.0
 10
1.946293
 20
52.227978
 30
0.0
 10
2.274242
 20
53.570641
 30
0.0
 10
2.711073
 20
54.876588
 30
0.0
 10
3.250441
 20
56.142176
 30
0.0
 10
3.885998
 20
57.363762
 30
0.0
 10
4.611398
 20
58.537700
 30
0.0
 10
5.420294
 20
59.660349
 30
0.0
 10
6.306340
 20
60.728063
 30
0.0
 10
7.263188
 20
61.737199
 30
0.0
 10
8.284493
 20
62.684113
 30
0.0
 10
9.363907
 20
63.565161
 30
0.0
 10
10.495085
 20
64.376699
 30
0.0
 10
11.671678
 20
65.115084
 30
0.0
 10
12.887340
 20
65.776672
 30
0.0
 10
14.135726
 20
66.357818
 30
0.0
 10
14.997208
 20
66.727790
 30
0.0
 10
15.870710
 20
67.049596
 30
0.0
 10
16.754708
 20
67.324030
 30
0.0
 10
17.647673
 20
67.551884
 30
0.0
 10
18.548081
 20
67.733951
 30
0.0
 10
19.454406
 20
67.871023
 30
0.0
 10
20.365120
 20
67.963894
 30
0.0
 10
21.278698
 20
68.013356
 30
0.0
 10
23.108341
 20
67.985224
 30
0.0
 10
24.931127
 20
67.792969
 30
0.0
 10
26.734845
 20
67.442934
 30
0.0
 10
28.507286
 20
66.941462
 30
0.0
 10
30.236242
 20
66.294893
 30
0.0
 10
31.909503
 20
65.509571
 30
0.0
 10
33.514859
 20
64.591837
 30
0.0
 10
35.040103
 20
63.548033
 30
0.0
 10
36.473024
 20
62.384503
 30
0.0
 10
37.801413
 20
61.107587
 30
0.0
 10
39.013061
 20
59.723628
 30
0.0
 10
40.095760
 20
58.238968
 30
0.0
 10
40.843174
 20
59.358109
 30
0.0
 10
41.662640
 20
60.420093
 30
0.0
 10
42.549544
 20
61.422681
 30
0.0
 10
43.499273
 20
62.363633
 30
0.0
 10
44.507215
 20
63.240711
 30
0.0
 10
45.568755
 20
64.051676
 30
0.0
 10
46.679281
 20
64.794286
 30
0.0
 10
47.834180
 20
65.466305
 30
0.0
 10
49.028837
 20
66.065491
 30
0.0
 10
50.258641
 20
66.589607
 30
0.0
 10
51.518978
 20
67.036412
 30
0.0
 10
52.805234
 20
67.403668
 30
0.0
 10
54.112797
 20
67.689135
 30
0.0
 10
55.437053
 20
67.890574
 30
0.0
 10
56.773389
 20
68.005745
 30
0.0
 10
58.117192
 20
68.032410
 30
0.0
 10
58.911493
 20
68.034075
 30
0.0
 10
58.911493
 20
68.034063
 30
0.0
  0
LWPOLYLINE
  5
103
100
AcDbEntity
  8
Heart
 62
7
100
AcDbPolyline
 90
143
 70
0
 10
58.134052
 20
67.068996
 30
0.0
 10
56.827625
 20
67.045662
 30
0.0
 10
55.529488
 20
66.934024
 30
0.0
 10
54.244132
 20
66.736476
 30
0.0
 10
52.976044
 20
66.455412
 30
0.0
 10
51.729714
 20
66.093226
 30
0.0
 10
50.509630
 20
65.652312
 30
0.0
 10
49.320282
 20
65.135064
 30
0.0
 10
48.166158
 20
64.543876
 30
0.0
 10
47.051747
 20
63.881142
 30
0.0
 10
45.981538
 20
63.149257
 30
0.0
 10
44.960020
 20
62.350613
 30
0.0
 10
43.991682
 20
61.487606
 30
0.0
 10
43.081012
 20
60.562628
 30
0.0
 10
42.232500
 20
59.578075
 30
0.0
 10
41.450634
 20
58.536339
 30
0.0
 10
40.739904
 20
57.439816
 30
0.0
 10
40.474076
 20
56.873677
 30
0.0
 10
40.342558
 20
56.729320
 30
0.0
 10
40.211557
 20
56.664851
 30
0.0
 10
40.080762
 20
56.670831
 30
0.0
 10
39.949862
 20
56.737820
 30
0.0
 10
39.686503
 20
57.017065
 30
0.0
 10
39.144853
 20
57.892310
 30
0.0
 10
38.861587
 20
58.337273
 30
0.0
 10
38.566714
 20
58.686440
 30
0.0
 10
37.476607
 20
60.015106
 30
0.0
 10
36.274523
 20
61.246725
 30
0.0
 10
34.971580
 20
62.375753
 30
0.0
 10
33.578894
 20
63.396649
 30
0.0
 10
32.107583
 20
64.303869
 30
0.0
 10
30.568763
 20
65.091870
 30
0.0
 10
28.973552
 20
65.755109
 30
0.0
 10
27.333067
 20
66.288043
 30
0.0
 10
25.658424
 20
66.685131
 30
0.0
 10
23.960741
 20
66.940828
 30
0.0
 10
22.251136
 20
67.049592
 30
0.0
 10
20.540724
 20
67.005880
 30
0.0
 10
18.840623
 20
66.804149
 30
0.0
 10
17.997913
 20
66.642295
 30
0.0
 10
17.161951
 20
66.438857
 30
0.0
 10
16.334124
 20
66.193143
 30
0.0
 10
15.515823
 20
65.904460
 30
0.0
 10
14.708438
 20
65.572115
 30
0.0
 10
13.913358
 20
65.195415
 30
0.0
 10
12.754279
 20
64.615710
 30
0.0
 10
11.628761
 20
63.961657
 30
0.0
 10
10.542542
 20
63.236792
 30
0.0
 10
9.501358
 20
62.444653
 30
0.0
 10
8.510944
 20
61.588774
 30
0.0
 10
7.577038
 20
60.672693
 30
0.0
 10
6.705377
 20
59.699944
 30
0.0
 10
5.901696
 20
58.674065
 30
0.0
 10
5.171732
 20
57.598592
 30
0.0
 10
4.521222
 20
56.477060
 30
0.0
 10
3.955902
 20
55.313005
 30
0.0
 10
3.481509
 20
54.109965
 30
0.0
 10
3.103779
 20
52.871474
 30
0.0
 10
2.828449
 20
51.601069
 30
0.0
 10
2.661255
 20
50.302286
 30
0.0
 10
2.607934
 20
48.978661
 30
0.0
 10
2.555980
 20
47.471040
 30
0.0
 10
2.581627
 20
45.969930
 30
0.0
 10
2.683728
 20
44.477927
 30
0.0
 10
2.861136
 20
42.997627
 30
0.0
 10
3.112703
 20
41.531627
 30
0.0
 10
3.437283
 20
40.082523
 30
0.0
 10
3.833728
 20
38.652911
 30
0.0
 10
4.300891
 20
37.245387
 30
0.0
 10
4.837626
 20
35.862549
 30
0.0
 10
5.442785
 20
34.506991
 30
0.0
 10
6.115222
 20
33.181311
 30
0.0
 10
6.853789
 20
31.888104
 30
0.0
 10
7.657338
 20
30.629967
 30
0.0
 10
8.524724
 20
29.409496
 30
0.0
 10
9.454799
 20
28.229288
 30
0.0
 10
10.446416
 20
27.091939
 30
0.0
 10
11.946406
 20
25.421299
 30
0.0
 10
13.495136
 20
23.803532
 30
0.0
 10
15.088287
 20
22.234094
 30
0.0
 10
16.721535
 20
20.708437
 30
0.0
 10
18.390561
 20
19.222016
 30
0.0
 10
20.091042
 20
17.770284
 30
0.0
 10
23.569084
 20
14.952706
 30
0.0
 10
27.121090
 20
12.219333
 30
0.0
 10
30.712489
 20
9.533798
 30
0.0
 10
34.308708
 20
6.859733
 30
0.0
 10
37.875176
 20
4.160768
 30
0.0
 10
38.710562
 20
3.506609
 30
0.0
 10
39.127905
 20
3.178048
 30
0.0
 10
39.544691
 20
2.909642
 30
0.0
 10
39.960677
 20
2.747247
 30
0.0
 10
40.168295
 20
2.720135
 30
0.0
 10
40.375622
 20
2.736722
 30
0.0
 10
40.582628
 20
2.802740
 30
0.0
 10
40.789282
 20
2.923922
 30
0.0
 10
40.995555
 20
3.105999
 30
0.0
 10
41.201416
 20
3.354704
 30
0.0
 10
45.213061
 20
6.398258
 30
0.0
 10
49.263471
 20
9.423711
 30
0.0
 10
53.303422
 20
12.476115
 30
0.0
 10
57.283688
 20
15.600522
 30
0.0
 10
59.236056
 20
17.203804
 30
0.0
 10
61.155043
 20
18.841982
 30
0.0
 10
63.034496
 20
20.520686
 30
0.0
 10
64.868263
 20
22.245548
 30
0.0
 10
66.650189
 20
24.022199
 30
0.0
 10
68.374122
 20
25.856270
 30
0.0
 10
70.033908
 20
27.753394
 30
0.0
 10
71.623394
 20
29.719202
 30
0.0
 10
72.557972
 20
31.056895
 30
0.0
 10
73.423375
 20
32.444910
 30
0.0
 10
74.216637
 20
33.878492
 30
0.0
 10
74.934795
 20
35.352889
 30
0.0
 10
75.574882
 20
36.863348
 30
0.0
 10
76.133934
 20
38.405115
 30
0.0
 10
76.608985
 20
39.973437
 30
0.0
 10
76.997071
 20
41.563562
 30
0.0
 10
77.295227
 20
43.170736
 30
0.0
 10
77.500487
 20
44.790207
 30
0.0
 10
77.609887
 20
46.417221
 30
0.0
 10
77.620461
 20
48.047025
 30
0.0
 10
77.529244
 20
49.674867
 30
0.0
 10
77.333272
 20
51.295992
 30
0.0
 10
77.029579
 20
52.905649
 30
0.0
 10
76.615200
 20
54.499083
 30
0.0
 10
76.079273
 20
55.887450
 30
0.0
 10
75.421941
 20
57.216307
 30
0.0
 10
74.651530
 20
58.481183
 30
0.0
 10
73.776365
 20
59.677610
 30
0.0
 10
72.804772
 20
60.801119
 30
0.0
 10
71.745075
 20
61.847241
 30
0.0
 10
70.605601
 20
62.811507
 30
0.0
 10
69.394675
 20
63.689448
 30
0.0
 10
68.120623
 20
64.476595
 30
0.0
 10
66.791769
 20
65.168479
 30
0.0
 10
65.416440
 20
65.760631
 30
0.0
 10
64.002961
 20
66.248582
 30
0.0
 10
62.559657
 20
66.627863
 30
0.0
 10
61.094854
 20
66.894005
 30
0.0
 10
59.616877
 20
67.042539
 30
0.0
 10
58.134052
 20
67.068996
 30
0.0
 10
58.134052
 20
67.068996
 30
0.0
  0
LWPOLYLINE
  5
104
100
AcDbEntity
  8
Face
 62
7
100
AcDbPolyline
 90
114
 70
0
 10
40.088769
 20
46.832768
 30
0.0
 10
40.589881
 20
47.656815
 30
0.0
 10
41.141984
 20
48.475220
 30
0.0
 10
41.746625
 20
49.281425
 30
0.0
 10
42.405348
 20
50.068874
 30
0.0
 10
43.119699
 20
50.831008
 30
0.0
 10
43.891223
 20
51.561271
 30
0.0
 10
44.721466
 20
52.253106
 30
0.0
 10
45.611972
 20
52.899956
 30
0.0
 10
46.564289
 20
53.495262
 30
0.0
 10
47.579960
 20
54.032469
 30
0.0
 10
48.660531
 20
54.505019
 30
0.0
 10
49.807548
 20
54.906355
 30
0.0
 10
51.022556
 20
55.229919
 30
0.0
 10
52.307101
 20
55.469155
 30
0.0
 10
53.662727
 20
55.617505
 30
0.0
 10
55.090980
 20
55.668412
 30
0.0
 10
56.547131
 20
55.617827
 30
0.0
 10
57.979012
 20
55.466884
 30
0.0
 10
59.377010
 20
55.216803
 30
0.0
 10
60.731509
 20
54.868803
 30
0.0
 10
62.032896
 20
54.424104
 30
0.0
 10
63.271558
 20
53.883924
 30
0.0
 10
64.437880
 20
53.249483
 30
0.0
 10
65.522249
 20
52.522000
 30
0.0
 10
66.515049
 20
51.702695
 30
0.0
 10
67.406669
 20
50.792786
 30
0.0
 10
68.187492
 20
49.793493
 30
0.0
 10
68.847907
 20
48.706036
 30
0.0
 10
69.378298
 20
47.531632
 30
0.0
 10
69.769051
 20
46.271503
 30
0.0
 10
70.010554
 20
44.926866
 30
0.0
 10
70.072331
 20
44.223239
 30
0.0
 10
70.093191
 20
43.498942
 30
0.0
 10
70.039675
 20
42.491225
 30
0.0
 10
69.882329
 20
41.530177
 30
0.0
 10
69.625958
 20
40.614817
 30
0.0
 10
69.275367
 20
39.744166
 30
0.0
 10
68.835358
 20
38.917245
 30
0.0
 10
68.310738
 20
38.133075
 30
0.0
 10
67.706309
 20
37.390677
 30
0.0
 10
67.026876
 20
36.689070
 30
0.0
 10
66.277243
 20
36.027277
 30
0.0
 10
65.462215
 20
35.404317
 30
0.0
 10
64.586595
 20
34.819211
 30
0.0
 10
63.655189
 20
34.270981
 30
0.0
 10
62.672800
 20
33.758647
 30
0.0
 10
61.644232
 20
33.281229
 30
0.0
 10
60.574290
 20
32.837748
 30
0.0
 10
59.467779
 20
32.427225
 30
0.0
 10
57.164262
 20
31.701138
 30
0.0
 10
54.772116
 20
31.095131
 30
0.0
 10
52.329775
 20
30.601371
 30
0.0
 10
49.875672
 20
30.212024
 30
0.0
 10
47.448243
 20
29.919255
 30
0.0
 10
45.085920
 20
29.715232
 30
0.0
 10
42.827138
 20
29.592119
 30
0.0
 10
40.710330
 20
29.542082
 30
0.0
 10
38.517649
 20
29.559602
 30
0.0
 10
36.173460
 20
29.651198
 30
0.0
 10
33.718186
 20
29.825419
 30
0.0
 10
31.192254
 20
30.090814
 30
0.0
 10
28.636088
 20
30.455932
 30
0.0
 10
26.090113
 20
30.929322
 30
0.0
 10
23.594753
 20
31.519532
 30
0.0
 10
21.190435
 20
32.235113
 30
0.0
 10
20.035048
 20
32.642588
 30
0.0
 10
18.917582
 20
33.084612
 30
0.0
 10
17.843088
 20
33.562252
 30
0.0
 10
16.816619
 20
34.076578
 30
0.0
 10
15.843230
 20
34.628659
 30
0.0
 10
14.927973
 20
35.219562
 30
0.0
 10
14.075900
 20
35.850356
 30
0.0
 10
13.292066
 20
36.522111
 30
0.0
 10
12.581524
 20
37.235894
 30
0.0
 10
11.949326
 20
37.992774
 30
0.0
 10
11.400525
 20
38.793820
 30
0.0
 10
10.940175
 20
39.640101
 30
0.0
 10
10.573329
 20
40.532685
 30
0.0
 10
10.305040
 20
41.472641
 30
0.0
 10
10.140361
 20
42.461037
 30
0.0
 10
10.084345
 20
43.498942
 30
0.0
 10
10.163272
 20
44.939440
 30
0.0
 10
10.394633
 20
46.293409
 30
0.0
 10
10.770298
 20
47.559965
 30
0.0
 10
11.282138
 20
48.738224
 30
0.0
 10
11.922023
 20
49.827302
 30
0.0
 10
12.681822
 20
50.826316
 30
0.0
 10
13.553406
 20
51.734381
 30
0.0
 10
14.528645
 20
52.550613
 30
0.0
 10
15.599409
 20
53.274128
 30
0.0
 10
16.757569
 20
53.904042
 30
0.0
 10
17.994993
 20
54.439472
 30
0.0
 10
19.303554
 20
54.879533
 30
0.0
 10
20.675120
 20
55.223341
 30
0.0
 10
22.101563
 20
55.470013
 30
0.0
 10
23.574751
 20
55.618665
 30
0.0
 10
25.086556
 20
55.668412
 30
0.0
 10
26.571776
 20
55.615229
 30
0.0
 10
27.972301
 20
55.460658
 30
0.0
 10
29.290634
 20
55.212166
 30
0.0
 10
30.529280
 20
54.877222
 30
0.0
 10
31.690741
 20
54.463293
 30
0.0
 10
32.777521
 20
53.977846
 30
0.0
 10
33.792126
 20
53.428348
 30
0.0
 10
34.737058
 20
52.822269
 30
0.0
 10
35.614821
 20
52.167074
 30
0.0
 10
36.427920
 20
51.470232
 30
0.0
 10
37.178858
 20
50.739210
 30
0.0
 10
37.870139
 20
49.981476
 30
0.0
 10
38.504266
 20
49.204497
 30
0.0
 10
39.083745
 20
48.415741
 30
0.0
 10
40.088769
 20
46.832768
 30
0.0
 10
40.088769
 20
46.832768
 30
0.0
  0
LWPOLYLINE
  5
105
100
AcDbEntity
  8
Eyes
 62
7
100
AcDbPolyline
 90
70
 70
0
 10
44.165802
 20
40.393921
 30
0.0
 10
44.277880
 20
40.622531
 30
0.0
 10
44.644919
 20
41.225229
 30
0.0
 10
45.313123
 20
42.077320
 30
0.0
 10
45.774602
 20
42.557920
 30
0.0
 10
46.328699
 20
43.054107
 30
0.0
 10
46.981191
 20
43.550294
 30
0.0
 10
47.737853
 20
44.030894
 30
0.0
 10
48.604461
 20
44.480320
 30
0.0
 10
49.586790
 20
44.882985
 30
0.0
 10
50.690617
 20
45.223302
 30
0.0
 10
51.921717
 20
45.485683
 30
0.0
 10
53.285866
 20
45.654543
 30
0.0
 10
54.788839
 20
45.714293
 30
0.0
 10
56.291812
 20
45.654543
 30
0.0
 10
57.655960
 20
45.485683
 30
0.0
 10
58.887060
 20
45.223302
 30
0.0
 10
59.990886
 20
44.882985
 30
0.0
 10
60.973215
 20
44.480320
 30
0.0
 10
61.839823
 20
44.030894
 30
0.0
 10
62.596485
 20
43.550294
 30
0.0
 10
63.248976
 20
43.054107
 30
0.0
 10
63.803074
 20
42.557920
 30
0.0
 10
64.264552
 20
42.077320
 30
0.0
 10
64.932756
 20
41.225229
 30
0.0
 10
65.299794
 20
40.622531
 30
0.0
 10
65.411872
 20
40.393921
 30
0.0
 10
65.440382
 20
40.877087
 30
0.0
 10
65.414771
 20
42.150889
 30
0.0
 10
65.329573
 20
43.001920
 30
0.0
 10
65.168329
 20
43.951781
 30
0.0
 10
64.910201
 20
44.967528
 30
0.0
 10
64.534349
 20
46.016218
 30
0.0
 10
64.019934
 20
47.064909
 30
0.0
 10
63.704254
 20
47.578959
 30
0.0
 10
63.346119
 20
48.080656
 30
0.0
 10
62.942924
 20
48.565881
 30
0.0
 10
62.492064
 20
49.030516
 30
0.0
 10
61.990934
 20
49.470445
 30
0.0
 10
61.436930
 20
49.881548
 30
0.0
 10
60.827447
 20
50.259707
 30
0.0
 10
60.159880
 20
50.600806
 30
0.0
 10
59.431623
 20
50.900726
 30
0.0
 10
58.640073
 20
51.155349
 30
0.0
 10
57.782625
 20
51.360558
 30
0.0
 10
56.856672
 20
51.512233
 30
0.0
 10
55.859612
 20
51.606259
 30
0.0
 10
54.788839
 20
51.638515
 30
0.0
 10
53.718065
 20
51.606259
 30
0.0
 10
52.721005
 20
51.512233
 30
0.0
 10
51.795053
 20
51.360558
 30
0.0
 10
50.937604
 20
51.155349
 30
0.0
 10
50.146054
 20
50.900726
 30
0.0
 10
49.417797
 20
50.600806
 30
0.0
 10
48.750230
 20
50.259707
 30
0.0
 10
48.140747
 20
49.881547
 30
0.0
 10
47.586743
 20
49.470444
 30
0.0
 10
47.085613
 20
49.030516
 30
0.0
 10
46.634753
 20
48.565880
 30
0.0
 10
46.231558
 20
48.080655
 30
0.0
 10
45.873422
 20
47.578958
 30
0.0
 10
45.557742
 20
47.064908
 30
0.0
 10
45.043327
 20
46.016217
 30
0.0
 10
44.667475
 20
44.967527
 30
0.0
 10
44.409346
 20
43.951780
 30
0.0
 10
44.248102
 20
43.001919
 30
0.0
 10
44.162904
 20
42.150888
 30
0.0
 10
44.137293
 20
40.877087
 30
0.0
 10
44.165802
 20
40.393921
 30
0.0
 10
44.165802
 20
40.393921
 30
0.0
  0
LWPOLYLINE
  5
106
100
AcDbEntity
  8
Eyes
 62
7
100
AcDbPolyline
 90
70
 70
0
 10
14.765661
 20
40.393921
 30
0.0
 10
14.877739
 20
40.622531
 30
0.0
 10
15.244778
 20
41.225229
 30
0.0
 10
15.912982
 20
42.077320
 30
0.0
 10
16.374461
 20
42.557920
 30
0.0
 10
16.928559
 20
43.054107
 30
0.0
 10
17.581051
 20
43.550294
 30
0.0
 10
18.337714
 20
44.030894
 30
0.0
 10
19.204322
 20
44.480320
 30
0.0
 10
20.186651
 20
44.882985
 30
0.0
 10
21.290478
 20
45.223302
 30
0.0
 10
22.521578
 20
45.485683
 30
0.0
 10
23.885727
 20
45.654543
 30
0.0
 10
25.388700
 20
45.714293
 30
0.0
 10
26.891672
 20
45.654543
 30
0.0
 10
28.255820
 20
45.485683
 30
0.0
 10
29.486920
 20
45.223302
 30
0.0
 10
30.590746
 20
44.882985
 30
0.0
 10
31.573075
 20
44.480320
 30
0.0
 10
32.439682
 20
44.030894
 30
0.0
 10
33.196344
 20
43.550294
 30
0.0
 10
33.848835
 20
43.054107
 30
0.0
 10
34.402932
 20
42.557920
 30
0.0
 10
34.864411
 20
42.077320
 30
0.0
 10
35.532614
 20
41.225229
 30
0.0
 10
35.899652
 20
40.622531
 30
0.0
 10
36.011731
 20
40.393921
 30
0.0
 10
36.040240
 20
40.877087
 30
0.0
 10
36.014629
 20
42.150889
 30
0.0
 10
35.929432
 20
43.001920
 30
0.0
 10
35.768188
 20
43.951781
 30
0.0
 10
35.510060
 20
44.967528
 30
0.0
 10
35.134207
 20
46.016218
 30
0.0
 10
34.619793
 20
47.064909
 30
0.0
 10
34.304113
 20
47.578959
 30
0.0
 10
33.945978
 20
48.080656
 30
0.0
 10
33.542783
 20
48.565881
 30
0.0
 10
33.091923
 20
49.030516
 30
0.0
 10
32.590794
 20
49.470445
 30
0.0
 10
32.036790
 20
49.881548
 30
0.0
 10
31.427307
 20
50.259707
 30
0.0
 10
30.759739
 20
50.600806
 30
0.0
 10
30.031483
 20
50.900726
 30
0.0
 10
29.239934
 20
51.155349
 30
0.0
 10
28.382485
 20
51.360558
 30
0.0
 10
27.456533
 20
51.512233
 30
0.0
 10
26.459473
 20
51.606259
 30
0.0
 10
25.388700
 20
51.638515
 30
0.0
 10
24.317926
 20
51.606259
 30
0.0
 10
23.320865
 20
51.512233
 30
0.0
 10
22.394913
 20
51.360558
 30
0.0
 10
21.537464
 20
51.155349
 30
0.0
 10
20.745914
 20
50.900726
 30
0.0
 10
20.017657
 20
50.600806
 30
0.0
 10
19.350090
 20
50.259707
 30
0.0
 10
18.740606
 20
49.881547
 30
0.0
 10
18.186602
 20
49.470444
 30
0.0
 10
17.685472
 20
49.030516
 30
0.0
 10
17.234612
 20
48.565880
 30
0.0
 10
16.831417
 20
48.080655
 30
0.0
 10
16.473281
 20
47.578958
 30
0.0
 10
16.157601
 20
47.064908
 30
0.0
 10
15.643186
 20
46.016217
 30
0.0
 10
15.267333
 20
44.967527
 30
0.0
 10
15.009204
 20
43.951780
 30
0.0
 10
14.847960
 20
43.001919
 30
0.0
 10
14.762763
 20
42.150888
 30
0.0
 10
14.737151
 20
40.877087
 30
0.0
 10
14.765661
 20
40.393921
 30
0.0
 10
14.765661
 20
40.393921
 30
0.0
  0
ENDSEC
  0
SECTION
  2
OBJECTS
  0
DICTIONARY
  5
C
330
0
100
AcDbDictionary
  3
ACAD_GROUP
350
D
  3
ACAD_MLINESTYLE
350
17
  0
DICTIONARY
  5
D
330
C
100
AcDbDictionary
  0
DICTIONARY
  5
1A
330
C
100
AcDbDictionary
  0
DICTIONARY
  5
17
330
C
100
AcDbDictionary
  3
STANDARD
350
18
  0
DICTIONARY
  5
19
330
C
100
AcDbDictionary
  0
ENDSEC
  0
EOF
